<?xml version="1.0" standalone="no"?>
<!DOCTYPE svg PUBLIC "-//W3C//DTD SVG 1.1//EN" "http://www.w3.org/Graphics/SVG/1.1/DTD/svg11.dtd" >
<svg xmlns="http://www.w3.org/2000/svg">
<metadata>
This is a custom SVG webfont generated by Font Squirrel.
Copyright   : Digitized data  2007 Ascender Corporation All rights reserved
Designer    : Steve Matteson
Foundry     : Ascender Corporation
Foundry URL : httpwwwascendercorpcom
</metadata>
<defs>
<font id="webfont8OVdoqZf" horiz-adv-x="1228" >
<font-face units-per-em="2048" ascent="1638" descent="-410" />
<missing-glyph horiz-adv-x="500" />
<glyph unicode=" " />
<glyph unicode="!" d="M514 0v201h195v-201h-195zM516 1348h197l-25 -951h-147z" />
<glyph unicode="&#x22;" d="M276 1485h226l-43 -639h-142zM725 1485h225l-43 -639h-141z" />
<glyph unicode="#" d="M53 408v108h226l67 318h-242v106h265l88 410h110l-88 -410h363l88 410h110l-88 -410h211v-106h-233l-68 -318h260v-108h-282l-88 -408h-111l86 408h-362l-84 -408h-111l86 408h-203zM389 516h363l67 318h-360z" />
<glyph unicode="$" d="M66 379l170 37q10 -45 34 -99q23 -49 60 -79q39 -33 96 -56q55 -23 131 -24v489q-2 0 -7 1t-7 3q-6 0 -11 2l-2 1l-2 1q-66 16 -98 27q-57 18 -92 33q-45 18 -82 47q-43 31 -68 65q-29 39 -43 84q-16 53 -16 113q0 80 33 141q31 57 90 99q55 39 135 59q72 18 170 23v131 h129v-131q100 -2 174 -25q63 -18 123 -64q53 -41 84 -98q29 -53 51 -135l-174 -33q-8 43 -29 88q-16 37 -51 68q-33 31 -76 45q-49 18 -102 20v-426q18 -4 57 -14t58 -14q53 -14 108 -37q47 -18 97 -51q37 -25 75 -70q33 -39 51.5 -94t18.5 -125q0 -72 -28.5 -139.5 t-86.5 -112.5q-63 -49 -143 -76q-82 -27 -207 -33v-161h-129v161q-213 6 -336 99q-120 90 -155 260zM301 1018q0 -55 21 -90q16 -31 55 -58q31 -23 80 -39l100 -28v411q-70 -2 -119 -18q-49 -15 -79.5 -43t-43.5 -61q-14 -39 -14 -74zM686 156q68 4 119 18q52 15 92 43 q35 25 59 70q23 41 23 96q0 65 -25 104q-27 43 -63 66q-47 29 -94 43l-111 31v-471z" />
<glyph unicode="%" d="M0 1024q0 96 23 164q22 65 61 104q37 37 92 53.5t115 16.5q55 0 110 -16q53 -14 91 -54q37 -37 59 -104.5t22 -163.5q0 -92 -22 -160q-22 -65 -62 -104q-39 -39 -90 -57.5t-112.5 -18.5t-112.5 18q-53 18 -90 56q-39 39 -61.5 106.5t-22.5 159.5zM76 0l932 1354h147 l-934 -1354h-145zM147 1024q0 -68 8.5 -106.5t28.5 -69.5q18 -27 45 -39q29 -12 60 -12q33 0 57 12q27 12 43 39q20 31 28.5 69.5t8.5 106.5q0 72 -8 111q-10 47 -27 71q-18 28 -43 37q-27 10 -57 10q-37 0 -64 -12q-29 -12 -45 -37q-16 -27 -26 -69q-9 -39 -9 -111z M655 330q0 94 23 162q22 65 61 104q37 37 92.5 53.5t114.5 16.5q55 0 111 -17q53 -14 90 -53q40 -40 61 -104q23 -68 23 -162t-23 -162q-22 -65 -61 -105q-39 -39 -92 -57q-51 -18 -113 -18q-57 0 -110.5 18.5t-92.5 56.5q-40 40 -61 105q-23 68 -23 162zM803 330 q0 -61 10 -109q10 -43 27 -69q18 -27 45 -39q29 -12 59 -13q35 0 59.5 12.5t43.5 39.5q16 27 26 69q10 47 10 108.5t-10 108.5t-26 72q-18 28 -43 37q-27 10 -58 10q-39 0 -61 -10q-27 -12 -45 -39q-20 -31 -28.5 -69.5t-8.5 -108.5z" />
<glyph unicode="&#x26;" d="M43 358q0 72 23 140q20 61 61 114q40 52 92 93q51 39 117 71q-16 29 -29 64q-23 63 -24 69q-12 49 -17 74q-6 37 -6 76q0 63 21 117q20 51 65 94q45 41 111 63q74 25 153 25q70 0 129 -19q61 -20 103 -51q39 -31 65 -84q25 -49 25 -114q0 -68 -35 -125q-33 -55 -90 -97 q-63 -47 -131 -77l-152 -68q20 -37 64 -105q41 -66 63.5 -98.5t71.5 -93.5q37 -46 80 -92q37 76 71 184q33 102 54 221l143 -43q-25 -141 -67 -254q-37 -98 -95 -209q43 -55 92.5 -79.5t88.5 -24.5q18 0 51 4q23 2 45 12v-135q-16 -8 -53 -16q-28 -6 -62 -6q-37 0 -78 10 q-35 8 -71 29q-45 25 -64 41q-28 25 -49 49q-31 -27 -64 -49q-45 -31 -79 -45q-45 -18 -95 -31q-52 -12 -110 -12q-106 0 -189 28q-76 27 -129 80q-49 49 -75 121q-25 67 -25 149zM211 362q0 -49 16 -98q14 -45 47 -80q31 -35 82 -53q55 -20 113 -20q33 0 74 10q33 8 65 24 q35 18 56 33q16 12 43 39q-102 115 -170 213q-102 145 -148 227q-84 -45 -131 -121t-47 -174zM408 1057q0 -65 18 -123q14 -45 43 -103l121 54q49 23 98 53q41 27 68 66q25 37 24 81q0 34 -12 62q-12 29 -35 47q-20 18 -53 31q-31 12 -72 12q-37 0 -80 -14q-33 -10 -63 -35 q-23 -18 -41 -58q-16 -36 -16 -73z" />
<glyph unicode="'" d="M502 1485h223l-41 -639h-141z" />
<glyph unicode="(" d="M342 532q0 147 20 269q18 111 68 239q43 114 111 222q74 117 159 223h191q-96 -119 -164 -232q-74 -123 -113 -227q-45 -119 -65 -238q-20 -117 -21 -258q0 -143 21 -260q20 -119 65 -237q39 -104 113 -228q68 -113 164 -231h-191q-94 117 -159 223q-68 109 -111 226 q-49 129 -68 239q-20 120 -20 270z" />
<glyph unicode=")" d="M336 -426q104 127 166 231q74 123 112 228q45 119 66 237q20 117 20 260q0 141 -20 258q-20 119 -66 238q-39 104 -112 227q-61 104 -166 232h192q86 -106 160 -223q68 -108 111 -222q45 -119 65.5 -239.5t20.5 -268.5q0 -150 -20.5 -270.5t-65.5 -238.5 q-43 -117 -111 -226q-66 -106 -160 -223h-192z" />
<glyph unicode="*" d="M248 1159l45 133l266 -106l-10 297h135l-12 -295l264 102l45 -131l-283 -74l185 -249l-119 -72l-150 258l-155 -256l-119 72l188 247z" />
<glyph unicode="+" d="M117 608v146h424v428h145v-428h424v-146h-424v-428h-145v428h-424z" />
<glyph unicode="," d="M258 -362l170 661h264l-309 -661h-125z" />
<glyph unicode="-" d="M334 465v160h561v-160h-561z" />
<glyph unicode="." d="M496 0v299h235v-299h-235z" />
<glyph unicode="/" d="M115 -20l821 1505h176l-815 -1505h-182z" />
<glyph unicode="0" d="M125 676q0 203 37 338q35 131 102 213q63 78 157.5 110.5t194.5 32.5q96 0 191 -33q89 -31 154 -110q70 -86 104 -213q39 -143 39 -338q0 -199 -39 -328q-41 -137 -104.5 -215t-157.5 -117q-90 -37 -192.5 -36.5t-190.5 36.5q-96 39 -156 117q-68 86 -102 213 q-37 133 -37 330zM305 676q0 -160 21 -260q20 -102 61 -168t96 -92q61 -29 129 -29t129 29q55 27 96.5 92t61.5 168q20 100 21 260q0 162 -21 264q-23 115 -57 170q-39 63 -97 88q-59 27 -129 27q-78 0 -133 -27q-59 -29 -98 -90q-37 -59 -59 -168q-21 -100 -21 -264z" />
<glyph unicode="1" d="M147 973v147q82 0 146 17q82 20 133 47q61 31 110.5 73.5t73.5 92.5h166v-1205h354v-145h-972v145h438v1020q-18 -39 -67.5 -75.5t-110.5 -61.5q-66 -27 -133 -41q-66 -14 -138 -14z" />
<glyph unicode="2" d="M143 0v117q39 88 117 180q59 70 154 154q106 94 164 139q78 59 149 129q63 61 109 131q41 63 41 141q0 59 -19 103q-20 47 -55 73q-41 31 -84 41q-57 14 -108.5 14.5t-100.5 -16.5q-51 -16 -82 -45q-34 -31 -55 -74q-25 -49 -31 -104l-182 18q8 72 41 144q31 68 86 117 q59 53 137 79q82 29 186 29q106 0 189 -24q88 -27 143 -70t88 -117q33 -72 33 -158q0 -94 -43 -174q-45 -82 -111 -151q-78 -82 -149 -137l-162 -129q-77 -65 -141 -129q-66 -66 -97 -136h723v-145h-940z" />
<glyph unicode="3" d="M127 362l186 17q10 -57 31 -102.5t57 -77.5q35 -33 93 -52q55 -18 127 -18q137 0 213 64q78 66 77 184q0 66 -34 112q-31 43 -86 72q-45 25 -111 37q-51 10 -113 10h-100v158h96q51 0 107 12q57 12 100 39t76 72q29 41 28 108q0 109 -65 166q-70 59 -199 60 q-119 0 -192 -62q-72 -59 -84 -172l-182 15q12 96 51 161q41 68 102 115q63 47 139 68q84 23 168 22q115 0 205 -29q82 -27 137.5 -75.5t79.5 -112.5q27 -70 27 -137q0 -53 -19 -107q-18 -51 -55 -94q-41 -47 -92 -76q-57 -33 -129 -47v-4q84 -10 143 -39q61 -31 105 -74 q41 -41 63.5 -96t22.5 -108q0 -86 -33 -164q-31 -74 -92 -123q-63 -51 -149.5 -77.5t-204.5 -26.5q-133 0 -220 32q-89 34 -147 86q-59 53 -88 123q-31 75 -39 141z" />
<glyph unicode="4" d="M102 319v140l635 891h201v-889h186v-142h-186v-319h-180v319h-656zM256 461h502v692z" />
<glyph unicode="5" d="M127 315l182 21q14 -45 33 -78q20 -37 53 -65q29 -25 86 -48q49 -18 121 -18q66 0 127 23q58 22 98 61q43 43 63.5 98.5t20.5 130.5q0 61 -20 111q-23 57 -60 90q-41 39 -96 59q-57 23 -129 23q-49 0 -82 -8q-49 -12 -71 -23q-27 -12 -58 -33q-37 -25 -51 -38h-174 l45 729h803v-146h-635l-31 -426q45 35 121 64q68 27 170 26q106 0 191 -30q80 -29 143 -90q59 -55 90 -134q33 -82 33 -170q0 -94 -33 -186q-31 -88 -94 -147q-66 -63 -158 -97q-94 -35 -217 -34q-102 0 -192 26q-78 23 -140 72q-55 43 -90 106q-35 61 -49 131z" />
<glyph unicode="6" d="M152 641q0 174 34.5 313.5t98.5 229.5q63 92 159 139q94 47 211 47q76 0 136 -14q61 -14 114 -49q49 -33 90 -88q40 -55 62 -136l-172 -30q-27 90 -90.5 131t-141.5 41q-72 0 -135 -35q-53 -31 -100 -103q-45 -70 -66 -165q-23 -102 -22 -228q49 92 139 139.5t203 47.5 q94 0 174 -31q82 -31 135 -88q55 -59 86 -137q29 -74 29 -179q0 -106 -29 -186q-31 -88 -88 -147q-66 -68 -141 -99q-88 -35 -197 -34q-121 0 -215 47q-90 45 -154 133q-59 82 -90 207q-30 122 -30 274zM348 481q0 -76 21 -137q23 -66 57 -113q37 -49 90 -77.5t119 -28.5 q61 0 117 22q47 20 88 64q37 40 55 98.5t18 128.5q0 68 -18 123q-20 59 -53 96q-37 39 -90 62q-55 23 -123 22q-45 0 -99 -16q-51 -16 -90 -49q-47 -41 -67 -80q-25 -49 -25 -115z" />
<glyph unicode="7" d="M158 1204v146h911v-140q-106 -154 -182 -284q-82 -141 -149.5 -301t-102.5 -310q-39 -166 -39 -315h-188q0 156 41 315q41 164 106 312q68 152 156 299q98 164 184 278h-737z" />
<glyph unicode="8" d="M133 377q0 74 23 127q25 59 63 100q39 43 90 68q51 27 105 35v4q-61 16 -105 45q-47 33 -78 73q-37 51 -49 93q-16 53 -16 102q0 68 29 131q27 59 84 111q53 47 139 75.5t192 28.5q109 0 199 -29q84 -27 141 -77q55 -49 82 -110.5t27 -131.5q0 -49 -17 -102 q-14 -47 -47 -93q-27 -37 -77 -71q-45 -31 -109 -43v-4q59 -8 112.5 -37t90.5 -68q40 -43 61 -98q20 -53 21 -127q0 -82 -29 -158q-27 -70 -86 -127q-53 -51 -150 -84q-89 -31 -215 -30q-127 0 -215 30q-90 31 -149 84q-61 55 -88 127q-29 76 -29 156zM319 391 q0 -57 17 -110q15 -49 49 -86q35 -39 92 -60q55 -20 139 -20t138 20q57 23 90 58q33 37 49 90q14 49 14 112q0 49 -14 90q-16 47 -47 80q-33 35 -92 58q-55 20 -144 20q-82 0 -135 -20q-55 -23 -90 -60q-35 -39 -49 -80q-17 -49 -17 -92zM350 1012q0 -45 10 -78 q12 -41 41 -76q31 -37 80 -57q55 -23 131 -23q78 0 138 25q47 18 77 57q27 33 37 76q8 35 8 76t-14 88q-12 39 -45 71q-27 27 -80 48q-49 18 -123 18q-70 0 -118 -18q-55 -20 -82 -48q-29 -29 -45 -71q-15 -37 -15 -88z" />
<glyph unicode="9" d="M141 911q0 102 31 189q29 80 92 143q59 59 148 94q84 33 198 33q237 0 357 -166q121 -168 120 -502q0 -172 -34 -311q-31 -127 -103 -227q-63 -90 -159 -137q-98 -47 -213 -47q-78 0 -148 16q-55 14 -115 51q-47 31 -88 92q-35 53 -57 135l172 27q27 -88 88 -133 q57 -43 150 -43q72 0 135 35q57 33 102 98q39 57 66 166q27 106 26 225q-23 -49 -57.5 -84t-83.5 -61q-51 -27 -100 -39q-61 -14 -109 -14q-94 0 -174 34q-76 33 -131 95q-53 59 -84 145q-29 80 -29 186zM324 911q0 -65 18 -123q20 -61 51 -102q33 -41 88 -68 q51 -25 121 -24q55 0 103 16q49 16 92 52q37 29 67 83q27 47 27 117q0 76 -19 139q-18 66 -55 115q-33 45 -90 78q-52 31 -123 31q-61 0 -117 -23q-49 -20 -88 -65t-55 -99q-20 -66 -20 -127z" />
<glyph unicode=":" d="M496 0v299h235v-299h-235zM496 782v299h235v-299h-235z" />
<glyph unicode=";" d="M352 -362l168 661h266l-311 -661h-123zM496 782v299h235v-299h-235z" />
<glyph unicode="&#x37e;" d="M352 -362l168 661h266l-311 -661h-123zM496 782v299h235v-299h-235z" />
<glyph unicode="&#x3c;" d="M117 571v205l993 418v-154l-856 -366l856 -367v-153z" />
<glyph unicode="=" d="M117 344v148h993v-148h-993zM117 856v148h993v-148h-993z" />
<glyph unicode="&#x3e;" d="M117 154v153l858 367l-858 366v154l993 -418v-205z" />
<glyph unicode="?" d="M94 961q12 89 49 165q35 74 101 129q63 53 149 84q90 31 201 31q108 0 197 -24q88 -25 151 -70q61 -43 96 -115q35 -70 35 -160q0 -68 -18 -120t-49 -93q-29 -37 -72 -73q-27 -23 -80 -64q-23 -16 -44.5 -32.5l-35.5 -26.5q-47 -35 -72 -64q-35 -39 -51 -75 q-20 -47 -20 -97h-174q4 70 20 119q16 47 51 92q29 37 70 72q27 23 80 63l78 58q33 25 67 63q31 35 49 76q18 43 19 94q0 57 -21 99q-23 43 -59 69q-43 29 -92 43q-59 16 -123 17q-61 0 -123 -21q-59 -20 -96 -53q-45 -43 -68 -86q-25 -49 -30 -113zM449 0v201h194v-201 h-194z" />
<glyph unicode="@" d="M43 514q0 209 43 387t123 307t196.5 203t266.5 74q129 0 229 -60q96 -57 162 -159q63 -100 94 -232q33 -141 33 -278q0 -150 -21 -264q-23 -125 -59 -205q-41 -88 -96.5 -135.5t-128.5 -47.5q-35 0 -58 9q-29 10 -45 26q-20 20 -30.5 47t-10.5 74v8v13q0 2 1 5t1 5v8h-6 q-8 -20 -39 -74q-20 -37 -51 -63q-31 -28 -67 -43q-35 -14 -78 -15q-66 0 -107 33t-69 86q-23 43 -37 123q-12 72 -13 143q0 76 13 150q14 84 33 143q23 70 55 127q35 61 72 101q39 43 90 67q49 25 104 25q37 0 74 -15q33 -12 53 -36q16 -18 35 -56q10 -23 22 -67h7l30 151 h117l-98 -508l-17 -82q-8 -53 -12 -77.5t-8 -65.5t-4 -51q0 -55 14 -71.5t35 -16.5q39 0 71.5 39t57.5 112q23 66 35 174q12 101 12 222q0 141 -25 239q-29 113 -77 197q-47 80 -125 131q-70 47 -170 47q-121 0 -213 -68q-96 -70 -157.5 -182t-96.5 -270q-33 -152 -33 -334 q0 -160 29 -276q31 -126 86 -215q55 -88 137 -140q80 -49 182 -49q49 0 111 14q53 12 94 33q53 27 86 49q35 25 78 64l71 -88q-49 -43 -92 -72q-39 -27 -104 -59q-55 -29 -119 -43q-59 -14 -135 -15q-127 0 -229 56q-98 53 -172 161q-72 106 -111 250t-39 330zM412 492 q0 -61 6 -112.5t18.5 -88.5t34.5 -60q20 -20 55 -20q39 0 74 27q37 29 66 77q31 55 51 121q27 86 37 160q2 10 6 43q0 8 3 25.5t5 27.5q0 8 1 26.5t3 26.5q2 16 2 39q0 102 -35 160q-35 55 -94 55q-35 0 -67 -22q-37 -27 -60 -59q-18 -29 -45 -89q-18 -43 -33 -106 q-16 -72 -20 -115q-8 -77 -8 -116z" />
<glyph unicode="A" d="M0 0l510 1350h217l502 -1350h-195l-137 383h-563l-137 -383h-197zM385 530h463l-148 424q-8 25 -26 76q-8 20 -13.5 40t-11.5 36q-12 35 -20 61l-13 37q-2 -8 -12 -39l-20 -61l-12.5 -37.5t-10.5 -36.5q-6 -20 -13 -39.5l-13 -36.5z" />
<glyph unicode="B" d="M162 0v1350h411q106 0 209 -21q92 -18 155.5 -57t98.5 -103q33 -59 33 -147q0 -53 -16 -107q-16 -51 -49 -90q-35 -41 -84 -71q-41 -27 -117 -43q84 -8 149 -37q68 -29 111 -72t65.5 -100.5t22.5 -120.5q0 -109 -41 -176q-43 -72 -113 -117q-71 -46 -166 -68 q-90 -20 -196 -20h-473zM352 154h266q84 0 136 10q61 12 108 40.5t71.5 74t24.5 118.5q0 63 -24.5 106.5t-71.5 71.5q-53 31 -112 43q-66 12 -146 13h-252v-477zM352 780h226q84 0 139 15q49 12 92 45q39 29 53 67q16 43 17 90q0 109 -76 154t-228 45h-223v-416z" />
<glyph unicode="C" d="M113 682q0 156 32 293q31 127 99 217q66 88 166 133q98 45 239 45q102 0 176 -26.5t133 -75.5q49 -41 93 -107q37 -55 63 -127l-168 -63q-14 45 -40.5 90t-61.5 78q-37 34 -86 55q-47 20 -109 20q-86 0 -151.5 -34.5t-104.5 -100.5q-41 -70 -59 -168q-20 -109 -21 -229 q0 -137 21 -233q23 -109 61 -173q41 -68 109 -106q61 -35 158 -35q63 0 112 25q57 29 90 61q47 47 70 90q29 55 49 107l160 -66q-23 -57 -70 -137q-39 -66 -98.5 -119t-136.5 -84q-82 -33 -179 -32q-137 0 -243 51q-102 49 -170 141q-66 90 -101 221q-32 125 -32 289z" />
<glyph unicode="D" d="M162 0v1350h311q160 0 279 -39q123 -41 204 -119q84 -80 127 -207q41 -121 41 -297q0 -172 -39 -297q-40 -129 -116 -215q-80 -90 -187 -131q-117 -45 -250 -45h-370zM352 156h162q211 0 315 133q104 132 105 399q0 133 -29 232q-27 94 -86 155q-61 63 -141 90 q-90 29 -205 29h-121v-1038z" />
<glyph unicode="E" d="M162 0v1350h919v-156h-729v-424h670v-154h-670v-460h770v-156h-960z" />
<glyph unicode="F" d="M195 0v1350h890v-156h-700v-496h676v-157h-676v-541h-190z" />
<glyph unicode="G" d="M113 682q0 166 30 295q31 127 96.5 215t166.5 133q98 45 235 45q92 0 176 -27q70 -23 131 -69q59 -45 94 -105q35 -57 62 -131l-172 -55q-37 109 -107 170q-72 61 -182 61q-86 0 -151 -34q-61 -33 -103 -103q-39 -66 -57 -166q-18 -98 -19 -229q0 -268 86 -407.5 t256 -139.5q51 0 90 8q43 8 74 21q31 10 58 24q35 16 38 21v336h-292v160h479v-572q-12 -8 -84 -51q-43 -27 -107 -49q-59 -23 -125 -37q-72 -16 -147 -16q-133 0 -233 53q-98 53 -164 145q-66 94 -97 221q-32 138 -32 283z" />
<glyph unicode="H" d="M162 0v1350h190v-568h522v568h193v-1350h-193v623h-522v-623h-190z" />
<glyph unicode="I" d="M203 0v156h315v1038h-315v156h821v-156h-315v-1038h315v-156h-821z" />
<glyph unicode="J" d="M176 350l186 31q9 -65 31 -111q18 -39 51 -75q25 -29 66 -45q35 -14 78 -15q102 0 155.5 72t53.5 209v778h-312v156h500v-930q0 -100 -24 -182q-23 -74 -76 -138q-49 -59 -125 -90q-74 -31 -174 -30q-170 0 -273 90q-104 90 -137 280z" />
<glyph unicode="K" d="M162 0v1350h190v-674l574 674h225l-506 -574l582 -776h-223l-488 639l-164 -170v-469h-190z" />
<glyph unicode="L" d="M238 0v1350h190v-1194h672v-156h-862z" />
<glyph unicode="M" d="M129 0v1350h238l184 -490q6 -12 20 -61q16 -49 23 -76q8 -29 24 -94l27 90q10 37 23 76q14 49 20 63l186 492h226v-1350h-162v868v105q0 68 2 96q2 35 2 100l-33 -108l-30 -94q-18 -57 -31 -88l-164 -439h-137l-166 439q-8 20 -12 34q-10 33 -15 45l-16 48l-16 49 l-37 114q0 -23 1 -48t1 -52q0 -14 1 -47t1 -51v-103v-868h-160z" />
<glyph unicode="N" d="M162 0v1350h223l526 -1139q-4 29 -8 86q-4 45 -6 88q-2 33 -2 100v865h172v-1350h-231l-521 1130l9 -88q2 -25 6 -81q2 -29 2 -84v-877h-170z" />
<glyph unicode="O" d="M102 682q0 176 33 301t101 215q65 86 159 129q96 43 219 43q246 0 379 -174t133 -514q0 -170 -34 -305q-31 -121 -103 -219q-66 -90 -160 -133q-100 -45 -217 -45q-125 0 -223 47q-92 45 -160 137q-66 90 -96.5 219t-30.5 299zM303 682q0 -272 80 -409.5t231 -137.5 q166 0 238 139q74 141 74 408q0 268 -80 401q-80 131 -232 131q-158 0 -233 -131q-78 -133 -78 -401z" />
<glyph unicode="P" d="M162 0v1350h461q121 0 217 -29q88 -27 155 -84q61 -51 92 -127q31 -74 31 -166q0 -88 -28 -160q-33 -82 -91 -139q-55 -55 -151 -94q-92 -37 -213 -37h-283v-514h-190zM352 666h254q84 0 144 20q57 20 100 59q39 37 57 89q20 57 21 108q0 125 -82 188q-84 66 -248 66 h-246v-530z" />
<glyph unicode="Q" d="M102 682q0 176 33 301t101 215q65 86 159 129q96 43 219 43q246 0 379 -174t133 -514q0 -139 -26 -266q-25 -117 -74 -203q-49 -88 -119 -141q-68 -53 -162 -76q39 -123 109 -182q66 -57 168 -58q18 0 59 4t56 9v-134q-45 -10 -84 -16q-45 -6 -95 -6q-86 0 -149 25 q-57 23 -113 73q-49 45 -84 117q-33 63 -61 156q-117 12 -197 63q-86 55 -139 139q-59 96 -86 215q-27 121 -27 281zM303 682q0 -272 80 -409.5t231 -137.5q166 0 238 139q74 141 74 408q0 268 -80 401q-80 131 -232 131q-158 0 -233 -131q-78 -133 -78 -401z" />
<glyph unicode="R" d="M162 0v1350h481q115 0 211 -27q92 -25 150 -74q57 -47 88 -116q29 -63 28 -156q0 -63 -18 -125q-18 -59 -62 -113q-45 -55 -106.5 -90t-157.5 -51l402 -598h-222l-364 575h-240v-575h-190zM352 725h281q86 0 139 20q63 25 92 54q34 34 49 80q16 49 17 94q0 223 -305 223 h-273v-471z" />
<glyph unicode="S" d="M80 338l184 37q14 -59 35 -101q23 -43 68 -77q39 -31 102 -50q61 -18 145 -18q66 0 134 14q55 12 100 41q43 28 67 74q23 43 23 109q0 76 -31 114q-35 45 -86 72q-49 27 -119 45l-135 35l-35 9t-28.5 8t-36.5 12q-61 18 -98 32q-47 18 -88 47q-45 31 -72 64 q-25 31 -47 88q-16 43 -17 117q0 100 35 164q39 72 101 112q63 43 147 64q82 20 186 20q119 0 199 -20q82 -20 137.5 -61.5t89.5 -102.5q35 -63 56 -139l-189 -33q-12 51 -33 90q-23 41 -57 67q-33 25 -86 41q-45 14 -117 15q-76 0 -135 -17q-47 -12 -86 -45 q-31 -25 -47 -67q-14 -37 -14 -84q0 -63 26 -99q29 -39 72 -61q53 -29 105 -41l131 -35l110 -28q51 -14 106.5 -37t96.5 -49.5t78 -69.5q35 -41 53 -96.5t18 -126.5q0 -88 -30 -158q-31 -72 -94 -123q-70 -55 -162 -82q-102 -29 -232 -28q-236 0 -364.5 92t-165.5 266z" />
<glyph unicode="T" d="M76 1194v156h1075v-156h-442v-1194h-191v1194h-442z" />
<glyph unicode="U" d="M141 471v879h193v-852q0 -98 12 -166q12 -70 43 -113t82 -63q49 -20 133 -21q86 0 139 21q55 20 88 63q33 41 50 117q14 66 14 176v838h190v-861q0 -131 -28 -233q-25 -90 -90 -158q-59 -61 -150 -90q-92 -29 -213 -28.5t-203 26.5q-84 27 -143 86q-61 61 -88 152 q-29 96 -29 227z" />
<glyph unicode="V" d="M10 1350h201l319 -904q4 -10 10.5 -28.5l11.5 -33.5t9 -30l27 -92q14 -47 26 -94q12 45 27 92l27 90l30 96l320 904h201l-506 -1350h-199z" />
<glyph unicode="W" d="M0 1350h188l111 -836q4 -25 8 -73t4 -54q2 -14 5 -53t6 -58q8 -84 10 -108q8 33 15 66.5l15 68.5q2 12 6.5 27.5t8.5 31.5q6 31 14 62l15 57q4 14 8 29.5t6 21.5l108 400h174l109 -400q2 -6 6 -20t8 -31q6 -29 15 -57q2 -10 7 -29.5t7 -29.5l8 -32t6 -28l15.5 -69.5 t15.5 -67.5q2 12 4 35l8 84q2 27 6.5 56.5t6.5 55.5q4 41 12 115l102 836h191l-211 -1350h-207l-104 387q-2 8 -5.5 19.5l-7.5 25.5q-6 27 -14 55l-16 62q-8 31 -15 61l-33 146l-34 -148q-6 -31 -15 -61l-16 -60q-4 -14 -14 -55q-2 -12 -6.5 -23.5t-6.5 -21.5l-104 -387 h-209z" />
<glyph unicode="X" d="M37 0l475 705l-434 645h205l331 -514l332 514h205l-434 -645l477 -705h-207l-373 573l-372 -573h-205z" />
<glyph unicode="Y" d="M37 1350h205l372 -613l373 613h205l-483 -766v-584h-189v584z" />
<glyph unicode="Z" d="M74 0v143l817 1051h-746v156h963v-140l-817 -1054h864v-156h-1081z" />
<glyph unicode="[" d="M410 -426v1911h546v-139h-366v-1633h366v-139h-546z" />
<glyph unicode="\" d="M115 1485h178l821 -1505h-182z" />
<glyph unicode="]" d="M270 -287h367v1633h-367v139h547v-1911h-547v139z" />
<glyph unicode="^" d="M133 442l379 908h203l379 -908h-154l-330 803l-325 -803h-152z" />
<glyph unicode="_" d="M-4 -125h1237v-94h-1237v94z" />
<glyph unicode="`" d="M401 1432v28h197l227 -239v-21h-123z" />
<glyph unicode="a" d="M127 301q0 106 41 176q43 72 102 109q61 37 146 53q88 16 166 16l235 4v60q0 68 -12 115t-41 75q-33 33 -70 43q-43 12 -98 13q-51 0 -90 -7q-35 -6 -70 -28q-29 -18 -47 -53t-24 -84l-189 18q9 65 37 117q27 51 78 92q49 41 125 61q74 20 182 21q197 0 301 -94 q100 -92 100 -271v-465q0 -80 22.5 -120.5t80.5 -40.5q18 0 28 2q4 2 14.5 4t14.5 2v-113q-34 -9 -67 -12q-45 -4 -70 -4q-45 0 -88 14q-37 12 -60 41q-23 31 -34 68q-14 45 -17 94h-6q-27 -49 -61 -94q-29 -37 -78 -72q-41 -29 -100 -45q-61 -16 -132 -16q-158 0 -237 86 q-82 88 -82 235zM317 299q0 -80 45.5 -131t129.5 -51q80 0 145 33q63 31 100 77q41 49 62 107q18 49 18 110v91l-188 -5q-37 0 -111 -8q-53 -6 -100 -33q-49 -29 -74 -69q-27 -45 -27 -121z" />
<glyph unicode="b" d="M178 0q0 2 1 12.5t1 18.5q0 6 1 23.5t1 27.5t1 31.5t1 33.5v76v1262h181v-424v-57q0 -10 -1.5 -28t-1.5 -24q0 -8 -1 -25.5t-1 -23.5h5q51 111 133 154q88 47 200 47q195 0 293 -139q98 -138 99 -418q0 -287 -101 -426q-100 -141 -291 -141q-115 0 -200 43 q-84 41 -133 141h-3q0 -8 -1 -25.5t-1 -28t-1 -27.5t-1 -24q0 -8 -1 -21t-1 -18q0 -6 -3 -16l-1 -4h-174zM365 524q0 -123 20 -198q23 -84 57 -127q39 -47 88 -66q57 -20 117 -20q61 0 113 22q47 20 80 76q33 57 47 131q16 88 16 199q0 119 -14 192q-14 76 -47 131 q-29 49 -78 76q-47 25 -115 25q-63 0 -119 -23q-51 -20 -88 -74q-37 -51 -57 -135q-20 -82 -20 -209z" />
<glyph unicode="c" d="M129 543q0 163 43 270q43 106 115 172q68 61 159 90q86 27 187 27q96 0 174 -25q74 -25 133 -69q55 -43 90 -103q35 -61 47 -127l-190 -12q-14 90 -80 143q-63 51 -182 52q-90 0 -146 -27q-57 -27 -94 -80q-35 -49 -51 -131q-14 -72 -15 -176q0 -106 15 -180 q16 -82 51 -136q39 -57 94 -84q61 -29 144 -28q109 0 180 53q70 51 88 162l188 -12q-9 -68 -43 -129q-37 -66 -90 -109q-66 -51 -135 -76q-82 -29 -180 -28q-135 0 -232 43q-100 45 -155 118q-58 77 -86 178q-29 105 -29 224z" />
<glyph unicode="d" d="M137 532q0 565 393 566q120 0 203 -43q78 -41 129 -142h2v27v45v49q0 8 -1 18.5t-1 12.5v420h180v-1262q0 -14 1 -38.5t1 -37.5v-65q0 -10 1.5 -27.5t1.5 -23.5q0 -8 1 -18.5t1 -12.5h-172q0 10 -3 23q-4 25 -4 43q0 8 -1 25.5t-1 27.5t-1 28.5t-1 26.5h-4 q-51 -106 -131 -154q-82 -47 -201 -47q-201 0 -297 139t-96 420zM324 539q0 -119 14 -193q16 -84 45 -133q31 -51 80 -75.5t115 -24.5q70 0 122 24q51 25 88 76t56 137q18 84 18 205q0 113 -18.5 192.5t-53 127t-90.5 69.5q-49 20 -120 21q-61 0 -113 -23q-49 -22 -80 -74 q-33 -55 -47 -133q-16 -87 -16 -196z" />
<glyph unicode="e" d="M133 549q0 158 39 262q39 106 107 170q66 63 155.5 92t181.5 29q137 0 222 -41q90 -43 147 -119q61 -80 84 -180q25 -106 25 -236v-22h-772q0 -80 20 -158q18 -71 55 -123q35 -51 95 -80q57 -29 131 -28q57 0 102 12t84 35q35 20 61.5 53t36.5 66l158 -45 q-12 -39 -47 -91q-27 -41 -86 -82q-47 -33 -129 -59q-78 -25 -180 -24q-113 0 -205 36.5t-156 106.5q-61 68 -96 178q-33 105 -33 248zM324 641h583q-10 96 -32.5 157.5t-65.5 100.5t-86 53q-53 16 -104.5 16.5t-96.5 -14.5q-53 -16 -94 -51t-72 -100q-28 -62 -32 -162z" />
<glyph unicode="f" d="M137 940v141h262v27q0 98 23 172q20 68 74 117q47 43 129 65q84 23 192 23q8 0 31.5 -1t38.5 -1q27 0 80 -4l38.5 -5.5t36.5 -3.5l58 -8v-143q-6 2 -26.5 3t-29.5 1l-75 6q-53 4 -74 4q-14 0 -32.5 1t-22.5 1q-59 0 -115 -10q-51 -10 -82 -37q-33 -29 -47 -74 q-16 -49 -16 -122v-11h491v-141h-491v-940h-181v940h-262z" />
<glyph unicode="g" d="M143 549q0 137 20.5 233.5t69.5 171.5q47 72 123 109q78 37 187 37q113 0 196.5 -53.5t128.5 -149.5h2q0 8 1 26.5t1 29t1 31t1 28.5q0 18 5 47q0 6 1 11t2 8l1 3h172q0 -2 -1 -12t-1 -18q0 -6 -1 -23.5t-1 -28t-1 -32t-1 -33.5v-76v-825q0 -229 -107 -342 q-109 -115 -328 -115q-90 0 -157 18q-72 18 -119 56q-51 39 -80 84q-31 49 -43 108l184 27q18 -78 74 -117q57 -41 148 -41q55 0 102 19q45 18 78 53t51 98q16 55 16 146v194h-2q-23 -47 -47 -78q-39 -47 -71 -67q-49 -31 -97 -47q-49 -16 -127 -17q-106 0 -174 33 q-74 35 -119 100q-47 68 -67 168q-21 97 -21 236zM330 551q0 -123 14 -195q16 -78 47 -125q33 -51 80 -67q49 -18 115 -19q53 0 102 21q53 23 92 70q37 47 64 126q25 76 24 189q0 119 -22 192q-25 82 -64 129.5t-90 70t-104 22.5q-66 0 -117 -23q-49 -20 -80 -72 q-33 -53 -47 -126.5t-14 -192.5z" />
<glyph unicode="h" d="M184 0v1485h183v-391q0 -35 -5 -101q-2 -27 -4 -51t-2 -45h4q27 49 55.5 84t73.5 66q35 25 93 40q49 14 116 15q82 0 150 -23q61 -20 108 -67q45 -45 70 -117q23 -66 23 -174v-721h-181v694q0 78 -16 133q-14 49 -47 82q-29 29 -70 41q-39 12 -88 13q-55 0 -110 -23 q-45 -18 -88 -66q-40 -43 -62 -104q-23 -63 -22 -143v-627h-181z" />
<glyph unicode="i" d="M143 0v141h422v799h-319v141h499v-940h379v-141h-981zM545 1292v193h200v-193h-200z" />
<glyph unicode="j" d="M117 -242q18 -6 53 -12q12 -2 33.5 -5t32.5 -5q27 -4 75 -8q53 -4 78 -4q59 0 105 14q51 16 86 45q31 27 55 78q20 43 20 114v965h-405v141h586v-1110q0 -113 -35 -184q-37 -78 -94.5 -123t-137.5 -67.5t-163 -22.5q-29 0 -82 4q-35 2 -80 10q-25 4 -70 13q-27 4 -57 16 v141zM637 1292v193h199v-193h-199z" />
<glyph unicode="k" d="M236 0v1485h180v-928l475 524h211l-438 -465l460 -616h-211l-364 500l-133 -99v-401h-180z" />
<glyph unicode="l" d="M133 0v141h422v1200h-289v144h469v-1344h381v-141h-983z" />
<glyph unicode="m" d="M98 1081h150l1 -8q1 -8 1 -16q0 -6 1 -21.5t1 -26t1 -28.5t1 -27v-47h2q10 33 31 74q16 35 43 63q23 25 61 43q31 14 80 15q92 0 133 -47q43 -49 62 -150h2q23 55 39 84q18 33 51 61.5t63 39.5q37 12 82 12q59 0 105 -23q43 -22 67.5 -67.5t36.5 -116.5q12 -72 12 -174 v-721h-168v686q0 80 -6 131q-6 43 -20 86q-12 35 -35 47.5t-53 12.5q-63 0 -105 -84q-39 -80 -39 -252v-627h-168v686q0 80 -6 131q-6 52 -18 86q-12 35 -35 47q-20 12 -53 13q-35 0 -60 -25q-27 -27 -45 -72q-20 -49 -28 -112q-10 -72 -11 -148v-606h-170v852v70 q0 12 -1 36.5t-1 34.5q0 12 -1 30.5t-1 27.5q0 10 -1 20z" />
<glyph unicode="n" d="M178 1081h170l1 -9q1 -9 1 -17q0 -6 2 -23.5t2 -27.5q0 -8 1 -28t1 -30v-49h4q31 57 56 84q37 41 76 66q37 23 96 40q49 14 119 15q80 0 147 -23q63 -20 107 -67q45 -47 65 -117q23 -74 23 -174v-721h-181v694q0 78 -16 133q-14 49 -47 82q-29 29 -70 41q-39 12 -88 13 q-55 0 -110 -23q-45 -18 -88 -66q-40 -43 -62 -104q-23 -63 -22 -143v-627h-181v852v70q0 12 -1 36.5t-1 34.5q0 12 -1 30.5t-1 27.5q0 10 -1 20z" />
<glyph unicode="o" d="M129 543q0 274 127 418q125 141 358 141q244 0 365 -139q119 -137 119 -420q0 -139 -35 -248t-96 -176q-65 -71 -154 -105q-92 -35 -205 -34q-104 0 -196 34q-90 35 -152 105q-63 74 -96 174q-35 109 -35 250zM319 543q0 -133 23 -209q25 -84 63.5 -131t92.5 -70 q49 -20 108.5 -20t120.5 20q57 18 96 67.5t62 133.5q23 86 22 209q0 127 -20 207q-23 86 -60 131q-43 51 -92 69q-52 18 -117 19q-68 0 -120 -21q-55 -20 -95 -69q-41 -49 -61 -131q-23 -86 -23 -205z" />
<glyph unicode="p" d="M178 1081h176l1 -3q1 -3 1 -7v-10t2 -21.5t2 -23.5t1 -26.5t1 -29t1.5 -30t1.5 -27.5h4q27 55 55 90q33 39 72 64q33 20 90 35q49 12 112 12q113 0 185 -39q74 -41 121 -115q43 -70 65 -176q20 -100 20.5 -227t-20.5 -228q-23 -113 -65 -180q-45 -74 -121 -116 q-74 -43 -185 -43q-49 0 -104 10q-45 8 -94 33q-37 18 -76 57q-37 37 -57 84h-5v-17q0 -4 1.5 -17t1.5 -21v-54q0 -10 1 -28.5t1 -28.5v-424h-183v1284v78q0 12 -1 33.5t-1 32t-1 28t-1 23.5q0 8 -1 17t-1 11zM367 524q0 -115 18 -194.5t53 -126.5t90 -70q49 -20 121 -20 q70 0 121 28q49 27 80 84q29 51 41 135q12 80 12 187q0 115 -10 178q-12 80 -43 131q-33 57 -78 82q-47 27 -121 27q-58 0 -110.5 -18.5t-91.5 -67.5q-37 -47 -60 -134q-22 -90 -22 -221z" />
<glyph unicode="q" d="M137 532q0 283 98.5 424.5t292.5 141.5q74 0 117 -11q49 -12 92 -34q35 -18 70 -58q23 -25 53 -82h2q0 8 1 25.5t1 28t2 28t2 25.5q0 18 4 43q2 12 2 20h177q0 -2 -1 -11t-1 -17q0 -6 -1 -24.5t-1 -31.5q0 -10 -1.5 -36.5t-1.5 -44.5v-117v-1227h-182v440q0 8 1 26.5 t1 29.5v55q0 16 1 29.5t1 27.5h-2q-23 -47 -55 -90q-27 -35 -72 -65q-37 -25 -92 -39q-57 -14 -115 -15q-203 0 -297 142q-96 143 -96 417zM324 539q0 -113 14 -187q16 -84 45 -133q31 -53 78 -79.5t117 -26.5q53 0 110 20q49 18 90 68q40 49 62 135q23 90 22.5 219 t-18.5 197q-23 84 -57.5 127t-90.5 65q-49 20 -116.5 20.5t-116.5 -24.5t-80 -78q-29 -49 -45 -133q-14 -73 -14 -190z" />
<glyph unicode="r" d="M242 1081h172q0 -4 6 -23.5t8 -31.5q2 -8 7 -29.5t7 -33.5l13 -68q2 -12 4 -35.5t2 -28.5h6q33 74 57 113q33 51 74 84q51 39 100 55q58 18 142 19q72 0 108 -4q47 -4 96 -13v-167q-33 6 -98 14q-53 6 -112 6q-82 0 -152 -35q-66 -33 -113 -92t-71 -137q-25 -77 -25 -166 v-508h-178v700q0 57 -6 115q-6 68 -15 109q-10 61 -18 94q-2 10 -7 32.5t-7 30.5z" />
<glyph unicode="s" d="M168 248l158 31q12 -53 38.5 -86t63.5 -52q31 -16 86 -22q33 -4 107 -4q66 0 108 8q51 10 84 29q37 23 57 53q20 33 21 80q0 49 -24.5 79.5t-69.5 53.5q-35 16 -105 35q-35 8 -69.5 17l-63.5 17q-115 33 -127 37q-74 25 -113 51q-47 33 -79 84q-29 45 -29 127 q0 150 104 230q109 84 308 84q84 0 147 -15q68 -16 125 -47q51 -29 90 -80q33 -43 49 -118l-162 -21q-6 45 -28 74q-20 27 -57 43t-76 22q-43 6 -88 7q-244 0 -244 -152q0 -47 20 -74q23 -29 62 -47q51 -25 92 -33l119 -30q68 -16 133 -37q72 -23 125 -55q57 -35 94 -90.5 t37 -137.5q0 -76 -31 -137t-86 -104q-57 -45 -137 -66q-86 -23 -186 -22q-80 0 -170 14q-66 10 -132 45q-55 29 -96 82q-37 47 -55 127z" />
<glyph unicode="t" d="M190 940v141h170l58 283h121v-283h432v-141h-432v-651q0 -84 41 -119q43 -37 141 -37q25 0 82 4q53 4 82 8q10 2 35.5 5.5t37.5 5.5q37 6 60 12v-137q-6 -2 -25.5 -6.5t-31.5 -8.5q-39 -10 -80 -16q-16 -2 -48 -5t-47 -5q-53 -6 -104 -6q-162 0 -244 69q-80 68 -80 215 v672h-168z" />
<glyph unicode="u" d="M184 360v721h181v-686q0 -80 12 -131q14 -57 37 -86q27 -33 69 -45q49 -14 107 -14q59 0 115 22q49 20 88 66q37 43 55 104q20 68 20 144v626h181v-850v-71q0 -12 1 -37t1 -35q0 -12 1 -30.5t1 -26.5q0 -10 1 -21l1 -10h-170l-1 9q-1 9 -1 18q0 6 -1 23.5t-1 27.5 q0 8 -1 27.5t-1 29.5t-1 26.5t-1 22.5h-3q-23 -43 -57 -84q-31 -37 -72 -65q-33 -23 -94 -41q-49 -14 -123 -14q-88 0 -155 22q-63 20 -106.5 67.5t-61.5 118.5q-21 82 -21 172z" />
<glyph unicode="v" d="M70 1081h200l269 -702l5 -15.5t6 -20.5t5 -19q4 -16 10 -33t10 -33l18.5 -65.5l14.5 -51.5q2 6 5 19.5t10 32.5l20 65l21 64l18 55l276 704h201l-444 -1081h-213z" />
<glyph unicode="w" d="M20 1081h179l94 -606q2 -25 8 -67q2 -16 5 -46t5 -45l11 -94q4 -61 4 -73l20 86q4 14 6 24t6 21.5t8.5 26l10.5 33.5t6 21l135 424h193l131 -424q4 -14 14 -55q8 -27 18 -71q14 -49 23 -86q0 43 2 73q2 35 10 94l13 91l5 36.5t5 30.5l100 606h176l-190 -1081h-205 l-141 471l-19 61q-14 47 -18 66q-6 18 -21 76q-12 -49 -20 -74q-14 -53 -18.5 -67.5l-11.5 -38t-9 -27.5l-147 -467h-203z" />
<glyph unicode="x" d="M94 0l416 555l-397 526h198l299 -419l299 419h201l-397 -524l420 -557h-201l-322 444l-321 -444h-195z" />
<glyph unicode="y" d="M66 1081h192l264 -641q18 -51 27 -67l31 -78l26 -70l15 -39q4 14 14 41l27 68q25 63 30 78l14.5 36.5l12.5 30.5l252 641h190l-456 -1081q-37 -98 -76 -176t-90 -135q-47 -53 -108.5 -84t-137.5 -31q-45 0 -64 2q-23 2 -61 10v135q25 -4 43 -4q8 0 21.5 -1t19.5 -1 q78 0 149 60q68 55 117 186l19 49z" />
<glyph unicode="z" d="M147 0v137l680 805h-641v139h844v-137l-682 -805h719v-139h-920z" />
<glyph unicode="{" d="M227 461v137q55 4 101 14q45 12 88 41q37 27 63 72q23 39 23 104v353q0 68 22 125q23 59 60 96t94 59.5t119 22.5h264v-139h-213q-41 0 -78 -11q-25 -6 -53 -35q-20 -20 -31 -59q-8 -33 -8 -90v-346q0 -61 -21 -105q-22 -46 -55 -79q-41 -41 -74 -58q-43 -23 -82 -31v-2 q33 -6 84 -32q33 -16 74 -58q31 -31 53 -80q20 -43 21 -104v-346q0 -111 39 -152q41 -45 131 -45h213v-139h-264q-61 0 -119 23q-53 20 -94 61q-37 37 -60 96q-23 57 -22 123v352q0 68 -23 107q-25 43 -63 70q-43 29 -88 40q-46 11 -101 15z" />
<glyph unicode="|" d="M530 -426v1911h166v-1911h-166z" />
<glyph unicode="}" d="M168 -287h213q90 0 131 45t41 152v346q0 66 18 104q23 49 54 80q39 39 73 58q45 25 84 32v2q-43 10 -82 31q-35 18 -73 58q-31 31 -54 79q-20 43 -20 105v346q0 49 -10 90q-10 39 -31 59q-27 27 -55 35q-37 10 -76 11h-213v139h264q61 0 119 -23q53 -20 92 -59t62 -96 q20 -53 20 -125v-353q0 -61 25 -104q27 -49 61 -72q41 -29 90 -41q45 -10 100 -14v-137q-55 -4 -100 -15q-49 -12 -90 -40q-35 -25 -61 -70q-25 -43 -25 -107v-352q0 -70 -20 -123q-23 -57 -62 -96q-41 -41 -92 -61q-57 -23 -119 -23h-264v139z" />
<glyph unicode="~" d="M109 580v143q55 41 114 61q68 23 148 23q40 0 80 -6q27 -4 79 -17q27 -6 76 -22q18 -6 37 -13.5t37 -13.5l45 -14q29 -10 51 -16q31 -8 51 -11q33 -4 50 -4q68 0 129 25q63 25 114 67v-149q-31 -22 -61 -37q-35 -16 -60 -25q-41 -12 -65 -14q-45 -4 -74 -4q-63 0 -141 22 q-33 10 -146 48q-127 45 -217 45q-37 0 -71 -6q-37 -6 -62 -17q-20 -8 -57 -29q-34 -18 -57 -36z" />
<glyph unicode="&#xa0;" />
<glyph unicode="&#xa1;" d="M514 -266l25 950h147l25 -950h-197zM518 881v200h195v-200h-195z" />
<glyph unicode="&#xa2;" d="M133 655q0 117 29 215q27 90 86 164q55 68 137 111q76 39 184 49v184h129v-184q86 -6 152 -33q61 -25 115 -71q49 -43 79.5 -98.5t42.5 -119.5l-184 -14q-18 90 -81.5 145.5t-188.5 55.5q-156 0 -236 -101q-82 -104 -82 -290q0 -197 84 -299q82 -100 236 -101 q59 0 102 15q49 16 82 40.5t60 67.5q23 39 32 94l183 -12q-8 -59 -37 -119q-25 -53 -80 -104q-51 -49 -118.5 -78t-160.5 -39v-194h-129v194q-109 8 -190 51q-84 43 -137 109q-53 63 -82 162q-27 87 -27 200z" />
<glyph unicode="&#xa3;" d="M55 0v154q37 18 80 47q39 25 62 57q23 31 39 86t16 127v141h-186v142h186v221q0 90 24 164q23 70 78 125q53 53 131 79.5t189 26.5q78 0 137 -14q63 -14 113 -43q45 -25 86 -74q39 -45 55 -98q-2 -2 -6 -4t-21 -7q-4 -2 -11 -5t-15 -5t-16.5 -5t-16.5 -5l-37.5 -11 t-50.5 -16q-20 61 -81.5 94t-135.5 33q-123 0 -182 -57q-61 -59 -62 -182v-217h410v-142h-410v-139q0 -57 -6 -106q-6 -41 -27 -88q-18 -39 -47 -68q-33 -33 -74 -53h601q59 0 86 26q29 29 41 80l167 -24q-9 -43 -24 -86q-14 -41 -43 -76q-31 -37 -68 -58q-39 -20 -98 -20 h-883z" />
<glyph unicode="&#xa4;" d="M158 330l102 102q-37 55 -57.5 116.5t-20.5 135.5t20.5 135.5t57.5 116.5l-100 100l104 103l98 -101q51 37 119 59.5t135 22.5q74 0 136 -20q55 -18 116 -60l97 97l104 -105l-96 -96q41 -61 59 -117q20 -61 21 -135q0 -68 -23 -135q-20 -61 -59 -117l100 -100l-102 -105 l-101 101q-55 -37 -116.5 -57.5t-135 -20.5t-135 20.5t-116.5 59.5l-105 -105zM336 686q0 -53 22 -108q20 -49 62 -91q39 -39 88 -59q55 -23 108.5 -22.5t108.5 22.5q47 18 90 59q37 33 59 91q23 55 23 108t-23 109q-23 53 -59.5 90t-89.5 59q-55 23 -108.5 23t-108.5 -23 q-53 -23 -88 -59q-43 -47 -62 -90q-22 -56 -22 -109z" />
<glyph unicode="&#xa5;" d="M51 1350h201l360 -619l365 619h199l-412 -670h321v-143h-383v-138h383v-143h-383v-256h-178v256h-381v143h381l2 138h-383v143h320z" />
<glyph unicode="&#xa6;" d="M530 324h166v-779h-166v779zM530 676v778h166v-778h-166z" />
<glyph unicode="&#xa7;" d="M160 100l159 31q10 -51 41 -90q29 -37 66 -57q29 -16 88 -27q43 -8 107 -8q51 0 108 10q43 8 90 33q40 22 62 55q20 33 20 82q0 55 -27 90q-25 33 -77 62q-45 25 -109 43q-74 23 -127 34q-65 15 -129 37q-66 23 -119 60q-47 33 -84 90q-33 51 -32 127q0 41 16 86 q14 39 45 75.5t72 63.5q37 23 96 41q-43 15 -80 37q-37 23 -67 55q-27 31 -43 72q-18 47 -19 88q0 139 106.5 217t309.5 78q76 0 147.5 -16.5t122.5 -45.5q49 -27 90 -82q35 -47 51 -116l-159 -21q-8 45 -31 76q-20 29 -57 49q-31 16 -76 27q-39 8 -88 8q-123 0 -191 -45 q-63 -43 -63 -115q0 -47 24 -78q31 -37 66 -55q55 -27 96 -39q20 -6 59.5 -15t55.5 -13q37 -8 137 -39q66 -20 125 -60q55 -37 90 -90t35 -129q0 -53 -12 -88q-15 -43 -43 -80q-29 -39 -68 -65.5t-94 -38.5q39 -18 88 -47q31 -18 66 -58q25 -29 43 -73q16 -43 16 -91 q0 -66 -31 -131q-27 -55 -84 -100q-53 -41 -137 -64q-86 -23 -190 -22q-80 0 -170 14q-72 12 -136 45q-57 31 -98 84q-39 51 -57 129zM356 684q0 -46 25 -80q20 -27 65 -55q31 -18 97 -41q55 -18 112 -33q53 0 101 12q49 12 82 37q37 27 53 58q18 33 18 82t-26 81 q-31 37 -70 60q-41 23 -100 43q-43 14 -117 33q-55 -2 -104 -21q-37 -12 -74 -43q-29 -23 -45.5 -59.5t-16.5 -73.5z" />
<glyph unicode="&#xa8;" d="M336 1219v184h164v-184h-164zM729 1219v184h164v-184h-164z" />
<glyph unicode="&#xa9;" d="M31 762q0 186 47 323q47 135 125 224q84 92 184 133q108 43 227 43q120 0 228 -43q100 -41 184 -133q78 -88 125 -224q45 -133 45 -323.5t-45 -323.5q-47 -139 -125 -225q-84 -92 -184 -133q-102 -41 -227.5 -41t-227.5 41q-100 41 -184 133q-78 86 -125 225 q-47 138 -47 324zM127 762q0 -178 37 -289q39 -117 104 -194q63 -76 156 -111q96 -37 190.5 -37t190.5 37q88 33 156 111q68 76 106 194q39 117 39 289q0 168 -39 285q-39 119 -106.5 194.5t-155.5 112.5q-84 35 -190.5 35t-190.5 -35q-94 -39 -156 -113q-66 -78 -104 -194 q-37 -111 -37 -285zM268 764q0 94 23 174q23 84 63 135q39 51 109 84q66 31 151 31q68 0 117 -19q53 -20 86 -46.5t60 -67.5q29 -41 41 -76l-113 -35q-8 23 -27 51q-16 25 -39 45q-20 18 -53 31q-27 10 -70 10q-53 0 -98 -22q-43 -20 -69 -64q-27 -41 -39.5 -100t-12.5 -131 q0 -76 14.5 -133.5t43.5 -102.5q29 -43 69 -67q43 -25 99 -25q37 0 71 15q25 10 56 36q23 20 39 49t28 58l117 -37q-12 -29 -45 -82q-25 -39 -64 -72q-41 -35 -86 -51q-49 -18 -116 -18q-90 0 -158 31q-63 29 -108.5 90t-65.5 135q-23 84 -23 174z" />
<glyph unicode="&#xaa;" d="M207 870q0 68 29 115q27 45 78 73.5t114 41.5q65 12 135 12l193 4v43q0 94 -47 137q-49 45 -133 45t-132 -34q-45 -33 -57 -111l-147 10q12 57 30 88q27 41 68 72q45 33 102 49q55 16 140 17q156 0 235 -66q82 -68 82 -201v-291q0 -55 16 -88q16 -31 60 -30q14 0 24 2 q15 3 25 6v-94q-14 -4 -51 -8.5t-51 -4.5q-84 0 -121 43q-35 41 -39 117h-4q-43 -78 -117 -121q-78 -45 -174 -45q-125 0 -191 58q-67 57 -67 161zM352 891q0 -27 10 -53q10 -29 27 -45q12 -12 49 -29q28 -12 68 -12q55 0 104 22q39 18 78 57q29 29 49 74q18 41 19 78v51 l-156 -4q-33 0 -94 -8q-49 -6 -80 -21q-33 -14 -53.5 -40.5t-20.5 -69.5z" />
<glyph unicode="&#xab;" d="M127 506v63l336 371h176v-31l-334 -372l336 -367v-29h-178zM602 506v63l338 371h178v-31l-338 -372l340 -367v-29h-180z" />
<glyph unicode="&#xac;" d="M117 608v146h993v-574h-143v428h-850z" />
<glyph unicode="&#xad;" d="M334 465v160h561v-160h-561z" />
<glyph unicode="&#xae;" d="M31 762q0 186 47 323q47 135 125 224q84 92 184 133q108 43 227 43q120 0 228 -43q100 -41 184 -133q78 -88 125 -224q45 -133 45 -323.5t-45 -323.5q-47 -139 -125 -225q-84 -92 -184 -133q-102 -41 -227.5 -41t-227.5 41q-100 41 -184 133q-78 86 -125 225 q-47 138 -47 324zM127 762q0 -178 37 -289q39 -117 104 -194q63 -76 156 -111q96 -37 190.5 -37t190.5 37q88 33 156 111q68 76 106 194q39 117 39 289q0 168 -39 285q-39 119 -106.5 194.5t-155.5 112.5q-84 35 -190.5 35t-190.5 -35q-94 -39 -156 -113q-66 -78 -104 -194 q-37 -111 -37 -285zM328 342v832h307q141 0 217 -63.5t76 -172.5q0 -104 -51 -164q-55 -63 -138 -82l222 -350h-146l-199 338h-161v-338h-127zM455 774h182q80 0 123 43q41 41 41 119q0 68 -47 104q-43 35 -129 35h-170v-301z" />
<glyph unicode="&#xaf;" d="M-4 1618h1237v-94h-1237v94z" />
<glyph unicode="&#xb0;" d="M328 1085.5q0 55.5 22 110.5q22 52 62 92q37 37 92 59.5t110.5 22.5t110.5 -22.5t92 -59.5q40 -40 62 -92q23 -55 22.5 -110.5t-22.5 -110.5q-22 -52 -62 -92q-37 -37 -92 -59.5t-110.5 -22.5t-110.5 22.5t-92 59.5q-40 40 -62 92q-22 55 -22 110.5zM436 1085.5 q0 -38.5 15 -69.5q16 -37 36 -58q25 -25 58 -38q31 -14 69.5 -14.5t69.5 14.5q33 14 57.5 38.5t36.5 57.5q14 39 14.5 69.5t-14.5 69.5q-12 33 -36.5 57.5t-57.5 38.5q-31 14 -70 14.5t-69 -14.5q-33 -14 -58 -39q-20 -20 -36 -57q-15 -31 -15 -69.5z" />
<glyph unicode="&#xb1;" d="M117 0v145h993v-145h-993zM117 680v145h424v394h145v-394h424v-145h-424v-395h-145v395h-424z" />
<glyph unicode="&#xb2;" d="M311 666q27 61 72 108t94 88l101 76q70 49 94 72q41 37 65 77q27 43 27 91q0 66 -35 100q-37 37 -111 37q-68 0 -110 -37q-45 -37 -53 -104l-133 8q6 49 28 94q20 43 62 76q41 35 92 51q55 18 121 18q133 0 204.5 -63.5t71.5 -175.5q0 -63 -27 -111q-31 -53 -69 -90 q-41 -39 -94 -76l-101 -74q-55 -41 -92 -75q-41 -39 -63 -86h458l2 -107h-602z" />
<glyph unicode="&#xb3;" d="M305 778l137 13q8 -66 53.5 -101t129.5 -35q78 0 118.5 35t40.5 113q0 45 -18 71.5t-47 43.5q-28 15 -62 18q-45 4 -61 4h-61v109h57q29 0 59 6q29 6 55.5 22.5t41.5 42.5q16 29 16 66q0 59 -39 94t-107 35q-66 0 -110 -35q-41 -33 -47 -100l-135 12q6 57 30.5 100 t65.5 72t90 43t111 14q66 0 120 -16q51 -14 86 -47q39 -35 54 -68q16 -35 16 -86q0 -76 -43 -131q-41 -51 -131 -74v-2q51 -6 88 -24q39 -18 61 -45q20 -25 35 -62q12 -35 13 -71q0 -115 -78 -181q-76 -63 -219 -63q-80 0 -146 20q-53 16 -94 52q-37 31 -55 71 q-19 39 -25 84z" />
<glyph unicode="&#xb4;" d="M401 1200v21l228 239h196v-28l-299 -232h-125z" />
<glyph unicode="&#xb5;" d="M143 -393v1474h183v-643q0 -59 14 -127q10 -53 45 -100q27 -39 82 -66q49 -25 123 -24q63 0 122.5 26.5t98.5 71.5q45 51 63 109q23 68 23 137v616h180v-848q0 -10 1 -34.5t1 -36.5v-72q0 -12 1 -31.5t1 -27.5q0 -10 1 -21l1 -10h-168l-1 10q-1 10 -1 21q0 8 -1 26.5 t-1 28.5l-4 64q0 10 -1 26.5t-1 22.5h-4q-53 -109 -135 -164t-199 -55q-76 0 -145 32q-66 31 -96 90h-4q4 -41 4 -63v-59v-373h-183z" />
<glyph unicode="&#xb6;" d="M127 989q0 82 25 150q23 63 73 114q43 43 117 70t156 27h581v-123h-129v-1551h-131v1551h-196v-1551h-134v959q-76 0 -147 22q-63 20 -115 66q-45 39 -73 111q-27 65 -27 155z" />
<glyph unicode="&#xb7;" d="M496 420v299h235v-299h-235z" />
<glyph unicode="&#xb8;" d="M119 -342q49 -6 86 -6q41 0 69 6q27 6 45.5 18.5t24.5 26.5q8 20 8 35q0 40 -30 61q-29 20 -103 21h-29q-18 0 -28 -2l65 182h107l-39 -100q96 -4 141 -45q47 -43 47 -113q0 -45 -14 -76q-16 -35 -49 -59q-35 -25 -84 -37q-61 -14 -127 -14h-43q-14 0 -47 4v98z" />
<glyph unicode="&#xb9;" d="M285 1165v109q53 0 92 8q47 10 80 27q35 16 63 43q27 25 45 57h121v-739h238v-107h-633v107h264v610q-14 -27 -39 -47q-27 -20 -65 -37q-27 -10 -80 -22q-39 -9 -86 -9z" />
<glyph unicode="&#xba;" d="M225 1042q0 84 25 156q27 74 72 123q47 51 122 82q70 29 170.5 29t176 -29t120.5 -80q49 -55 70 -125q20 -68 20 -156t-24 -159q-25 -71 -74 -123q-51 -53 -121 -80q-76 -29 -172 -29q-90 0 -164 29q-72 29 -120 80q-49 52 -74 123q-27 75 -27 159zM379 1042 q0 -82 16 -131q18 -57 47 -88q33 -37 74 -51q45 -16 92 -16q117 0 180 67q66 70 66 219.5t-61.5 217t-174.5 67.5q-117 0 -178 -67.5t-61 -217.5z" />
<glyph unicode="&#xbb;" d="M106 141v29l338 367l-335 372v31h178l336 -371v-63l-336 -365h-181zM584 141v29l338 367l-336 372v31h176l338 -371v-63l-338 -365h-178z" />
<glyph unicode="&#xbc;" d="M27 1114v119q18 0 43 6q16 4 49 21q23 10 49 34q16 14 39 56h123v-654h115v-106h-381v106h135v512q-12 -25 -37 -43t-49 -30q-16 -8 -49 -17q-17 -4 -37 -4zM205 0l702 1350h115l-700 -1350h-117zM605 162v100l360 502h141v-500h123v-102h-123v-160h-127v160h-374z M715 264h264v260v29v30q0 6 1 15.5t1 13.5v23q-6 -8 -16 -24.5t-22 -33.5l-25 -33q-4 -6 -7 -9t-4 -5t-3 -4t-4 -6z" />
<glyph unicode="&#xbd;" d="M17 1114v119q18 0 43 6q16 4 49 21q23 10 49 34q16 14 39 56h123v-654h115v-106h-381v106h135v512q-12 -25 -37 -43t-49 -30q-16 -8 -49 -17q-17 -4 -37 -4zM189 0l702 1350h115l-700 -1350h-117zM678 2v96q25 55 61 98q37 41 78 78q53 45 84 68q37 27 78 63q29 27 53 68 q23 39 23 80q0 55 -27 88t-86 33t-90 -31q-27 -27 -37 -92l-131 4q6 43 27 88q18 41 51 67q39 31 80 45q55 18 106 19q117 0 180 -57q61 -55 62 -158q0 -51 -24.5 -100.5t-57.5 -82t-80 -69.5l-84 -64q-35 -27 -74 -65.5t-51 -69.5h381v-106h-522z" />
<glyph unicode="&#xbe;" d="M10 782l138 15q10 -63 40.5 -92t80.5 -29q57 0 88 29q33 31 32 96q0 35 -12 59.5t-33 36.5q-22 12 -49 18q-18 4 -55 5h-41v108h37q68 0 100.5 28.5t32.5 94.5q0 55 -29 80q-28 25 -67 24q-41 0 -78 -32q-33 -31 -39 -88l-135 12q6 51 28 94q20 37 58 68q33 27 76 39 q49 14 90 14q57 0 102 -16.5t71.5 -43t43.5 -65.5q14 -35 14 -78q0 -68 -33 -108q-35 -45 -102 -70q80 -18 119 -69.5t39 -116.5q0 -49 -21 -97q-16 -41 -53 -69q-34 -28 -80 -43q-43 -14 -104.5 -14.5t-108.5 18t-78 49.5t-49 68q-17 30 -23 75zM230 0l702 1350h115 l-700 -1350h-117zM605 162v100l360 502h141v-500h123v-102h-123v-160h-127v160h-374zM715 264h264v260v29v30q0 6 1 15.5t1 13.5v23q-6 -8 -16 -24.5t-22 -33.5l-25 -33q-4 -6 -7 -9t-4 -5t-3 -4t-4 -6z" />
<glyph unicode="&#xbf;" d="M154 80q0 68 18 121q18 52 49 92q33 43 70 74q6 6 82 63q23 16 44 32.5t36 26.5q47 35 71 64q37 41 51 74q20 47 21 98h174q-2 -63 -22 -119q-18 -52 -50 -92q-29 -37 -69 -72q-27 -23 -80 -63q-23 -16 -42.5 -31.5l-35.5 -28.5q-39 -31 -70 -63q-29 -33 -47 -74 q-18 -43 -18 -96q0 -55 20 -96q23 -45 58 -70q45 -31 94 -45q51 -14 123 -14q68 0 123 18q57 18 96 55q41 39 65 86q27 53 33 113l185 -12q-12 -89 -50 -166q-35 -74 -100 -129q-59 -51 -152 -84q-86 -31 -198 -31q-108 0 -197 25q-88 25 -151.5 69.5t-98.5 114.5 q-32 66 -32 160zM584 881v200h194v-200h-194z" />
<glyph unicode="&#xc0;" d="M0 0l510 1350h217l502 -1350h-195l-137 383h-563l-137 -383h-197zM385 530h463l-148 424q-8 25 -26 76q-8 20 -13.5 40t-11.5 36q-12 35 -20 61l-13 37q-2 -8 -12 -39l-20 -61l-12.5 -37.5t-10.5 -36.5q-6 -20 -13 -39.5l-13 -36.5zM309 1676v28h197l227 -239v-21h-123z " />
<glyph unicode="&#xc1;" d="M0 0l510 1350h217l502 -1350h-195l-137 383h-563l-137 -383h-197zM385 530h463l-148 424q-8 25 -26 76q-8 20 -13.5 40t-11.5 36q-12 35 -20 61l-13 37q-2 -8 -12 -39l-20 -61l-12.5 -37.5t-10.5 -36.5q-6 -20 -13 -39.5l-13 -36.5zM493 1444v21l228 239h196v-28 l-299 -232h-125z" />
<glyph unicode="&#xc2;" d="M0 0l510 1350h217l502 -1350h-195l-137 383h-563l-137 -383h-197zM385 530h463l-148 424q-8 25 -26 76q-8 20 -13.5 40t-11.5 36q-12 35 -20 61l-13 37q-2 -8 -12 -39l-20 -61l-12.5 -37.5t-10.5 -36.5q-6 -20 -13 -39.5l-13 -36.5zM283 1444v21l254 239h163l244 -239 v-21h-104l-219 139h-3l-231 -139h-104z" />
<glyph unicode="&#xc3;" d="M0 0l510 1350h217l502 -1350h-195l-137 383h-563l-137 -383h-197zM385 530h463l-148 424q-8 25 -26 76q-8 20 -13.5 40t-11.5 36q-12 35 -20 61l-13 37q-2 -8 -12 -39l-20 -61l-12.5 -37.5t-10.5 -36.5q-6 -20 -13 -39.5l-13 -36.5zM256 1444q8 61 14 90q8 37 33 80 q20 35 59 57.5t97 22.5q39 0 86 -20q29 -12 82 -41q4 -2 32.5 -17.5l42.5 -23.5q37 -18 70 -19q25 0 39 8q15 9 25 25q10 18 16 37q4 14 8 51h113q-4 -35 -17 -88q-9 -43 -30 -80q-23 -37 -60 -59q-39 -23 -96 -23q-41 0 -84 19q-29 12 -82 41q-66 35 -78 40q-45 20 -73 21 q-25 0 -39 -8q-12 -8 -23 -25q-8 -12 -14 -37q-2 -8 -5 -25.5t-5 -25.5h-111z" />
<glyph unicode="&#xc4;" d="M0 0l510 1350h217l502 -1350h-195l-137 383h-563l-137 -383h-197zM385 530h463l-148 424q-8 25 -26 76q-8 20 -13.5 40t-11.5 36q-12 35 -20 61l-13 37q-2 -8 -12 -39l-20 -61l-12.5 -37.5t-10.5 -36.5q-6 -20 -13 -39.5l-13 -36.5zM336 1444v184h164v-184h-164z M729 1444v184h164v-184h-164z" />
<glyph unicode="&#xc5;" d="M0 0l510 1350h217l502 -1350h-195l-137 383h-563l-137 -383h-197zM385 530h463l-148 424q-8 25 -26 76q-8 20 -13.5 40t-11.5 36q-12 35 -20 61l-13 37q-2 -8 -12 -39l-20 -61l-12.5 -37.5t-10.5 -36.5q-6 -20 -13 -39.5l-13 -36.5zM375 1434q0 41 14 75q14 37 45 64 q31 29 76 43q49 16 106.5 16t106.5 -16q45 -14 76 -43q31 -27 45 -64q14 -35 14 -75q0 -39 -14 -74q-16 -41 -45 -66q-31 -29 -76 -43q-49 -16 -106.5 -16t-106.5 16q-45 14 -76 43q-29 25 -45 66q-14 35 -14 74zM494 1434q0 -12 6 -28.5t22 -29.5q15 -12 37 -18 q29 -8 57 -8q27 0 56 8q22 6 37 18q16 12 22 28.5t6 29.5q0 15 -6 30q-4 12 -22 27q-15 12 -37 18q-29 8 -56 9q-29 0 -57 -9q-22 -6 -37 -18q-18 -14 -22 -27q-6 -15 -6 -30z" />
<glyph unicode="&#xc6;" d="M0 0l487 1350h666v-154h-336v-428h328v-152h-328v-464h377v-152h-549v412h-334l-141 -412h-170zM362 561h283v641h-72q-2 -6 -7 -22.5t-7 -26.5q-10 -33 -20 -70l-21 -69q-6 -18 -16 -51z" />
<glyph unicode="&#xc7;" d="M113 682q0 156 32 293q31 127 99 217q66 88 166 133q98 45 239 45q102 0 176 -26.5t133 -75.5q49 -41 93 -107q37 -55 63 -127l-168 -63q-14 45 -40.5 90t-61.5 78q-37 34 -86 55q-47 20 -109 20q-86 0 -151.5 -34.5t-104.5 -100.5q-41 -70 -59 -168q-20 -109 -21 -229 q0 -137 21 -233q23 -109 61 -173q41 -68 109 -106q61 -35 158 -35q63 0 112 25q57 29 90 61q47 47 70 90q29 55 49 107l160 -66q-23 -57 -70 -137q-39 -66 -98.5 -119t-136.5 -84q-82 -33 -179 -32q-137 0 -243 51q-102 49 -170 141q-66 90 -101 221q-32 125 -32 289z M473 -342q49 -6 86 -6q41 0 69 6q27 6 45.5 18.5t24.5 26.5q8 20 8 35q0 40 -30 61q-29 20 -103 21h-29q-18 0 -28 -2l65 182h107l-39 -100q96 -4 141 -45q47 -43 47 -113q0 -45 -14 -76q-16 -35 -49 -59q-35 -25 -84 -37q-61 -14 -127 -14h-43q-14 0 -47 4v98z" />
<glyph unicode="&#xc8;" d="M162 0v1350h919v-156h-729v-424h670v-154h-670v-460h770v-156h-960zM329 1676v28h197l227 -239v-21h-123z" />
<glyph unicode="&#xc9;" d="M162 0v1350h919v-156h-729v-424h670v-154h-670v-460h770v-156h-960zM491 1444v21l228 239h196v-28l-299 -232h-125z" />
<glyph unicode="&#xca;" d="M162 0v1350h919v-156h-729v-424h670v-154h-670v-460h770v-156h-960zM283 1444v21l254 239h163l244 -239v-21h-104l-219 139h-3l-231 -139h-104z" />
<glyph unicode="&#xcb;" d="M162 0v1350h919v-156h-729v-424h670v-154h-670v-460h770v-156h-960zM356 1444v184h164v-184h-164zM749 1444v184h164v-184h-164z" />
<glyph unicode="&#xcc;" d="M203 0v156h315v1038h-315v156h821v-156h-315v-1038h315v-156h-821zM319 1676v28h197l227 -239v-21h-123z" />
<glyph unicode="&#xcd;" d="M203 0v156h315v1038h-315v156h821v-156h-315v-1038h315v-156h-821zM503 1444v21l228 239h196v-28l-299 -232h-125z" />
<glyph unicode="&#xce;" d="M203 0v156h315v1038h-315v156h821v-156h-315v-1038h315v-156h-821zM283 1444v21l254 239h163l244 -239v-21h-104l-219 139h-3l-231 -139h-104z" />
<glyph unicode="&#xcf;" d="M203 0v156h315v1038h-315v156h821v-156h-315v-1038h315v-156h-821zM336 1444v184h164v-184h-164zM729 1444v184h164v-184h-164z" />
<glyph unicode="&#xd0;" d="M27 598v147h135v605h311q160 0 279 -39q123 -41 204 -119q84 -80 127 -207q41 -121 41 -297q0 -172 -39 -297q-40 -129 -116 -215q-80 -90 -187 -131q-117 -45 -250 -45h-370v598h-135zM352 156h162q211 0 315 133q104 132 105 399q0 133 -29 232q-27 94 -86 155 q-61 63 -141 90q-90 29 -205 29h-121v-449h289v-147h-289v-442z" />
<glyph unicode="&#xd1;" d="M162 0v1350h223l526 -1139q-4 29 -8 86q-4 45 -6 88q-2 33 -2 100v865h172v-1350h-231l-521 1130l9 -88q2 -25 6 -81q2 -29 2 -84v-877h-170zM256 1446q8 61 14 90q8 37 33 80q20 35 59 57.5t97 22.5q39 0 86 -20q29 -12 82 -41q4 -2 32.5 -17.5l42.5 -23.5 q37 -18 70 -19q25 0 39 8q15 9 25 25q10 18 16 37q4 14 8 51h113q-4 -35 -17 -88q-9 -43 -30 -80q-23 -37 -60 -59q-39 -23 -96 -23q-41 0 -84 19q-29 12 -82 41q-66 35 -78 40q-45 20 -73 21q-25 0 -39 -8q-12 -8 -23 -25q-8 -12 -14 -37q-2 -8 -5 -25.5t-5 -25.5h-111z " />
<glyph unicode="&#xd2;" d="M102 682q0 176 33 301t101 215q65 86 159 129q96 43 219 43q246 0 379 -174t133 -514q0 -170 -34 -305q-31 -121 -103 -219q-66 -90 -160 -133q-100 -45 -217 -45q-125 0 -223 47q-92 45 -160 137q-66 90 -96.5 219t-30.5 299zM303 682q0 -272 80 -409.5t231 -137.5 q166 0 238 139q74 141 74 408q0 268 -80 401q-80 131 -232 131q-158 0 -233 -131q-78 -133 -78 -401zM315 1676v28h197l227 -239v-21h-123z" />
<glyph unicode="&#xd3;" d="M102 682q0 176 33 301t101 215q65 86 159 129q96 43 219 43q246 0 379 -174t133 -514q0 -170 -34 -305q-31 -121 -103 -219q-66 -90 -160 -133q-100 -45 -217 -45q-125 0 -223 47q-92 45 -160 137q-66 90 -96.5 219t-30.5 299zM303 682q0 -272 80 -409.5t231 -137.5 q166 0 238 139q74 141 74 408q0 268 -80 401q-80 131 -232 131q-158 0 -233 -131q-78 -133 -78 -401zM499 1444v21l228 239h196v-28l-299 -232h-125z" />
<glyph unicode="&#xd4;" d="M102 682q0 176 33 301t101 215q65 86 159 129q96 43 219 43q246 0 379 -174t133 -514q0 -170 -34 -305q-31 -121 -103 -219q-66 -90 -160 -133q-100 -45 -217 -45q-125 0 -223 47q-92 45 -160 137q-66 90 -96.5 219t-30.5 299zM303 682q0 -272 80 -409.5t231 -137.5 q166 0 238 139q74 141 74 408q0 268 -80 401q-80 131 -232 131q-158 0 -233 -131q-78 -133 -78 -401zM283 1444v21l254 239h163l244 -239v-21h-104l-219 139h-3l-231 -139h-104z" />
<glyph unicode="&#xd5;" d="M102 682q0 176 33 301t101 215q65 86 159 129q96 43 219 43q246 0 379 -174t133 -514q0 -170 -34 -305q-31 -121 -103 -219q-66 -90 -160 -133q-100 -45 -217 -45q-125 0 -223 47q-92 45 -160 137q-66 90 -96.5 219t-30.5 299zM303 682q0 -272 80 -409.5t231 -137.5 q166 0 238 139q74 141 74 408q0 268 -80 401q-80 131 -232 131q-158 0 -233 -131q-78 -133 -78 -401zM256 1444q8 61 14 90q8 37 33 80q20 35 59 57.5t97 22.5q39 0 86 -20q29 -12 82 -41q4 -2 32.5 -17.5l42.5 -23.5q37 -18 70 -19q25 0 39 8q15 9 25 25q10 18 16 37 q4 14 8 51h113q-4 -35 -17 -88q-9 -43 -30 -80q-23 -37 -60 -59q-39 -23 -96 -23q-41 0 -84 19q-29 12 -82 41q-66 35 -78 40q-45 20 -73 21q-25 0 -39 -8q-12 -8 -23 -25q-8 -12 -14 -37q-2 -8 -5 -25.5t-5 -25.5h-111z" />
<glyph unicode="&#xd6;" d="M102 682q0 176 33 301t101 215q65 86 159 129q96 43 219 43q246 0 379 -174t133 -514q0 -170 -34 -305q-31 -121 -103 -219q-66 -90 -160 -133q-100 -45 -217 -45q-125 0 -223 47q-92 45 -160 137q-66 90 -96.5 219t-30.5 299zM303 682q0 -272 80 -409.5t231 -137.5 q166 0 238 139q74 141 74 408q0 268 -80 401q-80 131 -232 131q-158 0 -233 -131q-78 -133 -78 -401zM338 1444v184h164v-184h-164zM731 1444v184h164v-184h-164z" />
<glyph unicode="&#xd7;" d="M158 330l354 354l-352 352l102 103l350 -353l351 351l104 -105l-348 -348l350 -352l-100 -105l-355 353l-356 -355z" />
<glyph unicode="&#xd8;" d="M55 27l142 188q-47 84 -72 205q-23 106 -23 262q0 176 33 301t101 215q65 86 159 129q96 43 219 43q219 0 347 -133l114 156l94 -66l-139 -186q45 -80 72 -201q25 -113 24 -258q0 -170 -34 -305q-31 -121 -103 -219q-66 -90 -160 -133q-100 -45 -217 -45q-109 0 -196 34 q-80 31 -150 105l-116 -158zM303 682q0 -166 31 -283l512 684q-40 65 -98 99q-57 33 -134 32q-158 0 -233 -131q-78 -133 -78 -401zM383 272q80 -137 231 -137q166 0 238 139q74 141 74 408q0 163 -31 276z" />
<glyph unicode="&#xd9;" d="M141 471v879h193v-852q0 -98 12 -166q12 -70 43 -113t82 -63q49 -20 133 -21q86 0 139 21q55 20 88 63q33 41 50 117q14 66 14 176v838h190v-861q0 -131 -28 -233q-25 -90 -90 -158q-59 -61 -150 -90q-92 -29 -213 -28.5t-203 26.5q-84 27 -143 86q-61 61 -88 152 q-29 96 -29 227zM305 1676v28h197l227 -239v-21h-123z" />
<glyph unicode="&#xda;" d="M141 471v879h193v-852q0 -98 12 -166q12 -70 43 -113t82 -63q49 -20 133 -21q86 0 139 21q55 20 88 63q33 41 50 117q14 66 14 176v838h190v-861q0 -131 -28 -233q-25 -90 -90 -158q-59 -61 -150 -90q-92 -29 -213 -28.5t-203 26.5q-84 27 -143 86q-61 61 -88 152 q-29 96 -29 227zM487 1444v21l228 239h196v-28l-299 -232h-125z" />
<glyph unicode="&#xdb;" d="M141 471v879h193v-852q0 -98 12 -166q12 -70 43 -113t82 -63q49 -20 133 -21q86 0 139 21q55 20 88 63q33 41 50 117q14 66 14 176v838h190v-861q0 -131 -28 -233q-25 -90 -90 -158q-59 -61 -150 -90q-92 -29 -213 -28.5t-203 26.5q-84 27 -143 86q-61 61 -88 152 q-29 96 -29 227zM283 1444v21l254 239h163l244 -239v-21h-104l-219 139h-3l-231 -139h-104z" />
<glyph unicode="&#xdc;" d="M141 471v879h193v-852q0 -98 12 -166q12 -70 43 -113t82 -63q49 -20 133 -21q86 0 139 21q55 20 88 63q33 41 50 117q14 66 14 176v838h190v-861q0 -131 -28 -233q-25 -90 -90 -158q-59 -61 -150 -90q-92 -29 -213 -28.5t-203 26.5q-84 27 -143 86q-61 61 -88 152 q-29 96 -29 227zM336 1444v184h164v-184h-164zM729 1444v184h164v-184h-164z" />
<glyph unicode="&#xdd;" d="M37 1350h205l372 -613l373 613h205l-483 -766v-584h-189v584zM501 1444v21l228 239h196v-28l-299 -232h-125z" />
<glyph unicode="&#xde;" d="M162 0v1350h190v-236h271q125 0 217 -31q98 -33 155 -84q59 -53 92 -135q31 -77 31 -172q0 -94 -28 -168q-31 -80 -90.5 -139t-151.5 -96q-86 -35 -213 -35h-283v-254h-190zM352 395h254q80 0 144 23q59 20 100 61q39 39 57 92q20 57 21 117q0 135 -82 209 q-84 74 -248 74h-246v-576z" />
<glyph unicode="&#xdf;" d="M141 0v1026q0 115 33 207q31 88 90.5 141t147.5 82q90 29 196 29q92 0 180 -25q77 -22 130 -61q51 -39 79 -96q27 -53 27 -115q0 -57 -16 -103q-12 -37 -43 -77q-25 -35 -54 -60q-8 -8 -16 -15t-12 -11t-11.5 -10.5t-15.5 -14.5q-27 -27 -41 -49q-16 -27 -16 -57 q0 -41 26.5 -70t69.5 -59l88 -62q51 -35 88 -74q40 -43 68 -98q29 -57 28 -133q0 -70 -20 -125q-23 -61 -64 -102q-45 -45 -112 -70q-74 -27 -162 -27q-80 0 -153.5 12.5t-129.5 36.5l-2 164q27 -16 60 -28q45 -16 69 -23q6 -2 76 -12q41 -6 76 -6q90 0 141 47q49 47 49 127 q0 61 -26 100q-29 43 -68 72q-51 39 -88 61q-55 33 -88 64q-41 39 -68 82q-27 45 -26 116q0 49 16 88q14 37 41 66q25 29 53 53l54 49q25 25 41 57.5t16 76.5q0 35 -16 67q-16 31 -48 53q-33 23 -77 35q-53 14 -103 14q-68 0 -121 -18q-57 -20 -90 -55q-37 -41 -55 -101 q-20 -68 -20 -147v-1022h-181z" />
<glyph unicode="&#xe0;" d="M127 301q0 106 41 176q43 72 102 109q61 37 146 53q88 16 166 16l235 4v60q0 68 -12 115t-41 75q-33 33 -70 43q-43 12 -98 13q-51 0 -90 -7q-35 -6 -70 -28q-29 -18 -47 -53t-24 -84l-189 18q9 65 37 117q27 51 78 92q49 41 125 61q74 20 182 21q197 0 301 -94 q100 -92 100 -271v-465q0 -80 22.5 -120.5t80.5 -40.5q18 0 28 2q4 2 14.5 4t14.5 2v-113q-34 -9 -67 -12q-45 -4 -70 -4q-45 0 -88 14q-37 12 -60 41q-23 31 -34 68q-14 45 -17 94h-6q-27 -49 -61 -94q-29 -37 -78 -72q-41 -29 -100 -45q-61 -16 -132 -16q-158 0 -237 86 q-82 88 -82 235zM317 299q0 -80 45.5 -131t129.5 -51q80 0 145 33q63 31 100 77q41 49 62 107q18 49 18 110v91l-188 -5q-37 0 -111 -8q-53 -6 -100 -33q-49 -29 -74 -69q-27 -45 -27 -121zM286 1432v28h197l227 -239v-21h-123z" />
<glyph unicode="&#xe1;" d="M127 301q0 106 41 176q43 72 102 109q61 37 146 53q88 16 166 16l235 4v60q0 68 -12 115t-41 75q-33 33 -70 43q-43 12 -98 13q-51 0 -90 -7q-35 -6 -70 -28q-29 -18 -47 -53t-24 -84l-189 18q9 65 37 117q27 51 78 92q49 41 125 61q74 20 182 21q197 0 301 -94 q100 -92 100 -271v-465q0 -80 22.5 -120.5t80.5 -40.5q18 0 28 2q4 2 14.5 4t14.5 2v-113q-34 -9 -67 -12q-45 -4 -70 -4q-45 0 -88 14q-37 12 -60 41q-23 31 -34 68q-14 45 -17 94h-6q-27 -49 -61 -94q-29 -37 -78 -72q-41 -29 -100 -45q-61 -16 -132 -16q-158 0 -237 86 q-82 88 -82 235zM317 299q0 -80 45.5 -131t129.5 -51q80 0 145 33q63 31 100 77q41 49 62 107q18 49 18 110v91l-188 -5q-37 0 -111 -8q-53 -6 -100 -33q-49 -29 -74 -69q-27 -45 -27 -121zM479 1200v21l228 239h196v-28l-299 -232h-125z" />
<glyph unicode="&#xe2;" d="M127 301q0 106 41 176q43 72 102 109q61 37 146 53q88 16 166 16l235 4v60q0 68 -12 115t-41 75q-33 33 -70 43q-43 12 -98 13q-51 0 -90 -7q-35 -6 -70 -28q-29 -18 -47 -53t-24 -84l-189 18q9 65 37 117q27 51 78 92q49 41 125 61q74 20 182 21q197 0 301 -94 q100 -92 100 -271v-465q0 -80 22.5 -120.5t80.5 -40.5q18 0 28 2q4 2 14.5 4t14.5 2v-113q-34 -9 -67 -12q-45 -4 -70 -4q-45 0 -88 14q-37 12 -60 41q-23 31 -34 68q-14 45 -17 94h-6q-27 -49 -61 -94q-29 -37 -78 -72q-41 -29 -100 -45q-61 -16 -132 -16q-158 0 -237 86 q-82 88 -82 235zM317 299q0 -80 45.5 -131t129.5 -51q80 0 145 33q63 31 100 77q41 49 62 107q18 49 18 110v91l-188 -5q-37 0 -111 -8q-53 -6 -100 -33q-49 -29 -74 -69q-27 -45 -27 -121zM265 1200v21l254 239h163l244 -239v-21h-104l-219 139h-3l-231 -139h-104z" />
<glyph unicode="&#xe3;" d="M127 301q0 106 41 176q43 72 102 109q61 37 146 53q88 16 166 16l235 4v60q0 68 -12 115t-41 75q-33 33 -70 43q-43 12 -98 13q-51 0 -90 -7q-35 -6 -70 -28q-29 -18 -47 -53t-24 -84l-189 18q9 65 37 117q27 51 78 92q49 41 125 61q74 20 182 21q197 0 301 -94 q100 -92 100 -271v-465q0 -80 22.5 -120.5t80.5 -40.5q18 0 28 2q4 2 14.5 4t14.5 2v-113q-34 -9 -67 -12q-45 -4 -70 -4q-45 0 -88 14q-37 12 -60 41q-23 31 -34 68q-14 45 -17 94h-6q-27 -49 -61 -94q-29 -37 -78 -72q-41 -29 -100 -45q-61 -16 -132 -16q-158 0 -237 86 q-82 88 -82 235zM317 299q0 -80 45.5 -131t129.5 -51q80 0 145 33q63 31 100 77q41 49 62 107q18 49 18 110v91l-188 -5q-37 0 -111 -8q-53 -6 -100 -33q-49 -29 -74 -69q-27 -45 -27 -121zM248 1200q8 61 14 90q8 37 33 80q20 35 59 57.5t97 22.5q39 0 86 -20 q29 -12 82 -41q4 -2 32.5 -17.5l42.5 -23.5q37 -18 70 -19q25 0 39 8q15 9 25 25q10 18 16 37q4 14 8 51h113q-4 -35 -17 -88q-9 -43 -30 -80q-23 -37 -60 -59q-39 -23 -96 -23q-41 0 -84 19q-29 12 -82 41q-66 35 -78 40q-45 20 -73 21q-25 0 -39 -8q-12 -8 -23 -25 q-8 -12 -14 -37q-2 -8 -5 -25.5t-5 -25.5h-111z" />
<glyph unicode="&#xe4;" d="M127 301q0 106 41 176q43 72 102 109q61 37 146 53q88 16 166 16l235 4v60q0 68 -12 115t-41 75q-33 33 -70 43q-43 12 -98 13q-51 0 -90 -7q-35 -6 -70 -28q-29 -18 -47 -53t-24 -84l-189 18q9 65 37 117q27 51 78 92q49 41 125 61q74 20 182 21q197 0 301 -94 q100 -92 100 -271v-465q0 -80 22.5 -120.5t80.5 -40.5q18 0 28 2q4 2 14.5 4t14.5 2v-113q-34 -9 -67 -12q-45 -4 -70 -4q-45 0 -88 14q-37 12 -60 41q-23 31 -34 68q-14 45 -17 94h-6q-27 -49 -61 -94q-29 -37 -78 -72q-41 -29 -100 -45q-61 -16 -132 -16q-158 0 -237 86 q-82 88 -82 235zM317 299q0 -80 45.5 -131t129.5 -51q80 0 145 33q63 31 100 77q41 49 62 107q18 49 18 110v91l-188 -5q-37 0 -111 -8q-53 -6 -100 -33q-49 -29 -74 -69q-27 -45 -27 -121zM320 1219v184h164v-184h-164zM713 1219v184h164v-184h-164z" />
<glyph unicode="&#xe5;" d="M127 301q0 106 41 176q43 72 102 109q61 37 146 53q88 16 166 16l235 4v60q0 68 -12 115t-41 75q-33 33 -70 43q-43 12 -98 13q-51 0 -90 -7q-35 -6 -70 -28q-29 -18 -47 -53t-24 -84l-189 18q9 65 37 117q27 51 78 92q49 41 125 61q74 20 182 21q197 0 301 -94 q100 -92 100 -271v-465q0 -80 22.5 -120.5t80.5 -40.5q18 0 28 2q4 2 14.5 4t14.5 2v-113q-34 -9 -67 -12q-45 -4 -70 -4q-45 0 -88 14q-37 12 -60 41q-23 31 -34 68q-14 45 -17 94h-6q-27 -49 -61 -94q-29 -37 -78 -72q-41 -29 -100 -45q-61 -16 -132 -16q-158 0 -237 86 q-82 88 -82 235zM317 299q0 -80 45.5 -131t129.5 -51q80 0 145 33q63 31 100 77q41 49 62 107q18 49 18 110v91l-188 -5q-37 0 -111 -8q-53 -6 -100 -33q-49 -29 -74 -69q-27 -45 -27 -121zM365 1348q0 41 14 75q14 37 45 64q31 29 76 43q49 16 106.5 16t106.5 -16 q45 -14 76 -43q31 -27 45 -64q14 -35 14 -75q0 -39 -14 -74q-16 -41 -45 -66q-31 -29 -76 -43q-49 -16 -106.5 -16t-106.5 16q-45 14 -76 43q-29 25 -45 66q-14 35 -14 74zM484 1348q0 -12 6 -28.5t22 -29.5q15 -12 37 -18q29 -8 57 -8q27 0 56 8q22 6 37 18q16 12 22 28.5 t6 29.5q0 15 -6 30q-4 12 -22 27q-15 12 -37 18q-29 8 -56 9q-29 0 -57 -9q-22 -6 -37 -18q-18 -14 -22 -27q-6 -15 -6 -30z" />
<glyph unicode="&#xe6;" d="M20 301q0 106 29 176t74 109q41 37 106 53q61 16 121 16l166 4v60q0 68 -6 115q-6 41 -25 75q-16 31 -43 43q-25 12 -61 13q-33 0 -57 -7q-23 -6 -45 -28q-18 -18 -31 -53q-10 -31 -15 -84l-167 18q12 80 26 117q23 53 57.5 92t94.5 61q53 20 137 21q88 0 151 -35 q57 -33 95 -104q45 72 108 106q59 33 137 33q98 0 162 -43q59 -39 103 -123q39 -76 55 -182q16 -111 16 -228v-22h-528v-19q0 -74 10 -149q8 -61 33 -117q20 -45 57 -76q35 -29 84 -28q76 0 119 47q47 49 61 119l138 -45q-12 -47 -33 -90.5t-59 -82.5q-35 -35 -90.5 -59 t-131.5 -24q-57 0 -102 12q-49 12 -84 39q-27 20 -61 73q-25 39 -46 109q-27 -59 -47 -92q-29 -45 -63 -74q-37 -31 -82 -49q-46 -18 -104 -18q-66 0 -117 22.5t-80 63.5q-33 45 -47 102q-15 55 -15 133zM188 299q0 -80 29 -131t86 -51q53 0 96 33q47 35 68 77q25 49 37 107 t12 110v91l-121 -5q-25 0 -73 -8q-35 -6 -66 -33q-33 -29 -49 -69q-19 -47 -19 -121zM682 641h360q-8 168 -53 250q-41 78 -131 78q-29 0 -57 -15q-35 -16 -58 -51q-25 -37 -43 -100q-14 -53 -18 -162z" />
<glyph unicode="&#xe7;" d="M129 543q0 163 43 270q43 106 115 172q68 61 159 90q86 27 187 27q96 0 174 -25q74 -25 133 -69q55 -43 90 -103q35 -61 47 -127l-190 -12q-14 90 -80 143q-63 51 -182 52q-90 0 -146 -27q-57 -27 -94 -80q-35 -49 -51 -131q-14 -72 -15 -176q0 -106 15 -180 q16 -82 51 -136q39 -57 94 -84q61 -29 144 -28q109 0 180 53q70 51 88 162l188 -12q-9 -68 -43 -129q-37 -66 -90 -109q-66 -51 -135 -76q-82 -29 -180 -28q-135 0 -232 43q-100 45 -155 118q-58 77 -86 178q-29 105 -29 224zM457 -342q49 -6 86 -6q41 0 69 6 q27 6 45.5 18.5t24.5 26.5q8 20 8 35q0 40 -30 61q-29 20 -103 21h-29q-18 0 -28 -2l65 182h107l-39 -100q96 -4 141 -45q47 -43 47 -113q0 -45 -14 -76q-16 -35 -49 -59q-35 -25 -84 -37q-61 -14 -127 -14h-43q-14 0 -47 4v98z" />
<glyph unicode="&#xe8;" d="M133 549q0 158 39 262q39 106 107 170q66 63 155.5 92t181.5 29q137 0 222 -41q90 -43 147 -119q61 -80 84 -180q25 -106 25 -236v-22h-772q0 -80 20 -158q18 -71 55 -123q35 -51 95 -80q57 -29 131 -28q57 0 102 12t84 35q35 20 61.5 53t36.5 66l158 -45 q-12 -39 -47 -91q-27 -41 -86 -82q-47 -33 -129 -59q-78 -25 -180 -24q-113 0 -205 36.5t-156 106.5q-61 68 -96 178q-33 105 -33 248zM324 641h583q-10 96 -32.5 157.5t-65.5 100.5t-86 53q-53 16 -104.5 16.5t-96.5 -14.5q-53 -16 -94 -51t-72 -100q-28 -62 -32 -162z M321 1432v28h197l227 -239v-21h-123z" />
<glyph unicode="&#xe9;" d="M133 549q0 158 39 262q39 106 107 170q66 63 155.5 92t181.5 29q137 0 222 -41q90 -43 147 -119q61 -80 84 -180q25 -106 25 -236v-22h-772q0 -80 20 -158q18 -71 55 -123q35 -51 95 -80q57 -29 131 -28q57 0 102 12t84 35q35 20 61.5 53t36.5 66l158 -45 q-12 -39 -47 -91q-27 -41 -86 -82q-47 -33 -129 -59q-78 -25 -180 -24q-113 0 -205 36.5t-156 106.5q-61 68 -96 178q-33 105 -33 248zM324 641h583q-10 96 -32.5 157.5t-65.5 100.5t-86 53q-53 16 -104.5 16.5t-96.5 -14.5q-53 -16 -94 -51t-72 -100q-28 -62 -32 -162z M512 1200v21l228 239h196v-28l-299 -232h-125z" />
<glyph unicode="&#xea;" d="M133 549q0 158 39 262q39 106 107 170q66 63 155.5 92t181.5 29q137 0 222 -41q90 -43 147 -119q61 -80 84 -180q25 -106 25 -236v-22h-772q0 -80 20 -158q18 -71 55 -123q35 -51 95 -80q57 -29 131 -28q57 0 102 12t84 35q35 20 61.5 53t36.5 66l158 -45 q-12 -39 -47 -91q-27 -41 -86 -82q-47 -33 -129 -59q-78 -25 -180 -24q-113 0 -205 36.5t-156 106.5q-61 68 -96 178q-33 105 -33 248zM324 641h583q-10 96 -32.5 157.5t-65.5 100.5t-86 53q-53 16 -104.5 16.5t-96.5 -14.5q-53 -16 -94 -51t-72 -100q-28 -62 -32 -162z M289 1200v21l254 239h163l244 -239v-21h-104l-219 139h-3l-231 -139h-104z" />
<glyph unicode="&#xeb;" d="M133 549q0 158 39 262q39 106 107 170q66 63 155.5 92t181.5 29q137 0 222 -41q90 -43 147 -119q61 -80 84 -180q25 -106 25 -236v-22h-772q0 -80 20 -158q18 -71 55 -123q35 -51 95 -80q57 -29 131 -28q57 0 102 12t84 35q35 20 61.5 53t36.5 66l158 -45 q-12 -39 -47 -91q-27 -41 -86 -82q-47 -33 -129 -59q-78 -25 -180 -24q-113 0 -205 36.5t-156 106.5q-61 68 -96 178q-33 105 -33 248zM324 641h583q-10 96 -32.5 157.5t-65.5 100.5t-86 53q-53 16 -104.5 16.5t-96.5 -14.5q-53 -16 -94 -51t-72 -100q-28 -62 -32 -162z M344 1219v184h164v-184h-164zM737 1219v184h164v-184h-164z" />
<glyph unicode="&#xec;" d="M143 0v141h422v799h-319v141h499v-940h379v-141h-981zM333 1432v28h197l227 -239v-21h-123z" />
<glyph unicode="&#xed;" d="M143 0v141h422v799h-319v141h499v-940h379v-141h-981zM505 1200v21l228 239h196v-28l-299 -232h-125z" />
<glyph unicode="&#xee;" d="M143 0v141h422v799h-319v141h499v-940h379v-141h-981zM293 1200v21l254 239h163l244 -239v-21h-104l-219 139h-3l-231 -139h-104z" />
<glyph unicode="&#xef;" d="M143 0v141h422v799h-319v141h499v-940h379v-141h-981zM377 1219v184h164v-184h-164zM770 1219v184h164v-184h-164z" />
<glyph unicode="&#xf0;" d="M125 481q0 98 27 199q23 88 84 158q59 68 149 104q92 37 227 37q68 0 129 -16q59 -16 103 -43q-39 86 -92 167q-55 84 -129 150l-261 -115l-55 111l219 92q-45 37 -116 84q-82 53 -125 76h209q20 -8 86 -47q33 -18 84 -56l264 113l53 -106l-211 -93q168 -156 248 -342 q84 -197 84 -438v-6q0 -117 -29 -219q-29 -100 -88 -166q-66 -72 -154 -107q-100 -39 -227 -38q-126 0 -215 36q-90 37 -149 103q-57 63 -86 157q-29 96 -29 205zM313 481q0 -188 72 -278t217 -90q80 0 141 22q59 23 97 68q37 47 55 114q18 72 18 164q0 90 -16 162 q-14 68 -53 115q-35 43 -92.5 65.5t-135 22.5t-139.5 -23q-57 -20 -94 -67q-39 -47 -53 -115q-17 -72 -17 -160z" />
<glyph unicode="&#xf1;" d="M178 1081h170l1 -9q1 -9 1 -17q0 -6 2 -23.5t2 -27.5q0 -8 1 -28t1 -30v-49h4q31 57 56 84q37 41 76 66q37 23 96 40q49 14 119 15q80 0 147 -23q63 -20 107 -67q45 -47 65 -117q23 -74 23 -174v-721h-181v694q0 78 -16 133q-14 49 -47 82q-29 29 -70 41q-39 12 -88 13 q-55 0 -110 -23q-45 -18 -88 -66q-40 -43 -62 -104q-23 -63 -22 -143v-627h-181v852v70q0 12 -1 36.5t-1 34.5q0 12 -1 30.5t-1 27.5q0 10 -1 20zM266 1200q8 61 14 90q8 37 33 80q20 35 59 57.5t97 22.5q39 0 86 -20q29 -12 82 -41q4 -2 32.5 -17.5l42.5 -23.5 q37 -18 70 -19q25 0 39 8q15 9 25 25q10 18 16 37q4 14 8 51h113q-4 -35 -17 -88q-9 -43 -30 -80q-23 -37 -60 -59q-39 -23 -96 -23q-41 0 -84 19q-29 12 -82 41q-66 35 -78 40q-45 20 -73 21q-25 0 -39 -8q-12 -8 -23 -25q-8 -12 -14 -37q-2 -8 -5 -25.5t-5 -25.5h-111z " />
<glyph unicode="&#xf2;" d="M129 543q0 274 127 418q125 141 358 141q244 0 365 -139q119 -137 119 -420q0 -139 -35 -248t-96 -176q-65 -71 -154 -105q-92 -35 -205 -34q-104 0 -196 34q-90 35 -152 105q-63 74 -96 174q-35 109 -35 250zM319 543q0 -133 23 -209q25 -84 63.5 -131t92.5 -70 q49 -20 108.5 -20t120.5 20q57 18 96 67.5t62 133.5q23 86 22 209q0 127 -20 207q-23 86 -60 131q-43 51 -92 69q-52 18 -117 19q-68 0 -120 -21q-55 -20 -95 -69q-41 -49 -61 -131q-23 -86 -23 -205zM331 1432v28h197l227 -239v-21h-123z" />
<glyph unicode="&#xf3;" d="M129 543q0 274 127 418q125 141 358 141q244 0 365 -139q119 -137 119 -420q0 -139 -35 -248t-96 -176q-65 -71 -154 -105q-92 -35 -205 -34q-104 0 -196 34q-90 35 -152 105q-63 74 -96 174q-35 109 -35 250zM319 543q0 -133 23 -209q25 -84 63.5 -131t92.5 -70 q49 -20 108.5 -20t120.5 20q57 18 96 67.5t62 133.5q23 86 22 209q0 127 -20 207q-23 86 -60 131q-43 51 -92 69q-52 18 -117 19q-68 0 -120 -21q-55 -20 -95 -69q-41 -49 -61 -131q-23 -86 -23 -205zM501 1200v21l228 239h196v-28l-299 -232h-125z" />
<glyph unicode="&#xf4;" d="M129 543q0 274 127 418q125 141 358 141q244 0 365 -139q119 -137 119 -420q0 -139 -35 -248t-96 -176q-65 -71 -154 -105q-92 -35 -205 -34q-104 0 -196 34q-90 35 -152 105q-63 74 -96 174q-35 109 -35 250zM319 543q0 -133 23 -209q25 -84 63.5 -131t92.5 -70 q49 -20 108.5 -20t120.5 20q57 18 96 67.5t62 133.5q23 86 22 209q0 127 -20 207q-23 86 -60 131q-43 51 -92 69q-52 18 -117 19q-68 0 -120 -21q-55 -20 -95 -69q-41 -49 -61 -131q-23 -86 -23 -205zM283 1200v21l254 239h163l244 -239v-21h-104l-219 139h-3l-231 -139 h-104z" />
<glyph unicode="&#xf5;" d="M129 543q0 274 127 418q125 141 358 141q244 0 365 -139q119 -137 119 -420q0 -139 -35 -248t-96 -176q-65 -71 -154 -105q-92 -35 -205 -34q-104 0 -196 34q-90 35 -152 105q-63 74 -96 174q-35 109 -35 250zM319 543q0 -133 23 -209q25 -84 63.5 -131t92.5 -70 q49 -20 108.5 -20t120.5 20q57 18 96 67.5t62 133.5q23 86 22 209q0 127 -20 207q-23 86 -60 131q-43 51 -92 69q-52 18 -117 19q-68 0 -120 -21q-55 -20 -95 -69q-41 -49 -61 -131q-23 -86 -23 -205zM256 1200q8 61 14 90q8 37 33 80q20 35 59 57.5t97 22.5q39 0 86 -20 q29 -12 82 -41q4 -2 32.5 -17.5l42.5 -23.5q37 -18 70 -19q25 0 39 8q15 9 25 25q10 18 16 37q4 14 8 51h113q-4 -35 -17 -88q-9 -43 -30 -80q-23 -37 -60 -59q-39 -23 -96 -23q-41 0 -84 19q-29 12 -82 41q-66 35 -78 40q-45 20 -73 21q-25 0 -39 -8q-12 -8 -23 -25 q-8 -12 -14 -37q-2 -8 -5 -25.5t-5 -25.5h-111z" />
<glyph unicode="&#xf6;" d="M129 543q0 274 127 418q125 141 358 141q244 0 365 -139q119 -137 119 -420q0 -139 -35 -248t-96 -176q-65 -71 -154 -105q-92 -35 -205 -34q-104 0 -196 34q-90 35 -152 105q-63 74 -96 174q-35 109 -35 250zM319 543q0 -133 23 -209q25 -84 63.5 -131t92.5 -70 q49 -20 108.5 -20t120.5 20q57 18 96 67.5t62 133.5q23 86 22 209q0 127 -20 207q-23 86 -60 131q-43 51 -92 69q-52 18 -117 19q-68 0 -120 -21q-55 -20 -95 -69q-41 -49 -61 -131q-23 -86 -23 -205zM336 1219v184h164v-184h-164zM729 1219v184h164v-184h-164z" />
<glyph unicode="&#xf7;" d="M117 608v146h993v-146h-993zM528 223v183h168v-183h-168zM528 958v183h168v-183h-168z" />
<glyph unicode="&#xf8;" d="M111 543q0 143 32 243q33 102 99 175q68 76 157 106q98 35 215 35q215 0 336 -101l72 82l78 -67l-80 -90q96 -135 96 -383q0 -139 -35 -248q-33 -102 -100 -176q-65 -71 -160 -105q-98 -35 -213 -34q-102 0 -182 26q-88 29 -147 80l-78 -86l-76 68l84 96q-49 68 -74 162 q-24 96 -24 217zM299 543q0 -84 8 -135q10 -63 27 -105l508 578q-45 51 -99 69q-55 18 -125 19q-72 0 -126 -21q-61 -23 -102.5 -70t-66 -130.5t-24.5 -204.5zM385 209q45 -55 100.5 -75.5t120.5 -20.5q63 0 129 20q59 18 103 68q39 45 65 133q25 83 25 209q0 80 -8 135 q-8 59 -25 106z" />
<glyph unicode="&#xf9;" d="M184 360v721h181v-686q0 -80 12 -131q14 -57 37 -86q27 -33 69 -45q49 -14 107 -14q59 0 115 22q49 20 88 66q37 43 55 104q20 68 20 144v626h181v-850v-71q0 -12 1 -37t1 -35q0 -12 1 -30.5t1 -26.5q0 -10 1 -21l1 -10h-170l-1 9q-1 9 -1 18q0 6 -1 23.5t-1 27.5 q0 8 -1 27.5t-1 29.5t-1 26.5t-1 22.5h-3q-23 -43 -57 -84q-31 -37 -72 -65q-33 -23 -94 -41q-49 -14 -123 -14q-88 0 -155 22q-63 20 -106.5 67.5t-61.5 118.5q-21 82 -21 172zM307 1432v28h197l227 -239v-21h-123z" />
<glyph unicode="&#xfa;" d="M184 360v721h181v-686q0 -80 12 -131q14 -57 37 -86q27 -33 69 -45q49 -14 107 -14q59 0 115 22q49 20 88 66q37 43 55 104q20 68 20 144v626h181v-850v-71q0 -12 1 -37t1 -35q0 -12 1 -30.5t1 -26.5q0 -10 1 -21l1 -10h-170l-1 9q-1 9 -1 18q0 6 -1 23.5t-1 27.5 q0 8 -1 27.5t-1 29.5t-1 26.5t-1 22.5h-3q-23 -43 -57 -84q-31 -37 -72 -65q-33 -23 -94 -41q-49 -14 -123 -14q-88 0 -155 22q-63 20 -106.5 67.5t-61.5 118.5q-21 82 -21 172zM491 1200v21l228 239h196v-28l-299 -232h-125z" />
<glyph unicode="&#xfb;" d="M184 360v721h181v-686q0 -80 12 -131q14 -57 37 -86q27 -33 69 -45q49 -14 107 -14q59 0 115 22q49 20 88 66q37 43 55 104q20 68 20 144v626h181v-850v-71q0 -12 1 -37t1 -35q0 -12 1 -30.5t1 -26.5q0 -10 1 -21l1 -10h-170l-1 9q-1 9 -1 18q0 6 -1 23.5t-1 27.5 q0 8 -1 27.5t-1 29.5t-1 26.5t-1 22.5h-3q-23 -43 -57 -84q-31 -37 -72 -65q-33 -23 -94 -41q-49 -14 -123 -14q-88 0 -155 22q-63 20 -106.5 67.5t-61.5 118.5q-21 82 -21 172zM283 1200v21l254 239h163l244 -239v-21h-104l-219 139h-3l-231 -139h-104z" />
<glyph unicode="&#xfc;" d="M184 360v721h181v-686q0 -80 12 -131q14 -57 37 -86q27 -33 69 -45q49 -14 107 -14q59 0 115 22q49 20 88 66q37 43 55 104q20 68 20 144v626h181v-850v-71q0 -12 1 -37t1 -35q0 -12 1 -30.5t1 -26.5q0 -10 1 -21l1 -10h-170l-1 9q-1 9 -1 18q0 6 -1 23.5t-1 27.5 q0 8 -1 27.5t-1 29.5t-1 26.5t-1 22.5h-3q-23 -43 -57 -84q-31 -37 -72 -65q-33 -23 -94 -41q-49 -14 -123 -14q-88 0 -155 22q-63 20 -106.5 67.5t-61.5 118.5q-21 82 -21 172zM336 1219v184h164v-184h-164zM729 1219v184h164v-184h-164z" />
<glyph unicode="&#xfd;" d="M66 1081h192l264 -641q18 -51 27 -67l31 -78l26 -70l15 -39q4 14 14 41l27 68q25 63 30 78l14.5 36.5l12.5 30.5l252 641h190l-456 -1081q-37 -98 -76 -176t-90 -135q-47 -53 -108.5 -84t-137.5 -31q-45 0 -64 2q-23 2 -61 10v135q25 -4 43 -4q8 0 21.5 -1t19.5 -1 q78 0 149 60q68 55 117 186l19 49zM507 1200v21l228 239h196v-28l-299 -232h-125z" />
<glyph unicode="&#xfe;" d="M184 -426v1911h181v-424v-57q0 -10 -1.5 -28t-1.5 -24q0 -8 -1 -25.5t-1 -23.5h9q27 55 55 90q33 39 72 64q33 20 90 35q49 12 112 12q113 0 185 -39q74 -41 121 -115q43 -70 65 -176q20 -100 20.5 -227t-20.5 -228q-23 -113 -65 -180q-45 -74 -121 -116 q-74 -43 -185 -43q-49 0 -104 10q-45 8 -94 33q-37 18 -76 57q-37 37 -57 84h-5v-17q0 -4 1.5 -17t1.5 -21v-54q0 -10 1 -28.5t1 -28.5v-424h-183zM367 524q0 -115 18 -194.5t53 -126.5t90 -70q49 -20 121 -20q70 0 121 28q49 27 80 84q29 51 41 135q12 80 12 187 q0 115 -10 178q-12 80 -43 131q-33 57 -78 82q-47 27 -121 27q-58 0 -110.5 -18.5t-91.5 -67.5q-37 -47 -60 -134q-22 -90 -22 -221z" />
<glyph unicode="&#xff;" d="M66 1081h192l264 -641q18 -51 27 -67l31 -78l26 -70l15 -39q4 14 14 41l27 68q25 63 30 78l14.5 36.5l12.5 30.5l252 641h190l-456 -1081q-37 -98 -76 -176t-90 -135q-47 -53 -108.5 -84t-137.5 -31q-45 0 -64 2q-23 2 -61 10v135q25 -4 43 -4q8 0 21.5 -1t19.5 -1 q78 0 149 60q68 55 117 186l19 49zM340 1219v184h164v-184h-164zM733 1219v184h164v-184h-164z" />
<glyph unicode="&#x100;" d="M0 0l510 1350h217l502 -1350h-195l-137 383h-563l-137 -383h-197zM385 530h463l-148 424q-8 25 -26 76q-8 20 -13.5 40t-11.5 36q-12 35 -20 61l-13 37q-2 -8 -12 -39l-20 -61l-12.5 -37.5t-10.5 -36.5q-6 -20 -13 -39.5l-13 -36.5zM340 1503v127h551v-127h-551z" />
<glyph unicode="&#x101;" d="M127 301q0 106 41 176q43 72 102 109q61 37 146 53q88 16 166 16l235 4v60q0 68 -12 115t-41 75q-33 33 -70 43q-43 12 -98 13q-51 0 -90 -7q-35 -6 -70 -28q-29 -18 -47 -53t-24 -84l-189 18q9 65 37 117q27 51 78 92q49 41 125 61q74 20 182 21q197 0 301 -94 q100 -92 100 -271v-465q0 -80 22.5 -120.5t80.5 -40.5q18 0 28 2q4 2 14.5 4t14.5 2v-113q-34 -9 -67 -12q-45 -4 -70 -4q-45 0 -88 14q-37 12 -60 41q-23 31 -34 68q-14 45 -17 94h-6q-27 -49 -61 -94q-29 -37 -78 -72q-41 -29 -100 -45q-61 -16 -132 -16q-158 0 -237 86 q-82 88 -82 235zM317 299q0 -80 45.5 -131t129.5 -51q80 0 145 33q63 31 100 77q41 49 62 107q18 49 18 110v91l-188 -5q-37 0 -111 -8q-53 -6 -100 -33q-49 -29 -74 -69q-27 -45 -27 -121zM301 1237v127h551v-127h-551z" />
<glyph unicode="&#x102;" d="M0 0l510 1350h217l502 -1350h-195l-137 383h-563l-137 -383h-197zM385 530h463l-148 424q-8 25 -26 76q-8 20 -13.5 40t-11.5 36q-12 35 -20 61l-13 37q-2 -8 -12 -39l-20 -61l-12.5 -37.5t-10.5 -36.5q-6 -20 -13 -39.5l-13 -36.5zM301 1706h127q18 -68 59 -98 q45 -35 125 -35q84 0 129 35q41 31 60 98h127q-9 -46 -31 -92q-18 -39 -61 -82q-37 -37 -92.5 -61.5t-131.5 -24.5q-74 0 -129 24.5t-92 61.5q-39 39 -59 82q-22 46 -31 92z" />
<glyph unicode="&#x103;" d="M127 301q0 106 41 176q43 72 102 109q61 37 146 53q88 16 166 16l235 4v60q0 68 -12 115t-41 75q-33 33 -70 43q-43 12 -98 13q-51 0 -90 -7q-35 -6 -70 -28q-29 -18 -47 -53t-24 -84l-189 18q9 65 37 117q27 51 78 92q49 41 125 61q74 20 182 21q197 0 301 -94 q100 -92 100 -271v-465q0 -80 22.5 -120.5t80.5 -40.5q18 0 28 2q4 2 14.5 4t14.5 2v-113q-34 -9 -67 -12q-45 -4 -70 -4q-45 0 -88 14q-37 12 -60 41q-23 31 -34 68q-14 45 -17 94h-6q-27 -49 -61 -94q-29 -37 -78 -72q-41 -29 -100 -45q-61 -16 -132 -16q-158 0 -237 86 q-82 88 -82 235zM317 299q0 -80 45.5 -131t129.5 -51q80 0 145 33q63 31 100 77q41 49 62 107q18 49 18 110v91l-188 -5q-37 0 -111 -8q-53 -6 -100 -33q-49 -29 -74 -69q-27 -45 -27 -121zM283 1460h127q18 -68 59 -98q45 -35 125 -35q84 0 129 35q41 31 60 98h127 q-9 -46 -31 -92q-18 -39 -61 -82q-37 -37 -92.5 -61.5t-131.5 -24.5q-74 0 -129 24.5t-92 61.5q-39 39 -59 82q-22 46 -31 92z" />
<glyph unicode="&#x104;" d="M0 0l510 1350h217l502 -1350h-195l-137 383h-563l-137 -383h-197zM385 530h463l-148 424q-8 25 -26 76q-8 20 -13.5 40t-11.5 36q-12 35 -20 61l-13 37q-2 -8 -12 -39l-20 -61l-12.5 -37.5t-10.5 -36.5q-6 -20 -13 -39.5l-13 -36.5zM897 -230q0 46 19 86q20 43 41 70 q25 31 51 51l45 33h133q-33 -20 -51 -37q-29 -25 -47 -51q-23 -33 -35 -66q-14 -39 -14 -73q0 -41 24.5 -65.5t69.5 -24.5q29 0 57 6q33 6 58 18v-106q-35 -16 -64 -21q-37 -6 -76 -6q-109 0 -157 49q-54 53 -54 137z" />
<glyph unicode="&#x105;" d="M127 301q0 106 41 176q43 72 102 109q61 37 146 53q88 16 166 16l235 4v60q0 68 -12 115t-41 75q-33 33 -70 43q-43 12 -98 13q-51 0 -90 -7q-35 -6 -70 -28q-29 -18 -47 -53t-24 -84l-189 18q9 65 37 117q27 51 78 92q49 41 125 61q74 20 182 21q197 0 301 -94 q100 -92 100 -271v-465q0 -80 22.5 -120.5t80.5 -40.5q18 0 28 2q4 2 14.5 4t14.5 2v-113q-34 -9 -67 -12q-45 -4 -70 -4q-45 0 -88 14q-37 12 -60 41q-23 31 -34 68q-14 45 -17 94h-6q-27 -49 -61 -94q-29 -37 -78 -72q-41 -29 -100 -45q-61 -16 -132 -16q-158 0 -237 86 q-82 88 -82 235zM317 299q0 -80 45.5 -131t129.5 -51q80 0 145 33q63 31 100 77q41 49 62 107q18 49 18 110v91l-188 -5q-37 0 -111 -8q-53 -6 -100 -33q-49 -29 -74 -69q-27 -45 -27 -121zM809 -240q0 46 19 86q20 43 41 70q25 31 51 51l45 33h133q-33 -20 -51 -37 q-29 -25 -47 -51q-23 -33 -35 -66q-14 -39 -14 -73q0 -41 24.5 -65.5t69.5 -24.5q29 0 57 6q33 6 58 18v-106q-35 -16 -64 -21q-37 -6 -76 -6q-109 0 -157 49q-54 53 -54 137z" />
<glyph unicode="&#x106;" d="M113 682q0 156 32 293q31 127 99 217q66 88 166 133q98 45 239 45q102 0 176 -26.5t133 -75.5q49 -41 93 -107q37 -55 63 -127l-168 -63q-14 45 -40.5 90t-61.5 78q-37 34 -86 55q-47 20 -109 20q-86 0 -151.5 -34.5t-104.5 -100.5q-41 -70 -59 -168q-20 -109 -21 -229 q0 -137 21 -233q23 -109 61 -173q41 -68 109 -106q61 -35 158 -35q63 0 112 25q57 29 90 61q47 47 70 90q29 55 49 107l160 -66q-23 -57 -70 -137q-39 -66 -98.5 -119t-136.5 -84q-82 -33 -179 -32q-137 0 -243 51q-102 49 -170 141q-66 90 -101 221q-32 125 -32 289z M532 1444v21l228 239h196v-28l-299 -232h-125z" />
<glyph unicode="&#x107;" d="M129 543q0 163 43 270q43 106 115 172q68 61 159 90q86 27 187 27q96 0 174 -25q74 -25 133 -69q55 -43 90 -103q35 -61 47 -127l-190 -12q-14 90 -80 143q-63 51 -182 52q-90 0 -146 -27q-57 -27 -94 -80q-35 -49 -51 -131q-14 -72 -15 -176q0 -106 15 -180 q16 -82 51 -136q39 -57 94 -84q61 -29 144 -28q109 0 180 53q70 51 88 162l188 -12q-9 -68 -43 -129q-37 -66 -90 -109q-66 -51 -135 -76q-82 -29 -180 -28q-135 0 -232 43q-100 45 -155 118q-58 77 -86 178q-29 105 -29 224zM503 1200v21l228 239h196v-28l-299 -232h-125z " />
<glyph unicode="&#x108;" d="M113 682q0 156 32 293q31 127 99 217q66 88 166 133q98 45 239 45q102 0 176 -26.5t133 -75.5q49 -41 93 -107q37 -55 63 -127l-168 -63q-14 45 -40.5 90t-61.5 78q-37 34 -86 55q-47 20 -109 20q-86 0 -151.5 -34.5t-104.5 -100.5q-41 -70 -59 -168q-20 -109 -21 -229 q0 -137 21 -233q23 -109 61 -173q41 -68 109 -106q61 -35 158 -35q63 0 112 25q57 29 90 61q47 47 70 90q29 55 49 107l160 -66q-23 -57 -70 -137q-39 -66 -98.5 -119t-136.5 -84q-82 -33 -179 -32q-137 0 -243 51q-102 49 -170 141q-66 90 -101 221q-32 125 -32 289z M303 1446v21l254 239h163l244 -239v-21h-104l-219 139h-3l-231 -139h-104z" />
<glyph unicode="&#x109;" d="M129 543q0 163 43 270q43 106 115 172q68 61 159 90q86 27 187 27q96 0 174 -25q74 -25 133 -69q55 -43 90 -103q35 -61 47 -127l-190 -12q-14 90 -80 143q-63 51 -182 52q-90 0 -146 -27q-57 -27 -94 -80q-35 -49 -51 -131q-14 -72 -15 -176q0 -106 15 -180 q16 -82 51 -136q39 -57 94 -84q61 -29 144 -28q109 0 180 53q70 51 88 162l188 -12q-9 -68 -43 -129q-37 -66 -90 -109q-66 -51 -135 -76q-82 -29 -180 -28q-135 0 -232 43q-100 45 -155 118q-58 77 -86 178q-29 105 -29 224zM283 1200v21l254 239h163l244 -239v-21h-104 l-219 139h-3l-231 -139h-104z" />
<glyph unicode="&#x10a;" d="M113 682q0 156 32 293q31 127 99 217q66 88 166 133q98 45 239 45q102 0 176 -26.5t133 -75.5q49 -41 93 -107q37 -55 63 -127l-168 -63q-14 45 -40.5 90t-61.5 78q-37 34 -86 55q-47 20 -109 20q-86 0 -151.5 -34.5t-104.5 -100.5q-41 -70 -59 -168q-20 -109 -21 -229 q0 -137 21 -233q23 -109 61 -173q41 -68 109 -106q61 -35 158 -35q63 0 112 25q57 29 90 61q47 47 70 90q29 55 49 107l160 -66q-23 -57 -70 -137q-39 -66 -98.5 -119t-136.5 -84q-82 -33 -179 -32q-137 0 -243 51q-102 49 -170 141q-66 90 -101 221q-32 125 -32 289z M545 1446v193h201v-193h-201z" />
<glyph unicode="&#x10b;" d="M129 543q0 163 43 270q43 106 115 172q68 61 159 90q86 27 187 27q96 0 174 -25q74 -25 133 -69q55 -43 90 -103q35 -61 47 -127l-190 -12q-14 90 -80 143q-63 51 -182 52q-90 0 -146 -27q-57 -27 -94 -80q-35 -49 -51 -131q-14 -72 -15 -176q0 -106 15 -180 q16 -82 51 -136q39 -57 94 -84q61 -29 144 -28q109 0 180 53q70 51 88 162l188 -12q-9 -68 -43 -129q-37 -66 -90 -109q-66 -51 -135 -76q-82 -29 -180 -28q-135 0 -232 43q-100 45 -155 118q-58 77 -86 178q-29 105 -29 224zM534 1292v193h201v-193h-201z" />
<glyph unicode="&#x10c;" d="M113 682q0 156 32 293q31 127 99 217q66 88 166 133q98 45 239 45q102 0 176 -26.5t133 -75.5q49 -41 93 -107q37 -55 63 -127l-168 -63q-14 45 -40.5 90t-61.5 78q-37 34 -86 55q-47 20 -109 20q-86 0 -151.5 -34.5t-104.5 -100.5q-41 -70 -59 -168q-20 -109 -21 -229 q0 -137 21 -233q23 -109 61 -173q41 -68 109 -106q61 -35 158 -35q63 0 112 25q57 29 90 61q47 47 70 90q29 55 49 107l160 -66q-23 -57 -70 -137q-39 -66 -98.5 -119t-136.5 -84q-82 -33 -179 -32q-137 0 -243 51q-102 49 -170 141q-66 90 -101 221q-32 125 -32 289z M299 1686v20h104l231 -137h3l219 137h104v-20l-244 -240h-163z" />
<glyph unicode="&#x10d;" d="M129 543q0 163 43 270q43 106 115 172q68 61 159 90q86 27 187 27q96 0 174 -25q74 -25 133 -69q55 -43 90 -103q35 -61 47 -127l-190 -12q-14 90 -80 143q-63 51 -182 52q-90 0 -146 -27q-57 -27 -94 -80q-35 -49 -51 -131q-14 -72 -15 -176q0 -106 15 -180 q16 -82 51 -136q39 -57 94 -84q61 -29 144 -28q109 0 180 53q70 51 88 162l188 -12q-9 -68 -43 -129q-37 -66 -90 -109q-66 -51 -135 -76q-82 -29 -180 -28q-135 0 -232 43q-100 45 -155 118q-58 77 -86 178q-29 105 -29 224zM279 1440v20h104l231 -137h3l219 137h104v-20 l-244 -240h-163z" />
<glyph unicode="&#x10e;" d="M162 0v1350h311q160 0 279 -39q123 -41 204 -119q84 -80 127 -207q41 -121 41 -297q0 -172 -39 -297q-40 -129 -116 -215q-80 -90 -187 -131q-117 -45 -250 -45h-370zM352 156h162q211 0 315 133q104 132 105 399q0 133 -29 232q-27 94 -86 155q-61 63 -141 90 q-90 29 -205 29h-121v-1038zM254 1686v20h104l231 -137h3l219 137h104v-20l-244 -240h-163z" />
<glyph unicode="&#x10f;" d="M31 532q0 131 26 248q25 104 72 178q45 70 113 105q66 35 143 35q98 0 163.5 -43t115.5 -142h2l-1 10q-1 9 -1 17v45v49v31v420h180v-1262v-76q0 -12 1 -33.5t1 -31.5t1 -27.5t1 -23.5q0 -8 1 -18.5t1 -12.5h-172l-1 3q-1 3 -2 9t-1 11q-4 25 -4 43q0 8 -1 25.5t-1 27.5 v55h-4q-51 -109 -117 -154q-70 -47 -162 -47q-82 0 -147 35q-65 34 -111 105q-47 74 -72 174q-24 104 -24 245zM217 538.5q0 -112.5 12 -192.5q14 -88 35 -133q25 -51 61.5 -75.5t90.5 -24.5q51 0 92 26q49 31 80 82q35 55 55 137q20 80 21 197q0 111 -21 184 q-23 82 -55 129q-35 51 -78 74t-94 23q-45 0 -84 -22.5t-64 -74.5q-29 -59 -39 -133q-12 -84 -12 -196.5zM954 1159v33l80 293h197v-37l-170 -289h-107z" />
<glyph unicode="&#x110;" d="M27 598v147h135v605h311q160 0 279 -39q123 -41 204 -119q84 -80 127 -207q41 -121 41 -297q0 -172 -39 -297q-40 -129 -116 -215q-80 -90 -187 -131q-117 -45 -250 -45h-370v598h-135zM352 156h162q211 0 315 133q104 132 105 399q0 133 -29 232q-27 94 -86 155 q-61 63 -141 90q-90 29 -205 29h-121v-449h289v-147h-289v-442z" />
<glyph unicode="&#x111;" d="M137 516q0 555 393 555q120 0 203 -43q80 -41 129 -139h2v24v48v47q0 8 -1 18t-1 12v158h-299v131h299v158h180v-158h132v-131h-132v-973q0 -14 1 -38.5t1 -37.5v-65q0 -10 1.5 -27.5t1.5 -23.5q0 -8 1 -18.5t1 -12.5h-172q0 10 -3 23q-4 25 -4 43q0 8 -1 25.5t-1 27.5 t-1 28.5t-1 26.5h-4q-51 -106 -131 -154q-82 -47 -201 -47q-203 0 -297 136q-96 137 -96 407zM324 522q0 -113 14 -184q16 -80 45 -127q31 -49 80 -73.5t115 -24.5q68 0 122 22q49 20 88 76q37 53 56 131q18 80 18 197q0 113 -18 188q-18 80 -53 123q-37 45 -91 68 q-49 20 -120 20q-61 0 -113 -23q-49 -20 -80 -71q-33 -51 -47 -129q-16 -87 -16 -193z" />
<glyph unicode="&#x112;" d="M162 0v1350h919v-156h-729v-424h670v-154h-670v-460h770v-156h-960zM356 1503v127h551v-127h-551z" />
<glyph unicode="&#x113;" d="M133 549q0 158 39 262q39 106 107 170q66 63 155.5 92t181.5 29q137 0 222 -41q90 -43 147 -119q61 -80 84 -180q25 -106 25 -236v-22h-772q0 -80 20 -158q18 -71 55 -123q35 -51 95 -80q57 -29 131 -28q57 0 102 12t84 35q35 20 61.5 53t36.5 66l158 -45 q-12 -39 -47 -91q-27 -41 -86 -82q-47 -33 -129 -59q-78 -25 -180 -24q-113 0 -205 36.5t-156 106.5q-61 68 -96 178q-33 105 -33 248zM324 641h583q-10 96 -32.5 157.5t-65.5 100.5t-86 53q-53 16 -104.5 16.5t-96.5 -14.5q-53 -16 -94 -51t-72 -100q-28 -62 -32 -162z M340 1237v127h551v-127h-551z" />
<glyph unicode="&#x114;" d="M162 0v1350h919v-156h-729v-424h670v-154h-670v-460h770v-156h-960zM301 1706h127q18 -68 59 -98q45 -35 125 -35q84 0 129 35q41 31 60 98h127q-9 -46 -31 -92q-18 -39 -61 -82q-37 -37 -92.5 -61.5t-131.5 -24.5q-74 0 -129 24.5t-92 61.5q-39 39 -59 82q-22 46 -31 92 z" />
<glyph unicode="&#x115;" d="M133 549q0 158 39 262q39 106 107 170q66 63 155.5 92t181.5 29q137 0 222 -41q90 -43 147 -119q61 -80 84 -180q25 -106 25 -236v-22h-772q0 -80 20 -158q18 -71 55 -123q35 -51 95 -80q57 -29 131 -28q57 0 102 12t84 35q35 20 61.5 53t36.5 66l158 -45 q-12 -39 -47 -91q-27 -41 -86 -82q-47 -33 -129 -59q-78 -25 -180 -24q-113 0 -205 36.5t-156 106.5q-61 68 -96 178q-33 105 -33 248zM324 641h583q-10 96 -32.5 157.5t-65.5 100.5t-86 53q-53 16 -104.5 16.5t-96.5 -14.5q-53 -16 -94 -51t-72 -100q-28 -62 -32 -162z M305 1460h127q18 -68 59 -98q45 -35 125 -35q84 0 129 35q41 31 60 98h127q-9 -46 -31 -92q-18 -39 -61 -82q-37 -37 -92.5 -61.5t-131.5 -24.5q-74 0 -129 24.5t-92 61.5q-39 39 -59 82q-22 46 -31 92z" />
<glyph unicode="&#x116;" d="M162 0v1350h919v-156h-729v-424h670v-154h-670v-460h770v-156h-960zM514 1446v193h201v-193h-201z" />
<glyph unicode="&#x117;" d="M133 549q0 158 39 262q39 106 107 170q66 63 155.5 92t181.5 29q137 0 222 -41q90 -43 147 -119q61 -80 84 -180q25 -106 25 -236v-22h-772q0 -80 20 -158q18 -71 55 -123q35 -51 95 -80q57 -29 131 -28q57 0 102 12t84 35q35 20 61.5 53t36.5 66l158 -45 q-12 -39 -47 -91q-27 -41 -86 -82q-47 -33 -129 -59q-78 -25 -180 -24q-113 0 -205 36.5t-156 106.5q-61 68 -96 178q-33 105 -33 248zM324 641h583q-10 96 -32.5 157.5t-65.5 100.5t-86 53q-53 16 -104.5 16.5t-96.5 -14.5q-53 -16 -94 -51t-72 -100q-28 -62 -32 -162z M516 1298v193h201v-193h-201z" />
<glyph unicode="&#x118;" d="M162 0v1350h919v-156h-729v-424h670v-154h-670v-460h770v-156h-960zM772 -240q0 46 19 86q20 43 41 70q25 31 51 51l45 33h133q-33 -20 -51 -37q-29 -25 -47 -51q-23 -33 -35 -66q-14 -39 -14 -73q0 -41 24.5 -65.5t69.5 -24.5q29 0 57 6q33 6 58 18v-106 q-35 -16 -64 -21q-37 -6 -76 -6q-109 0 -157 49q-54 53 -54 137z" />
<glyph unicode="&#x119;" d="M133 549q0 158 39 262q39 106 107 170q66 63 155.5 92t181.5 29q137 0 222 -41q90 -43 147 -119q61 -80 84 -180q25 -106 25 -236v-22h-772q0 -80 20 -158q18 -71 55 -123q35 -51 95 -80q57 -29 131 -28q57 0 102 12t84 35q35 20 61.5 53t36.5 66l158 -45 q-12 -39 -47 -91q-27 -41 -86 -82q-47 -33 -129 -59q-78 -25 -180 -24q-113 0 -205 36.5t-156 106.5q-61 68 -96 178q-33 105 -33 248zM324 641h583q-10 96 -32.5 157.5t-65.5 100.5t-86 53q-53 16 -104.5 16.5t-96.5 -14.5q-53 -16 -94 -51t-72 -100q-28 -62 -32 -162z M501 -240q0 46 19 86q20 43 41 70q25 31 51 51l45 33h133q-33 -20 -51 -37q-29 -25 -47 -51q-23 -33 -35 -66q-14 -39 -14 -73q0 -41 24.5 -65.5t69.5 -24.5q29 0 57 6q33 6 58 18v-106q-35 -16 -64 -21q-37 -6 -76 -6q-109 0 -157 49q-54 53 -54 137z" />
<glyph unicode="&#x11a;" d="M162 0v1350h919v-156h-729v-424h670v-154h-670v-460h770v-156h-960zM283 1686v20h104l231 -137h3l219 137h104v-20l-244 -240h-163z" />
<glyph unicode="&#x11b;" d="M133 549q0 158 39 262q39 106 107 170q66 63 155.5 92t181.5 29q137 0 222 -41q90 -43 147 -119q61 -80 84 -180q25 -106 25 -236v-22h-772q0 -80 20 -158q18 -71 55 -123q35 -51 95 -80q57 -29 131 -28q57 0 102 12t84 35q35 20 61.5 53t36.5 66l158 -45 q-12 -39 -47 -91q-27 -41 -86 -82q-47 -33 -129 -59q-78 -25 -180 -24q-113 0 -205 36.5t-156 106.5q-61 68 -96 178q-33 105 -33 248zM324 641h583q-10 96 -32.5 157.5t-65.5 100.5t-86 53q-53 16 -104.5 16.5t-96.5 -14.5q-53 -16 -94 -51t-72 -100q-28 -62 -32 -162z M277 1440v20h104l231 -137h3l219 137h104v-20l-244 -240h-163z" />
<glyph unicode="&#x11c;" d="M113 682q0 166 30 295q31 127 96.5 215t166.5 133q98 45 235 45q92 0 176 -27q70 -23 131 -69q59 -45 94 -105q35 -57 62 -131l-172 -55q-37 109 -107 170q-72 61 -182 61q-86 0 -151 -34q-61 -33 -103 -103q-39 -66 -57 -166q-18 -98 -19 -229q0 -268 86 -407.5 t256 -139.5q51 0 90 8q43 8 74 21q31 10 58 24q35 16 38 21v336h-292v160h479v-572q-12 -8 -84 -51q-43 -27 -107 -49q-59 -23 -125 -37q-72 -16 -147 -16q-133 0 -233 53q-98 53 -164 145q-66 94 -97 221q-32 138 -32 283zM283 1446v21l254 239h163l244 -239v-21h-104 l-219 139h-3l-231 -139h-104z" />
<glyph unicode="&#x11d;" d="M143 549q0 137 20.5 233.5t69.5 171.5q47 72 123 109q78 37 187 37q113 0 196.5 -53.5t128.5 -149.5h2q0 8 1 26.5t1 29t1 31t1 28.5q0 18 5 47q0 6 1 11t2 8l1 3h172q0 -2 -1 -12t-1 -18q0 -6 -1 -23.5t-1 -28t-1 -32t-1 -33.5v-76v-825q0 -229 -107 -342 q-109 -115 -328 -115q-90 0 -157 18q-72 18 -119 56q-51 39 -80 84q-31 49 -43 108l184 27q18 -78 74 -117q57 -41 148 -41q55 0 102 19q45 18 78 53t51 98q16 55 16 146v194h-2q-23 -47 -47 -78q-39 -47 -71 -67q-49 -31 -97 -47q-49 -16 -127 -17q-106 0 -174 33 q-74 35 -119 100q-47 68 -67 168q-21 97 -21 236zM330 551q0 -123 14 -195q16 -78 47 -125q33 -51 80 -67q49 -18 115 -19q53 0 102 21q53 23 92 70q37 47 64 126q25 76 24 189q0 119 -22 192q-25 82 -64 129.5t-90 70t-104 22.5q-66 0 -117 -23q-49 -20 -80 -72 q-33 -53 -47 -126.5t-14 -192.5zM275 1200v21l254 239h163l244 -239v-21h-104l-219 139h-3l-231 -139h-104z" />
<glyph unicode="&#x11e;" d="M113 682q0 166 30 295q31 127 96.5 215t166.5 133q98 45 235 45q92 0 176 -27q70 -23 131 -69q59 -45 94 -105q35 -57 62 -131l-172 -55q-37 109 -107 170q-72 61 -182 61q-86 0 -151 -34q-61 -33 -103 -103q-39 -66 -57 -166q-18 -98 -19 -229q0 -268 86 -407.5 t256 -139.5q51 0 90 8q43 8 74 21q31 10 58 24q35 16 38 21v336h-292v160h479v-572q-12 -8 -84 -51q-43 -27 -107 -49q-59 -23 -125 -37q-72 -16 -147 -16q-133 0 -233 53q-98 53 -164 145q-66 94 -97 221q-32 138 -32 283zM303 1706h127q18 -68 59 -98q45 -35 125 -35 q84 0 129 35q41 31 60 98h127q-9 -46 -31 -92q-18 -39 -61 -82q-37 -37 -92.5 -61.5t-131.5 -24.5q-74 0 -129 24.5t-92 61.5q-39 39 -59 82q-22 46 -31 92z" />
<glyph unicode="&#x11f;" d="M143 549q0 137 20.5 233.5t69.5 171.5q47 72 123 109q78 37 187 37q113 0 196.5 -53.5t128.5 -149.5h2q0 8 1 26.5t1 29t1 31t1 28.5q0 18 5 47q0 6 1 11t2 8l1 3h172q0 -2 -1 -12t-1 -18q0 -6 -1 -23.5t-1 -28t-1 -32t-1 -33.5v-76v-825q0 -229 -107 -342 q-109 -115 -328 -115q-90 0 -157 18q-72 18 -119 56q-51 39 -80 84q-31 49 -43 108l184 27q18 -78 74 -117q57 -41 148 -41q55 0 102 19q45 18 78 53t51 98q16 55 16 146v194h-2q-23 -47 -47 -78q-39 -47 -71 -67q-49 -31 -97 -47q-49 -16 -127 -17q-106 0 -174 33 q-74 35 -119 100q-47 68 -67 168q-21 97 -21 236zM330 551q0 -123 14 -195q16 -78 47 -125q33 -51 80 -67q49 -18 115 -19q53 0 102 21q53 23 92 70q37 47 64 126q25 76 24 189q0 119 -22 192q-25 82 -64 129.5t-90 70t-104 22.5q-66 0 -117 -23q-49 -20 -80 -72 q-33 -53 -47 -126.5t-14 -192.5zM293 1460h127q18 -68 59 -98q45 -35 125 -35q84 0 129 35q41 31 60 98h127q-9 -46 -31 -92q-18 -39 -61 -82q-37 -37 -92.5 -61.5t-131.5 -24.5q-74 0 -129 24.5t-92 61.5q-39 39 -59 82q-22 46 -31 92z" />
<glyph unicode="&#x120;" d="M113 682q0 166 30 295q31 127 96.5 215t166.5 133q98 45 235 45q92 0 176 -27q70 -23 131 -69q59 -45 94 -105q35 -57 62 -131l-172 -55q-37 109 -107 170q-72 61 -182 61q-86 0 -151 -34q-61 -33 -103 -103q-39 -66 -57 -166q-18 -98 -19 -229q0 -268 86 -407.5 t256 -139.5q51 0 90 8q43 8 74 21q31 10 58 24q35 16 38 21v336h-292v160h479v-572q-12 -8 -84 -51q-43 -27 -107 -49q-59 -23 -125 -37q-72 -16 -147 -16q-133 0 -233 53q-98 53 -164 145q-66 94 -97 221q-32 138 -32 283zM524 1446v193h201v-193h-201z" />
<glyph unicode="&#x121;" d="M143 549q0 137 20.5 233.5t69.5 171.5q47 72 123 109q78 37 187 37q113 0 196.5 -53.5t128.5 -149.5h2q0 8 1 26.5t1 29t1 31t1 28.5q0 18 5 47q0 6 1 11t2 8l1 3h172q0 -2 -1 -12t-1 -18q0 -6 -1 -23.5t-1 -28t-1 -32t-1 -33.5v-76v-825q0 -229 -107 -342 q-109 -115 -328 -115q-90 0 -157 18q-72 18 -119 56q-51 39 -80 84q-31 49 -43 108l184 27q18 -78 74 -117q57 -41 148 -41q55 0 102 19q45 18 78 53t51 98q16 55 16 146v194h-2q-23 -47 -47 -78q-39 -47 -71 -67q-49 -31 -97 -47q-49 -16 -127 -17q-106 0 -174 33 q-74 35 -119 100q-47 68 -67 168q-21 97 -21 236zM330 551q0 -123 14 -195q16 -78 47 -125q33 -51 80 -67q49 -18 115 -19q53 0 102 21q53 23 92 70q37 47 64 126q25 76 24 189q0 119 -22 192q-25 82 -64 129.5t-90 70t-104 22.5q-66 0 -117 -23q-49 -20 -80 -72 q-33 -53 -47 -126.5t-14 -192.5zM506 1292v193h201v-193h-201z" />
<glyph unicode="&#x122;" d="M113 682q0 166 30 295q31 127 96.5 215t166.5 133q98 45 235 45q92 0 176 -27q70 -23 131 -69q59 -45 94 -105q35 -57 62 -131l-172 -55q-37 109 -107 170q-72 61 -182 61q-86 0 -151 -34q-61 -33 -103 -103q-39 -66 -57 -166q-18 -98 -19 -229q0 -268 86 -407.5 t256 -139.5q51 0 90 8q43 8 74 21q31 10 58 24q35 16 38 21v336h-292v160h479v-572q-12 -8 -84 -51q-43 -27 -107 -49q-59 -23 -125 -37q-72 -16 -147 -16q-133 0 -233 53q-98 53 -164 145q-66 94 -97 221q-32 138 -32 283zM475 -389l80 291h197v-37l-172 -289h-105v35z" />
<glyph unicode="&#x123;" d="M143 549q0 137 20.5 233.5t69.5 171.5q47 72 123 109q78 37 187 37q113 0 196.5 -53.5t128.5 -149.5h2q0 8 1 26.5t1 29t1 31t1 28.5q0 18 5 47q0 6 1 11t2 8l1 3h172q0 -2 -1 -12t-1 -18q0 -6 -1 -23.5t-1 -28t-1 -32t-1 -33.5v-76v-825q0 -229 -107 -342 q-109 -115 -328 -115q-90 0 -157 18q-72 18 -119 56q-51 39 -80 84q-31 49 -43 108l184 27q18 -78 74 -117q57 -41 148 -41q55 0 102 19q45 18 78 53t51 98q16 55 16 146v194h-2q-23 -47 -47 -78q-39 -47 -71 -67q-49 -31 -97 -47q-49 -16 -127 -17q-106 0 -174 33 q-74 35 -119 100q-47 68 -67 168q-21 97 -21 236zM330 551q0 -123 14 -195q16 -78 47 -125q33 -51 80 -67q49 -18 115 -19q53 0 102 21q53 23 92 70q37 47 64 126q25 76 24 189q0 119 -22 192q-25 82 -64 129.5t-90 70t-104 22.5q-66 0 -117 -23q-49 -20 -80 -72 q-33 -53 -47 -126.5t-14 -192.5zM475 1210v37l170 289h107v-33l-80 -293h-197z" />
<glyph unicode="&#x124;" d="M162 0v1350h190v-568h522v568h193v-1350h-193v623h-522v-623h-190zM283 1446v21l254 239h163l244 -239v-21h-104l-219 139h-3l-231 -139h-104z" />
<glyph unicode="&#x125;" d="M184 0v1350h183v-316q0 -35 -5 -100l-4 -51.5t-2 -44.5h4q27 49 55.5 83.5t73.5 65.5q35 25 93 41q49 14 116 14q82 0 150 -22q61 -20 108 -68q43 -43 70 -118q23 -66 23 -172v-662h-181v635q0 76 -16 131q-14 49 -47 82q-31 31 -70 43t-88 12q-55 0 -110 -22 q-45 -18 -88 -66q-40 -43 -62 -104q-23 -63 -22 -144v-567h-181zM283 1446v18l254 242h163l244 -242v-18h-104l-219 137h-3l-231 -137h-104z" />
<glyph unicode="&#x126;" d="M2 1006v147h160v197h190v-197h522v197h193v-197h160v-147h-160v-1006h-193v623h-522v-623h-190v1006h-160zM352 782h522v224h-522v-224z" />
<glyph unicode="&#x127;" d="M53 1196v131h131v158h183v-158h299v-131h-299v-131q0 -37 -5 -102l-4 -51.5t-2 -45.5h4q29 55 56 86q25 29 73 64q35 25 93 41q49 14 116 14q88 0 150 -20q57 -18 108 -70q45 -45 70 -117q23 -66 23 -174v-690h-181v666q0 76 -16 131q-14 49 -47 82q-31 31 -70 43t-88 12 q-55 0 -110 -23q-45 -18 -88 -65q-40 -43 -62 -105q-23 -63 -22 -143v-598h-181v1196h-131z" />
<glyph unicode="&#x128;" d="M203 0v156h315v1038h-315v156h821v-156h-315v-1038h315v-156h-821zM256 1446q8 61 14 90q8 37 33 80q20 35 59 57.5t97 22.5q39 0 86 -20q29 -12 82 -41q4 -2 32.5 -17.5l42.5 -23.5q37 -18 70 -19q25 0 39 8q15 9 25 25q10 18 16 37q4 14 8 51h113q-4 -35 -17 -88 q-9 -43 -30 -80q-23 -37 -60 -59q-39 -23 -96 -23q-41 0 -84 19q-29 12 -82 41q-66 35 -78 40q-45 20 -73 21q-25 0 -39 -8q-12 -8 -23 -25q-8 -12 -14 -37q-2 -8 -5 -25.5t-5 -25.5h-111z" />
<glyph unicode="&#x129;" d="M143 0v141h422v799h-319v141h499v-940h379v-141h-981zM256 1200q8 61 14 90q8 37 33 80q20 35 59 57.5t97 22.5q39 0 86 -20q29 -12 82 -41q4 -2 32.5 -17.5l42.5 -23.5q37 -18 70 -19q25 0 39 8q15 9 25 25q10 18 16 37q4 14 8 51h113q-4 -35 -17 -88q-9 -43 -30 -80 q-23 -37 -60 -59q-39 -23 -96 -23q-41 0 -84 19q-29 12 -82 41q-66 35 -78 40q-45 20 -73 21q-25 0 -39 -8q-12 -8 -23 -25q-8 -12 -14 -37q-2 -8 -5 -25.5t-5 -25.5h-111z" />
<glyph unicode="&#x12a;" d="M203 0v156h315v1038h-315v156h821v-156h-315v-1038h315v-156h-821zM340 1503v127h551v-127h-551z" />
<glyph unicode="&#x12b;" d="M143 0v141h422v799h-319v141h499v-940h379v-141h-981zM346 1237v127h551v-127h-551z" />
<glyph unicode="&#x12c;" d="M203 0v156h315v1038h-315v156h821v-156h-315v-1038h315v-156h-821zM301 1704h127q18 -68 59 -98q45 -35 125 -35q84 0 129 35q41 31 60 98h127q-9 -46 -31 -92q-18 -39 -61 -82q-37 -37 -92.5 -61.5t-131.5 -24.5q-74 0 -129 24.5t-92 61.5q-39 39 -59 82q-22 46 -31 92z " />
<glyph unicode="&#x12d;" d="M143 0v141h422v799h-319v141h499v-940h379v-141h-981zM321 1460h127q18 -68 59 -98q45 -35 125 -35q84 0 129 35q41 31 60 98h127q-9 -46 -31 -92q-18 -39 -61 -82q-37 -37 -92.5 -61.5t-131.5 -24.5q-74 0 -129 24.5t-92 61.5q-39 39 -59 82q-22 46 -31 92z" />
<glyph unicode="&#x12e;" d="M203 0v156h315v1038h-315v156h821v-156h-315v-1038h315v-156h-821zM452 -240q0 46 19 86q20 43 41 70q25 31 51 51l45 33h133q-33 -20 -51 -37q-29 -25 -47 -51q-23 -33 -35 -66q-14 -39 -14 -73q0 -41 24.5 -65.5t69.5 -24.5q29 0 57 6q33 6 58 18v-106q-35 -16 -64 -21 q-37 -6 -76 -6q-109 0 -157 49q-54 53 -54 137z" />
<glyph unicode="&#x12f;" d="M143 0v141h422v799h-319v141h499v-940h379v-141h-981zM545 1292v193h200v-193h-200zM495 -240q0 46 19 86q20 43 41 70q25 31 51 51l45 33h133q-33 -20 -51 -37q-29 -25 -47 -51q-23 -33 -35 -66q-14 -39 -14 -73q0 -41 24.5 -65.5t69.5 -24.5q29 0 57 6q33 6 58 18v-106 q-35 -16 -64 -21q-37 -6 -76 -6q-109 0 -157 49q-54 53 -54 137z" />
<glyph unicode="&#x130;" d="M203 0v156h315v1038h-315v156h821v-156h-315v-1038h315v-156h-821zM514 1446v193h201v-193h-201z" />
<glyph unicode="&#x131;" d="M143 0v141h422v799h-319v141h499v-940h379v-141h-981z" />
<glyph unicode="&#x132;" d="M98 0v1350h191v-1350h-191zM377 350l186 31q23 -133 72 -188q51 -57 133 -58q104 0 151.5 72t47.5 209v778h-271v156h461v-930q0 -100 -24 -182q-25 -80 -72 -138q-51 -59 -123 -90q-74 -31 -170 -30q-84 0 -151.5 22.5t-112.5 67.5q-49 49 -78 114q-31 71 -49 166z" />
<glyph unicode="&#x133;" d="M215 1292v193h201v-193h-201zM236 0l2 1081h178v-1081h-180zM342 -242l51 -12q12 -2 35 -5t33 -5q29 -4 74 -8q53 -4 79 -4q59 0 105 14q51 16 86 45q31 27 55 78q20 43 21 114v1106h180v-1110q0 -113 -35 -184q-37 -78 -94.5 -123t-137 -67.5t-163.5 -22.5q-29 0 -82 4 q-35 2 -80 10q-25 4 -70 13q-27 4 -57 16v141zM860 1292v193h201v-193h-201z" />
<glyph unicode="&#x134;" d="M176 350l186 31q9 -65 31 -111q18 -39 51 -75q25 -29 66 -45q35 -14 78 -15q102 0 155.5 72t53.5 209v778h-312v156h500v-930q0 -100 -24 -182q-23 -74 -76 -138q-49 -59 -125 -90q-74 -31 -174 -30q-170 0 -273 90q-104 90 -137 280zM404 1446v21l254 239h163l244 -239 v-21h-104l-219 139h-3l-231 -139h-104z" />
<glyph unicode="&#x135;" d="M213 -242l51 -12q12 -2 35 -5t33 -5q29 -4 74 -8q53 -4 79 -4q59 0 105 14q51 16 86 45q31 27 55 78q20 43 21 114v965h-408v141h588v-1110q0 -113 -35 -184q-37 -78 -94.5 -123t-137 -67.5t-163.5 -22.5q-29 0 -82 4q-35 2 -80 10q-25 4 -70 13q-27 4 -57 16v141z M385 1200v21l254 239h163l244 -239v-21h-104l-219 139h-3l-231 -139h-104z" />
<glyph unicode="&#x136;" d="M162 0v1350h190v-674l574 674h225l-506 -574l582 -776h-223l-488 639l-164 -170v-469h-190zM475 -389l80 291h197v-37l-172 -289h-105v35z" />
<glyph unicode="&#x137;" d="M236 0v1485h180v-928l475 524h211l-438 -465l460 -616h-211l-364 500l-133 -99v-401h-180zM475 -389l80 291h197v-37l-172 -289h-105v35z" />
<glyph unicode="&#x138;" d="M236 0v1081h180v-536l475 536h211l-438 -465l460 -616h-211l-364 494l-133 -99v-395h-180z" />
<glyph unicode="&#x139;" d="M238 0v1350h190v-1194h672v-156h-862zM303 1446v21l228 239h196v-28l-299 -232h-125z" />
<glyph unicode="&#x13a;" d="M133 0v141h422v1065h-289v144h469v-1209h381v-141h-983zM530 1446v18l228 242h196v-31l-299 -229h-125z" />
<glyph unicode="&#x13b;" d="M238 0v1350h190v-1194h672v-156h-862zM485 -389l80 291h197v-37l-172 -289h-105v35z" />
<glyph unicode="&#x13c;" d="M133 0v141h422v1200h-289v144h469v-1344h381v-141h-983zM475 -389l80 291h197v-37l-172 -289h-105v35z" />
<glyph unicode="&#x13d;" d="M238 0v1350h190v-1194h672v-156h-862zM774 1059l80 291h197v-37l-172 -289h-105v35z" />
<glyph unicode="&#x13e;" d="M84 0v141h422v1200h-289v144h469v-1344h381v-141h-983zM895 1159v33l80 293h197v-37l-172 -289h-105z" />
<glyph unicode="&#x13f;" d="M238 0v1350h190v-1194h672v-156h-862zM670 608v193h201v-193h-201z" />
<glyph unicode="&#x140;" d="M133 0v141h422v1200h-289v144h469v-1344h381v-141h-983zM930 608v193h201v-193h-201z" />
<glyph unicode="&#x141;" d="M53 518l185 96v736h190v-637l293 151l59 -121l-352 -186v-401h672v-156h-862v459l-117 -62z" />
<glyph unicode="&#x142;" d="M133 0v141h422v494l-217 -123l-64 113l281 157v559h-338v144h518v-600l226 129l63 -115l-289 -164v-594h381v-141h-983z" />
<glyph unicode="&#x143;" d="M162 0v1350h223l526 -1139q-4 29 -8 86q-4 45 -6 88q-2 33 -2 100v865h172v-1350h-231l-521 1130l9 -88q2 -25 6 -81q2 -29 2 -84v-877h-170zM524 1446v21l228 239h196v-28l-299 -232h-125z" />
<glyph unicode="&#x144;" d="M178 1081h170l1 -9q1 -9 1 -17q0 -6 2 -23.5t2 -27.5q0 -8 1 -28t1 -30v-49h4q31 57 56 84q37 41 76 66q37 23 96 40q49 14 119 15q80 0 147 -23q63 -20 107 -67q45 -47 65 -117q23 -74 23 -174v-721h-181v694q0 78 -16 133q-14 49 -47 82q-29 29 -70 41q-39 12 -88 13 q-55 0 -110 -23q-45 -18 -88 -66q-40 -43 -62 -104q-23 -63 -22 -143v-627h-181v852v70q0 12 -1 36.5t-1 34.5q0 12 -1 30.5t-1 27.5q0 10 -1 20zM538 1200v21l228 239h196v-28l-299 -232h-125z" />
<glyph unicode="&#x145;" d="M162 0v1350h223l526 -1139q-4 29 -8 86q-4 45 -6 88q-2 33 -2 100v865h172v-1350h-231l-521 1130l9 -88q2 -25 6 -81q2 -29 2 -84v-877h-170zM444 -389l80 291h197v-37l-172 -289h-105v35z" />
<glyph unicode="&#x146;" d="M178 1081h170l1 -9q1 -9 1 -17q0 -6 2 -23.5t2 -27.5q0 -8 1 -28t1 -30v-49h4q31 57 56 84q37 41 76 66q37 23 96 40q49 14 119 15q80 0 147 -23q63 -20 107 -67q45 -47 65 -117q23 -74 23 -174v-721h-181v694q0 78 -16 133q-14 49 -47 82q-29 29 -70 41q-39 12 -88 13 q-55 0 -110 -23q-45 -18 -88 -66q-40 -43 -62 -104q-23 -63 -22 -143v-627h-181v852v70q0 12 -1 36.5t-1 34.5q0 12 -1 30.5t-1 27.5q0 10 -1 20zM448 -389l80 291h197v-37l-172 -289h-105v35z" />
<glyph unicode="&#x147;" d="M162 0v1350h223l526 -1139q-4 29 -8 86q-4 45 -6 88q-2 33 -2 100v865h172v-1350h-231l-521 1130l9 -88q2 -25 6 -81q2 -29 2 -84v-877h-170zM289 1686v20h104l231 -137h3l219 137h104v-20l-244 -240h-163z" />
<glyph unicode="&#x148;" d="M178 1081h170l1 -9q1 -9 1 -17q0 -6 2 -23.5t2 -27.5q0 -8 1 -28t1 -30v-49h4q31 57 56 84q37 41 76 66q37 23 96 40q49 14 119 15q80 0 147 -23q63 -20 107 -67q45 -47 65 -117q23 -74 23 -174v-721h-181v694q0 78 -16 133q-14 49 -47 82q-29 29 -70 41q-39 12 -88 13 q-55 0 -110 -23q-45 -18 -88 -66q-40 -43 -62 -104q-23 -63 -22 -143v-627h-181v852v70q0 12 -1 36.5t-1 34.5q0 12 -1 30.5t-1 27.5q0 10 -1 20zM283 1440v20h104l231 -137h3l219 137h104v-20l-244 -240h-163z" />
<glyph unicode="&#x149;" d="M282 1081h170l1 -9q1 -9 1 -17q0 -6 2 -23.5t2 -27.5q0 -8 1 -28t1 -30v-49h4q31 57 56 84q37 41 76 66q37 23 96 40q49 14 119 15q80 0 147 -23q63 -20 107 -67q45 -47 65 -117q23 -74 23 -174v-721h-181v694q0 78 -16 133q-14 49 -47 82q-29 29 -70 41q-39 12 -88 13 q-55 0 -110 -23q-45 -18 -88 -66q-40 -43 -62 -104q-23 -63 -22 -143v-627h-181v852v70q0 12 -1 36.5t-1 34.5q0 12 -1 30.5t-1 27.5q0 10 -1 20zM6 1059l80 291h197v-37l-172 -289h-105v35z" />
<glyph unicode="&#x14a;" d="M178 1350h170l1 -10q1 -9 1 -17q0 -6 2 -23.5t2 -27.5q0 -8 1 -27.5t1 -30.5v-49h4q49 94 143.5 149.5t241.5 55.5q84 0 156 -22q66 -20 113 -67.5t71 -119.5q25 -71 25 -172v-446q0 -125 -16 -236q-16 -106 -54 -176q-39 -72 -104 -113q-63 -39 -166 -38q-63 0 -106 12 q-41 12 -78 35q-31 20 -56 47q-23 27 -45 57l131 100q23 -31 29 -38q14 -16 35 -31q23 -14 41 -21q29 -8 53 -8q43 0 76 29q27 25 47 82q18 51 25 131q6 77 6 172v416q0 78 -19 131q-18 55 -49 82q-33 31 -78 43q-43 12 -94 12q-63 0 -125 -23q-59 -20 -102 -65 q-47 -47 -70 -105q-27 -68 -26 -143v-895h-181v1118v72q0 12 -1 36.5t-1 35.5q0 12 -1 30.5t-1 26.5q0 10 -1 20z" />
<glyph unicode="&#x14b;" d="M178 1081h170l1 -9q1 -9 1 -17q0 -6 2 -23.5t2 -27.5q0 -8 1 -28t1 -30v-49h4q31 57 56 84q37 41 76 66q37 23 96 40q49 14 119 15q80 0 147 -23q63 -20 107 -67q45 -47 65 -117q23 -74 23 -174v-854q0 -74 -11 -117q-12 -55 -39 -92q-28 -40 -73 -61q-49 -23 -117 -23 q-45 0 -68 2q-39 4 -59 8v140q4 -2 14.5 -3.5t16.5 -1.5q12 -2 30 -2q35 0 62 11q23 8 39 30q10 16 18 56q6 34 6 80v800q0 78 -16 133q-14 49 -47 82q-29 29 -70 41q-39 12 -88 13q-55 0 -110 -23q-45 -18 -88 -66q-40 -43 -62 -104q-23 -63 -22 -143v-627h-181v852v70 q0 12 -1 36.5t-1 34.5q0 12 -1 30.5t-1 27.5q0 10 -1 20z" />
<glyph unicode="&#x14c;" d="M102 682q0 176 33 301t101 215q65 86 159 129q96 43 219 43q246 0 379 -174t133 -514q0 -170 -34 -305q-31 -121 -103 -219q-66 -90 -160 -133q-100 -45 -217 -45q-125 0 -223 47q-92 45 -160 137q-66 90 -96.5 219t-30.5 299zM303 682q0 -272 80 -409.5t231 -137.5 q166 0 238 139q74 141 74 408q0 268 -80 401q-80 131 -232 131q-158 0 -233 -131q-78 -133 -78 -401zM340 1503v127h551v-127h-551z" />
<glyph unicode="&#x14d;" d="M129 543q0 274 127 418q125 141 358 141q244 0 365 -139q119 -137 119 -420q0 -139 -35 -248t-96 -176q-65 -71 -154 -105q-92 -35 -205 -34q-104 0 -196 34q-90 35 -152 105q-63 74 -96 174q-35 109 -35 250zM319 543q0 -133 23 -209q25 -84 63.5 -131t92.5 -70 q49 -20 108.5 -20t120.5 20q57 18 96 67.5t62 133.5q23 86 22 209q0 127 -20 207q-23 86 -60 131q-43 51 -92 69q-52 18 -117 19q-68 0 -120 -21q-55 -20 -95 -69q-41 -49 -61 -131q-23 -86 -23 -205zM340 1237v127h551v-127h-551z" />
<glyph unicode="&#x14e;" d="M102 682q0 176 33 301t101 215q65 86 159 129q96 43 219 43q246 0 379 -174t133 -514q0 -170 -34 -305q-31 -121 -103 -219q-66 -90 -160 -133q-100 -45 -217 -45q-125 0 -223 47q-92 45 -160 137q-66 90 -96.5 219t-30.5 299zM303 682q0 -272 80 -409.5t231 -137.5 q166 0 238 139q74 141 74 408q0 268 -80 401q-80 131 -232 131q-158 0 -233 -131q-78 -133 -78 -401zM301 1706h127q18 -68 59 -98q45 -35 125 -35q84 0 129 35q41 31 60 98h127q-9 -46 -31 -92q-18 -39 -61 -82q-37 -37 -92.5 -61.5t-131.5 -24.5q-74 0 -129 24.5t-92 61.5 q-39 39 -59 82q-22 46 -31 92z" />
<glyph unicode="&#x14f;" d="M129 543q0 274 127 418q125 141 358 141q244 0 365 -139q119 -137 119 -420q0 -139 -35 -248t-96 -176q-65 -71 -154 -105q-92 -35 -205 -34q-104 0 -196 34q-90 35 -152 105q-63 74 -96 174q-35 109 -35 250zM319 543q0 -133 23 -209q25 -84 63.5 -131t92.5 -70 q49 -20 108.5 -20t120.5 20q57 18 96 67.5t62 133.5q23 86 22 209q0 127 -20 207q-23 86 -60 131q-43 51 -92 69q-52 18 -117 19q-68 0 -120 -21q-55 -20 -95 -69q-41 -49 -61 -131q-23 -86 -23 -205zM301 1460h127q18 -68 59 -98q45 -35 125 -35q84 0 129 35q41 31 60 98 h127q-9 -46 -31 -92q-18 -39 -61 -82q-37 -37 -92.5 -61.5t-131.5 -24.5q-74 0 -129 24.5t-92 61.5q-39 39 -59 82q-22 46 -31 92z" />
<glyph unicode="&#x150;" d="M102 682q0 176 33 301t101 215q65 86 159 129q96 43 219 43q246 0 379 -174t133 -514q0 -170 -34 -305q-31 -121 -103 -219q-66 -90 -160 -133q-100 -45 -217 -45q-125 0 -223 47q-92 45 -160 137q-66 90 -96.5 219t-30.5 299zM303 682q0 -272 80 -409.5t231 -137.5 q166 0 238 139q74 141 74 408q0 268 -80 401q-80 131 -232 131q-158 0 -233 -131q-78 -133 -78 -401zM330 1444v21l207 239h188v-28l-301 -232h-94zM694 1444v21l207 239h186v-28l-299 -232h-94z" />
<glyph unicode="&#x151;" d="M129 543q0 274 127 418q125 141 358 141q244 0 365 -139q119 -137 119 -420q0 -139 -35 -248t-96 -176q-65 -71 -154 -105q-92 -35 -205 -34q-104 0 -196 34q-90 35 -152 105q-63 74 -96 174q-35 109 -35 250zM319 543q0 -133 23 -209q25 -84 63.5 -131t92.5 -70 q49 -20 108.5 -20t120.5 20q57 18 96 67.5t62 133.5q23 86 22 209q0 127 -20 207q-23 86 -60 131q-43 51 -92 69q-52 18 -117 19q-68 0 -120 -21q-55 -20 -95 -69q-41 -49 -61 -131q-23 -86 -23 -205zM348 1200v21l207 239h188v-28l-301 -232h-94zM712 1200v21l207 239h186 v-28l-299 -232h-94z" />
<glyph unicode="&#x152;" d="M20 682q0 178 31 307t92 209q63 82 154 119q96 39 215 39q58 0 111 -6h557v-154h-398v-438h367v-152h-367v-454h439v-152h-613q-29 -4 -47 -4h-49q-258 0 -375 168t-117 518zM201 682q0 -150 20 -246q23 -109 60 -168q41 -66 98 -96q61 -33 133 -33q6 0 23.5 1t27.5 1 q25 0 49 4v1057q-37 6 -49 6h-51q-74 0 -135 -28q-58 -28 -98 -93q-39 -63 -58 -163q-20 -113 -20 -242z" />
<glyph unicode="&#x153;" d="M29 543q0 281 84 418q86 141 247 141q186 0 267 -176q45 94 110 135q63 41 148 41q92 0 153 -43q59 -41 99 -123q35 -74 51 -182q16 -111 16 -228v-22h-491q0 -94 8 -158q9 -71 31 -123q20 -51 53 -79.5t76 -28.5q61 0 102 47q37 43 53 119l140 -45q-14 -57 -31 -91 q-20 -43 -55 -82q-33 -35 -84 -59q-52 -25 -123 -24q-184 0 -265 184q-45 -96 -108 -139q-66 -45 -158 -45q-72 0 -135 34q-57 33 -102 105q-41 70 -64 174q-22 109 -22 250zM197 543q0 -113 14 -209q10 -72 37 -131q20 -47 53 -70q29 -20 65.5 -20t73.5 20q34 18 56 68 q23 51 34 133q12 83 13 209q0 125 -13 207q-12 84 -32 131q-23 51 -53.5 69.5t-71.5 18.5q-39 0 -72 -21q-31 -18 -55 -69q-25 -49 -37 -131q-12 -84 -12 -205zM715 641h323q-8 170 -49 250q-39 78 -115 78q-25 0 -51 -14.5t-51 -51.5q-27 -39 -41 -100q-12 -56 -16 -162z " />
<glyph unicode="&#x154;" d="M162 0v1350h481q115 0 211 -27q92 -25 150 -74q57 -47 88 -116q29 -63 28 -156q0 -63 -18 -125q-18 -59 -62 -113q-45 -55 -106.5 -90t-157.5 -51l402 -598h-222l-364 575h-240v-575h-190zM352 725h281q86 0 139 20q63 25 92 54q34 34 49 80q16 49 17 94q0 223 -305 223 h-273v-471zM473 1446v21l228 239h196v-28l-299 -232h-125z" />
<glyph unicode="&#x155;" d="M242 1081h172q0 -4 6 -23.5t8 -31.5q2 -8 7 -29.5t7 -33.5l13 -68q2 -12 4 -35.5t2 -28.5h6q33 74 57 113q33 51 74 84q51 39 100 55q58 18 142 19q72 0 108 -4q47 -4 96 -13v-167q-33 6 -98 14q-53 6 -112 6q-82 0 -152 -35q-66 -33 -113 -92t-71 -137q-25 -77 -25 -166 v-508h-178v700q0 57 -6 115q-6 68 -15 109q-10 61 -18 94q-2 10 -7 32.5t-7 30.5zM489 1200v21l228 239h196v-28l-299 -232h-125z" />
<glyph unicode="&#x156;" d="M162 0v1350h481q115 0 211 -27q92 -25 150 -74q57 -47 88 -116q29 -63 28 -156q0 -63 -18 -125q-18 -59 -62 -113q-45 -55 -106.5 -90t-157.5 -51l402 -598h-222l-364 575h-240v-575h-190zM352 725h281q86 0 139 20q63 25 92 54q34 34 49 80q16 49 17 94q0 223 -305 223 h-273v-471zM473 -389l80 291h197v-37l-172 -289h-105v35z" />
<glyph unicode="&#x157;" d="M242 1081h172q0 -4 6 -23.5t8 -31.5q2 -8 7 -29.5t7 -33.5l13 -68q2 -12 4 -35.5t2 -28.5h6q33 74 57 113q33 51 74 84q51 39 100 55q58 18 142 19q72 0 108 -4q47 -4 96 -13v-167q-33 6 -98 14q-53 6 -112 6q-82 0 -152 -35q-66 -33 -113 -92t-71 -137q-25 -77 -25 -166 v-508h-178v700q0 57 -6 115q-6 68 -15 109q-10 61 -18 94q-2 10 -7 32.5t-7 30.5zM203 -389l80 291h197v-37l-172 -289h-105v35z" />
<glyph unicode="&#x158;" d="M162 0v1350h481q115 0 211 -27q92 -25 150 -74q57 -47 88 -116q29 -63 28 -156q0 -63 -18 -125q-18 -59 -62 -113q-45 -55 -106.5 -90t-157.5 -51l402 -598h-222l-364 575h-240v-575h-190zM352 725h281q86 0 139 20q63 25 92 54q34 34 49 80q16 49 17 94q0 223 -305 223 h-273v-471zM265 1686v20h104l231 -137h3l219 137h104v-20l-244 -240h-163z" />
<glyph unicode="&#x159;" d="M242 1081h172q0 -4 6 -23.5t8 -31.5q2 -8 7 -29.5t7 -33.5l13 -68q2 -12 4 -35.5t2 -28.5h6q33 74 57 113q33 51 74 84q51 39 100 55q58 18 142 19q72 0 108 -4q47 -4 96 -13v-167q-33 6 -98 14q-53 6 -112 6q-82 0 -152 -35q-66 -33 -113 -92t-71 -137q-25 -77 -25 -166 v-508h-178v700q0 57 -6 115q-6 68 -15 109q-10 61 -18 94q-2 10 -7 32.5t-7 30.5zM303 1440v20h104l231 -137h3l219 137h104v-20l-244 -240h-163z" />
<glyph unicode="&#x15a;" d="M80 338l184 37q14 -59 35 -101q23 -43 68 -77q39 -31 102 -50q61 -18 145 -18q66 0 134 14q55 12 100 41q43 28 67 74q23 43 23 109q0 76 -31 114q-35 45 -86 72q-49 27 -119 45l-135 35l-35 9t-28.5 8t-36.5 12q-61 18 -98 32q-47 18 -88 47q-45 31 -72 64 q-25 31 -47 88q-16 43 -17 117q0 100 35 164q39 72 101 112q63 43 147 64q82 20 186 20q119 0 199 -20q82 -20 137.5 -61.5t89.5 -102.5q35 -63 56 -139l-189 -33q-12 51 -33 90q-23 41 -57 67q-33 25 -86 41q-45 14 -117 15q-76 0 -135 -17q-47 -12 -86 -45 q-31 -25 -47 -67q-14 -37 -14 -84q0 -63 26 -99q29 -39 72 -61q53 -29 105 -41l131 -35l110 -28q51 -14 106.5 -37t96.5 -49.5t78 -69.5q35 -41 53 -96.5t18 -126.5q0 -88 -30 -158q-31 -72 -94 -123q-70 -55 -162 -82q-102 -29 -232 -28q-236 0 -364.5 92t-165.5 266z M522 1446v21l228 239h196v-28l-299 -232h-125z" />
<glyph unicode="&#x15b;" d="M168 248l158 31q12 -53 38.5 -86t63.5 -52q31 -16 86 -22q33 -4 107 -4q66 0 108 8q51 10 84 29q37 23 57 53q20 33 21 80q0 49 -24.5 79.5t-69.5 53.5q-35 16 -105 35q-35 8 -69.5 17l-63.5 17q-115 33 -127 37q-74 25 -113 51q-47 33 -79 84q-29 45 -29 127 q0 150 104 230q109 84 308 84q84 0 147 -15q68 -16 125 -47q51 -29 90 -80q33 -43 49 -118l-162 -21q-6 45 -28 74q-20 27 -57 43t-76 22q-43 6 -88 7q-244 0 -244 -152q0 -47 20 -74q23 -29 62 -47q51 -25 92 -33l119 -30q68 -16 133 -37q72 -23 125 -55q57 -35 94 -90.5 t37 -137.5q0 -76 -31 -137t-86 -104q-57 -45 -137 -66q-86 -23 -186 -22q-80 0 -170 14q-66 10 -132 45q-55 29 -96 82q-37 47 -55 127zM487 1200v21l228 239h196v-28l-299 -232h-125z" />
<glyph unicode="&#x15c;" d="M80 338l184 37q14 -59 35 -101q23 -43 68 -77q39 -31 102 -50q61 -18 145 -18q66 0 134 14q55 12 100 41q43 28 67 74q23 43 23 109q0 76 -31 114q-35 45 -86 72q-49 27 -119 45l-135 35l-35 9t-28.5 8t-36.5 12q-61 18 -98 32q-47 18 -88 47q-45 31 -72 64 q-25 31 -47 88q-16 43 -17 117q0 100 35 164q39 72 101 112q63 43 147 64q82 20 186 20q119 0 199 -20q82 -20 137.5 -61.5t89.5 -102.5q35 -63 56 -139l-189 -33q-12 51 -33 90q-23 41 -57 67q-33 25 -86 41q-45 14 -117 15q-76 0 -135 -17q-47 -12 -86 -45 q-31 -25 -47 -67q-14 -37 -14 -84q0 -63 26 -99q29 -39 72 -61q53 -29 105 -41l131 -35l110 -28q51 -14 106.5 -37t96.5 -49.5t78 -69.5q35 -41 53 -96.5t18 -126.5q0 -88 -30 -158q-31 -72 -94 -123q-70 -55 -162 -82q-102 -29 -232 -28q-236 0 -364.5 92t-165.5 266z M287 1446v21l254 239h163l244 -239v-21h-104l-219 139h-3l-231 -139h-104z" />
<glyph unicode="&#x15d;" d="M168 248l158 31q12 -53 38.5 -86t63.5 -52q31 -16 86 -22q33 -4 107 -4q66 0 108 8q51 10 84 29q37 23 57 53q20 33 21 80q0 49 -24.5 79.5t-69.5 53.5q-35 16 -105 35q-35 8 -69.5 17l-63.5 17q-115 33 -127 37q-74 25 -113 51q-47 33 -79 84q-29 45 -29 127 q0 150 104 230q109 84 308 84q84 0 147 -15q68 -16 125 -47q51 -29 90 -80q33 -43 49 -118l-162 -21q-6 45 -28 74q-20 27 -57 43t-76 22q-43 6 -88 7q-244 0 -244 -152q0 -47 20 -74q23 -29 62 -47q51 -25 92 -33l119 -30q68 -16 133 -37q72 -23 125 -55q57 -35 94 -90.5 t37 -137.5q0 -76 -31 -137t-86 -104q-57 -45 -137 -66q-86 -23 -186 -22q-80 0 -170 14q-66 10 -132 45q-55 29 -96 82q-37 47 -55 127zM297 1200v21l254 239h163l244 -239v-21h-104l-219 139h-3l-231 -139h-104z" />
<glyph unicode="&#x15e;" d="M80 338l184 37q14 -59 35 -101q23 -43 68 -77q39 -31 102 -50q61 -18 145 -18q66 0 134 14q55 12 100 41q43 28 67 74q23 43 23 109q0 76 -31 114q-35 45 -86 72q-49 27 -119 45l-135 35l-35 9t-28.5 8t-36.5 12q-61 18 -98 32q-47 18 -88 47q-45 31 -72 64 q-25 31 -47 88q-16 43 -17 117q0 100 35 164q39 72 101 112q63 43 147 64q82 20 186 20q119 0 199 -20q82 -20 137.5 -61.5t89.5 -102.5q35 -63 56 -139l-189 -33q-12 51 -33 90q-23 41 -57 67q-33 25 -86 41q-45 14 -117 15q-76 0 -135 -17q-47 -12 -86 -45 q-31 -25 -47 -67q-14 -37 -14 -84q0 -63 26 -99q29 -39 72 -61q53 -29 105 -41l131 -35l110 -28q51 -14 106.5 -37t96.5 -49.5t78 -69.5q35 -41 53 -96.5t18 -126.5q0 -88 -30 -158q-31 -72 -94 -123q-70 -55 -162 -82q-102 -29 -232 -28q-236 0 -364.5 92t-165.5 266z M451 -342q49 -6 86 -6q41 0 69 6q27 6 45.5 18.5t24.5 26.5q8 20 8 35q0 40 -30 61q-29 20 -103 21h-29q-18 0 -28 -2l65 182h107l-39 -100q96 -4 141 -45q47 -43 47 -113q0 -45 -14 -76q-16 -35 -49 -59q-35 -25 -84 -37q-61 -14 -127 -14h-43q-14 0 -47 4v98z" />
<glyph unicode="&#x15f;" d="M168 248l158 31q12 -53 38.5 -86t63.5 -52q31 -16 86 -22q33 -4 107 -4q66 0 108 8q51 10 84 29q37 23 57 53q20 33 21 80q0 49 -24.5 79.5t-69.5 53.5q-35 16 -105 35q-35 8 -69.5 17l-63.5 17q-115 33 -127 37q-74 25 -113 51q-47 33 -79 84q-29 45 -29 127 q0 150 104 230q109 84 308 84q84 0 147 -15q68 -16 125 -47q51 -29 90 -80q33 -43 49 -118l-162 -21q-6 45 -28 74q-20 27 -57 43t-76 22q-43 6 -88 7q-244 0 -244 -152q0 -47 20 -74q23 -29 62 -47q51 -25 92 -33l119 -30q68 -16 133 -37q72 -23 125 -55q57 -35 94 -90.5 t37 -137.5q0 -76 -31 -137t-86 -104q-57 -45 -137 -66q-86 -23 -186 -22q-80 0 -170 14q-66 10 -132 45q-55 29 -96 82q-37 47 -55 127zM461 -342q49 -6 86 -6q41 0 69 6q27 6 45.5 18.5t24.5 26.5q8 20 8 35q0 40 -30 61q-29 20 -103 21h-29q-18 0 -28 -2l65 182h107 l-39 -100q96 -4 141 -45q47 -43 47 -113q0 -45 -14 -76q-16 -35 -49 -59q-35 -25 -84 -37q-61 -14 -127 -14h-43q-14 0 -47 4v98z" />
<glyph unicode="&#x160;" d="M80 338l184 37q14 -59 35 -101q23 -43 68 -77q39 -31 102 -50q61 -18 145 -18q66 0 134 14q55 12 100 41q43 28 67 74q23 43 23 109q0 76 -31 114q-35 45 -86 72q-49 27 -119 45l-135 35l-35 9t-28.5 8t-36.5 12q-61 18 -98 32q-47 18 -88 47q-45 31 -72 64 q-25 31 -47 88q-16 43 -17 117q0 100 35 164q39 72 101 112q63 43 147 64q82 20 186 20q119 0 199 -20q82 -20 137.5 -61.5t89.5 -102.5q35 -63 56 -139l-189 -33q-12 51 -33 90q-23 41 -57 67q-33 25 -86 41q-45 14 -117 15q-76 0 -135 -17q-47 -12 -86 -45 q-31 -25 -47 -67q-14 -37 -14 -84q0 -63 26 -99q29 -39 72 -61q53 -29 105 -41l131 -35l110 -28q51 -14 106.5 -37t96.5 -49.5t78 -69.5q35 -41 53 -96.5t18 -126.5q0 -88 -30 -158q-31 -72 -94 -123q-70 -55 -162 -82q-102 -29 -232 -28q-236 0 -364.5 92t-165.5 266z M283 1684v20h104l231 -137h3l219 137h104v-20l-244 -240h-163z" />
<glyph unicode="&#x161;" d="M168 248l158 31q12 -53 38.5 -86t63.5 -52q31 -16 86 -22q33 -4 107 -4q66 0 108 8q51 10 84 29q37 23 57 53q20 33 21 80q0 49 -24.5 79.5t-69.5 53.5q-35 16 -105 35q-35 8 -69.5 17l-63.5 17q-115 33 -127 37q-74 25 -113 51q-47 33 -79 84q-29 45 -29 127 q0 150 104 230q109 84 308 84q84 0 147 -15q68 -16 125 -47q51 -29 90 -80q33 -43 49 -118l-162 -21q-6 45 -28 74q-20 27 -57 43t-76 22q-43 6 -88 7q-244 0 -244 -152q0 -47 20 -74q23 -29 62 -47q51 -25 92 -33l119 -30q68 -16 133 -37q72 -23 125 -55q57 -35 94 -90.5 t37 -137.5q0 -76 -31 -137t-86 -104q-57 -45 -137 -66q-86 -23 -186 -22q-80 0 -170 14q-66 10 -132 45q-55 29 -96 82q-37 47 -55 127zM287 1440v20h104l231 -137h3l219 137h104v-20l-244 -240h-163z" />
<glyph unicode="&#x162;" d="M76 1194v156h1075v-156h-442v-1194h-191v1194h-442zM446 -389l80 291h197v-37l-172 -289h-105v35z" />
<glyph unicode="&#x163;" d="M190 940v141h170l58 283h121v-283h432v-141h-432v-651q0 -84 41 -119q43 -37 141 -37q25 0 82 4q53 4 82 8q10 2 35.5 5.5t37.5 5.5q37 6 60 12v-137q-6 -2 -25.5 -6.5t-31.5 -8.5q-39 -10 -80 -16q-16 -2 -48 -5t-47 -5q-53 -6 -104 -6q-162 0 -244 69q-80 68 -80 215 v672h-168zM479 -389l80 291h197v-37l-172 -289h-105v35z" />
<glyph unicode="&#x164;" d="M76 1194v156h1075v-156h-442v-1194h-191v1194h-442zM283 1686v20h104l231 -137h3l219 137h104v-20l-244 -240h-163z" />
<glyph unicode="&#x165;" d="M102 940v141h170l58 283h121v-283h432v-141h-432v-651q0 -84 41 -119q43 -37 141 -37q25 0 82 4q53 4 82 8q10 2 35.5 5.5t37.5 5.5q37 6 60 12v-137q-6 -2 -25.5 -6.5t-31.5 -8.5q-39 -10 -80 -16q-16 -2 -48 -5t-47 -5q-53 -6 -104 -6q-162 0 -244 69q-80 68 -80 215 v672h-168zM944 1159v33l80 293h197v-37l-172 -289h-105z" />
<glyph unicode="&#x166;" d="M76 1194v156h1075v-156h-442v-426h239v-147h-239v-621h-191v621h-239v147h239v426h-442z" />
<glyph unicode="&#x167;" d="M201 514v133h168v293h-168v141h170l57 283h121v-283h432v-141h-432v-293h432v-133h-432v-225q0 -84 41 -119q43 -37 139 -37q27 0 84 4q53 4 82 8q10 2 35.5 5.5t38.5 5.5q31 6 57 12v-137q-6 -2 -24.5 -6.5t-30.5 -8.5q-39 -10 -80 -16q-16 -2 -48 -5t-46 -5 q-51 -6 -105 -6q-162 0 -243 69q-80 68 -80 215v246h-168z" />
<glyph unicode="&#x168;" d="M141 471v879h193v-852q0 -98 12 -166q12 -70 43 -113t82 -63q49 -20 133 -21q86 0 139 21q55 20 88 63q33 41 50 117q14 66 14 176v838h190v-861q0 -131 -28 -233q-25 -90 -90 -158q-59 -61 -150 -90q-92 -29 -213 -28.5t-203 26.5q-84 27 -143 86q-61 61 -88 152 q-29 96 -29 227zM256 1446q8 61 14 90q8 37 33 80q20 35 59 57.5t97 22.5q39 0 86 -20q29 -12 82 -41q4 -2 32.5 -17.5l42.5 -23.5q37 -18 70 -19q25 0 39 8q15 9 25 25q10 18 16 37q4 14 8 51h113q-4 -35 -17 -88q-9 -43 -30 -80q-23 -37 -60 -59q-39 -23 -96 -23 q-41 0 -84 19q-29 12 -82 41q-66 35 -78 40q-45 20 -73 21q-25 0 -39 -8q-12 -8 -23 -25q-8 -12 -14 -37q-2 -8 -5 -25.5t-5 -25.5h-111z" />
<glyph unicode="&#x169;" d="M184 360v721h181v-686q0 -80 12 -131q14 -57 37 -86q27 -33 69 -45q49 -14 107 -14q59 0 115 22q49 20 88 66q37 43 55 104q20 68 20 144v626h181v-850v-71q0 -12 1 -37t1 -35q0 -12 1 -30.5t1 -26.5q0 -10 1 -21l1 -10h-170l-1 9q-1 9 -1 18q0 6 -1 23.5t-1 27.5 q0 8 -1 27.5t-1 29.5t-1 26.5t-1 22.5h-3q-23 -43 -57 -84q-31 -37 -72 -65q-33 -23 -94 -41q-49 -14 -123 -14q-88 0 -155 22q-63 20 -106.5 67.5t-61.5 118.5q-21 82 -21 172zM256 1200q8 61 14 90q8 37 33 80q20 35 59 57.5t97 22.5q39 0 86 -20q29 -12 82 -41 q4 -2 32.5 -17.5l42.5 -23.5q37 -18 70 -19q25 0 39 8q15 9 25 25q10 18 16 37q4 14 8 51h113q-4 -35 -17 -88q-9 -43 -30 -80q-23 -37 -60 -59q-39 -23 -96 -23q-41 0 -84 19q-29 12 -82 41q-66 35 -78 40q-45 20 -73 21q-25 0 -39 -8q-12 -8 -23 -25q-8 -12 -14 -37 q-2 -8 -5 -25.5t-5 -25.5h-111z" />
<glyph unicode="&#x16a;" d="M141 471v879h193v-852q0 -98 12 -166q12 -70 43 -113t82 -63q49 -20 133 -21q86 0 139 21q55 20 88 63q33 41 50 117q14 66 14 176v838h190v-861q0 -131 -28 -233q-25 -90 -90 -158q-59 -61 -150 -90q-92 -29 -213 -28.5t-203 26.5q-84 27 -143 86q-61 61 -88 152 q-29 96 -29 227zM340 1503v127h551v-127h-551z" />
<glyph unicode="&#x16b;" d="M184 360v721h181v-686q0 -80 12 -131q14 -57 37 -86q27 -33 69 -45q49 -14 107 -14q59 0 115 22q49 20 88 66q37 43 55 104q20 68 20 144v626h181v-850v-71q0 -12 1 -37t1 -35q0 -12 1 -30.5t1 -26.5q0 -10 1 -21l1 -10h-170l-1 9q-1 9 -1 18q0 6 -1 23.5t-1 27.5 q0 8 -1 27.5t-1 29.5t-1 26.5t-1 22.5h-3q-23 -43 -57 -84q-31 -37 -72 -65q-33 -23 -94 -41q-49 -14 -123 -14q-88 0 -155 22q-63 20 -106.5 67.5t-61.5 118.5q-21 82 -21 172zM340 1237v127h551v-127h-551z" />
<glyph unicode="&#x16c;" d="M141 471v879h193v-852q0 -98 12 -166q12 -70 43 -113t82 -63q49 -20 133 -21q86 0 139 21q55 20 88 63q33 41 50 117q14 66 14 176v838h190v-861q0 -131 -28 -233q-25 -90 -90 -158q-59 -61 -150 -90q-92 -29 -213 -28.5t-203 26.5q-84 27 -143 86q-61 61 -88 152 q-29 96 -29 227zM301 1706h127q18 -68 59 -98q45 -35 125 -35q84 0 129 35q41 31 60 98h127q-9 -46 -31 -92q-18 -39 -61 -82q-37 -37 -92.5 -61.5t-131.5 -24.5q-74 0 -129 24.5t-92 61.5q-39 39 -59 82q-22 46 -31 92z" />
<glyph unicode="&#x16d;" d="M184 360v721h181v-686q0 -80 12 -131q14 -57 37 -86q27 -33 69 -45q49 -14 107 -14q59 0 115 22q49 20 88 66q37 43 55 104q20 68 20 144v626h181v-850v-71q0 -12 1 -37t1 -35q0 -12 1 -30.5t1 -26.5q0 -10 1 -21l1 -10h-170l-1 9q-1 9 -1 18q0 6 -1 23.5t-1 27.5 q0 8 -1 27.5t-1 29.5t-1 26.5t-1 22.5h-3q-23 -43 -57 -84q-31 -37 -72 -65q-33 -23 -94 -41q-49 -14 -123 -14q-88 0 -155 22q-63 20 -106.5 67.5t-61.5 118.5q-21 82 -21 172zM301 1460h127q18 -68 59 -98q45 -35 125 -35q84 0 129 35q41 31 60 98h127q-9 -46 -31 -92 q-18 -39 -61 -82q-37 -37 -92.5 -61.5t-131.5 -24.5q-74 0 -129 24.5t-92 61.5q-39 39 -59 82q-22 46 -31 92z" />
<glyph unicode="&#x16e;" d="M141 471v879h193v-852q0 -98 12 -166q12 -70 43 -113t82 -63q49 -20 133 -21q86 0 139 21q55 20 88 63q33 41 50 117q14 66 14 176v838h190v-861q0 -131 -28 -233q-25 -90 -90 -158q-59 -61 -150 -90q-92 -29 -213 -28.5t-203 26.5q-84 27 -143 86q-61 61 -88 152 q-29 96 -29 227zM373 1506q0 41 14 75q14 37 45 64q31 29 76 43q49 16 106.5 16t106.5 -16q45 -14 76 -43q31 -27 45 -64q14 -35 14 -75q0 -39 -14 -74q-16 -41 -45 -66q-31 -29 -76 -43q-49 -16 -106.5 -16t-106.5 16q-45 14 -76 43q-29 25 -45 66q-14 35 -14 74zM492 1506 q0 -12 6 -28.5t22 -29.5q15 -12 37 -18q29 -8 57 -8q27 0 56 8q22 6 37 18q16 12 22 28.5t6 29.5q0 15 -6 30q-4 12 -22 27q-15 12 -37 18q-29 8 -56 9q-29 0 -57 -9q-22 -6 -37 -18q-18 -14 -22 -27q-6 -15 -6 -30z" />
<glyph unicode="&#x16f;" d="M184 360v721h181v-686q0 -80 12 -131q14 -57 37 -86q27 -33 69 -45q49 -14 107 -14q59 0 115 22q49 20 88 66q37 43 55 104q20 68 20 144v626h181v-850v-71q0 -12 1 -37t1 -35q0 -12 1 -30.5t1 -26.5q0 -10 1 -21l1 -10h-170l-1 9q-1 9 -1 18q0 6 -1 23.5t-1 27.5 q0 8 -1 27.5t-1 29.5t-1 26.5t-1 22.5h-3q-23 -43 -57 -84q-31 -37 -72 -65q-33 -23 -94 -41q-49 -14 -123 -14q-88 0 -155 22q-63 20 -106.5 67.5t-61.5 118.5q-21 82 -21 172zM373 1348q0 41 14 75q14 37 45 64q31 29 76 43q49 16 106.5 16t106.5 -16q45 -14 76 -43 q31 -27 45 -64q14 -35 14 -75q0 -39 -14 -74q-16 -41 -45 -66q-31 -29 -76 -43q-49 -16 -106.5 -16t-106.5 16q-45 14 -76 43q-29 25 -45 66q-14 35 -14 74zM492 1348q0 -12 6 -28.5t22 -29.5q15 -12 37 -18q29 -8 57 -8q27 0 56 8q22 6 37 18q16 12 22 28.5t6 29.5 q0 15 -6 30q-4 12 -22 27q-15 12 -37 18q-29 8 -56 9q-29 0 -57 -9q-22 -6 -37 -18q-18 -14 -22 -27q-6 -15 -6 -30z" />
<glyph unicode="&#x170;" d="M141 471v879h193v-852q0 -98 12 -166q12 -70 43 -113t82 -63q49 -20 133 -21q86 0 139 21q55 20 88 63q33 41 50 117q14 66 14 176v838h190v-861q0 -131 -28 -233q-25 -90 -90 -158q-59 -61 -150 -90q-92 -29 -213 -28.5t-203 26.5q-84 27 -143 86q-61 61 -88 152 q-29 96 -29 227zM340 1446v21l207 239h188v-28l-301 -232h-94zM704 1446v21l207 239h186v-28l-299 -232h-94z" />
<glyph unicode="&#x171;" d="M184 360v721h181v-686q0 -80 12 -131q14 -57 37 -86q27 -33 69 -45q49 -14 107 -14q59 0 115 22q49 20 88 66q37 43 55 104q20 68 20 144v626h181v-850v-71q0 -12 1 -37t1 -35q0 -12 1 -30.5t1 -26.5q0 -10 1 -21l1 -10h-170l-1 9q-1 9 -1 18q0 6 -1 23.5t-1 27.5 q0 8 -1 27.5t-1 29.5t-1 26.5t-1 22.5h-3q-23 -43 -57 -84q-31 -37 -72 -65q-33 -23 -94 -41q-49 -14 -123 -14q-88 0 -155 22q-63 20 -106.5 67.5t-61.5 118.5q-21 82 -21 172zM346 1200v21l207 239h188v-28l-301 -232h-94zM710 1200v21l207 239h186v-28l-299 -232h-94z " />
<glyph unicode="&#x172;" d="M141 471v879h193v-852q0 -98 12 -166q12 -70 43 -113t82 -63q49 -20 133 -21q86 0 139 21q55 20 88 63q33 41 50 117q14 66 14 176v838h190v-861q0 -131 -28 -233q-25 -90 -90 -158q-59 -61 -150 -90q-92 -29 -213 -28.5t-203 26.5q-84 27 -143 86q-61 61 -88 152 q-29 96 -29 227zM499 -240q0 46 19 86q20 43 41 70q25 31 51 51l45 33h133q-33 -20 -51 -37q-29 -25 -47 -51q-23 -33 -35 -66q-14 -39 -14 -73q0 -41 24.5 -65.5t69.5 -24.5q29 0 57 6q33 6 58 18v-106q-35 -16 -64 -21q-37 -6 -76 -6q-109 0 -157 49q-54 53 -54 137z" />
<glyph unicode="&#x173;" d="M184 360v721h181v-686q0 -80 12 -131q14 -57 37 -86q27 -33 69 -45q49 -14 107 -14q59 0 115 22q49 20 88 66q37 43 55 104q20 68 20 144v626h181v-850v-71q0 -12 1 -37t1 -35q0 -12 1 -30.5t1 -26.5q0 -10 1 -21l1 -10h-170l-1 9q-1 9 -1 18q0 6 -1 23.5t-1 27.5 q0 8 -1 27.5t-1 29.5t-1 26.5t-1 22.5h-3q-23 -43 -57 -84q-31 -37 -72 -65q-33 -23 -94 -41q-49 -14 -123 -14q-88 0 -155 22q-63 20 -106.5 67.5t-61.5 118.5q-21 82 -21 172zM729 -240q0 46 19 86q20 43 41 70q25 31 51 51l45 33h133q-33 -20 -51 -37q-29 -25 -47 -51 q-23 -33 -35 -66q-14 -39 -14 -73q0 -41 24.5 -65.5t69.5 -24.5q29 0 57 6q33 6 58 18v-106q-35 -16 -64 -21q-37 -6 -76 -6q-109 0 -157 49q-54 53 -54 137z" />
<glyph unicode="&#x174;" d="M0 1350h188l111 -836q4 -25 8 -73t4 -54q2 -14 5 -53t6 -58q8 -84 10 -108q8 33 15 66.5l15 68.5q2 12 6.5 27.5t8.5 31.5q6 31 14 62l15 57q4 14 8 29.5t6 21.5l108 400h174l109 -400q2 -6 6 -20t8 -31q6 -29 15 -57q2 -10 7 -29.5t7 -29.5l8 -32t6 -28l15.5 -69.5 t15.5 -67.5q2 12 4 35l8 84q2 27 6.5 56.5t6.5 55.5q4 41 12 115l102 836h191l-211 -1350h-207l-104 387q-2 8 -5.5 19.5l-7.5 25.5q-6 27 -14 55l-16 62q-8 31 -15 61l-33 146l-34 -148q-6 -31 -15 -61l-16 -60q-4 -14 -14 -55q-2 -12 -6.5 -23.5t-6.5 -21.5l-104 -387 h-209zM279 1446v21l254 239h163l244 -239v-21h-104l-219 139h-3l-231 -139h-104z" />
<glyph unicode="&#x175;" d="M20 1081h179l94 -606q2 -25 8 -67q2 -16 5 -46t5 -45l11 -94q4 -61 4 -73l20 86q4 14 6 24t6 21.5t8.5 26l10.5 33.5t6 21l135 424h193l131 -424q4 -14 14 -55q8 -27 18 -71q14 -49 23 -86q0 43 2 73q2 35 10 94l13 91l5 36.5t5 30.5l100 606h176l-190 -1081h-205 l-141 471l-19 61q-14 47 -18 66q-6 18 -21 76q-12 -49 -20 -74q-14 -53 -18.5 -67.5l-11.5 -38t-9 -27.5l-147 -467h-203zM279 1200v21l254 239h163l244 -239v-21h-104l-219 139h-3l-231 -139h-104z" />
<glyph unicode="&#x176;" d="M37 1350h205l372 -613l373 613h205l-483 -766v-584h-189v584zM279 1446v21l254 239h163l244 -239v-21h-104l-219 139h-3l-231 -139h-104z" />
<glyph unicode="&#x177;" d="M66 1081h192l264 -641q18 -51 27 -67l31 -78l26 -70l15 -39q4 14 14 41l27 68q25 63 30 78l14.5 36.5l12.5 30.5l252 641h190l-456 -1081q-37 -98 -76 -176t-90 -135q-47 -53 -108.5 -84t-137.5 -31q-45 0 -64 2q-23 2 -61 10v135q25 -4 43 -4q8 0 21.5 -1t19.5 -1 q78 0 149 60q68 55 117 186l19 49zM279 1200v21l254 239h163l244 -239v-21h-104l-219 139h-3l-231 -139h-104z" />
<glyph unicode="&#x178;" d="M37 1350h205l372 -613l373 613h205l-483 -766v-584h-189v584zM336 1444v184h164v-184h-164zM729 1444v184h164v-184h-164z" />
<glyph unicode="&#x179;" d="M74 0v143l817 1051h-746v156h963v-140l-817 -1054h864v-156h-1081zM503 1446v21l228 239h196v-28l-299 -232h-125z" />
<glyph unicode="&#x17a;" d="M147 0v137l680 805h-641v139h844v-137l-682 -805h719v-139h-920zM487 1200v21l228 239h196v-28l-299 -232h-125z" />
<glyph unicode="&#x17b;" d="M74 0v143l817 1051h-746v156h963v-140l-817 -1054h864v-156h-1081zM526 1446v193h201v-193h-201z" />
<glyph unicode="&#x17c;" d="M147 0v137l680 805h-641v139h844v-137l-682 -805h719v-139h-920zM512 1292v193h201v-193h-201z" />
<glyph unicode="&#x17d;" d="M74 0v143l817 1051h-746v156h963v-140l-817 -1054h864v-156h-1081zM293 1684v20h104l231 -137h3l219 137h104v-20l-244 -240h-163z" />
<glyph unicode="&#x17e;" d="M147 0v137l680 805h-641v139h844v-137l-682 -805h719v-139h-920zM283 1440v20h104l231 -137h3l219 137h104v-20l-244 -240h-163z" />
<glyph unicode="&#x17f;" d="M399 0v1108q0 98 23 172q20 68 74 117q47 43 129 65q84 23 192 23q8 0 31.5 -1t38.5 -1q27 0 80 -4l38.5 -5.5t36.5 -3.5l58 -8v-143q-6 2 -26.5 3t-29.5 1l-75 6q-53 4 -74 4q-14 0 -32.5 1t-22.5 1q-59 0 -115 -10q-51 -10 -82 -37q-33 -29 -47 -74q-16 -49 -16 -122 v-1092h-181z" />
<glyph unicode="&#x192;" d="M233 805l27 131h252l29 151q18 74 37 111q25 53 65 88q49 43 107 62q61 20 159 20q45 0 88 -6q39 -6 72 -16l-41 -136q-23 6 -57 13q-37 6 -72 6q-49 0 -76 -8q-31 -10 -51 -27q-20 -18 -33 -47q-10 -25 -20 -74l-27 -137h301l-24 -131h-303l-242 -1231h-180l241 1231 h-252z" />
<glyph unicode="&#x1fa;" d="M0 0l465 1047q-49 29 -70 71q-23 45 -22 92q0 41 14 76q14 37 45 64q31 29 76 43q49 16 106.5 16t106.5 -16q45 -14 76 -43q31 -27 45 -64q14 -35 14 -76q0 -43 -22 -88q-23 -43 -66 -71l461 -1051h-195l-137 324h-563l-137 -324h-197zM395 475h441l-136 336l-20 53 l-21 56q-4 12 -10 25t-10 25.5t-8 23t-6 18.5h-19q-4 -8 -6 -18.5t-6 -22.5q-8 -25 -19 -51l-20 -56q-12 -37 -20 -53zM492 1210q0 -14 6 -28q6 -16 22 -29q15 -12 37 -18q29 -8 57 -9q27 0 56 9q22 6 37 18q16 12 22 29q6 14 6 28q0 15 -6 31q-4 12 -22 27q-15 12 -37 18 q-29 8 -56 8q-29 0 -57 -8q-22 -6 -37 -18q-18 -14 -22 -27q-6 -16 -6 -31zM524 1446v18l228 242h196v-31l-299 -229h-125z" />
<glyph unicode="&#x1fb;" d="M127 301q0 106 41 176q43 72 102 109q61 37 146 53q88 16 166 16l235 4v60q0 68 -12 115t-41 75q-33 33 -70 43q-43 12 -98 13q-51 0 -90 -7q-35 -6 -70 -28q-29 -18 -47 -53t-24 -84l-189 18q10 53 26.5 96t53.5 82q33 37 84 62q55 27 119 39q-49 27 -74 71 q-23 39 -23 94q0 41 15 76q14 37 45 64q31 29 76 43q49 16 106.5 16t106.5 -16q45 -14 75 -43q31 -27 45 -64q14 -35 15 -76q0 -51 -25 -96q-23 -43 -80 -74q133 -31 195 -116q63 -88 63 -232v-465q0 -80 22.5 -120.5t80.5 -40.5q18 0 28 2q4 2 14.5 4t14.5 2v-113 q-34 -9 -67 -12q-45 -4 -70 -4q-45 0 -88 14q-37 12 -60 41q-23 31 -34 68q-14 45 -17 94h-6q-27 -49 -61 -94q-29 -37 -78 -72q-41 -29 -100 -45q-61 -16 -132 -16q-158 0 -237 86q-82 88 -82 235zM317 299q0 -80 45.5 -131t129.5 -51q80 0 145 33q63 31 100 77 q41 49 62 107q18 49 18 110v91l-188 -5q-37 0 -111 -8q-53 -6 -100 -33q-49 -29 -74 -69q-27 -45 -27 -121zM481 1255q0 -8 8 -28q8 -18 21 -29q14 -12 39 -18q29 -8 55.5 -8.5t54.5 8.5q25 6 39 18q12 10 21 29q6 14 6 28q0 15 -6 31q-6 14 -20.5 26.5t-39.5 18.5 q-29 8 -55 8t-55 -8q-25 -6 -39 -18.5t-21 -26.5q-8 -21 -8 -31zM508 1495v21l227 190h197v-31l-299 -180h-125z" />
<glyph unicode="&#x1fc;" d="M0 0l487 1350h666v-154h-336v-428h328v-152h-328v-464h377v-152h-549v412h-334l-141 -412h-170zM362 561h283v641h-72q-2 -6 -7 -22.5t-7 -26.5q-10 -33 -20 -70l-21 -69q-6 -18 -16 -51zM647 1446v21l228 239h196v-28l-299 -232h-125z" />
<glyph unicode="&#x1fd;" d="M20 301q0 106 29 176t74 109q41 37 106 53q61 16 121 16l166 4v60q0 68 -6 115q-6 41 -25 75q-16 31 -43 43q-25 12 -61 13q-33 0 -57 -7q-23 -6 -45 -28q-18 -18 -31 -53q-10 -31 -15 -84l-167 18q12 80 26 117q23 53 57.5 92t94.5 61q53 20 137 21q88 0 151 -35 q57 -33 95 -104q45 72 108 106q59 33 137 33q98 0 162 -43q59 -39 103 -123q39 -76 55 -182q16 -111 16 -228v-22h-528v-19q0 -74 10 -149q8 -61 33 -117q20 -45 57 -76q35 -29 84 -28q76 0 119 47q47 49 61 119l138 -45q-12 -47 -33 -90.5t-59 -82.5q-35 -35 -90.5 -59 t-131.5 -24q-57 0 -102 12q-49 12 -84 39q-27 20 -61 73q-25 39 -46 109q-27 -59 -47 -92q-29 -45 -63 -74q-37 -31 -82 -49q-46 -18 -104 -18q-66 0 -117 22.5t-80 63.5q-33 45 -47 102q-15 55 -15 133zM188 299q0 -80 29 -131t86 -51q53 0 96 33q47 35 68 77q25 49 37 107 t12 110v91l-121 -5q-25 0 -73 -8q-35 -6 -66 -33q-33 -29 -49 -69q-19 -47 -19 -121zM682 641h360q-8 168 -53 250q-41 78 -131 78q-29 0 -57 -15q-35 -16 -58 -51q-25 -37 -43 -100q-14 -53 -18 -162zM491 1200v21l228 239h196v-28l-299 -232h-125z" />
<glyph unicode="&#x1fe;" d="M55 27l142 188q-47 84 -72 205q-23 106 -23 262q0 176 33 301t101 215q65 86 159 129q96 43 219 43q219 0 347 -133l114 156l94 -66l-139 -186q45 -80 72 -201q25 -113 24 -258q0 -170 -34 -305q-31 -121 -103 -219q-66 -90 -160 -133q-100 -45 -217 -45q-109 0 -196 34 q-80 31 -150 105l-116 -158zM303 682q0 -166 31 -283l512 684q-40 65 -98 99q-57 33 -134 32q-158 0 -233 -131q-78 -133 -78 -401zM383 272q80 -137 231 -137q166 0 238 139q74 141 74 408q0 163 -31 276zM501 1446v21l228 239h196v-28l-299 -232h-125z" />
<glyph unicode="&#x1ff;" d="M111 543q0 143 32 243q33 102 99 175q68 76 157 106q98 35 215 35q215 0 336 -101l72 82l78 -67l-80 -90q96 -135 96 -383q0 -139 -35 -248q-33 -102 -100 -176q-65 -71 -160 -105q-98 -35 -213 -34q-102 0 -182 26q-88 29 -147 80l-78 -86l-76 68l84 96q-49 68 -74 162 q-24 96 -24 217zM299 543q0 -84 8 -135q10 -63 27 -105l508 578q-45 51 -99 69q-55 18 -125 19q-72 0 -126 -21q-61 -23 -102.5 -70t-66 -130.5t-24.5 -204.5zM385 209q45 -55 100.5 -75.5t120.5 -20.5q63 0 129 20q59 18 103 68q39 45 65 133q25 83 25 209q0 80 -8 135 q-8 59 -25 106zM501 1200v21l228 239h196v-28l-299 -232h-125z" />
<glyph unicode="&#x2c6;" d="M283 1200v21l254 239h163l244 -239v-21h-104l-219 139h-3l-231 -139h-104z" />
<glyph unicode="&#x2c7;" d="M283 1440v20h104l231 -137h3l219 137h104v-20l-244 -240h-163z" />
<glyph unicode="&#x2c9;" d="M338 1237v127h551v-127h-551z" />
<glyph unicode="&#x2d8;" d="M301 1460h127q18 -68 59 -98q45 -35 125 -35q84 0 129 35q41 31 60 98h127q-9 -46 -31 -92q-18 -39 -61 -82q-37 -37 -92.5 -61.5t-131.5 -24.5q-74 0 -129 24.5t-92 61.5q-39 39 -59 82q-22 46 -31 92z" />
<glyph unicode="&#x2d9;" d="M514 1292v193h201v-193h-201z" />
<glyph unicode="&#x2da;" d="M373 1348q0 41 14 75q14 37 45 64q31 29 76 43q49 16 106.5 16t106.5 -16q45 -14 76 -43q31 -27 45 -64q14 -35 14 -75q0 -39 -14 -74q-16 -41 -45 -66q-31 -29 -76 -43q-49 -16 -106.5 -16t-106.5 16q-45 14 -76 43q-29 25 -45 66q-14 35 -14 74zM492 1348 q0 -12 6 -28.5t22 -29.5q15 -12 37 -18q29 -8 57 -8q27 0 56 8q22 6 37 18q16 12 22 28.5t6 29.5q0 15 -6 30q-4 12 -22 27q-15 12 -37 18q-29 8 -56 9q-29 0 -57 -9q-22 -6 -37 -18q-18 -14 -22 -27q-6 -15 -6 -30z" />
<glyph unicode="&#x2db;" d="M440 -240q0 46 19 86q20 43 41 70q25 31 51 51l45 33h133q-33 -20 -51 -37q-29 -25 -47 -51q-23 -33 -35 -66q-14 -39 -14 -73q0 -41 24.5 -65.5t69.5 -24.5q29 0 57 6q33 6 58 18v-106q-35 -16 -64 -21q-37 -6 -76 -6q-109 0 -157 49q-54 53 -54 137z" />
<glyph unicode="&#x2dc;" d="M256 1200q8 61 14 90q8 37 33 80q20 35 59 57.5t97 22.5q39 0 86 -20q29 -12 82 -41q4 -2 32.5 -17.5l42.5 -23.5q37 -18 70 -19q25 0 39 8q15 9 25 25q10 18 16 37q4 14 8 51h113q-4 -35 -17 -88q-9 -43 -30 -80q-23 -37 -60 -59q-39 -23 -96 -23q-41 0 -84 19 q-29 12 -82 41q-66 35 -78 40q-45 20 -73 21q-25 0 -39 -8q-12 -8 -23 -25q-8 -12 -14 -37q-2 -8 -5 -25.5t-5 -25.5h-111z" />
<glyph unicode="&#x2dd;" d="M29 1200v21l207 239h188v-28l-301 -232h-94zM393 1200v21l207 239h186v-28l-299 -232h-94z" />
<glyph unicode="&#x384;" d="M475 1200v35l80 291h197v-37l-172 -289h-105z" />
<glyph unicode="&#x385;" d="M311 1219v184h146v-184h-146zM520 1200v35l55 367h197v-37l-145 -365h-107zM774 1219v184h144v-184h-144z" />
<glyph unicode="&#x386;" d="M0 0l510 1350h217l502 -1350h-195l-137 383h-563l-137 -383h-197zM385 530h463l-148 424q-8 25 -26 76q-8 20 -13.5 40t-11.5 36q-12 35 -20 61l-13 37q-2 -8 -12 -39l-20 -61l-12.5 -37.5t-10.5 -36.5q-6 -20 -13 -39.5l-13 -36.5zM2 1024v35l80 291h197v-37l-172 -289 h-105z" />
<glyph unicode="&#x387;" d="M496 420v299h235v-299h-235z" />
<glyph unicode="&#x388;" d="M258 0v1350h919v-156h-729v-424h670v-154h-670v-460h770v-156h-960zM-49 1024v35l80 291h197v-37l-172 -289h-105z" />
<glyph unicode="&#x389;" d="M0 1024v33l80 293h196v-37l-172 -289h-104zM328 0v1350h190v-568h424v568h186v-1350h-186v623h-424v-623h-190z" />
<glyph unicode="&#x38a;" d="M330 0v156h315v1038h-315v156h821v-156h-315v-1038h315v-156h-821zM2 1024v35l80 291h197v-37l-172 -289h-105z" />
<glyph unicode="&#x38c;" d="M172 682q0 176 33 301t101 215q65 86 159 129q96 43 219 43q246 0 379 -174t133 -514q0 -170 -34 -305q-31 -121 -103 -219q-66 -90 -160 -133q-100 -45 -217 -45q-125 0 -223 47q-92 45 -160 137q-66 90 -96.5 219t-30.5 299zM373 682q0 -272 80 -409.5t231 -137.5 q166 0 238 139q74 141 74 408q0 268 -80 401q-80 131 -232 131q-158 0 -233 -131q-78 -133 -78 -401zM-49 1024v35l80 291h197v-37l-172 -289h-105z" />
<glyph unicode="&#x38e;" d="M0 1024v33l80 293h196v-37l-172 -289h-104zM303 1350h201l248 -602l245 602h201l-352 -766v-584h-189v584z" />
<glyph unicode="&#x38f;" d="M-49 1024v33l78 293h196v-37l-170 -289h-104zM127 0v156h201q6 0 20 -1t23 -1q31 0 45 -2q14 0 26.5 -2.5t26.5 -4.5q-88 61 -141 123q-55 66 -98.5 150t-59.5 168q-18 89 -18 184q0 137 36 248q35 104 103 188q61 76 158 121q92 43 204.5 43t204.5 -43q100 -47 160 -121 q63 -80 100 -188q37 -111 37 -248q0 -95 -18 -184q-16 -84 -59.5 -168t-98.5 -150q-53 -61 -141 -123q14 2 26.5 4.5t26.5 2.5q14 2 45 2q8 0 22.5 1t20.5 1h201v-156h-463v223q72 55 121 119q51 68 75 129q27 66 37 141q10 78 11 146q0 96 -21 188q-18 82 -57 144 q-41 63 -95 92q-61 33 -135 32q-72 0 -133 -32q-51 -27 -96 -92q-41 -59 -59 -144q-18 -82 -19 -188q0 -68 10 -146q10 -76 37 -141q28 -68 74 -129q45 -61 123 -119v-223h-463z" />
<glyph unicode="&#x390;" d="M150 940v141h497v-735q0 -111 41 -162t123 -51q63 0 119 33q49 29 94 74l92 -119q-61 -68 -131 -103q-78 -39 -174 -38q-90 0 -158 22q-59 20 -106 70q-39 43 -60 114q-18 68 -18 162v592h-319zM299 1219v184h146v-184h-146zM508 1200v35l55 367h197v-37l-145 -365h-107z M762 1219v184h144v-184h-144z" />
<glyph unicode="&#x391;" d="M0 0l510 1350h217l502 -1350h-195l-137 383h-563l-137 -383h-197zM385 530h463l-148 424q-8 25 -26 76q-8 20 -13.5 40t-11.5 36q-12 35 -20 61l-13 37q-2 -8 -12 -39l-20 -61l-12.5 -37.5t-10.5 -36.5q-6 -20 -13 -39.5l-13 -36.5z" />
<glyph unicode="&#x392;" d="M162 0v1350h411q106 0 209 -21q92 -18 155.5 -57t98.5 -103q33 -59 33 -147q0 -53 -16 -107q-16 -51 -49 -90q-35 -41 -84 -71q-41 -27 -117 -43q84 -8 149 -37q68 -29 111 -72t65.5 -100.5t22.5 -120.5q0 -109 -41 -176q-43 -72 -113 -117q-71 -46 -166 -68 q-90 -20 -196 -20h-473zM352 154h266q84 0 136 10q61 12 108 40.5t71.5 74t24.5 118.5q0 63 -24.5 106.5t-71.5 71.5q-53 31 -112 43q-66 12 -146 13h-252v-477zM352 780h226q84 0 139 15q49 12 92 45q39 29 53 67q16 43 17 90q0 109 -76 154t-228 45h-223v-416z" />
<glyph unicode="&#x393;" d="M223 0v1350h891v-156h-698v-1194h-193z" />
<glyph unicode="&#x394;" d="M12 0v145l477 1205h244l484 -1203v-147h-1205zM205 156h819l-313 782q-18 45 -35 92l-31 86l-22 68l-11 30l-10 -30q-12 -39 -22 -68l-31 -86q-6 -14 -17.5 -45l-17.5 -47z" />
<glyph unicode="&#x395;" d="M162 0v1350h919v-156h-729v-424h670v-154h-670v-460h770v-156h-960z" />
<glyph unicode="&#x396;" d="M74 0v143l817 1051h-746v156h963v-140l-817 -1054h864v-156h-1081z" />
<glyph unicode="&#x397;" d="M162 0v1350h190v-568h522v568h193v-1350h-193v623h-522v-623h-190z" />
<glyph unicode="&#x398;" d="M102 682q0 176 33 301t101 215q65 86 159 129q96 43 219 43q246 0 379 -174t133 -514q0 -170 -34 -305q-31 -121 -103 -219q-66 -90 -160 -133q-100 -45 -217 -45q-125 0 -223 47q-92 45 -160 137q-66 90 -96.5 219t-30.5 299zM303 682q0 -272 80 -409.5t231 -137.5 q166 0 238 139q74 141 74 408q0 268 -80 401q-80 131 -232 131q-158 0 -233 -131q-78 -133 -78 -401zM446 602v156h336v-156h-336z" />
<glyph unicode="&#x399;" d="M203 0v156h315v1038h-315v156h821v-156h-315v-1038h315v-156h-821z" />
<glyph unicode="&#x39a;" d="M162 0v1350h190v-674l574 674h225l-506 -574l582 -776h-223l-488 639l-164 -170v-469h-190z" />
<glyph unicode="&#x39b;" d="M10 0l504 1350h199l506 -1350h-201l-320 901q-12 37 -30 98l-27 88l-27 95l-26 -97l-27 -90l-31 -94l-319 -901h-201z" />
<glyph unicode="&#x39c;" d="M129 0v1350h238l184 -490q6 -12 20 -61q16 -49 23 -76q8 -29 24 -94l27 90q10 37 23 76q14 49 20 63l186 492h226v-1350h-162v868v105q0 68 2 96q2 35 2 100l-33 -108l-30 -94q-18 -57 -31 -88l-164 -439h-137l-166 439q-8 20 -12 34q-10 33 -15 45l-16 48l-16 49 l-37 114q0 -23 1 -48t1 -52q0 -14 1 -47t1 -51v-103v-868h-160z" />
<glyph unicode="&#x39d;" d="M162 0v1350h223l526 -1139q-4 29 -8 86q-4 45 -6 88q-2 33 -2 100v865h172v-1350h-231l-521 1130l9 -88q2 -25 6 -81q2 -29 2 -84v-877h-170z" />
<glyph unicode="&#x39e;" d="M135 0v156h959v-156h-959zM156 1194v156h917v-156h-917zM281 616v154h667v-154h-667z" />
<glyph unicode="&#x39f;" d="M102 682q0 176 33 301t101 215q65 86 159 129q96 43 219 43q246 0 379 -174t133 -514q0 -170 -34 -305q-31 -121 -103 -219q-66 -90 -160 -133q-100 -45 -217 -45q-125 0 -223 47q-92 45 -160 137q-66 90 -96.5 219t-30.5 299zM303 682q0 -272 80 -409.5t231 -137.5 q166 0 238 139q74 141 74 408q0 268 -80 401q-80 131 -232 131q-158 0 -233 -131q-78 -133 -78 -401z" />
<glyph unicode="&#x3a0;" d="M164 0v1350h903v-1350h-193v1194h-520v-1194h-190z" />
<glyph unicode="&#x3a1;" d="M162 0v1350h461q121 0 217 -29q88 -27 155 -84q61 -51 92 -127q31 -74 31 -166q0 -88 -28 -160q-33 -82 -91 -139q-55 -55 -151 -94q-92 -37 -213 -37h-283v-514h-190zM352 666h254q84 0 144 20q57 20 100 59q39 37 57 89q20 57 21 108q0 125 -82 188q-84 66 -248 66 h-246v-530z" />
<glyph unicode="&#x3a3;" d="M109 0v162l536 549l-520 477v162h999v-156h-784l459 -416v-125l-492 -497h879v-156h-1077z" />
<glyph unicode="&#x3a4;" d="M76 1194v156h1075v-156h-442v-1194h-191v1194h-442z" />
<glyph unicode="&#x3a5;" d="M37 1350h205l372 -613l373 613h205l-483 -766v-584h-189v584z" />
<glyph unicode="&#x3a6;" d="M8 707q0 109 33 194q33 88 94 152q55 59 152 98q90 37 207 37h30v172h181v-172h28q115 0 207 -37q96 -39 154 -98q61 -63 94 -152q33 -86 33 -194q0 -100 -31 -189t-92 -160q-57 -66 -150 -110q-84 -41 -203 -41h-40v-217h-181v217h-41q-119 0 -202 41q-92 45 -150 110 q-61 71 -92 160t-31 189zM203 702q0 -84 20 -145q25 -72 60 -113q41 -47 98 -71.5t131 -24.5h12v696h-8q-70 0 -131 -22q-59 -23 -98 -64q-43 -47 -64 -106q-20 -62 -20 -150zM705 348h12q74 0 131 24.5t98 71.5q35 41 60 113q20 61 20 145q0 82 -22 150q-20 59 -64 106 q-39 41 -98 64q-61 23 -131 22h-6v-696z" />
<glyph unicode="&#x3a7;" d="M37 0l475 705l-434 645h205l331 -514l332 514h205l-434 -645l477 -705h-207l-373 573l-372 -573h-205z" />
<glyph unicode="&#x3a8;" d="M49 915v435h162v-439q0 -84 14 -149q14 -68 49 -121q34 -52 86 -80q53 -29 125 -29h52v818h155v-818h51q72 0 125 29q52 28 86 80q35 53 50 121q16 76 16 149v439h160v-435q0 -100 -25 -196q-25 -98 -76 -166q-51 -70 -135 -115q-76 -41 -194 -41h-58v-397h-155v397h-58 q-117 0 -196 41q-78 41 -133 115q-51 68 -76 166q-25 96 -25 196z" />
<glyph unicode="&#x3a9;" d="M59 0v156h199q6 0 21.5 -1t25.5 -1q37 0 53 -2q14 0 29.5 -2.5t32.5 -4.5q-78 53 -144 123q-59 63 -106 150q-41 78 -64 168q-23 94 -22 184q0 143 35 248q35 102 106 188q63 76 168 121q98 43 221 43q125 0 224 -43q104 -45 168 -121q70 -82 104 -188q37 -111 37 -248 q0 -90 -23 -184q-20 -84 -65 -168q-49 -92 -105 -150q-66 -70 -143 -123q16 2 31.5 4.5t29.5 2.5q16 2 54 2q10 0 24.5 1t20.5 1h200v-156h-483v223q66 49 125 119q49 59 82 129q31 66 43 141q14 82 14 146q0 96 -20 188q-20 90 -60 144q-47 63 -106 92q-70 33 -150 32 q-82 0 -151 -32q-63 -31 -107 -92q-35 -53 -59 -144q-20 -80 -20 -188q0 -74 12 -146q12 -76 43 -141q33 -70 82 -129q55 -66 127 -119v-223h-484z" />
<glyph unicode="&#x3aa;" d="M203 0v156h315v1038h-315v156h821v-156h-315v-1038h315v-156h-821zM338 1485v184h164v-184h-164zM731 1485v184h164v-184h-164z" />
<glyph unicode="&#x3ab;" d="M37 1350h205l372 -613l373 613h205l-483 -766v-584h-189v584zM354 1485v184h164v-184h-164zM747 1485v184h164v-184h-164z" />
<glyph unicode="&#x3ac;" d="M129 537q0 281 109 424q106 141 317 141q70 0 125 -19q49 -16 98 -55q47 -37 76 -80t51 -100h2q2 8 11 49q4 18 16 59q2 8 22 64l25 61h186q-29 -61 -45 -110q-29 -86 -41 -133q-27 -104 -34 -140q-14 -63 -21 -127q4 -113 14 -190q16 -109 27 -160q14 -66 35 -127 q23 -68 35 -94h-183q-14 33 -22 61l-19 66q-4 14 -14 61q-4 14 -8 50h-4q-27 -59 -60 -105q-35 -47 -75 -80q-45 -35 -99 -53q-61 -20 -127 -20q-205 0 -301 139t-96 418zM317 543q0 -119 15 -193q16 -86 43 -131q31 -51 76 -75.5t112 -24.5q51 0 105 26q51 25 92 80 q41 53 71 133q25 68 43 189q-10 76 -34 162q-23 80 -58 135q-39 61 -86 92q-51 33 -121 33q-63 0 -114 -23q-49 -22 -80 -74q-33 -55 -47 -133q-17 -87 -17 -196zM534 1200v35l80 291h197v-37l-172 -289h-105z" />
<glyph unicode="&#x3ad;" d="M174 295q0 57 23 106q20 45 61 82q37 34 86 56q39 16 105 24v2q-53 6 -95 27q-47 25 -78 51q-27 25 -49 76q-18 43 -18 94q0 63 27 115q29 53 81 92q51 37 134 59q84 23 186 23q147 0 252 -43q106 -45 174 -141l-129 -89q-47 72 -119 105q-76 35 -178 35 q-129 0 -188.5 -43t-59.5 -117q0 -58 37 -92q39 -35 96 -53q58 -18 135 -24.5t160 -6.5v-135q-70 0 -106 -2q-70 -4 -107 -9q-39 -4 -94 -20q-41 -12 -78 -35q-33 -20 -51 -55q-18 -33 -19 -78q0 -92 66 -139q63 -45 193 -45q72 0 127 14q51 12 102 41q49 27 80 51 q23 18 53 53l107 -100q-16 -20 -78 -74q-33 -29 -103 -61q-57 -27 -133 -43q-78 -16 -168 -16q-111 0 -196 22q-82 20 -136 66q-51 43 -75 100q-27 64 -27 127zM555 1200v35l80 291h197v-37l-172 -289h-105z" />
<glyph unicode="&#x3ae;" d="M178 1081h170l1 -9q1 -9 1 -17q0 -6 2 -23.5t2 -27.5q0 -8 1 -28t1 -30v-49h4q31 57 56 84q37 41 76 66q37 23 96 40q49 14 119 15q80 0 147 -23q63 -20 107 -67q45 -47 65 -117q23 -74 23 -174v-1147h-181v1120q0 78 -16 133q-14 49 -47 82q-29 29 -70 41q-39 12 -88 13 q-55 0 -110 -23q-45 -18 -88 -66q-40 -43 -62 -104q-23 -63 -22 -143v-627h-181v852v70q0 12 -1 36.5t-1 34.5q0 12 -1 30.5t-1 27.5q0 10 -1 20zM555 1200v35l80 291h197v-37l-172 -289h-105z" />
<glyph unicode="&#x3af;" d="M150 940v141h497v-735q0 -111 41 -162t123 -51q63 0 119 33q49 29 94 74l92 -119q-61 -68 -131 -103q-78 -39 -174 -38q-90 0 -158 22q-59 20 -106 70q-39 43 -60 114q-18 68 -18 162v592h-319zM506 1200v35l80 291h197v-37l-172 -289h-105z" />
<glyph unicode="&#x3b0;" d="M164 420v661h180v-667q0 -147 67.5 -221t202.5 -74q74 0 129 24q53 23 91 80q37 55 55 139q18 86 18 205q0 59 -10 142q-6 49 -27 143q-14 63 -36 129q-25 70 -41 100h188q10 -20 39 -96q16 -43 35 -123q20 -88 26 -141q10 -82 11 -150q0 -143 -29 -245 q-31 -113 -90 -187q-66 -82 -152 -119q-94 -41 -215 -40q-108 0 -190 24q-80 25 -140 80q-57 53 -83 135q-29 86 -29 201zM297 1219v184h146v-184h-146zM506 1200v35l55 367h197v-37l-145 -365h-107zM760 1219v184h144v-184h-144z" />
<glyph unicode="&#x3b1;" d="M129 537q0 281 109 424q106 141 317 141q70 0 125 -19q49 -16 98 -55q47 -37 76 -80t51 -100h2q2 8 11 49q4 18 16 59q2 8 22 64l25 61h186q-29 -61 -45 -110q-29 -86 -41 -133q-27 -104 -34 -140q-14 -63 -21 -127q4 -113 14 -190q16 -109 27 -160q14 -66 35 -127 q23 -68 35 -94h-183q-14 33 -22 61l-19 66q-4 14 -14 61q-4 14 -8 50h-4q-27 -59 -60 -105q-35 -47 -75 -80q-45 -35 -99 -53q-61 -20 -127 -20q-205 0 -301 139t-96 418zM317 543q0 -119 15 -193q16 -86 43 -131q31 -51 76 -75.5t112 -24.5q51 0 105 26q51 25 92 80 q41 53 71 133q25 68 43 189q-10 76 -34 162q-23 80 -58 135q-39 61 -86 92q-51 33 -121 33q-63 0 -114 -23q-49 -22 -80 -74q-33 -55 -47 -133q-17 -87 -17 -196z" />
<glyph unicode="&#x3b2;" d="M172 -426v1452q0 238 114.5 348.5t340.5 110.5q98 0 174 -25q80 -25 127 -67q49 -43 78 -111q27 -61 26 -147q0 -74 -18 -129q-20 -61 -47 -97q-29 -39 -72 -67q-43 -31 -86 -47q59 -12 114.5 -39t102.5 -74q45 -45 74 -115q27 -66 26 -161q0 -92 -26 -166 q-29 -78 -82 -136q-55 -58 -141 -92q-84 -33 -207 -32q-100 0 -183 28q-86 29 -135 66h-6q4 -78 4 -103q0 -14 1 -47t1 -51v-299h-180zM352 205q18 -12 64 -35q39 -18 76 -31q39 -12 83 -18q57 -8 87 -8q74 0 127 20.5t92 59.5q37 37 55 90t18 118q0 63 -22 121 q-23 55 -72 96t-125 62q-80 23 -182 22v144q76 6 137 28q59 23 96 60q35 35 56 88q16 43 16 111q0 43 -12 84q-10 33 -43 65q-31 31 -72 45q-45 16 -102 16q-71 0 -123 -18q-55 -20 -86 -55q-33 -39 -51 -101q-16 -55 -17 -147v-817z" />
<glyph unicode="&#x3b3;" d="M53 1081h203l270 -655q4 -10 12.5 -33.5l12.5 -34.5l29 -77q14 -39 24 -70l12 -41q4 18 15 43l26 72l31 80q14 39 29 69l254 647h196l-436 -1028q-16 -41 -33 -100q-18 -63 -28 -119l-25 -127q-4 -25 -11 -76t-7 -55h-193q20 150 41 238q20 86 49 196z" />
<glyph unicode="&#x3b4;" d="M113 473q0 115 39 201q39 88 104 155q57 59 154 115q80 45 182 82l-320 328v131h750v-144h-375h-33q-8 0 -22 1t-20.5 1t-20.5 2.5t-22.5 2.5t-19.5 1t-15 1l317 -314l107 -112q57 -66 96 -125q49 -76 69 -146q27 -86 27 -178q0 -106 -35 -200.5t-98 -157.5 q-61 -61 -158 -101q-92 -37 -207 -36q-113 0 -206 34q-96 35 -158 97q-63 63 -101 155q-34 86 -34 207zM301 471q0 -80 21 -141q23 -70 59.5 -115t95.5 -74q61 -29 135 -28q84 0 140 26q57 27 96 76q37 45 55 113q16 57 16.5 143t-26.5 158q-27 70 -64 129q-33 51 -77 100 l-36 37.5l-32 34.5q-61 -20 -141 -68q-72 -43 -123 -96t-86 -131q-33 -72 -33 -164z" />
<glyph unicode="&#x3b5;" d="M174 295q0 57 23 106q20 45 61 82q37 34 86 56q39 16 105 24v2q-53 6 -95 27q-47 25 -78 51q-27 25 -49 76q-18 43 -18 94q0 63 27 115q29 53 81 92q51 37 134 59q84 23 186 23q147 0 252 -43q106 -45 174 -141l-129 -89q-47 72 -119 105q-76 35 -178 35 q-129 0 -188.5 -43t-59.5 -117q0 -58 37 -92q39 -35 96 -53q58 -18 135 -24.5t160 -6.5v-135q-70 0 -106 -2q-70 -4 -107 -9q-39 -4 -94 -20q-41 -12 -78 -35q-33 -20 -51 -55q-18 -33 -19 -78q0 -92 66 -139q63 -45 193 -45q72 0 127 14q51 12 102 41q49 27 80 51 q23 18 53 53l107 -100q-16 -20 -78 -74q-33 -29 -103 -61q-57 -27 -133 -43q-78 -16 -168 -16q-111 0 -196 22q-82 20 -136 66q-51 43 -75 100q-27 64 -27 127z" />
<glyph unicode="&#x3b6;" d="M184 360q0 90 29 170q33 90 82 172q49 80 121 172q45 59 145 166q51 55 162 158l162 143v7q-4 0 -14.5 -1t-16.5 -1t-18.5 -1.5t-20.5 -1.5h-43q-6 0 -22.5 -1t-22.5 -1h-463v144h803v-139l-158 -148q-83 -77 -159 -160q-100 -106 -146 -166q-59 -76 -119 -170 q-45 -72 -79 -165q-31 -82 -31 -158q0 -63 33 -103q31 -37 84 -61q55 -27 112 -37q43 -8 125 -28q53 -12 82 -21q76 -23 84 -25q29 -10 78 -34q41 -20 67 -47q29 -29 45.5 -62t16.5 -82q0 -37 -8 -69q-4 -18 -23 -68q-14 -39 -27 -61q-4 -8 -12 -22.5t-12 -20.5l-127 55 q6 8 18 28q6 10 19 35l4 12.5t4 14.5t4 12q6 18 6 39q0 33 -26 60q-23 23 -70 43q-18 8 -100 30q-43 12 -117 27q-4 0 -96 22q-63 14 -101 29q-57 20 -96 45q-49 29 -82 66q-33 35 -55 88q-21 46 -21 116z" />
<glyph unicode="&#x3b7;" d="M178 1081h170l1 -9q1 -9 1 -17q0 -6 2 -23.5t2 -27.5q0 -8 1 -28t1 -30v-49h4q31 57 56 84q37 41 76 66q37 23 96 40q49 14 119 15q80 0 147 -23q63 -20 107 -67q45 -47 65 -117q23 -74 23 -174v-1147h-181v1120q0 78 -16 133q-14 49 -47 82q-29 29 -70 41q-39 12 -88 13 q-55 0 -110 -23q-45 -18 -88 -66q-40 -43 -62 -104q-23 -63 -22 -143v-627h-181v852v70q0 12 -1 36.5t-1 34.5q0 12 -1 30.5t-1 27.5q0 10 -1 20z" />
<glyph unicode="&#x3b8;" d="M152 733q0 373 116.5 561.5t347.5 188.5q121 0 209 -47q90 -49 144 -140q53 -92 82 -235q27 -135 26 -328q0 -381 -118.5 -567t-348.5 -186q-106 0 -194 47q-84 45 -143.5 139t-90.5 233q-30 141 -30 334zM342 674q4 -166 25 -273q23 -111 57 -172q39 -68 82 -90 q49 -27 102 -26q59 0 113 26q49 25 86 90q35 61 57 172q20 106 25 273h-547zM342 805h547q-2 158 -25 266q-20 106 -53 168q-35 66 -84 90.5t-109 24.5q-61 0 -110 -24.5t-86 -90.5q-37 -63 -57 -168q-19 -96 -23 -266z" />
<glyph unicode="&#x3b9;" d="M150 940v141h497v-735q0 -111 41 -162t123 -51q63 0 119 33q49 29 94 74l92 -119q-61 -68 -131 -103q-78 -39 -174 -38q-90 0 -158 22q-59 20 -106 70q-39 43 -60 114q-18 68 -18 162v592h-319z" />
<glyph unicode="&#x3ba;" d="M236 0v1081h180v-536l475 536h211l-438 -465l460 -616h-211l-364 494l-133 -99v-395h-180z" />
<glyph unicode="&#x3bb;" d="M115 0l448 965l-37 100l-53 137q-16 45 -45 84q-23 33 -47 43q-23 10 -66 10q-6 0 -39 -4q-10 -2 -23 -5t-17 -3l-35 133q16 6 37 8q8 2 22 4.5t21 4.5l43 6q14 2 36 2q61 0 105 -19q41 -18 80 -59q35 -37 67 -107q31 -65 68 -159l426 -1141h-191l-206 578l-17 49 q-4 14 -9 28.5t-9 28.5l-17 57q-2 6 -14 50q-10 -37 -16 -52l-25 -59l-24 -59q-6 -16 -12.5 -27.5t-8.5 -18.5l-256 -575h-186z" />
<glyph unicode="&#x3bc;" d="M156 -426v1507h182v-686q0 -82 14 -131q12 -45 45 -84q25 -31 72 -47q41 -14 94 -14q125 0 201 88q74 86 74 248v626h180v-815q0 -53 4 -71q6 -29 16.5 -45.5t24.5 -22.5t33 -6q16 0 26.5 2t26.5 6v-129q-12 -4 -51 -14q-25 -6 -62 -6q-51 0 -90 16q-35 14 -57 41 q-25 29 -33 61q-6 25 -10 76h-4q-53 -98 -125 -145q-74 -49 -174 -49q-68 0 -121 20t-86 59v-485h-180z" />
<glyph unicode="&#x3bd;" d="M92 1081h189l331 -927q150 182 217 352q68 169 68 332q0 84 -14 139q-20 78 -33 104h176q23 -43 39 -100q12 -45 12 -135q0 -104 -33 -211q-35 -117 -88 -221q-55 -111 -129 -215q-57 -82 -155 -199h-170z" />
<glyph unicode="&#x3be;" d="M190 354q0 74 29 150q27 70 92 135q59 59 158 106q96 47 233 66q-84 6 -151 25q-63 16 -119 55q-49 33 -76 82q-29 51 -28 108q0 66 24 109q29 49 66 76q45 33 96 49q49 16 117 26v9q-2 0 -11.5 -1t-17.5 -1h-47q-8 0 -28.5 -1t-31 -1t-31 -1.5t-28.5 -1.5h-53 q-10 0 -22.5 -1t-14.5 -1h-92v144h733v-137q-70 -8 -106 -15q-74 -12 -109 -20q-41 -10 -102 -33q-45 -16 -84 -43q-35 -23 -58 -59q-23 -35 -22 -78q0 -63 37 -103q39 -41 98 -65q63 -25 139 -37q80 -12 164 -18v-132q-92 -12 -133 -22q-74 -16 -131 -37q-66 -23 -117 -51 q-53 -29 -94 -68q-41 -37 -63.5 -86t-22.5 -102q0 -63 31 -103q33 -41 80 -65q53 -27 110 -41l121 -29q6 -2 51 -12t68 -18q51 -16 106 -48q45 -25 78 -71q31 -43 31 -113q0 -39 -8 -69q-8 -29 -23 -66q-16 -41 -27 -59q-14 -27 -24 -43l-127 57q12 16 18 27l19 36l4 12.5 t4 14.5t4 12q6 18 6 37q0 31 -20 58q-16 20 -56 41q-45 23 -86 32q-49 12 -110 25q-31 6 -96 22q-72 18 -101 29q-39 14 -92 45q-45 27 -80 64q-31 33 -53 86q-21 46 -21 114z" />
<glyph unicode="&#x3bf;" d="M129 543q0 274 127 418q125 141 358 141q244 0 365 -139q119 -137 119 -420q0 -139 -35 -248t-96 -176q-65 -71 -154 -105q-92 -35 -205 -34q-104 0 -196 34q-90 35 -152 105q-63 74 -96 174q-35 109 -35 250zM319 543q0 -133 23 -209q25 -84 63.5 -131t92.5 -70 q49 -20 108.5 -20t120.5 20q57 18 96 67.5t62 133.5q23 86 22 209q0 127 -20 207q-23 86 -60 131q-43 51 -92 69q-52 18 -117 19q-68 0 -120 -21q-55 -20 -95 -69q-41 -49 -61 -131q-23 -86 -23 -205z" />
<glyph unicode="&#x3c0;" d="M23 903v150q14 6 32 12q14 4 47 8q16 2 54 6q18 2 49 2h981v-141h-205v-674q0 -35 8 -71q6 -31 19 -45q14 -18 28 -23q18 -6 39 -6q23 0 35 2q25 4 33 6l18 -129q-20 -6 -65 -14q-35 -6 -76 -6q-59 0 -100 14q-47 16 -68 43q-27 35 -39 78q-10 39 -10 112v713h-373v-72 q0 -86 -4 -254q-4 -162 -10 -237q-8 -90 -23 -207q-12 -98 -31 -170h-188q23 94 35 172q15 98 24 209q6 80 15 233q6 123 6 246v80q-51 0 -76 -2q-29 -2 -67 -10q-6 -2 -24.5 -5t-29.5 -5z" />
<glyph unicode="&#x3c1;" d="M158 -426v1008q0 127 28 215q33 98 88 164q61 72 144 106q86 37 194 37q100 0 193 -41q90 -41 158 -115q66 -72 106 -182q39 -104 39 -250q0 -119 -30.5 -217t-90.5 -170q-55 -68 -137 -108.5t-178 -40.5q-55 0 -111 10q-47 8 -90 28q-39 18 -72 45q-39 33 -61 60h-4 q2 -20 2 -60q0 -10 1 -31.5t1 -31.5v-426h-180zM338 260q33 -41 63 -63q35 -27 76 -45q43 -20 84 -29q47 -10 86 -10q68 0 119 28q43 25 82 84q37 57 51 129q16 82 16 170q0 100 -22.5 186.5t-63.5 141.5q-43 57 -100 88q-58 31 -129 31q-72 0 -119 -27q-51 -29 -82 -78 q-33 -51 -47 -123q-14 -70 -14 -165v-318z" />
<glyph unicode="&#x3c2;" d="M176 459q0 51 10 129q8 70 35 143q25 72 64 137q41 70 96 119q61 55 133 84q76 31 174 31q70 0 125 -12.5t100 -35t78 -48.5q31 -25 58 -56l-113 -114q-14 18 -49 47q-20 18 -56 39q-33 20 -67 28q-41 10 -76 11q-57 0 -108 -23q-43 -18 -84 -59q-31 -31 -60 -88 q-27 -51 -41 -107q-16 -61 -22 -111q-6 -55 -6 -108q0 -72 20 -115q25 -53 64 -84q43 -34 110.5 -61.5t159.5 -54.5q31 -8 59.5 -18.5t57.5 -18.5q61 -18 110 -50q55 -35 84 -73q33 -45 33 -115q0 -31 -10 -68q-6 -23 -22.5 -63.5t-26.5 -56.5q-6 -10 -12.5 -22.5 t-12.5 -20.5l-127 57q0 2 8 11t12.5 15.5t9.5 18.5t7 18q4 8 14 39q4 12 4 37q0 33 -18.5 53.5t-56.5 40.5q-43 23 -89 35q-18 6 -58 16.5t-60 16.5q-86 20 -187 57q-78 29 -141 82q-59 49 -90 127q-33 82 -33 191z" />
<glyph unicode="&#x3c3;" d="M92 524q0 143 43 248q45 109 119 174q78 70 184 103q104 33 232 32h559v-141h-156h-26q-6 0 -18.5 1t-20.5 1q-10 0 -20.5 1t-22.5 1q-8 0 -20.5 1t-18.5 1v-4q37 -57 55 -90q28 -49 49 -104q25 -61 35 -119q12 -63 12 -137q0 -111 -30.5 -207.5t-90.5 -161.5 q-61 -68 -153 -105q-98 -39 -215 -38q-123 0 -215 36q-96 39 -156 107q-66 74 -94 172q-31 102 -31 229zM283 526q0 -209 75.5 -311t221.5 -102q74 0 137 26q59 25 96 74q41 53 57 119q18 70 19 155q0 68 -10.5 139.5t-26.5 121.5q-18 57 -39 102q-14 33 -47 90h-90 q-88 0 -154 -22q-74 -27 -125 -74q-53 -51 -84 -129q-30 -80 -30 -189z" />
<glyph unicode="&#x3c4;" d="M150 903v150q14 6 32 12q14 4 47 8q16 2 54 6q18 2 49 2h721v-141h-375v-684q0 -47 10 -70q10 -25 31 -41q14 -10 39 -18q20 -6 45 -6l10 1q10 1 16.5 1t19.5 1t21 1q29 0 41 2q25 4 27 4v-131l-14 -3q-14 -3 -25 -5q-33 -4 -51 -6q-37 -4 -55 -4q-10 0 -25.5 -1 t-22.5 -1q-58 0 -104 12q-43 12 -78 43t-49 76q-16 49 -16 116v713h-97q-53 0 -79 -2q-31 -2 -74 -10q-8 -2 -28.5 -5t-31.5 -5q-18 -5 -38 -15z" />
<glyph unicode="&#x3c5;" d="M164 420v661h180v-667q0 -147 67.5 -221t202.5 -74q74 0 129 24q53 23 91 80q37 55 55 139q18 86 18 205q0 59 -10 142q-6 49 -27 143q-14 63 -36 129q-25 70 -41 100h188q10 -20 39 -96q16 -43 35 -123q20 -88 26 -141q10 -82 11 -150q0 -143 -29 -245 q-31 -113 -90 -187q-66 -82 -152 -119q-94 -41 -215 -40q-108 0 -190 24q-80 25 -140 80q-57 53 -83 135q-29 86 -29 201z" />
<glyph unicode="&#x3c6;" d="M49 545q0 101 25 196q25 94 74 168t126 127q76 51 181 70l20 -135q-68 -16 -113 -53q-51 -41 -79 -97q-33 -61 -47 -129q-16 -76 -17 -151q0 -215 78 -318q80 -106 229 -114v579q0 100 21 174q23 80 59 131q39 55 96 82q61 29 132 29q80 0 145 -37q61 -35 106 -109 q43 -70 68 -170q25 -98 25 -223q0 -151 -37 -258q-37 -106 -103 -178q-61 -68 -155 -106q-84 -35 -197 -41v-408h-160v408q-115 6 -198 41q-88 37 -150 104q-59 66 -94 174.5t-35 243.5zM686 109q322 12 322 458q0 95 -13 172q-14 84 -32 131q-20 51 -56 82q-33 29 -71 29 q-74 0 -111 -74q-39 -78 -39 -215v-583z" />
<glyph unicode="&#x3c7;" d="M57 1079q25 12 62 18.5t67 6.5q51 0 86 -14q37 -16 70 -46q35 -33 70 -81q29 -41 73 -125l162 -295l293 538h188l-399 -696l436 -809h-188l-350 664l-363 -664h-188l471 825l-191 342q-55 102 -106 164q-46 55 -98 56q-33 0 -60 -15z" />
<glyph unicode="&#x3c8;" d="M88 438v643h162v-645q0 -94 14 -151q14 -59 51 -99q35 -39 88 -53q55 -15 129 -18v1224h160v-1224q70 0 129 16q55 16 90 53q34 37 50 99q18 74 18 153v645h158v-643q0 -123 -25 -209q-25 -84 -78 -141q-47 -51 -139 -80q-90 -29 -203 -28v-406h-160v406q-113 0 -202 28 q-88 29 -137 80q-57 59 -80 141q-25 86 -25 209z" />
<glyph unicode="&#x3c9;" d="M53 516q0 104 21 199q25 109 61 178q43 82 107 135q68 57 151 76l31 -135q-55 -14 -94 -58q-35 -37 -62 -104q-27 -66 -35 -137q-10 -86 -10 -158q0 -82 10 -164q10 -76 27 -125q20 -57 45 -82q29 -29 66 -28q43 0 71.5 26.5t51.5 73.5q25 53 32 106q10 68 11 130v251 h157v-251q0 -78 12.5 -139.5t34.5 -106.5q20 -41 51 -65.5t68 -24.5q35 0 63.5 28.5t47.5 81.5q16 49 26 125q8 66 9 164q0 72 -11 158q-8 72 -34 137q-25 61 -62 104q-35 41 -92 58l31 135q82 -18 149 -76q63 -53 107 -135q41 -76 63 -178q20 -94 21 -199q0 -121 -23 -227 q-20 -100 -61 -168q-39 -66 -97 -105q-55 -37 -125 -36q-45 0 -92 20q-45 20 -73 53q-39 47 -56 84q-23 53 -35 111h-4q-12 -57 -34 -111q-16 -37 -56 -84q-29 -33 -73 -53q-47 -20 -93 -20q-70 0 -125 36q-53 35 -94 105q-41 68 -61 168q-23 106 -23 227z" />
<glyph unicode="&#x3ca;" d="M150 940v141h497v-735q0 -111 41 -162t123 -51q63 0 119 33q49 29 94 74l92 -119q-61 -68 -131 -103q-78 -39 -174 -38q-90 0 -158 22q-59 20 -106 70q-39 43 -60 114q-18 68 -18 162v592h-319zM307 1219v184h164v-184h-164zM700 1219v184h164v-184h-164z" />
<glyph unicode="&#x3cb;" d="M164 420v661h180v-667q0 -147 67.5 -221t202.5 -74q74 0 129 24q53 23 91 80q37 55 55 139q18 86 18 205q0 59 -10 142q-6 49 -27 143q-14 63 -36 129q-25 70 -41 100h188q10 -20 39 -96q16 -43 35 -123q20 -88 26 -141q10 -82 11 -150q0 -143 -29 -245 q-31 -113 -90 -187q-66 -82 -152 -119q-94 -41 -215 -40q-108 0 -190 24q-80 25 -140 80q-57 53 -83 135q-29 86 -29 201zM307 1219v184h164v-184h-164zM700 1219v184h164v-184h-164z" />
<glyph unicode="&#x3cc;" d="M129 543q0 274 127 418q125 141 358 141q244 0 365 -139q119 -137 119 -420q0 -139 -35 -248t-96 -176q-65 -71 -154 -105q-92 -35 -205 -34q-104 0 -196 34q-90 35 -152 105q-63 74 -96 174q-35 109 -35 250zM319 543q0 -133 23 -209q25 -84 63.5 -131t92.5 -70 q49 -20 108.5 -20t120.5 20q57 18 96 67.5t62 133.5q23 86 22 209q0 127 -20 207q-23 86 -60 131q-43 51 -92 69q-52 18 -117 19q-68 0 -120 -21q-55 -20 -95 -69q-41 -49 -61 -131q-23 -86 -23 -205zM534 1200v35l80 291h197v-37l-172 -289h-105z" />
<glyph unicode="&#x3cd;" d="M164 420v661h180v-667q0 -147 67.5 -221t202.5 -74q74 0 129 24q53 23 91 80q37 55 55 139q18 86 18 205q0 59 -10 142q-6 49 -27 143q-14 63 -36 129q-25 70 -41 100h188q10 -20 39 -96q16 -43 35 -123q20 -88 26 -141q10 -82 11 -150q0 -143 -29 -245 q-31 -113 -90 -187q-66 -82 -152 -119q-94 -41 -215 -40q-108 0 -190 24q-80 25 -140 80q-57 53 -83 135q-29 86 -29 201zM495 1200v35l80 291h197v-37l-172 -289h-105z" />
<glyph unicode="&#x3ce;" d="M53 516q0 104 21 199q25 109 61 178q43 82 107 135q68 57 151 76l31 -135q-55 -14 -94 -58q-35 -37 -62 -104q-27 -66 -35 -137q-10 -86 -10 -158q0 -82 10 -164q10 -76 27 -125q20 -57 45 -82q29 -29 66 -28q43 0 71.5 26.5t51.5 73.5q25 53 32 106q10 68 11 130v251 h157v-251q0 -78 12.5 -139.5t34.5 -106.5q20 -41 51 -65.5t68 -24.5q35 0 63.5 28.5t47.5 81.5q16 49 26 125q8 66 9 164q0 72 -11 158q-8 72 -34 137q-25 61 -62 104q-35 41 -92 58l31 135q82 -18 149 -76q63 -53 107 -135q41 -76 63 -178q20 -94 21 -199q0 -121 -23 -227 q-20 -100 -61 -168q-39 -66 -97 -105q-55 -37 -125 -36q-45 0 -92 20q-45 20 -73 53q-39 47 -56 84q-23 53 -35 111h-4q-12 -57 -34 -111q-16 -37 -56 -84q-29 -33 -73 -53q-47 -20 -93 -20q-70 0 -125 36q-53 35 -94 105q-41 68 -61 168q-23 106 -23 227zM520 1200v35 l80 291h197v-37l-172 -289h-105z" />
<glyph unicode="&#x401;" d="M162 0v1350h919v-156h-729v-424h670v-154h-670v-460h770v-156h-960zM356 1444v184h164v-184h-164zM749 1444v184h164v-184h-164z" />
<glyph unicode="&#x402;" d="M0 1194v156h823v-156h-340v-324l76 21q14 2 41 10t39 10q6 2 82 13q43 6 84 6q100 0 162 -23q72 -27 112.5 -69.5t63.5 -114.5q18 -57 18 -158v-223q0 -82 -18 -149q-18 -66 -56 -113q-41 -53 -90 -74q-59 -27 -129 -26q-33 0 -73 10q-35 8 -68 28q-31 18 -57 45 q-14 14 -41 60l100 113q27 -51 62 -76q37 -27 77 -27q43 0 74 51q31 53 31 162v199q0 119 -41 176q-40 55 -135 55q-72 0 -160 -16q-70 -12 -154 -35v-725h-188v1194h-295z" />
<glyph unicode="&#x403;" d="M223 0v1350h891v-156h-698v-1194h-193zM522 1446v21l228 239h196v-28l-299 -232h-125z" />
<glyph unicode="&#x404;" d="M113 682q0 156 32 293q31 127 99 217q66 88 166 133q98 45 239 45q102 0 176 -26.5t133 -75.5q49 -41 93 -107q37 -55 63 -127l-168 -63q-14 45 -40.5 90t-61.5 78q-37 34 -86 55q-47 20 -109 20q-80 0 -141 -30q-66 -33 -102 -86q-43 -63 -63.5 -145.5t-27.5 -198.5h426 v-146h-426q6 -119 27 -202q20 -82 66 -148q45 -63 104 -92q66 -31 150 -31q63 0 112 25q57 29 90 61q47 47 70 90q29 55 49 107l160 -66q-23 -57 -70 -137q-39 -66 -98.5 -119t-136.5 -84q-82 -33 -179 -32q-137 0 -243 51q-102 49 -170 141q-66 90 -101 221 q-32 125 -32 289z" />
<glyph unicode="&#x405;" d="M80 338l184 37q14 -59 35 -101q23 -43 68 -77q39 -31 102 -50q61 -18 145 -18q66 0 134 14q55 12 100 41q43 28 67 74q23 43 23 109q0 76 -31 114q-35 45 -86 72q-49 27 -119 45l-135 35l-35 9t-28.5 8t-36.5 12q-61 18 -98 32q-47 18 -88 47q-45 31 -72 64 q-25 31 -47 88q-16 43 -17 117q0 100 35 164q39 72 101 112q63 43 147 64q82 20 186 20q119 0 199 -20q82 -20 137.5 -61.5t89.5 -102.5q35 -63 56 -139l-189 -33q-12 51 -33 90q-23 41 -57 67q-33 25 -86 41q-45 14 -117 15q-76 0 -135 -17q-47 -12 -86 -45 q-31 -25 -47 -67q-14 -37 -14 -84q0 -63 26 -99q29 -39 72 -61q53 -29 105 -41l131 -35l110 -28q51 -14 106.5 -37t96.5 -49.5t78 -69.5q35 -41 53 -96.5t18 -126.5q0 -88 -30 -158q-31 -72 -94 -123q-70 -55 -162 -82q-102 -29 -232 -28q-236 0 -364.5 92t-165.5 266z" />
<glyph unicode="&#x406;" d="M203 0v156h315v1038h-315v156h821v-156h-315v-1038h315v-156h-821z" />
<glyph unicode="&#x407;" d="M203 0v156h315v1038h-315v156h821v-156h-315v-1038h315v-156h-821zM336 1444v184h164v-184h-164zM729 1444v184h164v-184h-164z" />
<glyph unicode="&#x408;" d="M176 350l186 31q9 -65 31 -111q18 -39 51 -75q25 -29 66 -45q35 -14 78 -15q102 0 155.5 72t53.5 209v778h-312v156h500v-930q0 -100 -24 -182q-23 -74 -76 -138q-49 -59 -125 -90q-74 -31 -174 -30q-170 0 -273 90q-104 90 -137 280z" />
<glyph unicode="&#x409;" d="M0 -6v133q25 -6 27 -6q6 0 14 -1t10 -1q20 0 49 8q23 6 41 29q14 16 33 67q16 47 29 121q12 80 24 186l23 269l41 551h491v-578h41q90 0 158 -26.5t119 -77.5q53 -53 76 -119q25 -70 24 -156q0 -83 -24 -153q-25 -68 -74 -125q-47 -53 -114.5 -84t-151.5 -31h-226v1208 h-180l-29 -428q-10 -154 -24 -291q-12 -123 -31 -213q-20 -96 -39 -145q-20 -51 -55 -90q-29 -33 -74 -45q-43 -12 -96 -12q-33 0 -47 2q-23 4 -35 8zM782 141h58q47 0 80 17q37 18 63 51q25 31 41 78q14 43 14 104q0 59 -14 101q-14 43 -45 75q-27 31 -66 49q-33 16 -82 17 h-49v-492z" />
<glyph unicode="&#x40a;" d="M72 0v1350h159v-578h330v578h170v-578h92q90 0 158 -26.5t119 -77.5q53 -53 76 -119q25 -70 24 -156q0 -83 -24 -153q-25 -68 -74 -125q-47 -53 -114.5 -84t-151.5 -31h-275v633h-330v-633h-159zM731 141h109q47 0 80 17q37 18 63 51q25 31 41 78q14 43 14 104 q0 59 -14 101q-14 43 -45 75q-27 31 -66 49q-33 16 -82 17h-100v-492z" />
<glyph unicode="&#x40b;" d="M0 1194v156h823v-156h-340v-324l76 21q14 2 41 10t39 10q6 2 82 13q43 6 84 6q100 0 162 -23q72 -27 112.5 -69.5t63.5 -114.5q18 -57 18 -158v-565h-188v545q0 119 -41 176q-40 55 -135 55q-72 0 -160 -16q-70 -12 -154 -35v-725h-188v1194h-295z" />
<glyph unicode="&#x40c;" d="M168 0v1350h190v-590q47 0 84 10q41 12 82 37q37 23 80 65q33 33 78 99l252 379h203l-297 -430l-58 -80q-16 -20 -47 -52q-25 -25 -35 -32l-28 -21l510 -735h-224l-426 647q-4 -2 -18 -7t-22 -7q-14 -4 -48 -12q-16 -4 -44.5 -8.5t-41.5 -4.5v-608h-190zM487 1446v21 l228 239h196v-28l-299 -232h-125z" />
<glyph unicode="&#x40e;" d="M20 1350h216l415 -740l350 740h205l-532 -1033q-39 -76 -86 -151q-43 -70 -86 -107q-49 -43 -101 -59q-61 -20 -129 -20q-31 0 -65 6q-45 8 -66 14q-41 12 -59 20q-35 16 -53 29l82 146q41 -27 75 -41q43 -18 90 -19q35 0 66 10.5t57 36.5q29 29 56 70q6 10 63 115l39 73 zM260 1706h166q4 -49 16 -71q16 -29 41 -48q20 -16 62 -22q49 -8 84 -8q33 0 82 8q41 6 61 22q25 18 41 48q14 27 18 71h164q-4 -59 -22 -104q-23 -51 -64 -84q-43 -35 -112 -53q-68 -18 -168 -19q-102 0 -170 19q-70 18 -113 53q-41 33 -63 84q-19 45 -23 104z" />
<glyph unicode="&#x40f;" d="M156 0v1350h190v-1190h535v1190h190v-1350h-366v-426h-181v426h-368z" />
<glyph unicode="&#x410;" d="M0 0l510 1350h217l502 -1350h-195l-137 383h-563l-137 -383h-197zM385 530h463l-148 424q-8 25 -26 76q-8 20 -13.5 40t-11.5 36q-12 35 -20 61l-13 37q-2 -8 -12 -39l-20 -61l-12.5 -37.5t-10.5 -36.5q-6 -20 -13 -39.5l-13 -36.5z" />
<glyph unicode="&#x411;" d="M162 0v1350h917v-156h-727v-412h324q129 0 217 -26q98 -31 156 -78q61 -52 92 -123q31 -72 30.5 -162t-30.5 -160q-33 -74 -90 -122q-66 -57 -152 -82q-96 -29 -213 -29h-524zM352 152h307q164 0 242 55q80 57 80 180q0 119 -84 178q-82 57 -246 58h-299v-471z" />
<glyph unicode="&#x412;" d="M162 0v1350h411q106 0 209 -21q92 -18 155.5 -57t98.5 -103q33 -59 33 -147q0 -53 -16 -107q-16 -51 -49 -90q-35 -41 -84 -71q-41 -27 -117 -43q84 -8 149 -37q68 -29 111 -72t65.5 -100.5t22.5 -120.5q0 -109 -41 -176q-43 -72 -113 -117q-71 -46 -166 -68 q-90 -20 -196 -20h-473zM352 154h266q84 0 136 10q61 12 108 40.5t71.5 74t24.5 118.5q0 63 -24.5 106.5t-71.5 71.5q-53 31 -112 43q-66 12 -146 13h-252v-477zM352 780h226q84 0 139 15q49 12 92 45q39 29 53 67q16 43 17 90q0 109 -76 154t-228 45h-223v-416z" />
<glyph unicode="&#x413;" d="M223 0v1350h891v-156h-698v-1194h-193z" />
<glyph unicode="&#x414;" d="M4 150h121q41 55 74 112q35 63 61 144q35 104 51 186q25 125 41 248l68 510h604v-1200h174v-558h-160v408h-872v-408h-162v558zM319 150h539v1048h-295l-49 -377q-20 -152 -39 -237q-23 -109 -45 -181q-27 -88 -51 -141q-23 -49 -60 -112z" />
<glyph unicode="&#x415;" d="M162 0v1350h919v-156h-729v-424h670v-154h-670v-460h770v-156h-960z" />
<glyph unicode="&#x416;" d="M0 0l313 719q-35 35 -55 67q-31 49 -47 91l-203 473h174l148 -387q14 -39 45 -95q16 -31 49 -63q16 -16 53 -37q31 -16 58 -23v605h159v-605q27 6 58 23q37 20 53 37q33 33 49 63q23 43 43 95l150 387h172l-201 -473q-23 -55 -49 -91q-31 -41 -56 -65l316 -721h-187 l-245 633l-17 -4q-2 0 -12 -3t-16.5 -5.5t-16.5 -4.5t-16 -4q-15 -3 -25 -6v-606h-159v606q-6 2 -27 6q-4 2 -14.5 4t-16.5 4.5t-16 5.5t-12 3l-17 4l-248 -633h-184z" />
<glyph unicode="&#x417;" d="M68 328l163 78q27 -59 58 -105q37 -53 78 -86q49 -39 106 -59q63 -23 141 -23q76 0 138 19q63 18 104 51t64 80q23 49 22 104q0 123 -94 180.5t-299 57.5h-72v147h72q180 0 266 62q88 63 88 165q0 45 -20 91q-18 40 -56 67q-33 25 -88 41t-116 16q-78 0 -134 -20 q-61 -23 -100 -53q-41 -33 -70 -80q-37 -61 -49 -94l-174 61q35 88 80 146q47 61 115 106q66 43 149 66q86 23 191 22q106 0 192 -25q80 -23 148 -73q59 -45 92 -113q31 -65 31 -141q0 -66 -21 -113q-25 -57 -55 -90q-35 -37 -88 -65q-45 -25 -117 -41q66 -8 127 -35 q57 -25 102 -66q43 -41 68 -94q27 -59 27 -121q0 -84 -35 -164q-33 -72 -101 -131q-63 -53 -161 -86q-94 -31 -219 -30q-119 0 -205 24q-88 25 -154 72q-72 51 -112 108q-45 62 -82 144z" />
<glyph unicode="&#x418;" d="M162 0v1350h172v-865q0 -68 -2 -100q-2 -43 -6 -88q-2 -35 -11 -86l529 1139h223v-1350h-170v877q0 55 2 84q0 14 1 41.5t3 39.5l8 88l-520 -1130h-229z" />
<glyph unicode="&#x419;" d="M162 0v1350h172v-865q0 -68 -2 -100q-2 -43 -6 -88q-2 -35 -11 -86l529 1139h223v-1350h-170v877q0 55 2 84q0 14 1 41.5t3 39.5l8 88l-520 -1130h-229zM242 1706h166q4 -49 16 -71q16 -29 41 -48q20 -16 62 -22q49 -8 84 -8q33 0 82 8q41 6 61 22q25 18 41 48 q14 27 18 71h164q-4 -59 -22 -104q-23 -51 -64 -84q-43 -35 -112 -53q-68 -18 -168 -19q-102 0 -170 19q-70 18 -113 53q-41 33 -63 84q-19 45 -23 104z" />
<glyph unicode="&#x41a;" d="M168 0v1350h190v-590q47 0 84 10q41 12 82 37q37 23 80 65q33 33 78 99l252 379h203l-297 -430l-58 -80q-16 -20 -47 -52q-25 -25 -35 -32l-28 -21l510 -735h-224l-426 647q-4 -2 -18 -7t-22 -7q-14 -4 -48 -12q-16 -4 -44.5 -8.5t-41.5 -4.5v-608h-190z" />
<glyph unicode="&#x41b;" d="M-2 -6v151q16 -4 29 -4q6 0 15 -1t11 -1q27 0 58 11q27 8 51 36q23 27 45 76q16 39 41 131q14 57 41 199q14 76 41 276l59 482h727v-1350h-184v1190h-379l-43 -338q-23 -176 -43 -305q-20 -121 -47 -228q-23 -90 -58 -161q-31 -63 -69 -103q-41 -41 -90 -55 q-55 -16 -119 -16q-33 0 -49 2q-25 2 -37 8z" />
<glyph unicode="&#x41c;" d="M129 0v1350h238l184 -490q6 -12 20 -61q16 -49 23 -76q8 -29 24 -94l27 90q10 37 23 76q14 49 20 63l186 492h226v-1350h-162v868v105q0 68 2 96q2 35 2 100l-33 -108l-30 -94q-18 -57 -31 -88l-164 -439h-137l-166 439q-8 20 -12 34q-10 33 -15 45l-16 48l-16 49 l-37 114q0 -23 1 -48t1 -52q0 -14 1 -47t1 -51v-103v-868h-160z" />
<glyph unicode="&#x41d;" d="M162 0v1350h190v-568h522v568h193v-1350h-193v623h-522v-623h-190z" />
<glyph unicode="&#x41e;" d="M102 682q0 176 33 301t101 215q65 86 159 129q96 43 219 43q246 0 379 -174t133 -514q0 -170 -34 -305q-31 -121 -103 -219q-66 -90 -160 -133q-100 -45 -217 -45q-125 0 -223 47q-92 45 -160 137q-66 90 -96.5 219t-30.5 299zM303 682q0 -272 80 -409.5t231 -137.5 q166 0 238 139q74 141 74 408q0 268 -80 401q-80 131 -232 131q-158 0 -233 -131q-78 -133 -78 -401z" />
<glyph unicode="&#x41f;" d="M162 0v1350h905v-1350h-193v1190h-522v-1190h-190z" />
<glyph unicode="&#x420;" d="M162 0v1350h461q121 0 217 -29q88 -27 155 -84q61 -51 92 -127q31 -74 31 -166q0 -88 -28 -160q-33 -82 -91 -139q-55 -55 -151 -94q-92 -37 -213 -37h-283v-514h-190zM352 666h254q84 0 144 20q57 20 100 59q39 37 57 89q20 57 21 108q0 125 -82 188q-84 66 -248 66 h-246v-530z" />
<glyph unicode="&#x421;" d="M113 682q0 156 32 293q31 127 99 217q66 88 166 133q98 45 239 45q102 0 176 -26.5t133 -75.5q49 -41 93 -107q37 -55 63 -127l-168 -63q-14 45 -40.5 90t-61.5 78q-37 34 -86 55q-47 20 -109 20q-86 0 -151.5 -34.5t-104.5 -100.5q-41 -70 -59 -168q-20 -109 -21 -229 q0 -137 21 -233q23 -109 61 -173q41 -68 109 -106q61 -35 158 -35q63 0 112 25q57 29 90 61q47 47 70 90q29 55 49 107l160 -66q-23 -57 -70 -137q-39 -66 -98.5 -119t-136.5 -84q-82 -33 -179 -32q-137 0 -243 51q-102 49 -170 141q-66 90 -101 221q-32 125 -32 289z" />
<glyph unicode="&#x422;" d="M76 1194v156h1075v-156h-442v-1194h-191v1194h-442z" />
<glyph unicode="&#x423;" d="M20 1350h216l415 -740l350 740h205l-532 -1033q-39 -76 -86 -151q-43 -70 -86 -107q-49 -43 -101 -59q-61 -20 -129 -20q-31 0 -65 6q-45 8 -66 14q-41 12 -59 20q-35 16 -53 29l82 146q41 -27 75 -41q43 -18 90 -19q35 0 66 10.5t57 36.5q29 29 56 70q6 10 63 115l39 73 z" />
<glyph unicode="&#x424;" d="M8 707q0 109 33 194q33 88 94 152q55 59 152 98q90 37 207 37h30v172h181v-172h28q115 0 207 -37q96 -39 154 -98q61 -63 94 -152q33 -86 33 -194q0 -100 -31 -189t-92 -160q-57 -66 -150 -110q-84 -41 -203 -41h-40v-217h-181v217h-41q-119 0 -202 41q-92 45 -150 110 q-61 71 -92 160t-31 189zM203 702q0 -84 20 -145q25 -72 60 -113q41 -47 98 -71.5t131 -24.5h12v696h-8q-70 0 -131 -22q-59 -23 -98 -64q-43 -47 -64 -106q-20 -62 -20 -150zM705 348h12q74 0 131 24.5t98 71.5q35 41 60 113q20 61 20 145q0 82 -22 150q-20 59 -64 106 q-39 41 -98 64q-61 23 -131 22h-6v-696z" />
<glyph unicode="&#x425;" d="M37 0l475 705l-434 645h205l331 -514l332 514h205l-434 -645l477 -705h-207l-373 573l-372 -573h-205z" />
<glyph unicode="&#x426;" d="M127 0v1350h192v-1190h523v1190h190v-1190h174v-586h-180v426h-899z" />
<glyph unicode="&#x427;" d="M94 784v566h191v-545q0 -121 61.5 -176.5t171.5 -55.5q47 0 96 7l99 12q37 4 92 16l78 15v727h190v-1350h-190v477q-16 -4 -36 -7t-44 -9q-12 -2 -45 -9.5l-51 -11.5q-33 -6 -103 -14q-51 -6 -98 -6q-205 0 -309 94q-103 92 -103 270z" />
<glyph unicode="&#x428;" d="M88 0v1350h164v-1211h280v1211h162v-1211h283v1211h162v-1350h-1051z" />
<glyph unicode="&#x429;" d="M86 0v1350h162v-1211h258v1211h162v-1211h256v1211h161v-1211h144v-565h-144v426h-999z" />
<glyph unicode="&#x42a;" d="M0 1194v156h526v-568h131q131 0 220 -26q96 -29 153 -78q66 -55 94 -123q31 -72 31 -162t-31 -160q-33 -74 -90 -122q-66 -57 -151 -82q-96 -29 -213 -29h-334v1194h-336zM526 152h117q166 0 242 57q78 59 78 182q0 121 -82 176q-83 55 -246 56h-109v-471z" />
<glyph unicode="&#x42b;" d="M104 0v1350h172v-578h62q248 0 371 -98q127 -102 127 -281q0 -90 -31 -160q-31 -71 -92 -122q-66 -55 -154 -82q-96 -29 -209 -29h-246zM276 141h76q168 0 244 62q78 61 78 188q0 242 -330 242h-68v-492zM952 0v1350h170v-1350h-170z" />
<glyph unicode="&#x42c;" d="M162 0v1350h190v-568h324q129 0 217 -26q98 -31 156 -78q61 -52 92 -123q31 -72 30.5 -162t-30.5 -160q-33 -74 -90 -122q-66 -57 -152 -82q-96 -29 -213 -29h-524zM352 152h307q164 0 242 55q80 57 80 180q0 119 -84 178q-82 57 -246 58h-299v-471z" />
<glyph unicode="&#x42d;" d="M86 352l160 66q14 -37 51 -107q25 -47 68 -90q33 -33 90 -61q49 -25 112 -25q84 0 150 31q59 29 104 92q43 61 64 148q23 94 28 202h-426v146h426q-8 225 -90 344q-80 117 -243 116q-61 0 -109 -20q-49 -22 -86 -55q-35 -33 -61.5 -78t-40.5 -90l-168 63q23 57 63 127 q33 55 94 107q59 51 131 75q74 27 177 27q141 0 239 -45q100 -45 166 -133q68 -90 98 -217q33 -137 33 -293q0 -164 -33 -289q-35 -131 -100 -221q-68 -92 -170 -141q-106 -51 -244 -51q-96 0 -178 32q-74 31 -135 84q-63 57 -100 119q-47 80 -70 137z" />
<glyph unicode="&#x42e;" d="M86 0v1350h162v-596h151q12 309 110.5 462.5t276.5 153.5q187 0 289 -172q100 -170 101 -516q0 -170 -25 -299q-25 -131 -74 -219q-51 -92 -123 -137q-76 -47 -170 -47q-89 0 -159 43q-68 41 -117 120q-47 76 -76 199q-27 113 -33 266h-151v-608h-162zM571 682 q0 -276 54 -418q53 -139 161 -139q106 0 162 139q55 137 56 418q0 274 -54 410q-53 133 -164 133q-109 0 -161 -133q-54 -136 -54 -410z" />
<glyph unicode="&#x42f;" d="M51 0l402 598q-94 16 -156 51q-66 37 -109 90.5t-61 112.5q-18 61 -18 125q0 92 28 156q31 66 90 116q58 49 148 74q96 27 211 27h481v-1350h-190v575h-238l-367 -575h-221zM299 973q0 -45 16 -94q15 -46 50 -80q31 -31 92 -54q55 -20 139 -20h281v471h-273 q-305 0 -305 -223z" />
<glyph unicode="&#x430;" d="M127 301q0 106 41 176q43 72 102 109q61 37 146 53q88 16 166 16l235 4v60q0 68 -12 115t-41 75q-33 33 -70 43q-43 12 -98 13q-51 0 -90 -7q-35 -6 -70 -28q-29 -18 -47 -53t-24 -84l-189 18q9 65 37 117q27 51 78 92q49 41 125 61q74 20 182 21q197 0 301 -94 q100 -92 100 -271v-465q0 -80 22.5 -120.5t80.5 -40.5q18 0 28 2q4 2 14.5 4t14.5 2v-113q-34 -9 -67 -12q-45 -4 -70 -4q-45 0 -88 14q-37 12 -60 41q-23 31 -34 68q-14 45 -17 94h-6q-27 -49 -61 -94q-29 -37 -78 -72q-41 -29 -100 -45q-61 -16 -132 -16q-158 0 -237 86 q-82 88 -82 235zM317 299q0 -80 45.5 -131t129.5 -51q80 0 145 33q63 31 100 77q41 49 62 107q18 49 18 110v91l-188 -5q-37 0 -111 -8q-53 -6 -100 -33q-49 -29 -74 -69q-27 -45 -27 -121z" />
<glyph unicode="&#x431;" d="M139 637q0 176 31 330q29 141 92 235q66 98 166 154q104 58 252 86q23 4 106 20q33 6 95 15q16 2 46.5 7l43.5 7q20 4 42.5 6l43.5 4v-160q-25 -4 -82 -11t-86 -11q-115 -18 -170 -29q-92 -18 -141 -30q-59 -14 -109 -41q-46 -25 -80 -62q-35 -39 -55 -90 q-23 -59 -35 -129q-8 -51 -12 -176q25 61 53 104q35 49 80 84q43 33 112 56q61 20 144 20q221 0 325 -129q106 -131 107 -393q0 -264 -127 -395q-126 -129 -363 -129q-109 0 -200 34q-88 33 -152 113q-59 74 -94 205q-33 123 -33 305zM330 502q0 -119 20 -189 q23 -80 62 -120q40 -43 92 -62q53 -18 112 -18q70 0 125 18q57 18 97 62q37 39 59 120q20 74 21 189q0 114 -19 190q-16 70 -57 121q-37 45 -88 64q-52 18 -117 18q-59 0 -125 -21q-59 -18 -98 -63q-43 -51 -64 -121q-20 -73 -20 -188z" />
<glyph unicode="&#x432;" d="M184 0v1081h463q77 0 148 -12q76 -12 129 -43q57 -33 90 -82q33 -51 33 -133q0 -57 -17 -92q-23 -47 -49 -72q-35 -31 -69.5 -47t-88.5 -27v-8q57 -6 103 -24q53 -20 82 -47q33 -29 55 -76q18 -37 18 -107q0 -77 -30 -135q-33 -61 -84 -98q-53 -39 -131 -58 q-86 -20 -166 -20h-486zM365 133h276q66 0 117 10q45 8 76 31q31 20 43 57q14 39 14 80q0 53 -14 84q-16 37 -46 58q-35 25 -81 32q-55 10 -121 11h-264v-363zM365 625h256q63 0 114 10q41 8 72 29q27 18 39 48.5t12 73.5q0 84 -51 121q-52 37 -172 37h-270v-319z" />
<glyph unicode="&#x433;" d="M264 0v1081h787v-141h-607v-940h-180z" />
<glyph unicode="&#x434;" d="M23 141h118q20 31 39 76q31 72 39 96q27 80 39 127q27 100 39 164q29 139 39 211l37 266h622v-940h148v-549h-164v408h-795v-408h-161v549zM324 141h507v799h-317q-29 -209 -47 -305q-25 -129 -49 -221q-31 -113 -47 -158q-20 -56 -47 -115z" />
<glyph unicode="&#x435;" d="M133 549q0 158 39 262q39 106 107 170q66 63 155.5 92t181.5 29q137 0 222 -41q90 -43 147 -119q61 -80 84 -180q25 -106 25 -236v-22h-772q0 -80 20 -158q18 -71 55 -123q35 -51 95 -80q57 -29 131 -28q57 0 102 12t84 35q35 20 61.5 53t36.5 66l158 -45 q-12 -39 -47 -91q-27 -41 -86 -82q-47 -33 -129 -59q-78 -25 -180 -24q-113 0 -205 36.5t-156 106.5q-61 68 -96 178q-33 105 -33 248zM324 641h583q-10 96 -32.5 157.5t-65.5 100.5t-86 53q-53 16 -104.5 16.5t-96.5 -14.5q-53 -16 -94 -51t-72 -100q-28 -62 -32 -162z" />
<glyph unicode="&#x436;" d="M0 0l336 608q-33 39 -47 58q-29 37 -64 92l-215 323h178l148 -237q25 -41 59 -88q43 -57 49 -64q27 -25 48 -41q23 -16 45 -24v454h153v-454q27 10 47 24q20 16 47 41q6 6 50 64q35 47 59 88l147 237h179l-218 -323q-68 -104 -110 -150l336 -608h-185l-254 516 q-2 0 -6 -3t-8 -5q-2 -2 -6 -3t-8 -3l-8 -4q-14 -8 -29 -11q-6 0 -16.5 -4t-16.5 -4v-479h-153v479q-4 0 -14.5 4t-16.5 4q-14 2 -29 11q-4 2 -12 5t-12 5q-2 2 -9 5l-6 3l-252 -516h-186z" />
<glyph unicode="&#x437;" d="M137 233l160 46q12 -43 35 -70q23 -29 61 -51q33 -18 90 -33q43 -10 123 -10q133 0 198.5 47t65.5 137q0 55 -39 98q-37 41 -94 62q-58 22 -129 30q-78 10 -135 11v137q66 0 133 6q57 4 121 27q55 18 90 53t35 86q0 74 -59.5 117t-188.5 43q-37 0 -98 -8q-41 -6 -82 -23 q-39 -16 -59 -43q-23 -29 -29 -72l-162 21q25 137 131 198q104 59 301 60q106 0 182 -21q78 -20 136 -59q55 -37 84 -90q27 -51 26 -115q0 -57 -24.5 -100t-67.5 -76q-35 -27 -88 -47q-43 -16 -92 -23v-2q59 -6 110 -26q57 -23 97 -54q41 -33 67 -81q25 -46 25 -105 q0 -72 -27 -127q-31 -63 -82 -104q-55 -43 -141 -67.5t-209 -24.5q-96 0 -178 16q-76 14 -133 47q-55 31 -92 80q-46 59 -62 110z" />
<glyph unicode="&#x438;" d="M184 0v1081h174v-592v-61l-4 -80q0 -14 -1 -39.5t-1 -38.5q0 -14 -2 -32.5t-2 -24.5l500 868h196v-1081h-172v659q0 6 1 21.5t1 26.5q0 8 1.5 28.5t1.5 30.5q0 23 4 59q2 18 2 47l-506 -872h-193z" />
<glyph unicode="&#x439;" d="M184 0v1081h174v-592v-61l-4 -80q0 -14 -1 -39.5t-1 -38.5q0 -14 -2 -32.5t-2 -24.5l500 868h196v-1081h-172v659q0 6 1 21.5t1 26.5q0 8 1.5 28.5t1.5 30.5q0 23 4 59q2 18 2 47l-506 -872h-193zM248 1460h166q4 -49 16 -71q16 -29 41 -48q20 -16 62 -22q49 -8 84 -8 q33 0 82 8q41 6 61 22q25 18 41 48q14 27 18 71h164q-4 -59 -22 -104q-23 -51 -64 -84q-43 -35 -112 -53q-68 -18 -168 -19q-102 0 -170 19q-70 18 -113 53q-41 33 -63 84q-19 45 -23 104z" />
<glyph unicode="&#x43a;" d="M217 0v1081h180v-473q55 0 95 8q41 8 81 31q31 16 78 64q41 41 82 102l180 268h195l-227 -323q-47 -70 -90 -113q-31 -31 -60 -51l385 -594h-205l-315 510q-23 -10 -43 -16q-33 -8 -51 -11l-53 -6q-37 -4 -52 -4v-473h-180z" />
<glyph unicode="&#x43b;" d="M6 -6v129q2 0 12.5 -3t18.5 -5q12 -2 37 -2q33 0 55 20q25 23 47 70q18 41 39 121q18 72 37 182q27 154 41 250l45 325h711v-1081h-183v940h-381l-45 -326q-29 -188 -41 -249q-18 -98 -47 -181q-23 -70 -59 -118q-31 -43 -80 -66q-43 -20 -113 -20q-20 0 -53 4 q-16 2 -41 10z" />
<glyph unicode="&#x43c;" d="M102 0v1081h250l201 -641q18 -63 20 -69l19 -80q12 -53 16 -80q0 -6 5 -33.5t8 -42.5q8 49 12 76q4 33 16 82q12 53 19 78q2 8 20 69l201 641h237v-1081h-151v725v51q0 10 1 30.5t1 31.5q2 16 2 31.5v31.5q2 31 2 51l-285 -952h-151l-295 950q4 -33 4 -55v-61 q0 -16 1 -29.5t1 -28.5v-51v-725h-154z" />
<glyph unicode="&#x43d;" d="M180 0v1081h180v-456h508v456h181v-1081h-181v494h-508v-494h-180z" />
<glyph unicode="&#x43e;" d="M129 543q0 274 127 418q125 141 358 141q244 0 365 -139q119 -137 119 -420q0 -139 -35 -248t-96 -176q-65 -71 -154 -105q-92 -35 -205 -34q-104 0 -196 34q-90 35 -152 105q-63 74 -96 174q-35 109 -35 250zM319 543q0 -133 23 -209q25 -84 63.5 -131t92.5 -70 q49 -20 108.5 -20t120.5 20q57 18 96 67.5t62 133.5q23 86 22 209q0 127 -20 207q-23 86 -60 131q-43 51 -92 69q-52 18 -117 19q-68 0 -120 -21q-55 -20 -95 -69q-41 -49 -61 -131q-23 -86 -23 -205z" />
<glyph unicode="&#x43f;" d="M180 0v1081h869v-1081h-181v940h-508v-940h-180z" />
<glyph unicode="&#x440;" d="M178 1081h176l1 -3q1 -3 1 -7v-10t2 -21.5t2 -23.5t1 -26.5t1 -29t1.5 -30t1.5 -27.5h4q27 55 55 90q33 39 72 64q33 20 90 35q49 12 112 12q113 0 185 -39q74 -41 121 -115q43 -70 65 -176q20 -100 20.5 -227t-20.5 -228q-23 -113 -65 -180q-45 -74 -121 -116 q-74 -43 -185 -43q-49 0 -104 10q-45 8 -94 33q-37 18 -76 57q-37 37 -57 84h-5v-17q0 -4 1.5 -17t1.5 -21v-54q0 -10 1 -28.5t1 -28.5v-424h-183v1284v78q0 12 -1 33.5t-1 32t-1 28t-1 23.5q0 8 -1 17t-1 11zM367 524q0 -115 18 -194.5t53 -126.5t90 -70q49 -20 121 -20 q70 0 121 28q49 27 80 84q29 51 41 135q12 80 12 187q0 115 -10 178q-12 80 -43 131q-33 57 -78 82q-47 27 -121 27q-58 0 -110.5 -18.5t-91.5 -67.5q-37 -47 -60 -134q-22 -90 -22 -221z" />
<glyph unicode="&#x441;" d="M129 543q0 163 43 270q43 106 115 172q68 61 159 90q86 27 187 27q96 0 174 -25q74 -25 133 -69q55 -43 90 -103q35 -61 47 -127l-190 -12q-14 90 -80 143q-63 51 -182 52q-90 0 -146 -27q-57 -27 -94 -80q-35 -49 -51 -131q-14 -72 -15 -176q0 -106 15 -180 q16 -82 51 -136q39 -57 94 -84q61 -29 144 -28q109 0 180 53q70 51 88 162l188 -12q-9 -68 -43 -129q-37 -66 -90 -109q-66 -51 -135 -76q-82 -29 -180 -28q-135 0 -232 43q-100 45 -155 118q-58 77 -86 178q-29 105 -29 224z" />
<glyph unicode="&#x442;" d="M129 940v141h969v-141h-393v-940h-181v940h-395z" />
<glyph unicode="&#x443;" d="M66 1081h192l264 -641q18 -51 27 -67l31 -78l26 -70l15 -39q4 14 14 41l27 68q25 63 30 78l14.5 36.5l12.5 30.5l252 641h190l-456 -1081q-37 -98 -76 -176t-90 -135q-47 -53 -108.5 -84t-137.5 -31q-45 0 -64 2q-23 2 -61 10v135q25 -4 43 -4q8 0 21.5 -1t19.5 -1 q78 0 149 60q68 55 117 186l19 49z" />
<glyph unicode="&#x444;" d="M70 543q0 129 30 227q31 96 93 168q61 71 147 111q90 43 199 51v385h153v-385q236 -18 350.5 -157.5t114.5 -399.5q0 -131 -31 -230q-29 -94 -92 -170q-55 -68 -145 -108q-92 -43 -197 -51v-410h-153v410q-115 10 -195 47q-88 41 -147 108q-61 70 -95 170q-32 99 -32 234 zM258 542.5q0 -108.5 23 -188.5q20 -72 61 -127q39 -51 88 -75q51 -27 109 -35v846q-68 -10 -115 -35q-49 -27 -88 -78q-35 -47 -57 -125q-21 -74 -21 -182.5zM692 119q63 10 113 37q51 29 86 76t57 126q20 74 21 185q0 113 -21 186q-23 82 -55 125q-39 51 -88 76 q-51 25 -113 35v-846z" />
<glyph unicode="&#x445;" d="M94 0l416 555l-397 526h198l299 -419l299 419h201l-397 -524l420 -557h-201l-322 444l-321 -444h-195z" />
<glyph unicode="&#x446;" d="M176 0v1081h180v-950h506v950h180v-950h148v-539h-164v408h-850z" />
<glyph unicode="&#x447;" d="M154 672v409h180v-401q0 -29 10 -64q8 -29 35 -51t61 -35q37 -12 92 -12q20 0 74 4q23 2 78 10l80 19l78 18v512h180v-1081h-180v467q-57 -25 -84 -33q-61 -20 -96 -28q-70 -16 -107 -23q-49 -8 -106 -8q-147 0 -221 80t-74 217z" />
<glyph unicode="&#x448;" d="M102 0v1081h160v-950h273v950h159v-950h273v950h159v-1081h-1024z" />
<glyph unicode="&#x449;" d="M92 0v1081h160v-950h250v950h160v-950h247v950h160v-950h143v-539h-143v408h-977z" />
<glyph unicode="&#x44a;" d="M0 940v141h508v-456h227q205 0 309 -74q106 -76 107 -234q0 -70 -27 -133q-25 -57 -77 -98q-57 -43 -129 -63q-80 -23 -183 -23h-407v940h-328zM508 127h201q68 0 116 12q47 12 78 37t43 60q12 37 12 81q0 94 -57 138q-61 45 -190 45h-203v-373z" />
<glyph unicode="&#x44b;" d="M106 0v1081h164v-456h156q205 0 309.5 -74t104.5 -234q0 -70 -27 -133q-25 -57 -78 -98q-57 -43 -129 -63q-80 -23 -180 -23h-320zM270 127h156q65 0 111 12.5t73 36.5q31 27 41 60q14 43 15 81q0 92 -57.5 137.5t-182.5 45.5h-156v-373zM958 0v1081h164v-1081h-164z" />
<glyph unicode="&#x44c;" d="M205 0v1081h180v-456h264q207 0 311.5 -74t104.5 -234q0 -70 -27 -133q-25 -57 -77 -98q-57 -43 -130 -63q-80 -23 -180 -23h-446zM385 127h240q68 0 116 12q47 12 78 37q29 23 41 60q14 43 14 81q0 94 -59 138q-61 45 -190 45h-240v-373z" />
<glyph unicode="&#x44d;" d="M125 322l188 12q10 -55 33 -94q25 -40 62 -68q35 -27 84 -39q53 -14 100 -14q78 0 133 24q51 23 90 72q37 47 55 113q20 72 23 153h-381v131h381q-2 82 -23 150q-18 66 -55 108q-41 47 -92 68q-57 23 -133 23q-121 0 -187 -52q-72 -55 -86 -143l-190 12q18 76 49 127 q39 61 94 103q66 49 136 69q80 25 176 25q100 0 186 -27q92 -29 160 -90q70 -63 112 -172q43 -108 43 -270q0 -125 -26 -224q-28 -101 -86 -178q-55 -74 -156 -118q-94 -43 -231 -43q-100 0 -183 28q-78 27 -139 76q-55 43 -94 109q-33 55 -43 129z" />
<glyph unicode="&#x44e;" d="M70 0v1081h163v-456h170q10 127 41 209q35 92 86 149q55 61 119 90t144 29q76 0 149 -35q70 -33 121 -102q49 -68 82 -177q31 -104 31 -247.5t-27 -243.5q-27 -98 -80 -176q-51 -74 -121 -107q-74 -35 -155.5 -34.5t-155.5 34.5q-71 34 -123 99q-45 57 -80 161 q-29 92 -33 220h-168v-494h-163zM573 541q0 -117 21 -209q18 -82 49 -131q33 -51 68 -68q45 -20 77 -20q41 0 80 20.5t70 69.5q27 43 47 133q18 82 19 205q0 127 -21 207q-23 88 -51.5 133t-67.5 67q-35 20 -69 21q-40 0 -80 -19q-39 -18 -72 -69q-31 -49 -49 -131 q-21 -92 -21 -209z" />
<glyph unicode="&#x44f;" d="M70 0l344 471q-135 29 -191 109q-59 84 -59 202q0 152 108.5 225.5t315.5 73.5h432v-1081h-180v459h-252l-316 -459h-202zM354 770q0 -94 54 -141q51 -45 178 -45h254v370h-236q-129 0 -188 -45q-62 -45 -62 -139z" />
<glyph unicode="&#x451;" d="M133 549q0 158 39 262q39 106 107 170q66 63 155.5 92t181.5 29q137 0 222 -41q90 -43 147 -119q61 -80 84 -180q25 -106 25 -236v-22h-772q0 -80 20 -158q18 -71 55 -123q35 -51 95 -80q57 -29 131 -28q57 0 102 12t84 35q35 20 61.5 53t36.5 66l158 -45 q-12 -39 -47 -91q-27 -41 -86 -82q-47 -33 -129 -59q-78 -25 -180 -24q-113 0 -205 36.5t-156 106.5q-61 68 -96 178q-33 105 -33 248zM324 641h583q-10 96 -32.5 157.5t-65.5 100.5t-86 53q-53 16 -104.5 16.5t-96.5 -14.5q-53 -16 -94 -51t-72 -100q-28 -62 -32 -162z M344 1219v184h164v-184h-164zM737 1219v184h164v-184h-164z" />
<glyph unicode="&#x452;" d="M53 1196v131h131v158h183v-158h299v-131h-299v-131q0 -37 -5 -102l-4 -51.5t-2 -45.5h4q29 55 56 86q25 29 73 64q35 25 93 41q49 14 116 14q88 0 150 -20q57 -18 108 -70q45 -45 70 -117q23 -66 23 -174v-823q0 -59 -11 -117q-9 -52 -36.5 -92t-73.5 -61 q-49 -23 -119 -23q-43 0 -66 2q-41 4 -61 8v140q4 -2 14.5 -3.5t16.5 -1.5q12 -2 30 -2q37 0 64 11q25 9 37 30.5t18 55t6 80.5v772q0 76 -16 131q-14 49 -47 82q-31 31 -70 43t-88 12q-55 0 -110 -23q-45 -18 -88 -65q-40 -43 -62 -105q-23 -63 -22 -143v-598h-181v1196 h-131z" />
<glyph unicode="&#x453;" d="M264 0v1081h787v-141h-607v-940h-180zM548 1200v21l228 239h196v-28l-299 -232h-125z" />
<glyph unicode="&#x454;" d="M145 543q0 163 43 270q43 109 113 172q66 61 162 90q86 27 184 27q96 0 176 -25q74 -23 138 -69q51 -37 92 -103q39 -63 51 -127l-193 -12q-14 88 -86 143q-66 51 -186 52q-76 0 -133 -23q-51 -20 -92 -68q-33 -39 -54 -108q-18 -63 -24 -150h383v-131h-383 q6 -96 22 -153q18 -66 56 -113q39 -49 90 -72q55 -25 135 -24q47 0 100 14q47 12 82 39q37 28 62 68q23 39 32 94l191 -12q-10 -70 -45 -129q-39 -66 -94 -109q-61 -49 -140 -76q-82 -29 -182 -28q-137 0 -231 43q-100 45 -156 118q-58 77 -86 178q-27 99 -27 224z" />
<glyph unicode="&#x455;" d="M168 248l158 31q12 -53 38.5 -86t63.5 -52q31 -16 86 -22q33 -4 107 -4q66 0 108 8q51 10 84 29q37 23 57 53q20 33 21 80q0 49 -24.5 79.5t-69.5 53.5q-35 16 -105 35q-35 8 -69.5 17l-63.5 17q-115 33 -127 37q-74 25 -113 51q-47 33 -79 84q-29 45 -29 127 q0 150 104 230q109 84 308 84q84 0 147 -15q68 -16 125 -47q51 -29 90 -80q33 -43 49 -118l-162 -21q-6 45 -28 74q-20 27 -57 43t-76 22q-43 6 -88 7q-244 0 -244 -152q0 -47 20 -74q23 -29 62 -47q51 -25 92 -33l119 -30q68 -16 133 -37q72 -23 125 -55q57 -35 94 -90.5 t37 -137.5q0 -76 -31 -137t-86 -104q-57 -45 -137 -66q-86 -23 -186 -22q-80 0 -170 14q-66 10 -132 45q-55 29 -96 82q-37 47 -55 127z" />
<glyph unicode="&#x456;" d="M143 0v141h422v799h-319v141h499v-940h379v-141h-981zM545 1292v193h200v-193h-200z" />
<glyph unicode="&#x457;" d="M143 0v141h422v799h-319v141h499v-940h379v-141h-981zM377 1219v184h164v-184h-164zM770 1219v184h164v-184h-164z" />
<glyph unicode="&#x458;" d="M117 -242q18 -6 53 -12q12 -2 33.5 -5t32.5 -5q27 -4 75 -8q53 -4 78 -4q59 0 105 14q51 16 86 45q31 27 55 78q20 43 20 114v965h-405v141h586v-1110q0 -113 -35 -184q-37 -78 -94.5 -123t-137.5 -67.5t-163 -22.5q-29 0 -82 4q-35 2 -80 10q-25 4 -70 13q-27 4 -57 16 v141zM637 1292v193h199v-193h-199z" />
<glyph unicode="&#x459;" d="M25 -8v129q29 -8 59 -8q33 0 57 18q27 18 41 68q18 55 29 131q12 84 25 211l53 540h456v-456h52q186 0 290.5 -74t104.5 -234q0 -70 -27 -133q-23 -55 -75 -98q-51 -43 -125 -63q-78 -23 -168 -23h-207v961h-164l-41 -443q-15 -160 -37 -264q-23 -109 -51.5 -166 t-77.5 -84q-46 -25 -110 -24q-23 0 -47.5 4t-36.5 8zM745 117h52q63 0 104 14q47 16 72 41q31 29 41 64q12 37 12 81q0 94 -55.5 143.5t-173.5 49.5h-52v-393z" />
<glyph unicode="&#x45a;" d="M92 0v1081h154v-456h332v456h153v-456h53q207 0 311.5 -74t104.5 -234q0 -70 -26 -133q-25 -57 -78 -98q-57 -43 -129 -63q-80 -23 -181 -23h-208v504h-332v-504h-154zM731 117h53q72 0 117 14q49 16 78 41q31 29 43 64q12 37 12 81q0 94 -57 144q-58 49 -191 49h-55 v-393z" />
<glyph unicode="&#x45b;" d="M53 1196v131h131v158h183v-158h299v-131h-299v-131q0 -37 -5 -102l-4 -51.5t-2 -45.5h4q29 55 56 86q25 29 73 64q35 25 93 41q49 14 116 14q88 0 150 -20q57 -18 108 -70q45 -45 70 -117q23 -66 23 -174v-690h-181v666q0 76 -16 131q-14 49 -47 82q-31 31 -70 43t-88 12 q-55 0 -110 -23q-45 -18 -88 -65q-40 -43 -62 -105q-23 -63 -22 -143v-598h-181v1196h-131z" />
<glyph unicode="&#x45c;" d="M217 0v1081h180v-473q55 0 95 8q41 8 81 31q31 16 78 64q41 41 82 102l180 268h195l-227 -323q-47 -70 -90 -113q-31 -31 -60 -51l385 -594h-205l-315 510q-23 -10 -43 -16q-33 -8 -51 -11l-53 -6q-37 -4 -52 -4v-473h-180zM507 1200v21l228 239h196v-28l-299 -232h-125z " />
<glyph unicode="&#x45e;" d="M66 1081h192l264 -641q18 -51 27 -67l31 -78l26 -70l15 -39q4 14 14 41l27 68q25 63 30 78l14.5 36.5l12.5 30.5l252 641h190l-456 -1081q-37 -98 -76 -176t-90 -135q-47 -53 -108.5 -84t-137.5 -31q-45 0 -64 2q-23 2 -61 10v135q25 -4 43 -4q8 0 21.5 -1t19.5 -1 q78 0 149 60q68 55 117 186l19 49zM246 1460h166q4 -49 16 -71q16 -29 41 -48q20 -16 62 -22q49 -8 84 -8q33 0 82 8q41 6 61 22q25 18 41 48q14 27 18 71h164q-4 -59 -22 -104q-23 -51 -64 -84q-43 -35 -112 -53q-68 -18 -168 -19q-102 0 -170 19q-70 18 -113 53 q-41 33 -63 84q-19 45 -23 104z" />
<glyph unicode="&#x45f;" d="M180 0v1081h180v-950h508v950h181v-1081h-353v-426h-164v426h-352z" />
<glyph unicode="&#x490;" d="M225 0v1350h738v356h180v-512h-725v-1194h-193z" />
<glyph unicode="&#x491;" d="M244 0v1081h622v404h164v-545h-606v-940h-180z" />
<glyph unicode="&#x1e80;" d="M0 1350h188l111 -836q4 -25 8 -73t4 -54q2 -14 5 -53t6 -58q8 -84 10 -108q8 33 15 66.5l15 68.5q2 12 6.5 27.5t8.5 31.5q6 31 14 62l15 57q4 14 8 29.5t6 21.5l108 400h174l109 -400q2 -6 6 -20t8 -31q6 -29 15 -57q2 -10 7 -29.5t7 -29.5l8 -32t6 -28l15.5 -69.5 t15.5 -67.5q2 12 4 35l8 84q2 27 6.5 56.5t6.5 55.5q4 41 12 115l102 836h191l-211 -1350h-207l-104 387q-2 8 -5.5 19.5l-7.5 25.5q-6 27 -14 55l-16 62q-8 31 -15 61l-33 146l-34 -148q-6 -31 -15 -61l-16 -60q-4 -14 -14 -55q-2 -12 -6.5 -23.5t-6.5 -21.5l-104 -387 h-209zM342 1678v28h197l227 -239v-21h-123z" />
<glyph unicode="&#x1e81;" d="M20 1081h179l94 -606q2 -25 8 -67q2 -16 5 -46t5 -45l11 -94q4 -61 4 -73l20 86q4 14 6 24t6 21.5t8.5 26l10.5 33.5t6 21l135 424h193l131 -424q4 -14 14 -55q8 -27 18 -71q14 -49 23 -86q0 43 2 73q2 35 10 94l13 91l5 36.5t5 30.5l100 606h176l-190 -1081h-205 l-141 471l-19 61q-14 47 -18 66q-6 18 -21 76q-12 -49 -20 -74q-14 -53 -18.5 -67.5l-11.5 -38t-9 -27.5l-147 -467h-203zM280 1432v28h197l227 -239v-21h-123z" />
<glyph unicode="&#x1e82;" d="M0 1350h188l111 -836q4 -25 8 -73t4 -54q2 -14 5 -53t6 -58q8 -84 10 -108q8 33 15 66.5l15 68.5q2 12 6.5 27.5t8.5 31.5q6 31 14 62l15 57q4 14 8 29.5t6 21.5l108 400h174l109 -400q2 -6 6 -20t8 -31q6 -29 15 -57q2 -10 7 -29.5t7 -29.5l8 -32t6 -28l15.5 -69.5 t15.5 -67.5q2 12 4 35l8 84q2 27 6.5 56.5t6.5 55.5q4 41 12 115l102 836h191l-211 -1350h-207l-104 387q-2 8 -5.5 19.5l-7.5 25.5q-6 27 -14 55l-16 62q-8 31 -15 61l-33 146l-34 -148q-6 -31 -15 -61l-16 -60q-4 -14 -14 -55q-2 -12 -6.5 -23.5t-6.5 -21.5l-104 -387 h-209zM503 1446v21l228 239h196v-28l-299 -232h-125z" />
<glyph unicode="&#x1e83;" d="M20 1081h179l94 -606q2 -25 8 -67q2 -16 5 -46t5 -45l11 -94q4 -61 4 -73l20 86q4 14 6 24t6 21.5t8.5 26l10.5 33.5t6 21l135 424h193l131 -424q4 -14 14 -55q8 -27 18 -71q14 -49 23 -86q0 43 2 73q2 35 10 94l13 91l5 36.5t5 30.5l100 606h176l-190 -1081h-205 l-141 471l-19 61q-14 47 -18 66q-6 18 -21 76q-12 -49 -20 -74q-14 -53 -18.5 -67.5l-11.5 -38t-9 -27.5l-147 -467h-203zM495 1200v21l228 239h196v-28l-299 -232h-125z" />
<glyph unicode="&#x1e84;" d="M0 1350h188l111 -836q4 -25 8 -73t4 -54q2 -14 5 -53t6 -58q8 -84 10 -108q8 33 15 66.5l15 68.5q2 12 6.5 27.5t8.5 31.5q6 31 14 62l15 57q4 14 8 29.5t6 21.5l108 400h174l109 -400q2 -6 6 -20t8 -31q6 -29 15 -57q2 -10 7 -29.5t7 -29.5l8 -32t6 -28l15.5 -69.5 t15.5 -67.5q2 12 4 35l8 84q2 27 6.5 56.5t6.5 55.5q4 41 12 115l102 836h191l-211 -1350h-207l-104 387q-2 8 -5.5 19.5l-7.5 25.5q-6 27 -14 55l-16 62q-8 31 -15 61l-33 146l-34 -148q-6 -31 -15 -61l-16 -60q-4 -14 -14 -55q-2 -12 -6.5 -23.5t-6.5 -21.5l-104 -387 h-209zM336 1446v184h164v-184h-164zM729 1446v184h164v-184h-164z" />
<glyph unicode="&#x1e85;" d="M20 1081h179l94 -606q2 -25 8 -67q2 -16 5 -46t5 -45l11 -94q4 -61 4 -73l20 86q4 14 6 24t6 21.5t8.5 26l10.5 33.5t6 21l135 424h193l131 -424q4 -14 14 -55q8 -27 18 -71q14 -49 23 -86q0 43 2 73q2 35 10 94l13 91l5 36.5t5 30.5l100 606h176l-190 -1081h-205 l-141 471l-19 61q-14 47 -18 66q-6 18 -21 76q-12 -49 -20 -74q-14 -53 -18.5 -67.5l-11.5 -38t-9 -27.5l-147 -467h-203zM336 1219v184h164v-184h-164zM729 1219v184h164v-184h-164z" />
<glyph unicode="&#x1ef2;" d="M37 1350h205l372 -613l373 613h205l-483 -766v-584h-189v584zM331 1678v28h197l227 -239v-21h-123z" />
<glyph unicode="&#x1ef3;" d="M66 1081h192l264 -641q18 -51 27 -67l31 -78l26 -70l15 -39q4 14 14 41l27 68q25 63 30 78l14.5 36.5l12.5 30.5l252 641h190l-456 -1081q-37 -98 -76 -176t-90 -135q-47 -53 -108.5 -84t-137.5 -31q-45 0 -64 2q-23 2 -61 10v135q25 -4 43 -4q8 0 21.5 -1t19.5 -1 q78 0 149 60q68 55 117 186l19 49zM342 1432v28h197l227 -239v-21h-123z" />
<glyph unicode="&#x2000;" horiz-adv-x="851" />
<glyph unicode="&#x2001;" horiz-adv-x="1703" />
<glyph unicode="&#x2002;" horiz-adv-x="851" />
<glyph unicode="&#x2003;" horiz-adv-x="1703" />
<glyph unicode="&#x2004;" horiz-adv-x="567" />
<glyph unicode="&#x2005;" horiz-adv-x="425" />
<glyph unicode="&#x2006;" horiz-adv-x="282" />
<glyph unicode="&#x2007;" horiz-adv-x="282" />
<glyph unicode="&#x2008;" horiz-adv-x="212" />
<glyph unicode="&#x2009;" horiz-adv-x="339" />
<glyph unicode="&#x200a;" horiz-adv-x="92" />
<glyph unicode="&#x2010;" d="M334 465v160h561v-160h-561z" />
<glyph unicode="&#x2011;" d="M334 465v160h561v-160h-561z" />
<glyph unicode="&#x2012;" d="M334 465v160h561v-160h-561z" />
<glyph unicode="&#x2013;" d="M170 451v137h889v-137h-889z" />
<glyph unicode="&#x2014;" d="M-10 451v137h1247v-137h-1247z" />
<glyph unicode="&#x2015;" d="M-10 451v137h1247v-137h-1247z" />
<glyph unicode="&#x2017;" d="M-4 -125h1237v-94h-1237v94zM-4 -330h1237v-96h-1237v96z" />
<glyph unicode="&#x2018;" d="M397 862l312 623h122l-169 -623h-265z" />
<glyph unicode="&#x2019;" d="M399 862l168 623h267l-312 -623h-123z" />
<glyph unicode="&#x201a;" d="M348 -362l170 620h264l-311 -620h-123z" />
<glyph unicode="&#x201b;" d="M397 1485h267l167 -623h-122z" />
<glyph unicode="&#x201c;" d="M176 862l311 623h123l-168 -623h-266zM616 862l312 623h123l-170 -623h-265z" />
<glyph unicode="&#x201d;" d="M178 862l168 623h266l-311 -623h-123zM616 862l170 623h265l-312 -623h-123z" />
<glyph unicode="&#x201e;" d="M178 -365l168 623h266l-311 -623h-123zM616 -365l170 623h265l-312 -623h-123z" />
<glyph unicode="&#x2020;" d="M182 973v164l361 -21l-27 367h195l-27 -367l363 21v-164l-363 16l-12 -1202h-117l-12 1202z" />
<glyph unicode="&#x2021;" d="M182 133v166l361 -18l32 354l-32 354l-361 -16v164l361 -21l-27 367h195l-27 -367l363 21v-164l-363 16l-33 -354l33 -354l363 18v-166l-363 21l27 -367h-195l27 367z" />
<glyph unicode="&#x2022;" d="M336 682q0 55 22 106q25 55 58 88t88 58q51 23 106 22q53 0 109 -22q51 -20 90 -57q35 -33 59 -89q23 -51 23 -106q0 -53 -23 -109q-23 -57 -59 -90q-43 -41 -90 -59q-55 -23 -109 -23q-55 0 -106 22.5t-88 59.5q-35 35 -57.5 90.5t-22.5 108.5z" />
<glyph unicode="&#x2026;" d="M117 0v219h176v-219h-176zM528 0v219h172v-219h-172zM938 0v219h174v-219h-174z" />
<glyph unicode="&#x202f;" horiz-adv-x="339" />
<glyph unicode="&#x2030;" d="M0 1114q0 86 18 146q18 55 50 90q33 35 73 47q51 14 95 14q39 0 88 -14q41 -12 73 -47q31 -35 49 -90q18 -59 19 -146q0 -83 -18.5 -141.5t-49.5 -91.5q-33 -35 -75 -52q-45 -16 -90.5 -16t-90.5 16q-41 14 -73 52q-31 34 -49.5 92t-18.5 141zM2 395l584 639h145 l-584 -639h-145zM129 1114q0 -39 8 -88q6 -35 18.5 -57.5t34.5 -32.5q16 -8 43 -8q25 0 41 8q20 10 33 33q16 27 21 57q6 37 6 88q0 55 -6 92q-6 35 -19 58q-12 20 -33 30q-16 8 -40 9q-29 0 -48 -9q-20 -8 -32 -30q-12 -20 -19 -60q-8 -49 -8 -90zM258 301q0 84 18 143 q18 58 50 93q31 35 75 47q49 14 95 14q37 0 88 -14q41 -12 73 -47q31 -34 50 -93q18 -59 18 -143q0 -83 -18 -141q-18 -61 -49 -94t-76 -49.5t-90.5 -16.5t-90.5 16.5t-75.5 49t-49.5 94.5q-18 58 -18 141zM389 301q0 -51 6 -88q6 -33 21 -59q12 -20 32.5 -30.5t45.5 -10.5 q20 0 40.5 10t32.5 31q14 27 21 59q6 37 6 88q0 53 -6 90q-4 31 -21 58q-12 22 -30 30q-20 10 -43 10q-25 0 -45.5 -10t-32.5 -30q-16 -27 -21 -58q-6 -37 -6 -90zM764 301q0 84 18 143q18 58 49 93t76 47q51 14 92 14q37 0 88 -14q41 -12 74 -47q31 -34 49 -93t19 -143 q0 -83 -19 -141q-18 -61 -49 -94q-31 -34 -74 -50q-45 -16 -92 -16q-45 0 -90 16q-43 15 -74 50q-31 33 -49 94q-18 58 -18 141zM895 301q0 -51 6 -88q6 -39 19 -59q10 -18 34 -31q20 -10 43 -10t43 10q18 9 31 31q14 27 21 59q8 49 8 88q0 41 -8 90q-6 35 -19 58 q-12 22 -31 30q-20 10 -42.5 10t-47.5 -10q-20 -8 -32.5 -30.5t-18.5 -57.5q-6 -37 -6 -90z" />
<glyph unicode="&#x2032;" d="M502 1485h223l-41 -639h-141z" />
<glyph unicode="&#x2033;" d="M276 1485h226l-43 -639h-142zM725 1485h225l-43 -639h-141z" />
<glyph unicode="&#x2039;" d="M346 506v63l336 371h176v-31l-334 -372l336 -367v-29h-178z" />
<glyph unicode="&#x203a;" d="M367 141v29l338 367l-336 372v31h176l336 -371v-63l-336 -365h-178z" />
<glyph unicode="&#x203c;" d="M238 0v201h192v-201h-192zM240 1348h194l-22 -951h-150zM795 0v201h192v-201h-192zM797 1348h194l-22 -951h-150z" />
<glyph unicode="&#x203e;" d="M-4 1546h1237v-94h-1237v94z" />
<glyph unicode="&#x2044;" d="M205 0l702 1350h115l-700 -1350h-117z" />
<glyph unicode="&#x2215;" d="M205 0l702 1350h115l-700 -1350h-117z" />
<glyph unicode="&#x205f;" horiz-adv-x="425" />
<glyph unicode="&#x207f;" d="M356 1169h119l1 -6q1 -6 1 -10t1 -14.5t1 -16.5q0 -8 1 -16t1 -19v-28h2q16 31 35 51q23 27 43 39q23 14 57 25q27 8 74 8q109 0 158 -55.5t49 -174.5v-434h-129v400q0 45 -6 75q-6 33 -21 49q-14 18 -38 27q-23 8 -60 8q-68 0 -113 -51q-43 -49 -43 -143v-365h-129v512 v43v43q0 8 -1 19.5t-1 15.5q0 6 -1 12z" />
<glyph unicode="&#x20a3;" d="M35 258v129h174v963h891v-156h-701v-444h676v-158h-676v-205h392v-129h-392v-258h-190v258h-174z" />
<glyph unicode="&#x20a4;" d="M80 463v141h186v154h-186v139h186v78q0 90 25 164q25 76 71 125q49 51 127 79q74 27 179 27q74 0 131 -14q66 -16 112 -43q41 -23 84 -74q35 -41 54 -98l-175 -58q-10 33 -28 58q-18 23 -47 43q-33 23 -58 28q-37 10 -69 11q-115 0 -170 -58t-56 -184v-84h408v-139h-408 v-154h408v-141h-408v-6q0 -109 -45 -187q-43 -72 -125 -116h484q41 0 71.5 8t59.5 31q27 20 45 55q16 31 27 82l163 -19q-8 -76 -39 -139q-25 -53 -71 -96q-41 -39 -103 -58q-57 -18 -125 -18h-698v154q41 20 78 47q35 25 55 57q25 39 33 76q10 47 10 104v25h-186z" />
<glyph unicode="&#x20a7;" d="M45 0v1350h211q160 0 244 -84q82 -82 82 -250q0 -82 -21 -144q-23 -70 -59 -114q-39 -47 -99 -76q-61 -29 -137 -29h-59v-653h-162zM207 795h63q76 0 113 57t37 160q0 61 -10 92q-12 39 -33 59q-27 27 -49 33q-35 10 -66 10h-55v-411zM444 553v96h91l59 144h72v-144h147 v-96h-147v-383q0 -80 67 -80q35 0 72 8v-98q-2 0 -47 -6q-33 -4 -56 -4q-82 0 -127 41q-41 39 -40 121v401h-91zM836 154l106 16q6 -27 14 -43q10 -20 19 -29q10 -10 20 -12q16 -4 25 -4q25 0 43 18q16 16 16 60q0 33 -22 65q-25 35 -70 66q-6 4 -15 11l-17.5 13.5 l-16.5 12.5q-33 29 -47 45q-18 20 -33 57q-12 31 -12 70q0 43 12 73q10 27 39 52q25 23 57 30q31 8 72 9q72 0 115 -43q41 -41 51 -115l-109 -12q-6 45 -22 61q-18 18 -37 18q-31 0 -43 -18t-12 -55q0 -39 26 -66q37 -37 78 -63q41 -29 45 -33q20 -16 41 -45q25 -33 33 -53 q12 -31 12 -68q0 -82 -49 -131q-51 -51 -137 -51q-76 0 -123 41t-59 123z" />
<glyph unicode="&#x20ac;" d="M90 461v143h121q-4 29 -4 39v37v43q0 10 4 35h-121v141h129q29 233 156 352q129 119 354 119q57 0 107 -6q45 -6 96 -23q61 -20 90 -34q39 -18 86 -54l-82 -139q-59 45 -127 72q-70 29 -156 28q-74 0 -129 -14q-59 -16 -98 -49q-45 -39 -67 -96q-25 -61 -37 -158h460 v-139h-475v-37q0 -8 -1 -20.5t-1 -20.5q0 -35 4 -76h473v-141h-458q10 -86 28 -139q23 -66 60 -105q39 -43 96 -63q55 -20 139 -21q55 0 94 8q47 10 82 25q41 16 70 33q12 6 34.5 20.5t29.5 18.5l75 -136q-57 -37 -86 -51q-53 -27 -92 -39q-53 -16 -100 -24 q-61 -10 -117 -10q-117 0 -209 34q-88 35 -151 97q-57 57 -97 151q-37 88 -49 199h-131z" />
<glyph unicode="&#x2105;" d="M0 942q0 119 20 195q20 78 60 129q37 49 88 71.5t106.5 22.5t94.5 -21q40 -22 67 -55q33 -39 49.5 -82t26.5 -100l-143 -12q-10 72 -31 114q-22 43 -68 43q-63 0 -94 -78q-31 -76 -31 -225q0 -45 9 -119q6 -51 22 -98q14 -39 41 -65q25 -25 55 -25q37 0 66 41 q27 37 39 127l139 -8q-6 -55 -24 -105q-20 -57 -48 -88q-33 -41 -71 -59q-45 -23 -97 -23q-72 0 -124 31t-86 86q-33 55 -50 133q-16 82 -16 170zM205 0l702 1350h115l-700 -1350h-117zM694 403q0 127 21 203q23 82 57 129q37 49 84 69.5t107 20.5q55 0 102 -20 q51 -23 86 -70t57 -129q20 -76 21 -203q0 -117 -21 -192q-20 -78 -59 -129t-86 -72q-51 -23 -105 -22q-51 0 -102 22q-45 20 -84 72q-35 47 -57 129q-21 75 -21 192zM842 403q0 -90 8 -141q10 -66 22 -94q16 -39 37 -53q23 -16 51.5 -16.5t51.5 16.5q20 14 37 53 q16 37 24 94q8 51 8 141q0 70 -8 148q-6 57 -22 96q-14 35 -37 51.5t-51 16.5q-31 0 -54 -17q-25 -16 -39 -53q-16 -41 -22 -94q-6 -60 -6 -148z" />
</font>
</defs>
</svg>
