<?xml version="1.0" standalone="no"?>
<!DOCTYPE svg PUBLIC "-//W3C//DTD SVG 1.1//EN" "http://www.w3.org/Graphics/SVG/1.1/DTD/svg11.dtd" >
<svg xmlns="http://www.w3.org/2000/svg">
<metadata>
This is a custom SVG webfont generated by Font Squirrel.
Copyright   : Copyright c 2003 by Bitstream Inc All Rights ReservedCopyright c 2006 by Tavmjong Bah All Rights ReservedDejaVu changes are in public domain
Foundry     : DejaVu fonts team
Foundry URL : httpdejavusourceforgenet
</metadata>
<defs>
<font id="webfontb3pOHoOq" horiz-adv-x="1542" >
<font-face units-per-em="2048" ascent="1556" descent="-492" />
<missing-glyph horiz-adv-x="638" />
<glyph unicode="&#xfb00;" horiz-adv-x="1533" d="M92 864l45 256h160l12 78q34 184 142 270q106 88 299 88h245l-41 -235h-178q-70 0 -98 -27q-33 -27 -45 -96l-15 -78h369l14 78q31 184 140 270q106 88 301 88h246l-41 -235h-179q-72 0 -100 -27q-33 -29 -45 -96l-12 -78h274l-45 -256h-274l-152 -864h-321l149 864h-369 l-149 -864h-324l152 864h-160z" />
<glyph unicode="&#xfb01;" horiz-adv-x="1449" d="M92 864l45 256h158l14 78q33 184 140 272q104 86 299 86h247l-43 -235h-176q-70 0 -98 -27q-31 -27 -43 -96l-17 -78h777l-197 -1120h-321l149 864h-451l-151 -864h-324l152 864h-160zM1096 1264l51 292h323l-51 -292h-323z" />
<glyph unicode="&#xfb02;" horiz-adv-x="1449" d="M92 864l45 256h158l14 78q33 184 140 272q104 86 299 86h722l-272 -1556h-321l227 1321h-328q-70 0 -98 -27q-31 -27 -43 -96l-17 -78h275l-45 -256h-273l-151 -864h-324l152 864h-160z" />
<glyph unicode="&#xfb03;" horiz-adv-x="2095" d="M92 864l45 256h160l12 78q34 184 142 270q106 88 299 88h245l-41 -235h-178q-70 0 -98 -27q-33 -27 -45 -96l-15 -78h369l14 78q31 184 140 270q106 88 301 88h246l-41 -235h-179q-70 0 -98 -27q-31 -27 -43 -96l-14 -78h690l-197 -1120h-325l151 864h-364l-152 -864 h-323l149 864h-369l-149 -864h-324l152 864h-160zM1704 1264l49 292h326l-51 -292h-324z" />
<glyph unicode="&#xfb04;" horiz-adv-x="2097" d="M92 864l45 256h160l12 78q34 184 142 270q106 88 299 88h245l-41 -235h-178q-70 0 -98 -27q-33 -27 -45 -96l-15 -78h369l14 78q31 184 140 270q106 88 301 88h639l-273 -1556h-325l231 1321h-246q-72 0 -100 -27q-33 -29 -45 -96l-12 -78h252l-45 -256h-252l-152 -864 h-321l149 864h-369l-149 -864h-324l152 864h-160z" />
<glyph unicode=" "  horiz-adv-x="638" />
<glyph unicode="&#x09;" horiz-adv-x="638" />
<glyph unicode="&#xa0;" horiz-adv-x="638" />
<glyph unicode="!" horiz-adv-x="839" d="M127 0l63 356h324l-61 -356h-326zM262 502l25 418l102 573h326l-103 -573l-118 -418h-232z" />
<glyph unicode="&#x22;" horiz-adv-x="958" d="M176 938v555h213v-555h-213zM571 938v555h213v-555h-213z" />
<glyph unicode="#" horiz-adv-x="1280" d="M121 383l47 215h252l63 274h-254l47 213h256l86 385h201l-86 -385h238l88 385h198l-88 -385h269l-47 -213h-269l-61 -274h266l-47 -215h-266l-86 -383h-201l86 383h-235l-89 -383h-198l86 383h-256zM621 598h237l64 274h-238z" />
<glyph unicode="$" horiz-adv-x="1280" d="M49 86l45 262q88 -57 182 -86q102 -33 207 -35l56 312q-188 31 -277 112q-86 80 -86 223q0 199 135 322q133 121 365 131l41 229h143l-39 -227q102 -6 176 -22q88 -18 164 -45l-45 -254q-61 39 -141 61q-86 25 -195 31l-51 -289q193 -37 285 -117t92 -215 q0 -221 -135 -346q-133 -123 -381 -133l-53 -301h-146l53 301q-121 6 -213 27q-96 20 -182 59zM469 948q0 -45 31 -76q27 -27 90 -36l45 262q-76 -10 -121 -49.5t-45 -100.5zM629 227q90 6 137 47t47 119q0 55 -31 80q-33 27 -102 39z" />
<glyph unicode="%" horiz-adv-x="1845" d="M102 1018q0 223 119 362.5t314 139.5q139 0 225 -86t86 -226q0 -223 -121 -362t-311 -139q-141 0 -228 86q-84 84 -84 225zM258 -29l1112 1549h219l-1110 -1549h-221zM330 1051q0 -88 28 -133q27 -43 82 -44q80 0 127 84q49 86 49 222q0 88 -26 129q-29 43 -82 43 q-82 0 -129 -84q-49 -86 -49 -217zM1004 285q0 223 118 360q121 139 312 139q141 0 227 -86q84 -84 84 -225q0 -225 -119 -362q-121 -139 -311 -140q-141 0 -228 86q-83 85 -83 228zM1231 315q0 -86 29 -131q27 -43 81 -43q80 0 129 84q49 82 50 219q0 84 -29 129 q-29 43 -82 43q-80 0 -129 -84q-49 -82 -49 -217z" />
<glyph unicode="&#x26;" horiz-adv-x="1605" d="M51 416q0 154 86 278q86 127 266 240q-23 47 -34 90q-12 45 -13 92q0 176 138 291q133 113 350 113q88 0 168 -15q86 -15 178 -43l-49 -278q-78 49 -150 71q-74 23 -141 23q-77 0 -123 -37q-45 -37 -45 -96q0 -41 27 -96q29 -61 79 -134l269 -374q59 70 96 151 q41 94 66 203h278q-35 -168 -108 -317q-70 -141 -181 -256l232 -322h-396l-75 106q-115 -72 -211 -102q-104 -33 -217 -33q-219 0 -354.5 123t-135.5 322zM371 483q0 -104 69 -180q68 -74 170 -74q57 0 107 21q53 23 106 63l-305 430q-76 -57 -110 -118q-37 -68 -37 -142z " />
<glyph unicode="'" horiz-adv-x="563" d="M176 938v555h213v-555h-213z" />
<glyph unicode="(" horiz-adv-x="841" d="M141 373q0 293 115 590q113 293 344 591h262q-209 -310 -313 -614q-102 -299 -103 -608q0 -147 25 -299q25 -147 74 -303h-262q-74 176 -107 325q-35 164 -35 318z" />
<glyph unicode=")" horiz-adv-x="841" d="M-49 -270q209 310 313 614q102 299 103 610q0 152 -25 299.5t-74 300.5h264q74 -176 105 -323q33 -156 33 -320q0 -299 -113 -592q-114 -295 -344 -589h-262z" />
<glyph unicode="*" horiz-adv-x="962" d="M37 870l301 174l-301 173l67 141l302 -182v344h153v-344l299 182l70 -141l-297 -173l297 -174l-70 -141l-299 184v-344h-153v344l-302 -184z" />
<glyph unicode="+" d="M195 524v236h471v524h213v-524h471v-236h-471v-524h-213v524h-471z" />
<glyph unicode="," horiz-adv-x="698" d="M-63 -291l157 373l53 305h324l-53 -305l-289 -373h-192z" />
<glyph unicode="-" horiz-adv-x="763" d="M45 444l53 291h566l-52 -291h-567z" />
<glyph unicode="." horiz-adv-x="698" d="M86 0l68 387h323l-67 -387h-324z" />
<glyph unicode="/" horiz-adv-x="671" d="M-176 -190l768 1683h209l-768 -1683h-209z" />
<glyph unicode="0" horiz-adv-x="1280" d="M68 510q0 199 49 385q49 188 137 328q96 152 219 223q129 74 289 74q215 0 336 -140q119 -137 119 -397q0 -200 -50 -387q-49 -186 -139 -330q-94 -150 -219 -221q-129 -74 -287 -74q-221 0 -338 140q-116 138 -116 399zM401 451q0 -111 37 -164.5t113 -53.5q72 0 123 46 q53 47 90 135q23 57 45 143q18 70 39 191q8 43 22 163q8 66 9 129q0 115 -35 164q-37 53 -113 53q-68 0 -123 -45t-88 -135q-28 -65 -49 -147q-27 -100 -39 -182q-8 -49 -22 -166q-9 -68 -9 -131z" />
<glyph unicode="1" horiz-adv-x="1280" d="M80 0l47 266h305l168 965l-326 -72l45 262l326 72h330l-213 -1227h305l-47 -266h-940z" />
<glyph unicode="2" horiz-adv-x="1280" d="M14 0l52 285l571 479q90 76 141 162q49 83 49 159q0 82 -49 127q-47 45 -141 45q-80 0 -191 -38q-102 -37 -237 -115l57 317q123 49 240 74t233 25q207 0 324 -98.5t117 -268.5q0 -145 -72 -266t-317 -324l-336 -280h585l-51 -283h-975z" />
<glyph unicode="3" horiz-adv-x="1280" d="M0 45l51 297q80 -53 174 -80q98 -29 191 -29q152 0 239.5 63.5t87.5 170.5q0 90 -67 133q-72 45 -203 45h-137l45 248h145q141 0 223 57.5t82 153.5q0 78 -57 117t-166 39q-72 0 -166 -23q-92 -23 -186 -63l47 282q119 33 209 47q111 16 205 17q227 0 342 -84t115 -250 q0 -150 -80 -248q-82 -100 -224 -133q102 -25 158 -105q57 -82 57 -194q0 -246 -176 -391q-174 -143 -487 -144q-119 0 -223 19q-103 18 -199 55z" />
<glyph unicode="4" horiz-adv-x="1280" d="M-2 272l59 330l695 891h393l-166 -942h190l-47 -279h-190l-49 -272h-328l47 272h-604zM283 551h368l109 614z" />
<glyph unicode="5" horiz-adv-x="1280" d="M25 70l53 303q111 -78 192 -107q92 -33 193 -33q143 0 227 82q86 82 86 217q0 96 -65 152q-68 57 -176 57q-74 0 -164 -22q-102 -25 -193 -66l148 840h862l-49 -283h-586l-41 -231q41 12 82 18q43 6 86 7q207 0 324 -105q115 -102 114 -289q0 -295 -178 -467t-485 -172 q-111 0 -219 25q-107 25 -211 74z" />
<glyph unicode="6" horiz-adv-x="1280" d="M92 522q0 205 55 389q55 186 156 320q106 143 256 215t332 72q78 0 164 -17q72 -14 162 -47l-50 -276q-82 45 -149 65q-78 23 -146 23q-168 0 -270 -101q-106 -102 -127 -280q70 51 143.5 75.5t159.5 24.5q166 0 271 -108q104 -106 104 -279q0 -279 -162 -453 q-164 -176 -418 -176q-231 0 -356 143.5t-125 409.5zM432 401q0 -88 41 -139q39 -49 113 -49q102 0 168 92q66 94 65 234q0 96 -39 147t-112 51q-106 0 -170 -94q-66 -97 -66 -242z" />
<glyph unicode="7" horiz-adv-x="1280" d="M143 0l711 1210h-637l49 283h1014l-43 -219l-748 -1274h-346z" />
<glyph unicode="8" horiz-adv-x="1280" d="M41 344q0 160 94 279q96 121 262 172q-96 45 -145 116q-47 68 -47 174q0 203 149 320q147 115 414 115q215 0 330 -88q117 -88 116 -248q0 -143 -81.5 -243.5t-231.5 -145.5q111 -45 162 -125q51 -78 51 -201q0 -231 -159.5 -364.5t-444.5 -133.5q-223 0 -346 98.5 t-123 274.5zM373 393q0 -84 45 -131q45 -49 127 -49q106 0 176 78t70 196q0 84 -46 131q-45 49 -127 50q-102 0 -174 -80q-71 -82 -71 -195zM535 1061q0 -66 40 -111q39 -41 105 -41q92 0 147.5 59.5t55.5 157.5q0 70 -39 111t-107 41q-92 0 -147 -59.5t-55 -157.5z" />
<glyph unicode="9" horiz-adv-x="1280" d="M76 33l47 276q82 -47 151.5 -67.5t145.5 -20.5q170 0 272 101q100 98 123 280q-66 -51 -141 -76q-74 -25 -158 -24q-166 0 -270 108q-106 111 -107 279q0 276 164 452.5t418 176.5q229 0 354 -144q127 -145 127 -409q0 -205 -55 -390q-53 -178 -160 -319 q-109 -145 -254 -215q-150 -72 -330 -72q-80 0 -165 17q-78 14 -162 47zM471 948q0 -94 41 -147q39 -51 113 -51q104 0 168 94q66 96 65 241q0 92 -39 140q-41 49 -112 49q-100 0 -168 -92.5t-68 -233.5z" />
<glyph unicode=":" horiz-adv-x="735" d="M76 0l67 387h326l-70 -387h-323zM205 733l65 387h326l-68 -387h-323z" />
<glyph unicode=";" horiz-adv-x="735" d="M-66 -291l156 373l53 305h326l-53 -305l-289 -373h-193zM205 733l65 387h326l-68 -387h-323z" />
<glyph unicode="&#x3c;" d="M195 524v236l1155 463v-250l-869 -332l869 -330v-250z" />
<glyph unicode="=" d="M195 295v237h1155v-237h-1155zM195 752v235h1155v-235h-1155z" />
<glyph unicode="&#x3e;" d="M195 61v250l870 330l-870 332v250l1155 -463v-236z" />
<glyph unicode="?" horiz-adv-x="1067" d="M193 0l63 356h324l-64 -356h-323zM203 1124l55 314q94 35 209 61q90 20 182 21q176 0 274.5 -86t98.5 -234q0 -121 -47 -213q-49 -94 -164 -196l-70 -60q-74 -66 -96 -100q-27 -45 -33 -82l-8 -45h-323l6 49q16 82 55 143q43 66 156 164l65 58q70 59 105 114 q33 51 32 107q0 57 -36.5 87.5t-104.5 30.5q-70 0 -162 -35t-194 -98z" />
<glyph unicode="@" horiz-adv-x="1841" d="M84 434q0 182 53 340q55 166 156 301q131 174 317 271q182 94 398 94q147 0 276 -47q127 -47 227 -138q92 -86 146 -208q51 -117 51 -250q0 -315 -184.5 -512t-483.5 -197l-4 -1q-4 -1 -8 -1h-10h-8q-2 0 -3 1l-3 1l28 158q-39 -74 -108 -117q-63 -41 -148 -41 q-129 0 -203 94q-74 96 -73 262q0 223 127 381q131 162 305 162q76 0 131 -43q57 -45 76 -110l20 133h182l-118 -693q135 20 227 164q90 137 90 332q0 213 -147.5 348t-384.5 135q-178 0 -328 -75q-154 -78 -258 -220q-82 -109 -125 -241q-43 -131 -43 -275q0 -272 147 -440 q150 -170 383 -170q106 0 211 43q102 43 197 127l98 -158q-133 -98 -260 -147q-129 -49 -256 -49q-121 0 -233 41q-109 39 -201 118q-129 111 -193 267q-63 157 -63 360zM698 446q0 -86 37 -129t107 -43q94 0 162 101q66 98 65 246q0 88 -37 133q-37 47 -100 47 q-98 0 -166 -105t-68 -250z" />
<glyph unicode="A" horiz-adv-x="1425" d="M-121 0l760 1493h397l238 -1493h-330l-39 272h-536l-133 -272h-357zM500 543h360l-82 575z" />
<glyph unicode="B" horiz-adv-x="1402" d="M39 0l262 1493h518q240 0 354.5 -78t114.5 -241q0 -135 -67.5 -240t-176.5 -135q86 -27 138 -103q47 -70 47 -184q0 -242 -162 -377t-453 -135h-575zM428 262h207q119 0 182.5 63.5t63.5 180.5q0 74 -43 110.5t-136 36.5h-204zM545 915h192q94 0 145.5 51.5t51.5 143.5 q0 59 -37 90t-104 31h-195z" />
<glyph unicode="C" horiz-adv-x="1351" d="M68 573q0 182 51 338q53 164 149 289q117 154 285 238q164 82 358 82q109 0 209 -27q106 -29 215 -84l-55 -309q-82 70 -174 106q-88 35 -188 35q-207 0 -348.5 -178t-141.5 -445q0 -170 88 -270q86 -98 238 -98q90 0 192.5 37t229.5 114l-60 -331q-121 -49 -237 -74 q-113 -25 -217 -25q-270 0 -432 164t-162 438z" />
<glyph unicode="D" horiz-adv-x="1529" d="M39 0l262 1493h365q258 0 391 -35q131 -35 217 -115q90 -82 131 -196q45 -123 45 -262q0 -201 -76 -383q-72 -176 -211 -301q-123 -111 -276.5 -156t-483.5 -45h-364zM436 291h125q242 0 383 151.5t141 407.5q0 174 -92 262q-94 90 -274 90h-121z" />
<glyph unicode="E" horiz-adv-x="1257" d="M39 0l262 1493h934l-51 -291h-588l-49 -278h555l-53 -291h-553l-60 -342h606l-49 -291h-954z" />
<glyph unicode="F" horiz-adv-x="1257" d="M39 0l262 1493h934l-51 -291h-588l-49 -278h555l-53 -291h-553l-111 -633h-346z" />
<glyph unicode="G" horiz-adv-x="1511" d="M68 573q0 184 51 340q51 160 151 289q123 160 293 240q164 78 387 78q123 0 242 -27q117 -27 242 -84l-54 -309q-117 76 -215 106q-109 35 -211 35q-229 0 -376.5 -172t-147.5 -442q0 -180 86 -278.5t240 -98.5q35 0 100 8q45 6 102 23l52 290h-211l43 258h538l-125 -718 q-133 -72 -272 -105q-145 -35 -303 -35q-287 0 -449 162q-163 164 -163 440z" />
<glyph unicode="H" horiz-adv-x="1540" d="M39 0l262 1493h346l-100 -569h512l98 569h346l-262 -1493h-344l109 633h-510l-111 -633h-346z" />
<glyph unicode="I" horiz-adv-x="684" d="M39 0l262 1493h346l-262 -1493h-346z" />
<glyph unicode="J" horiz-adv-x="684" d="M-305 -410l49 291h55q106 0 174 68q72 72 93 196l235 1348h346l-235 -1348q-53 -293 -205 -424t-443 -131h-69z" />
<glyph unicode="K" horiz-adv-x="1427" d="M39 0l262 1493h346l-94 -537l571 537h418l-770 -725l582 -768h-408l-452 623l-109 -623h-346z" />
<glyph unicode="L" horiz-adv-x="1173" d="M39 0l262 1493h346l-211 -1202h606l-49 -291h-954z" />
<glyph unicode="M" horiz-adv-x="1832" d="M39 0l262 1493h424l174 -793l455 793h442l-262 -1493h-330l193 1102l-465 -815h-189l-184 815l-192 -1102h-328z" />
<glyph unicode="N" horiz-adv-x="1540" d="M39 0l262 1493h387l307 -1034l181 1034h327l-262 -1493h-387l-307 1034l-180 -1034h-328z" />
<glyph unicode="O" horiz-adv-x="1564" d="M68 569q0 180 49 344q49 162 145 293q115 160 275 236q162 78 368 78q270 0 432 -166q162 -164 162 -432q0 -181 -49 -344q-47 -160 -145 -291q-115 -156 -277 -238q-156 -78 -369 -78q-268 0 -429.5 164t-161.5 434zM430 612q0 -172 72 -268q70 -94 198 -94 q104 0 184.5 49t137.5 143q57 96 84 205q29 119 29 234q0 174 -72 268q-72 92 -209 92q-176 0 -301 -180q-123 -179 -123 -449z" />
<glyph unicode="P" horiz-adv-x="1349" d="M39 0l262 1493h576q211 0 329.5 -106.5t118.5 -299.5q0 -121 -39 -223q-41 -106 -112 -184q-74 -80 -193 -123q-109 -39 -276 -39h-230l-90 -518h-346zM526 797h191q125 0 188.5 63.5t63.5 186.5q0 82 -45 124q-46 43 -136 43h-190z" />
<glyph unicode="Q" horiz-adv-x="1564" d="M68 569q0 184 49 346q47 160 145 291q117 160 275 236q162 78 368 78q270 0 432 -166q162 -164 162 -432q0 -319 -135 -551q-139 -238 -383 -344l207 -326h-332l-172 272q-4 0 -10 -1t-10 -1h-31q-104 0 -193 31q-90 31 -164 92q-98 80 -153 207q-55 125 -55 268z M430 612q0 -172 72 -268q70 -94 198 -94q104 0 184.5 49t137.5 143q57 96 84 205q29 119 29 234q0 174 -72 268q-72 92 -209 92q-176 0 -301 -180q-123 -179 -123 -449z" />
<glyph unicode="R" horiz-adv-x="1417" d="M39 0l262 1493h512q223 0 336 -92q115 -92 115 -271q0 -180 -90 -299q-88 -115 -244 -133q71 -15 117 -80q49 -70 81 -194l113 -424h-344l-100 371q-31 111 -74 153q-41 41 -127 41h-111l-100 -565h-346zM530 831h148q117 0 178 62q59 59 59 178q0 76 -41 109 q-45 35 -133 34h-143z" />
<glyph unicode="S" horiz-adv-x="1325" d="M29 78l55 325q125 -80 231 -114q121 -39 224 -39q121 0 192 53q76 57 76 139q0 55 -35 86t-145 62l-142 39q-154 43 -233 137q-76 90 -76 240q0 233 160 374q158 139 432 140q113 0 225 -19q114 -18 234 -55l-58 -316q-104 57 -200 84q-94 27 -193 27q-131 0 -202.5 -45 t-71.5 -125q0 -52 30 -80q31 -27 134 -55l141 -39q178 -49 262 -145q82 -94 82 -244q0 -242 -166 -389.5t-444 -147.5q-135 0 -260 27q-129 28 -252 80z" />
<glyph unicode="T" horiz-adv-x="1255" d="M88 1202l51 291h1239l-51 -291h-446l-211 -1202h-346l211 1202h-447z" />
<glyph unicode="U" horiz-adv-x="1495" d="M125 414q0 23 4 80q2 25 14 104l158 895h346l-158 -895q-10 -51 -12 -84q-4 -49 -4 -65q0 -94 47 -146q46 -49 142 -49q127 0 192.5 78t99.5 266l158 895h346l-158 -895q-59 -332 -221 -479q-163 -147 -467 -148q-238 0 -362.5 113t-124.5 330z" />
<glyph unicode="V" horiz-adv-x="1425" d="M139 1493h330l166 -1116l557 1116h356l-760 -1493h-411z" />
<glyph unicode="W" horiz-adv-x="2031" d="M197 1493h321l41 -1085l422 1085h330l43 -1085l407 1085h346l-579 -1493h-391l-45 1135l-437 -1135h-399z" />
<glyph unicode="X" horiz-adv-x="1419" d="M-94 0l604 766l-317 727h352l207 -469l368 469h377l-584 -737l330 -756h-350l-219 500l-393 -500h-375z" />
<glyph unicode="Y" horiz-adv-x="1333" d="M117 1493h346l227 -553l402 553h399l-664 -870l-108 -623h-346l108 623z" />
<glyph unicode="Z" horiz-adv-x="1335" d="M-47 0l41 238l872 964h-684l51 291h1131l-43 -238l-870 -964h723l-52 -291h-1169z" />
<glyph unicode="[" horiz-adv-x="841" d="M-18 -270l319 1826h557l-41 -225h-250l-241 -1376h254l-41 -225h-557z" />
<glyph unicode="\" horiz-adv-x="671" d="M129 1493h201l178 -1683h-199z" />
<glyph unicode="]" horiz-adv-x="841" d="M-51 -270l39 225h252l241 1376h-252l37 225h559l-317 -1826h-559z" />
<glyph unicode="^" d="M186 936l476 557h221l475 -557h-217l-369 301l-369 -301h-217z" />
<glyph unicode="_" horiz-adv-x="919" d="M-18 -293h958v-190h-958v190z" />
<glyph unicode="`" horiz-adv-x="919" d="M242 1638h254l188 -376h-176z" />
<glyph unicode="a" horiz-adv-x="1241" d="M33 276q0 215 147 328q145 113 430 113h191l4 28q2 10 2 21v10q0 65 -55 98q-57 35 -168 35q-96 0 -193 -22q-88 -20 -180 -70l47 273q104 29 207 43q100 14 219 14q225 0 333.5 -86t108.5 -260q0 -20 -4 -74q-4 -43 -12 -88l-113 -639h-321l26 166q-80 -102 -167 -148 q-90 -47 -193 -47q-143 0 -225 82q-84 84 -84 223zM362 340q0 -61 37 -96q39 -35 101 -35q98 0 165.5 67.5t88.5 186.5l8 41h-156q-123 0 -182 -41q-62 -43 -62 -123z" />
<glyph unicode="b" horiz-adv-x="1318" d="M57 0l271 1556h323l-104 -600q72 94 155 144q82 47 177 47q172 0 270 -121q98 -120 98 -326q0 -125 -35 -251q-31 -113 -100 -222q-86 -129 -184 -190q-106 -66 -221 -66q-98 0 -175 47q-74 47 -122 144l-29 -162h-324zM467 428q0 -92 43 -145q43 -51 125 -52 q121 0 201 125q78 123 77 322q0 106 -41 156q-43 53 -124 53q-125 0 -203 -127q-78 -125 -78 -332z" />
<glyph unicode="c" horiz-adv-x="1091" d="M68 426q0 135 47 266q43 121 137 232q98 113 223 168q127 55 293 55q70 0 152 -17q84 -16 151 -45l-51 -292q-66 51 -127 73q-66 25 -125 25q-154 0 -256 -117q-100 -115 -100 -301q0 -117 61 -182q61 -63 176 -64q74 0 148 25q76 25 139 74l-49 -293q-84 -33 -162 -47 q-74 -14 -164 -15q-238 0 -364 119q-129 119 -129 336z" />
<glyph unicode="d" horiz-adv-x="1318" d="M68 418q0 125 34 252q33 117 99 221q86 129 184 190q106 66 221 66q100 0 176 -47q74 -47 123 -144l105 600h325l-272 -1556h-326l31 162q-72 -94 -156 -144q-82 -47 -178 -47q-170 0 -268 119t-98 328zM399 440q0 -104 43 -155q43 -53 123 -54q125 0 203 127t78 332 q0 92 -43 146q-43 51 -123 51q-121 0 -201 -125q-80 -127 -80 -322z" />
<glyph unicode="e" horiz-adv-x="1249" d="M68 434q0 131 38.5 248t120.5 221q94 121 222 182q129 61 286 62q205 0 326 -121q119 -119 119 -326q0 -55 -4 -84q-10 -74 -17 -98l-10 -57h-756v-17q0 -4 -1 -10t-1 -8q0 -109 60 -164q55 -53 178 -53q98 0 215 35q115 35 235 100l-49 -278q-106 -45 -233 -72 q-106 -23 -238 -23q-233 0 -364 121q-127 119 -127 342zM438 682h416q4 16 4 27q0 4 1 13t1 13q0 80 -43 127t-117 47q-96 0 -161.5 -57t-100.5 -170z" />
<glyph unicode="f" horiz-adv-x="800" d="M92 864l45 256h158l14 78q33 184 140 272q104 86 299 86h247l-43 -235h-176q-70 0 -98 -27q-31 -27 -43 -96l-17 -78h275l-45 -256h-273l-151 -864h-324l152 864h-160z" />
<glyph unicode="g" horiz-adv-x="1318" d="M37 -377l49 279q70 -51 152 -80q74 -27 155 -27q162 0 246 76q86 78 117 242l14 77q-78 -98 -158 -145q-78 -45 -174 -45q-172 0 -270 123q-100 125 -100 334q0 111 34 227q31 104 101 213q80 119 182 184q100 63 219 64q109 0 180 -45q70 -43 121 -146l27 166h325 l-170 -973q-53 -303 -223 -446t-475 -143q-88 0 -180 16q-86 15 -172 49zM403 469q0 -104 43 -156q43 -53 123 -53q119 0 199 119q78 117 78 295q0 102 -43 157.5t-123 55.5q-117 0 -197 -119q-80 -121 -80 -299z" />
<glyph unicode="h" horiz-adv-x="1310" d="M57 0l271 1556h323l-104 -600q88 96 178 143.5t188 47.5q139 0 217 -80q74 -76 74 -229q0 -16 -4 -70q-4 -57 -10 -86l-121 -682h-324l103 584q6 29 16 96q6 41 6 63q0 61 -32 99q-31 35 -90 35q-101 0 -172 -86t-99 -240l-96 -551h-324z" />
<glyph unicode="i" horiz-adv-x="630" d="M57 0l197 1120h324l-197 -1120h-324zM276 1264l52 292h323l-51 -292h-324z" />
<glyph unicode="j" horiz-adv-x="630" d="M-236 -442l41 235h56q90 0 133 45q45 47 65 182l195 1100h324l-195 -1100q-41 -236 -154 -348q-115 -115 -305 -114h-160zM276 1264l52 292h323l-51 -292h-324z" />
<glyph unicode="k" horiz-adv-x="1224" d="M57 0l271 1556h323l-145 -843l434 407h379l-586 -518l426 -602h-368l-326 483l-84 -483h-324z" />
<glyph unicode="l" horiz-adv-x="630" d="M57 0l271 1556h323l-270 -1556h-324z" />
<glyph unicode="m" horiz-adv-x="1918" d="M57 0l197 1120h324l-31 -164q76 94 162 144q82 47 178 47q102 0 178 -59.5t90 -153.5q70 100 170 158q96 55 199 55q137 0 213 -82q78 -84 78 -227q0 -14 -5 -68q-2 -20 -14 -88l-119 -682h-323l100 584l2 14q25 141 25 160q0 55 -29 88q-27 31 -78 31q-92 0 -155 -84 q-66 -86 -93 -242l-98 -551h-323l102 584q10 51 20 114q4 27 4 60q0 59 -26 88q-27 31 -80 31q-86 0 -156 -89q-68 -86 -92 -237l-96 -551h-324z" />
<glyph unicode="n" horiz-adv-x="1310" d="M57 0l197 1120h324l-31 -164q88 96 178 143.5t188 47.5q139 0 217 -80q74 -76 74 -229q0 -16 -4 -70q-4 -57 -10 -86l-121 -682h-324l103 584q6 29 16 96q6 41 6 63q0 61 -32 99q-31 35 -90 35q-101 0 -172 -86t-99 -240l-96 -551h-324z" />
<glyph unicode="o" horiz-adv-x="1265" d="M68 444q0 123 41 246q39 115 118 221q86 113 215 176q121 59 275 60q223 0 354 -127q129 -127 129 -346q0 -123 -41 -246q-39 -117 -119 -219q-94 -119 -214.5 -178.5t-280.5 -59.5q-219 0 -350 127q-127 125 -127 346zM403 444q0 -104 46 -161q43 -55 126 -56 q125 0 205 127q82 129 82 322q0 104 -43 159.5t-129 55.5q-125 0 -205 -125q-82 -129 -82 -322z" />
<glyph unicode="p" horiz-adv-x="1318" d="M-18 -426l272 1546h324l-31 -164q72 94 155 144q82 47 177 47q172 0 270 -121q98 -120 98 -326q0 -125 -35 -251q-31 -113 -100 -222q-86 -129 -184 -190q-106 -66 -221 -66q-98 0 -175 47q-74 47 -122 144l-105 -588h-323zM467 428q0 -92 43 -145q43 -51 125 -52 q121 0 201 125q78 123 77 322q0 106 -41 156q-43 53 -124 53q-125 0 -203 -127q-78 -125 -78 -332z" />
<glyph unicode="q" horiz-adv-x="1318" d="M68 418q0 125 34 252q33 117 99 221q86 129 184 190q106 66 221 66q100 0 176 -47q74 -47 123 -144l27 164h325l-272 -1546h-323l104 588q-68 -94 -154 -144q-82 -47 -178 -47q-170 0 -268 119t-98 328zM399 440q0 -104 43 -155q43 -53 123 -54q125 0 203 127t78 332 q0 92 -43 146q-43 51 -123 51q-121 0 -201 -125q-80 -127 -80 -322z" />
<glyph unicode="r" horiz-adv-x="907" d="M57 0l197 1120h324l-35 -192q63 106 159 162q98 57 211 57q27 0 41 -2q22 -3 50 -6l-56 -324q-31 20 -74 33q-33 10 -88 10q-123 0 -204 -88q-84 -90 -111 -254l-90 -516h-324z" />
<glyph unicode="s" horiz-adv-x="1095" d="M18 43l50 281q84 -57 186 -86t203 -29q102 0 153.5 26.5t51.5 79.5q0 33 -29 56q-23 18 -119 41l-59 12q-170 39 -246 119q-74 77 -74 215q0 188 127 288.5t365 100.5q96 0 204 -17q104 -16 201 -45l-47 -278q-102 53 -188 76q-100 27 -179 26q-94 0 -147 -28 q-51 -27 -51 -78q0 -29 29 -47q25 -16 112 -39l60 -12q197 -47 274.5 -119t77.5 -201q0 -195 -137 -305q-135 -109 -385 -109q-106 0 -213 19q-124 20 -220 53z" />
<glyph unicode="t" horiz-adv-x="880" d="M80 864l43 256h162l55 318h324l-56 -318h330l-45 -256h-332l-82 -475q-4 -20 -4 -27q0 -4 -1 -11t-1 -9q0 -45 26.5 -65.5t94.5 -20.5h166l-45 -256h-273q-143 0 -221 67.5t-78 196.5q0 18 4 60q4 45 9 65l82 475h-158z" />
<glyph unicode="u" horiz-adv-x="1310" d="M111 281q0 20 4 73q2 23 10 82l119 684h321l-100 -583q-4 -20 -9 -52l-7 -45q-6 -39 -7 -63q0 -61 33 -98q31 -35 88 -35q101 0 172 86q74 90 101 239l96 551h323l-194 -1120h-326l31 164q-80 -96 -174 -146q-88 -47 -193 -47q-137 0 -213 80q-75 78 -75 230z" />
<glyph unicode="v" horiz-adv-x="1200" d="M117 1120h297l131 -782l379 782h325l-592 -1120h-340z" />
<glyph unicode="w" horiz-adv-x="1701" d="M160 1120h297l35 -770l305 770h256l37 -768l301 768h317l-461 -1120h-342l-33 770l-309 -770h-334z" />
<glyph unicode="x" horiz-adv-x="1187" d="M-76 0l484 573l-269 547h336l150 -332l262 332h350l-459 -545l281 -575h-336l-160 354l-289 -354h-350z" />
<glyph unicode="y" horiz-adv-x="1200" d="M0 -442l33 235h102q82 0 123 29q45 33 78 104l29 60l-242 1134h303l137 -776l359 776h344l-637 -1226q-109 -207 -199 -271q-94 -66 -235 -65h-195z" />
<glyph unicode="z" horiz-adv-x="1071" d="M-16 0l43 250l628 614h-497l43 256h878l-43 -250l-628 -614h522l-45 -256h-901z" />
<glyph unicode="{" horiz-adv-x="1310" d="M195 494l41 223h57q127 0 184 57q59 59 84 209l37 205q35 197 137 280q106 88 303 88h195l-39 -225h-64q-123 0 -170 -43t-71 -186l-31 -166q-28 -157 -80 -227q-53 -72 -155 -97q72 -23 104 -65q35 -47 35 -123q0 -18 -4 -64q-3 -34 -13 -73l-28 -166q-4 -20 -10 -70 q-2 -16 -2 -41q0 -70 36.5 -94.5t139.5 -24.5h61l-39 -225h-196q-158 0 -242 62q-82 61 -82 184q0 10 4 51q6 53 8 72l33 192q8 43 10 58q2 18 2 49q0 88 -41 125q-37 35 -145 35h-59z" />
<glyph unicode="|" horiz-adv-x="671" d="M233 -483v2048h205v-2048h-205z" />
<glyph unicode="}" horiz-adv-x="1310" d="M82 -334l39 225h61q123 0 172 46q47 45 72 184l29 166q29 160 82 227q59 76 155 98q-72 18 -104 64q-35 47 -35 123q0 12 4 57q0 10 10 80l31 166l5 36.5t5 30.5q2 16 2 43q0 68 -37 93q-41 27 -141 26h-59l39 225h196q162 0 242 -61q82 -63 82 -184q0 -16 -4 -58 q-2 -20 -10 -65l-35 -205q-4 -20 -9 -57q-2 -18 -2 -49q0 -88 41 -123q43 -37 148 -37h55l-41 -223h-53q-129 0 -186 -58q-59 -59 -84 -209l-35 -192q-33 -190 -139 -281q-102 -88 -302 -88h-194z" />
<glyph unicode="~" d="M195 434v244q100 82 178 115q82 35 166 34q94 0 225 -59q10 -4 18 -8l21 -8q139 -61 223 -62q77 0 154 37q80 37 170 123v-244q-96 -82 -176 -114q-82 -35 -168 -35q-98 0 -226 57q-4 2 -9 5t-9 5q-2 0 -9.5 3t-11.5 5q-141 61 -223 61.5t-158 -38.5q-81 -43 -165 -121z " />
<glyph unicode="&#xa1;" horiz-adv-x="839" d="M127 0l102 573l117 418h234l-27 -418l-100 -573h-326zM326 1137l63 356h326l-64 -356h-325z" />
<glyph unicode="&#xa2;" horiz-adv-x="1280" d="M123 414q0 291 164 491q164 203 430 236l51 291h145l-51 -287q74 -4 127 -17q72 -16 135 -43l-51 -292q-68 49 -129 73.5t-119 24.5h-8l-115 -664q84 4 152 27q76 27 135 72l-49 -293q-57 -23 -135 -39q-63 -14 -148 -21l-49 -286h-145l49 290q-180 20 -284.5 137.5 t-104.5 299.5zM465 473q0 -74 24.5 -129t71.5 -80l107 592q-92 -45 -148 -151q-55 -105 -55 -232z" />
<glyph unicode="&#xa3;" horiz-adv-x="1280" d="M12 0l47 266h203l57 326h-174l41 239h174l31 170q45 266 182 394q133 125 383 125q82 0 162 -13q74 -10 156 -41l-49 -286q-49 35 -117 57q-61 20 -127 20q-113 0 -176.5 -61t-85.5 -195l-31 -170h336l-39 -239h-338l-57 -326h485l-45 -266h-1018z" />
<glyph unicode="&#xa4;" horiz-adv-x="1171" d="M68 215l186 207q-29 55 -39 102q-12 52 -12 117q0 72 12 117q14 49 41 100l-188 205l139 154l184 -207q39 29 94 45q45 14 103 14q39 0 96 -14q43 -10 100 -41l187 207l137 -154l-186 -207q29 -66 39 -110q12 -55 12 -109q0 -63 -12 -115q-12 -53 -41 -100l186 -207 l-137 -153l-189 206q-39 -29 -88 -45q-45 -14 -104 -14q-43 0 -101 14q-47 12 -96 41l-186 -207zM391 641q0 -88 58 -156q55 -63 139 -63q82 0 139 63.5t57 155.5t-57 155.5t-139 63.5t-139.5 -63.5t-57.5 -155.5z" />
<glyph unicode="&#xa5;" horiz-adv-x="1280" d="M10 416l35 194h401l13 76l-27 76h-360l32 192h263l-193 539h332l174 -500l346 500h365l-396 -539h265l-33 -192h-369l-51 -76l-19 -76h410l-33 -194h-409l-74 -416h-342l74 416h-404z" />
<glyph unicode="&#xa6;" horiz-adv-x="671" d="M233 -350v758h205v-758h-205zM233 674v758h205v-758h-205z" />
<glyph unicode="&#xa7;" horiz-adv-x="919" d="M-61 -137l43 237q96 -45 163.5 -65.5t126.5 -20.5q70 0 113 31t43 80q0 33 -20 55q-18 20 -93 60l-120 61q-111 57 -158 127q-51 76 -51 176q0 123 65 219q63 92 195 154q-47 41 -70 88q-23 49 -22 98q0 158 122 256q125 100 324 101q82 0 154 -15q80 -16 157 -43 l-39 -227q-84 41 -145 59q-63 18 -121 19q-72 0 -114 -31q-41 -29 -41 -80q0 -33 20 -55q25 -29 74 -51l82 -41q157 -77 215 -154q57 -76 57 -186q0 -123 -70 -217q-72 -96 -200 -154q51 -35 76 -80q23 -39 22 -98q0 -164 -127 -262q-126 -98 -338 -99q-84 0 -158 15 q-79 15 -165 43zM252 682q0 -61 43 -104q41 -41 190 -107q74 29 111 72q41 47 41 102q0 61 -51 107q-55 49 -187 102q-70 -20 -110 -66q-37 -38 -37 -106z" />
<glyph unicode="&#xa8;" horiz-adv-x="919" d="M281 1339l41 246h215l-45 -246h-211zM637 1339l43 246h213l-45 -246h-211z" />
<glyph unicode="&#xa9;" horiz-adv-x="1841" d="M256 741q0 158 47 285q49 132 148 240q102 113 215 164q121 55 256 55t254 -55q117 -53 217 -164q98 -108 147 -240q47 -127 47 -285q0 -160 -47 -282q-51 -135 -147 -240q-100 -111 -217 -164q-119 -55 -254.5 -55t-255.5 55q-113 51 -215 164q-96 104 -148 240 q-47 122 -47 282zM391 741q0 -123 39 -225q40 -104 117 -190t172 -129t203 -43q111 0 202 43q98 45 172 129q77 86 117 190q39 102 39 225t-39 226q-40 104 -117 190q-78 88 -172 131q-92 43 -202.5 43t-202.5 -43q-88 -41 -172 -131q-77 -86 -117 -190q-39 -103 -39 -226z M541 741.5q0 192.5 114 311.5q115 117 303 116q55 0 121 -10q47 -8 113 -33v-215q-45 31 -102 54q-49 18 -103 18q-100 0 -157.5 -63.5t-57.5 -178t57.5 -178t157.5 -63.5q58 0 111 18q47 16 94 53v-213q-61 -23 -119 -34q-49 -10 -115 -11q-188 0 -303 117 q-114 119 -114 311.5z" />
<glyph unicode="&#xaa;" horiz-adv-x="1038" d="M80 373l35 200h733l-35 -200h-733zM160 907q0 154 110 234q109 78 330 78h127l4 20l1 3q1 3 1 5v17q0 45 -34.5 67.5t-102.5 22.5q-86 0 -158 -17q-68 -16 -153 -53l30 180q76 25 166 41q74 14 148 15q170 0 254 -64q88 -66 88 -186q0 -39 -2 -56q0 -6 -1 -16t-2 -18.5 t-3 -14.5l-78 -448h-223l22 125q-57 -76 -127 -111t-160 -35q-113 0 -174 56q-63 57 -63 155zM389 954q0 -45 29 -69q31 -27 74 -27q74 0 135 57q59 55 73 144l5 22h-82q-131 0 -182.5 -28.5t-51.5 -98.5z" />
<glyph unicode="&#xab;" horiz-adv-x="1196" d="M113 506l32 186l508 371l-43 -252l-311 -229l231 -222l-38 -223zM553 506l33 186l510 371l-45 -252l-312 -229l232 -222l-39 -223z" />
<glyph unicode="&#xac;" d="M195 672v237h1155v-622h-211v385h-944z" />
<glyph unicode="&#xad;" horiz-adv-x="763" d="M45 444l53 291h566l-52 -291h-567z" />
<glyph unicode="&#xae;" horiz-adv-x="1841" d="M256 741q0 158 47 285q49 132 148 240q102 113 215 164q121 55 256 55t254 -55q117 -53 217 -164q98 -108 147 -240q47 -127 47 -285q0 -160 -47 -282q-51 -135 -147 -240q-100 -111 -217 -164q-119 -55 -254.5 -55t-255.5 55q-113 51 -215 164q-96 104 -148 240 q-47 122 -47 282zM391 741q0 -123 39 -225q40 -104 117 -190t172 -129t203 -43q111 0 202 43q98 45 172 129q77 86 117 190q39 102 39 225t-39 226q-40 104 -117 190q-78 88 -172 131q-92 43 -202.5 43t-202.5 -43q-88 -41 -172 -131q-77 -86 -117 -190q-39 -103 -39 -226z M647 338v836h256q156 0 238 -60q78 -57 78 -180q0 -84 -48 -141q-45 -55 -133 -74q37 -22 68 -62q33 -43 59 -98l99 -221h-205l-96 213q-29 66 -62 111q-25 33 -51 32h-10v-356h-193zM840 829h30q72 0 107 27t35 78q0 53 -35 77.5t-107 24.5h-30v-207z" />
<glyph unicode="&#xaf;" horiz-adv-x="919" d="M285 1368l34 188h568l-33 -188h-569z" />
<glyph unicode="&#xb0;" horiz-adv-x="919" d="M160 1200q0 139 88 238q86 96 213 96q59 0 114 -25q51 -23 99 -73q43 -49 63 -109q23 -63 23 -126.5t-23 -127.5q-20 -59 -61 -106t-101 -74q-55 -25 -116 -25q-127 0 -213 94.5t-86 237.5zM305 1200q0 -70 45 -121q43 -49 111 -49q65 0 110 49q45 47 45 121 q0 76 -45 123q-46 49 -110.5 49t-110.5 -49q-45 -47 -45 -123z" />
<glyph unicode="&#xb1;" d="M195 0v238h1155v-238h-1155zM195 694v236h471v354h213v-354h471v-236h-471v-354h-213v354h-471z" />
<glyph unicode="&#xb2;" horiz-adv-x="806" d="M84 668l27 153l329 266q78 63 107 107q35 51 35 92t-29 63.5t-82 22.5q-59 0 -127 -22q-59 -20 -131 -68l35 186q90 31 139 39q68 12 131 13q137 0 205 -54q72 -55 72 -155q0 -82 -47 -154q-49 -74 -158 -158l-207 -163h338l-31 -168h-606z" />
<glyph unicode="&#xb3;" horiz-adv-x="806" d="M74 700l30 172q52 -37 105 -55t108 -18q96 0 154 39q55 37 55 104q0 55 -45 80q-47 25 -139 25h-68l25 137h78q94 0 145 28.5t51 83.5q0 39 -34.5 57.5t-100.5 18.5q-49 0 -106 -12q-51 -10 -125 -41l26 166q59 16 132 26q59 8 133 9q141 0 214.5 -49.5t73.5 -143.5 q0 -84 -51 -137q-51 -55 -137 -70q70 -12 104.5 -59t34.5 -123q0 -135 -106 -211q-104 -74 -299 -74q-74 0 -137 13q-62 11 -121 34z" />
<glyph unicode="&#xb4;" horiz-adv-x="919" d="M418 1262l311 376h264l-395 -376h-180z" />
<glyph unicode="&#xb5;" horiz-adv-x="1355" d="M-49 -428l270 1548h324l-115 -651q0 -6 -2 -20.5t-2 -20.5q-2 -14 -2 -37q0 -74 39 -112.5t112 -38.5q88 0 146 57q53 53 76 172l114 651h324l-131 -749q0 -6 -1 -19.5t-3 -19.5q-2 -12 -2 -31q0 -28 12 -43q12 -14 37 -14q14 0 33 6q20 6 34 16l-45 -250 q-63 -27 -94 -34q-35 -10 -86 -11q-80 0 -123 37t-61 121q-53 -76 -125 -119q-66 -39 -148 -39q-70 0 -108 23q-43 25 -62 72l-86 -494h-325z" />
<glyph unicode="&#xb6;" horiz-adv-x="1171" d="M137 1001q0 215 139 353q143 139 367 139h469l-297 -1690h-170l268 1543h-170l-270 -1543h-170l150 846q-152 23 -234 112.5t-82 239.5z" />
<glyph unicode="&#xb7;" horiz-adv-x="698" d="M156 518l67 387h324l-68 -387h-323z" />
<glyph unicode="&#xb8;" horiz-adv-x="919" d="M41 -375l27 156q35 -18 71 -27q33 -8 72 -8q57 0 92 28.5t35 75.5q0 27 -12 60q-10 31 -41 90h129q29 -43 47 -96q16 -45 16 -86q0 -104 -67 -162q-66 -57 -193 -57q-45 0 -88 6q-25 4 -88 20z" />
<glyph unicode="&#xb9;" horiz-adv-x="806" d="M123 668l29 157h184l92 521l-211 -52l29 160l219 49h197l-119 -678h184l-27 -157h-577z" />
<glyph unicode="&#xba;" horiz-adv-x="1038" d="M86 373l35 200h739l-35 -200h-739zM160 1032q0 217 135 352.5t352 135.5q164 0 260.5 -90.5t96.5 -243.5q0 -221 -131.5 -354.5t-352.5 -133.5q-166 0 -262 90q-98 92 -98 244zM418 1024q0 -74 33 -117q31 -39 92 -39q89 0 147 93q57 90 58 233q0 76 -31 115 q-31 41 -92 41q-89 0 -148 -93q-59 -94 -59 -233z" />
<glyph unicode="&#xbb;" horiz-adv-x="1196" d="M104 135l46 254l309 229l-230 222l37 223l379 -371l-31 -186zM545 135l45 254l309 229l-231 222l39 223l378 -371l-30 -186z" />
<glyph unicode="&#xbc;" horiz-adv-x="1906" d="M103 668l29 157h184l92 521l-211 -52l29 160l219 49h197l-119 -678h184l-27 -157h-577zM313 -29l1110 1549h221l-1112 -1549h-219zM1036 161l29 168l424 506h223l-90 -518h123l-27 -156h-123l-28 -161h-207l28 161h-352zM1200 317h215l55 324z" />
<glyph unicode="&#xbd;" horiz-adv-x="1906" d="M103 668l29 157h184l92 521l-211 -52l29 160l219 49h197l-119 -678h184l-27 -157h-577zM1198 0l27 153l329 266q78 63 107 107q35 51 35 92t-29 63.5t-82 22.5q-59 0 -127 -22q-59 -20 -131 -68l35 186q90 31 139 39q68 12 131 13q137 0 205 -54q72 -55 72 -155 q0 -82 -47 -154q-49 -74 -158 -158l-207 -163h338l-31 -168h-606zM313 -29l1110 1549h221l-1112 -1549h-219z" />
<glyph unicode="&#xbe;" horiz-adv-x="1906" d="M86 700l30 172q52 -37 105 -55t108 -18q96 0 154 39q55 37 55 104q0 55 -45 80q-47 25 -139 25h-68l25 137h78q94 0 145 28.5t51 83.5q0 39 -34.5 57.5t-100.5 18.5q-49 0 -106 -12q-51 -10 -125 -41l26 166q59 16 132 26q59 8 133 9q141 0 214.5 -49.5t73.5 -143.5 q0 -84 -51 -137q-51 -55 -137 -70q70 -12 104.5 -59t34.5 -123q0 -135 -106 -211q-104 -74 -299 -74q-74 0 -137 13q-62 11 -121 34zM313 -29l1110 1549h221l-1112 -1549h-219zM1036 161l29 168l424 506h223l-90 -518h123l-27 -156h-123l-28 -161h-207l28 161h-352z M1200 317h215l55 324z" />
<glyph unicode="&#xbf;" horiz-adv-x="1067" d="M68 293q0 117 49 213t162 196l67 60q78 68 100 102q27 41 33 80l8 45h324l-8 -51q-16 -84 -53 -141q-43 -66 -156 -164l-68 -60q-78 -68 -104 -112q-31 -51 -31 -107q0 -59 35 -88q37 -31 104 -30q70 0 164 34.5t195 98.5l-55 -314q-94 -35 -209 -61q-90 -20 -183 -21 q-176 0 -274 86q-100 89 -100 234zM512 1137l63 356h324l-61 -356h-326z" />
<glyph unicode="&#xc0;" horiz-adv-x="1425" d="M-121 0l760 1493h397l238 -1493h-330l-39 272h-536l-133 -272h-357zM500 543h360l-82 575zM608 1899h237l129 -264h-159z" />
<glyph unicode="&#xc1;" horiz-adv-x="1425" d="M-121 0l760 1493h397l238 -1493h-330l-39 272h-536l-133 -272h-357zM500 543h360l-82 575zM708 1635l221 264h252l-286 -264h-187z" />
<glyph unicode="&#xc2;" horiz-adv-x="1425" d="M-121 0l760 1493h397l238 -1493h-330l-39 272h-536l-133 -272h-357zM500 543h360l-82 575zM497 1635l221 264h314l137 -264h-154l-147 161l-209 -161h-162z" />
<glyph unicode="&#xc3;" horiz-adv-x="1425" d="M-121 0l760 1493h397l238 -1493h-330l-39 272h-536l-133 -272h-357zM500 543h360l-82 575zM524 1635q20 127 82 196q59 70 143 70q37 0 64 -12q33 -14 59 -39l47 -41q18 -14 33 -21q15 -6 31 -6q33 0 57 31q23 29 33 88h125q-25 -131 -82 -197q-59 -70 -144 -69 q-35 0 -63 12q-31 14 -62 39l-45 37q-27 23 -36 26q-15 6 -31 6q-29 0 -55 -32q-23 -29 -33 -88h-123z" />
<glyph unicode="&#xc4;" horiz-adv-x="1425" d="M-121 0l760 1493h397l238 -1493h-330l-39 272h-536l-133 -272h-357zM500 543h360l-82 575zM561 1653l41 246h213l-43 -246h-211zM915 1653l41 246h215l-45 -246h-211z" />
<glyph unicode="&#xc5;" horiz-adv-x="1425" d="M-121 0l744 1458q-20 33 -35 76q-10 33 -10 82q0 117 73.5 201t182.5 84q106 0 180 -84q76 -86 76 -201q0 -47 -13 -86q-12 -40 -37 -74l234 -1456h-330l-39 272h-536l-133 -272h-357zM500 543h360l-82 575zM717 1616q0 -53 32.5 -92t84 -39t84 39t32.5 92q0 51 -35 92 q-33 39 -81 39q-51 0 -84 -39t-33 -92z" />
<glyph unicode="&#xc6;" horiz-adv-x="1998" d="M-143 0l839 1493h1280l-53 -291h-588l-47 -278h553l-51 -291h-553l-59 -342h606l-49 -291h-957l64 350h-445l-194 -350h-346zM549 627h340l106 610h-108z" />
<glyph unicode="&#xc7;" horiz-adv-x="1351" d="M68 573q0 182 51 338q53 164 149 289q117 154 285 238q164 82 358 82q109 0 209 -27q106 -29 215 -84l-55 -309q-82 70 -174 106q-88 35 -188 35q-207 0 -348.5 -178t-141.5 -445q0 -170 88 -270q86 -98 238 -98q90 0 192.5 37t229.5 114l-60 -331q-121 -49 -237 -74 q-113 -25 -217 -25q-270 0 -432 164t-162 438zM406 -375l27 156q35 -18 71 -27q33 -8 72 -8q57 0 92 28.5t35 75.5q0 27 -12 60q-10 31 -41 90h129q29 -43 47 -96q16 -45 16 -86q0 -104 -67 -162q-66 -57 -193 -57q-45 0 -88 6q-25 4 -88 20z" />
<glyph unicode="&#xc8;" horiz-adv-x="1257" d="M39 0l262 1493h934l-51 -291h-588l-49 -278h555l-53 -291h-553l-60 -342h606l-49 -291h-954zM572 1899h237l129 -264h-159z" />
<glyph unicode="&#xc9;" horiz-adv-x="1257" d="M39 0l262 1493h934l-51 -291h-588l-49 -278h555l-53 -291h-553l-60 -342h606l-49 -291h-954zM672 1635l221 264h252l-286 -264h-187z" />
<glyph unicode="&#xca;" horiz-adv-x="1257" d="M39 0l262 1493h934l-51 -291h-588l-49 -278h555l-53 -291h-553l-60 -342h606l-49 -291h-954zM461 1635l221 264h314l137 -264h-154l-147 161l-209 -161h-162z" />
<glyph unicode="&#xcb;" horiz-adv-x="1257" d="M39 0l262 1493h934l-51 -291h-588l-49 -278h555l-53 -291h-553l-60 -342h606l-49 -291h-954zM525 1653l41 246h213l-43 -246h-211zM879 1653l41 246h215l-45 -246h-211z" />
<glyph unicode="&#xcc;" horiz-adv-x="684" d="M39 0l262 1493h346l-262 -1493h-346zM250 1899h237l129 -264h-159z" />
<glyph unicode="&#xcd;" horiz-adv-x="684" d="M39 0l262 1493h346l-262 -1493h-346zM350 1635l221 264h252l-286 -264h-187z" />
<glyph unicode="&#xce;" horiz-adv-x="684" d="M39 0l262 1493h346l-262 -1493h-346zM139 1635l221 264h314l137 -264h-154l-147 161l-209 -161h-162z" />
<glyph unicode="&#xcf;" horiz-adv-x="684" d="M39 0l262 1493h346l-262 -1493h-346zM203 1653l41 246h213l-43 -246h-211zM557 1653l41 246h215l-45 -246h-211z" />
<glyph unicode="&#xd0;" horiz-adv-x="1556" d="M-4 643l47 260h184l103 590h364q260 0 393 -35q127 -33 215.5 -114.5t133.5 -196.5t45 -262q0 -203 -76 -381t-213 -303q-119 -111 -274 -156q-154 -45 -486 -45h-364l112 643h-184zM467 291h123q244 0 385 151.5t141 407.5q0 174 -92 262q-94 90 -276 90h-121l-52 -299 h222l-45 -260h-224z" />
<glyph unicode="&#xd1;" horiz-adv-x="1540" d="M39 0l262 1493h387l307 -1034l181 1034h327l-262 -1493h-387l-307 1034l-180 -1034h-328zM569 1635q20 127 82 196q59 70 143 70q37 0 64 -12q33 -14 59 -39l47 -41q18 -14 33 -21q15 -6 31 -6q33 0 57 31q23 29 33 88h125q-25 -131 -82 -197q-59 -70 -144 -69 q-35 0 -63 12q-31 14 -62 39l-45 37q-27 23 -36 26q-15 6 -31 6q-29 0 -55 -32q-23 -29 -33 -88h-123z" />
<glyph unicode="&#xd2;" horiz-adv-x="1564" d="M68 569q0 180 49 344q49 162 145 293q115 160 275 236q162 78 368 78q270 0 432 -166q162 -164 162 -432q0 -181 -49 -344q-47 -160 -145 -291q-115 -156 -277 -238q-156 -78 -369 -78q-268 0 -429.5 164t-161.5 434zM430 612q0 -172 72 -268q70 -94 198 -94 q104 0 184.5 49t137.5 143q57 96 84 205q29 119 29 234q0 174 -72 268q-72 92 -209 92q-176 0 -301 -180q-123 -179 -123 -449zM717 1899h237l129 -264h-159z" />
<glyph unicode="&#xd3;" horiz-adv-x="1564" d="M68 569q0 180 49 344q49 162 145 293q115 160 275 236q162 78 368 78q270 0 432 -166q162 -164 162 -432q0 -181 -49 -344q-47 -160 -145 -291q-115 -156 -277 -238q-156 -78 -369 -78q-268 0 -429.5 164t-161.5 434zM430 612q0 -172 72 -268q70 -94 198 -94 q104 0 184.5 49t137.5 143q57 96 84 205q29 119 29 234q0 174 -72 268q-72 92 -209 92q-176 0 -301 -180q-123 -179 -123 -449zM817 1635l221 264h252l-286 -264h-187z" />
<glyph unicode="&#xd4;" horiz-adv-x="1564" d="M68 569q0 180 49 344q49 162 145 293q115 160 275 236q162 78 368 78q270 0 432 -166q162 -164 162 -432q0 -181 -49 -344q-47 -160 -145 -291q-115 -156 -277 -238q-156 -78 -369 -78q-268 0 -429.5 164t-161.5 434zM430 612q0 -172 72 -268q70 -94 198 -94 q104 0 184.5 49t137.5 143q57 96 84 205q29 119 29 234q0 174 -72 268q-72 92 -209 92q-176 0 -301 -180q-123 -179 -123 -449zM606 1635l221 264h314l137 -264h-154l-147 161l-209 -161h-162z" />
<glyph unicode="&#xd5;" horiz-adv-x="1564" d="M68 569q0 180 49 344q49 162 145 293q115 160 275 236q162 78 368 78q270 0 432 -166q162 -164 162 -432q0 -181 -49 -344q-47 -160 -145 -291q-115 -156 -277 -238q-156 -78 -369 -78q-268 0 -429.5 164t-161.5 434zM430 612q0 -172 72 -268q70 -94 198 -94 q104 0 184.5 49t137.5 143q57 96 84 205q29 119 29 234q0 174 -72 268q-72 92 -209 92q-176 0 -301 -180q-123 -179 -123 -449zM633 1635q20 127 82 196q59 70 143 70q37 0 64 -12q33 -14 59 -39l47 -41q18 -14 33 -21q15 -6 31 -6q33 0 57 31q23 29 33 88h125 q-25 -131 -82 -197q-59 -70 -144 -69q-35 0 -63 12q-31 14 -62 39l-45 37q-27 23 -36 26q-15 6 -31 6q-29 0 -55 -32q-23 -29 -33 -88h-123z" />
<glyph unicode="&#xd6;" horiz-adv-x="1564" d="M68 569q0 180 49 344q49 162 145 293q115 160 275 236q162 78 368 78q270 0 432 -166q162 -164 162 -432q0 -181 -49 -344q-47 -160 -145 -291q-115 -156 -277 -238q-156 -78 -369 -78q-268 0 -429.5 164t-161.5 434zM430 612q0 -172 72 -268q70 -94 198 -94 q104 0 184.5 49t137.5 143q57 96 84 205q29 119 29 234q0 174 -72 268q-72 92 -209 92q-176 0 -301 -180q-123 -179 -123 -449zM670 1653l41 246h213l-43 -246h-211zM1024 1653l41 246h215l-45 -246h-211z" />
<glyph unicode="&#xd7;" d="M229 209l392 432l-392 434l154 168l389 -434l391 434l152 -168l-391 -434l391 -432l-152 -168l-391 432l-389 -432z" />
<glyph unicode="&#xd8;" horiz-adv-x="1564" d="M-86 45l227 213q-37 76 -55 152q-18 80 -18 159q0 180 49 344q49 162 145 293q117 160 275 236q162 78 368 78q135 0 238 -39q104 -40 184 -117l234 215l92 -123l-234 -213q39 -76 62 -158q18 -68 18 -165q0 -181 -49 -345q-47 -160 -145 -290q-119 -160 -277 -236 q-162 -78 -369 -78q-127 0 -237 41q-108 40 -191 123l-227 -213zM432 612q0 -4 4 -73v-7l639 596q-37 57 -90 84q-57 29 -129 29q-181 0 -301 -178q-123 -183 -123 -451zM485 371q35 -59 90.5 -90t124.5 -31q104 0 184.5 49t137.5 143q51 86 84 207q31 113 31 230 q0 27 -7 77q0 4 -1 9l-1 4z" />
<glyph unicode="&#xd9;" horiz-adv-x="1495" d="M125 414q0 23 4 80q2 25 14 104l158 895h346l-158 -895q-10 -51 -12 -84q-4 -49 -4 -65q0 -94 47 -146q46 -49 142 -49q127 0 192.5 78t99.5 266l158 895h346l-158 -895q-59 -332 -221 -479q-163 -147 -467 -148q-238 0 -362.5 113t-124.5 330zM645 1899h237l129 -264 h-159z" />
<glyph unicode="&#xda;" horiz-adv-x="1495" d="M125 414q0 23 4 80q2 25 14 104l158 895h346l-158 -895q-10 -51 -12 -84q-4 -49 -4 -65q0 -94 47 -146q46 -49 142 -49q127 0 192.5 78t99.5 266l158 895h346l-158 -895q-59 -332 -221 -479q-163 -147 -467 -148q-238 0 -362.5 113t-124.5 330zM745 1635l221 264h252 l-286 -264h-187z" />
<glyph unicode="&#xdb;" horiz-adv-x="1495" d="M125 414q0 23 4 80q2 25 14 104l158 895h346l-158 -895q-10 -51 -12 -84q-4 -49 -4 -65q0 -94 47 -146q46 -49 142 -49q127 0 192.5 78t99.5 266l158 895h346l-158 -895q-59 -332 -221 -479q-163 -147 -467 -148q-238 0 -362.5 113t-124.5 330zM534 1635l221 264h314 l137 -264h-154l-147 161l-209 -161h-162z" />
<glyph unicode="&#xdc;" horiz-adv-x="1495" d="M125 414q0 23 4 80q2 25 14 104l158 895h346l-158 -895q-10 -51 -12 -84q-4 -49 -4 -65q0 -94 47 -146q46 -49 142 -49q127 0 192.5 78t99.5 266l158 895h346l-158 -895q-59 -332 -221 -479q-163 -147 -467 -148q-238 0 -362.5 113t-124.5 330zM598 1653l41 246h213 l-43 -246h-211zM952 1653l41 246h215l-45 -246h-211z" />
<glyph unicode="&#xdd;" horiz-adv-x="1333" d="M117 1493h346l227 -553l402 553h399l-664 -870l-108 -623h-346l108 623zM676 1635l221 264h252l-286 -264h-187z" />
<glyph unicode="&#xde;" horiz-adv-x="1366" d="M39 0l262 1493h346l-39 -223h221q213 0 332 -106.5t119 -299.5q0 -119 -39 -221q-41 -106 -113 -184q-78 -84 -192 -125q-109 -39 -279 -39h-221l-51 -295h-346zM487 573h183q123 0 188.5 66t65.5 186q0 82 -47 125q-45 43 -134 43h-184z" />
<glyph unicode="&#xdf;" horiz-adv-x="1323" d="M57 0l195 1114q37 225 176 333.5t385 108.5q203 0 309.5 -88t106.5 -258q0 -12 -4 -44.5t-6 -51.5l-15 -72q-137 -6 -215 -51q-80 -45 -80 -119q0 -57 92 -127l13 -10l55 -43q77 -58 111 -129q35 -74 34 -160q0 -195 -124.5 -313.5t-329.5 -118.5q-72 0 -139 13 q-63 12 -134 36l43 244q39 -23 101 -41q45 -14 96 -14q72 0 121 39q45 37 45 98q0 37 -23 72q-18 31 -90 88l-55 43q-53 39 -86 98q-27 47 -27 113q0 141 82 237q82 98 238 148q0 2 1 6t1 8v23q0 68 -37 102q-39 35 -109 35q-90 0 -143 -53.5t-72 -165.5l-192 -1100h-324z " />
<glyph unicode="&#xe0;" horiz-adv-x="1241" d="M33 276q0 215 147 328q145 113 430 113h191l4 28q2 10 2 21v10q0 65 -55 98q-57 35 -168 35q-96 0 -193 -22q-88 -20 -180 -70l47 273q104 29 207 43q100 14 219 14q225 0 333.5 -86t108.5 -260q0 -20 -4 -74q-4 -43 -12 -88l-113 -639h-321l26 166q-80 -102 -167 -148 q-90 -47 -193 -47q-143 0 -225 82q-84 84 -84 223zM362 340q0 -61 37 -96q39 -35 101 -35q98 0 165.5 67.5t88.5 186.5l8 41h-156q-123 0 -182 -41q-62 -43 -62 -123zM404 1638h254l188 -376h-176z" />
<glyph unicode="&#xe1;" horiz-adv-x="1241" d="M33 276q0 215 147 328q145 113 430 113h191l4 28q2 10 2 21v10q0 65 -55 98q-57 35 -168 35q-96 0 -193 -22q-88 -20 -180 -70l47 273q104 29 207 43q100 14 219 14q225 0 333.5 -86t108.5 -260q0 -20 -4 -74q-4 -43 -12 -88l-113 -639h-321l26 166q-80 -102 -167 -148 q-90 -47 -193 -47q-143 0 -225 82q-84 84 -84 223zM362 340q0 -61 37 -96q39 -35 101 -35q98 0 165.5 67.5t88.5 186.5l8 41h-156q-123 0 -182 -41q-62 -43 -62 -123zM580 1262l311 376h264l-395 -376h-180z" />
<glyph unicode="&#xe2;" horiz-adv-x="1241" d="M33 276q0 215 147 328q145 113 430 113h191l4 28q2 10 2 21v10q0 65 -55 98q-57 35 -168 35q-96 0 -193 -22q-88 -20 -180 -70l47 273q104 29 207 43q100 14 219 14q225 0 333.5 -86t108.5 -260q0 -20 -4 -74q-4 -43 -12 -88l-113 -639h-321l26 166q-80 -102 -167 -148 q-90 -47 -193 -47q-143 0 -225 82q-84 84 -84 223zM362 340q0 -61 37 -96q39 -35 101 -35q98 0 165.5 67.5t88.5 186.5l8 41h-156q-123 0 -182 -41q-62 -43 -62 -123zM357 1262l294 376h236l166 -376h-162l-139 225l-217 -225h-178z" />
<glyph unicode="&#xe3;" horiz-adv-x="1241" d="M33 276q0 215 147 328q145 113 430 113h191l4 28q2 10 2 21v10q0 65 -55 98q-57 35 -168 35q-96 0 -193 -22q-88 -20 -180 -70l47 273q104 29 207 43q100 14 219 14q225 0 333.5 -86t108.5 -260q0 -20 -4 -74q-4 -43 -12 -88l-113 -639h-321l26 166q-80 -102 -167 -148 q-90 -47 -193 -47q-143 0 -225 82q-84 84 -84 223zM362 340q0 -61 37 -96q39 -35 101 -35q98 0 165.5 67.5t88.5 186.5l8 41h-156q-123 0 -182 -41q-62 -43 -62 -123zM408 1309q25 139 82 211q57 74 143 73q29 0 64 -14q29 -12 63 -43l47 -43q12 -10 33 -23q14 -8 29 -8 q33 0 57 33q23 33 33 96h125q-25 -139 -82 -211q-57 -74 -144 -73q-29 0 -57 12q-31 14 -68 45l-45 37l-8 8q-31 29 -61 29q-29 0 -54 -35q-23 -33 -32 -94h-125z" />
<glyph unicode="&#xe4;" horiz-adv-x="1241" d="M33 276q0 215 147 328q145 113 430 113h191l4 28q2 10 2 21v10q0 65 -55 98q-57 35 -168 35q-96 0 -193 -22q-88 -20 -180 -70l47 273q104 29 207 43q100 14 219 14q225 0 333.5 -86t108.5 -260q0 -20 -4 -74q-4 -43 -12 -88l-113 -639h-321l26 166q-80 -102 -167 -148 q-90 -47 -193 -47q-143 0 -225 82q-84 84 -84 223zM362 340q0 -61 37 -96q39 -35 101 -35q98 0 165.5 67.5t88.5 186.5l8 41h-156q-123 0 -182 -41q-62 -43 -62 -123zM443 1339l41 246h215l-45 -246h-211zM799 1339l43 246h213l-45 -246h-211z" />
<glyph unicode="&#xe5;" horiz-adv-x="1241" d="M33 276q0 215 147 328q145 113 430 113h191l4 28q2 10 2 21v10q0 65 -55 98q-57 35 -168 35q-96 0 -193 -22q-88 -20 -180 -70l47 273q104 29 207 43q100 14 219 14q225 0 333.5 -86t108.5 -260q0 -20 -4 -74q-4 -43 -12 -88l-113 -639h-321l26 166q-80 -102 -167 -148 q-90 -47 -193 -47q-143 0 -225 82q-84 84 -84 223zM362 340q0 -61 37 -96q39 -35 101 -35q98 0 165.5 67.5t88.5 186.5l8 41h-156q-123 0 -182 -41q-62 -43 -62 -123zM502 1524q0 120 74 202t182 82q106 0 180 -82q76 -86 76 -202.5t-76 -202.5q-74 -82 -180 -82 q-109 0 -182 82q-74 83 -74 203zM623 1524q0 -61 39 -107q37 -43 96 -43q61 0 96 41q37 43 37 109q0 63 -37 106t-96 43q-61 0 -98 -43t-37 -106z" />
<glyph unicode="&#xe6;" horiz-adv-x="1929" d="M33 274q0 217 147 330q145 113 434 113h185l6 28q2 8 2 21v10q0 65 -55 98q-57 35 -164 35q-100 0 -197 -22q-86 -20 -178 -70l49 273q106 29 205 43q94 14 195 14q133 0 223 -37q88 -37 139 -113q84 76 180 113q94 37 213 37q201 0 322 -123q119 -121 119 -322 q0 -31 -5 -92q-2 -31 -14 -92l-12 -57h-752q0 -2 -1 -7t-1 -10v-18q0 -109 60 -164q55 -53 176 -53q102 0 213 33q104 31 237 102l-49 -278q-104 -45 -235 -72q-106 -23 -238 -23q-158 0 -262 52q-109 53 -166 155q-102 -102 -215 -155q-109 -51 -238 -52q-152 0 -237.5 80 t-85.5 223zM362 340q0 -61 37 -96q39 -35 101 -35q98 0 165.5 67.5t88.5 186.5l8 41h-156q-123 0 -182 -41q-62 -43 -62 -123zM1118 682h418q4 16 4 27v26q0 80 -43 127t-117 47q-96 0 -161.5 -57t-100.5 -170z" />
<glyph unicode="&#xe7;" horiz-adv-x="1091" d="M68 426q0 135 47 266q43 121 137 232q98 113 223 168q127 55 293 55q70 0 152 -17q84 -16 151 -45l-51 -292q-66 51 -127 73q-66 25 -125 25q-154 0 -256 -117q-100 -115 -100 -301q0 -117 61 -182q61 -63 176 -64q74 0 148 25q76 25 139 74l-49 -293q-84 -33 -162 -47 q-74 -14 -164 -15q-238 0 -364 119q-129 119 -129 336zM250 -375l27 156q35 -18 71 -27q33 -8 72 -8q57 0 92 28.5t35 75.5q0 27 -12 60q-10 31 -41 90h129q29 -43 47 -96q16 -45 16 -86q0 -104 -67 -162q-66 -57 -193 -57q-45 0 -88 6q-25 4 -88 20z" />
<glyph unicode="&#xe8;" horiz-adv-x="1249" d="M68 434q0 131 38.5 248t120.5 221q94 121 222 182q129 61 286 62q205 0 326 -121q119 -119 119 -326q0 -55 -4 -84q-10 -74 -17 -98l-10 -57h-756v-17q0 -4 -1 -10t-1 -8q0 -109 60 -164q55 -53 178 -53q98 0 215 35q115 35 235 100l-49 -278q-106 -45 -233 -72 q-106 -23 -238 -23q-233 0 -364 121q-127 119 -127 342zM438 682h416q4 16 4 27q0 4 1 13t1 13q0 80 -43 127t-117 47q-96 0 -161.5 -57t-100.5 -170zM447 1638h254l188 -376h-176z" />
<glyph unicode="&#xe9;" horiz-adv-x="1249" d="M68 434q0 131 38.5 248t120.5 221q94 121 222 182q129 61 286 62q205 0 326 -121q119 -119 119 -326q0 -55 -4 -84q-10 -74 -17 -98l-10 -57h-756v-17q0 -4 -1 -10t-1 -8q0 -109 60 -164q55 -53 178 -53q98 0 215 35q115 35 235 100l-49 -278q-106 -45 -233 -72 q-106 -23 -238 -23q-233 0 -364 121q-127 119 -127 342zM438 682h416q4 16 4 27q0 4 1 13t1 13q0 80 -43 127t-117 47q-96 0 -161.5 -57t-100.5 -170zM623 1262l311 376h264l-395 -376h-180z" />
<glyph unicode="&#xea;" horiz-adv-x="1249" d="M68 434q0 131 38.5 248t120.5 221q94 121 222 182q129 61 286 62q205 0 326 -121q119 -119 119 -326q0 -55 -4 -84q-10 -74 -17 -98l-10 -57h-756v-17q0 -4 -1 -10t-1 -8q0 -109 60 -164q55 -53 178 -53q98 0 215 35q115 35 235 100l-49 -278q-106 -45 -233 -72 q-106 -23 -238 -23q-233 0 -364 121q-127 119 -127 342zM438 682h416q4 16 4 27q0 4 1 13t1 13q0 80 -43 127t-117 47q-96 0 -161.5 -57t-100.5 -170zM400 1262l294 376h236l166 -376h-162l-139 225l-217 -225h-178z" />
<glyph unicode="&#xeb;" horiz-adv-x="1249" d="M68 434q0 131 38.5 248t120.5 221q94 121 222 182q129 61 286 62q205 0 326 -121q119 -119 119 -326q0 -55 -4 -84q-10 -74 -17 -98l-10 -57h-756v-17q0 -4 -1 -10t-1 -8q0 -109 60 -164q55 -53 178 -53q98 0 215 35q115 35 235 100l-49 -278q-106 -45 -233 -72 q-106 -23 -238 -23q-233 0 -364 121q-127 119 -127 342zM438 682h416q4 16 4 27q0 4 1 13t1 13q0 80 -43 127t-117 47q-96 0 -161.5 -57t-100.5 -170zM486 1339l41 246h215l-45 -246h-211zM842 1339l43 246h213l-45 -246h-211z" />
<glyph unicode="&#xec;" horiz-adv-x="630" d="M57 0l197 1120h324l-197 -1120h-324zM115 1638h254l188 -376h-176z" />
<glyph unicode="&#xed;" horiz-adv-x="630" d="M57 0l197 1120h324l-197 -1120h-324zM291 1262l311 376h264l-395 -376h-180z" />
<glyph unicode="&#xee;" horiz-adv-x="630" d="M57 0l197 1120h324l-197 -1120h-324zM68 1262l294 376h236l166 -376h-162l-139 225l-217 -225h-178z" />
<glyph unicode="&#xef;" horiz-adv-x="630" d="M57 0l197 1120h324l-197 -1120h-324zM154 1339l41 246h215l-45 -246h-211zM510 1339l43 246h213l-45 -246h-211z" />
<glyph unicode="&#xf0;" horiz-adv-x="1265" d="M68 426q0 279 163 455q162 174 426 174q43 0 84 -6q27 -4 72 -21l-135 215l-348 -108l-31 129l305 94l-123 198h318l73 -116l347 106l30 -127l-305 -94l139 -225q57 -90 88 -199q29 -100 29 -221q0 -125 -41 -252q-37 -113 -119 -221q-90 -115 -217 -176 q-121 -59 -278 -60q-221 0 -348 125q-129 125 -129 330zM403 451q0 -109 45.5 -166.5t131.5 -57.5q127 0 206 127q80 125 80 324l-4 53v12q-49 29 -92 41q-46 12 -92 13q-127 0 -201 -95q-74 -94 -74 -251z" />
<glyph unicode="&#xf1;" horiz-adv-x="1310" d="M57 0l197 1120h324l-31 -164q88 96 178 143.5t188 47.5q139 0 217 -80q74 -76 74 -229q0 -16 -4 -70q-4 -57 -10 -86l-121 -682h-324l103 584q6 29 16 96q6 41 6 63q0 61 -32 99q-31 35 -90 35q-101 0 -172 -86t-99 -240l-96 -551h-324zM441 1309q25 139 82 211 q57 74 143 73q29 0 64 -14q29 -12 63 -43l47 -43q12 -10 33 -23q14 -8 29 -8q33 0 57 33q23 33 33 96h125q-25 -139 -82 -211q-57 -74 -144 -73q-29 0 -57 12q-31 14 -68 45l-45 37l-8 8q-31 29 -61 29q-29 0 -54 -35q-23 -33 -32 -94h-125z" />
<glyph unicode="&#xf2;" horiz-adv-x="1265" d="M68 444q0 123 41 246q39 115 118 221q86 113 215 176q121 59 275 60q223 0 354 -127q129 -127 129 -346q0 -123 -41 -246q-39 -117 -119 -219q-94 -119 -214.5 -178.5t-280.5 -59.5q-219 0 -350 127q-127 125 -127 346zM403 444q0 -104 46 -161q43 -55 126 -56 q125 0 205 127q82 129 82 322q0 104 -43 159.5t-129 55.5q-125 0 -205 -125q-82 -129 -82 -322zM416 1638h254l188 -376h-176z" />
<glyph unicode="&#xf3;" horiz-adv-x="1265" d="M68 444q0 123 41 246q39 115 118 221q86 113 215 176q121 59 275 60q223 0 354 -127q129 -127 129 -346q0 -123 -41 -246q-39 -117 -119 -219q-94 -119 -214.5 -178.5t-280.5 -59.5q-219 0 -350 127q-127 125 -127 346zM403 444q0 -104 46 -161q43 -55 126 -56 q125 0 205 127q82 129 82 322q0 104 -43 159.5t-129 55.5q-125 0 -205 -125q-82 -129 -82 -322zM592 1262l311 376h264l-395 -376h-180z" />
<glyph unicode="&#xf4;" horiz-adv-x="1265" d="M68 444q0 123 41 246q39 115 118 221q86 113 215 176q121 59 275 60q223 0 354 -127q129 -127 129 -346q0 -123 -41 -246q-39 -117 -119 -219q-94 -119 -214.5 -178.5t-280.5 -59.5q-219 0 -350 127q-127 125 -127 346zM403 444q0 -104 46 -161q43 -55 126 -56 q125 0 205 127q82 129 82 322q0 104 -43 159.5t-129 55.5q-125 0 -205 -125q-82 -129 -82 -322zM369 1262l294 376h236l166 -376h-162l-139 225l-217 -225h-178z" />
<glyph unicode="&#xf5;" horiz-adv-x="1265" d="M68 444q0 123 41 246q39 115 118 221q86 113 215 176q121 59 275 60q223 0 354 -127q129 -127 129 -346q0 -123 -41 -246q-39 -117 -119 -219q-94 -119 -214.5 -178.5t-280.5 -59.5q-219 0 -350 127q-127 125 -127 346zM403 444q0 -104 46 -161q43 -55 126 -56 q125 0 205 127q82 129 82 322q0 104 -43 159.5t-129 55.5q-125 0 -205 -125q-82 -129 -82 -322zM420 1309q25 139 82 211q57 74 143 73q29 0 64 -14q29 -12 63 -43l47 -43q12 -10 33 -23q14 -8 29 -8q33 0 57 33q23 33 33 96h125q-25 -139 -82 -211q-57 -74 -144 -73 q-29 0 -57 12q-31 14 -68 45l-45 37l-8 8q-31 29 -61 29q-29 0 -54 -35q-23 -33 -32 -94h-125z" />
<glyph unicode="&#xf6;" horiz-adv-x="1265" d="M68 444q0 123 41 246q39 115 118 221q86 113 215 176q121 59 275 60q223 0 354 -127q129 -127 129 -346q0 -123 -41 -246q-39 -117 -119 -219q-94 -119 -214.5 -178.5t-280.5 -59.5q-219 0 -350 127q-127 125 -127 346zM403 444q0 -104 46 -161q43 -55 126 -56 q125 0 205 127q82 129 82 322q0 104 -43 159.5t-129 55.5q-125 0 -205 -125q-82 -129 -82 -322zM455 1339l41 246h215l-45 -246h-211zM811 1339l43 246h213l-45 -246h-211z" />
<glyph unicode="&#xf7;" d="M195 524v236h1155v-236h-1155zM635 86v309h276v-309h-276zM635 889v309h276v-309h-276z" />
<glyph unicode="&#xf8;" horiz-adv-x="1265" d="M-33 10l170 164q-35 61 -53 127q-16 59 -16 145q0 129 38 246q39 115 121 219q90 119 215 176q129 59 279 60q90 0 170 -23q74 -20 139 -69l172 168l88 -111l-164 -162q35 -55 56 -129q18 -68 18 -147q0 -123 -41 -246q-39 -117 -119 -219q-90 -115 -217 -176.5 t-278 -61.5q-96 0 -176 25q-76 25 -140 74l-174 -172zM403 438l410 404q-23 27 -49 37q-31 12 -74 12q-125 0 -201 -119q-78 -121 -86 -334zM449 283q18 -23 53 -41q29 -14 73 -15q126 0 203 123q78 125 84 342z" />
<glyph unicode="&#xf9;" horiz-adv-x="1310" d="M111 281q0 20 4 73q2 23 10 82l119 684h321l-100 -583q-4 -20 -9 -52l-7 -45q-6 -39 -7 -63q0 -61 33 -98q31 -35 88 -35q101 0 172 86q74 90 101 239l96 551h323l-194 -1120h-326l31 164q-80 -96 -174 -146q-88 -47 -193 -47q-137 0 -213 80q-75 78 -75 230zM437 1638 h254l188 -376h-176z" />
<glyph unicode="&#xfa;" horiz-adv-x="1310" d="M111 281q0 20 4 73q2 23 10 82l119 684h321l-100 -583q-4 -20 -9 -52l-7 -45q-6 -39 -7 -63q0 -61 33 -98q31 -35 88 -35q101 0 172 86q74 90 101 239l96 551h323l-194 -1120h-326l31 164q-80 -96 -174 -146q-88 -47 -193 -47q-137 0 -213 80q-75 78 -75 230zM613 1262 l311 376h264l-395 -376h-180z" />
<glyph unicode="&#xfb;" horiz-adv-x="1310" d="M111 281q0 20 4 73q2 23 10 82l119 684h321l-100 -583q-4 -20 -9 -52l-7 -45q-6 -39 -7 -63q0 -61 33 -98q31 -35 88 -35q101 0 172 86q74 90 101 239l96 551h323l-194 -1120h-326l31 164q-80 -96 -174 -146q-88 -47 -193 -47q-137 0 -213 80q-75 78 -75 230zM390 1262 l294 376h236l166 -376h-162l-139 225l-217 -225h-178z" />
<glyph unicode="&#xfc;" horiz-adv-x="1310" d="M111 281q0 20 4 73q2 23 10 82l119 684h321l-100 -583q-4 -20 -9 -52l-7 -45q-6 -39 -7 -63q0 -61 33 -98q31 -35 88 -35q101 0 172 86q74 90 101 239l96 551h323l-194 -1120h-326l31 164q-80 -96 -174 -146q-88 -47 -193 -47q-137 0 -213 80q-75 78 -75 230zM476 1339 l41 246h215l-45 -246h-211zM832 1339l43 246h213l-45 -246h-211z" />
<glyph unicode="&#xfd;" horiz-adv-x="1200" d="M0 -442l33 235h102q82 0 123 29q45 33 78 104l29 60l-242 1134h303l137 -776l359 776h344l-637 -1226q-109 -207 -199 -271q-94 -66 -235 -65h-195zM557 1262l311 376h264l-395 -376h-180z" />
<glyph unicode="&#xfe;" horiz-adv-x="1318" d="M-18 -426l346 1982h323l-104 -600q72 94 155 144q82 47 177 47q172 0 270 -121q98 -120 98 -326q0 -125 -35 -251q-31 -113 -100 -222q-86 -129 -184 -190q-106 -66 -221 -66q-98 0 -175 47q-74 47 -122 144l-105 -588h-323zM467 428q0 -92 43 -145q43 -51 125 -52 q121 0 201 125q78 123 77 322q0 106 -41 156q-43 53 -124 53q-125 0 -203 -127q-78 -125 -78 -332z" />
<glyph unicode="&#xff;" horiz-adv-x="1200" d="M0 -442l33 235h102q82 0 123 29q45 33 78 104l29 60l-242 1134h303l137 -776l359 776h344l-637 -1226q-109 -207 -199 -271q-94 -66 -235 -65h-195zM420 1339l41 246h215l-45 -246h-211zM776 1339l43 246h213l-45 -246h-211z" />
<glyph unicode="&#x100;" horiz-adv-x="1425" d="M-121 0l760 1493h397l238 -1493h-330l-39 272h-536l-133 -272h-357zM500 543h360l-82 575zM537 1683l34 188h568l-33 -188h-569z" />
<glyph unicode="&#x101;" horiz-adv-x="1241" d="M33 276q0 215 147 328q145 113 430 113h191l4 28q2 10 2 21v10q0 65 -55 98q-57 35 -168 35q-96 0 -193 -22q-88 -20 -180 -70l47 273q104 29 207 43q100 14 219 14q225 0 333.5 -86t108.5 -260q0 -20 -4 -74q-4 -43 -12 -88l-113 -639h-321l26 166q-80 -102 -167 -148 q-90 -47 -193 -47q-143 0 -225 82q-84 84 -84 223zM362 340q0 -61 37 -96q39 -35 101 -35q98 0 165.5 67.5t88.5 186.5l8 41h-156q-123 0 -182 -41q-62 -43 -62 -123zM408 1374l34 188h568l-33 -188h-569z" />
<glyph unicode="&#x102;" horiz-adv-x="1425" d="M604 1863q0 8 1 18.5t1 12.5q0 14 2 21h127v-9q0 -68 39 -100q41 -35 111 -35q76 0 119 35q51 41 73 109h135q-31 -141 -122 -220q-94 -78 -232 -77q-126 0 -190 61t-64 184zM-121 0l760 1493h397l238 -1493h-330l-39 272h-536l-133 -272h-357zM500 543h360l-82 575z" />
<glyph unicode="&#x103;" horiz-adv-x="1241" d="M469 1529q0 8 1 18.5t1 12.5q0 14 2 21h127v-9q0 -68 39 -100q41 -35 111 -35q76 0 119 35q51 41 73 109h135q-31 -141 -122 -220q-94 -78 -232 -77q-126 0 -190 61t-64 184zM33 276q0 215 147 328q145 113 430 113h191l4 28q2 10 2 21v10q0 65 -55 98q-57 35 -168 35 q-96 0 -193 -22q-88 -20 -180 -70l47 273q104 29 207 43q100 14 219 14q225 0 333.5 -86t108.5 -260q0 -20 -4 -74q-4 -43 -12 -88l-113 -639h-321l26 166q-80 -102 -167 -148q-90 -47 -193 -47q-143 0 -225 82q-84 84 -84 223zM362 340q0 -61 37 -96q39 -35 101 -35 q98 0 165.5 67.5t88.5 186.5l8 41h-156q-123 0 -182 -41q-62 -43 -62 -123z" />
<glyph unicode="&#x104;" horiz-adv-x="1425" d="M811 -266.5q0 65.5 33 129.5q31 59 108 137h127q-51 -59 -86 -115q-25 -40 -24 -67q0 -35 22 -54q20 -18 64 -18q37 0 70 8q49 12 75 23l-26 -152q-78 -18 -92 -20q-41 -6 -76 -6q-94 0 -146 34q-49 35 -49 100.5zM-121 0l760 1493h397l238 -1493h-330l-39 272h-536 l-133 -272h-357zM500 543h360l-82 575z" />
<glyph unicode="&#x105;" horiz-adv-x="1241" d="M534 -266.5q0 65.5 33 129.5q31 59 108 137h127q-51 -59 -86 -115q-25 -40 -24 -67q0 -35 22 -54q20 -18 64 -18q37 0 70 8q49 12 75 23l-26 -152q-78 -18 -92 -20q-41 -6 -76 -6q-94 0 -146 34q-49 35 -49 100.5zM33 276q0 215 147 328q145 113 430 113h191l4 28 q2 10 2 21v10q0 65 -55 98q-57 35 -168 35q-96 0 -193 -22q-88 -20 -180 -70l47 273q104 29 207 43q100 14 219 14q225 0 333.5 -86t108.5 -260q0 -20 -4 -74q-4 -43 -12 -88l-113 -639h-321l26 166q-80 -102 -167 -148q-90 -47 -193 -47q-143 0 -225 82q-84 84 -84 223z M362 340q0 -61 37 -96q39 -35 101 -35q98 0 165.5 67.5t88.5 186.5l8 41h-156q-123 0 -182 -41q-62 -43 -62 -123z" />
<glyph unicode="&#x106;" horiz-adv-x="1351" d="M68 573q0 182 51 338q53 164 149 289q117 154 285 238q164 82 358 82q109 0 209 -27q106 -29 215 -84l-55 -309q-82 70 -174 106q-88 35 -188 35q-207 0 -348.5 -178t-141.5 -445q0 -170 88 -270q86 -98 238 -98q90 0 192.5 37t229.5 114l-60 -331q-121 -49 -237 -74 q-113 -25 -217 -25q-270 0 -432 164t-162 438zM833 1635l221 264h252l-286 -264h-187z" />
<glyph unicode="&#x107;" horiz-adv-x="1091" d="M68 426q0 135 47 266q43 121 137 232q98 113 223 168q127 55 293 55q70 0 152 -17q84 -16 151 -45l-51 -292q-66 51 -127 73q-66 25 -125 25q-154 0 -256 -117q-100 -115 -100 -301q0 -117 61 -182q61 -63 176 -64q74 0 148 25q76 25 139 74l-49 -293q-84 -33 -162 -47 q-74 -14 -164 -15q-238 0 -364 119q-129 119 -129 336zM613 1262l311 376h264l-395 -376h-180z" />
<glyph unicode="&#x108;" horiz-adv-x="1351" d="M622 1635l221 264h314l137 -264h-154l-147 161l-209 -161h-162zM68 573q0 182 51 338q53 164 149 289q117 154 285 238q164 82 358 82q109 0 209 -27q106 -29 215 -84l-55 -309q-82 70 -174 106q-88 35 -188 35q-207 0 -348.5 -178t-141.5 -445q0 -170 88 -270 q86 -98 238 -98q90 0 192.5 37t229.5 114l-60 -331q-121 -49 -237 -74q-113 -25 -217 -25q-270 0 -432 164t-162 438z" />
<glyph unicode="&#x109;" horiz-adv-x="1091" d="M390 1262l294 376h236l166 -376h-162l-139 225l-217 -225h-178zM68 426q0 135 47 266q43 121 137 232q98 113 223 168q127 55 293 55q70 0 152 -17q84 -16 151 -45l-51 -292q-66 51 -127 73q-66 25 -125 25q-154 0 -256 -117q-100 -115 -100 -301q0 -117 61 -182 q61 -63 176 -64q74 0 148 25q76 25 139 74l-49 -293q-84 -33 -162 -47q-74 -14 -164 -15q-238 0 -364 119q-129 119 -129 336z" />
<glyph unicode="&#x10a;" horiz-adv-x="1351" d="M848 1653l40 246h248l-43 -246h-245zM68 573q0 182 51 338q53 164 149 289q117 154 285 238q164 82 358 82q109 0 209 -27q106 -29 215 -84l-55 -309q-82 70 -174 106q-88 35 -188 35q-207 0 -348.5 -178t-141.5 -445q0 -170 88 -270q86 -98 238 -98q90 0 192.5 37 t229.5 114l-60 -331q-121 -49 -237 -74q-113 -25 -217 -25q-270 0 -432 164t-162 438z" />
<glyph unicode="&#x10b;" horiz-adv-x="1091" d="M635 1339l45 246h246l-43 -246h-248zM68 426q0 135 47 266q43 121 137 232q98 113 223 168q127 55 293 55q70 0 152 -17q84 -16 151 -45l-51 -292q-66 51 -127 73q-66 25 -125 25q-154 0 -256 -117q-100 -115 -100 -301q0 -117 61 -182q61 -63 176 -64q74 0 148 25 q76 25 139 74l-49 -293q-84 -33 -162 -47q-74 -14 -164 -15q-238 0 -364 119q-129 119 -129 336z" />
<glyph unicode="&#x10c;" horiz-adv-x="1351" d="M68 573q0 182 51 338q53 164 149 289q117 154 285 238q164 82 358 82q109 0 209 -27q106 -29 215 -84l-55 -309q-82 70 -174 106q-88 35 -188 35q-207 0 -348.5 -178t-141.5 -445q0 -170 88 -270q86 -98 238 -98q90 0 192.5 37t229.5 114l-60 -331q-121 -49 -237 -74 q-113 -25 -217 -25q-270 0 -432 164t-162 438zM692 1899h156l133 -162l206 162h160l-219 -264h-313z" />
<glyph unicode="&#x10d;" horiz-adv-x="1091" d="M68 426q0 135 47 266q43 121 137 232q98 113 223 168q127 55 293 55q70 0 152 -17q84 -16 151 -45l-51 -292q-66 51 -127 73q-66 25 -125 25q-154 0 -256 -117q-100 -115 -100 -301q0 -117 61 -182q61 -63 176 -64q74 0 148 25q76 25 139 74l-49 -293q-84 -33 -162 -47 q-74 -14 -164 -15q-238 0 -364 119q-129 119 -129 336zM474 1638h157l142 -227l219 227h176l-295 -376h-236z" />
<glyph unicode="&#x10e;" horiz-adv-x="1529" d="M39 0l262 1493h365q258 0 391 -35q131 -35 217 -115q90 -82 131 -196q45 -123 45 -262q0 -201 -76 -383q-72 -176 -211 -301q-123 -111 -276.5 -156t-483.5 -45h-364zM436 291h125q242 0 383 151.5t141 407.5q0 174 -92 262q-94 90 -274 90h-121zM606 1899h156l133 -162 l206 162h160l-219 -264h-313z" />
<glyph unicode="&#x10f;" horiz-adv-x="1318" d="M68 418q0 125 34 252q33 117 99 221q86 129 184 190q106 66 221 66q100 0 176 -47q74 -47 123 -144l105 600h325l-272 -1556h-326l31 162q-72 -94 -156 -144q-82 -47 -178 -47q-170 0 -268 119t-98 328zM399 440q0 -104 43 -155q43 -53 123 -54q125 0 203 127t78 332 q0 92 -43 146q-43 51 -123 51q-121 0 -201 -125q-80 -127 -80 -322zM1372 1178l113 376h262l-193 -376h-182z" />
<glyph unicode="&#x110;" horiz-adv-x="1556" d="M-4 643l47 260h184l103 590h364q260 0 393 -35q127 -33 215.5 -114.5t133.5 -196.5t45 -262q0 -203 -76 -381t-213 -303q-119 -111 -274 -156q-154 -45 -486 -45h-364l112 643h-184zM467 291h123q244 0 385 151.5t141 407.5q0 174 -92 262q-94 90 -276 90h-121l-52 -299 h222l-45 -260h-224z" />
<glyph unicode="&#x111;" horiz-adv-x="1318" d="M68 418q0 125 34 252q33 117 99 221q86 129 184 190q106 66 221 66q100 0 176 -47q74 -47 123 -144l51 295h-356l35 189h354l21 116h325l-20 -116h190l-32 -189h-193l-217 -1251h-326l31 162q-72 -94 -156 -144q-82 -47 -178 -47q-170 0 -268 119t-98 328zM399 440 q0 -104 43 -155q43 -53 123 -54q125 0 203 127t78 332q0 92 -43 146q-43 51 -123 51q-121 0 -201 -125q-80 -127 -80 -322z" />
<glyph unicode="&#x112;" horiz-adv-x="1257" d="M39 0l262 1493h934l-51 -291h-588l-49 -278h555l-53 -291h-553l-60 -342h606l-49 -291h-954zM461 1683l34 188h568l-33 -188h-569z" />
<glyph unicode="&#x113;" horiz-adv-x="1249" d="M68 434q0 131 38.5 248t120.5 221q94 121 222 182q129 61 286 62q205 0 326 -121q119 -119 119 -326q0 -55 -4 -84q-10 -74 -17 -98l-10 -57h-756v-17q0 -4 -1 -10t-1 -8q0 -109 60 -164q55 -53 178 -53q98 0 215 35q115 35 235 100l-49 -278q-106 -45 -233 -72 q-106 -23 -238 -23q-233 0 -364 121q-127 119 -127 342zM438 682h416q4 16 4 27q0 4 1 13t1 13q0 80 -43 127t-117 47q-96 0 -161.5 -57t-100.5 -170zM461 1374l34 188h568l-33 -188h-569z" />
<glyph unicode="&#x114;" horiz-adv-x="1257" d="M555 1895v4h129q8 -61 46 -88q35 -27 106 -27q66 0 113 31q49 33 69 84h138q-33 -127 -125 -197q-89 -68 -222 -67q-125 0 -188 67q-66 70 -66 193zM39 0l262 1493h934l-51 -291h-588l-49 -278h555l-53 -291h-553l-60 -342h606l-49 -291h-954z" />
<glyph unicode="&#x115;" horiz-adv-x="1249" d="M510 1554q0 8 1 18.5t1 12.5q0 14 2 21h127v-9q0 -68 39 -100q41 -35 111 -35q76 0 119 35q51 41 73 109h135q-31 -141 -122 -220q-94 -78 -232 -77q-126 0 -190 61t-64 184zM68 434q0 131 38.5 248t120.5 221q94 121 222 182q129 61 286 62q205 0 326 -121 q119 -119 119 -326q0 -55 -4 -84q-10 -74 -17 -98l-10 -57h-756v-17q0 -4 -1 -10t-1 -8q0 -109 60 -164q55 -53 178 -53q98 0 215 35q115 35 235 100l-49 -278q-106 -45 -233 -72q-106 -23 -238 -23q-233 0 -364 121q-127 119 -127 342zM438 682h416q4 16 4 27q0 4 1 13 t1 13q0 80 -43 127t-117 47q-96 0 -161.5 -57t-100.5 -170z" />
<glyph unicode="&#x116;" horiz-adv-x="1257" d="M687 1653l40 246h248l-43 -246h-245zM39 0l262 1493h934l-51 -291h-588l-49 -278h555l-53 -291h-553l-60 -342h606l-49 -291h-954z" />
<glyph unicode="&#x117;" horiz-adv-x="1249" d="M645 1339l45 246h246l-43 -246h-248zM68 434q0 131 38.5 248t120.5 221q94 121 222 182q129 61 286 62q205 0 326 -121q119 -119 119 -326q0 -55 -4 -84q-10 -74 -17 -98l-10 -57h-756v-17q0 -4 -1 -10t-1 -8q0 -109 60 -164q55 -53 178 -53q98 0 215 35q115 35 235 100 l-49 -278q-106 -45 -233 -72q-106 -23 -238 -23q-233 0 -364 121q-127 119 -127 342zM438 682h416q4 16 4 27q0 4 1 13t1 13q0 80 -43 127t-117 47q-96 0 -161.5 -57t-100.5 -170z" />
<glyph unicode="&#x118;" horiz-adv-x="1257" d="M606 -266.5q0 65.5 33 129.5q31 59 108 137h127q-51 -59 -86 -115q-25 -40 -24 -67q0 -35 22 -54q20 -18 64 -18q37 0 70 8q49 12 75 23l-26 -152q-78 -18 -92 -20q-41 -6 -76 -6q-94 0 -146 34q-49 35 -49 100.5zM39 0l262 1493h934l-51 -291h-588l-49 -278h555 l-53 -291h-553l-60 -342h606l-49 -291h-954z" />
<glyph unicode="&#x119;" horiz-adv-x="1249" d="M534 -266.5q0 65.5 33 129.5q31 59 108 137h127q-51 -59 -86 -115q-25 -40 -24 -67q0 -35 22 -54q20 -18 64 -18q37 0 70 8q49 12 75 23l-26 -152q-78 -18 -92 -20q-41 -6 -76 -6q-94 0 -146 34q-49 35 -49 100.5zM68 434q0 131 38.5 248t120.5 221q94 121 222 182 q129 61 286 62q205 0 326 -121q119 -119 119 -326q0 -55 -4 -84q-10 -74 -17 -98l-10 -57h-756v-17q0 -4 -1 -10t-1 -8q0 -109 60 -164q55 -53 178 -53q98 0 215 35q115 35 235 100l-49 -278q-106 -45 -233 -72q-106 -23 -238 -23q-233 0 -364 121q-127 119 -127 342z M438 682h416q4 16 4 27q0 4 1 13t1 13q0 80 -43 127t-117 47q-96 0 -161.5 -57t-100.5 -170z" />
<glyph unicode="&#x11a;" horiz-adv-x="1257" d="M39 0l262 1493h934l-51 -291h-588l-49 -278h555l-53 -291h-553l-60 -342h606l-49 -291h-954zM563 1899h156l133 -162l206 162h160l-219 -264h-313z" />
<glyph unicode="&#x11b;" horiz-adv-x="1249" d="M68 434q0 131 38.5 248t120.5 221q94 121 222 182q129 61 286 62q205 0 326 -121q119 -119 119 -326q0 -55 -4 -84q-10 -74 -17 -98l-10 -57h-756v-17q0 -4 -1 -10t-1 -8q0 -109 60 -164q55 -53 178 -53q98 0 215 35q115 35 235 100l-49 -278q-106 -45 -233 -72 q-106 -23 -238 -23q-233 0 -364 121q-127 119 -127 342zM438 682h416q4 16 4 27q0 4 1 13t1 13q0 80 -43 127t-117 47q-96 0 -161.5 -57t-100.5 -170zM474 1638h157l142 -227l219 227h176l-295 -376h-236z" />
<glyph unicode="&#x11c;" horiz-adv-x="1511" d="M635 1635l221 264h314l137 -264h-154l-147 161l-209 -161h-162zM68 573q0 184 51 340q51 160 151 289q123 160 293 240q164 78 387 78q123 0 242 -27q117 -27 242 -84l-54 -309q-117 76 -215 106q-109 35 -211 35q-229 0 -376.5 -172t-147.5 -442q0 -180 86 -278.5 t240 -98.5q35 0 100 8q45 6 102 23l52 290h-211l43 258h538l-125 -718q-133 -72 -272 -105q-145 -35 -303 -35q-287 0 -449 162q-163 164 -163 440z" />
<glyph unicode="&#x11d;" horiz-adv-x="1318" d="M394 1262l294 376h236l166 -376h-162l-139 225l-217 -225h-178zM37 -377l49 279q70 -51 152 -80q74 -27 155 -27q162 0 246 76q86 78 117 242l14 77q-78 -98 -158 -145q-78 -45 -174 -45q-172 0 -270 123q-100 125 -100 334q0 111 34 227q31 104 101 213q80 119 182 184 q100 63 219 64q109 0 180 -45q70 -43 121 -146l27 166h325l-170 -973q-53 -303 -223 -446t-475 -143q-88 0 -180 16q-86 15 -172 49zM403 469q0 -104 43 -156q43 -53 123 -53q119 0 199 119q78 117 78 295q0 102 -43 157.5t-123 55.5q-117 0 -197 -119q-80 -121 -80 -299z " />
<glyph unicode="&#x11e;" horiz-adv-x="1511" d="M68 573q0 184 51 340q51 160 151 289q123 160 293 240q164 78 387 78q123 0 242 -27q117 -27 242 -84l-54 -309q-117 76 -215 106q-109 35 -211 35q-229 0 -376.5 -172t-147.5 -442q0 -180 86 -278.5t240 -98.5q35 0 100 8q45 6 102 23l52 290h-211l43 258h538l-125 -718 q-133 -72 -272 -105q-145 -35 -303 -35q-287 0 -449 162q-163 164 -163 440zM649 1895v4h129q8 -61 46 -88q35 -27 106 -27q66 0 113 31q49 33 69 84h138q-33 -127 -125 -197q-89 -68 -222 -67q-125 0 -188 67q-66 70 -66 193z" />
<glyph unicode="&#x11f;" horiz-adv-x="1318" d="M37 -377l49 279q70 -51 152 -80q74 -27 155 -27q162 0 246 76q86 78 117 242l14 77q-78 -98 -158 -145q-78 -45 -174 -45q-172 0 -270 123q-100 125 -100 334q0 111 34 227q31 104 101 213q80 119 182 184q100 63 219 64q109 0 180 -45q70 -43 121 -146l27 166h325 l-170 -973q-53 -303 -223 -446t-475 -143q-88 0 -180 16q-86 15 -172 49zM403 469q0 -104 43 -156q43 -53 123 -53q119 0 199 119q78 117 78 295q0 102 -43 157.5t-123 55.5q-117 0 -197 -119q-80 -121 -80 -299zM504 1554q0 8 1 18.5t1 12.5q0 14 2 21h127v-9 q0 -68 39 -100q41 -35 111 -35q76 0 119 35q51 41 73 109h135q-31 -141 -122 -220q-94 -78 -232 -77q-126 0 -190 61t-64 184z" />
<glyph unicode="&#x120;" horiz-adv-x="1511" d="M848 1653l40 246h248l-43 -246h-245zM68 573q0 184 51 340q51 160 151 289q123 160 293 240q164 78 387 78q123 0 242 -27q117 -27 242 -84l-54 -309q-117 76 -215 106q-109 35 -211 35q-229 0 -376.5 -172t-147.5 -442q0 -180 86 -278.5t240 -98.5q35 0 100 8 q45 6 102 23l52 290h-211l43 258h538l-125 -718q-133 -72 -272 -105q-145 -35 -303 -35q-287 0 -449 162q-163 164 -163 440z" />
<glyph unicode="&#x121;" horiz-adv-x="1318" d="M639 1339l45 246h246l-43 -246h-248zM37 -377l49 279q70 -51 152 -80q74 -27 155 -27q162 0 246 76q86 78 117 242l14 77q-78 -98 -158 -145q-78 -45 -174 -45q-172 0 -270 123q-100 125 -100 334q0 111 34 227q31 104 101 213q80 119 182 184q100 63 219 64 q109 0 180 -45q70 -43 121 -146l27 166h325l-170 -973q-53 -303 -223 -446t-475 -143q-88 0 -180 16q-86 15 -172 49zM403 469q0 -104 43 -156q43 -53 123 -53q119 0 199 119q78 117 78 295q0 102 -43 157.5t-123 55.5q-117 0 -197 -119q-80 -121 -80 -299z" />
<glyph unicode="&#x122;" horiz-adv-x="1511" d="M420 -456l133 297h291l-252 -297h-172zM68 573q0 184 51 340q51 160 151 289q123 160 293 240q164 78 387 78q123 0 242 -27q117 -27 242 -84l-54 -309q-117 76 -215 106q-109 35 -211 35q-229 0 -376.5 -172t-147.5 -442q0 -180 86 -278.5t240 -98.5q35 0 100 8 q45 6 102 23l52 290h-211l43 258h538l-125 -718q-133 -72 -272 -105q-145 -35 -303 -35q-287 0 -449 162q-163 164 -163 440z" />
<glyph unicode="&#x123;" horiz-adv-x="1318" d="M607 1270l251 297h175l-134 -297h-292zM37 -377l49 279q70 -51 152 -80q74 -27 155 -27q162 0 246 76q86 78 117 242l14 77q-78 -98 -158 -145q-78 -45 -174 -45q-172 0 -270 123q-100 125 -100 334q0 111 34 227q31 104 101 213q80 119 182 184q100 63 219 64 q109 0 180 -45q70 -43 121 -146l27 166h325l-170 -973q-53 -303 -223 -446t-475 -143q-88 0 -180 16q-86 15 -172 49zM403 469q0 -104 43 -156q43 -53 123 -53q119 0 199 119q78 117 78 295q0 102 -43 157.5t-123 55.5q-117 0 -197 -119q-80 -121 -80 -299z" />
<glyph unicode="&#x124;" horiz-adv-x="1540" d="M594 1635l221 264h314l137 -264h-154l-147 161l-209 -161h-162zM39 0l262 1493h346l-100 -569h512l98 569h346l-262 -1493h-344l109 633h-510l-111 -633h-346z" />
<glyph unicode="&#x125;" horiz-adv-x="1310" d="M164 1635l221 264h314l137 -264h-154l-147 161l-209 -161h-162zM57 0l271 1556h323l-104 -600q88 96 178 143.5t188 47.5q139 0 217 -80q74 -76 74 -229q0 -16 -4 -70q-4 -57 -10 -86l-121 -682h-324l103 584q6 29 16 96q6 41 6 63q0 61 -32 99q-31 35 -90 35 q-101 0 -172 -86t-99 -240l-96 -551h-324z" />
<glyph unicode="&#x126;" horiz-adv-x="1792" d="M166 0l192 1112h-125l33 195h127l33 186h346l-33 -186h512l31 186h348l-33 -186h127l-34 -195h-127l-195 -1112h-346l111 633h-510l-111 -633h-346zM674 924h510l33 188h-510z" />
<glyph unicode="&#x127;" horiz-adv-x="1454" d="M158 0l219 1255h-144l33 195h144l18 106h324l-19 -106h326l-33 -195h-328l-51 -299q86 94 180 144q90 47 189 47q174 0 244 -119q45 -76 45 -197q0 -72 -15 -149l-119 -682h-323l90 520q27 150 29 203q0 6 1 14t1 13q0 29 -8 53q-12 33 -41 55q-27 18 -70 19 q-100 0 -174 -86q-72 -84 -101 -240l-96 -551h-321z" />
<glyph unicode="&#x128;" horiz-adv-x="684" d="M166 1635q20 127 82 196q59 70 143 70q37 0 64 -12q33 -14 59 -39l47 -41q18 -14 33 -21q15 -6 31 -6q33 0 57 31q23 29 33 88h125q-25 -131 -82 -197q-59 -70 -144 -69q-35 0 -63 12q-31 14 -62 39l-45 37q-27 23 -36 26q-15 6 -31 6q-29 0 -55 -32q-23 -29 -33 -88 h-123zM39 0l262 1493h346l-262 -1493h-346z" />
<glyph unicode="&#x129;" horiz-adv-x="630" d="M119 1309q25 139 82 211q57 74 143 73q29 0 64 -14q29 -12 63 -43l47 -43q12 -10 33 -23q14 -8 29 -8q33 0 57 33q23 33 33 96h125q-25 -139 -82 -211q-57 -74 -144 -73q-29 0 -57 12q-31 14 -68 45l-45 37l-8 8q-31 29 -61 29q-29 0 -54 -35q-23 -33 -32 -94h-125zM57 0 l197 1120h324l-197 -1120h-324z" />
<glyph unicode="&#x12a;" horiz-adv-x="684" d="M39 0l262 1493h346l-262 -1493h-346zM166 1683l34 188h568l-33 -188h-569z" />
<glyph unicode="&#x12b;" horiz-adv-x="630" d="M57 0l197 1120h324l-197 -1120h-324zM140 1374l34 188h568l-33 -188h-569z" />
<glyph unicode="&#x12c;" horiz-adv-x="684" d="M233 1895v4h129q8 -61 46 -88q35 -27 106 -27q66 0 113 31q49 33 69 84h138q-33 -127 -125 -197q-89 -68 -222 -67q-125 0 -188 67q-66 70 -66 193zM39 0l262 1493h346l-262 -1493h-346z" />
<glyph unicode="&#x12d;" horiz-adv-x="630" d="M178 1554q0 8 1 18.5t1 12.5q0 14 2 21h127v-9q0 -68 39 -100q41 -35 111 -35q76 0 119 35q51 41 73 109h135q-31 -141 -122 -220q-94 -78 -232 -77q-126 0 -190 61t-64 184zM57 0l197 1120h324l-197 -1120h-324z" />
<glyph unicode="&#x12e;" horiz-adv-x="684" d="M39 0l262 1493h346l-262 -1493h-346zM117 -266.5q0 65.5 33 129.5q31 59 108 137h127q-51 -59 -86 -115q-25 -40 -24 -67q0 -35 22 -54q20 -18 64 -18q37 0 70 8q49 12 75 23l-26 -152q-78 -18 -92 -20q-41 -6 -76 -6q-94 0 -146 34q-49 35 -49 100.5z" />
<glyph unicode="&#x12f;" horiz-adv-x="630" d="M110 -266.5q0 65.5 33 129.5q31 59 108 137h127q-51 -59 -86 -115q-25 -40 -24 -67q0 -35 22 -54q20 -18 64 -18q37 0 70 8q49 12 75 23l-26 -152q-78 -18 -92 -20q-41 -6 -76 -6q-94 0 -146 34q-49 35 -49 100.5zM57 0l197 1120h324l-197 -1120h-324zM276 1264l52 292 h323l-51 -292h-324z" />
<glyph unicode="&#x130;" horiz-adv-x="684" d="M39 0l262 1493h346l-262 -1493h-346zM365 1653l40 246h248l-43 -246h-245z" />
<glyph unicode="&#x131;" horiz-adv-x="630" d="M57 0l197 1120h324l-197 -1120h-324z" />
<glyph unicode="&#x132;" horiz-adv-x="1370" d="M39 0l262 1493h346l-262 -1493h-346zM379 -410l49 291h55q106 0 174 68q72 72 93 196l235 1348h346l-235 -1348q-53 -293 -205 -424t-443 -131h-69z" />
<glyph unicode="&#x133;" horiz-adv-x="1261" d="M57 0l197 1120h324l-197 -1120h-324zM276 1264l52 292h323l-51 -292h-324zM397 -442l41 235h56q90 0 133 45q45 47 65 182l195 1100h324l-195 -1100q-41 -236 -154 -348q-115 -115 -305 -114h-160zM909 1264l52 292h323l-51 -292h-324z" />
<glyph unicode="&#x134;" horiz-adv-x="684" d="M164 1635l221 264h314l137 -264h-154l-147 161l-209 -161h-162zM-305 -410l49 291h55q106 0 174 68q72 72 93 196l235 1348h346l-235 -1348q-53 -293 -205 -424t-443 -131h-69z" />
<glyph unicode="&#x135;" horiz-adv-x="630" d="M93 1262l294 376h236l166 -376h-162l-139 225l-217 -225h-178zM-236 -442l41 235h56q90 0 133 45q45 47 65 182l195 1100h324l-195 -1100q-41 -236 -154 -348q-115 -115 -305 -114h-160z" />
<glyph unicode="&#x136;" horiz-adv-x="1427" d="M434 -428l133 297h291l-252 -297h-172zM39 0l262 1493h346l-94 -537l571 537h418l-770 -725l582 -768h-408l-452 623l-109 -623h-346z" />
<glyph unicode="&#x137;" horiz-adv-x="1224" d="M346 -428l133 297h291l-252 -297h-172zM57 0l271 1556h323l-145 -843l434 407h379l-586 -518l426 -602h-368l-326 483l-84 -483h-324z" />
<glyph unicode="&#x138;" horiz-adv-x="1224" d="M57 0l197 1120h321l-71 -411l442 411h375l-584 -514l426 -606h-391l-311 467l-82 -467h-322z" />
<glyph unicode="&#x139;" horiz-adv-x="1173" d="M430 1637l221 264h252l-286 -264h-187zM39 0l262 1493h346l-211 -1202h606l-49 -291h-954z" />
<glyph unicode="&#x13a;" horiz-adv-x="630" d="M407 1637l221 264h252l-286 -264h-187zM57 0l271 1556h323l-270 -1556h-324z" />
<glyph unicode="&#x13b;" horiz-adv-x="1173" d="M254 -428l133 297h291l-252 -297h-172zM39 0l262 1493h346l-211 -1202h606l-49 -291h-954z" />
<glyph unicode="&#x13c;" horiz-adv-x="630" d="M-43 -428l133 297h291l-252 -297h-172zM57 0l271 1556h323l-270 -1556h-324z" />
<glyph unicode="&#x13d;" horiz-adv-x="1173" d="M774 1117l113 376h262l-193 -376h-182zM39 0l262 1493h346l-211 -1202h606l-49 -291h-954z" />
<glyph unicode="&#x13e;" horiz-adv-x="630" d="M696 1180l113 376h262l-193 -376h-182zM57 0l271 1556h323l-270 -1556h-324z" />
<glyph unicode="&#x13f;" horiz-adv-x="1173" d="M758 704l67 387h324l-68 -387h-323zM39 0l262 1493h346l-211 -1202h606l-49 -291h-954z" />
<glyph unicode="&#x140;" horiz-adv-x="630" d="M631 711l67 387h324l-68 -387h-323zM57 0l271 1556h323l-270 -1556h-324z" />
<glyph unicode="&#x141;" horiz-adv-x="1214" d="M-43 643l287 135l125 715h348l-92 -516l307 151l92 -210l-449 -220l-69 -407h606l-49 -291h-957l89 502l-144 -74z" />
<glyph unicode="&#x142;" horiz-adv-x="690" d="M-12 733l260 135l119 688h323l-92 -516l154 78l90 -203l-289 -145l-135 -770h-324l105 598l-125 -68z" />
<glyph unicode="&#x143;" horiz-adv-x="1540" d="M733 1637l221 264h252l-286 -264h-187zM39 0l262 1493h387l307 -1034l181 1034h327l-262 -1493h-387l-307 1034l-180 -1034h-328z" />
<glyph unicode="&#x144;" horiz-adv-x="1310" d="M561 1268l311 376h264l-395 -376h-180zM57 0l197 1120h324l-31 -164q88 96 178 143.5t188 47.5q139 0 217 -80q74 -76 74 -229q0 -16 -4 -70q-4 -57 -10 -86l-121 -682h-324l103 584q6 29 16 96q6 41 6 63q0 61 -32 99q-31 35 -90 35q-101 0 -172 -86t-99 -240l-96 -551 h-324z" />
<glyph unicode="&#x145;" horiz-adv-x="1540" d="M379 -428l133 297h291l-252 -297h-172zM39 0l262 1493h387l307 -1034l181 1034h327l-262 -1493h-387l-307 1034l-180 -1034h-328z" />
<glyph unicode="&#x146;" horiz-adv-x="1310" d="M301 -428l133 297h291l-252 -297h-172zM57 0l197 1120h324l-31 -164q88 96 178 143.5t188 47.5q139 0 217 -80q74 -76 74 -229q0 -16 -4 -70q-4 -57 -10 -86l-121 -682h-324l103 584q6 29 16 96q6 41 6 63q0 61 -32 99q-31 35 -90 35q-101 0 -172 -86t-99 -240l-96 -551 h-324z" />
<glyph unicode="&#x147;" horiz-adv-x="1540" d="M39 0l262 1493h387l307 -1034l181 1034h327l-262 -1493h-387l-307 1034l-180 -1034h-328zM692 1899h156l133 -162l206 162h160l-219 -264h-313z" />
<glyph unicode="&#x148;" horiz-adv-x="1310" d="M57 0l197 1120h324l-31 -164q88 96 178 143.5t188 47.5q139 0 217 -80q74 -76 74 -229q0 -16 -4 -70q-4 -57 -10 -86l-121 -682h-324l103 584q6 29 16 96q6 41 6 63q0 61 -32 99q-31 35 -90 35q-101 0 -172 -86t-99 -240l-96 -551h-324zM474 1638h157l142 -227l219 227 h176l-295 -376h-236z" />
<glyph unicode="&#x149;" horiz-adv-x="1810" d="M110 856l154 352l49 285h305l-49 -285l-266 -352h-193zM530 0l197 1120h324l-31 -164q88 96 178 143.5t188 47.5q139 0 217 -80q74 -76 74 -229q0 -16 -4 -70q-4 -57 -10 -86l-121 -682h-324l103 584q6 29 16 96q6 41 6 63q0 61 -32 99q-31 35 -90 35q-101 0 -172 -86 t-99 -240l-96 -551h-324z" />
<glyph unicode="&#x14a;" horiz-adv-x="1540" d="M57 0l262 1493h334l-39 -227q123 135 238 194.5t246 59.5q203 0 282 -158q47 -98 47 -217q0 -127 -20 -242l-131 -758q-53 -299 -193 -417q-158 -137 -436 -138h-72l52 291h55q102 0 176 70q70 68 92 194l94 545q39 229 39 283q0 68 -16 100q-20 41 -63 64 q-45 25 -109 24q-139 0 -242 -114q-104 -117 -137 -318l-127 -729h-332z" />
<glyph unicode="&#x14b;" horiz-adv-x="1310" d="M92 0l197 1120h321l-28 -164q86 94 180 144q90 47 188 47q176 0 246 -119q43 -78 43 -194q0 -86 -12 -152l-117 -662q-40 -224 -160 -344q-119 -119 -301 -118h-254l41 235h150q92 0 135 45q41 43 65 182l88 502q18 109 29 201v25q0 37 -6 55q-10 31 -43 55 q-27 18 -70 19q-100 0 -173.5 -86t-98.5 -240l-96 -551h-324z" />
<glyph unicode="&#x14c;" horiz-adv-x="1564" d="M68 569q0 180 49 344q49 162 145 293q115 160 275 236q162 78 368 78q270 0 432 -166q162 -164 162 -432q0 -181 -49 -344q-47 -160 -145 -291q-115 -156 -277 -238q-156 -78 -369 -78q-268 0 -429.5 164t-161.5 434zM430 612q0 -172 72 -268q70 -94 198 -94 q104 0 184.5 49t137.5 143q57 96 84 205q29 119 29 234q0 174 -72 268q-72 92 -209 92q-176 0 -301 -180q-123 -179 -123 -449zM607 1683l34 188h568l-33 -188h-569z" />
<glyph unicode="&#x14d;" horiz-adv-x="1265" d="M68 444q0 123 41 246q39 115 118 221q86 113 215 176q121 59 275 60q223 0 354 -127q129 -127 129 -346q0 -123 -41 -246q-39 -117 -119 -219q-94 -119 -214.5 -178.5t-280.5 -59.5q-219 0 -350 127q-127 125 -127 346zM403 444q0 -104 46 -161q43 -55 126 -56 q125 0 205 127q82 129 82 322q0 104 -43 159.5t-129 55.5q-125 0 -205 -125q-82 -129 -82 -322zM459 1374l34 188h568l-33 -188h-569z" />
<glyph unicode="&#x14e;" horiz-adv-x="1564" d="M700 1895v4h129q8 -61 46 -88q35 -27 106 -27q66 0 113 31q49 33 69 84h138q-33 -127 -125 -197q-89 -68 -222 -67q-125 0 -188 67q-66 70 -66 193zM68 569q0 180 49 344q49 162 145 293q115 160 275 236q162 78 368 78q270 0 432 -166q162 -164 162 -432 q0 -181 -49 -344q-47 -160 -145 -291q-115 -156 -277 -238q-156 -78 -369 -78q-268 0 -429.5 164t-161.5 434zM430 612q0 -172 72 -268q70 -94 198 -94q104 0 184.5 49t137.5 143q57 96 84 205q29 119 29 234q0 174 -72 268q-72 92 -209 92q-176 0 -301 -180 q-123 -179 -123 -449z" />
<glyph unicode="&#x14f;" horiz-adv-x="1265" d="M479 1554q0 8 1 18.5t1 12.5q0 14 2 21h127v-9q0 -68 39 -100q41 -35 111 -35q76 0 119 35q51 41 73 109h135q-31 -141 -122 -220q-94 -78 -232 -77q-126 0 -190 61t-64 184zM68 444q0 123 41 246q39 115 118 221q86 113 215 176q121 59 275 60q223 0 354 -127 q129 -127 129 -346q0 -123 -41 -246q-39 -117 -119 -219q-94 -119 -214.5 -178.5t-280.5 -59.5q-219 0 -350 127q-127 125 -127 346zM403 444q0 -104 46 -161q43 -55 126 -56q125 0 205 127q82 129 82 322q0 104 -43 159.5t-129 55.5q-125 0 -205 -125q-82 -129 -82 -322z " />
<glyph unicode="&#x150;" horiz-adv-x="1564" d="M608 1635l221 264h252l-286 -264h-187zM1026 1635l221 264h252l-287 -264h-186zM68 569q0 180 49 344q49 162 145 293q115 160 275 236q162 78 368 78q270 0 432 -166q162 -164 162 -432q0 -181 -49 -344q-47 -160 -145 -291q-115 -156 -277 -238q-156 -78 -369 -78 q-268 0 -429.5 164t-161.5 434zM430 612q0 -172 72 -268q70 -94 198 -94q104 0 184.5 49t137.5 143q57 96 84 205q29 119 29 234q0 174 -72 268q-72 92 -209 92q-176 0 -301 -180q-123 -179 -123 -449z" />
<glyph unicode="&#x151;" horiz-adv-x="1265" d="M438 1262l211 376h225l-280 -376h-156zM745 1262l242 376h225l-311 -376h-156zM68 444q0 123 41 246q39 115 118 221q86 113 215 176q121 59 275 60q223 0 354 -127q129 -127 129 -346q0 -123 -41 -246q-39 -117 -119 -219q-94 -119 -214.5 -178.5t-280.5 -59.5 q-219 0 -350 127q-127 125 -127 346zM403 444q0 -104 46 -161q43 -55 126 -56q125 0 205 127q82 129 82 322q0 104 -43 159.5t-129 55.5q-125 0 -205 -125q-82 -129 -82 -322z" />
<glyph unicode="&#x152;" horiz-adv-x="2150" d="M78 575q0 242 106 447q109 207 293 328q115 76 256 108q145 35 328 35h51h1016l-53 -291h-584l-51 -278h553l-51 -291h-553l-60 -342h608l-51 -291h-1044h-49q-340 0 -529 152q-186 149 -186 423zM440 647q0 -184 109 -270q108 -86 338 -86h96l158 911h-94 q-127 0 -220 -24q-100 -27 -161 -72q-104 -76 -164 -199q-62 -125 -62 -260z" />
<glyph unicode="&#x153;" horiz-adv-x="2015" d="M68 444q0 131 38.5 248t118.5 219q94 119 217 176q129 59 281 60q123 0 217 -41q90 -39 150 -121q88 82 186 121q104 41 225 41q203 0 322 -123q121 -125 121 -322q0 -40 -7 -86q-2 -23 -16 -98l-8 -57h-756v-17q0 -4 -1 -10t-1 -8q0 -109 59 -164q55 -53 177 -53 q98 0 215 35q121 35 237 100l-49 -278q-104 -45 -235 -72q-106 -23 -240 -23q-143 0 -229 39q-90 41 -142 121q-74 -78 -178 -121q-92 -39 -219 -39q-223 0 -354 127q-129 127 -129 346zM403 444q0 -104 46 -161q43 -55 126 -56q125 0 205 127q82 129 82 322 q0 104 -43 159.5t-129 55.5q-125 0 -205 -125q-82 -129 -82 -322zM1200 682h418q4 16 4 27q0 4 1 13t1 13q0 80 -43 127t-119 47q-92 0 -162 -59q-67 -57 -100 -168z" />
<glyph unicode="&#x154;" horiz-adv-x="1417" d="M700 1637l221 264h252l-286 -264h-187zM39 0l262 1493h512q223 0 336 -92q115 -92 115 -271q0 -180 -90 -299q-88 -115 -244 -133q71 -15 117 -80q49 -70 81 -194l113 -424h-344l-100 371q-31 111 -74 153q-41 41 -127 41h-111l-100 -565h-346zM530 831h148q117 0 178 62 q59 59 59 178q0 76 -41 109q-45 35 -133 34h-143z" />
<glyph unicode="&#x155;" horiz-adv-x="907" d="M561 1268l311 376h264l-395 -376h-180zM57 0l197 1120h324l-35 -192q63 106 159 162q98 57 211 57q27 0 41 -2q22 -3 50 -6l-56 -324q-31 20 -74 33q-33 10 -88 10q-123 0 -204 -88q-84 -90 -111 -254l-90 -516h-324z" />
<glyph unicode="&#x156;" horiz-adv-x="1417" d="M379 -428l133 297h291l-252 -297h-172zM39 0l262 1493h512q223 0 336 -92q115 -92 115 -271q0 -180 -90 -299q-88 -115 -244 -133q71 -15 117 -80q49 -70 81 -194l113 -424h-344l-100 371q-31 111 -74 153q-41 41 -127 41h-111l-100 -565h-346zM530 831h148q117 0 178 62 q59 59 59 178q0 76 -41 109q-45 35 -133 34h-143z" />
<glyph unicode="&#x157;" horiz-adv-x="907" d="M-43 -428l133 297h291l-252 -297h-172zM57 0l197 1120h324l-35 -192q63 106 159 162q98 57 211 57q27 0 41 -2q22 -3 50 -6l-56 -324q-31 20 -74 33q-33 10 -88 10q-123 0 -204 -88q-84 -90 -111 -254l-90 -516h-324z" />
<glyph unicode="&#x158;" horiz-adv-x="1417" d="M39 0l262 1493h512q223 0 336 -92q115 -92 115 -271q0 -180 -90 -299q-88 -115 -244 -133q71 -15 117 -80q49 -70 81 -194l113 -424h-344l-100 371q-31 111 -74 153q-41 41 -127 41h-111l-100 -565h-346zM530 831h148q117 0 178 62q59 59 59 178q0 76 -41 109 q-45 35 -133 34h-143zM526 1899h156l133 -162l206 162h160l-219 -264h-313z" />
<glyph unicode="&#x159;" horiz-adv-x="907" d="M57 0l197 1120h324l-35 -192q63 106 159 162q98 57 211 57q27 0 41 -2q22 -3 50 -6l-56 -324q-31 20 -74 33q-33 10 -88 10q-123 0 -204 -88q-84 -90 -111 -254l-90 -516h-324zM414 1638h157l142 -227l219 227h176l-295 -376h-236z" />
<glyph unicode="&#x15a;" horiz-adv-x="1325" d="M700 1637l221 264h252l-286 -264h-187zM29 78l55 325q125 -80 231 -114q121 -39 224 -39q121 0 192 53q76 57 76 139q0 55 -35 86t-145 62l-142 39q-154 43 -233 137q-76 90 -76 240q0 233 160 374q158 139 432 140q113 0 225 -19q114 -18 234 -55l-58 -316 q-104 57 -200 84q-94 27 -193 27q-131 0 -202.5 -45t-71.5 -125q0 -52 30 -80q31 -27 134 -55l141 -39q178 -49 262 -145q82 -94 82 -244q0 -242 -166 -389.5t-444 -147.5q-135 0 -260 27q-129 28 -252 80z" />
<glyph unicode="&#x15b;" horiz-adv-x="1095" d="M561 1268l311 376h264l-395 -376h-180zM18 43l50 281q84 -57 186 -86t203 -29q102 0 153.5 26.5t51.5 79.5q0 33 -29 56q-23 18 -119 41l-59 12q-170 39 -246 119q-74 77 -74 215q0 188 127 288.5t365 100.5q96 0 204 -17q104 -16 201 -45l-47 -278q-102 53 -188 76 q-100 27 -179 26q-94 0 -147 -28q-51 -27 -51 -78q0 -29 29 -47q25 -16 112 -39l60 -12q197 -47 274.5 -119t77.5 -201q0 -195 -137 -305q-135 -109 -385 -109q-106 0 -213 19q-124 20 -220 53z" />
<glyph unicode="&#x15c;" horiz-adv-x="1325" d="M454 1635l221 264h314l137 -264h-154l-147 161l-209 -161h-162zM29 78l55 325q125 -80 231 -114q121 -39 224 -39q121 0 192 53q76 57 76 139q0 55 -35 86t-145 62l-142 39q-154 43 -233 137q-76 90 -76 240q0 233 160 374q158 139 432 140q113 0 225 -19 q114 -18 234 -55l-58 -316q-104 57 -200 84q-94 27 -193 27q-131 0 -202.5 -45t-71.5 -125q0 -52 30 -80q31 -27 134 -55l141 -39q178 -49 262 -145q82 -94 82 -244q0 -242 -166 -389.5t-444 -147.5q-135 0 -260 27q-129 28 -252 80z" />
<glyph unicode="&#x15d;" horiz-adv-x="1095" d="M299 1262l294 376h236l166 -376h-162l-139 225l-217 -225h-178zM18 43l50 281q84 -57 186 -86t203 -29q102 0 153.5 26.5t51.5 79.5q0 33 -29 56q-23 18 -119 41l-59 12q-170 39 -246 119q-74 77 -74 215q0 188 127 288.5t365 100.5q96 0 204 -17q104 -16 201 -45 l-47 -278q-102 53 -188 76q-100 27 -179 26q-94 0 -147 -28q-51 -27 -51 -78q0 -29 29 -47q25 -16 112 -39l60 -12q197 -47 274.5 -119t77.5 -201q0 -195 -137 -305q-135 -109 -385 -109q-106 0 -213 19q-124 20 -220 53z" />
<glyph unicode="&#x15e;" horiz-adv-x="1325" d="M29 78l55 325q125 -80 231 -114q121 -39 224 -39q121 0 192 53q76 57 76 139q0 55 -35 86t-145 62l-142 39q-154 43 -233 137q-76 90 -76 240q0 233 160 374q158 139 432 140q113 0 225 -19q114 -18 234 -55l-58 -316q-104 57 -200 84q-94 27 -193 27q-131 0 -202.5 -45 t-71.5 -125q0 -52 30 -80q31 -27 134 -55l141 -39q178 -49 262 -145q82 -94 82 -244q0 -242 -166 -389.5t-444 -147.5q-135 0 -260 27q-129 28 -252 80zM244 -375l27 156q35 -18 71 -27q33 -8 72 -8q57 0 92 28.5t35 75.5q0 27 -12 60q-10 31 -41 90h129q29 -43 47 -96 q16 -45 16 -86q0 -104 -67 -162q-66 -57 -193 -57q-45 0 -88 6q-25 4 -88 20z" />
<glyph unicode="&#x15f;" horiz-adv-x="1095" d="M18 43l50 281q84 -57 186 -86t203 -29q102 0 153.5 26.5t51.5 79.5q0 33 -29 56q-23 18 -119 41l-59 12q-170 39 -246 119q-74 77 -74 215q0 188 127 288.5t365 100.5q96 0 204 -17q104 -16 201 -45l-47 -278q-102 53 -188 76q-100 27 -179 26q-94 0 -147 -28 q-51 -27 -51 -78q0 -29 29 -47q25 -16 112 -39l60 -12q197 -47 274.5 -119t77.5 -201q0 -195 -137 -305q-135 -109 -385 -109q-106 0 -213 19q-124 20 -220 53zM129 -375l27 156q35 -18 71 -27q33 -8 72 -8q57 0 92 28.5t35 75.5q0 27 -12 60q-10 31 -41 90h129 q29 -43 47 -96q16 -45 16 -86q0 -104 -67 -162q-66 -57 -193 -57q-45 0 -88 6q-25 4 -88 20z" />
<glyph unicode="&#x160;" horiz-adv-x="1325" d="M29 78l55 325q125 -80 231 -114q121 -39 224 -39q121 0 192 53q76 57 76 139q0 55 -35 86t-145 62l-142 39q-154 43 -233 137q-76 90 -76 240q0 233 160 374q158 139 432 140q113 0 225 -19q114 -18 234 -55l-58 -316q-104 57 -200 84q-94 27 -193 27q-131 0 -202.5 -45 t-71.5 -125q0 -52 30 -80q31 -27 134 -55l141 -39q178 -49 262 -145q82 -94 82 -244q0 -242 -166 -389.5t-444 -147.5q-135 0 -260 27q-129 28 -252 80zM531 1899h156l133 -162l206 162h160l-219 -264h-313z" />
<glyph unicode="&#x161;" horiz-adv-x="1095" d="M18 43l50 281q84 -57 186 -86t203 -29q102 0 153.5 26.5t51.5 79.5q0 33 -29 56q-23 18 -119 41l-59 12q-170 39 -246 119q-74 77 -74 215q0 188 127 288.5t365 100.5q96 0 204 -17q104 -16 201 -45l-47 -278q-102 53 -188 76q-100 27 -179 26q-94 0 -147 -28 q-51 -27 -51 -78q0 -29 29 -47q25 -16 112 -39l60 -12q197 -47 274.5 -119t77.5 -201q0 -195 -137 -305q-135 -109 -385 -109q-106 0 -213 19q-124 20 -220 53zM367 1638h157l142 -227l219 227h176l-295 -376h-236z" />
<glyph unicode="&#x162;" horiz-adv-x="1255" d="M195 -375l27 156q35 -18 71 -27q33 -8 72 -8q57 0 92 28.5t35 75.5q0 27 -12 60q-10 31 -41 90h129q29 -43 47 -96q16 -45 16 -86q0 -104 -67 -162q-66 -57 -193 -57q-45 0 -88 6q-25 4 -88 20zM88 1202l51 291h1239l-51 -291h-446l-211 -1202h-346l211 1202h-447z" />
<glyph unicode="&#x163;" horiz-adv-x="880" d="M115 -375l27 156q35 -18 71 -27q33 -8 72 -8q57 0 92 28.5t35 75.5q0 27 -12 60q-10 31 -41 90h129q29 -43 47 -96q16 -45 16 -86q0 -104 -67 -162q-66 -57 -193 -57q-45 0 -88 6q-25 4 -88 20zM80 864l43 256h162l55 318h324l-56 -318h330l-45 -256h-332l-82 -475 q-4 -20 -4 -27q0 -4 -1 -11t-1 -9q0 -45 26.5 -65.5t94.5 -20.5h166l-45 -256h-273q-143 0 -221 67.5t-78 196.5q0 18 4 60q4 45 9 65l82 475h-158z" />
<glyph unicode="&#x164;" horiz-adv-x="1255" d="M88 1202l51 291h1239l-51 -291h-446l-211 -1202h-346l211 1202h-447zM510 1899h156l133 -162l206 162h160l-219 -264h-313z" />
<glyph unicode="&#x165;" horiz-adv-x="880" d="M80 864l43 256h162l55 318h324l-56 -318h330l-45 -256h-332l-82 -475q-4 -20 -4 -27q0 -4 -1 -11t-1 -9q0 -45 26.5 -65.5t94.5 -20.5h166l-45 -256h-273q-143 0 -221 67.5t-78 196.5q0 18 4 60q4 45 9 65l82 475h-158zM758 1262l113 376h262l-193 -376h-182z" />
<glyph unicode="&#x166;" horiz-adv-x="1255" d="M88 1202l51 291h1239l-51 -291h-444l-90 -506h223l-35 -190h-221l-88 -506h-346l88 506h-224l33 190h223l91 506h-449z" />
<glyph unicode="&#x167;" horiz-adv-x="880" d="M-8 530l33 193h159l27 141h-162l45 256h162l53 318h324l-55 -318h331l-45 -256h-332l-24 -141h166l-35 -193h-166l-24 -141q-4 -18 -5 -51q0 -37 15 -53q25 -29 104 -29h166l-45 -256h-274q-193 0 -256 88q-41 59 -41 162q0 68 14 139l25 141h-160z" />
<glyph unicode="&#x168;" horiz-adv-x="1495" d="M561 1635q20 127 82 196q59 70 143 70q37 0 64 -12q33 -14 59 -39l47 -41q18 -14 33 -21q15 -6 31 -6q33 0 57 31q23 29 33 88h125q-25 -131 -82 -197q-59 -70 -144 -69q-35 0 -63 12q-31 14 -62 39l-45 37q-27 23 -36 26q-15 6 -31 6q-29 0 -55 -32q-23 -29 -33 -88 h-123zM125 414q0 23 4 80q2 25 14 104l158 895h346l-158 -895q-10 -51 -12 -84q-4 -49 -4 -65q0 -94 47 -146q46 -49 142 -49q127 0 192.5 78t99.5 266l158 895h346l-158 -895q-59 -332 -221 -479q-163 -147 -467 -148q-238 0 -362.5 113t-124.5 330z" />
<glyph unicode="&#x169;" horiz-adv-x="1310" d="M441 1309q25 139 82 211q57 74 143 73q29 0 64 -14q29 -12 63 -43l47 -43q12 -10 33 -23q14 -8 29 -8q33 0 57 33q23 33 33 96h125q-25 -139 -82 -211q-57 -74 -144 -73q-29 0 -57 12q-31 14 -68 45l-45 37l-8 8q-31 29 -61 29q-29 0 -54 -35q-23 -33 -32 -94h-125z M111 281q0 20 4 73q2 23 10 82l119 684h321l-100 -583q-4 -20 -9 -52l-7 -45q-6 -39 -7 -63q0 -61 33 -98q31 -35 88 -35q101 0 172 86q74 90 101 239l96 551h323l-194 -1120h-326l31 164q-80 -96 -174 -146q-88 -47 -193 -47q-137 0 -213 80q-75 78 -75 230z" />
<glyph unicode="&#x16a;" horiz-adv-x="1495" d="M125 414q0 23 4 80q2 25 14 104l158 895h346l-158 -895q-10 -51 -12 -84q-4 -49 -4 -65q0 -94 47 -146q46 -49 142 -49q127 0 192.5 78t99.5 266l158 895h346l-158 -895q-59 -332 -221 -479q-163 -147 -467 -148q-238 0 -362.5 113t-124.5 330zM574 1683l34 188h568 l-33 -188h-569z" />
<glyph unicode="&#x16b;" horiz-adv-x="1310" d="M111 281q0 20 4 73q2 23 10 82l119 684h321l-100 -583q-4 -20 -9 -52l-7 -45q-6 -39 -7 -63q0 -61 33 -98q31 -35 88 -35q101 0 172 86q74 90 101 239l96 551h323l-194 -1120h-326l31 164q-80 -96 -174 -146q-88 -47 -193 -47q-137 0 -213 80q-75 78 -75 230zM475 1374 l34 188h568l-33 -188h-569z" />
<glyph unicode="&#x16c;" horiz-adv-x="1495" d="M628 1895v4h129q8 -61 46 -88q35 -27 106 -27q66 0 113 31q49 33 69 84h138q-33 -127 -125 -197q-89 -68 -222 -67q-125 0 -188 67q-66 70 -66 193zM125 414q0 23 4 80q2 25 14 104l158 895h346l-158 -895q-10 -51 -12 -84q-4 -49 -4 -65q0 -94 47 -146q46 -49 142 -49 q127 0 192.5 78t99.5 266l158 895h346l-158 -895q-59 -332 -221 -479q-163 -147 -467 -148q-238 0 -362.5 113t-124.5 330z" />
<glyph unicode="&#x16d;" horiz-adv-x="1310" d="M500 1554q0 8 1 18.5t1 12.5q0 14 2 21h127v-9q0 -68 39 -100q41 -35 111 -35q76 0 119 35q51 41 73 109h135q-31 -141 -122 -220q-94 -78 -232 -77q-126 0 -190 61t-64 184zM111 281q0 20 4 73q2 23 10 82l119 684h321l-100 -583q-4 -20 -9 -52l-7 -45q-6 -39 -7 -63 q0 -61 33 -98q31 -35 88 -35q101 0 172 86q74 90 101 239l96 551h323l-194 -1120h-326l31 164q-80 -96 -174 -146q-88 -47 -193 -47q-137 0 -213 80q-75 78 -75 230z" />
<glyph unicode="&#x16e;" horiz-adv-x="1495" d="M633 1608q0 120 74 202t182 82q106 0 180 -82q76 -86 76 -202.5t-76 -202.5q-74 -82 -180 -82q-109 0 -182 82q-74 83 -74 203zM754 1608q0 -61 39 -107q37 -43 96 -43q61 0 96 41q37 43 37 109q0 63 -37 106t-96 43q-61 0 -98 -43t-37 -106zM125 414q0 23 4 80 q2 25 14 104l158 895h346l-158 -895q-10 -51 -12 -84q-4 -49 -4 -65q0 -94 47 -146q46 -49 142 -49q127 0 192.5 78t99.5 266l158 895h346l-158 -895q-59 -332 -221 -479q-163 -147 -467 -148q-238 0 -362.5 113t-124.5 330z" />
<glyph unicode="&#x16f;" horiz-adv-x="1310" d="M111 281q0 20 4 73q2 23 10 82l119 684h321l-100 -583q-4 -20 -9 -52l-7 -45q-6 -39 -7 -63q0 -61 33 -98q31 -35 88 -35q101 0 172 86q74 90 101 239l96 551h323l-194 -1120h-326l31 164q-80 -96 -174 -146q-88 -47 -193 -47q-137 0 -213 80q-75 78 -75 230zM524 1504 q0 120 74 202t182 82q106 0 180 -82q76 -86 76 -202.5t-76 -202.5q-74 -82 -180 -82q-109 0 -182 82q-74 83 -74 203zM645 1504q0 -61 39 -107q37 -43 96 -43q61 0 96 41q37 43 37 109q0 63 -37 106t-96 43q-61 0 -98 -43t-37 -106z" />
<glyph unicode="&#x170;" horiz-adv-x="1495" d="M536 1635l221 264h252l-286 -264h-187zM954 1635l221 264h252l-287 -264h-186zM125 414q0 23 4 80q2 25 14 104l158 895h346l-158 -895q-10 -51 -12 -84q-4 -49 -4 -65q0 -94 47 -146q46 -49 142 -49q127 0 192.5 78t99.5 266l158 895h346l-158 -895q-59 -332 -221 -479 q-163 -147 -467 -148q-238 0 -362.5 113t-124.5 330z" />
<glyph unicode="&#x171;" horiz-adv-x="1310" d="M459 1262l211 376h225l-280 -376h-156zM766 1262l242 376h225l-311 -376h-156zM111 281q0 20 4 73q2 23 10 82l119 684h321l-100 -583q-4 -20 -9 -52l-7 -45q-6 -39 -7 -63q0 -61 33 -98q31 -35 88 -35q101 0 172 86q74 90 101 239l96 551h323l-194 -1120h-326l31 164 q-80 -96 -174 -146q-88 -47 -193 -47q-137 0 -213 80q-75 78 -75 230z" />
<glyph unicode="&#x172;" horiz-adv-x="1495" d="M125 414q0 23 4 80q2 25 14 104l158 895h346l-158 -895q-10 -51 -12 -84q-4 -49 -4 -65q0 -94 47 -146q46 -49 142 -49q127 0 192.5 78t99.5 266l158 895h346l-158 -895q-59 -332 -221 -479q-163 -147 -467 -148q-238 0 -362.5 113t-124.5 330zM342 -282.5 q0 65.5 33 129.5q31 59 108 137h127q-51 -59 -86 -115q-25 -40 -24 -67q0 -35 22 -54q20 -18 64 -18q37 0 70 8q49 12 75 23l-26 -152q-78 -18 -92 -20q-41 -6 -76 -6q-94 0 -146 34q-49 35 -49 100.5z" />
<glyph unicode="&#x173;" horiz-adv-x="1310" d="M111 281q0 20 4 73q2 23 10 82l119 684h321l-100 -583q-4 -20 -9 -52l-7 -45q-6 -39 -7 -63q0 -61 33 -98q31 -35 88 -35q101 0 172 86q74 90 101 239l96 551h323l-194 -1120h-326l31 164q-80 -96 -174 -146q-88 -47 -193 -47q-137 0 -213 80q-75 78 -75 230zM788 -266.5 q0 65.5 33 129.5q31 59 108 137h127q-51 -59 -86 -115q-25 -40 -24 -67q0 -35 22 -54q20 -18 64 -18q37 0 70 8q49 12 75 23l-26 -152q-78 -18 -92 -20q-41 -6 -76 -6q-94 0 -146 34q-49 35 -49 100.5z" />
<glyph unicode="&#x174;" horiz-adv-x="2031" d="M197 1493h321l41 -1085l422 1085h330l43 -1085l407 1085h346l-579 -1493h-391l-45 1135l-437 -1135h-399zM841 1643l221 264h314l137 -264h-154l-147 161l-209 -161h-162z" />
<glyph unicode="&#x175;" horiz-adv-x="1701" d="M613 1262l294 376h236l166 -376h-162l-139 225l-217 -225h-178zM160 1120h297l35 -770l305 770h256l37 -768l301 768h317l-461 -1120h-342l-33 770l-309 -770h-334z" />
<glyph unicode="&#x176;" horiz-adv-x="1333" d="M117 1493h346l227 -553l402 553h399l-664 -870l-108 -623h-346l108 623zM491 1643l221 264h314l137 -264h-154l-147 161l-209 -161h-162z" />
<glyph unicode="&#x177;" horiz-adv-x="1200" d="M371 1262l294 376h236l166 -376h-162l-139 225l-217 -225h-178zM0 -442l33 235h102q82 0 123 29q45 33 78 104l29 60l-242 1134h303l137 -776l359 776h344l-637 -1226q-109 -207 -199 -271q-94 -66 -235 -65h-195z" />
<glyph unicode="&#x178;" horiz-adv-x="1333" d="M117 1493h346l227 -553l402 553h399l-664 -870l-108 -623h-346l108 623zM529 1653l41 246h213l-43 -246h-211zM883 1653l41 246h215l-45 -246h-211z" />
<glyph unicode="&#x179;" horiz-adv-x="1335" d="M700 1637l221 264h252l-286 -264h-187zM-47 0l41 238l872 964h-684l51 291h1131l-43 -238l-870 -964h723l-52 -291h-1169z" />
<glyph unicode="&#x17a;" horiz-adv-x="1071" d="M561 1268l311 376h264l-395 -376h-180zM-16 0l43 250l628 614h-497l43 256h878l-43 -250l-628 -614h522l-45 -256h-901z" />
<glyph unicode="&#x17b;" horiz-adv-x="1335" d="M-47 0l41 238l872 964h-684l51 291h1131l-43 -238l-870 -964h723l-52 -291h-1169zM713 1634l40 246h248l-43 -246h-245z" />
<glyph unicode="&#x17c;" horiz-adv-x="1071" d="M567 1308l45 246h246l-43 -246h-248zM-16 0l43 250l628 614h-497l43 256h878l-43 -250l-628 -614h522l-45 -256h-901z" />
<glyph unicode="&#x17d;" horiz-adv-x="1335" d="M-47 0l41 238l872 964h-684l51 291h1131l-43 -238l-870 -964h723l-52 -291h-1169zM537 1899h156l133 -162l206 162h160l-219 -264h-313z" />
<glyph unicode="&#x17e;" horiz-adv-x="1071" d="M-16 0l43 250l628 614h-497l43 256h878l-43 -250l-628 -614h522l-45 -256h-901zM355 1638h157l142 -227l219 227h176l-295 -376h-236z" />
<glyph unicode="&#x17f;" horiz-adv-x="800" d="M92 864l45 256h158l14 78q33 184 140 272q104 86 299 86h247l-43 -235h-176q-70 0 -98 -27q-31 -27 -43 -96l-211 -1198h-324l152 864h-160z" />
<glyph unicode="&#x180;" horiz-adv-x="1318" d="M23 0l215 1237h-140l37 205h139l19 114h323l-20 -114h295l-37 -205h-295l-49 -281q80 94 174 144q90 47 195 47q184 0 276 -166q90 -166 45 -422q-47 -268 -192 -424q-145 -164 -336 -164q-102 0 -178 47q-72 45 -121 144l-29 -162h-321zM440 559q-27 -158 15 -244 q39 -84 143 -84q100 0 172 84q70 82 98 244q29 160 -12 244t-143 84q-104 0 -174 -84q-70 -82 -99 -244z" />
<glyph unicode="&#x181;" horiz-adv-x="1492" d="M-68 1079l15 76q23 139 78 205q18 20 55 51q82 66 205 78q31 4 104 4h520q283 0 389 -94q111 -98 74 -301q-18 -111 -80 -187q-57 -76 -151 -112q106 -37 149 -133q45 -100 21 -238q-37 -211 -191 -322q-150 -106 -415 -106h-576l215 1231h-72q-39 -2 -57 -21 q-33 -33 -45 -84q-2 -4 -4 -20t-4 -27h-230zM520 262h205q104 0 166 49q59 47 78 148q18 96 -29 145q-43 49 -147 49h-203zM635 915h192q84 0 131.5 39t63.5 119q12 76 -22.5 117t-116.5 41h-193z" />
<glyph unicode="&#x182;" horiz-adv-x="1402" d="M39 0l260 1493h1018l-51 -291h-670l-49 -278h229q252 0 379 -117q82 -76 82 -227q0 -68 -10 -119q-84 -461 -613 -461h-575zM430 262h205q209 0 242 187q4 33 4 47q0 137 -183 137h-202z" />
<glyph unicode="&#x183;" horiz-adv-x="1318" d="M23 0l270 1556h928l-54 -290h-604l-53 -310q80 94 174 144q90 47 195 47q184 0 276 -166q90 -166 45 -422q-47 -268 -192 -424q-145 -164 -336 -164q-102 0 -178 47q-72 45 -121 144l-29 -162h-321zM440 559q-27 -158 15 -244q39 -84 143 -84q100 0 172 84q70 82 98 244 q29 160 -12 244t-143 84q-104 0 -174 -84q-70 -82 -99 -244z" />
<glyph unicode="&#x184;" horiz-adv-x="1402" d="M113 0l161 924l-139 180l584 389l-98 -569h229q252 0 379 -117q113 -109 69 -346q-43 -240 -190 -344q-166 -117 -422 -117h-573zM504 262h203q109 0 165 45q59 47 78 142q14 90 -28 139q-39 45 -150 45h-203z" />
<glyph unicode="&#x185;" horiz-adv-x="1318" d="M68 0l161 924l-123 180l556 452l-105 -600q80 94 174 144q90 47 195 47q187 0 276 -166q92 -162 45 -422q-47 -264 -192 -424q-150 -164 -336 -164q-102 0 -178 47q-74 47 -123 144l-27 -162h-323zM487 559q-29 -160 13 -244q39 -84 145 -84q104 0 172 84q70 84 96 244 q29 164 -10 244q-41 84 -143 84q-104 0 -174 -84q-70 -82 -99 -244z" />
<glyph unicode="&#x186;" horiz-adv-x="1351" d="M-25 82l58 309q84 -72 172 -106.5t186 -34.5q209 0 350 178q139 176 140 444q0 172 -86 270.5t-240 98.5q-92 0 -193 -37q-102 -37 -229 -114l62 331q121 49 237 74q113 25 217 25q270 0 432 -164t162 -438q0 -182 -51 -338q-51 -160 -152 -289q-119 -156 -282.5 -238 t-358.5 -82q-109 0 -209 27q-106 29 -215 84z" />
<glyph unicode="&#x187;" horiz-adv-x="1351" d="M59 745q66 362 295 568q231 207 568 207q33 0 86 -4q59 152 159 237q162 139 439 139h69l-51 -290h-53q-109 0 -174 -68q-70 -70 -90 -197l-43 -237q-80 72 -170 106q-92 35 -193 35q-184 0 -313 -131q-131 -133 -170 -365q-40 -230 43 -362q84 -133 268 -133 q98 0 203 35q106 37 209 106l-56 -309q-100 -53 -213 -82q-111 -29 -221 -29q-334 0 -493 209q-162 213 -99 565z" />
<glyph unicode="&#x188;" horiz-adv-x="1091" d="M49 559q49 276 230 432q184 156 450 156q43 133 127 217q117 119 301 119h162l-43 -236h-55q-90 0 -134 -45q-45 -47 -65 -180l-41 -229q-59 49 -119 73q-61 25 -133 25q-133 0 -225 -86q-92 -92 -119 -246q-29 -158 33 -246q61 -86 194 -86q76 0 148 25q76 25 139 74 l-51 -293q-84 -33 -162 -47q-74 -14 -160 -15q-272 0 -399 156q-127 158 -78 432z" />
<glyph unicode="&#x189;" horiz-adv-x="1556" d="M-4 643l47 260h184l103 590h364q260 0 393 -35q127 -33 215.5 -114.5t133.5 -196.5t45 -262q0 -203 -76 -381t-213 -303q-119 -111 -274 -156q-154 -45 -486 -45h-364l112 643h-184zM467 291h123q244 0 385 151.5t141 407.5q0 174 -92 262q-94 90 -276 90h-121l-52 -299 h222l-45 -260h-224z" />
<glyph unicode="&#x18a;" horiz-adv-x="1619" d="M-68 1079l15 76q23 139 78 205q18 20 55 51q82 66 205 78q31 4 104 4h367q305 0 446 -49t230 -164q77 -101 98 -233q23 -133 -6 -299q-31 -169 -99 -302q-70 -131 -182 -233q-131 -117 -287 -166q-154 -47 -462 -47h-365l215 1231h-72q-39 -2 -57 -21q-33 -33 -45 -84 q-2 -4 -4 -20t-4 -27h-230zM526 291h123q215 0 346 117q133 119 170 340q41 223 -51 337q-92 117 -303 117h-125z" />
<glyph unicode="&#x18b;" horiz-adv-x="1402" d="M121 461q39 238 190 346q166 117 420 117h227l52 278h-582l51 291h928l-262 -1493h-576q-256 0 -379 117q-112 106 -69 344zM465 449q-18 -90 27 -142q39 -45 149 -45h203l65 371h-202q-113 0 -166 -45q-62 -49 -76 -139z" />
<glyph unicode="&#x18c;" horiz-adv-x="1318" d="M47 559q45 258 195 422q152 166 333 166q102 0 179 -47q74 -45 120 -144l54 310h-602l51 290h926l-273 -1556h-321l28 162q-80 -94 -174 -144q-90 -47 -192 -47q-188 0 -279 164q-92 162 -45 424zM381 559q-29 -160 12 -244t141.5 -84t172.5 84q70 82 98 244 q29 160 -12 244t-144 84q-104 0 -172 -84q-69 -84 -96 -244z" />
<glyph unicode="&#x18d;" horiz-adv-x="1265" d="M104 -356l41 237q96 -70 357 -69q182 0 194 73q12 65 -178 99q-213 37 -323 149q-129 135 -80 412q47 266 221 421.5t434 155.5t379 -155q121 -158 72 -432q-37 -207 -211 -369q-61 -55 -119 -82q117 -78 90 -238q-49 -272 -522 -272q-240 0 -355 70zM449 545 q-29 -156 22 -228q51 -76 139 -88q27 -4 76 -16q47 18 100 80q72 84 101 244q27 154 -17 243q-43 88 -145 88t-176 -88q-75 -88 -100 -235z" />
<glyph unicode="&#x18e;" horiz-adv-x="1257" d="M39 0l49 291h610l60 342h-553l51 291h553l49 278h-590l51 291h936l-262 -1493h-954z" />
<glyph unicode="&#x18f;" horiz-adv-x="1564" d="M68 569q6 143 26 260h1039q23 145 -27 240q-86 172 -318 172q-104 0 -225 -35q-109 -31 -252 -106l56 309q141 57 272 84q127 27 252 27q219 0 356 -78q143 -82 211 -240q57 -137 51 -291q-2 -152 -59 -333q-53 -166 -145 -291q-119 -162 -277 -238q-156 -78 -369 -78 q-268 0 -430 164q-171 174 -161 434zM432 571q10 -145 70 -227q70 -94 198 -94q104 0 184.5 49t137.5 143q37 68 59 129h-649z" />
<glyph unicode="&#x190;" horiz-adv-x="1280" d="M68 424q25 147 112 246q86 94 232 135q-119 35 -164 117q-46 83 -25 215q35 193 180 286q150 96 410 97q90 0 195 -17q88 -14 194 -47l-49 -282q-84 43 -160 63q-80 20 -166 20q-111 0 -182 -47q-70 -45 -86 -133q-16 -94 39 -139q53 -45 188 -45h146l-45 -248h-137 q-147 0 -231.5 -53t-102.5 -154q-18 -98 47 -151.5t201 -53.5q96 0 194 27q106 29 209 82l-53 -297q-108 -37 -215 -55q-106 -18 -211 -19q-293 0 -426 115q-133 119 -94 338z" />
<glyph unicode="&#x191;" horiz-adv-x="1257" d="M-270 -410l51 291h53q109 0 176 68q70 70 90 196l236 1348h936l-51 -291h-590l-49 -278h555l-52 -291h-553l-86 -488q-49 -280 -208 -417q-158 -137 -439 -138h-69z" />
<glyph unicode="&#x192;" horiz-adv-x="800" d="M-279 -426l41 236h179q72 0 100 26q33 27 45 96l162 932h-162l45 256h162l12 78q31 182 141 270q106 88 299 88h246l-41 -235h-178q-72 0 -100 -27q-31 -27 -43 -96l-15 -78h277l-45 -256h-277l-161 -932q-34 -184 -142 -270q-106 -88 -299 -88h-246z" />
<glyph unicode="&#x193;" horiz-adv-x="1511" d="M59 745q66 362 299 568q238 207 582 207q72 0 158 -11q57 154 164 244q162 139 436 139h69l-51 -290h-53q-111 0 -174 -68q-70 -70 -90 -197l-41 -237q-106 74 -207 106q-109 35 -215 35q-207 0 -342 -129q-137 -131 -176 -367q-43 -238 43 -366.5t284 -128.5q61 0 103 8 q43 6 88 23l49 290h-211l45 258h541l-125 -718q-141 -71 -289 -105q-152 -35 -295 -35q-334 0 -493 209q-162 213 -99 565z" />
<glyph unicode="&#x194;" horiz-adv-x="1460" d="M172 1493h354l254 -676l494 676h350l-721 -995l35 -92q74 -201 88 -308q14 -115 14 -141q0 -47 -6 -72q-25 -150 -123 -233q-100 -82 -350 -82q-246 0 -317 82q-51 61 -51 151q0 35 10 93q9 52 67.5 178t208.5 332l68 92zM504 -122.5q0 -18.5 20 -45.5q18 -27 80 -27 q59 0 94 31q33 33 35 55q2 14 2 66q0 39 -55 193l-10 24l-21 -24q-113 -158 -125 -195q-20 -59 -20 -77.5z" />
<glyph unicode="&#x195;" horiz-adv-x="1925" d="M18 0l273 1556h321l-104 -600q86 94 180 144q90 47 191 47q174 0 241 -119q70 -119 31 -346l-39 -221q-29 -172 -22 -182q27 -51 69 -48l21 2q106 0 196 97q84 90 109 229q18 109 -12 223q-23 86 -87 156l31 182q127 -4 203 -43q27 -14 78 -51q49 -35 74 -102 q6 -12 28 -88q35 -109 6 -267q-46 -255 -209 -411q-168 -158 -385 -158l-122 -2q-180 -2 -263 119q-76 119 -39 344l11 59q29 176 30 203q3 55 -6 80q-10 31 -43 55q-27 18 -69 19q-104 0 -174 -86q-72 -84 -101 -240l-94 -551h-324z" />
<glyph unicode="&#x196;" horiz-adv-x="800" d="M135 555l164 938h346l-164 -938q-20 -127 23 -197q43 -68 149 -67h56l-52 -291h-69q-279 0 -389 137q-113 142 -64 418z" />
<glyph unicode="&#x197;" horiz-adv-x="716" d="M-12 621l45 260h172l106 612h346l-106 -612h180l-45 -260h-180l-109 -621h-348l111 621h-172z" />
<glyph unicode="&#x198;" horiz-adv-x="1427" d="M37 0l260 1493h346l-94 -545l518 479q100 92 219 93q123 0 189 -93q49 -71 49 -159q0 -31 -6 -66l-37 -215h-217l20 113q6 31 -6 49q-20 29 -43 29q-35 0 -61 -23l-400 -369l578 -786h-434l-433 588l-102 -588h-346z" />
<glyph unicode="&#x199;" horiz-adv-x="1224" d="M18 0l193 1094q41 227 158 344q119 119 303 118h252l-39 -235h-152q-90 0 -133 -45t-68 -182l-67 -385l442 411h375l-582 -514l424 -606h-391l-309 467l-82 -467h-324z" />
<glyph unicode="&#x19a;" horiz-adv-x="663" d="M-18 621l45 260h166l116 675h324l-119 -675h160l-47 -260h-158l-109 -621h-321l106 621h-163z" />
<glyph unicode="&#x19b;" horiz-adv-x="1089" d="M-82 0l494 1020l-33 209l-303 -101l-13 129l295 97l-30 202h321l17 -102l313 100l8 -129l-301 -98l213 -1327h-321l-82 514l-254 -514h-324z" />
<glyph unicode="&#x19c;" horiz-adv-x="1918" d="M102 438l185 1055h323l-168 -956q-4 -16 -6 -27q0 -6 -3 -16.5t-5 -24.5q-20 -115 2 -172q23 -53 92 -53q92 0 158 84q61 78 92 241l164 924h324l-168 -956q-33 -184 -15 -240q23 -53 94 -53q94 0 158 84q66 86 92 241l162 924h326l-262 -1493h-324l29 164 q-76 -94 -162 -144q-82 -47 -178 -47q-102 0 -174 56q-70 53 -95 157q-76 -98 -174 -157q-94 -55 -194 -56q-164 0 -244 119q-72 108 -29 346z" />
<glyph unicode="&#x19d;" horiz-adv-x="1540" d="M-270 -410l51 291h53q109 0 176 68q70 70 90 196l236 1348h387l309 -1024l178 1024h330l-260 -1493h-387l-311 1024l-154 -879q-45 -248 -135 -360q-23 -29 -55 -57q-158 -137 -439 -138h-69z" />
<glyph unicode="&#x19e;" horiz-adv-x="1310" d="M92 0l197 1120h321l-28 -164q86 94 180 144q90 47 188 47q176 0 244 -119q70 -119 31 -346l-195 -1108h-323l94 537l71 411q27 154 29 201q4 59 -4 80q-10 31 -43 55q-31 18 -72 19q-101 0 -172 -86q-72 -84 -100 -240l-96 -551h-322z" />
<glyph unicode="&#x19f;" horiz-adv-x="1564" d="M68 569q0 180 49 344q49 162 145 293q115 160 275 236q162 78 368 78q270 0 432 -166q162 -164 162 -432q0 -181 -49 -344q-47 -160 -145 -291q-115 -156 -277 -238q-156 -78 -369 -78q-268 0 -429.5 164t-161.5 434zM432 580q0 -121 39 -199q66 -131 225 -131 q156 0 269 131q92 111 133 281h-662q-4 -57 -4 -82zM494 920h639q0 109 -39 190q-66 131 -226 131q-156 0 -268 -131q-63 -73 -106 -190z" />
<glyph unicode="&#x1a0;" horiz-adv-x="1564" d="M72 569q0 180 49 344q49 162 145 293q115 160 275 236q162 78 368 78q270 0 432 -166q162 -164 162 -432q0 -181 -49 -344q-47 -160 -145 -291q-115 -156 -277 -238q-156 -78 -369 -78q-268 0 -429.5 164t-161.5 434zM434 612q0 -172 72 -268q70 -94 198 -94 q104 0 184.5 49t137.5 143q57 96 84 205q29 119 29 234q0 174 -72 268q-72 92 -209 92q-176 0 -301 -180q-123 -179 -123 -449zM1274 1239l25 141q59 -57 82 -69q31 -18 51 -19q37 0 63 29q25 29 35 80q8 53 8 75q0 27 -8 80h142q0 -41 -4 -102q-2 -39 -11 -88 q-23 -119 -71 -176q-52 -61 -129 -62q-51 0 -93 27q-53 35 -90 84z" />
<glyph unicode="&#x1a1;" horiz-adv-x="1265" d="M74 444q0 123 41 246q39 115 118 221q86 113 215 176q121 59 275 60q223 0 354 -127q129 -127 129 -346q0 -123 -41 -246q-39 -117 -119 -219q-94 -119 -214.5 -178.5t-280.5 -59.5q-219 0 -350 127q-127 125 -127 346zM409 444q0 -104 46 -161q43 -55 126 -56 q125 0 205 127q82 129 82 322q0 104 -43 159.5t-129 55.5q-125 0 -205 -125q-82 -129 -82 -322zM1022 850l25 141q59 -57 82 -69q31 -18 51 -19q37 0 63 29q25 29 35 80q8 53 8 75q0 27 -8 80h142q0 -41 -4 -102q-2 -39 -11 -88q-23 -119 -71 -176q-52 -61 -129 -62 q-51 0 -93 27q-53 35 -90 84z" />
<glyph unicode="&#x1a2;" horiz-adv-x="2050" d="M92 745q66 367 283 570q219 205 545 205q119 0 210 -27h365q279 0 389 -137q113 -143 64 -418l-164 -938h-348l163 938q25 127 -20 197q-43 68 -152 67h-57l-178 -1026q-219 -205 -545 -205q-324 0 -471 205q-147 207 -84 569zM451 745.5q-41 -237.5 22 -364.5 q66 -131 223.5 -131t270.5 131l127 729q-66 131 -226 131q-156 0 -268 -131q-108 -127 -149 -364.5z" />
<glyph unicode="&#x1a3;" horiz-adv-x="1771" d="M115 559q49 276 223 432t434 156q115 0 195 -27h376q184 0 263 -119q77 -120 36 -344l-192 -1099h-322l191 1099q25 135 0 183q-25 45 -119 45h-65l-134 -758q-174 -156 -434 -156q-262 0 -381 156q-120 158 -71 432zM451 559q-27 -158 14 -248q43 -84 147 -84 q106 0 176 84l86 496q-39 84 -145 84q-109 0 -178 -84q-73 -88 -100 -248z" />
<glyph unicode="&#x1a4;" horiz-adv-x="1439" d="M-68 1079l15 76q23 139 78 205q18 20 55 51q82 66 205 78q31 4 104 4h576q256 0 370 -127q117 -127 74 -360q-41 -238 -198.5 -363t-415.5 -125h-230l-90 -518h-346l215 1231h-72q-39 -2 -57 -21q-33 -33 -45 -84q-2 -4 -4 -20t-4 -27h-230zM614 797h193q98 0 164 55 q63 55 81.5 153.5t-28.5 153.5q-45 55 -145 55h-191z" />
<glyph unicode="&#x1a5;" horiz-adv-x="1318" d="M-18 -426l284 1624q27 168 140 270q94 88 299 88h245l-41 -235h-178q-70 0 -98 -27q-33 -27 -45 -96l-43 -242q80 94 174 144q90 47 194 47q184 0 277 -166q92 -164 47 -422q-47 -260 -195 -424q-145 -164 -335 -164q-102 0 -179 47q-72 45 -120 144l-105 -588h-321z M475 559q-27 -158 14 -244q39 -84 144 -84q100 0 172 84q70 82 98 244q29 160 -12 244t-143 84q-104 0 -175 -84q-69 -82 -98 -244z" />
<glyph unicode="&#x1a6;" horiz-adv-x="1417" d="M66 0l260 1493h346l-45 -258h184q262 0 371 -98q80 -74 80 -209q0 -43 -11 -105q-53 -295 -325 -383q68 -18 112 -82q47 -66 80 -192l125 -465h-369l-108 412q-33 115 -74 153q-45 41 -129 41h-98l-53 -307h-346zM512 573h145q111 0 164 45q55 47 74 148q4 20 4 74 q0 45 -33 80q-34 37 -141 36h-145z" />
<glyph unicode="&#x1a7;" horiz-adv-x="1325" d="M-2 459q35 193 145 291q117 104 344 151l154 33q113 27 156 57q45 33 57 94q14 78 -39 117q-55 39 -178 39q-88 0 -203 -29q-117 -29 -231 -82l55 316q132 37 252 55q121 18 231 19q246 0 353 -119q109 -121 69 -344q-31 -176 -143 -283q-111 -104 -322 -153l-141 -33 q-129 -31 -174 -68q-47 -37 -59 -108q-12 -76 38 -119q52 -43 166 -43q106 0 240 39q137 43 268 114l-57 -325q-141 -53 -270 -80q-131 -27 -263 -27q-270 0 -380.5 121t-67.5 367z" />
<glyph unicode="&#x1a8;" horiz-adv-x="1095" d="M-12 330q31 172 129 252q102 82 354 114l57 9q88 12 127 34q35 20 45 66q10 55 -30 80q-39 25 -131 24q-84 0 -187 -24q-115 -27 -213 -72l47 272q129 33 222 48q94 14 190 14q229 0 324 -86q92 -84 61 -264q-28 -166 -129 -246q-102 -80 -319 -111l-60 -8 q-94 -12 -137 -37q-37 -25 -45 -71q-10 -59 33 -86q45 -29 137 -29q94 0 211 27q98 23 211 77l-49 -272q-125 -37 -228 -53q-96 -16 -209 -17q-233 0 -340 90q-102 91 -71 269z" />
<glyph unicode="&#x1a9;" horiz-adv-x="1257" d="M39 0l55 322l512 473l-360 391l53 307h936l-51 -291h-604l372 -403l-546 -508h638l-51 -291h-954z" />
<glyph unicode="&#x1aa;" horiz-adv-x="1015" d="M63 1245q47 283 306 307v2h6h51h102q182 0 260 -118q66 -100 52 -256h153l-37 -211h-151l-184 -1055q-12 -68 10 -96q20 -27 92 -27h176l-41 -235h-246q-195 0 -270 88q-74 84 -43 270l182 1055h-186q-279 0 -232 276zM250 1253q-6 -37 14.5 -55t67.5 -18h182 q4 66 -12 94q-25 45 -117 45h-41q-84 -7 -94 -66z" />
<glyph unicode="&#x1ab;" horiz-adv-x="880" d="M88 864l45 256h160l55 318h324l-56 -318h332l-45 -256h-332l-84 -475q-14 -72 11 -104q23 -29 104 -29h166l-43 -256q-43 -207 -156 -324q-119 -119 -303 -118h-157l41 235h55q92 0 135 45q41 43 61 162q-152 8 -208 88q-63 88 -27 301l82 475h-160z" />
<glyph unicode="&#x1ac;" horiz-adv-x="1300" d="M68 973l28 176q31 178 133 262q104 82 293 82h189h712l-51 -291h-444l-211 -1202h-346l209 1202h-2q-137 0 -188.5 -39t-70.5 -141l-8 -49h-243z" />
<glyph unicode="&#x1ad;" horiz-adv-x="880" d="M41 864l43 256h160l14 78q27 168 139 270q94 88 299 88h246l-39 -235h-178q-72 0 -100 -27q-33 -29 -45 -96l-15 -78h332l-43 -256h-332l-84 -475q-12 -76 11 -104q25 -29 106 -29h166l-45 -256h-277q-193 0 -256 88t-26 301l84 475h-160z" />
<glyph unicode="&#x1ae;" horiz-adv-x="1255" d="M125 1202l51 291h1237l-49 -291h-446l-185 -1057q-23 -131 21 -196q43 -68 151 -68h53l-51 -291h-69q-276 0 -389 138q-113 141 -64 417l186 1057h-446z" />
<glyph unicode="&#x1af;" horiz-adv-x="1495" d="M125 414q0 23 4 80q2 25 14 104l158 895h346l-158 -895q-10 -51 -12 -84q-4 -49 -4 -65q0 -94 47 -146q46 -49 142 -49q127 0 192.5 78t99.5 266l158 895h346l-158 -895q-59 -332 -221 -479q-163 -147 -467 -148q-238 0 -362.5 113t-124.5 330zM1333 1241l25 141 q59 -57 82 -69q31 -18 51 -19q37 0 63 29q25 29 35 80q8 53 8 75q0 27 -8 80h142q0 -41 -4 -102q-2 -39 -11 -88q-23 -119 -71 -176q-52 -61 -129 -62q-51 0 -93 27q-53 35 -90 84z" />
<glyph unicode="&#x1b0;" horiz-adv-x="1310" d="M107 281q0 20 4 73q2 23 10 82l119 684h321l-100 -583q-4 -20 -9 -52l-7 -45q-6 -39 -7 -63q0 -61 33 -98q31 -35 88 -35q101 0 172 86q74 90 101 239l96 551h323l-194 -1120h-326l31 164q-80 -96 -174 -146q-88 -47 -193 -47q-137 0 -213 80q-75 78 -75 230zM1069 850 l25 141q59 -57 82 -69q31 -18 51 -19q37 0 63 29q25 29 35 80q8 53 8 75q0 27 -8 80h142q0 -41 -4 -102q-2 -39 -11 -88q-23 -119 -71 -176q-52 -61 -129 -62q-51 0 -93 27q-53 35 -90 84z" />
<glyph unicode="&#x1b1;" horiz-adv-x="1415" d="M76 662q29 164 108 303q82 143 215 260h-262l45 256h547l-49 -291q-129 -86 -211 -217q-86 -135 -113 -297q-35 -205 35 -320q72 -117 231.5 -116.5t272.5 116.5q113 119 145 320q29 172 -6 297q-37 131 -135 217l51 291h547l-43 -256h-262q92 -119 123 -260 q31 -137 2 -303q-55 -315 -258 -502q-201 -188 -484 -189q-285 0 -417 189q-137 191 -82 502z" />
<glyph unicode="&#x1b2;" horiz-adv-x="1497" d="M135 555l164 938h346l-164 -938q-20 -127 23 -197q43 -68 149 -67h56q160 0 272 117q131 137 152 268q37 203 -7 297q-76 162 -211 256l25 145h244q152 -141 223 -409q33 -121 2 -303q-43 -250 -262 -449q-236 -213 -490 -213h-69q-279 0 -389 137q-113 142 -64 418z" />
<glyph unicode="&#x1b3;" horiz-adv-x="1468" d="M111 1493h378l213 -532l256 342q162 217 357 217q123 0 186 -93q49 -71 49 -159q0 -31 -6 -66l-37 -215h-217l13 70q6 29 -7 47q-23 29 -43 29q-49 0 -104 -72l-332 -432l-108 -629h-349l111 629z" />
<glyph unicode="&#x1b4;" horiz-adv-x="1433" d="M45 -442l41 235h100q80 0 125 29q43 29 76 104l14 31l-243 1163h321l137 -760l271 564q106 223 350 223q92 0 159.5 -49t98.5 -137q20 -61 21 -115q0 -25 -9 -74l-20 -127h-219l10 62q6 29 -2 61q-6 31 -25 45q-20 16 -43 16q-25 0 -49 -18q-29 -23 -41 -43 q-8 -20 -14 -31l-440 -843q-98 -188 -195 -263q-98 -74 -238 -73h-186z" />
<glyph unicode="&#x1b5;" horiz-adv-x="1335" d="M-47 0l41 233l354 388h-160l45 260h357l295 321h-701l49 291h1131l-41 -233l-348 -379h174l-45 -260h-369l-303 -330h742l-52 -291h-1169z" />
<glyph unicode="&#x1b6;" horiz-adv-x="1071" d="M-14 0l43 250l219 211h-105l39 221h295l191 182h-510l45 256h880l-45 -250l-194 -188h110l-39 -221h-301l-215 -205h533l-45 -256h-901z" />
<glyph unicode="&#x1b7;" horiz-adv-x="1421" d="M39 55l49 289q129 -74 260 -111q139 -39 268 -38q139 0 224 53q82 51 100 151q18 102 -47 156q-66 51 -213 51h-170l45 246l334 350h-670l51 291h1100l-45 -250l-422 -434q127 -14 189 -33q106 -33 163 -143q51 -102 27 -248q-37 -219 -211 -338q-176 -115 -500 -115 q-137 0 -272 31q-133 31 -260 92z" />
<glyph unicode="&#x1b8;" horiz-adv-x="1421" d="M18 385q25 145 113 248q96 109 215 143q70 20 201 33l-271 434l43 250h1100l-51 -291h-670l213 -350l-43 -246h-168q-150 0 -231 -51q-84 -51 -102 -156q-18 -98 47 -151t207 -53q123 0 278 38q147 37 301 111l-51 -289q-150 -61 -293 -92t-285 -31q-326 0 -458 115 q-134 119 -95 338z" />
<glyph unicode="&#x1b9;" horiz-adv-x="1179" d="M10 12q25 143 115 246q92 111 215 145q94 25 229 33l-301 434l45 250h879l-43 -256h-510l264 -385l-43 -246h-168q-147 0 -229 -51q-84 -51 -103 -155q-18 -98 47.5 -151.5t200.5 -53.5q90 0 195 28q111 31 207 80l-52 -297q-106 -37 -217 -55q-106 -18 -211 -18 q-293 0 -426 116q-133 115 -94 336z" />
<glyph unicode="&#x1ba;" horiz-adv-x="1071" d="M-20 -186q0 29 6 59q25 141 118 209q74 55 332 92l56 8q88 12 118 29q35 18 41 55q0 4 1 8.5t1 6.5q0 35 -32 51q-39 20 -265 20h-227l533 512h-508l45 256h878l-43 -250l-336 -323q98 -18 158 -66q72 -55 72 -159q0 -28 -6 -62q-25 -139 -117 -204.5t-303 -92.5l-56 -6 q-98 -12 -129 -31q-35 -18 -43 -57v-16q0 -37 33 -58q37 -23 131 -22q104 0 201 20q90 18 197 66l-39 -228q-120 -31 -215 -43q-98 -14 -199 -14q-219 0 -324 76q-79 60 -79 164z" />
<glyph unicode="&#x1bb;" horiz-adv-x="1280" d="M12 0l49 283l316 264h-205l47 260h463q51 47 76 86q41 61 53 131q18 106 -33 169.5t-157 63.5q-82 0 -185 -38q-96 -35 -225 -115l55 328q131 45 244 65q125 23 227 23q242 0 354.5 -117t75.5 -330q-20 -121 -96 -227q-4 -6 -14 -18.5t-17 -20.5h25l-45 -260h-256 l-318 -264h592l-49 -283h-977z" />
<glyph unicode="&#x1bc;" horiz-adv-x="1421" d="M20 399h347q-18 -98 47 -151t202 -53q139 0 224 53q82 51 100 151q18 102 -47 156q-66 51 -213 51h-182h-348l45 246l110 641h957l-52 -291h-610l-59 -350h196q233 0 371 -59q95 -40 147 -160q51 -113 27 -248q-37 -219 -211 -338q-176 -115 -500 -115q-340 0 -458 115 q-132 131 -93 352z" />
<glyph unicode="&#x1bd;" horiz-adv-x="1179" d="M-55 -367l51 297q80 -49 180 -80q92 -29 182 -28q137 0 222 53q82 51 100 152q18 102 -47 155q-66 51 -215 51h-283l43 246l115 641h764l-39 -221h-443l-73 -420h6q217 0 307 -47q135 -70 180 -174q53 -117 29 -246q-37 -219 -213 -336q-175 -117 -467 -116 q-102 0 -205 18q-98 18 -194 55z" />
<glyph unicode="&#x1be;" horiz-adv-x="1054" d="M-49 41l51 297q55 -39 129 -64q72 -23 139 -22q162 0 271 115q63 63 82 161q12 68 -27 148q-57 113 -252 112h-84l53 308h-141l35 194h139l29 148h321l-26 -148h231l-33 -194h-233l-10 -68q166 -31 237 -125q115 -147 76 -375q-37 -213 -180 -348q-227 -211 -443 -211 q-164 0 -231 19q-63 16 -133 53z" />
<glyph unicode="&#x1bf;" horiz-adv-x="1318" d="M-23 -426l271 1546h323l-28 -166q102 115 180 150q101 43 270 43h6q180 0 234 -113q45 -96 45 -184q0 -47 -8 -82q-86 -426 -920 -899l-51 -295h-322zM399 145q487 336 514 498q6 37 7 70q0 66 -25 108q-41 66 -154 66q-78 0 -247 -203z" />
<glyph unicode="&#x1c0;" horiz-adv-x="684" d="M0 -426l338 1919h346l-338 -1919h-346z" />
<glyph unicode="&#x1c1;" horiz-adv-x="1212" d="M528 -426l338 1919h346l-338 -1919h-346zM0 -426l338 1919h346l-338 -1919h-346z" />
<glyph unicode="&#x1c2;" horiz-adv-x="1001" d="M-43 242l43 235h315l39 221h-315l41 236h315l99 559h346l-99 -559h318l-43 -236h-316l-38 -221h315l-41 -235h-315l-117 -668h-346l116 668h-317z" />
<glyph unicode="&#x1c3;" horiz-adv-x="684" d="M51 0l63 356h324l-61 -356h-326zM186 502l25 418l102 573h326l-103 -573l-118 -418h-232z" />
<glyph unicode="&#x1c4;" horiz-adv-x="2852" d="M1483 0l41 238l872 964h-684l51 291h1131l-43 -238l-870 -964h723l-52 -291h-1169zM2067 1899h156l133 -162l206 162h160l-219 -264h-313zM39 0l262 1493h365q258 0 391 -35q131 -35 217 -115q90 -82 131 -196q45 -123 45 -262q0 -201 -76 -383q-72 -176 -211 -301 q-123 -111 -276.5 -156t-483.5 -45h-364zM436 291h125q242 0 383 151.5t141 407.5q0 174 -92 262q-94 90 -274 90h-121z" />
<glyph unicode="&#x1c5;" horiz-adv-x="2672" d="M1514 0l43 250l628 614h-497l43 256h878l-43 -250l-628 -614h522l-45 -256h-901zM1885 1638h157l142 -227l219 227h176l-295 -376h-236zM39 0l262 1493h365q258 0 391 -35q131 -35 217 -115q90 -82 131 -196q45 -123 45 -262q0 -201 -76 -383q-72 -176 -211 -301 q-123 -111 -276.5 -156t-483.5 -45h-364zM436 291h125q242 0 383 151.5t141 407.5q0 174 -92 262q-94 90 -274 90h-121z" />
<glyph unicode="&#x1c6;" horiz-adv-x="2406" d="M1303 0l43 250l628 614h-497l43 256h878l-43 -250l-628 -614h522l-45 -256h-901zM1674 1638h157l142 -227l219 227h176l-295 -376h-236zM68 418q0 125 34 252q33 117 99 221q86 129 184 190q106 66 221 66q100 0 176 -47q74 -47 123 -144l105 600h325l-272 -1556h-326 l31 162q-72 -94 -156 -144q-82 -47 -178 -47q-170 0 -268 119t-98 328zM399 440q0 -104 43 -155q43 -53 123 -54q125 0 203 127t78 332q0 92 -43 146q-43 51 -123 51q-121 0 -201 -125q-80 -127 -80 -322z" />
<glyph unicode="&#x1c7;" horiz-adv-x="1798" d="M869 -410l49 291h55q106 0 174 68q72 72 93 196l235 1348h346l-235 -1348q-53 -293 -205 -424t-443 -131h-69zM39 0l262 1493h346l-211 -1202h606l-49 -291h-954z" />
<glyph unicode="&#x1c8;" horiz-adv-x="1802" d="M938 -442l41 235h56q90 0 133 45q45 47 65 182l195 1100h324l-195 -1100q-41 -236 -154 -348q-115 -115 -305 -114h-160zM1450 1264l52 292h323l-51 -292h-324zM39 0l262 1493h346l-211 -1202h606l-49 -291h-954z" />
<glyph unicode="&#x1c9;" horiz-adv-x="1232" d="M397 -442l41 235h56q90 0 133 45q45 47 65 182l195 1100h324l-195 -1100q-41 -236 -154 -348q-115 -115 -305 -114h-160zM909 1264l52 292h323l-51 -292h-324zM57 0l271 1556h323l-270 -1556h-324z" />
<glyph unicode="&#x1ca;" horiz-adv-x="2197" d="M1237 -410l49 291h55q106 0 174 68q72 72 93 196l235 1348h346l-235 -1348q-53 -293 -205 -424t-443 -131h-69zM39 0l262 1493h387l307 -1034l181 1034h327l-262 -1493h-387l-307 1034l-180 -1034h-328z" />
<glyph unicode="&#x1cb;" horiz-adv-x="2234" d="M1306 -442l41 235h56q90 0 133 45q45 47 65 182l195 1100h324l-195 -1100q-41 -236 -154 -348q-115 -115 -305 -114h-160zM1818 1264l52 292h323l-51 -292h-324zM39 0l262 1493h387l307 -1034l181 1034h327l-262 -1493h-387l-307 1034l-180 -1034h-328z" />
<glyph unicode="&#x1cc;" horiz-adv-x="1959" d="M1077 -442l41 235h56q90 0 133 45q45 47 65 182l195 1100h324l-195 -1100q-41 -236 -154 -348q-115 -115 -305 -114h-160zM1589 1264l52 292h323l-51 -292h-324zM57 0l197 1120h324l-31 -164q88 96 178 143.5t188 47.5q139 0 217 -80q74 -76 74 -229q0 -16 -4 -70 q-4 -57 -10 -86l-121 -682h-324l103 584q6 29 16 96q6 41 6 63q0 61 -32 99q-31 35 -90 35q-101 0 -172 -86t-99 -240l-96 -551h-324z" />
<glyph unicode="&#x1cd;" horiz-adv-x="1425" d="M-121 0l760 1493h397l238 -1493h-330l-39 272h-536l-133 -272h-357zM500 543h360l-82 575zM567 1899h156l133 -162l206 162h160l-219 -264h-313z" />
<glyph unicode="&#x1ce;" horiz-adv-x="1241" d="M33 276q0 215 147 328q145 113 430 113h191l4 28q2 10 2 21v10q0 65 -55 98q-57 35 -168 35q-96 0 -193 -22q-88 -20 -180 -70l47 273q104 29 207 43q100 14 219 14q225 0 333.5 -86t108.5 -260q0 -20 -4 -74q-4 -43 -12 -88l-113 -639h-321l26 166q-80 -102 -167 -148 q-90 -47 -193 -47q-143 0 -225 82q-84 84 -84 223zM362 340q0 -61 37 -96q39 -35 101 -35q98 0 165.5 67.5t88.5 186.5l8 41h-156q-123 0 -182 -41q-62 -43 -62 -123zM441 1638h157l142 -227l219 227h176l-295 -376h-236z" />
<glyph unicode="&#x1cf;" horiz-adv-x="684" d="M39 0l262 1493h346l-262 -1493h-346zM215 1899h156l133 -162l206 162h160l-219 -264h-313z" />
<glyph unicode="&#x1d0;" horiz-adv-x="630" d="M57 0l197 1120h324l-197 -1120h-324zM148 1638h157l142 -227l219 227h176l-295 -376h-236z" />
<glyph unicode="&#x1d1;" horiz-adv-x="1564" d="M68 569q0 180 49 344q49 162 145 293q115 160 275 236q162 78 368 78q270 0 432 -166q162 -164 162 -432q0 -181 -49 -344q-47 -160 -145 -291q-115 -156 -277 -238q-156 -78 -369 -78q-268 0 -429.5 164t-161.5 434zM430 612q0 -172 72 -268q70 -94 198 -94 q104 0 184.5 49t137.5 143q57 96 84 205q29 119 29 234q0 174 -72 268q-72 92 -209 92q-176 0 -301 -180q-123 -179 -123 -449zM664 1899h156l133 -162l206 162h160l-219 -264h-313z" />
<glyph unicode="&#x1d2;" horiz-adv-x="1265" d="M68 444q0 123 41 246q39 115 118 221q86 113 215 176q121 59 275 60q223 0 354 -127q129 -127 129 -346q0 -123 -41 -246q-39 -117 -119 -219q-94 -119 -214.5 -178.5t-280.5 -59.5q-219 0 -350 127q-127 125 -127 346zM403 444q0 -104 46 -161q43 -55 126 -56 q125 0 205 127q82 129 82 322q0 104 -43 159.5t-129 55.5q-125 0 -205 -125q-82 -129 -82 -322zM472 1638h157l142 -227l219 227h176l-295 -376h-236z" />
<glyph unicode="&#x1d3;" horiz-adv-x="1495" d="M125 414q0 23 4 80q2 25 14 104l158 895h346l-158 -895q-10 -51 -12 -84q-4 -49 -4 -65q0 -94 47 -146q46 -49 142 -49q127 0 192.5 78t99.5 266l158 895h346l-158 -895q-59 -332 -221 -479q-163 -147 -467 -148q-238 0 -362.5 113t-124.5 330zM600 1899h156l133 -162 l206 162h160l-219 -264h-313z" />
<glyph unicode="&#x1d4;" horiz-adv-x="1310" d="M111 281q0 20 4 73q2 23 10 82l119 684h321l-100 -583q-4 -20 -9 -52l-7 -45q-6 -39 -7 -63q0 -61 33 -98q31 -35 88 -35q101 0 172 86q74 90 101 239l96 551h323l-194 -1120h-326l31 164q-80 -96 -174 -146q-88 -47 -193 -47q-137 0 -213 80q-75 78 -75 230zM472 1638 h157l142 -227l219 227h176l-295 -376h-236z" />
<glyph unicode="&#x1d5;" horiz-adv-x="1495" d="M681 1941l34 188h568l-33 -188h-569zM625 1624l41 246h213l-43 -246h-211zM979 1624l41 246h215l-45 -246h-211zM125 414q0 23 4 80q2 25 14 104l158 895h346l-158 -895q-10 -51 -12 -84q-4 -49 -4 -65q0 -94 47 -146q46 -49 142 -49q127 0 192.5 78t99.5 266l158 895 h346l-158 -895q-59 -332 -221 -479q-163 -147 -467 -148q-238 0 -362.5 113t-124.5 330z" />
<glyph unicode="&#x1d6;" horiz-adv-x="1310" d="M111 281q0 20 4 73q2 23 10 82l119 684h321l-100 -583q-4 -20 -9 -52l-7 -45q-6 -39 -7 -63q0 -61 33 -98q31 -35 88 -35q101 0 172 86q74 90 101 239l96 551h323l-194 -1120h-326l31 164q-80 -96 -174 -146q-88 -47 -193 -47q-137 0 -213 80q-75 78 -75 230zM476 1339 l41 246h215l-45 -246h-211zM832 1339l43 246h213l-45 -246h-211zM527 1683l34 188h568l-33 -188h-569z" />
<glyph unicode="&#x1d7;" horiz-adv-x="1495" d="M831 1901l221 264h252l-286 -264h-187zM596 1624l41 246h213l-43 -246h-211zM950 1624l41 246h215l-45 -246h-211zM125 414q0 23 4 80q2 25 14 104l158 895h346l-158 -895q-10 -51 -12 -84q-4 -49 -4 -65q0 -94 47 -146q46 -49 142 -49q127 0 192.5 78t99.5 266l158 895 h346l-158 -895q-59 -332 -221 -479q-163 -147 -467 -148q-238 0 -362.5 113t-124.5 330z" />
<glyph unicode="&#x1d8;" horiz-adv-x="1310" d="M708 1612l221 264h252l-286 -264h-187zM473 1335l41 246h213l-43 -246h-211zM827 1335l41 246h215l-45 -246h-211zM111 281q0 20 4 73q2 23 10 82l119 684h321l-100 -583q-4 -20 -9 -52l-7 -45q-6 -39 -7 -63q0 -61 33 -98q31 -35 88 -35q101 0 172 86q74 90 101 239 l96 551h323l-194 -1120h-326l31 164q-80 -96 -174 -146q-88 -47 -193 -47q-137 0 -213 80q-75 78 -75 230z" />
<glyph unicode="&#x1d9;" horiz-adv-x="1495" d="M635 2165h156l133 -162l206 162h160l-219 -264h-313zM590 1624l41 246h213l-43 -246h-211zM944 1624l41 246h215l-45 -246h-211zM125 414q0 23 4 80q2 25 14 104l158 895h346l-158 -895q-10 -51 -12 -84q-4 -49 -4 -65q0 -94 47 -146q46 -49 142 -49q127 0 192.5 78 t99.5 266l158 895h346l-158 -895q-59 -332 -221 -479q-163 -147 -467 -148q-238 0 -362.5 113t-124.5 330z" />
<glyph unicode="&#x1da;" horiz-adv-x="1310" d="M518 1876h156l133 -162l206 162h160l-219 -264h-313zM473 1335l41 246h213l-43 -246h-211zM827 1335l41 246h215l-45 -246h-211zM111 281q0 20 4 73q2 23 10 82l119 684h321l-100 -583q-4 -20 -9 -52l-7 -45q-6 -39 -7 -63q0 -61 33 -98q31 -35 88 -35q101 0 172 86 q74 90 101 239l96 551h323l-194 -1120h-326l31 164q-80 -96 -174 -146q-88 -47 -193 -47q-137 0 -213 80q-75 78 -75 230z" />
<glyph unicode="&#x1db;" horiz-adv-x="1495" d="M631 2165h237l129 -264h-159zM590 1624l41 246h213l-43 -246h-211zM944 1624l41 246h215l-45 -246h-211zM125 414q0 23 4 80q2 25 14 104l158 895h346l-158 -895q-10 -51 -12 -84q-4 -49 -4 -65q0 -94 47 -146q46 -49 142 -49q127 0 192.5 78t99.5 266l158 895h346 l-158 -895q-59 -332 -221 -479q-163 -147 -467 -148q-238 0 -362.5 113t-124.5 330z" />
<glyph unicode="&#x1dc;" horiz-adv-x="1310" d="M514 1876h237l129 -264h-159zM473 1335l41 246h213l-43 -246h-211zM827 1335l41 246h215l-45 -246h-211zM111 281q0 20 4 73q2 23 10 82l119 684h321l-100 -583q-4 -20 -9 -52l-7 -45q-6 -39 -7 -63q0 -61 33 -98q31 -35 88 -35q101 0 172 86q74 90 101 239l96 551h323 l-194 -1120h-326l31 164q-80 -96 -174 -146q-88 -47 -193 -47q-137 0 -213 80q-75 78 -75 230z" />
<glyph unicode="&#x1dd;" horiz-adv-x="1249" d="M78 555l18 102h754q8 125 -49.5 188.5t-184.5 63.5q-104 0 -215 -32q-111 -35 -235 -103l47 277q111 43 242 71q117 25 231 25q272 0 399 -156q125 -152 76 -432q-49 -274 -225 -432q-174 -156 -436 -156q-240 0 -353 158q-114 162 -69 426zM389 436q-18 -102 25 -164 q43 -63 129 -63q92 0 161.5 59.5t102.5 167.5h-418z" />
<glyph unicode="&#x1de;" horiz-adv-x="1425" d="M638 1941l34 188h568l-33 -188h-569zM582 1624l41 246h213l-43 -246h-211zM936 1624l41 246h215l-45 -246h-211zM-121 0l760 1493h397l238 -1493h-330l-39 272h-536l-133 -272h-357zM500 543h360l-82 575z" />
<glyph unicode="&#x1df;" horiz-adv-x="1241" d="M33 276q0 215 147 328q145 113 430 113h191l4 28q2 10 2 21v10q0 65 -55 98q-57 35 -168 35q-96 0 -193 -22q-88 -20 -180 -70l47 273q104 29 207 43q100 14 219 14q225 0 333.5 -86t108.5 -260q0 -20 -4 -74q-4 -43 -12 -88l-113 -639h-321l26 166q-80 -102 -167 -148 q-90 -47 -193 -47q-143 0 -225 82q-84 84 -84 223zM362 340q0 -61 37 -96q39 -35 101 -35q98 0 165.5 67.5t88.5 186.5l8 41h-156q-123 0 -182 -41q-62 -43 -62 -123zM443 1339l41 246h215l-45 -246h-211zM799 1339l43 246h213l-45 -246h-211zM475 1683l34 188h568l-33 -188 h-569z" />
<glyph unicode="&#x1e0;" horiz-adv-x="1425" d="M748 1624l40 246h248l-43 -246h-245zM642 1941l34 188h568l-33 -188h-569zM-121 0l760 1493h397l238 -1493h-330l-39 272h-536l-133 -272h-357zM500 543h360l-82 575z" />
<glyph unicode="&#x1e1;" horiz-adv-x="1241" d="M647 1298l40 246h248l-43 -246h-245zM541 1615l34 188h568l-33 -188h-569zM33 276q0 215 147 328q145 113 430 113h191l4 28q2 10 2 21v10q0 65 -55 98q-57 35 -168 35q-96 0 -193 -22q-88 -20 -180 -70l47 273q104 29 207 43q100 14 219 14q225 0 333.5 -86t108.5 -260 q0 -20 -4 -74q-4 -43 -12 -88l-113 -639h-321l26 166q-80 -102 -167 -148q-90 -47 -193 -47q-143 0 -225 82q-84 84 -84 223zM362 340q0 -61 37 -96q39 -35 101 -35q98 0 165.5 67.5t88.5 186.5l8 41h-156q-123 0 -182 -41q-62 -43 -62 -123z" />
<glyph unicode="&#x1e2;" horiz-adv-x="1998" d="M-143 0l839 1493h1280l-53 -291h-588l-47 -278h553l-51 -291h-553l-59 -342h606l-49 -291h-957l64 350h-445l-194 -350h-346zM549 627h340l106 610h-108zM1028 1683l34 188h568l-33 -188h-569z" />
<glyph unicode="&#x1e3;" horiz-adv-x="1929" d="M33 274q0 217 147 330q145 113 434 113h185l6 28q2 8 2 21v10q0 65 -55 98q-57 35 -164 35q-100 0 -197 -22q-86 -20 -178 -70l49 273q106 29 205 43q94 14 195 14q133 0 223 -37q88 -37 139 -113q84 76 180 113q94 37 213 37q201 0 322 -123q119 -121 119 -322 q0 -31 -5 -92q-2 -31 -14 -92l-12 -57h-752q0 -2 -1 -7t-1 -10v-18q0 -109 60 -164q55 -53 176 -53q102 0 213 33q104 31 237 102l-49 -278q-104 -45 -235 -72q-106 -23 -238 -23q-158 0 -262 52q-109 53 -166 155q-102 -102 -215 -155q-109 -51 -238 -52q-152 0 -237.5 80 t-85.5 223zM362 340q0 -61 37 -96q39 -35 101 -35q98 0 165.5 67.5t88.5 186.5l8 41h-156q-123 0 -182 -41q-62 -43 -62 -123zM1118 682h418q4 16 4 27v26q0 80 -43 127t-117 47q-96 0 -161.5 -57t-100.5 -170zM764 1366l34 188h568l-33 -188h-569z" />
<glyph unicode="&#x1e4;" horiz-adv-x="1511" d="M68 573q0 184 51 338q53 162 151 291q123 160 293 240q164 78 387 78q123 0 242 -27q117 -27 242 -84l-54 -309q-117 76 -215 106q-109 35 -211 35q-229 0 -376.5 -172t-147.5 -442q0 -180 86 -279q82 -98 240 -98q53 0 100 8q45 6 102 23l19 102h-105l13 86h106l19 102 h-211l43 258h538l-61 -360h108l-10 -86h-114l-48 -272q-133 -72 -272 -105q-145 -35 -303 -35q-287 0 -451 160q-161 161 -161 442z" />
<glyph unicode="&#x1e5;" horiz-adv-x="1318" d="M37 -377l49 279q78 -57 152 -80q74 -27 155 -27q154 0 242 72h-381l20 90h433q35 66 49 156l14 77q-78 -98 -158 -145q-78 -45 -174 -45q-168 0 -270 123q-100 125 -100 334q0 111 34 227q31 104 101 213q80 119 182 184q102 63 219 64q109 0 178 -45q74 -45 123 -146 l27 166h325l-170 -973q-18 -109 -51 -190h144l-21 -90h-164q-51 -94 -131 -166q-170 -143 -475 -143q-88 0 -180 16q-86 15 -172 49zM403 469q0 -104 43 -156q41 -53 123 -53q117 0 199 119q78 117 78 295q0 104 -41 157q-43 55 -125 56q-119 0 -199 -119q-78 -121 -78 -299 z" />
<glyph unicode="&#x1e6;" horiz-adv-x="1511" d="M68 573q0 184 51 340q51 160 151 289q123 160 293 240q164 78 387 78q123 0 242 -27q117 -27 242 -84l-54 -309q-117 76 -215 106q-109 35 -211 35q-229 0 -376.5 -172t-147.5 -442q0 -180 86 -278.5t240 -98.5q35 0 100 8q45 6 102 23l52 290h-211l43 258h538l-125 -718 q-133 -72 -272 -105q-145 -35 -303 -35q-287 0 -449 162q-163 164 -163 440zM694 1899h156l133 -162l206 162h160l-219 -264h-313z" />
<glyph unicode="&#x1e7;" horiz-adv-x="1318" d="M496 1636h157l142 -227l219 227h176l-295 -376h-236zM37 -377l49 279q70 -51 152 -80q74 -27 155 -27q162 0 246 76q86 78 117 242l14 77q-78 -98 -158 -145q-78 -45 -174 -45q-172 0 -270 123q-100 125 -100 334q0 111 34 227q31 104 101 213q80 119 182 184 q100 63 219 64q109 0 180 -45q70 -43 121 -146l27 166h325l-170 -973q-53 -303 -223 -446t-475 -143q-88 0 -180 16q-86 15 -172 49zM403 469q0 -104 43 -156q43 -53 123 -53q119 0 199 119q78 117 78 295q0 102 -43 157.5t-123 55.5q-117 0 -197 -119q-80 -121 -80 -299z " />
<glyph unicode="&#x1e8;" horiz-adv-x="1427" d="M39 0l262 1493h346l-94 -537l571 537h418l-770 -725l582 -768h-408l-452 623l-109 -623h-346zM240 1897h156l133 -162l206 162h160l-219 -264h-313z" />
<glyph unicode="&#x1e9;" horiz-adv-x="1224" d="M57 0l271 1556h323l-145 -843l434 407h379l-586 -518l426 -602h-368l-326 483l-84 -483h-324zM250 1897h156l133 -162l206 162h160l-219 -264h-313z" />
<glyph unicode="&#x1ea;" horiz-adv-x="1564" d="M68 569q0 180 49 344q49 162 145 293q115 160 275 236q162 78 368 78q270 0 432 -166q162 -164 162 -432q0 -181 -49 -344q-47 -160 -145 -291q-115 -156 -277 -238q-156 -78 -369 -78q-268 0 -429.5 164t-161.5 434zM430 612q0 -172 72 -268q70 -94 198 -94 q104 0 184.5 49t137.5 143q57 96 84 205q29 119 29 234q0 174 -72 268q-72 92 -209 92q-176 0 -301 -180q-123 -179 -123 -449zM446 -282.5q0 65.5 33 129.5q31 59 108 137h127q-51 -59 -86 -115q-25 -40 -24 -67q0 -35 22 -54q20 -18 64 -18q37 0 70 8q49 12 75 23 l-26 -152q-78 -18 -92 -20q-41 -6 -76 -6q-94 0 -146 34q-49 35 -49 100.5z" />
<glyph unicode="&#x1eb;" horiz-adv-x="1265" d="M68 444q0 123 41 246q39 115 118 221q86 113 215 176q121 59 275 60q223 0 354 -127q129 -127 129 -346q0 -123 -41 -246q-39 -117 -119 -219q-94 -119 -214.5 -178.5t-280.5 -59.5q-219 0 -350 127q-127 125 -127 346zM403 444q0 -104 46 -161q43 -55 126 -56 q125 0 205 127q82 129 82 322q0 104 -43 159.5t-129 55.5q-125 0 -205 -125q-82 -129 -82 -322zM299 -282.5q0 65.5 33 129.5q31 59 108 137h127q-51 -59 -86 -115q-25 -40 -24 -67q0 -35 22 -54q20 -18 64 -18q37 0 70 8q49 12 75 23l-26 -152q-78 -18 -92 -20 q-41 -6 -76 -6q-94 0 -146 34q-49 35 -49 100.5z" />
<glyph unicode="&#x1ec;" horiz-adv-x="1564" d="M68 569q0 180 49 344q49 162 145 293q115 160 275 236q162 78 368 78q270 0 432 -166q162 -164 162 -432q0 -181 -49 -344q-47 -160 -145 -291q-115 -156 -277 -238q-156 -78 -369 -78q-268 0 -429.5 164t-161.5 434zM430 612q0 -172 72 -268q70 -94 198 -94 q104 0 184.5 49t137.5 143q57 96 84 205q29 119 29 234q0 174 -72 268q-72 92 -209 92q-176 0 -301 -180q-123 -179 -123 -449zM446 -282.5q0 65.5 33 129.5q31 59 108 137h127q-51 -59 -86 -115q-25 -40 -24 -67q0 -35 22 -54q20 -18 64 -18q37 0 70 8q49 12 75 23 l-26 -152q-78 -18 -92 -20q-41 -6 -76 -6q-94 0 -146 34q-49 35 -49 100.5zM607 1683l34 188h568l-33 -188h-569z" />
<glyph unicode="&#x1ed;" horiz-adv-x="1265" d="M68 444q0 123 41 246q39 115 118 221q86 113 215 176q121 59 275 60q223 0 354 -127q129 -127 129 -346q0 -123 -41 -246q-39 -117 -119 -219q-94 -119 -214.5 -178.5t-280.5 -59.5q-219 0 -350 127q-127 125 -127 346zM403 444q0 -104 46 -161q43 -55 126 -56 q125 0 205 127q82 129 82 322q0 104 -43 159.5t-129 55.5q-125 0 -205 -125q-82 -129 -82 -322zM299 -282.5q0 65.5 33 129.5q31 59 108 137h127q-51 -59 -86 -115q-25 -40 -24 -67q0 -35 22 -54q20 -18 64 -18q37 0 70 8q49 12 75 23l-26 -152q-78 -18 -92 -20 q-41 -6 -76 -6q-94 0 -146 34q-49 35 -49 100.5zM459 1374l34 188h568l-33 -188h-569z" />
<glyph unicode="&#x1ee;" horiz-adv-x="1421" d="M537 1899h156l133 -162l206 162h160l-219 -264h-313zM39 55l49 289q129 -74 260 -111q139 -39 268 -38q139 0 224 53q82 51 100 151q18 102 -47 156q-66 51 -213 51h-170l45 246l334 350h-670l51 291h1100l-45 -250l-422 -434q127 -14 189 -33q106 -33 163 -143 q51 -102 27 -248q-37 -219 -211 -338q-176 -115 -500 -115q-137 0 -272 31q-133 31 -260 92z" />
<glyph unicode="&#x1ef;" horiz-adv-x="1071" d="M-82 -367l51 297q82 -51 178.5 -79.5t184.5 -28.5q137 0 221 53q80 49 98.5 151.5t-47.5 155.5q-66 51 -213 51h-168l43 246l402 385h-510l45 256h878l-43 -250l-450 -434q135 -8 215 -33q109 -35 166 -145q51 -100 26 -246q-41 -223 -211 -336q-176 -117 -467 -116 q-102 0 -204 18q-99 18 -195 55zM381 1626h157l142 -227l219 227h176l-295 -376h-236z" />
<glyph unicode="&#x1f0;" horiz-adv-x="630" d="M-236 -442l41 235h56q92 0 135 45q43 49 63 182l195 1100h324l-195 -1100q-41 -236 -154 -348q-115 -115 -305 -114h-160zM164 1638h158l141 -227l219 227h176l-297 -374h-233z" />
<glyph unicode="&#x1f1;" horiz-adv-x="2852" d="M1483 0l41 238l872 964h-684l51 291h1131l-43 -238l-870 -964h723l-52 -291h-1169zM39 0l262 1493h365q258 0 391 -35q131 -35 217 -115q90 -82 131 -196q45 -123 45 -262q0 -201 -76 -383q-72 -176 -211 -301q-123 -111 -276.5 -156t-483.5 -45h-364zM436 291h125 q242 0 383 151.5t141 407.5q0 174 -92 262q-94 90 -274 90h-121z" />
<glyph unicode="&#x1f2;" horiz-adv-x="2672" d="M1514 0l43 250l628 614h-497l43 256h878l-43 -250l-628 -614h522l-45 -256h-901zM39 0l262 1493h365q258 0 391 -35q131 -35 217 -115q90 -82 131 -196q45 -123 45 -262q0 -201 -76 -383q-72 -176 -211 -301q-123 -111 -276.5 -156t-483.5 -45h-364zM436 291h125 q242 0 383 151.5t141 407.5q0 174 -92 262q-94 90 -274 90h-121z" />
<glyph unicode="&#x1f3;" horiz-adv-x="2406" d="M1303 0l43 250l628 614h-497l43 256h878l-43 -250l-628 -614h522l-45 -256h-901zM68 418q0 125 34 252q33 117 99 221q86 129 184 190q106 66 221 66q100 0 176 -47q74 -47 123 -144l105 600h325l-272 -1556h-326l31 162q-72 -94 -156 -144q-82 -47 -178 -47 q-170 0 -268 119t-98 328zM399 440q0 -104 43 -155q43 -53 123 -54q125 0 203 127t78 332q0 92 -43 146q-43 51 -123 51q-121 0 -201 -125q-80 -127 -80 -322z" />
<glyph unicode="&#x1f4;" horiz-adv-x="1511" d="M700 1637l221 264h252l-286 -264h-187zM68 573q0 184 51 340q51 160 151 289q123 160 293 240q164 78 387 78q123 0 242 -27q117 -27 242 -84l-54 -309q-117 76 -215 106q-109 35 -211 35q-229 0 -376.5 -172t-147.5 -442q0 -180 86 -278.5t240 -98.5q35 0 100 8 q45 6 102 23l52 290h-211l43 258h538l-125 -718q-133 -72 -272 -105q-145 -35 -303 -35q-287 0 -449 162q-163 164 -163 440z" />
<glyph unicode="&#x1f5;" horiz-adv-x="1318" d="M37 -377l49 279q70 -51 152 -80q74 -27 155 -27q162 0 246 76q86 78 117 242l14 77q-78 -98 -158 -145q-78 -45 -174 -45q-172 0 -270 123q-100 125 -100 334q0 111 34 227q31 104 101 213q80 119 182 184q100 63 219 64q109 0 180 -45q70 -43 121 -146l27 166h325 l-170 -973q-53 -303 -223 -446t-475 -143q-88 0 -180 16q-86 15 -172 49zM403 469q0 -104 43 -156q43 -53 123 -53q119 0 199 119q78 117 78 295q0 102 -43 157.5t-123 55.5q-117 0 -197 -119q-80 -121 -80 -299zM559 1260l311 376h264l-395 -376h-180z" />
<glyph unicode="&#x1f6;" horiz-adv-x="2373" d="M41 0l260 1493h348l-100 -569h512l98 569h348l-157 -895q-31 -186 8 -264q39 -80 164 -80t192 80q70 82 101 264l92 522h346l-90 -522q-55 -313 -228 -471q-172 -156 -462.5 -156t-407.5 156q-117 154 -61 471l6 35h-510l-113 -633h-346z" />
<glyph unicode="&#x1f7;" horiz-adv-x="1449" d="M-37 -426l336 1919h354l-32 -184q104 117 200 161q109 49 303 50q200 0 258 -123q45 -98 45 -207q0 -47 -8 -86q-80 -463 -1007 -991l-95 -539h-354zM465 418q535 369 565 547q6 39 6 75q0 70 -28 121q-45 74 -166 74q-88 0 -273 -225z" />
<glyph unicode="&#x1f8;" horiz-adv-x="1540" d="M742 1899h237l129 -264h-159zM39 0l262 1493h387l307 -1034l181 1034h327l-262 -1493h-387l-307 1034l-180 -1034h-328z" />
<glyph unicode="&#x1f9;" horiz-adv-x="1310" d="M57 0l197 1120h324l-31 -164q88 96 178 143.5t188 47.5q139 0 217 -80q74 -76 74 -229q0 -16 -4 -70q-4 -57 -10 -86l-121 -682h-324l103 584q6 29 16 96q6 41 6 63q0 61 -32 99q-31 35 -90 35q-101 0 -172 -86t-99 -240l-96 -551h-324zM533 1636h254l188 -376h-176z" />
<glyph unicode="&#x1fa;" horiz-adv-x="1425" d="M1122 1756l221 264h252l-286 -264h-187zM-121 0l744 1458q-20 33 -35 76q-10 33 -10 82q0 117 73.5 201t182.5 84q106 0 180 -84q76 -86 76 -201q0 -47 -13 -86q-12 -40 -37 -74l234 -1456h-330l-39 272h-536l-133 -272h-357zM500 543h360l-82 575zM717 1616 q0 -53 32.5 -92t84 -39t84 39t32.5 92q0 51 -35 92q-33 39 -81 39q-51 0 -84 -39t-33 -92z" />
<glyph unicode="&#x1fb;" horiz-adv-x="1241" d="M1026 1643l221 264h252l-286 -264h-187zM33 276q0 215 147 328q145 113 430 113h191l4 28q2 10 2 21v10q0 65 -55 98q-57 35 -168 35q-96 0 -193 -22q-88 -20 -180 -70l47 273q104 29 207 43q100 14 219 14q225 0 333.5 -86t108.5 -260q0 -20 -4 -74q-4 -43 -12 -88 l-113 -639h-321l26 166q-80 -102 -167 -148q-90 -47 -193 -47q-143 0 -225 82q-84 84 -84 223zM362 340q0 -61 37 -96q39 -35 101 -35q98 0 165.5 67.5t88.5 186.5l8 41h-156q-123 0 -182 -41q-62 -43 -62 -123zM502 1524q0 120 74 202t182 82q106 0 180 -82 q76 -86 76 -202.5t-76 -202.5q-74 -82 -180 -82q-109 0 -182 82q-74 83 -74 203zM623 1524q0 -61 39 -107q37 -43 96 -43q61 0 96 41q37 43 37 109q0 63 -37 106t-96 43q-61 0 -98 -43t-37 -106z" />
<glyph unicode="&#x1fc;" horiz-adv-x="1998" d="M1079 1637l221 264h252l-286 -264h-187zM-143 0l839 1493h1280l-53 -291h-588l-47 -278h553l-51 -291h-553l-59 -342h606l-49 -291h-957l64 350h-445l-194 -350h-346zM549 627h340l106 610h-108z" />
<glyph unicode="&#x1fd;" horiz-adv-x="1929" d="M33 274q0 217 147 330q145 113 434 113h185l6 28q2 8 2 21v10q0 65 -55 98q-57 35 -164 35q-100 0 -197 -22q-86 -20 -178 -70l49 273q106 29 205 43q94 14 195 14q133 0 223 -37q88 -37 139 -113q84 76 180 113q94 37 213 37q201 0 322 -123q119 -121 119 -322 q0 -31 -5 -92q-2 -31 -14 -92l-12 -57h-752q0 -2 -1 -7t-1 -10v-18q0 -109 60 -164q55 -53 176 -53q102 0 213 33q104 31 237 102l-49 -278q-104 -45 -235 -72q-106 -23 -238 -23q-158 0 -262 52q-109 53 -166 155q-102 -102 -215 -155q-109 -51 -238 -52q-152 0 -237.5 80 t-85.5 223zM362 340q0 -61 37 -96q39 -35 101 -35q98 0 165.5 67.5t88.5 186.5l8 41h-156q-123 0 -182 -41q-62 -43 -62 -123zM1118 682h418q4 16 4 27v26q0 80 -43 127t-117 47q-96 0 -161.5 -57t-100.5 -170zM834 1260l311 376h264l-395 -376h-180z" />
<glyph unicode="&#x1fe;" horiz-adv-x="1564" d="M739 1637l221 264h252l-286 -264h-187zM-86 45l227 213q-37 76 -55 152q-18 80 -18 159q0 180 49 344q49 162 145 293q117 160 275 236q162 78 368 78q135 0 238 -39q104 -40 184 -117l234 215l92 -123l-234 -213q39 -76 62 -158q18 -68 18 -165q0 -181 -49 -345 q-47 -160 -145 -290q-119 -160 -277 -236q-162 -78 -369 -78q-127 0 -237 41q-108 40 -191 123l-227 -213zM432 612q0 -4 4 -73v-7l639 596q-37 57 -90 84q-57 29 -129 29q-181 0 -301 -178q-123 -183 -123 -451zM485 371q35 -59 90.5 -90t124.5 -31q104 0 184.5 49 t137.5 143q51 86 84 207q31 113 31 230q0 27 -7 77q0 4 -1 9l-1 4z" />
<glyph unicode="&#x1ff;" horiz-adv-x="1265" d="M-33 10l170 164q-35 61 -53 127q-16 59 -16 145q0 129 38 246q39 115 121 219q90 119 215 176q129 59 279 60q90 0 170 -23q74 -20 139 -69l172 168l88 -111l-164 -162q35 -55 56 -129q18 -68 18 -147q0 -123 -41 -246q-39 -117 -119 -219q-90 -115 -217 -176.5 t-278 -61.5q-96 0 -176 25q-76 25 -140 74l-174 -172zM403 438l410 404q-23 27 -49 37q-31 12 -74 12q-125 0 -201 -119q-78 -121 -86 -334zM449 283q18 -23 53 -41q29 -14 73 -15q126 0 203 123q78 125 84 342zM522 1262l311 376h264l-395 -376h-180z" />
<glyph unicode="&#x200;" horiz-adv-x="1425" d="M-121 0l760 1493h397l238 -1493h-330l-39 272h-536l-133 -272h-357zM500 543h360l-82 575zM526 1905h240l129 -264h-160zM848 1905h237l129 -264h-160z" />
<glyph unicode="&#x201;" horiz-adv-x="1241" d="M33 276q0 215 147 328q145 113 430 113h191l4 28q2 10 2 21v10q0 65 -55 98q-57 35 -168 35q-96 0 -193 -22q-88 -20 -180 -70l47 273q104 29 207 43q100 14 219 14q225 0 333.5 -86t108.5 -260q0 -20 -4 -74q-4 -43 -12 -88l-113 -639h-321l26 166q-80 -102 -167 -148 q-90 -47 -193 -47q-143 0 -225 82q-84 84 -84 223zM362 340q0 -61 37 -96q39 -35 101 -35q98 0 165.5 67.5t88.5 186.5l8 41h-156q-123 0 -182 -41q-62 -43 -62 -123zM373 1638h209l127 -376h-158zM713 1638h194l109 -376h-145z" />
<glyph unicode="&#x202;" horiz-adv-x="1425" d="M-121 0l760 1493h397l238 -1493h-330l-39 272h-536l-133 -272h-357zM500 543h360l-82 575zM608 1676q34 129 123 196q88 68 224 68q123 0 188 -68q66 -70 66 -192v-4h-130q-8 61 -45 88q-35 27 -106 26q-66 0 -115 -30q-47 -29 -67 -84h-138z" />
<glyph unicode="&#x203;" horiz-adv-x="1241" d="M33 276q0 215 147 328q145 113 430 113h191l4 28q2 10 2 21v10q0 65 -55 98q-57 35 -168 35q-96 0 -193 -22q-88 -20 -180 -70l47 273q104 29 207 43q100 14 219 14q225 0 333.5 -86t108.5 -260q0 -20 -4 -74q-4 -43 -12 -88l-113 -639h-321l26 166q-80 -102 -167 -148 q-90 -47 -193 -47q-143 0 -225 82q-84 84 -84 223zM362 340q0 -61 37 -96q39 -35 101 -35q98 0 165.5 67.5t88.5 186.5l8 41h-156q-123 0 -182 -41q-62 -43 -62 -123zM424 1309q31 144 123 221q90 76 234 76q126 0 190 -62q63 -61 63 -182v-33q0 -8 -4 -20h-127v10 q0 66 -39 98q-41 35 -110 35q-78 0 -121 -35q-49 -39 -72 -108h-137z" />
<glyph unicode="&#x204;" horiz-adv-x="1257" d="M39 0l262 1493h934l-51 -291h-588l-49 -278h555l-53 -291h-553l-60 -342h606l-49 -291h-954zM451 1905h240l129 -264h-160zM773 1905h237l129 -264h-160z" />
<glyph unicode="&#x205;" horiz-adv-x="1249" d="M68 434q0 131 38.5 248t120.5 221q94 121 222 182q129 61 286 62q205 0 326 -121q119 -119 119 -326q0 -55 -4 -84q-10 -74 -17 -98l-10 -57h-756v-17q0 -4 -1 -10t-1 -8q0 -109 60 -164q55 -53 178 -53q98 0 215 35q115 35 235 100l-49 -278q-106 -45 -233 -72 q-106 -23 -238 -23q-233 0 -364 121q-127 119 -127 342zM438 682h416q4 16 4 27q0 4 1 13t1 13q0 80 -43 127t-117 47q-96 0 -161.5 -57t-100.5 -170zM416 1638h209l127 -376h-158zM756 1638h194l109 -376h-145z" />
<glyph unicode="&#x206;" horiz-adv-x="1257" d="M39 0l262 1493h934l-51 -291h-588l-49 -278h555l-53 -291h-553l-60 -342h606l-49 -291h-954zM532 1676q34 129 123 196q88 68 224 68q123 0 188 -68q66 -70 66 -192v-4h-130q-8 61 -45 88q-35 27 -106 26q-66 0 -115 -30q-47 -29 -67 -84h-138z" />
<glyph unicode="&#x207;" horiz-adv-x="1249" d="M68 434q0 131 38.5 248t120.5 221q94 121 222 182q129 61 286 62q205 0 326 -121q119 -119 119 -326q0 -55 -4 -84q-10 -74 -17 -98l-10 -57h-756v-17q0 -4 -1 -10t-1 -8q0 -109 60 -164q55 -53 178 -53q98 0 215 35q115 35 235 100l-49 -278q-106 -45 -233 -72 q-106 -23 -238 -23q-233 0 -364 121q-127 119 -127 342zM438 682h416q4 16 4 27q0 4 1 13t1 13q0 80 -43 127t-117 47q-96 0 -161.5 -57t-100.5 -170zM467 1309q31 144 123 221q90 76 234 76q126 0 190 -62q63 -61 63 -182v-33q0 -8 -4 -20h-127v10q0 66 -39 98 q-41 35 -110 35q-78 0 -121 -35q-49 -39 -72 -108h-137z" />
<glyph unicode="&#x208;" horiz-adv-x="684" d="M39 0l262 1493h346l-262 -1493h-346zM117 1905h240l129 -264h-160zM439 1905h237l129 -264h-160z" />
<glyph unicode="&#x209;" horiz-adv-x="630" d="M111 1636h209l127 -376h-158zM451 1636h194l109 -376h-145zM57 0l197 1120h324l-197 -1120h-324z" />
<glyph unicode="&#x20a;" horiz-adv-x="684" d="M39 0l262 1493h346l-262 -1493h-346zM223 1676q34 129 123 196q88 68 224 68q123 0 188 -68q66 -70 66 -192v-4h-130q-8 61 -45 88q-35 27 -106 26q-66 0 -115 -30q-47 -29 -67 -84h-138z" />
<glyph unicode="&#x20b;" horiz-adv-x="630" d="M57 0l197 1120h324l-197 -1120h-324zM160 1309q31 144 123 221q90 76 234 76q126 0 190 -62q63 -61 63 -182v-33q0 -8 -4 -20h-127v10q0 66 -39 98q-41 35 -110 35q-78 0 -121 -35q-49 -39 -72 -108h-137z" />
<glyph unicode="&#x20c;" horiz-adv-x="1564" d="M68 569q0 180 49 344q49 162 145 293q115 160 275 236q162 78 368 78q270 0 432 -166q162 -164 162 -432q0 -181 -49 -344q-47 -160 -145 -291q-115 -156 -277 -238q-156 -78 -369 -78q-268 0 -429.5 164t-161.5 434zM430 612q0 -172 72 -268q70 -94 198 -94 q104 0 184.5 49t137.5 143q57 96 84 205q29 119 29 234q0 174 -72 268q-72 92 -209 92q-176 0 -301 -180q-123 -179 -123 -449zM627 1905h240l129 -264h-160zM949 1905h237l129 -264h-160z" />
<glyph unicode="&#x20d;" horiz-adv-x="1265" d="M68 444q0 123 41 246q39 115 118 221q86 113 215 176q121 59 275 60q223 0 354 -127q129 -127 129 -346q0 -123 -41 -246q-39 -117 -119 -219q-94 -119 -214.5 -178.5t-280.5 -59.5q-219 0 -350 127q-127 125 -127 346zM403 444q0 -104 46 -161q43 -55 126 -56 q125 0 205 127q82 129 82 322q0 104 -43 159.5t-129 55.5q-125 0 -205 -125q-82 -129 -82 -322zM385 1638h209l127 -376h-158zM725 1638h194l109 -376h-145z" />
<glyph unicode="&#x20e;" horiz-adv-x="1564" d="M68 569q0 180 49 344q49 162 145 293q115 160 275 236q162 78 368 78q270 0 432 -166q162 -164 162 -432q0 -181 -49 -344q-47 -160 -145 -291q-115 -156 -277 -238q-156 -78 -369 -78q-268 0 -429.5 164t-161.5 434zM430 612q0 -172 72 -268q70 -94 198 -94 q104 0 184.5 49t137.5 143q57 96 84 205q29 119 29 234q0 174 -72 268q-72 92 -209 92q-176 0 -301 -180q-123 -179 -123 -449zM702 1676q34 129 123 196q88 68 224 68q123 0 188 -68q66 -70 66 -192v-4h-130q-8 61 -45 88q-35 27 -106 26q-66 0 -115 -30q-47 -29 -67 -84 h-138z" />
<glyph unicode="&#x20f;" horiz-adv-x="1265" d="M68 444q0 123 41 246q39 115 118 221q86 113 215 176q121 59 275 60q223 0 354 -127q129 -127 129 -346q0 -123 -41 -246q-39 -117 -119 -219q-94 -119 -214.5 -178.5t-280.5 -59.5q-219 0 -350 127q-127 125 -127 346zM403 444q0 -104 46 -161q43 -55 126 -56 q125 0 205 127q82 129 82 322q0 104 -43 159.5t-129 55.5q-125 0 -205 -125q-82 -129 -82 -322zM434 1309q31 144 123 221q90 76 234 76q126 0 190 -62q63 -61 63 -182v-33q0 -8 -4 -20h-127v10q0 66 -39 98q-41 35 -110 35q-78 0 -121 -35q-49 -39 -72 -108h-137z" />
<glyph unicode="&#x210;" horiz-adv-x="1417" d="M39 0l262 1493h512q223 0 336 -92q115 -92 115 -271q0 -180 -90 -299q-88 -115 -244 -133q71 -15 117 -80q49 -70 81 -194l113 -424h-344l-100 371q-31 111 -74 153q-41 41 -127 41h-111l-100 -565h-346zM530 831h148q117 0 178 62q59 59 59 178q0 76 -41 109 q-45 35 -133 34h-143zM426 1905h240l129 -264h-160zM748 1905h237l129 -264h-160z" />
<glyph unicode="&#x211;" horiz-adv-x="907" d="M57 0l197 1120h324l-35 -192q63 106 159 162q98 57 211 57q27 0 41 -2q22 -3 50 -6l-56 -324q-31 20 -74 33q-33 10 -88 10q-123 0 -204 -88q-84 -90 -111 -254l-90 -516h-324zM336 1638h209l127 -376h-158zM676 1638h194l109 -376h-145z" />
<glyph unicode="&#x212;" horiz-adv-x="1417" d="M39 0l262 1493h512q223 0 336 -92q115 -92 115 -271q0 -180 -90 -299q-88 -115 -244 -133q71 -15 117 -80q49 -70 81 -194l113 -424h-344l-100 371q-31 111 -74 153q-41 41 -127 41h-111l-100 -565h-346zM530 831h148q117 0 178 62q59 59 59 178q0 76 -41 109 q-45 35 -133 34h-143zM514 1676q34 129 123 196q88 68 224 68q123 0 188 -68q66 -70 66 -192v-4h-130q-8 61 -45 88q-35 27 -106 26q-66 0 -115 -30q-47 -29 -67 -84h-138z" />
<glyph unicode="&#x213;" horiz-adv-x="907" d="M57 0l197 1120h324l-35 -192q63 106 159 162q98 57 211 57q27 0 41 -2q22 -3 50 -6l-56 -324q-31 20 -74 33q-33 10 -88 10q-123 0 -204 -88q-84 -90 -111 -254l-90 -516h-324zM387 1309q31 144 123 221q90 76 234 76q126 0 190 -62q63 -61 63 -182v-33q0 -8 -4 -20h-127 v10q0 66 -39 98q-41 35 -110 35q-78 0 -121 -35q-49 -39 -72 -108h-137z" />
<glyph unicode="&#x214;" horiz-adv-x="1495" d="M125 414q0 23 4 80q2 25 14 104l158 895h346l-158 -895q-10 -51 -12 -84q-4 -49 -4 -65q0 -94 47 -146q46 -49 142 -49q127 0 192.5 78t99.5 266l158 895h346l-158 -895q-59 -332 -221 -479q-163 -147 -467 -148q-238 0 -362.5 113t-124.5 330zM526 1905h240l129 -264 h-160zM848 1905h237l129 -264h-160z" />
<glyph unicode="&#x215;" horiz-adv-x="1310" d="M111 281q0 20 4 73q2 23 10 82l119 684h321l-100 -583q-4 -20 -9 -52l-7 -45q-6 -39 -7 -63q0 -61 33 -98q31 -35 88 -35q101 0 172 86q74 90 101 239l96 551h323l-194 -1120h-326l31 164q-80 -96 -174 -146q-88 -47 -193 -47q-137 0 -213 80q-75 78 -75 230zM408 1638 h209l127 -376h-158zM748 1638h194l109 -376h-145z" />
<glyph unicode="&#x216;" horiz-adv-x="1495" d="M125 414q0 23 4 80q2 25 14 104l158 895h346l-158 -895q-10 -51 -12 -84q-4 -49 -4 -65q0 -94 47 -146q46 -49 142 -49q127 0 192.5 78t99.5 266l158 895h346l-158 -895q-59 -332 -221 -479q-163 -147 -467 -148q-238 0 -362.5 113t-124.5 330zM608 1676q34 129 123 196 q88 68 224 68q123 0 188 -68q66 -70 66 -192v-4h-130q-8 61 -45 88q-35 27 -106 26q-66 0 -115 -30q-47 -29 -67 -84h-138z" />
<glyph unicode="&#x217;" horiz-adv-x="1310" d="M111 281q0 20 4 73q2 23 10 82l119 684h321l-100 -583q-4 -20 -9 -52l-7 -45q-6 -39 -7 -63q0 -61 33 -98q31 -35 88 -35q101 0 172 86q74 90 101 239l96 551h323l-194 -1120h-326l31 164q-80 -96 -174 -146q-88 -47 -193 -47q-137 0 -213 80q-75 78 -75 230zM457 1309 q31 144 123 221q90 76 234 76q126 0 190 -62q63 -61 63 -182v-33q0 -8 -4 -20h-127v10q0 66 -39 98q-41 35 -110 35q-78 0 -121 -35q-49 -39 -72 -108h-137z" />
<glyph unicode="&#x218;" horiz-adv-x="1325" d="M252 -483l133 297h291l-252 -297h-172zM29 78l55 325q125 -80 231 -114q121 -39 224 -39q121 0 192 53q76 57 76 139q0 55 -35 86t-145 62l-142 39q-154 43 -233 137q-76 90 -76 240q0 233 160 374q158 139 432 140q113 0 225 -19q114 -18 234 -55l-58 -316 q-104 57 -200 84q-94 27 -193 27q-131 0 -202.5 -45t-71.5 -125q0 -52 30 -80q31 -27 134 -55l141 -39q178 -49 262 -145q82 -94 82 -244q0 -242 -166 -389.5t-444 -147.5q-135 0 -260 27q-129 28 -252 80z" />
<glyph unicode="&#x219;" horiz-adv-x="1095" d="M119 -483l133 297h291l-252 -297h-172zM18 43l50 281q84 -57 186 -86t203 -29q102 0 153.5 26.5t51.5 79.5q0 33 -29 56q-23 18 -119 41l-59 12q-170 39 -246 119q-74 77 -74 215q0 188 127 288.5t365 100.5q96 0 204 -17q104 -16 201 -45l-47 -278q-102 53 -188 76 q-100 27 -179 26q-94 0 -147 -28q-51 -27 -51 -78q0 -29 29 -47q25 -16 112 -39l60 -12q197 -47 274.5 -119t77.5 -201q0 -195 -137 -305q-135 -109 -385 -109q-106 0 -213 19q-124 20 -220 53z" />
<glyph unicode="&#x21a;" horiz-adv-x="1255" d="M168 -483l133 297h291l-252 -297h-172zM88 1202l51 291h1239l-51 -291h-446l-211 -1202h-346l211 1202h-447z" />
<glyph unicode="&#x21b;" horiz-adv-x="880" d="M82 -483l133 297h291l-252 -297h-172zM80 864l43 256h162l55 318h324l-56 -318h330l-45 -256h-332l-82 -475q-4 -20 -4 -27q0 -4 -1 -11t-1 -9q0 -45 26.5 -65.5t94.5 -20.5h166l-45 -256h-273q-143 0 -221 67.5t-78 196.5q0 18 4 60q4 45 9 65l82 475h-158z" />
<glyph unicode="&#x21c;" horiz-adv-x="1271" d="M-84 -430l53 283q6 0 14.5 3t18.5 5q6 2 28.5 8t41.5 12q78 25 100 33q10 4 32.5 12l43 15.5t39.5 15.5l123 55q23 10 112 68q61 39 99 76q47 47 67 88q25 49 25 98q0 51 -25 88q-25 35 -61 51q-39 16 -74 17q-53 0 -115 -25l-211 -86l49 254l230 96q88 37 143 76 q61 43 99 80q35 35 57 80q25 47 29 71q6 31 6 62q0 43 -19 74q-18 33 -49 47q-35 16 -61 22q-31 6 -66 6q-135 0 -379 -155l49 256q248 164 459 164q90 0 168 -22.5t123 -55.5t78 -82q31 -45 43 -94q10 -39 10 -97q0 -33 -6 -75q-6 -39 -31 -99q-20 -49 -61 -110 q-39 -59 -98.5 -112.5t-145.5 -98.5q108 -31 166 -111q55 -76 55 -184q0 -34 -6 -68q-23 -106 -76 -190q-57 -88 -145 -162q-84 -70 -227 -139q-145 -72 -308 -127q-178 -62 -397 -123z" />
<glyph unicode="&#x21d;" horiz-adv-x="1118" d="M-86 -432l43 227q14 4 51 12l84 25q47 12 108.5 34.5l114.5 43.5q57 23 113 55q51 31 96 66q41 33 68 75q25 41 24 82q0 61 -45 96t-102 35q-47 0 -100 -20l-189 -70l39 207l205 76q66 25 129 63q53 33 86 66t49 64q18 35 25 57q6 25 6 47q0 35 -19 59q-20 29 -45 39 q-35 16 -57 21q-29 6 -57 6q-125 0 -338 -127l39 207q211 133 432 133q74 0 143 -17q61 -14 105 -40q37 -23 67 -64q27 -35 39 -74q12 -37 12 -82q0 -119 -84 -231q-86 -115 -219 -178q63 -20 103 -45q41 -27 63 -62q20 -33 31 -65q10 -35 10 -68q0 -25 -6 -53 q-78 -410 -1024 -600z" />
<glyph unicode="&#x21e;" horiz-adv-x="1540" d="M39 0l262 1493h346l-100 -569h512l98 569h346l-262 -1493h-344l109 633h-510l-111 -633h-346zM672 1897h156l133 -162l206 162h160l-219 -264h-313z" />
<glyph unicode="&#x21f;" horiz-adv-x="1310" d="M57 0l271 1556h323l-104 -600q88 96 178 143.5t188 47.5q139 0 217 -80q74 -76 74 -229q0 -16 -4 -70q-4 -57 -10 -86l-121 -682h-324l103 584q6 29 16 96q6 41 6 63q0 61 -32 99q-31 35 -90 35q-101 0 -172 -86t-99 -240l-96 -551h-324zM250 1897h156l133 -162l206 162 h160l-219 -264h-313z" />
<glyph unicode="&#x220;" horiz-adv-x="1540" d="M59 0l260 1493h334l-39 -227q117 129 238 192q117 61 248 62q203 0 282 -158q82 -160 27 -459l-233 -1329h-324l195 1116q31 180 36 266q4 74 -12 109q-23 49 -65 72q-47 25 -109 24q-141 0 -244 -114q-98 -113 -135 -318l-127 -729h-332z" />
<glyph unicode="&#x221;" horiz-adv-x="1591" d="M57 559q45 258 195 422q147 166 336 166q104 0 176 -47q74 -47 123 -144l102 600h326l-182 -1042q86 92 180 92q84 0 121 -55q45 -66 16 -223q-27 -158 -104 -248q-88 -106 -236 -107q-74 0 -141 27q-46 -74 -86 -154l-135 72l88 168q-10 14 -21 33q-55 -72 -121 -105 q-86 -43 -313 -43q-188 0 -277 164q-94 166 -47 424zM391 559q-29 -160 12 -244t144 -84q104 0 172 84q70 84 96.5 244t-10.5 244q-41 84 -143 84q-104 0 -173 -84q-69 -82 -98 -244zM1130 246q16 -16 39 -17q119 0 136 90q6 25 -21 25q-68 0 -113 -51z" />
<glyph unicode="&#x222;" horiz-adv-x="1490" d="M45 330q0 47 8 90q25 141 127 237q100 94 271 138q-145 31 -201 116q-47 72 -47 142q0 20 2 30q18 104 188 207q119 70 404 78l-29 -154q-98 2 -156 -34q-86 -57 -94 -115v-23q0 -57 53 -96q52 -37 203 -37q121 0 217 58q82 49 103 168q4 33 4 45q0 74 -49 110 q-57 45 -146 56l33 174q252 -9 375 -99q106 -80 106 -217q0 -35 -6 -71q-20 -125 -111 -211q-94 -88 -245 -127q160 -43 225 -138q47 -66 47 -161q0 -49 -6 -76q-37 -221 -219 -336q-176 -113 -491.5 -113t-454.5 113q-111 89 -111 246zM385 395q0 -77 55 -123 q70 -59 211 -59q145 0 236 59q86 59 104 168q4 33 4 47q0 78 -51 123q-63 57 -211 58q-143 0 -233 -59.5t-111 -168.5q-4 -33 -4 -45z" />
<glyph unicode="&#x223;" horiz-adv-x="1212" d="M41 313q0 57 8 107q25 139 113 237q86 94 229 138q-115 41 -162 127q-33 57 -32 135q0 23 8 76q23 119 76 190l301 -104q-43 -45 -56 -125q-6 -28 -6 -50q0 -51 27 -88q35 -47 119 -47t133 47q49 45 67 138q4 33 4 49q0 49 -16 76l338 104q18 -49 18 -106q0 -45 -8 -84 q-20 -121 -100 -211q-78 -88 -205 -127q123 -39 180 -138q37 -63 37 -149q0 -47 -8 -88q-41 -223 -192.5 -336t-413.5 -113t-375 113q-84 84 -84 229zM375 377q0 -63 28 -105q43 -59 140 -59q94 0 157 59q61 57 82 168q6 37 6 66q0 63 -28 104q-39 57 -137 58 q-94 0 -160 -60q-61 -55 -80 -168q-8 -45 -8 -63z" />
<glyph unicode="&#x224;" horiz-adv-x="1335" d="M-8 0l41 233l889 969h-701l51 291h1131l-41 -233l-891 -969h741l-51 -291q-53 -268 -219 -377q-102 -66 -237 -65h-254l41 235h149q92 0 135 45q37 43 62 162h-846z" />
<glyph unicode="&#x225;" horiz-adv-x="1071" d="M23 0l45 250l639 614h-510l45 256h878l-43 -250l-639 -614h533l-45 -256q-53 -268 -219 -377q-102 -66 -240 -65h-254l43 235h150q90 0 133 45q39 43 61 162h-577z" />
<glyph unicode="&#x226;" horiz-adv-x="1425" d="M-121 0l760 1493h397l238 -1493h-330l-39 272h-536l-133 -272h-357zM500 543h360l-82 575zM747 1652l45 246h246l-43 -246h-248z" />
<glyph unicode="&#x227;" horiz-adv-x="1241" d="M33 276q0 215 147 328q145 113 430 113h191l4 28q2 10 2 21v10q0 65 -55 98q-57 35 -168 35q-96 0 -193 -22q-88 -20 -180 -70l47 273q104 29 207 43q100 14 219 14q225 0 333.5 -86t108.5 -260q0 -20 -4 -74q-4 -43 -12 -88l-113 -639h-321l26 166q-80 -102 -167 -148 q-90 -47 -193 -47q-143 0 -225 82q-84 84 -84 223zM362 340q0 -61 37 -96q39 -35 101 -35q98 0 165.5 67.5t88.5 186.5l8 41h-156q-123 0 -182 -41q-62 -43 -62 -123zM592 1339l45 246h246l-43 -246h-248z" />
<glyph unicode="&#x228;" horiz-adv-x="1257" d="M39 0l262 1493h934l-51 -291h-588l-49 -278h555l-53 -291h-553l-60 -342h606l-49 -291h-954zM213 -367l27 156q35 -18 71 -27q33 -8 72 -8q57 0 92 28.5t35 75.5q0 27 -12 60q-10 31 -41 90h129q29 -43 47 -96q16 -45 16 -86q0 -104 -67 -162q-66 -57 -193 -57 q-45 0 -88 6q-25 4 -88 20z" />
<glyph unicode="&#x229;" horiz-adv-x="1249" d="M68 434q0 131 38.5 248t120.5 221q94 121 222 182q129 61 286 62q205 0 326 -121q119 -119 119 -326q0 -55 -4 -84q-10 -74 -17 -98l-10 -57h-756v-17q0 -4 -1 -10t-1 -8q0 -109 60 -164q55 -53 178 -53q98 0 215 35q115 35 235 100l-49 -278q-106 -45 -233 -72 q-106 -23 -238 -23q-233 0 -364 121q-127 119 -127 342zM438 682h416q4 16 4 27q0 4 1 13t1 13q0 80 -43 127t-117 47q-96 0 -161.5 -57t-100.5 -170zM209 -375l27 156q35 -18 71 -27q33 -8 72 -8q57 0 92 28.5t35 75.5q0 27 -12 60q-10 31 -41 90h129q29 -43 47 -96 q16 -45 16 -86q0 -104 -67 -162q-66 -57 -193 -57q-45 0 -88 6q-25 4 -88 20z" />
<glyph unicode="&#x22a;" horiz-adv-x="1564" d="M730 1941l34 188h568l-33 -188h-569zM674 1624l41 246h213l-43 -246h-211zM1028 1624l41 246h215l-45 -246h-211zM68 569q0 180 49 344q49 162 145 293q115 160 275 236q162 78 368 78q270 0 432 -166q162 -164 162 -432q0 -181 -49 -344q-47 -160 -145 -291 q-115 -156 -277 -238q-156 -78 -369 -78q-268 0 -429.5 164t-161.5 434zM430 612q0 -172 72 -268q70 -94 198 -94q104 0 184.5 49t137.5 143q57 96 84 205q29 119 29 234q0 174 -72 268q-72 92 -209 92q-176 0 -301 -180q-123 -179 -123 -449z" />
<glyph unicode="&#x22b;" horiz-adv-x="1265" d="M68 444q0 123 41 246q39 115 118 221q86 113 215 176q121 59 275 60q223 0 354 -127q129 -127 129 -346q0 -123 -41 -246q-39 -117 -119 -219q-94 -119 -214.5 -178.5t-280.5 -59.5q-219 0 -350 127q-127 125 -127 346zM403 444q0 -104 46 -161q43 -55 126 -56 q125 0 205 127q82 129 82 322q0 104 -43 159.5t-129 55.5q-125 0 -205 -125q-82 -129 -82 -322zM455 1339l41 246h215l-45 -246h-211zM811 1339l43 246h213l-45 -246h-211zM502 1683l34 188h568l-33 -188h-569z" />
<glyph unicode="&#x22c;" horiz-adv-x="1564" d="M635 1602q20 127 82 196q59 70 143 70q37 0 64 -12q33 -14 59 -39l47 -41q18 -14 33 -21q15 -6 31 -6q33 0 57 31q23 29 33 88h125q-25 -131 -82 -197q-59 -70 -144 -69q-35 0 -63 12q-31 14 -62 39l-45 37q-27 23 -36 26q-15 6 -31 6q-29 0 -55 -32q-23 -29 -33 -88 h-123zM724 1941l34 188h568l-33 -188h-569zM68 569q0 180 49 344q49 162 145 293q115 160 275 236q162 78 368 78q270 0 432 -166q162 -164 162 -432q0 -181 -49 -344q-47 -160 -145 -291q-115 -156 -277 -238q-156 -78 -369 -78q-268 0 -429.5 164t-161.5 434zM430 612 q0 -172 72 -268q70 -94 198 -94q104 0 184.5 49t137.5 143q57 96 84 205q29 119 29 234q0 174 -72 268q-72 92 -209 92q-176 0 -301 -180q-123 -179 -123 -449z" />
<glyph unicode="&#x22d;" horiz-adv-x="1265" d="M68 444q0 123 41 246q39 115 118 221q86 113 215 176q121 59 275 60q223 0 354 -127q129 -127 129 -346q0 -123 -41 -246q-39 -117 -119 -219q-94 -119 -214.5 -178.5t-280.5 -59.5q-219 0 -350 127q-127 125 -127 346zM403 444q0 -104 46 -161q43 -55 126 -56 q125 0 205 127q82 129 82 322q0 104 -43 159.5t-129 55.5q-125 0 -205 -125q-82 -129 -82 -322zM420 1309q25 139 82 211q57 74 143 73q29 0 64 -14q29 -12 63 -43l47 -43q12 -10 33 -23q14 -8 29 -8q33 0 57 33q23 33 33 96h125q-25 -139 -82 -211q-57 -74 -144 -73 q-29 0 -57 12q-31 14 -68 45l-45 37l-8 8q-31 29 -61 29q-29 0 -54 -35q-23 -33 -32 -94h-125zM502 1683l34 188h568l-33 -188h-569z" />
<glyph unicode="&#x22e;" horiz-adv-x="1564" d="M68 569q0 180 49 344q49 162 145 293q115 160 275 236q162 78 368 78q270 0 432 -166q162 -164 162 -432q0 -181 -49 -344q-47 -160 -145 -291q-115 -156 -277 -238q-156 -78 -369 -78q-268 0 -429.5 164t-161.5 434zM430 612q0 -172 72 -268q70 -94 198 -94 q104 0 184.5 49t137.5 143q57 96 84 205q29 119 29 234q0 174 -72 268q-72 92 -209 92q-176 0 -301 -180q-123 -179 -123 -449zM754 1655l40 246h248l-43 -246h-245z" />
<glyph unicode="&#x22f;" horiz-adv-x="1265" d="M68 444q0 123 41 246q39 115 118 221q86 113 215 176q121 59 275 60q223 0 354 -127q129 -127 129 -346q0 -123 -41 -246q-39 -117 -119 -219q-94 -119 -214.5 -178.5t-280.5 -59.5q-219 0 -350 127q-127 125 -127 346zM403 444q0 -104 46 -161q43 -55 126 -56 q125 0 205 127q82 129 82 322q0 104 -43 159.5t-129 55.5q-125 0 -205 -125q-82 -129 -82 -322zM614 1339l45 246h246l-43 -246h-248z" />
<glyph unicode="&#x230;" horiz-adv-x="1564" d="M838 1624l40 246h248l-43 -246h-245zM732 1941l34 188h568l-33 -188h-569zM68 569q0 180 49 344q49 162 145 293q115 160 275 236q162 78 368 78q270 0 432 -166q162 -164 162 -432q0 -181 -49 -344q-47 -160 -145 -291q-115 -156 -277 -238q-156 -78 -369 -78 q-268 0 -429.5 164t-161.5 434zM430 612q0 -172 72 -268q70 -94 198 -94q104 0 184.5 49t137.5 143q57 96 84 205q29 119 29 234q0 174 -72 268q-72 92 -209 92q-176 0 -301 -180q-123 -179 -123 -449z" />
<glyph unicode="&#x231;" horiz-adv-x="1265" d="M68 444q0 123 41 246q39 115 118 221q86 113 215 176q121 59 275 60q223 0 354 -127q129 -127 129 -346q0 -123 -41 -246q-39 -117 -119 -219q-94 -119 -214.5 -178.5t-280.5 -59.5q-219 0 -350 127q-127 125 -127 346zM403 444q0 -104 46 -161q43 -55 126 -56 q125 0 205 127q82 129 82 322q0 104 -43 159.5t-129 55.5q-125 0 -205 -125q-82 -129 -82 -322zM614 1339l45 246h246l-43 -246h-248zM482 1683l34 188h568l-33 -188h-569z" />
<glyph unicode="&#x232;" horiz-adv-x="1333" d="M117 1493h346l227 -553l402 553h399l-664 -870l-108 -623h-346l108 623zM492 1683l34 188h568l-33 -188h-569z" />
<glyph unicode="&#x233;" horiz-adv-x="1200" d="M0 -442l33 235h102q82 0 123 29q45 33 78 104l29 60l-242 1134h303l137 -776l359 776h344l-637 -1226q-109 -207 -199 -271q-94 -66 -235 -65h-195zM420 1374l34 188h568l-33 -188h-569z" />
<glyph unicode="&#x234;" horiz-adv-x="905" d="M59 -82l88 168q-82 115 -18 473l174 997h324l-183 -1042q84 92 181 92q78 0 114 -49q53 -68 23 -229q-27 -160 -103 -250q-86 -104 -237 -105q-78 0 -141 27q-46 -74 -86 -154zM455 246q16 -16 39 -17q119 0 135 90q6 25 -21 25q-68 0 -112 -51z" />
<glyph unicode="&#x235;" horiz-adv-x="1595" d="M68 0l196 1120h322l-29 -164q86 94 180 144q90 47 189 47q176 0 245 -119q68 -121 29 -346l-29 -168q86 92 181 92q74 0 110 -43q57 -63 27 -235q-35 -176 -115 -262q-86 -92 -225 -93q-78 0 -141 27q-46 -74 -86 -154l-136 72l88 168q-86 120 -24 436q27 143 29 201 q3 55 -7 80q-10 31 -43 55q-27 18 -69 19q-100 0 -174 -86t-99 -240l-98 -551h-321zM1180 246q20 -16 41 -17q123 2 135 90q4 25 -21 25q-63 2 -114 -51z" />
<glyph unicode="&#x236;" horiz-adv-x="942" d="M63 864l46 256h159l56 318h321l-55 -318h332l-43 -256h-334l-62 -356q92 96 189 96q82 0 119 -51q47 -66 18 -227q-33 -162 -100 -246q-86 -109 -240 -109q-78 0 -141 27q-25 -39 -86 -154l-136 72l80 152q-12 12 -18 20q-66 90 -29 301l84 475h-160zM487 256 q20 -16 41 -16q121 2 134 90q3 25 -19 24q-63 2 -115 -51z" />
<glyph unicode="&#x237;" horiz-adv-x="630" d="M-236 -442l41 235h56q90 0 133 45q45 47 65 182l195 1100h324l-195 -1100q-41 -236 -154 -348q-115 -115 -305 -114h-160z" />
<glyph unicode="&#x238;" horiz-adv-x="2004" d="M47 559q45 258 195 422q152 166 333 166q104 0 177 -47q76 -49 122 -144l105 600h321h3l-105 -598q83 95 172 142q90 47 195 47q184 0 276 -166q92 -162 45 -422q-47 -264 -192 -424q-150 -164 -336 -164q-102 0 -178 47q-72 47 -121 142l-29 -160h-323l28 162 q-84 -100 -172 -145.5t-192 -45.5q-188 0 -279 164q-92 162 -45 424zM381 559q-29 -160 12 -244t141.5 -84t172.5 84q70 82 98 244q29 160 -12 244t-144 84q-104 0 -172 -84q-69 -84 -96 -244zM1120 504q-16 -121 19 -189q39 -84 145 -84q100 0 172 84q70 82 98 244 q29 160 -12 244t-143 84q-104 0 -174 -84q-57 -68 -86 -189z" />
<glyph unicode="&#x239;" horiz-adv-x="2004" d="M119 559q47 260 192 422q147 164 334 164q106 0 178 -45q72 -47 121 -146l31 166h321h2l-28 -162q84 96 170 142q90 47 194 47q186 0 279 -166q88 -162 45 -422q-47 -264 -195 -424q-145 -164 -336 -164q-102 0 -178 47q-70 45 -119 142l-104 -586h-2h-322l105 588 q-82 -98 -174 -146q-88 -45 -193 -45q-186 0 -276 164q-92 162 -45 424zM453 559q-29 -160 12 -244t141 -84q104 0 172 84q72 88 99 244q29 160 -12.5 244t-143.5 84q-104 0 -172 -84q-69 -84 -96 -244zM1190 504q-12 -123 20 -189q39 -84 144 -84q106 0 174 84 q70 84 96 244q29 164 -10 244q-41 84 -145.5 84t-174.5 -84q-57 -68 -86 -189z" />
<glyph unicode="&#x23a;" horiz-adv-x="1425" d="M-150 39l91 84l696 1370h414l47 -295l395 369l82 -115l-453 -420l164 -1032h-348l-37 272h-541l-133 -272h-215l-80 -74l-53 74h-2zM573 711l238 221l-29 211zM602 549h260l-28 215z" />
<glyph unicode="&#x23b;" horiz-adv-x="1351" d="M-186 39l299 278q-63 176 -21 428q61 358 295 568q231 207 567 207q117 0 211 -27q72 -20 148 -61l143 135l82 -115l-215 -201l-27 -151q-27 25 -75 57l-760 -706q14 -45 31 -68q84 -133 268 -133q100 0 204.5 34.5t209.5 106.5l-56 -309q-106 -55 -213 -82 q-111 -29 -221 -29q-336 0 -496 209l-8 10l-284 -264zM436 618l647 603q-68 20 -149 20q-186 0 -316 -131q-127 -131 -167 -365q-11 -59 -15 -127z" />
<glyph unicode="&#x23c;" horiz-adv-x="1091" d="M-113 0l217 213q-61 139 -24 346q49 276 229 432q184 156 453 156q84 0 153 -14q51 -10 95 -27l112 111l80 -101l-164 -162l-28 -161q-51 43 -78 57l-506 -498q10 -23 20 -39q61 -86 195 -86q76 0 147 25q76 25 140 74l-51 -293q-86 -33 -160 -47q-78 -14 -162 -15 q-254 0 -379 133l-203 -198zM408 512l383 379h-33q-135 0 -226 -86q-88 -86 -116 -246q-4 -14 -8 -47z" />
<glyph unicode="&#x23d;" horiz-adv-x="1173" d="M-25 621l45 260h173l106 612h346l-106 -612h182l-45 -260h-182l-58 -330h608l-51 -291h-954l108 621h-172z" />
<glyph unicode="&#x23e;" horiz-adv-x="1255" d="M-233 39l673 629l95 534h-445l49 291h1190l80 74l82 -115l-141 -131l-23 -119h-104l-408 -377l-143 -825h-346l75 440l-553 -514zM854 1053l164 149h-135z" />
<glyph unicode="&#x23f;" horiz-adv-x="1095" d="M59 41l50 272q88 -53 184 -77q106 -27 200.5 -27t147.5 29q52 28 61 86q8 45 -20 71q-29 23 -125 37l-53 8q-215 31 -285 111q-71 80 -43 246q31 178 158 264q123 86 350 86q98 0 186 -14q84 -14 205 -48l-49 -272q-88 45 -186 72q-92 25 -178 24q-90 0 -140 -24 q-47 -25 -57 -80q-10 -45 20 -66q33 -23 115 -34l55 -9q242 -35 313.5 -114.5t41.5 -251.5q-31 -180 -166 -269q-127 -84 -336 -90l154 -157q68 -70 139 -70h192l-39 -236h-186q-152 0 -268 119l-176 180q-205 209 -254 232z" />
<glyph unicode="&#x240;" horiz-adv-x="1071" d="M29 0l43 250l639 614h-508l45 256h878l-45 -250l-762 -729q76 -55 168 -147l177 -180q70 -70 141 -70h192l-41 -236h-186q-152 0 -268 119l-176 180q-172 175 -297 193z" />
<glyph unicode="&#x241;" horiz-adv-x="1439" d="M127 1063l14 76q29 160 82 221q18 20 56 51q78 66 204 78q31 4 107 4h375q256 0 370 -127q117 -127 74 -360q-41 -238 -198.5 -363t-415.5 -125h-29l-92 -518h-346l139 797h340q98 0 164 55q63 55 81.5 153.5t-28.5 153.5q-45 55 -145 55h-338l-72 -2q-41 0 -57 -18 q-33 -35 -45 -84q0 -2 -4.5 -18.5t-6.5 -28.5h-229z" />
<glyph unicode="&#x242;" horiz-adv-x="1130" d="M102 717q80 430 488 430q291 0 407 -127q115 -127 74 -361q-43 -238 -201 -360q-111 -88 -272 -117l-31 -182h-346l78 451h168q101 0 166 55q63 55 81.5 153.5t-28.5 153.5t-145 55q-121 0 -146 -151h-293z" />
<glyph unicode="&#x243;" horiz-adv-x="1402" d="M-63 322l45 260h157l160 911h520q283 0 389 -94q111 -98 74 -301q-18 -111 -80 -187q-57 -76 -151 -112q106 -37 149 -133q45 -100 21 -238q-37 -211 -191 -322q-150 -106 -416 -106h-575l55 322h-157zM430 262h205q104 0 166 49q59 47 78 148q18 98 -27 145 q-43 49 -150 49h-202l-13 -71h209l-45 -260h-211zM545 915h192q84 0 131 39t64 119q12 76 -23 117t-116 41h-193z" />
<glyph unicode="&#x244;" horiz-adv-x="1495" d="M37 696l35 195h125l104 602h348l-104 -602h465l104 602h346l-104 -602h127l-35 -195h-127l-16 -98q-55 -313 -228 -471q-172 -156 -463 -156q-289 0 -407 156q-117 154 -62 471l19 98h-127zM492 598q-31 -186 8 -264q41 -80 164 -80q125 0 192 80q70 82 102 264l17 98 h-465z" />
<glyph unicode="&#x245;" horiz-adv-x="1425" d="M-123 0l760 1493h414l235 -1493h-348l-156 1143l-555 -1143h-350z" />
<glyph unicode="&#x246;" horiz-adv-x="1257" d="M39 0l260 1493h717l84 190h155l-86 -190h66l-51 -291h-144l-125 -278h187l-53 -291h-263l-151 -342h409l-51 -291h-489l-84 -190h-154l84 190h-311zM436 291h43l154 342h-137zM547 924h215l125 278h-291z" />
<glyph unicode="&#x247;" horiz-adv-x="1249" d="M68 412q0 68 12 147q49 272 225 430t436 158q90 0 158 -21l115 185h155l-151 -244q158 -121 158 -358q0 -70 -13 -146l-18 -102h-508l-141 -228q52 -25 141 -24q193 0 438 135l-47 -276q-244 -96 -473 -97q-115 0 -207 29l-119 -190h-153l153 245q-161 113 -161 357z M389 408q0 -27 14 -74l80 127h-92q-2 -12 -2 -53zM434 682h187l137 217q-31 10 -60 10q-92 0 -161.5 -59t-102.5 -168zM776 682h76q6 31 6 59q0 33 -8 58z" />
<glyph unicode="&#x248;" horiz-adv-x="684" d="M-305 -410l51 291h53q109 0 176 68q70 70 91 196l73 420h-170l45 266h170l117 662h346l-117 -662h150l-47 -266h-148l-73 -420q-49 -280 -209 -417q-158 -137 -439 -138h-69z" />
<glyph unicode="&#x249;" horiz-adv-x="630" d="M-236 -442l41 235h56q90 0 133 45t67 182l72 418h-186l35 195h186l86 487h321l-86 -487h189l-35 -195h-186l-74 -418q-39 -223 -158 -344q-119 -119 -301 -118h-160zM279 1264l51 292h321l-51 -292h-321z" />
<glyph unicode="&#x24a;" horiz-adv-x="1583" d="M123 743q61 344 256 557q199 217 440 218q138 0 234 -62q98 -63 161 -190l39 227h328l-235 -1348q-23 -131 20 -196q43 -68 154 -68h71l-51 -291h-72q-276 0 -387 138q-113 141 -63 417l12 76q-111 -129 -227 -190q-113 -59 -254 -60q-246 0 -367 217q-118 213 -59 555z M483 745.5q-43 -245.5 17 -368.5q61 -127 217 -127q154 0 258 127q104 125 147 368q43 246 -16 369q-61 127 -217 127t-260 -127q-103 -123 -146 -368.5z" />
<glyph unicode="&#x24b;" horiz-adv-x="1456" d="M119 559q47 262 194 422q147 166 334 166q104 0 176 -47q74 -47 123 -144l29 164h323l-192 -1100q-20 -135 4 -182q25 -45 117 -45h149l-41 -235h-254q-272 0 -307 256q-12 80 4 186l29 162q-84 -100 -172 -145.5t-193 -45.5q-188 0 -276 164q-94 166 -47 424zM453 559 q-29 -160 12 -244t141 -84q102 0 174 84q70 84 97 244q29 160 -12.5 244t-141.5 84q-104 0 -172 -84q-71 -88 -98 -244z" />
<glyph unicode="&#x24c;" horiz-adv-x="1417" d="M-20 565l45 260h157l119 668h512q223 0 336 -92q115 -92 115 -271q0 -180 -90 -299q-88 -115 -244 -133q71 -15 117 -80q45 -63 81 -194l113 -424h-344l-100 371q-31 111 -74 153q-41 41 -127 41h-111l-100 -565h-346l98 565h-157zM530 831h148q117 0 178 62 q59 59 59 178q0 76 -41 109q-45 35 -133 34h-143z" />
<glyph unicode="&#x24d;" horiz-adv-x="907" d="M-61 438l32 195h195l84 487h321l-30 -184q84 113 170 160q88 51 202 51h35q2 0 21.5 -3t31.5 -5l-55 -324q-39 20 -78 33q-45 10 -84 10q-117 0 -190 -74q-76 -80 -96 -151h170l-33 -195h-180l-78 -438h-322l76 438h-192z" />
<glyph unicode="&#x24e;" horiz-adv-x="1333" d="M55 1112l33 195h102l-77 186h379l75 -186h396l141 186h379l-144 -186h103l-35 -195h-215l-373 -483l-108 -629h-346l108 629l-201 483h-217zM643 1112l62 -151l112 151h-174z" />
<glyph unicode="&#x24f;" horiz-adv-x="1200" d="M18 487l33 195h201l-92 438h321l80 -438h211l211 438h322l-228 -438h193l-35 -195h-258l-309 -593q-98 -188 -196.5 -262t-238.5 -74h-186l41 235h102q80 0 125 29q41 29 76 104l15 31l-113 530h-275zM596 487l22 -127l62 127h-84z" />
<glyph unicode="&#x250;" horiz-adv-x="1241" d="M66 479l110 639h326l-31 -166q83 101 172 148q90 47 207 47q156 0 235 -100q80 -102 54 -265q-34 -197 -172 -288q-139 -92 -402 -93h-188l-4 -28q-16 -88 37 -125q53 -39 182 -39q100 0 196 22q86 20 179 70l-49 -272q-108 -28 -216 -43q-100 -14 -210 -15 q-272 0 -373 119q-100 117 -53 389zM414 614h168q98 0 157 37q55 37 72 113q12 68 -23 106q-33 39 -108 39q-92 0 -166 -73q-74 -70 -92 -181z" />
<glyph unicode="&#x251;" horiz-adv-x="1318" d="M84 559q47 260 192 422q150 166 334 166q106 0 178 -47q74 -47 121 -144l29 164h326l-197 -1120h-326l29 162q-86 -102 -170 -146q-88 -45 -194 -45q-186 0 -277 164q-92 162 -45 424zM418 559q-29 -164 10 -244q41 -84 143 -84q100 0 172 84q68 80 96.5 244t-10.5 244 q-41 84 -143 84q-104 0 -172 -84q-69 -84 -96 -244z" />
<glyph unicode="&#x252;" horiz-adv-x="1318" d="M-14 -2l194 1120h326l-31 -162q84 100 172 145.5t195 45.5q184 0 276 -166q92 -164 47 -422q-47 -264 -194 -424q-145 -164 -334 -164q-102 0 -178 47q-74 47 -121 144l-29 -164h-323zM408 559q-29 -164 10 -244q41 -84 143 -84q100 0 172 84q70 82 98 244 q29 160 -12 244t-141 84q-106 0 -174 -84q-69 -84 -96 -244z" />
<glyph unicode="&#x253;" horiz-adv-x="1318" d="M23 0l190 1094q40 224 160 344q119 119 301 118h254l-41 -235h-152q-90 0 -133 -45q-41 -43 -65 -182l-25 -136q83 95 172 142q90 47 195 47q184 0 276 -166q90 -166 45 -422q-47 -268 -192 -424q-145 -164 -336 -164q-102 0 -178 47q-72 45 -121 144l-29 -162h-321z M440 559q-27 -158 15 -244q39 -84 143 -84q100 0 172 84q70 82 98 244q29 160 -12 244t-143 84q-104 0 -174 -84q-70 -82 -99 -244z" />
<glyph unicode="&#x254;" horiz-adv-x="1091" d="M-12 33l51 293q49 -49 113 -74q66 -25 139 -25q133 0 225 88t119 244q6 33 6 92q0 90 -41 154q-61 86 -194 86q-71 0 -142 -25q-68 -25 -143 -73l49 292q78 29 162 45q86 16 160 17q272 0 399 -156q92 -114 92 -289q0 -72 -14 -143q-49 -276 -229.5 -432t-452.5 -156 q-82 0 -154 15q-69 14 -145 47z" />
<glyph unicode="&#x255;" horiz-adv-x="1091" d="M88 559q49 274 231 432q184 156 453 156q84 0 154 -14q72 -14 145 -48l-51 -292q-59 49 -119 73q-61 25 -133 25q-137 0 -225 -86t-117 -246q-23 -125 8 -203q123 176 275 176q256 -6 217 -237q-53 -324 -334 -324h-21h-4h-6h-65l-2 1q-2 1 -5 1l-18 -114l-180 2l28 153 q-86 35 -151 113q-129 160 -80 432zM547 231q49 -25 96 -24h4q133 0 141 57q12 76 -106 76q-74 0 -135 -109z" />
<glyph unicode="&#x256;" horiz-adv-x="1456" d="M84 559q47 260 192 422q150 166 336 166q104 0 176 -47q74 -47 123 -144l105 600h323l-268 -1536q-25 -133 2 -182q25 -45 119 -45h147l-39 -235h-253q-274 0 -310 256q-10 72 6 186l27 162q-86 -102 -170 -146q-88 -45 -194 -45q-186 0 -277 164q-92 162 -45 424z M418 559q-29 -164 10 -244q41 -84 143 -84q104 0 172 84q68 80 96.5 244t-10.5 244q-41 84 -143 84q-104 0 -172 -84q-69 -84 -96 -244z" />
<glyph unicode="&#x257;" horiz-adv-x="1458" d="M47 559q45 258 195 422q152 166 333 166q104 0 177 -47q33 -18 82 -88l20 -27.5t11 -15.5t5 -7.5t4 -5.5l25 138q43 227 160 344q119 119 303 118h254l-43 -235h-150q-90 0 -133 -45q-45 -47 -65 -182l-195 -1094h-323l28 162q-84 -100 -172 -145.5t-192 -45.5 q-188 0 -279 164q-92 162 -45 424zM381 559q-29 -160 12 -244t141.5 -84t172.5 84q70 82 98 244q29 160 -12 244t-144 84q-104 0 -172 -84q-69 -84 -96 -244z" />
<glyph unicode="&#x258;" horiz-adv-x="1249" d="M41 68l47 276q104 -70 202.5 -102.5t203.5 -32.5q129 0 206 63q82 66 115 189h-754l19 102q45 264 217 424q170 160 408 160q260 0 382 -158q123 -157 74 -430q-49 -279 -227 -432q-180 -156 -453 -156q-115 0 -225 25q-117 27 -215 72zM432 682h418q6 111 -43 168 q-49 59 -141 59q-88 0 -152 -63q-64 -60 -82 -164z" />
<glyph unicode="&#x259;" horiz-adv-x="1249" d="M78 555l18 102h754q8 125 -49.5 188.5t-184.5 63.5q-104 0 -215 -32q-111 -35 -235 -103l47 277q111 43 242 71q117 25 231 25q272 0 399 -156q125 -152 76 -432q-49 -274 -225 -432q-174 -156 -436 -156q-240 0 -353 158q-114 162 -69 426zM389 436q-18 -102 25 -164 q43 -63 129 -63q92 0 161.5 59.5t102.5 167.5h-418z" />
<glyph unicode="&#x25a;" horiz-adv-x="1613" d="M70 334l770 442q-12 39 -39 70q-57 63 -185 63q-104 0 -215 -32q-111 -35 -235 -103l47 277q111 43 242 71q117 25 231 25q272 0 399 -156q20 -25 35 -49l219 129l181 2l-29 -170q-31 -178 -8 -231q25 -55 119 -56h38l-30 -180h-86q-164 0 -217 111q-43 90 -15 258 l-118 -70q4 -94 -13 -176q-49 -274 -225 -432q-174 -156 -436 -156q-240 0 -353 158q-61 88 -77 205zM399 295q6 -10 15 -23q43 -63 129 -63q92 0 161.5 59.5t102.5 167.5l18 105z" />
<glyph unicode="&#x25b;" horiz-adv-x="1024" d="M49 246q0 156 96 256q68 72 185 102q-160 43 -160 193q0 31 6 57q25 150 143.5 221.5t325.5 71.5q164 0 313 -47l-43 -240q-49 28 -122 43q-78 16 -144 17q-68 0 -125 -35q-63 -39 -63 -84q0 -43 39 -74q37 -29 143 -29h113l-39 -225h-107q-119 0 -182 -37 q-76 -45 -76 -117q0 -47 47 -81q49 -37 136 -37q174 0 325 78l-45 -252q-172 -55 -340 -56q-426 1 -426 275z" />
<glyph unicode="&#x25c;" horiz-adv-x="1003" d="M-92 35l41 235q72 -33 164 -51t194 -18q104 0 135 14q96 25 113 115q14 80 -66 110q-55 23 -98 23h-166l39 219h105q98 0 153 23q80 31 92 100q10 49 -59 86q-39 25 -154 24l-102 -12q-66 -8 -205 -41l41 238q92 20 211 35q98 12 180 12q215 0 328 -80q115 -80 84 -252 q-14 -86 -94 -151q-76 -66 -205 -91q127 -20 195 -98q65 -74 43 -203q-22 -111 -178.5 -203t-424.5 -92q-94 0 -180 15q-90 14 -186 43z" />
<glyph unicode="&#x25d;" horiz-adv-x="1425" d="M-92 35l41 235q72 -33 164 -51t194 -18q104 0 135 14q96 25 113 115q14 80 -66 110q-55 23 -98 23h-166l39 219h105q98 0 153 23q80 31 92 100q10 49 -59 86q-39 25 -154 24l-102 -12q-66 -8 -205 -41l41 238q86 18 211 35q98 12 180 12q215 0 328 -80q66 -47 84 -123 l213 127l178 2l-29 -170q-31 -176 -6 -231.5t119 -55.5h39l-33 -180h-86q-162 0 -215 111q-43 90 -14 258l-313 -182v4q-59 -35 -152 -54q127 -20 195 -98q65 -74 43 -203q-22 -111 -178.5 -203t-424.5 -92q-94 0 -180 15q-90 14 -186 43z" />
<glyph unicode="&#x25e;" horiz-adv-x="1347" d="M98 559q49 276 230 432q184 156 557 156q207 0 301 -72q92 -72 65 -221q-18 -100 -77 -162q-61 -63 -162 -88q100 -31 145 -102q45 -74 27 -185q-31 -174 -168 -260q-139 -86 -373 -86q-340 0 -467 156q-127 158 -78 432zM434 559q-31 -166 30.5 -262t180.5 -96 q106 0 170 39q70 41 78 98q12 59 -43 98q-49 37 -166 37h-106l38 225h113q106 0 156 29q55 35 65 80q6 41 -37 78q-45 35 -129 35q-123 0 -229 -101q-90 -84 -121 -260z" />
<glyph unicode="&#x25f;" horiz-adv-x="630" d="M-199 -442l41 235h58q90 0 133 45q45 47 65 182l74 418h-186l32 195h189l86 487h321l-86 -487h187l-33 -195h-188l-72 -418q-39 -223 -158 -344q-119 -119 -303 -118h-160z" />
<glyph unicode="&#x260;" horiz-adv-x="1458" d="M43 -377l49 279q74 -55 152 -80q74 -27 157 -27q158 0 246 78q90 80 117 240l12 77q-84 -100 -172 -145t-192 -45q-186 0 -279 162q-90 158 -47 411q41 229 188 388q147 160 332 159h332h2q43 201 156 318q119 119 303 118h252l-41 -235h-150q-90 0 -133 -45t-67 -182 l-37 -220h-2l-134 -761q-45 -264 -227 -412q-180 -143 -469 -143q-88 0 -180 16q-84 14 -168 49zM420 573q-28 -154 12 -233q39 -80 143 -80q102 0 173 82q72 84 96 231l53 314h-211q-100 0 -170 -82q-67 -80 -96 -232z" />
<glyph unicode="&#x261;" horiz-adv-x="1318" d="M82 -377l47 279q74 -55 152 -80q74 -27 157 -27q158 0 246 78q90 80 117 240l12 77q-86 -102 -170 -145q-88 -45 -194 -45q-184 0 -277 162q-92 160 -49 411q41 229 188 388q152 160 334 159h332h323l-176 -1007q-45 -266 -225 -412q-180 -143 -471 -143q-86 0 -178 16 q-84 14 -168 49zM457 573q-25 -156 14 -233q41 -80 143.5 -80t172 82t94.5 231l57 314h-213q-100 0 -170 -82q-71 -85 -98 -232z" />
<glyph unicode="&#x262;" horiz-adv-x="1155" d="M80 545q49 276 217 426q166 147 420 147q109 0 182 -18q88 -23 158 -62l-43 -235q-76 51 -148 74q-70 23 -157 22q-147 0 -244 -88q-96 -90 -127 -266q-31 -178 30.5 -266.5t204.5 -88.5q40 0 74 7q45 8 64 16l26 168h-248l46 250h485l-98 -559q-109 -53 -207 -76 q-104 -25 -211 -25q-242 0 -357 152q-112 150 -67 422z" />
<glyph unicode="&#x263;" horiz-adv-x="1353" d="M160 -104q28 157 252 460l-230 764h340l123 -473l291 473h340l-498 -764q117 -305 90 -460q-57 -328 -411 -328t-297 328zM471 -88q-16 -88 31 -88q45 0 61 88q12 72 -20 141q-60 -69 -72 -141z" />
<glyph unicode="&#x264;" horiz-adv-x="1169" d="M147 1120h342l154 -297l258 297h340l-453 -516q137 -195 115 -319q-57 -328 -411.5 -328t-296.5 328q22 123 227 319zM506 299q-15 -83 31 -86q46 0 61 86q12 55 -25 131q-59 -74 -67 -131z" />
<glyph unicode="&#x265;" horiz-adv-x="1310" d="M164 436l119 682h323l-18 -110l-74 -410q-18 -111 -29 -203q-3 -55 7 -80q12 -34 43 -55q27 -18 69 -18q100 0 174 86q71 86 99 239l96 551h321l-270 -1556h-324l107 600q-86 -94 -180 -144q-90 -47 -191 -47q-174 0 -243 119q-70 117 -29 346z" />
<glyph unicode="&#x266;" horiz-adv-x="1310" d="M18 0l193 1094q41 227 158 344q119 119 303 118h252l-39 -235h-152q-90 0 -133 -45q-41 -43 -65 -182l-25 -136q84 92 178 142q90 47 191 47q174 0 243 -119q70 -117 29 -346l-119 -682h-323l18 111l72 409q25 147 30 203q3 55 -6 80q-12 34 -43 55q-27 18 -69 19 q-100 0 -174 -86q-74 -90 -101 -240l-94 -551h-324z" />
<glyph unicode="&#x267;" horiz-adv-x="1310" d="M57 0l191 1094q40 224 160 344q119 119 303 118h252l-41 -235h-150q-90 0 -133 -45t-68 -182l-22 -136q84 92 178 142q90 47 188 47q176 0 244 -119q70 -123 31 -346l-78 -442l-37 -220l-4 -20q-39 -203 -156 -324q-119 -119 -303 -118h-252l39 235h152q90 0 133 45 t68 182l14 91l22 129l50 280q25 147 30 203q2 51 -8 80q-12 35 -41 55q-29 18 -69 19q-100 0 -175 -86q-74 -90 -100 -240l-94 -551h-324z" />
<glyph unicode="&#x268;" horiz-adv-x="1003" d="M94 438l35 195h193l86 487h321l-86 -487h182l-34 -195h-181l-75 -438h-322l76 438h-195zM432 1264l51 292h324l-53 -292h-322z" />
<glyph unicode="&#x269;" horiz-adv-x="808" d="M135 461l117 659h323l-114 -659q-25 -137 2 -182q31 -55 117 -46l20 3l-41 -236l-123 -2q-180 -2 -262 119q-80 119 -39 344z" />
<glyph unicode="&#x26a;" horiz-adv-x="1003" d="M57 0l41 236h195l113 649h-193l41 235h192h322h180l-41 -235h-180l-113 -649h181l-43 -236h-181h-321h-193z" />
<glyph unicode="&#x26b;" horiz-adv-x="1028" d="M129 635q25 137 90 211q63 74 162 74l111 636h321l-133 -763q25 10 39 26q27 33 35 90l2 9h143q-23 -137 -90 -211q-63 -70 -158 -74l-108 -633h-324l133 762q-23 -6 -43 -29q-27 -33 -35 -90v-8h-145z" />
<glyph unicode="&#x26c;" horiz-adv-x="1277" d="M172 877q53 313 365 311q96 0 145 -55l74 423h321l-129 -743h182l-38 -213h-183l-102 -600h-324l107 600h-187q-274 1 -231 277zM358 887q-6 -37 14.5 -56.5t67.5 -19.5h181q-4 86 -25 107q-35 35 -117 34q-111 1 -121 -65z" />
<glyph unicode="&#x26d;" horiz-adv-x="630" d="M59 0l273 1556h323l-268 -1536q-23 -137 2 -182t119 -45h147l-39 -235h-254q-184 0 -260 118q-80 121 -43 324z" />
<glyph unicode="&#x26e;" horiz-adv-x="1548" d="M57 0l273 1556h321l-76 -436h877l-43 -250l-453 -434q133 -8 218 -33q109 -35 165 -145q51 -100 27 -246q-41 -223 -211 -336q-172 -117 -467 -116q-102 0 -205 18q-98 18 -194 55l51 297q82 -51 178 -79.5t184 -28.5q137 0 222 53q82 51 100 151.5t-49 155.5 q-63 51 -213 51h-168l43 246l399 385h-506l-149 -864h-324z" />
<glyph unicode="&#x26f;" horiz-adv-x="1918" d="M127 436l119 682h323l-100 -583q0 -4 -3 -12.5l-5 -14.5l-6 -41q-20 -117 0 -172q23 -53 94 -53q90 0 156 84q68 86 94 241l96 551h324l-103 -583q-33 -180 -12 -240q23 -53 92 -53q94 0 158 84q68 86 94 241l96 551h324l-197 -1120h-323l28 164q-76 -94 -162 -144 q-82 -47 -176 -47q-104 0 -176 56q-74 57 -94 157q-78 -100 -172 -157q-96 -55 -195 -56q-174 0 -243.5 119t-30.5 346z" />
<glyph unicode="&#x270;" horiz-adv-x="1918" d="M162 436l119 682h323l-100 -583q0 -6 -2 -12.5t-4 -14.5q0 -2 -2 -10.5t-4.5 -15.5t-2.5 -15q-20 -117 0 -172q23 -53 95 -53q90 0 155 84q68 86 95 241l96 551h323l-102 -583q-31 -184 -12 -240q23 -53 94 -53q94 0 158 84q63 82 92 241l96 551h324l-271 -1546h-323 l102 590q-72 -94 -160 -144q-82 -47 -180 -47q-104 0 -174 55.5t-92 157.5q-78 -102 -174 -157q-94 -55 -195 -56q-174 0 -243.5 119t-30.5 346z" />
<glyph unicode="&#x271;" horiz-adv-x="1918" d="M90 0l197 1120h323l-28 -164q76 94 161 144q82 47 179 47q106 0 176 -55q70 -53 94 -158q80 104 172 158q92 55 195 55q174 0 243.5 -119t30.5 -346l-115 -662q-40 -224 -159 -344q-119 -119 -302 -118h-253l40 235h150q92 0 135 45t62 162l114 651q20 115 -2 172 q-23 53 -92 54q-90 0 -156 -84q-66 -86 -96 -242l-94 -551h-326l103 584q33 184 14 239q-23 53 -94 54q-94 0 -158 -84q-63 -82 -92 -242l-96 -551h-326z" />
<glyph unicode="&#x272;" horiz-adv-x="1310" d="M-295 -442l39 235h152q90 0 133 45q47 49 67 182l39 220l154 880h321l-28 -164q86 94 180 144q90 47 188 47q176 0 246 -119q70 -123 31 -346l-121 -682h-324l21 111l71 411q27 154 29 201q3 55 -6 80q-10 31 -43 55q-27 18 -70 19q-100 0 -173.5 -86t-98.5 -240 l-55 -311l-39 -220l-2 -20q-39 -203 -156 -324q-119 -119 -303 -118h-252z" />
<glyph unicode="&#x273;" horiz-adv-x="1460" d="M92 0l197 1120h321l-28 -164q88 98 180 144q90 47 188 47q176 0 246 -119q70 -123 31 -346l-117 -662q-25 -133 2 -182q25 -45 119 -45h149l-41 -235h-254q-182 0 -260 118q-82 129 -49 324l127 723q6 49 -6 80q-12 34 -43 55q-31 18 -70 19q-94 0 -174 -86 q-70 -74 -98 -240l-96 -551h-324z" />
<glyph unicode="&#x274;" horiz-adv-x="1181" d="M-59 0l196 1120h387l162 -651l115 651h329l-196 -1120h-387l-164 651l-115 -651h-327z" />
<glyph unicode="&#x275;" horiz-adv-x="1265" d="M68 444q0 123 41 246q39 115 118 221q86 113 215 176q121 59 275 60q223 0 354 -127q129 -127 129 -346q0 -123 -41 -246q-39 -117 -119 -219q-94 -119 -214.5 -178.5t-280.5 -59.5q-219 0 -350 127q-127 125 -127 346zM406 442q0 -78 24 -131q39 -84 145 -84 q111 0 181 84q53 61 82 174h-430q-2 -14 -2 -43zM449 680h417q0 78 -24 127q-39 84 -150 84q-106 0 -176 -84q-36 -43 -67 -127z" />
<glyph unicode="&#x276;" horiz-adv-x="1673" d="M80 561q49 272 233 416q182 143 484 143h22h25h762l-39 -219h-375l-37 -209h350l-39 -217h-350l-43 -258h389l-37 -217h-778h-22q-6 0 -15.5 -1t-11.5 -1q-299 0 -432 145.5t-86 417.5zM397.5 561q-30.5 -170 32.5 -258q66 -86 219 -86h101l118 684h-100q-158 0 -248 -84 q-92 -86 -122.5 -256z" />
<glyph unicode="&#x277;" horiz-adv-x="1255" d="M-16 496q37 209 102 331q188 348 551 349q358 0 432 -349q23 -109 -16 -331q-43 -246 -144 -369q-100 -127 -231 -127q-90 0 -146 68q-55 63 -51 221q-49 -154 -127 -221q-76 -68 -168 -68q-133 0 -188 127q-57 129 -14 369zM309 334q0 -70 23 -70q31 0 53 78 q16 55 33 147l18 107h199l-19 -109q-18 -95 -18 -141q-2 -82 22.5 -82t49.5 78q37 115 55 223q61 354 -131 355q-199 0 -260 -357q-27 -159 -25 -229z" />
<glyph unicode="&#x278;" horiz-adv-x="1466" d="M111 559q47 258 198 432q111 125 359 150l73 415h320l-74 -415q244 -25 307 -150q94 -174 49 -432q-45 -266 -229 -432q-137 -121 -330 -152l-69 -401h-322l72 401q-188 31 -281 152q-120 160 -73 432zM432 559q-31 -182 35 -248l47 -45l107 600q-27 0 -66 -43 q-98 -117 -123 -264zM715 -426zM836 266l63 45q90 66 121 248q25 150 -33 264q-20 43 -47 43zM1061 1556z" />
<glyph unicode="&#x279;" horiz-adv-x="989" d="M57 -18l56 323q39 -20 77 -33q45 -10 84 -10q123 0 205 88q86 92 113 254l90 516h322l-195 -1120h-324l33 184q-83 -111 -172 -159q-88 -51 -201 -52h-34q-4 0 -23 3.5t-31 5.5z" />
<glyph unicode="&#x27a;" horiz-adv-x="989" d="M18 -18l58 323q33 -18 78 -33q45 -10 82 -10q125 0 206.5 88t112.5 254l166 952h321l-272 -1556h-324l33 184q-80 -111 -170 -159q-88 -51 -203 -52h-34q-2 0 -22 3.5z" />
<glyph unicode="&#x27b;" horiz-adv-x="1196" d="M92 -18l55 323q35 -18 80 -33q45 -10 82 -10q125 0 207 88q82 92 113 254l90 516h321l-190 -1100q-25 -137 2 -182t117 -45h149l-41 -235h-254q-182 0 -260 118q-78 123 -39 344l31 162q-84 -109 -172 -157q-88 -51 -201 -52h-35q-4 0 -23.5 3.5z" />
<glyph unicode="&#x27c;" horiz-adv-x="907" d="M16 -426l273 1546h321l-32 -184q78 109 172 160q88 51 200 51h35q2 0 21.5 -3t31.5 -5l-55 -324q-31 16 -80 33q-45 10 -80 10q-125 0 -207 -88q-82 -84 -112 -254l-164 -942h-324z" />
<glyph unicode="&#x27d;" horiz-adv-x="907" d="M94 20l193 1100h323l-30 -184q84 113 170 160q88 51 200 51h35q4 0 23.5 -3t31.5 -5l-55 -324q-35 18 -80 33q-45 10 -82 10q-125 0 -207 -88q-84 -90 -110 -254l-88 -496q-20 -135 4 -182q25 -45 117 -45h149l-41 -235h-252q-184 0 -262 118q-76 119 -39 344z" />
<glyph unicode="&#x27e;" horiz-adv-x="1097" d="M57 0l41 236h189l73 421q41 227 158 344q119 119 303 119h254l-43 -235h-147q-96 0 -135 -45q-45 -51 -66 -183l-74 -421h185l-43 -236h-695z" />
<glyph unicode="&#x27f;" horiz-adv-x="1097" d="M182 0l41 236h185l73 421q23 135 -2 183q-25 45 -119 45h-147l41 235h252q184 0 262 -119q78 -123 39 -344l-76 -421h189l-41 -236h-697z" />
<glyph unicode="&#x280;" horiz-adv-x="1181" d="M-59 0l196 1120h445q213 0 299 -73.5t57 -235.5q-23 -115 -84 -182q-65 -71 -172 -105q55 -16 90 -61q41 -51 68 -146l94 -317h-328l-82 279q-23 76 -53 100q-33 31 -102 31h-33l-74 -410h-321zM375 631h69q84 0 123 31q41 31 54 106q12 72 -19 102.5t-110 30.5h-72z" />
<glyph unicode="&#x281;" horiz-adv-x="1181" d="M-59 0l196 1120h322l-72 -409h33q68 0 115 30q43 27 90 101l178 278h327l-206 -317q-66 -100 -117 -146q-47 -45 -113 -61q96 -33 137 -104q39 -76 19 -183q-29 -162 -139 -235q-114 -74 -326 -74h-444zM301 219h72q82 0 123 31t53 102q12 76 -18.5 106.5t-110.5 30.5 h-72z" />
<glyph unicode="&#x282;" horiz-adv-x="1095" d="M51 20l4 21l35 199l14 73q88 -53 185 -77q102 -27 200 -27q94 0 148 29q52 28 61 86q8 47 -18 71q-33 25 -125 37l-55 8q-212 31 -283 111q-74 80 -45 246q31 178 158 264q125 86 350 86q98 0 186 -14q86 -14 203 -48l-45 -272q-86 45 -188 72q-92 25 -179 24 q-90 0 -139 -24.5t-59 -79.5q-6 -45 22 -66q33 -23 117 -34l53 -9q242 -35 313.5 -114.5t41.5 -251.5q-31 -180 -166 -269q-137 -90 -371 -90q-33 0 -98 4q-12 -102 8 -137q25 -45 119 -45h147l-39 -235h-254q-182 0 -260 118q-78 121 -41 344z" />
<glyph unicode="&#x283;" horiz-adv-x="763" d="M-231 -442l38 235h58q90 0 133 45t68 182l204 1178q31 184 140 270q106 88 299 88h247l-41 -235h-178q-68 0 -100 -27q-31 -27 -43 -96l-211 -1198q-37 -203 -154 -324q-119 -119 -303 -118h-157z" />
<glyph unicode="&#x284;" horiz-adv-x="800" d="M-195 -442l39 235h58q90 0 133 45t67 182l72 418h-186l35 195h186l41 231h-162l45 256h160l14 78q31 184 139 270q106 88 299 88h248l-41 -235h-178q-68 0 -100 -27q-31 -27 -43 -96l-101 -565h187l-35 -195h-184l-78 -438q-41 -211 -154 -324q-119 -119 -303 -118h-158z " />
<glyph unicode="&#x285;" horiz-adv-x="1114" d="M254 911l39 236h248q193 0 268 -88q76 -86 45 -271l-135 -768q-20 -135 4 -182q25 -45 117 -45h57l-43 -235h-158q-184 0 -262 118q-76 117 -41 324l139 788q12 68 -10 97q-20 27 -92 26h-176z" />
<glyph unicode="&#x286;" horiz-adv-x="1015" d="M-178 -133q51 276 328 276h188l184 1055q31 184 140 270q106 88 299 88h247l-41 -235h-178q-72 0 -100 -27q-31 -27 -43 -96l-184 -1055h149l-37 -211h-153q-39 -158 -140 -256q-119 -119 -303 -118h-100v-2q-37 0 -53 2h-5v2q-251 24 -198 307zM4 -141 q-4 -29 14.5 -46.5t59.5 -19.5h39q92 0 135 45q23 25 45 94h-182q-95 1 -111 -73z" />
<glyph unicode="&#x287;" horiz-adv-x="880" d="M-45 0l45 256h332l82 475q14 74 -8 105q-23 29 -107 28h-166l45 256h277q190 0 253.5 -88t26.5 -301l-82 -475h160l-45 -256h-160l-55 -317h-324l58 317h-332z" />
<glyph unicode="&#x288;" horiz-adv-x="880" d="M88 864l45 256h160l55 318h324l-56 -318h332l-45 -256h-332l-147 -844q-23 -137 2 -182t119 -45h147l-41 -235h-252q-184 0 -262 118q-77 120 -37 344l148 844h-160z" />
<glyph unicode="&#x289;" horiz-adv-x="1695" d="M135 438l35 195h192l87 487h323l-20 -112l-41 -228q-8 -51 -15.5 -88t-11.5 -59h371l84 487h323l-86 -487h180l-32 -195h-183l-75 -438h-324l29 162q-88 -96 -178.5 -143.5t-188.5 -47.5q-131 35 -166 52q-52 25 -80 67q-70 119 -30 346v2h-193zM651 401q-6 -59 6 -86 q14 -37 41 -55t72 -18q98 0 172 86q45 55 66 110h-355q-2 -14 -2 -37z" />
<glyph unicode="&#x28a;" horiz-adv-x="1415" d="M41 457q27 160 106 274q94 133 183 193h-217l32 196h494l-49 -282q-78 -72 -127 -158q-70 -121 -86 -221q-25 -143 20 -232q45 -86 145.5 -86t174.5 86q76 88 100 232q18 108 -6 221q-18 86 -74 156l51 284h484l-35 -196h-217q68 -55 119 -193q41 -109 12 -266 q-47 -258 -225 -412q-186 -158 -428 -157q-244 0 -371 157q-129 158 -86 404z" />
<glyph unicode="&#x28b;" horiz-adv-x="1232" d="M135 461l117 659h323l-114 -659q-31 -170 -25 -182q27 -51 72 -48l18 2q109 0 199 97q82 88 106 229q18 109 -12 223q-20 80 -86 156l31 182q190 -6 280 -94q61 -58 105 -190q33 -104 4 -267q-43 -255 -209 -411q-168 -158 -385 -158l-123 -2q-180 -2 -262 119 q-80 119 -39 344z" />
<glyph unicode="&#x28c;" horiz-adv-x="1200" d="M-70 0l592 1120h355l198 -1120h-321l-115 774l-385 -774h-324z" />
<glyph unicode="&#x28d;" horiz-adv-x="1701" d="M-33 0l461 1120h352l35 -770l305 770h353l67 -1120h-311l-35 772l-305 -772h-271l-34 764l-303 -764h-314z" />
<glyph unicode="&#x28e;" horiz-adv-x="1200" d="M-115 0l639 1227q100 193 195 262q98 74 237 74h187l-41 -236h-101q-80 0 -124 -29q-39 -25 -76 -104l-15 -31l244 -1163h-321l-138 760l-362 -760h-324z" />
<glyph unicode="&#x28f;" horiz-adv-x="1333" d="M98 1120h334l154 -346l272 346h336l-522 -649l-82 -471h-279l82 471z" />
<glyph unicode="&#x290;" horiz-adv-x="1277" d="M23 0l45 250l639 614h-510l45 256h878l-43 -250l-639 -614h533l-41 -236q-20 -123 -15 -157q6 -20 17 -25q0 -45 119 -45h149l-43 -235h-252q-184 0 -262 118q-72 115 -41 324h-579z" />
<glyph unicode="&#x291;" horiz-adv-x="1259" d="M-2 0l43 250l639 614h-510l45 256h881l-45 -250l-637 -614h143q20 57 33 84q145 195 295 192q256 -4 219 -237q-47 -287 -316 -295h-116l-25 -141l-178 2l25 139h-496zM729 258q4 -2 29 -2h73q133 0 140 35q4 25 -23.5 37t-87.5 12q-84 0 -131 -82z" />
<glyph unicode="&#x292;" horiz-adv-x="1179" d="M-43 -367l51 297q82 -51 178.5 -79.5t184.5 -28.5q137 0 221 53q80 49 98.5 151.5t-47.5 155.5q-66 51 -213 51h-168l43 246l402 385h-510l45 256h878l-43 -250l-450 -434q135 -8 215 -33q109 -35 166 -145q51 -100 26 -246q-41 -223 -211 -336q-176 -117 -467 -116 q-102 0 -204 18q-99 18 -195 55z" />
<glyph unicode="&#x293;" horiz-adv-x="1179" d="M45 -117q52 276 387 277q162 0 262 -94q0 74 -51 116q-66 51 -213 51h-168l43 246l402 385h-510l45 256h878l-43 -250l-450 -434q135 -8 215 -33q109 -35 166 -145q51 -100 26 -246q-41 -223 -211 -336l-12 -10q-2 -20 -10 -76l-154 -6l2 13l-6 -3q-129 -35 -287 -34l2 2 h-2q-366 18 -311 321zM248 -129q-6 -29 27.5 -42t109.5 -11q92 4 141 20q39 16 66 37q-27 63 -197 74q-133 6 -147 -78z" />
<glyph unicode="&#x294;" horiz-adv-x="1054" d="M109 0l129 735h84q195 0 292 115q63 76 76 147q16 100 -22 162q-68 115 -232 115q-68 0 -145 -23q-80 -23 -152 -63l51 297q68 31 152 51q76 18 238 18q221 0 368 -208q94 -131 58 -349q-41 -233 -205 -376q-106 -94 -283 -125l-88 -496h-321z" />
<glyph unicode="&#x295;" horiz-adv-x="1054" d="M104 997q37 213 181 349q223 209 440 208q163 0 233 -18t134 -51l-52 -297q-59 39 -131 63q-72 23 -139 23q-162 0 -270 -115q-59 -59 -80 -162q-12 -68 26 -147q59 -115 252 -115h84l-129 -735h-321l86 496q-168 31 -240 125q-115 145 -74 376z" />
<glyph unicode="&#x296;" horiz-adv-x="1054" d="M-57 70l53 299q68 -45 129 -66q63 -20 139 -20q164 0 271 112q59 59 79 162q12 71 -24 148q-59 115 -254 114h-84l129 735h321l-86 -495q166 -31 238 -125q115 -147 76 -377q-37 -211 -180 -346q-225 -211 -443 -211q-160 0 -231 18q-70 19 -133 52z" />
<glyph unicode="&#x297;" horiz-adv-x="1054" d="M-8 131l149 866q37 213 181 349q221 209 442 208q164 0 231 -18q70 -18 133 -51l-53 -297q-61 41 -129 63q-72 23 -137 23q-162 0 -270 -115q-68 -70 -82 -162l-152 -866q-16 -96 25 -162q70 -113 229 -112q78 0 148 20q72 20 151 66l-51 -299q-68 -31 -152 -52 q-78 -18 -237 -18q-219 0 -369 211q-94 131 -57 346z" />
<glyph unicode="&#x298;" horiz-adv-x="1564" d="M92 745q66 367 283 570q219 205 545 205q324 0 471 -205q147 -207 84 -570q-66 -367 -283 -569q-219 -205 -545 -205q-324 0 -471 205q-147 207 -84 569zM451 745.5q-41 -237.5 22 -364.5q66 -131 223.5 -131t270.5 131q109 127 149 364q41 240 -22 365q-66 131 -226 131 q-156 0 -268 -131q-108 -127 -149 -364.5zM666 745q10 53 51 93q39 39 90 39q49 0 76 -39q27 -37 16 -93q-9 -55 -49 -92q-43 -39 -90 -39t-76 39q-27 37 -18 92z" />
<glyph unicode="&#x299;" horiz-adv-x="1165" d="M57 0l197 1120h461q227 0 311 -69q68 -55 68 -158q0 -126 -68 -209q-45 -57 -121 -86q145 -47 146 -211q0 -31 -7 -65q-59 -322 -483 -322h-504zM418 223h164q141 0 163 127q4 20 5 31q0 92 -125 92h-162zM502 698h151q117 0 131 101q2 10 2 24q0 76 -98 76h-151z" />
<glyph unicode="&#x29a;" horiz-adv-x="1347" d="M57 317q18 115 88 185q72 72 185 102q-92 25 -131 88q-41 66 -23 162q25 150 143.5 221.5t323.5 71.5q377 0 504 -156q127 -158 78 -432q-49 -276 -230 -432q-184 -156 -520 -156q-233 0 -342 86q-107 86 -76 260zM354 338q-10 -59 41 -98t158 -39q119 0 215 96 q92 92 121 262q31 180 -29 260q-70 100 -194 101q-84 0 -142 -35q-57 -37 -63 -78q-10 -45 39 -80q37 -29 143 -29h113l-39 -225h-109q-117 0 -178 -37q-68 -39 -76 -98z" />
<glyph unicode="&#x29b;" horiz-adv-x="1259" d="M41 559q46 261 215 412q168 147 422 147h27q39 203 155 320q119 119 301 118h254l-43 -235h-147q-92 0 -135 -45q-41 -43 -66 -182l-10 -56l-41 -235q-71 49 -148 74q-70 23 -155 22q-152 0 -246 -88q-98 -92 -125 -252q-29 -166 35 -252q61 -88 205 -88q39 0 71 6 q45 8 64 17l28 168h-247l37 221h487l-92 -531q-109 -53 -207 -75q-106 -25 -213 -25q-242 0 -356 152q-113 149 -70 407z" />
<glyph unicode="&#x29c;" horiz-adv-x="1271" d="M51 0l197 1120h323l-75 -426h319l76 426h321l-196 -1120h-322l82 473h-319l-82 -473h-324z" />
<glyph unicode="&#x29d;" horiz-adv-x="630" d="M-434 -131q51 274 330 274h188l170 977h321l-169 -977h149l-37 -209q-12 0 -63.5 -1t-89.5 -1q-41 -158 -140 -256q-119 -119 -301 -118h-102v-2q-31 0 -45 2h-13v2q-251 24 -198 309zM-250 -141q-6 -29 12.5 -46.5t59.5 -19.5h39q92 0 135 47q27 31 45 92 q-47 0 -108.5 1t-73.5 1q-95 1 -109 -75zM279 1264l51 292h321l-51 -292h-321z" />
<glyph unicode="&#x29e;" horiz-adv-x="1347" d="M133 0l584 514l-426 606h391l311 -467l82 467h322l-273 -1556h-321l147 848l-442 -412h-375z" />
<glyph unicode="&#x29f;" horiz-adv-x="991" d="M57 0l197 1120h326l-146 -829h438l-51 -291h-764z" />
</font>
</defs>
</svg>
