<?xml version="1.0" standalone="no"?>
<!DOCTYPE svg PUBLIC "-//W3C//DTD SVG 1.1//EN" "http://www.w3.org/Graphics/SVG/1.1/DTD/svg11.dtd" >
<svg xmlns="http://www.w3.org/2000/svg">
<metadata>
This is a custom SVG webfont generated by Font Squirrel.
Copyright   : Copyright c 2003 by Bitstream Inc All Rights ReservedCopyright c 2006 by Tavmjong Bah All Rights ReservedDejaVu changes are in public domain
Foundry     : DejaVu fonts team
Foundry URL : httpdejavusourceforgenet
</metadata>
<defs>
<font id="webfontgoSaYoaM" horiz-adv-x="1542" >
<font-face units-per-em="2048" ascent="1556" descent="-492" />
<missing-glyph horiz-adv-x="638" />
<glyph unicode="&#xfb00;" horiz-adv-x="1492" d="M35 864v256h160v78q0 184 92 270q90 88 284 88h246v-235h-178q-68 0 -94 -27q-27 -31 -27 -96v-78h369v78q0 184 92 270q90 88 285 88h245v-235h-178q-68 0 -94 -27q-29 -29 -29 -96v-78h277v-256h-277v-864h-321v864h-369v-864h-323v864h-160z" />
<glyph unicode="&#xfb01;" horiz-adv-x="1363" d="M39 864v256h158v78q0 184 92 270q94 88 284 88h246v-235h-178q-68 0 -92 -27q-27 -31 -27 -96v-78h688v-1120h-323v864h-365v-864h-325v864h-158zM887 1264v292h323v-292h-323z" />
<glyph unicode="&#xfb02;" horiz-adv-x="1363" d="M35 864v256h160v78q0 184 92 270q94 88 284 88h639v-1556h-323v1321h-248q-68 0 -94.5 -26.5t-26.5 -96.5v-78h252v-256h-252v-864h-323v864h-160z" />
<glyph unicode="&#xfb03;" horiz-adv-x="2054" d="M35 864v256h160v78q0 184 92 270q90 88 284 88h246v-235h-178q-68 0 -94 -27q-27 -31 -27 -96v-78h369v78q0 184 92 270q90 88 285 88h245v-235h-178q-70 0 -94 -27q-27 -27 -27 -96v-78h691v-1120h-324v864h-367v-864h-2h-321v864h-369v-864h-323v864h-160zM1577 1264 v292h324v-292h-324z" />
<glyph unicode="&#xfb04;" horiz-adv-x="2056" d="M35 864v256h160v78q0 184 92 270q90 88 284 88h246v-235h-178q-68 0 -94 -27q-27 -31 -27 -96v-78h369v78q0 184 92 270q90 88 285 88h639v-1556h-324v1321h-248q-68 0 -94 -27q-29 -29 -29 -96v-78h254v-256h-254v-864h-321v864h-369v-864h-323v864h-160z" />
<glyph unicode="&#xfedf;&#xfe82;" horiz-adv-x="1370" arabic-form="isolated" d="M-112 1495v170l149 125q98 -92 137 -100q72 -18 125 -19q61 0 117 23q106 41 176 110v-170q-53 -51 -162 -88q-84 -27 -137 -26q-86 0 -135 22.5t-117 77.5zM76 1409h325l383 -958q29 51 45 98q33 133 33 321v686h322v-722q0 -305 -125 -519q-51 -92 -119 -155 q-197 -190 -582 -191q-133 0 -229 43v244q92 -37 231 -37q92 0 166 45z" />
<glyph unicode="&#xfee0;&#xfe82;" horiz-adv-x="1398" arabic-form="final" d="M-112 1495v170l149 125q98 -92 137 -100q72 -18 125 -19q61 0 117 23q106 41 176 110v-170q-53 -51 -162 -88q-84 -27 -137 -26q-86 0 -135 22.5t-117 77.5zM76 1409h325l383 -958q29 51 45 98q33 133 33 321v686h322v-1101q0 -104 45 -156q41 -43 100 -43h88v-256h-321 q-102 0 -152 63q-35 45 -41 68q-190 -162 -545 -162q-133 0 -229 43v244q92 -37 231 -37q92 0 166 45z" />
<glyph unicode="&#xfedf;&#xfe84;" horiz-adv-x="1370" arabic-form="isolated" d="M63 1745q2 106 49 147q45 41 162 41q57 0 115 -22v-125q-61 20 -115 20q-35 0 -55 -10q-27 -16 -27 -61q0 -53 58 -68q25 -8 49 -2l98 21v-129l-328 -76v127l70 16q-47 12 -61 45q-15 31 -15 76zM76 1409h325l383 -958q29 51 45 98q33 133 33 321v686h322v-722 q0 -305 -125 -519q-51 -92 -119 -155q-197 -190 -582 -191q-133 0 -229 43v244q92 -37 231 -37q92 0 166 45z" />
<glyph unicode="&#xfee0;&#xfe84;" horiz-adv-x="1398" arabic-form="final" d="M63 1745q2 106 49 147q45 41 162 41q57 0 115 -22v-125q-61 20 -115 20q-35 0 -55 -10q-27 -16 -27 -61q0 -53 58 -68q25 -8 49 -2l98 21v-129l-328 -76v127l70 16q-47 12 -61 45q-15 31 -15 76zM76 1409h325l383 -958q29 51 45 98q33 133 33 321v686h322v-1101 q0 -104 45 -156q41 -43 100 -43h88v-256h-321q-102 0 -152 63q-35 45 -41 68q-190 -162 -545 -162q-133 0 -229 43v244q92 -37 231 -37q92 0 166 45z" />
<glyph unicode="&#xfedf;&#xfe88;" horiz-adv-x="1370" arabic-form="isolated" d="M76 1409h325l383 -958q29 51 45 98q33 133 33 321v686h322v-722q0 -305 -125 -519q-51 -92 -119 -155q-197 -190 -582 -191q-133 0 -229 43v244q92 -37 231 -37q92 0 166 45zM142 -236q2 106 49 147q45 41 162 41q57 0 115 -22v-125q-61 20 -115 20q-35 0 -55 -10 q-27 -16 -27 -61q0 -53 58 -68q25 -8 49 -2l98 21v-129l-328 -76v127l70 16q-47 12 -61 45q-15 31 -15 76z" />
<glyph unicode="&#xfee0;&#xfe88;" horiz-adv-x="1398" arabic-form="final" d="M142 -236q2 106 49 147q45 41 162 41q57 0 115 -22v-125q-61 20 -115 20q-35 0 -55 -10q-27 -16 -27 -61q0 -53 58 -68q25 -8 49 -2l98 21v-129l-328 -76v127l70 16q-47 12 -61 45q-15 31 -15 76zM76 1409h325l383 -958q29 51 45 98q33 133 33 321v686h322v-1101 q0 -104 45 -156q41 -43 100 -43h88v-256h-321q-102 0 -152 63q-35 45 -41 68q-190 -162 -545 -162q-133 0 -229 43v244q92 -37 231 -37q92 0 166 45z" />
<glyph unicode="&#xfedf;&#xfe8e;" horiz-adv-x="1370" arabic-form="isolated" d="M76 1409h325l383 -958q29 51 45 98q33 133 33 321v686h322v-722q0 -305 -125 -519q-51 -92 -119 -155q-197 -190 -582 -191q-133 0 -229 43v244q92 -37 231 -37q92 0 166 45z" />
<glyph unicode="&#xfee0;&#xfe8e;" horiz-adv-x="1398" arabic-form="final" d="M76 1409h325l383 -958q29 51 45 98q33 133 33 321v686h322v-1101q0 -104 45 -156q41 -43 100 -43h88v-256h-321q-102 0 -152 63q-35 45 -41 68q-190 -162 -545 -162q-133 0 -229 43v244q92 -37 231 -37q92 0 166 45z" />
<glyph unicode="&#x66e;" horiz-adv-x="690" d="M-18 0v256h88q61 0 100 43q45 51 45 156v145h322v-229q0 -180 -62 -279q-58 -92 -172 -92h-321z" />
<glyph unicode="&#x66e;" horiz-adv-x="751" d="M-18 0v256h88q61 0 100 43q45 51 45 156v145h322v-145q0 -104 45 -156q41 -43 100 -43h88v-256h-225q-96 0 -168 109q-68 -109 -168 -109h-227z" />
<glyph unicode="&#x66e;" horiz-adv-x="1949" d="M117 383q0 139 57 229h322q-45 -92 -45 -184q0 -90 170 -156q63 -25 139 -24q180 0 325 47q221 74 263 158q57 113 26 217h324q14 -70 14 -121q0 -150 47 -223q47 -70 144 -70h65v-256h-117q-242 0 -333 162q-41 -53 -181 -92q-260 -76 -600 -80q-205 0 -323 28 q-297 78 -297 365z" />
<glyph unicode="&#x66f;" horiz-adv-x="1204" d="M-18 0v256h518q57 0 88 8q72 20 94 90q0 -6 -111 -6q-209 0 -284 72q-88 82 -88 217q0 37 8 94q25 162 155 217q98 43 236 43q215 0 305 -55q72 -47 127 -211q31 -90 31 -260q0 -150 -103 -311q-43 -66 -170 -117q-88 -37 -217 -37h-589zM520 655q0 -39 33 -67 q18 -18 63.5 -18.5t71.5 22.5q33 27 33 65q0 61 -45 88q-23 14 -64 15q-43 0 -67.5 -29t-24.5 -76z" />
<glyph unicode="&#x66f;" horiz-adv-x="1325" d="M-18 0v256h43q182 0 325 20q-150 129 -149 256q0 150 32 236q45 117 125 158q127 66 305.5 65.5t305.5 -65.5q78 -39 125 -158q33 -86 32 -236q0 -127 -149 -256q143 -20 326 -20h43v-256h-99q-180 0 -315 14q-170 18 -268 70q-98 -51 -269 -70q-135 -14 -317 -14h-96z M541 571q0 -104 123 -155q123 51 122 155q0 80 -41 134q-20 31 -81.5 30.5t-81.5 -30.5q-41 -58 -41 -134z" />
<glyph unicode="&#x66f;" horiz-adv-x="1660" d="M96 -66q6 115 43 166h322q-47 -45 -47 -108q0 -55 10 -86q55 -150 207 -150q238 0 389 99q100 66 121 145q-51 0 -111 2q-200 6 -282 86q-88 82 -89 215q0 53 7 96q25 162 155 217q98 43 238 43q221 0 305 -57q82 -55 127 -209q18 -59 25 -137h163v-256h-182 q-20 -119 -80 -213q-84 -131 -243 -193q-250 -98 -547 -94q-344 4 -461 193q-76 120 -70 241zM981 340q0 -45 31 -64q37 -20 63 -20h111q0 33 -4 70q-6 40 -49 80q-23 23 -62 22q-37 0 -63 -31q-27 -28 -27 -57z" />
<glyph unicode="&#x67c;" horiz-adv-x="690" d="M178 -80q0 94 57 158q53 61 139.5 61t141.5 -61q55 -66 55 -158t-55 -156q-57 -63 -141 -63t-140 63q-57 64 -57 156zM297 -80q0 -35 22.5 -61.5t55.5 -26.5q35 0 57 26.5t22 61.5q0 37 -22 64q-20 25 -57 24q-34 0 -56 -24q-22 -27 -22 -64zM197 850v150h135v-150h-135z M422 850v150h135v-150h-135zM-18 0v256h88q61 0 100 43q45 51 45 156v145h322v-229q0 -180 -62 -279q-58 -92 -172 -92h-321z" />
<glyph unicode="&#x67c;" horiz-adv-x="751" d="M178 -31q0 94 57 158q53 61 139.5 61t141.5 -61q55 -66 55 -158t-55 -156q-57 -63 -141 -63t-140 63q-57 64 -57 156zM297 -31q0 -35 22.5 -61.5t55.5 -26.5q35 0 57 26.5t22 61.5q0 37 -22 64q-20 25 -57 24q-34 0 -56 -24q-22 -27 -22 -64zM197 850v150h135v-150h-135z M422 850v150h135v-150h-135zM-18 0v256h88q61 0 100 43q45 51 45 156v145h322v-145q0 -104 45 -156q41 -43 100 -43h88v-256h-225q-96 0 -168 109q-68 -109 -168 -109h-227z" />
<glyph unicode="&#x67c;" horiz-adv-x="1949" d="M698 700v150h135v-150h-135zM923 700v150h135v-150h-135zM117 383q0 139 57 229h322q-45 -92 -45 -184q0 -90 170 -156q63 -25 139 -24q180 0 325 47q221 74 263 158q57 113 26 217h324q14 -70 14 -121q0 -150 47 -223q47 -70 144 -70h65v-256h-117q-242 0 -333 162 q-41 -53 -181 -92q-260 -76 -600 -80q-205 0 -323 28q-297 78 -297 365zM680 -131q0 94 57 158q53 61 139.5 61t141.5 -61q55 -66 55 -158t-55 -156q-57 -63 -141 -63t-140 63q-57 64 -57 156zM799 -131q0 -35 22.5 -61.5t55.5 -26.5q35 0 57 26.5t22 61.5q0 37 -22 64 q-20 25 -57 24q-34 0 -56 -24q-22 -27 -22 -64z" />
<glyph unicode="&#x67d;" horiz-adv-x="690" d="M197 1159v150h135v-150h-135zM310 1059h135v-150h-135v150zM422 1159v150h135v-150h-135zM-18 0v256h88q61 0 100 43q45 51 45 156v145h322v-229q0 -180 -62 -279q-58 -92 -172 -92h-321z" />
<glyph unicode="&#x67d;" horiz-adv-x="751" d="M197 1159v150h135v-150h-135zM310 1059h135v-150h-135v150zM422 1159v150h135v-150h-135zM-18 0v256h88q61 0 100 43q45 51 45 156v145h322v-145q0 -104 45 -156q41 -43 100 -43h88v-256h-225q-96 0 -168 109q-68 -109 -168 -109h-227z" />
<glyph unicode="&#x67d;" horiz-adv-x="1949" d="M698 1010v150h135v-150h-135zM811 910h135v-150h-135v150zM923 1010v150h135v-150h-135zM117 383q0 139 57 229h322q-45 -92 -45 -184q0 -90 170 -156q63 -25 139 -24q180 0 325 47q221 74 263 158q57 113 26 217h324q14 -70 14 -121q0 -150 47 -223q47 -70 144 -70h65 v-256h-117q-242 0 -333 162q-41 -53 -181 -92q-260 -76 -600 -80q-205 0 -323 28q-297 78 -297 365z" />
<glyph unicode="&#x681;" horiz-adv-x="1327" d="M497 1196q2 106 49 147q45 41 162 41q57 0 115 -22v-125q-61 20 -115 20q-35 0 -55 -10q-27 -16 -27 -61q0 -53 58 -68q25 -8 49 -2l98 21v-129l-328 -76v127l70 16q-47 12 -61 45q-15 31 -15 76zM-18 0v256h90q184 0 311 35q125 37 225 104q72 51 172 109 q-72 27 -170 41q-80 12 -223 24q-57 6 -217 -4v256q86 8 131 8q211 0 389 -34q229 -45 467 -123v-256q-66 -25 -182 -99q-133 -88 -238 -167q-100 -78 -295 -115q-180 -35 -346 -35h-114z" />
<glyph unicode="&#x681;" horiz-adv-x="1327" d="M497 1196q2 106 49 147q45 41 162 41q57 0 115 -22v-125q-61 20 -115 20q-35 0 -55 -10q-27 -16 -27 -61q0 -53 58 -68q25 -8 49 -2l98 21v-129l-328 -76v127l70 16q-47 12 -61 45q-15 31 -15 76zM-18 0v256h90q184 0 311 35q125 37 225 104q72 51 172 109 q-72 27 -170 41q-80 12 -223 24q-57 6 -217 -4v256q86 8 131 8q211 0 389 -34q229 -45 467 -123v-256l-41 -19q27 -59 39 -73q53 -68 131 -68h60v-256h-76q-182 0 -281 117q-51 63 -90 151q-70 -55 -162 -118q-119 -80 -295 -115q-180 -35 -346 -35h-114z" />
<glyph unicode="&#x681;" horiz-adv-x="1327" d="M454 1294q2 106 49 147q45 41 162 41q57 0 115 -22v-125q-61 20 -115 20q-35 0 -55 -10q-27 -16 -27 -61q0 -53 58 -68q25 -8 49 -2l98 21v-129l-328 -76v127l70 16q-47 12 -61 45q-15 31 -15 76zM141 551v256q242 63 424 63q301 0 578 -39v-256q-4 0 -12.5 1.5 t-12.5 1.5h-26q0 -61 63 -203q55 -119 131 -119h60v-256h-76q-145 0 -252 150q-63 86 -119 210q-41 96 -59 181q-100 -35 -174 -103q-182 -162 -183 -362q0 -120 92 -228q80 -92 295 -92q268 0 457 154v-277q-145 -133 -453 -133q-391 0 -573 199q-139 152 -139 377 q0 180 125 350q92 126 270 203q-74 3 -209 -19q-119 -18 -207 -59z" />
<glyph unicode="&#x682;" horiz-adv-x="1327" d="M602 1260v150h135v-150h-135zM602 1160h135v-150h-135v150zM-18 0v256h90q184 0 311 35q125 37 225 104q72 51 172 109q-72 27 -170 41q-80 12 -223 24q-57 6 -217 -4v256q86 8 131 8q211 0 389 -34q229 -45 467 -123v-256q-66 -25 -182 -99q-133 -88 -238 -167 q-100 -78 -295 -115q-180 -35 -346 -35h-114z" />
<glyph unicode="&#x682;" horiz-adv-x="1327" d="M602 1260v150h135v-150h-135zM602 1160h135v-150h-135v150zM-18 0v256h90q184 0 311 35q125 37 225 104q72 51 172 109q-72 27 -170 41q-80 12 -223 24q-57 6 -217 -4v256q86 8 131 8q211 0 389 -34q229 -45 467 -123v-256l-41 -19q27 -59 39 -73q53 -68 131 -68h60v-256 h-76q-182 0 -281 117q-51 63 -90 151q-70 -55 -162 -118q-119 -80 -295 -115q-180 -35 -346 -35h-114z" />
<glyph unicode="&#x682;" horiz-adv-x="1327" d="M557 1360v150h135v-150h-135zM557 1260h135v-150h-135v150zM141 551v256q242 63 424 63q301 0 578 -39v-256q-4 0 -12.5 1.5t-12.5 1.5h-26q0 -61 63 -203q55 -119 131 -119h60v-256h-76q-145 0 -252 150q-63 86 -119 210q-41 96 -59 181q-100 -35 -174 -103 q-182 -162 -183 -362q0 -120 92 -228q80 -92 295 -92q268 0 457 154v-277q-145 -133 -453 -133q-391 0 -573 199q-139 152 -139 377q0 180 125 350q92 126 270 203q-74 3 -209 -19q-119 -18 -207 -59z" />
<glyph unicode="&#x685;" horiz-adv-x="1327" d="M496 1010v150h135v-150h-135zM609 1260v149h135v-149h-135zM721 1010v150h135v-150h-135zM-18 0v256h90q184 0 311 35q125 37 225 104q72 51 172 109q-72 27 -170 41q-80 12 -223 24q-57 6 -217 -4v256q86 8 131 8q211 0 389 -34q229 -45 467 -123v-256q-66 -25 -182 -99 q-133 -88 -238 -167q-100 -78 -295 -115q-180 -35 -346 -35h-114z" />
<glyph unicode="&#x685;" horiz-adv-x="1327" d="M496 1010v150h135v-150h-135zM609 1260v149h135v-149h-135zM721 1010v150h135v-150h-135zM-18 0v256h90q184 0 311 35q125 37 225 104q72 51 172 109q-72 27 -170 41q-80 12 -223 24q-57 6 -217 -4v256q86 8 131 8q211 0 389 -34q229 -45 467 -123v-256l-41 -19 q27 -59 39 -73q53 -68 131 -68h60v-256h-76q-182 0 -281 117q-51 63 -90 151q-70 -55 -162 -118q-119 -80 -295 -115q-180 -35 -346 -35h-114z" />
<glyph unicode="&#x685;" horiz-adv-x="1327" d="M451 1110v150h135v-150h-135zM564 1360v149h135v-149h-135zM676 1110v150h135v-150h-135zM141 551v256q242 63 424 63q301 0 578 -39v-256q-4 0 -12.5 1.5t-12.5 1.5h-26q0 -61 63 -203q55 -119 131 -119h60v-256h-76q-145 0 -252 150q-63 86 -119 210q-41 96 -59 181 q-100 -35 -174 -103q-182 -162 -183 -362q0 -120 92 -228q80 -92 295 -92q268 0 457 154v-277q-145 -133 -453 -133q-391 0 -573 199q-139 152 -139 377q0 180 125 350q92 126 270 203q-74 3 -209 -19q-119 -18 -207 -59z" />
<glyph unicode="&#x692;" horiz-adv-x="1144" d="M440 1136h162l117 -194l117 194h161l-176 -325h-205zM-76 -244q276 0 418 68q139 68 211 176q63 100 63 285q0 143 -47 266h322l18 -68q31 -127 82 -184q41 -43 107 -43h67v-256h-116q-74 0 -138 27q-23 -82 -55 -140q-113 -188 -313 -286q-203 -100 -619 -101v256z" />
<glyph unicode="&#x695;" horiz-adv-x="1253" d="M831 -174h162l117 -194l117 194h161l-176 -325h-205zM-76 -244q276 0 418 68q139 68 211 176q63 100 63 285q0 143 -47 266h322l18 -68q31 -127 82 -184q41 -43 107 -43h176v-256h-225q-74 0 -138 27q-23 -82 -55 -140q-113 -188 -313 -286q-203 -100 -619 -101v256z" />
<glyph unicode="&#x6a1;" horiz-adv-x="1204" d="M-18 0v256h518q57 0 88 8q72 20 94 90q0 -6 -111 -6q-209 0 -284 72q-88 82 -88 217q0 37 8 94q25 162 155 217q98 43 236 43q215 0 305 -55q72 -47 127 -211q31 -90 31 -260q0 -150 -103 -311q-43 -66 -170 -117q-88 -37 -217 -37h-589zM520 655q0 -39 33 -67 q18 -18 63.5 -18.5t71.5 22.5q33 27 33 65q0 61 -45 88q-23 14 -64 15q-43 0 -67.5 -29t-24.5 -76z" />
<glyph unicode="&#x6a1;" horiz-adv-x="1325" d="M-18 0v256h43q182 0 325 20q-150 129 -149 256q0 150 32 236q45 117 125 158q127 66 305.5 65.5t305.5 -65.5q78 -39 125 -158q33 -86 32 -236q0 -127 -149 -256q143 -20 326 -20h43v-256h-99q-180 0 -315 14q-170 18 -268 70q-98 -51 -269 -70q-135 -14 -317 -14h-96z M541 571q0 -104 123 -155q123 51 122 155q0 80 -41 134q-20 31 -81.5 30.5t-81.5 -30.5q-41 -58 -41 -134z" />
<glyph unicode="&#x6a1;" horiz-adv-x="2193" d="M117 313q0 141 57 232h322q-45 -92 -45 -185q0 -72 170 -137q63 -25 297 -24q301 0 366 10q-8 8 -20 24q-125 158 -125 334q0 106 20 168q43 133 148 199q90 57 225 57q178 0 305 -65q80 -41 125 -158q33 -86 33 -236q0 -133 -80 -262q106 -14 256 -14h43v-256h-96 q-182 0 -318 14q-74 8 -110 15l-64 -29q-88 -53 -731 -57q-369 0 -481 26q-297 74 -297 344zM1454 575q0 -100 62 -163q25 -29 71 -50q68 95 68 209q0 76 -45 136q-20 29 -64 28q-45 0 -67 -41q-25 -39 -25 -119z" />
<glyph unicode="&#x6b5;" horiz-adv-x="690" d="M96 1986h162l117 -194l117 194h161l-176 -325h-205zM-18 0v256h88q61 0 100 43q45 51 45 156v1101h322v-1185q0 -180 -62 -279q-58 -92 -172 -92h-321z" />
<glyph unicode="&#x6b5;" horiz-adv-x="751" d="M96 1986h162l117 -194l117 194h161l-176 -325h-205zM-18 0v256h88q61 0 100 43q45 51 45 156v1101h322v-1101q0 -104 45 -156q41 -43 100 -43h88v-256h-225q-96 0 -168 109q-68 -109 -168 -109h-227z" />
<glyph unicode="&#x6b5;" horiz-adv-x="1644" d="M993 1986h162l117 -194l117 194h161l-176 -325h-205zM129 76q0 139 57 229h322q-63 -100 -57 -229q4 -117 147 -150q117 -29 244 19q143 51 198 129q72 100 72 352v1130h322v-1130q0 -76 45 -127q41 -43 100 -43h84v-256h-221q-59 0 -70 16q-102 -213 -371 -295 q-315 -98 -608 -12q-264 78 -264 367z" />
<glyph unicode="&#x6ba;" horiz-adv-x="690" d="M309 836v150h135v-150h-135zM-18 0v256h88q61 0 100 43q45 51 45 156v145h322v-229q0 -180 -62 -279q-58 -92 -172 -92h-321z" />
<glyph unicode="&#x6ba;" horiz-adv-x="751" d="M309 836v150h135v-150h-135zM-18 0v256h88q61 0 100 43q45 51 45 156v145h322v-145q0 -104 45 -156q41 -43 100 -43h88v-256h-225q-96 0 -168 109q-68 -109 -168 -109h-227z" />
<glyph unicode="&#x6bf;" horiz-adv-x="1327" d="M561 936v150h135v-150h-135zM451 -250v150h135v-150h-135zM564 -350h135v-150h-135v150zM676 -250v150h135v-150h-135zM-18 0v256h90q184 0 311 35q125 37 225 104q72 51 172 109q-72 27 -170 41q-80 12 -223 24q-57 6 -217 -4v256q86 8 131 8q211 0 389 -34 q229 -45 467 -123v-256q-66 -25 -182 -99q-133 -88 -238 -167q-100 -78 -295 -115q-180 -35 -346 -35h-114z" />
<glyph unicode="&#x6bf;" horiz-adv-x="1327" d="M561 936v150h135v-150h-135zM451 -250v150h135v-150h-135zM564 -350h135v-150h-135v150zM676 -250v150h135v-150h-135zM-18 0v256h90q184 0 311 35q125 37 225 104q72 51 172 109q-72 27 -170 41q-80 12 -223 24q-57 6 -217 -4v256q86 8 131 8q211 0 389 -34 q229 -45 467 -123v-256l-41 -19q27 -59 39 -73q53 -68 131 -68h60v-256h-76q-182 0 -281 117q-51 63 -90 151q-70 -55 -162 -118q-119 -80 -295 -115q-180 -35 -346 -35h-114z" />
<glyph unicode="&#x6bf;" horiz-adv-x="1327" d="M561 1034v150h135v-150h-135zM141 551v256q242 63 424 63q301 0 578 -39v-256q-4 0 -12.5 1.5t-12.5 1.5h-26q0 -61 63 -203q55 -119 131 -119h60v-256h-76q-145 0 -252 150q-63 86 -119 210q-41 96 -59 181q-100 -35 -174 -103q-182 -162 -183 -362q0 -120 92 -228 q80 -92 295 -92q268 0 457 154v-277q-145 -133 -453 -133q-391 0 -573 199q-139 152 -139 377q0 180 125 350q92 126 270 203q-74 3 -209 -19q-119 -18 -207 -59zM567 59v150h135v-150h-135zM680 -41h135v-150h-135v150zM792 59v150h135v-150h-135z" />
<glyph unicode="&#x6ce;" horiz-adv-x="690" d="M96 1087h162l117 -194l117 194h161l-176 -325h-205zM-18 0v256h88q61 0 100 43q45 51 45 156v145h322v-229q0 -180 -62 -279q-58 -92 -172 -92h-321zM197 -340v150h135v-150h-135zM422 -340v150h135v-150h-135z" />
<glyph unicode="&#x6ce;" horiz-adv-x="751" d="M96 1087h162l117 -194l117 194h161l-176 -325h-205zM-18 0v256h88q61 0 100 43q45 51 45 156v145h322v-145q0 -104 45 -156q41 -43 100 -43h88v-256h-225q-96 0 -168 109q-68 -109 -168 -109h-227zM197 -340v150h135v-150h-135zM422 -340v150h135v-150h-135z" />
<glyph unicode="&#x6ce;" horiz-adv-x="1863" d="M395 938h162l117 -194l117 194h161l-176 -325h-205zM117 125q0 139 57 229h322q-63 -98 -60 -229q2 -68 119 -111q41 -16 190 -16q164 0 285 35q131 39 131 73q0 23 -24 44q-55 41 -60 47q-27 35 -26 120q0 100 43 146q66 76 110 96q70 35 205 35q231 0 324 -184 q78 -154 125 -154h24v-256h-53q-156 0 -254 180q-80 147 -141 148q-16 0 -25 -4q-39 -18 -39 -56q0 -43 51 -67q59 -29 60 -148q0 -178 -383 -270q-176 -41 -334 -41q-311 0 -383 29q-264 104 -264 354z" />
<glyph unicode="&#x6d5;" horiz-adv-x="1116" d="M121 285q0 190 192 327q96 68 279 84q-4 45 -4 54h321q4 -207 33 -342q18 -84 55 -109q61 -43 70 -43h70v-256h-203q-80 0 -146 35q-59 31 -75 65q-96 -63 -310 -63q-53 0 -102 14q-180 50 -180 234zM442 328q0 -49 62 -49q84 0 129 38q-16 51 -21 91q-2 10 -5 28.5 t-3 22.5q-82 -8 -123 -43q-39 -33 -39 -88z" />
<glyph unicode="&#x67b;" horiz-adv-x="1851" arabic-form="isolated" d="M117 383q0 139 57 229h322q-45 -92 -45 -184q0 -90 170 -156q63 -25 139 -24q180 0 325 47q217 70 263 158q57 113 26 217h324q47 -256 -56 -398q-100 -141 -305 -202q-254 -76 -600 -80q-205 0 -323 28q-297 78 -297 365zM807 -250v150h135v-150h-135zM807 -350h135 v-150h-135v150z" />
<glyph unicode="&#x67b;" horiz-adv-x="1949" arabic-form="final" d="M807 -250v150h135v-150h-135zM807 -350h135v-150h-135v150zM117 383q0 139 57 229h322q-45 -92 -45 -184q0 -90 170 -156q63 -25 139 -24q180 0 325 47q221 74 263 158q57 113 26 217h324q14 -70 14 -121q0 -150 47 -223q47 -70 144 -70h65v-256h-117q-242 0 -333 162 q-41 -53 -181 -92q-260 -76 -600 -80q-205 0 -323 28q-297 78 -297 365z" />
<glyph unicode="&#x67b;" horiz-adv-x="690" arabic-form="initial" d="M303 -250v150h135v-150h-135zM303 -350h135v-150h-135v150zM-18 0v256h88q61 0 100 43q45 51 45 156v145h322v-229q0 -180 -62 -279q-58 -92 -172 -92h-321z" />
<glyph unicode="&#x67b;" horiz-adv-x="751" arabic-form="medial" d="M303 -250v150h135v-150h-135zM303 -350h135v-150h-135v150zM-18 0v256h88q61 0 100 43q45 51 45 156v145h322v-145q0 -104 45 -156q41 -43 100 -43h88v-256h-225q-96 0 -168 109q-68 -109 -168 -109h-227z" />
<glyph unicode="&#x67e;" horiz-adv-x="1851" arabic-form="isolated" d="M117 383q0 139 57 229h322q-45 -92 -45 -184q0 -90 170 -156q63 -25 139 -24q180 0 325 47q217 70 263 158q57 113 26 217h324q47 -256 -56 -398q-100 -141 -305 -202q-254 -76 -600 -80q-205 0 -323 28q-297 78 -297 365zM698 -250v150h135v-150h-135zM811 -350h135 v-150h-135v150zM923 -250v150h135v-150h-135z" />
<glyph unicode="&#x67e;" horiz-adv-x="1949" arabic-form="final" d="M698 -250v150h135v-150h-135zM811 -350h135v-150h-135v150zM923 -250v150h135v-150h-135zM117 383q0 139 57 229h322q-45 -92 -45 -184q0 -90 170 -156q63 -25 139 -24q180 0 325 47q221 74 263 158q57 113 26 217h324q14 -70 14 -121q0 -150 47 -223q47 -70 144 -70h65 v-256h-117q-242 0 -333 162q-41 -53 -181 -92q-260 -76 -600 -80q-205 0 -323 28q-297 78 -297 365z" />
<glyph unicode="&#x67e;" horiz-adv-x="690" arabic-form="initial" d="M197 -250v150h135v-150h-135zM310 -350h135v-150h-135v150zM422 -250v150h135v-150h-135zM-18 0v256h88q61 0 100 43q45 51 45 156v145h322v-229q0 -180 -62 -279q-58 -92 -172 -92h-321z" />
<glyph unicode="&#x67e;" horiz-adv-x="751" arabic-form="medial" d="M197 -250v150h135v-150h-135zM310 -350h135v-150h-135v150zM422 -250v150h135v-150h-135zM-18 0v256h88q61 0 100 43q45 51 45 156v145h322v-145q0 -104 45 -156q41 -43 100 -43h88v-256h-225q-96 0 -168 109q-68 -109 -168 -109h-227z" />
<glyph unicode="&#x680;" horiz-adv-x="1851" arabic-form="isolated" d="M117 383q0 139 57 229h322q-45 -92 -45 -184q0 -90 170 -156q63 -25 139 -24q180 0 325 47q217 70 263 158q57 113 26 217h324q47 -256 -56 -398q-100 -141 -305 -202q-254 -76 -600 -80q-205 0 -323 28q-297 78 -297 365zM698 -250v150h135v-150h-135zM698 -350h135 v-150h-135v150zM923 -250v150h135v-150h-135zM923 -350h135v-150h-135v150z" />
<glyph unicode="&#x680;" horiz-adv-x="1949" arabic-form="final" d="M698 -250v150h135v-150h-135zM698 -350h135v-150h-135v150zM923 -250v150h135v-150h-135zM923 -350h135v-150h-135v150zM117 383q0 139 57 229h322q-45 -92 -45 -184q0 -90 170 -156q63 -25 139 -24q180 0 325 47q221 74 263 158q57 113 26 217h324q14 -70 14 -121 q0 -150 47 -223q47 -70 144 -70h65v-256h-117q-242 0 -333 162q-41 -53 -181 -92q-260 -76 -600 -80q-205 0 -323 28q-297 78 -297 365z" />
<glyph unicode="&#x680;" horiz-adv-x="690" arabic-form="initial" d="M197 -250v150h135v-150h-135zM197 -350h135v-150h-135v150zM422 -250v150h135v-150h-135zM422 -350h135v-150h-135v150zM-18 0v256h88q61 0 100 43q45 51 45 156v145h322v-229q0 -180 -62 -279q-58 -92 -172 -92h-321z" />
<glyph unicode="&#x680;" horiz-adv-x="751" arabic-form="medial" d="M197 -250v150h135v-150h-135zM197 -350h135v-150h-135v150zM422 -250v150h135v-150h-135zM422 -350h135v-150h-135v150zM-18 0v256h88q61 0 100 43q45 51 45 156v145h322v-145q0 -104 45 -156q41 -43 100 -43h88v-256h-225q-96 0 -168 109q-68 -109 -168 -109h-227z" />
<glyph unicode="&#x67a;" horiz-adv-x="1851" arabic-form="isolated" d="M117 383q0 139 57 229h322q-45 -92 -45 -184q0 -90 170 -156q63 -25 139 -24q180 0 325 47q217 70 263 158q57 113 26 217h324q47 -256 -56 -398q-100 -141 -305 -202q-254 -76 -600 -80q-205 0 -323 28q-297 78 -297 365zM807 1010v150h135v-150h-135zM807 910h135v-150 h-135v150z" />
<glyph unicode="&#x67a;" horiz-adv-x="1949" arabic-form="final" d="M807 1010v150h135v-150h-135zM807 910h135v-150h-135v150zM117 383q0 139 57 229h322q-45 -92 -45 -184q0 -90 170 -156q63 -25 139 -24q180 0 325 47q221 74 263 158q57 113 26 217h324q14 -70 14 -121q0 -150 47 -223q47 -70 144 -70h65v-256h-117q-242 0 -333 162 q-41 -53 -181 -92q-260 -76 -600 -80q-205 0 -323 28q-297 78 -297 365z" />
<glyph unicode="&#x67a;" horiz-adv-x="690" arabic-form="initial" d="M303 1159v150h135v-150h-135zM303 1059h135v-150h-135v150zM-18 0v256h88q61 0 100 43q45 51 45 156v145h322v-229q0 -180 -62 -279q-58 -92 -172 -92h-321z" />
<glyph unicode="&#x67a;" horiz-adv-x="751" arabic-form="medial" d="M303 1159v150h135v-150h-135zM303 1059h135v-150h-135v150zM-18 0v256h88q61 0 100 43q45 51 45 156v145h322v-145q0 -104 45 -156q41 -43 100 -43h88v-256h-225q-96 0 -168 109q-68 -109 -168 -109h-227z" />
<glyph unicode="&#x67f;" horiz-adv-x="1851" arabic-form="isolated" d="M117 383q0 139 57 229h322q-45 -92 -45 -184q0 -90 170 -156q63 -25 139 -24q180 0 325 47q217 70 263 158q57 113 26 217h324q47 -256 -56 -398q-100 -141 -305 -202q-254 -76 -600 -80q-205 0 -323 28q-297 78 -297 365zM698 1010v150h135v-150h-135zM698 910h135v-150 h-135v150zM923 1010v150h135v-150h-135zM923 910h135v-150h-135v150z" />
<glyph unicode="&#x67f;" horiz-adv-x="1949" arabic-form="final" d="M698 1010v150h135v-150h-135zM698 910h135v-150h-135v150zM923 1010v150h135v-150h-135zM923 910h135v-150h-135v150zM117 383q0 139 57 229h322q-45 -92 -45 -184q0 -90 170 -156q63 -25 139 -24q180 0 325 47q221 74 263 158q57 113 26 217h324q14 -70 14 -121 q0 -150 47 -223q47 -70 144 -70h65v-256h-117q-242 0 -333 162q-41 -53 -181 -92q-260 -76 -600 -80q-205 0 -323 28q-297 78 -297 365z" />
<glyph unicode="&#x67f;" horiz-adv-x="690" arabic-form="initial" d="M197 1159v150h135v-150h-135zM197 1059h135v-150h-135v150zM422 1159v150h135v-150h-135zM422 1059h135v-150h-135v150zM-18 0v256h88q61 0 100 43q45 51 45 156v145h322v-229q0 -180 -62 -279q-58 -92 -172 -92h-321z" />
<glyph unicode="&#x67f;" horiz-adv-x="751" arabic-form="medial" d="M197 1159v150h135v-150h-135zM197 1059h135v-150h-135v150zM422 1159v150h135v-150h-135zM422 1059h135v-150h-135v150zM-18 0v256h88q61 0 100 43q45 51 45 156v145h322v-145q0 -104 45 -156q41 -43 100 -43h88v-256h-225q-96 0 -168 109q-68 -109 -168 -109h-227z" />
<glyph unicode="&#x679;" horiz-adv-x="1851" arabic-form="isolated" d="M117 383q0 139 57 229h322q-45 -92 -45 -184q0 -90 170 -156q63 -25 139 -24q180 0 325 47q217 70 263 158q57 113 26 217h324q47 -256 -56 -398q-100 -141 -305 -202q-254 -76 -600 -80q-205 0 -323 28q-297 78 -297 365zM639 702v136h55v389h123v-281q68 84 141.5 84 t96.5 -18q61 -49 61 -125q0 -94 -59 -146q-45 -39 -154 -39h-157h-107zM852 838h31q37 0 80 14q35 16 35 34.5t-6.5 28t-20.5 7.5q-20 -4 -43 -15q-43 -22 -76 -69z" />
<glyph unicode="&#x679;" horiz-adv-x="1949" arabic-form="final" d="M639 702v136h55v389h123v-281q68 84 141.5 84t96.5 -18q61 -49 61 -125q0 -94 -59 -146q-45 -39 -154 -39h-157h-107zM852 838h31q37 0 80 14q35 16 35 34.5t-6.5 28t-20.5 7.5q-20 -4 -43 -15q-43 -22 -76 -69zM117 383q0 139 57 229h322q-45 -92 -45 -184 q0 -90 170 -156q63 -25 139 -24q180 0 325 47q221 74 263 158q57 113 26 217h324q14 -70 14 -121q0 -150 47 -223q47 -70 144 -70h65v-256h-117q-242 0 -333 162q-41 -53 -181 -92q-260 -76 -600 -80q-205 0 -323 28q-297 78 -297 365z" />
<glyph unicode="&#x679;" horiz-adv-x="690" arabic-form="initial" d="M135 854v136h55v389h123v-281q68 84 141.5 84t96.5 -18q61 -49 61 -125q0 -94 -59 -146q-45 -39 -154 -39h-157h-107zM348 990h31q37 0 80 14q35 16 35 34.5t-6.5 28t-20.5 7.5q-20 -4 -43 -15q-43 -22 -76 -69zM-18 0v256h88q61 0 100 43q45 51 45 156v145h322v-229 q0 -180 -62 -279q-58 -92 -172 -92h-321z" />
<glyph unicode="&#x679;" horiz-adv-x="751" arabic-form="medial" d="M135 854v136h55v389h123v-281q68 84 141.5 84t96.5 -18q61 -49 61 -125q0 -94 -59 -146q-45 -39 -154 -39h-157h-107zM348 990h31q37 0 80 14q35 16 35 34.5t-6.5 28t-20.5 7.5q-20 -4 -43 -15q-43 -22 -76 -69zM-18 0v256h88q61 0 100 43q45 51 45 156v145h322v-145 q0 -104 45 -156q41 -43 100 -43h88v-256h-225q-96 0 -168 109q-68 -109 -168 -109h-227z" />
<glyph unicode="&#x6a4;" horiz-adv-x="2140" arabic-form="isolated" d="M117 313q0 117 57 232h322q-66 -137 -45 -185q41 -102 170 -127q121 -25 297 -24q203 0 456 47q209 41 242 98q-47 -20 -111 -20q-199 2 -284 86q-88 82 -88 217q0 37 8 94q20 158 155 217q98 43 236 43q217 0 305 -55q70 -43 127 -211q31 -98 31 -260q0 -184 -103 -311 q-88 -106 -266 -144q-285 -59 -731 -59q-451 0 -481 8q-297 75 -297 354zM1454 655q0 -39 33 -67q20 -18 63 -19q45 0 72 23q33 29 33 65q0 61 -45 88q-23 14 -64 15q-43 0 -67 -29q-25 -25 -25 -76zM1372 1210v150h135v-150h-135zM1485 1460v149h135v-149h-135zM1597 1210 v150h135v-150h-135z" />
<glyph unicode="&#x6a4;" horiz-adv-x="2193" arabic-form="final" d="M1372 1210v150h135v-150h-135zM1485 1460v149h135v-149h-135zM1597 1210v150h135v-150h-135zM117 313q0 141 57 232h322q-45 -92 -45 -185q0 -72 170 -137q63 -25 297 -24q301 0 366 10q-8 8 -20 24q-125 158 -125 334q0 106 20 168q43 133 148 199q90 57 225 57 q178 0 305 -65q80 -41 125 -158q33 -86 33 -236q0 -133 -80 -262q106 -14 256 -14h43v-256h-96q-182 0 -318 14q-74 8 -110 15l-64 -29q-88 -53 -731 -57q-369 0 -481 26q-297 74 -297 344zM1454 575q0 -100 62 -163q25 -29 71 -50q68 95 68 209q0 76 -45 136q-20 29 -64 28 q-45 0 -67 -41q-25 -39 -25 -119z" />
<glyph unicode="&#x6a4;" horiz-adv-x="1204" arabic-form="initial" d="M428 1210v150h135v-150h-135zM541 1460v149h135v-149h-135zM653 1210v150h135v-150h-135zM-18 0v256h518q57 0 88 8q72 20 94 90q0 -6 -111 -6q-209 0 -284 72q-88 82 -88 217q0 37 8 94q25 162 155 217q98 43 236 43q215 0 305 -55q72 -47 127 -211q31 -90 31 -260 q0 -150 -103 -311q-43 -66 -170 -117q-88 -37 -217 -37h-589zM520 655q0 -39 33 -67q18 -18 63.5 -18.5t71.5 22.5q33 27 33 65q0 61 -45 88q-23 14 -64 15q-43 0 -67.5 -29t-24.5 -76z" />
<glyph unicode="&#x6a4;" horiz-adv-x="1325" arabic-form="medial" d="M483 1210v150h135v-150h-135zM596 1460v149h135v-149h-135zM708 1210v150h135v-150h-135zM-18 0v256h43q182 0 325 20q-150 129 -149 256q0 150 32 236q45 117 125 158q127 66 305.5 65.5t305.5 -65.5q78 -39 125 -158q33 -86 32 -236q0 -127 -149 -256q143 -20 326 -20 h43v-256h-99q-180 0 -315 14q-170 18 -268 70q-98 -51 -269 -70q-135 -14 -317 -14h-96zM541 571q0 -104 123 -155q123 51 122 155q0 80 -41 134q-20 31 -81.5 30.5t-81.5 -30.5q-41 -58 -41 -134z" />
<glyph unicode="&#x6a6;" horiz-adv-x="2140" arabic-form="isolated" d="M117 313q0 117 57 232h322q-66 -137 -45 -185q41 -102 170 -127q121 -25 297 -24q203 0 456 47q209 41 242 98q-47 -20 -111 -20q-199 2 -284 86q-88 82 -88 217q0 37 8 94q20 158 155 217q98 43 236 43q217 0 305 -55q70 -43 127 -211q31 -98 31 -260q0 -184 -103 -311 q-88 -106 -266 -144q-285 -59 -731 -59q-451 0 -481 8q-297 75 -297 354zM1454 655q0 -39 33 -67q20 -18 63 -19q45 0 72 23q33 29 33 65q0 61 -45 88q-23 14 -64 15q-43 0 -67 -29q-25 -25 -25 -76zM1372 1460v150h135v-150h-135zM1372 1360h135v-150h-135v150zM1597 1460 v150h135v-150h-135zM1597 1360h135v-150h-135v150z" />
<glyph unicode="&#x6a6;" horiz-adv-x="2193" arabic-form="final" d="M1372 1460v150h135v-150h-135zM1372 1360h135v-150h-135v150zM1597 1460v150h135v-150h-135zM1597 1360h135v-150h-135v150zM117 313q0 141 57 232h322q-45 -92 -45 -185q0 -72 170 -137q63 -25 297 -24q301 0 366 10q-8 8 -20 24q-125 158 -125 334q0 106 20 168 q43 133 148 199q90 57 225 57q178 0 305 -65q80 -41 125 -158q33 -86 33 -236q0 -133 -80 -262q106 -14 256 -14h43v-256h-96q-182 0 -318 14q-74 8 -110 15l-64 -29q-88 -53 -731 -57q-369 0 -481 26q-297 74 -297 344zM1454 575q0 -100 62 -163q25 -29 71 -50 q68 95 68 209q0 76 -45 136q-20 29 -64 28q-45 0 -67 -41q-25 -39 -25 -119z" />
<glyph unicode="&#x6a6;" horiz-adv-x="1204" arabic-form="initial" d="M428 1460v150h135v-150h-135zM428 1360h135v-150h-135v150zM653 1460v150h135v-150h-135zM653 1360h135v-150h-135v150zM-18 0v256h518q57 0 88 8q72 20 94 90q0 -6 -111 -6q-209 0 -284 72q-88 82 -88 217q0 37 8 94q25 162 155 217q98 43 236 43q215 0 305 -55 q72 -47 127 -211q31 -90 31 -260q0 -150 -103 -311q-43 -66 -170 -117q-88 -37 -217 -37h-589zM520 655q0 -39 33 -67q18 -18 63.5 -18.5t71.5 22.5q33 27 33 65q0 61 -45 88q-23 14 -64 15q-43 0 -67.5 -29t-24.5 -76z" />
<glyph unicode="&#x6a6;" horiz-adv-x="1325" arabic-form="medial" d="M483 1460v150h135v-150h-135zM483 1360h135v-150h-135v150zM708 1460v150h135v-150h-135zM708 1360h135v-150h-135v150zM-18 0v256h43q182 0 325 20q-150 129 -149 256q0 150 32 236q45 117 125 158q127 66 305.5 65.5t305.5 -65.5q78 -39 125 -158q33 -86 32 -236 q0 -127 -149 -256q143 -20 326 -20h43v-256h-99q-180 0 -315 14q-170 18 -268 70q-98 -51 -269 -70q-135 -14 -317 -14h-96zM541 571q0 -104 123 -155q123 51 122 155q0 80 -41 134q-20 31 -81.5 30.5t-81.5 -30.5q-41 -58 -41 -134z" />
<glyph unicode="&#x684;" horiz-adv-x="1327" arabic-form="isolated" d="M141 551v256q242 63 424 63q301 0 578 -39v-256q-303 18 -477 -137q-182 -162 -183 -362q0 -120 92 -228q80 -92 295 -92q268 0 457 154v-277q-145 -133 -453 -133q-391 0 -573 199q-139 152 -139 377q0 180 125 350q92 126 270 203q-74 3 -209 -19q-119 -18 -207 -59z M827 190v150h135v-150h-135zM827 90h135v-150h-135v150z" />
<glyph unicode="&#x684;" horiz-adv-x="1327" arabic-form="final" d="M141 551v256q242 63 424 63q301 0 578 -39v-256q-4 0 -12.5 1.5t-12.5 1.5h-26q0 -61 63 -203q55 -119 131 -119h60v-256h-76q-145 0 -252 150q-63 86 -119 210q-41 96 -59 181q-100 -35 -174 -103q-182 -162 -183 -362q0 -120 92 -228q80 -92 295 -92q268 0 457 154 v-277q-145 -133 -453 -133q-391 0 -573 199q-139 152 -139 377q0 180 125 350q92 126 270 203q-74 3 -209 -19q-119 -18 -207 -59zM692 139v150h135v-150h-135zM692 39h135v-150h-135v150z" />
<glyph unicode="&#x684;" horiz-adv-x="1327" arabic-form="initial" d="M557 -250v150h135v-150h-135zM557 -350h135v-150h-135v150zM-18 0v256h90q184 0 311 35q125 37 225 104q72 51 172 109q-72 27 -170 41q-80 12 -223 24q-57 6 -217 -4v256q86 8 131 8q211 0 389 -34q229 -45 467 -123v-256q-66 -25 -182 -99q-133 -88 -238 -167 q-100 -78 -295 -115q-180 -35 -346 -35h-114z" />
<glyph unicode="&#x684;" horiz-adv-x="1327" arabic-form="medial" d="M557 -250v150h135v-150h-135zM557 -350h135v-150h-135v150zM-18 0v256h90q184 0 311 35q125 37 225 104q72 51 172 109q-72 27 -170 41q-80 12 -223 24q-57 6 -217 -4v256q86 8 131 8q211 0 389 -34q229 -45 467 -123v-256l-41 -19q27 -59 39 -73q53 -68 131 -68h60v-256 h-76q-182 0 -281 117q-51 63 -90 151q-70 -55 -162 -118q-119 -80 -295 -115q-180 -35 -346 -35h-114z" />
<glyph unicode="&#x683;" horiz-adv-x="1327" arabic-form="isolated" d="M141 551v256q242 63 424 63q301 0 578 -39v-256q-303 18 -477 -137q-182 -162 -183 -362q0 -120 92 -228q80 -92 295 -92q268 0 457 154v-277q-145 -133 -453 -133q-391 0 -573 199q-139 152 -139 377q0 180 125 350q92 126 270 203q-74 3 -209 -19q-119 -18 -207 -59z M721 49v150h135v-150h-135zM946 49v150h135v-150h-135z" />
<glyph unicode="&#x683;" horiz-adv-x="1327" arabic-form="final" d="M141 551v256q242 63 424 63q301 0 578 -39v-256q-4 0 -12.5 1.5t-12.5 1.5h-26q0 -61 63 -203q55 -119 131 -119h60v-256h-76q-145 0 -252 150q-63 86 -119 210q-41 96 -59 181q-100 -35 -174 -103q-182 -162 -183 -362q0 -120 92 -228q80 -92 295 -92q268 0 457 154 v-277q-145 -133 -453 -133q-391 0 -573 199q-139 152 -139 377q0 180 125 350q92 126 270 203q-74 3 -209 -19q-119 -18 -207 -59zM608 -25v150h135v-150h-135zM833 -25v150h135v-150h-135z" />
<glyph unicode="&#x683;" horiz-adv-x="1327" arabic-form="initial" d="M451 -240v150h135v-150h-135zM676 -240v150h135v-150h-135zM-18 0v256h90q184 0 311 35q125 37 225 104q72 51 172 109q-72 27 -170 41q-80 12 -223 24q-57 6 -217 -4v256q86 8 131 8q211 0 389 -34q229 -45 467 -123v-256q-66 -25 -182 -99q-133 -88 -238 -167 q-100 -78 -295 -115q-180 -35 -346 -35h-114z" />
<glyph unicode="&#x683;" horiz-adv-x="1327" arabic-form="medial" d="M451 -240v150h135v-150h-135zM676 -240v150h135v-150h-135zM-18 0v256h90q184 0 311 35q125 37 225 104q72 51 172 109q-72 27 -170 41q-80 12 -223 24q-57 6 -217 -4v256q86 8 131 8q211 0 389 -34q229 -45 467 -123v-256l-41 -19q27 -59 39 -73q53 -68 131 -68h60v-256 h-76q-182 0 -281 117q-51 63 -90 151q-70 -55 -162 -118q-119 -80 -295 -115q-180 -35 -346 -35h-114z" />
<glyph unicode="&#x686;" horiz-adv-x="1327" arabic-form="isolated" d="M141 551v256q242 63 424 63q301 0 578 -39v-256q-303 18 -477 -137q-182 -162 -183 -362q0 -120 92 -228q80 -92 295 -92q268 0 457 154v-277q-145 -133 -453 -133q-391 0 -573 199q-139 152 -139 377q0 180 125 350q92 126 270 203q-74 3 -209 -19q-119 -18 -207 -59z M721 139v150h135v-150h-135zM834 39h135v-150h-135v150zM946 139v150h135v-150h-135z" />
<glyph unicode="&#x686;" horiz-adv-x="1327" arabic-form="final" d="M141 551v256q242 63 424 63q301 0 578 -39v-256q-4 0 -12.5 1.5t-12.5 1.5h-26q0 -61 63 -203q55 -119 131 -119h60v-256h-76q-145 0 -252 150q-63 86 -119 210q-41 96 -59 181q-100 -35 -174 -103q-182 -162 -183 -362q0 -120 92 -228q80 -92 295 -92q268 0 457 154 v-277q-145 -133 -453 -133q-391 0 -573 199q-139 152 -139 377q0 180 125 350q92 126 270 203q-74 3 -209 -19q-119 -18 -207 -59zM567 59v150h135v-150h-135zM680 -41h135v-150h-135v150zM792 59v150h135v-150h-135z" />
<glyph unicode="&#x686;" horiz-adv-x="1327" arabic-form="initial" d="M451 -250v150h135v-150h-135zM564 -350h135v-150h-135v150zM676 -250v150h135v-150h-135zM-18 0v256h90q184 0 311 35q125 37 225 104q72 51 172 109q-72 27 -170 41q-80 12 -223 24q-57 6 -217 -4v256q86 8 131 8q211 0 389 -34q229 -45 467 -123v-256q-66 -25 -182 -99 q-133 -88 -238 -167q-100 -78 -295 -115q-180 -35 -346 -35h-114z" />
<glyph unicode="&#x686;" horiz-adv-x="1327" arabic-form="medial" d="M451 -250v150h135v-150h-135zM564 -350h135v-150h-135v150zM676 -250v150h135v-150h-135zM-18 0v256h90q184 0 311 35q125 37 225 104q72 51 172 109q-72 27 -170 41q-80 12 -223 24q-57 6 -217 -4v256q86 8 131 8q211 0 389 -34q229 -45 467 -123v-256l-41 -19 q27 -59 39 -73q53 -68 131 -68h60v-256h-76q-182 0 -281 117q-51 63 -90 151q-70 -55 -162 -118q-119 -80 -295 -115q-180 -35 -346 -35h-114z" />
<glyph unicode="&#x687;" horiz-adv-x="1327" arabic-form="isolated" d="M141 551v256q242 63 424 63q301 0 578 -39v-256q-303 18 -477 -137q-182 -162 -183 -362q0 -120 92 -228q80 -92 295 -92q268 0 457 154v-277q-145 -133 -453 -133q-391 0 -573 199q-139 152 -139 377q0 180 125 350q92 126 270 203q-74 3 -209 -19q-119 -18 -207 -59z M721 166v150h135v-150h-135zM721 66h135v-150h-135v150zM946 166v150h135v-150h-135zM946 66h135v-150h-135v150z" />
<glyph unicode="&#x687;" horiz-adv-x="1327" arabic-form="final" d="M141 551v256q242 63 424 63q301 0 578 -39v-256q-4 0 -12.5 1.5t-12.5 1.5h-26q0 -61 63 -203q55 -119 131 -119h60v-256h-76q-145 0 -252 150q-63 86 -119 210q-41 96 -59 181q-100 -35 -174 -103q-182 -162 -183 -362q0 -120 92 -228q80 -92 295 -92q268 0 457 154 v-277q-145 -133 -453 -133q-391 0 -573 199q-139 152 -139 377q0 180 125 350q92 126 270 203q-74 3 -209 -19q-119 -18 -207 -59zM586 104v150h135v-150h-135zM586 4h135v-150h-135v150zM811 104v150h135v-150h-135zM811 4h135v-150h-135v150z" />
<glyph unicode="&#x687;" horiz-adv-x="1327" arabic-form="initial" d="M451 -250v150h135v-150h-135zM451 -350h135v-150h-135v150zM676 -250v150h135v-150h-135zM676 -350h135v-150h-135v150zM-18 0v256h90q184 0 311 35q125 37 225 104q72 51 172 109q-72 27 -170 41q-80 12 -223 24q-57 6 -217 -4v256q86 8 131 8q211 0 389 -34 q229 -45 467 -123v-256q-66 -25 -182 -99q-133 -88 -238 -167q-100 -78 -295 -115q-180 -35 -346 -35h-114z" />
<glyph unicode="&#x687;" horiz-adv-x="1327" arabic-form="medial" d="M451 -250v150h135v-150h-135zM451 -350h135v-150h-135v150zM676 -250v150h135v-150h-135zM676 -350h135v-150h-135v150zM-18 0v256h90q184 0 311 35q125 37 225 104q72 51 172 109q-72 27 -170 41q-80 12 -223 24q-57 6 -217 -4v256q86 8 131 8q211 0 389 -34 q229 -45 467 -123v-256l-41 -19q27 -59 39 -73q53 -68 131 -68h60v-256h-76q-182 0 -281 117q-51 63 -90 151q-70 -55 -162 -118q-119 -80 -295 -115q-180 -35 -346 -35h-114z" />
<glyph unicode="&#x698;" horiz-adv-x="1060" arabic-form="isolated" d="M-76 -244q276 0 418 68q135 63 211 176q63 102 63 285q0 143 -47 266h322q45 -147 45 -266q0 -264 -80 -398q-113 -188 -313 -286q-203 -100 -619 -101v256zM541 860v150h135v-150h-135zM654 1110v149h135v-149h-135zM766 860v150h135v-150h-135z" />
<glyph unicode="&#x698;" horiz-adv-x="1144" arabic-form="final" d="M541 860v150h135v-150h-135zM654 1110v149h135v-149h-135zM766 860v150h135v-150h-135zM-76 -244q276 0 418 68q139 68 211 176q63 100 63 285q0 143 -47 266h322l18 -68q31 -127 82 -184q41 -43 107 -43h67v-256h-116q-74 0 -138 27q-23 -82 -55 -140 q-113 -188 -313 -286q-203 -100 -619 -101v256z" />
<glyph unicode="&#x691;" horiz-adv-x="1060" arabic-form="isolated" d="M-76 -244q276 0 418 68q135 63 211 176q63 102 63 285q0 143 -47 266h322q45 -147 45 -266q0 -264 -80 -398q-113 -188 -313 -286q-203 -100 -619 -101v256zM479 802v136h55v389h123v-281q68 84 141.5 84t96.5 -18q61 -49 61 -125q0 -94 -59 -146q-45 -39 -154 -39h-157 h-107zM692 938h31q37 0 80 14q35 16 35 34.5t-6.5 28t-20.5 7.5q-20 -4 -43 -15q-43 -22 -76 -69z" />
<glyph unicode="&#x691;" horiz-adv-x="1144" arabic-form="final" d="M479 802v136h55v389h123v-281q68 84 141.5 84t96.5 -18q61 -49 61 -125q0 -94 -59 -146q-45 -39 -154 -39h-157h-107zM692 938h31q37 0 80 14q35 16 35 34.5t-6.5 28t-20.5 7.5q-20 -4 -43 -15q-43 -22 -76 -69zM-76 -244q276 0 418 68q139 68 211 176q63 100 63 285 q0 143 -47 266h322l18 -68q31 -127 82 -184q41 -43 107 -43h67v-256h-116q-74 0 -138 27q-23 -82 -55 -140q-113 -188 -313 -286q-203 -100 -619 -101v256z" />
<glyph unicode="&#x6a9;" horiz-adv-x="1886" arabic-form="isolated" d="M117 313q0 141 57 232h322q-45 -92 -45 -185q0 -98 170 -157q77 -25 221 -25q158 0 313 35q92 23 117 82q14 35 14 72q0 29 -69 129l-269 378q-45 63 -45 144q0 31 10 67q35 129 121 160l852 311v-256l-514 -198q-59 -25 -82 -72q-6 -12 -6 -35q0 -25 29 -69l209 -312 q139 -207 139 -299q0 -193 -90 -239q-174 -94 -307 -119q-211 -37 -445 -37q-268 0 -405 29q-297 65 -297 364z" />
<glyph unicode="&#x6a9;" horiz-adv-x="1886" arabic-form="final" d="M117 313q0 141 57 232h322q-45 -92 -45 -185q0 -98 170 -157q74 -25 221 -25q158 0 313 35q92 23 117 82q14 35 14 72q0 29 -69 129l-269 378q-45 63 -45 144q0 31 10 67q35 129 121 160l852 311v-256l-514 -198q-59 -25 -82 -72q-6 -12 -6 -35q0 -29 29 -69l377 -559 q27 -41 75 -84q33 -27 82 -27h58v-256h-127q-137 0 -207 76q-174 -94 -307 -119q-197 -37 -445 -37q-268 0 -405 29q-297 65 -297 364z" />
<glyph unicode="&#x6a9;" horiz-adv-x="1069" arabic-form="initial" d="M-18 0v256h356q104 0 119 39q14 35 14 72q0 27 -72 129l-266 378q-45 68 -45 144q0 37 8 67q31 125 123 160l852 311v-256l-514 -198q-59 -25 -82 -72q-6 -12 -6 -35q0 -25 29 -69l209 -312q139 -207 139 -299q0 -170 -90 -239q-98 -76 -307 -76h-467z" />
<glyph unicode="&#x6a9;" horiz-adv-x="1069" arabic-form="medial" d="M-18 0v256h356q104 0 119 39q14 35 14 72q0 27 -72 129l-266 378q-45 68 -45 144q0 37 8 67q31 125 123 160l852 311v-256l-514 -198q-59 -25 -82 -72q-6 -12 -6 -35q0 -29 29 -69l376 -559q27 -41 76 -84q33 -27 80 -27h60v-256h-129q-135 0 -205 76q-98 -76 -307 -76 h-467z" />
<glyph unicode="&#x6af;" horiz-adv-x="1886" arabic-form="isolated" d="M117 313q0 141 57 232h322q-45 -92 -45 -185q0 -98 170 -157q77 -25 221 -25q158 0 313 35q92 23 117 82q14 35 14 72q0 29 -69 129l-269 378q-45 63 -45 144q0 31 10 67q35 129 121 160l852 311v-256l-514 -198q-59 -25 -82 -72q-6 -12 -6 -35q0 -25 29 -69l209 -312 q139 -207 139 -299q0 -193 -90 -239q-174 -94 -307 -119q-211 -37 -445 -37q-268 0 -405 29q-297 65 -297 364zM932 1339v179l956 346v-178z" />
<glyph unicode="&#x6af;" horiz-adv-x="1886" arabic-form="final" d="M932 1339v179l956 346v-178zM117 313q0 141 57 232h322q-45 -92 -45 -185q0 -98 170 -157q74 -25 221 -25q158 0 313 35q92 23 117 82q14 35 14 72q0 29 -69 129l-269 378q-45 63 -45 144q0 31 10 67q35 129 121 160l852 311v-256l-514 -198q-59 -25 -82 -72 q-6 -12 -6 -35q0 -29 29 -69l377 -559q27 -41 75 -84q33 -27 82 -27h58v-256h-127q-137 0 -207 76q-174 -94 -307 -119q-197 -37 -445 -37q-268 0 -405 29q-297 65 -297 364z" />
<glyph unicode="&#x6af;" horiz-adv-x="1069" arabic-form="initial" d="M117 1339v179l956 346v-178zM-18 0v256h356q104 0 119 39q14 35 14 72q0 27 -72 129l-266 378q-45 68 -45 144q0 37 8 67q31 125 123 160l852 311v-256l-514 -198q-59 -25 -82 -72q-6 -12 -6 -35q0 -25 29 -69l209 -312q139 -207 139 -299q0 -170 -90 -239 q-98 -76 -307 -76h-467z" />
<glyph unicode="&#x6af;" horiz-adv-x="1069" arabic-form="medial" d="M117 1339v179l956 346v-178zM-18 0v256h356q104 0 119 39q14 35 14 72q0 27 -72 129l-266 378q-45 68 -45 144q0 37 8 67q31 125 123 160l852 311v-256l-514 -198q-59 -25 -82 -72q-6 -12 -6 -35q0 -29 29 -69l376 -559q27 -41 76 -84q33 -27 80 -27h60v-256h-129 q-135 0 -205 76q-98 -76 -307 -76h-467z" />
<glyph unicode="&#x6ba;" horiz-adv-x="1572" arabic-form="isolated" d="M113 168q0 139 37 315h321q-37 -160 -37 -293q0 -178 180 -251q47 -20 119 -21q47 0 107 16q188 55 241 216q31 95 31 215q0 168 -90 385h321q92 -164 93 -439q0 -176 -90 -350q-109 -217 -322 -264q-164 -35 -287 -35q-172 0 -309 43q-315 98 -315 463z" />
<glyph unicode="&#x6ba;" horiz-adv-x="1656" arabic-form="final" d="M113 6q0 141 37 316h321q-37 -160 -37 -293q0 -178 180 -252q47 -20 119 -21q57 0 107 17q193 55 241 215q31 95 31 215q0 168 -90 385h321q31 -57 33 -64q35 -92 45 -106q119 -162 213 -162h43v-256h-57q-150 0 -190 59q0 -96 -84 -260q-113 -221 -322 -266 q-156 -33 -287 -33q-172 0 -309 43q-315 98 -315 463z" />
<glyph unicode="&#x6c6;" horiz-adv-x="1144" arabic-form="isolated" d="M284 1136h162l117 -194l117 194h161l-176 -325h-205zM-76 -244q215 -9 369 19q158 27 235 82q92 63 113 143q-57 0 -117 2q-203 6 -284 86q-88 82 -88 215q0 39 8 96q25 162 155 217q98 43 236 43q199 0 293 -57q92 -57 139 -209q25 -82 25 -237q0 -205 -80 -349 q-82 -150 -283 -225q-219 -82 -721 -82v256zM473 340q0 -43 33 -64q35 -20 63 -20h111q0 43 -6 70q-6 43 -47 80q-23 23 -62 22q-37 0 -63 -31q-29 -32 -29 -57z" />
<glyph unicode="&#x6c6;" horiz-adv-x="1153" arabic-form="final" d="M284 1136h162l117 -194l117 194h161l-176 -325h-205zM-76 -244q215 -9 369 19q162 29 235 82q92 63 113 143q-57 0 -117 2q-203 6 -284 86q-88 82 -88 215q0 39 8 96q25 162 155 217q98 43 236 43q221 0 305 -57q78 -53 127 -209q18 -59 25 -137h166v-256h-181 q-10 -94 -65 -193q-86 -152 -283 -225q-219 -82 -721 -82v256zM473 340q0 -43 33 -64q35 -20 63 -20h111q0 43 -6 70q-6 43 -47 80q-23 23 -62 22q-37 0 -63 -31q-29 -32 -29 -57z" />
<glyph unicode="&#x649;" horiz-adv-x="690" arabic-form="initial" d="M-18 0v256h88q61 0 100 43q45 51 45 156v145h322v-229q0 -180 -62 -279q-58 -92 -172 -92h-321z" />
<glyph unicode="&#x649;" horiz-adv-x="751" arabic-form="medial" d="M-18 0v256h88q61 0 100 43q45 51 45 156v145h322v-145q0 -104 45 -156q41 -43 100 -43h88v-256h-225q-96 0 -168 109q-68 -109 -168 -109h-227z" />
<glyph unicode="&#x6cc;" horiz-adv-x="1687" arabic-form="isolated" d="M117 174q0 141 57 232h322q-63 -98 -60 -232q4 -78 119 -121q41 -16 158 -16q129 0 252 35q223 66 225 159q0 96 -113 140l-162 59q-59 29 -110 80q-59 59 -60 172q0 168 170 223q129 41 254 41q152 0 250 -47q147 -71 172 -252h-286q-23 68 -123 68q-78 0 -103 -31 q-23 -35 -22 -43q2 -35 112 -66q195 -53 275 -163q70 -98 69 -197q0 -72 -36 -149q-80 -158 -445 -244q-182 -41 -301 -41q-281 0 -350 29q-264 108 -264 364z" />
<glyph unicode="&#x6cc;" horiz-adv-x="1863" arabic-form="final" d="M117 125q0 139 57 229h322q-63 -98 -60 -229q2 -68 119 -111q41 -16 190 -16q164 0 285 35q131 39 131 73q0 23 -24 44q-55 41 -60 47q-27 35 -26 120q0 100 43 146q66 76 110 96q70 35 205 35q231 0 324 -184q78 -154 125 -154h24v-256h-53q-156 0 -254 180 q-80 147 -141 148q-16 0 -25 -4q-39 -18 -39 -56q0 -43 51 -67q59 -29 60 -148q0 -178 -383 -270q-176 -41 -334 -41q-311 0 -383 29q-264 104 -264 354z" />
<glyph unicode="&#x6cc;" horiz-adv-x="690" arabic-form="initial" d="M197 -340v150h135v-150h-135zM422 -340v150h135v-150h-135zM-18 0v256h88q61 0 100 43q45 51 45 156v145h322v-229q0 -180 -62 -279q-58 -92 -172 -92h-321z" />
<glyph unicode="&#x6cc;" horiz-adv-x="751" arabic-form="medial" d="M197 -340v150h135v-150h-135zM422 -340v150h135v-150h-135zM-18 0v256h88q61 0 100 43q45 51 45 156v145h322v-145q0 -104 45 -156q41 -43 100 -43h88v-256h-225q-96 0 -168 109q-68 -109 -168 -109h-227z" />
<glyph unicode="&#xfe70;" horiz-adv-x="628" arabic-form="isolated" d="M54 1210v140l526 131v-142zM54 1419v142l526 129v-140z" />
<glyph unicode="&#xfe71;" horiz-adv-x="628" arabic-form="medial" d="M54 1210v140l526 131v-142zM54 1419v142l526 129v-140zM-18 0v256h665v-256h-665z" />
<glyph unicode="&#xfe72;" horiz-adv-x="628" arabic-form="isolated" d="M54 1518h125q0 -98 12 -123q18 -45 33 -45q51 0 88 59l26 43q-10 2 -47 29q-76 59 -76 147q0 100 60 144q47 33 98 32q70 -4 117 -51q53 -57 53 -135q0 -43 -16 -76l28 -2l25 -2v-129h-61l-46 6q-14 -45 -83 -121q-76 -84 -170 -84q-106 0 -156 154q-10 29 -10 154z M342 1620q0 -25 29 -45q12 -9 25 -12q9 9 12 18q8 18 8 37q0 12 -8 29q-6 14 -31 14q-10 0 -18 -8q-17 -13 -17 -33z" />
<glyph unicode="&#xfe74;" horiz-adv-x="628" arabic-form="isolated" d="M54 -139l526 129v-140l-526 -131v142zM54 -350l526 131v-141l-526 -129v139z" />
<glyph unicode="&#xfe76;" horiz-adv-x="628" arabic-form="isolated" d="M54 1210v140l526 131v-142z" />
<glyph unicode="&#xfe77;" horiz-adv-x="628" arabic-form="medial" d="M54 1210v140l526 131v-142zM-18 0v256h665v-256h-665z" />
<glyph unicode="&#xfe78;" horiz-adv-x="628" arabic-form="isolated" d="M54 1208v142q127 0 225 77q16 12 43 39q-14 2 -31 15q-76 57 -76 147q0 100 60 144q47 33 98 32q70 -4 117 -51q53 -57 53 -135q0 -43 -16 -76l28 -2l25 -2v-129h-61l-60 6q-40 -52 -92 -92q-157 -123 -313 -115zM342 1620q0 -25 29 -45q12 -8 27 -8q8 8 10 14q8 18 8 37 q0 12 -8 29q-6 14 -31 14q-10 0 -18 -8q-17 -13 -17 -33z" />
<glyph unicode="&#xfe79;" horiz-adv-x="628" arabic-form="medial" d="M54 1208v142q127 0 225 77q16 12 43 39q-14 2 -31 15q-76 57 -76 147q0 100 60 144q47 33 98 32q70 -4 117 -51q53 -57 53 -135q0 -43 -16 -76l28 -2l25 -2v-129h-61l-60 6q-40 -52 -92 -92q-157 -123 -313 -115zM342 1620q0 -25 29 -45q12 -8 27 -8q8 8 10 14q8 18 8 37 q0 12 -8 29q-6 14 -31 14q-10 0 -18 -8q-17 -13 -17 -33zM-18 0v256h665v-256h-665z" />
<glyph unicode="&#xfe7a;" horiz-adv-x="628" arabic-form="isolated" d="M54 -139l526 129v-140l-526 -131v142z" />
<glyph unicode="&#xfe7b;" horiz-adv-x="628" arabic-form="medial" d="M54 -139l526 129v-140l-526 -131v142zM-18 0v256h665v-256h-665z" />
<glyph unicode="&#xfe7c;" horiz-adv-x="628" arabic-form="isolated" d="M17 1450q0 117 14 209h119q-10 -104 -10 -182q0 -45 22 -97q12 -29 45 -6q41 27 45 174q2 55 2 170h121q0 -16 4 -90q8 -174 61.5 -174t53.5 154q0 123 -10 172h119q14 -90 12 -189q-2 -125 -27 -186q-31 -86 -131 -100q-65 -9 -92 24q-23 27 -35 82q-14 -80 -41 -115 q-53 -70 -115 -69q-86 -2 -126 63q-31 49 -31 160z" />
<glyph unicode="&#xfe7d;" horiz-adv-x="628" arabic-form="medial" d="M17 1450q0 117 14 209h119q-10 -104 -10 -182q0 -45 22 -97q12 -29 45 -6q41 27 45 174q2 55 2 170h121q0 -16 4 -90q8 -174 61.5 -174t53.5 154q0 123 -10 172h119q14 -90 12 -189q-2 -125 -27 -186q-31 -86 -131 -100q-65 -9 -92 24q-23 27 -35 82q-14 -80 -41 -115 q-53 -70 -115 -69q-86 -2 -126 63q-31 49 -31 160zM-18 0v256h665v-256h-665z" />
<glyph unicode="&#xfe7e;" horiz-adv-x="628" arabic-form="isolated" d="M68 1523.5q0 112.5 72 194.5q72 80 174 80q106 0 176 -80q72 -82 72 -194.5t-72 -194.5q-70 -80 -176 -80q-102 0 -174 80q-72 82 -72 194.5zM215 1524q0 -45 29 -78t70 -33t69.5 33t28.5 78t-29 78q-29 31 -69.5 30.5t-69.5 -30.5q-29 -33 -29 -78z" />
<glyph unicode="&#xfe7f;" horiz-adv-x="628" arabic-form="medial" d="M68 1523.5q0 112.5 72 194.5q72 80 174 80q106 0 176 -80q72 -82 72 -194.5t-72 -194.5q-70 -80 -176 -80q-102 0 -174 80q-72 82 -72 194.5zM215 1524q0 -45 29 -78t70 -33t69.5 33t28.5 78t-29 78q-29 31 -69.5 30.5t-69.5 -30.5q-29 -33 -29 -78zM-18 0v256h665v-256 h-665z" />
<glyph unicode="&#x621;" horiz-adv-x="940" arabic-form="isolated" d="M133 684q31 164 133 244q106 82 199 82q137 0 268 -62v-248q-57 43 -121 58q-74 18 -123 -25q-51 -45 -51 -108q0 -92 148 -127q108 -25 221 43v-256q-106 -72 -309 -154q-150 -61 -363 -90v256q47 2 94 18q68 22 86 37q-108 28 -141 92q-61 127 -41 240z" />
<glyph unicode="&#x622;" horiz-adv-x="630" arabic-form="isolated" d="M156 0v1556h321v-1556h-321zM-36 1647v170l149 125q98 -92 137 -100q72 -18 125 -19q61 0 117 23q106 41 176 110v-170q-53 -51 -162 -88q-84 -27 -137 -26q-86 0 -135 22.5t-117 77.5z" />
<glyph unicode="&#x622;" horiz-adv-x="690" arabic-form="final" d="M-36 1647v170l149 125q98 -92 137 -100q72 -18 125 -19q61 0 117 23q106 41 176 110v-170q-53 -51 -162 -88q-84 -27 -137 -26q-86 0 -135 22.5t-117 77.5zM156 371v1185h321v-1101q0 -106 43 -156q41 -43 103 -43h88v-256h-322q-115 0 -174 92q-59 95 -59 279z" />
<glyph unicode="&#x623;" horiz-adv-x="630" arabic-form="isolated" d="M156 0v1556h321v-1556h-321zM139 1845q2 106 49 147q45 41 162 41q57 0 115 -22v-125q-61 20 -115 20q-35 0 -55 -10q-27 -16 -27 -61q0 -53 58 -68q25 -8 49 -2l98 21v-129l-328 -76v127l70 16q-47 12 -61 45q-15 31 -15 76z" />
<glyph unicode="&#x623;" horiz-adv-x="690" arabic-form="final" d="M156 371v1185h321v-1101q0 -106 43 -156q41 -43 103 -43h88v-256h-322q-115 0 -174 92q-59 95 -59 279zM139 1845q2 106 49 147q45 41 162 41q57 0 115 -22v-125q-61 20 -115 20q-35 0 -55 -10q-27 -16 -27 -61q0 -53 58 -68q25 -8 49 -2l98 21v-129l-328 -76v127l70 16 q-47 12 -61 45q-15 31 -15 76z" />
<glyph unicode="&#x624;" horiz-adv-x="1144" arabic-form="isolated" d="M386 1044q2 106 49 147q45 41 162 41q57 0 115 -22v-125q-61 20 -115 20q-35 0 -55 -10q-27 -16 -27 -61q0 -53 58 -68q25 -8 49 -2l98 21v-129l-328 -76v127l70 16q-47 12 -61 45q-15 31 -15 76zM-76 -244q215 -9 369 19q158 27 235 82q92 63 113 143q-57 0 -117 2 q-203 6 -284 86q-88 82 -88 215q0 39 8 96q25 162 155 217q98 43 236 43q199 0 293 -57q92 -57 139 -209q25 -82 25 -237q0 -205 -80 -349q-82 -150 -283 -225q-219 -82 -721 -82v256zM473 340q0 -43 33 -64q35 -20 63 -20h111q0 43 -6 70q-6 43 -47 80q-23 23 -62 22 q-37 0 -63 -31q-29 -32 -29 -57z" />
<glyph unicode="&#x624;" horiz-adv-x="1153" arabic-form="final" d="M386 1044q2 106 49 147q45 41 162 41q57 0 115 -22v-125q-61 20 -115 20q-35 0 -55 -10q-27 -16 -27 -61q0 -53 58 -68q25 -8 49 -2l98 21v-129l-328 -76v127l70 16q-47 12 -61 45q-15 31 -15 76zM-76 -244q215 -9 369 19q162 29 235 82q92 63 113 143q-57 0 -117 2 q-203 6 -284 86q-88 82 -88 215q0 39 8 96q25 162 155 217q98 43 236 43q221 0 305 -57q78 -53 127 -209q18 -59 25 -137h166v-256h-181q-10 -94 -65 -193q-86 -152 -283 -225q-219 -82 -721 -82v256zM473 340q0 -43 33 -64q35 -20 63 -20h111q0 43 -6 70q-6 43 -47 80 q-23 23 -62 22q-37 0 -63 -31q-29 -32 -29 -57z" />
<glyph unicode="&#x625;" horiz-adv-x="630" arabic-form="isolated" d="M156 0v1556h321v-1556h-321zM142 -236q2 106 49 147q45 41 162 41q57 0 115 -22v-125q-61 20 -115 20q-35 0 -55 -10q-27 -16 -27 -61q0 -53 58 -68q25 -8 49 -2l98 21v-129l-328 -76v127l70 16q-47 12 -61 45q-15 31 -15 76z" />
<glyph unicode="&#x625;" horiz-adv-x="690" arabic-form="final" d="M156 371v1185h321v-1101q0 -106 43 -156q41 -43 103 -43h88v-256h-322q-115 0 -174 92q-59 95 -59 279zM142 -236q2 106 49 147q45 41 162 41q57 0 115 -22v-125q-61 20 -115 20q-35 0 -55 -10q-27 -16 -27 -61q0 -53 58 -68q25 -8 49 -2l98 21v-129l-328 -76v127l70 16 q-47 12 -61 45q-15 31 -15 76z" />
<glyph unicode="&#x626;" horiz-adv-x="1687" arabic-form="isolated" d="M117 174q0 141 57 232h322q-63 -98 -60 -232q4 -78 119 -121q41 -16 158 -16q129 0 252 35q223 66 225 159q0 96 -113 140l-162 59q-59 29 -110 80q-59 59 -60 172q0 168 170 223q129 41 254 41q152 0 250 -47q147 -71 172 -252h-286q-23 68 -123 68q-78 0 -103 -31 q-23 -35 -22 -43q2 -35 112 -66q195 -53 275 -163q70 -98 69 -197q0 -72 -36 -149q-80 -158 -445 -244q-182 -41 -301 -41q-281 0 -350 29q-264 108 -264 364zM319 1044q2 106 49 147q45 41 162 41q57 0 115 -22v-125q-61 20 -115 20q-35 0 -55 -10q-27 -16 -27 -61 q0 -53 58 -68q25 -8 49 -2l98 21v-129l-328 -76v127l70 16q-47 12 -61 45q-15 31 -15 76z" />
<glyph unicode="&#x626;" horiz-adv-x="1687" arabic-form="final" d="M497 795q2 106 49 147q45 41 162 41q57 0 115 -22v-125q-61 20 -115 20q-35 0 -55 -10q-27 -16 -27 -61q0 -53 58 -68q25 -8 49 -2l98 21v-129l-328 -76v127l70 16q-47 12 -61 45q-15 31 -15 76zM117 125q0 139 57 229h322q-63 -98 -60 -229q2 -68 119 -111 q41 -16 190 -16q164 0 285 35q131 39 131 73q0 23 -24 44q-55 41 -60 47q-27 35 -26 120q0 100 43 146q66 76 110 96q70 35 205 35q231 0 324 -184q78 -154 125 -154h24v-256h-53q-156 0 -254 180q-80 147 -141 148q-16 0 -25 -4q-39 -18 -39 -56q0 -43 51 -67 q59 -29 60 -148q0 -178 -383 -270q-176 -41 -334 -41q-311 0 -383 29q-264 104 -264 354z" />
<glyph unicode="&#x626;" horiz-adv-x="690" arabic-form="initial" d="M198 1096q2 106 49 147q45 41 162 41q57 0 115 -22v-125q-61 20 -115 20q-35 0 -55 -10q-27 -16 -27 -61q0 -53 58 -68q25 -8 49 -2l98 21v-129l-328 -76v127l70 16q-47 12 -61 45q-15 31 -15 76zM-18 0v256h88q61 0 100 43q45 51 45 156v145h322v-229q0 -180 -62 -279 q-58 -92 -172 -92h-321z" />
<glyph unicode="&#x626;" horiz-adv-x="751" arabic-form="medial" d="M198 1096q2 106 49 147q45 41 162 41q57 0 115 -22v-125q-61 20 -115 20q-35 0 -55 -10q-27 -16 -27 -61q0 -53 58 -68q25 -8 49 -2l98 21v-129l-328 -76v127l70 16q-47 12 -61 45q-15 31 -15 76zM-18 0v256h88q61 0 100 43q45 51 45 156v145h322v-145q0 -104 45 -156 q41 -43 100 -43h88v-256h-225q-96 0 -168 109q-68 -109 -168 -109h-227z" />
<glyph unicode="&#x627;" horiz-adv-x="630" arabic-form="isolated" d="M156 0v1556h321v-1556h-321z" />
<glyph unicode="&#x627;" horiz-adv-x="690" arabic-form="final" d="M156 371v1185h321v-1101q0 -106 43 -156q41 -43 103 -43h88v-256h-322q-115 0 -174 92q-59 95 -59 279z" />
<glyph unicode="&#x628;" horiz-adv-x="1851" arabic-form="isolated" d="M117 383q0 139 57 229h322q-45 -92 -45 -184q0 -90 170 -156q63 -25 139 -24q180 0 325 47q217 70 263 158q57 113 26 217h324q47 -256 -56 -398q-100 -141 -305 -202q-254 -76 -600 -80q-205 0 -323 28q-297 78 -297 365zM811 -305v150h135v-150h-135z" />
<glyph unicode="&#x628;" horiz-adv-x="1949" arabic-form="final" d="M811 -305v150h135v-150h-135zM117 383q0 139 57 229h322q-45 -92 -45 -184q0 -90 170 -156q63 -25 139 -24q180 0 325 47q221 74 263 158q57 113 26 217h324q14 -70 14 -121q0 -150 47 -223q47 -70 144 -70h65v-256h-117q-242 0 -333 162q-41 -53 -181 -92 q-260 -76 -600 -80q-205 0 -323 28q-297 78 -297 365z" />
<glyph unicode="&#x628;" horiz-adv-x="690" arabic-form="initial" d="M309 -354v150h135v-150h-135zM-18 0v256h88q61 0 100 43q45 51 45 156v145h322v-229q0 -180 -62 -279q-58 -92 -172 -92h-321z" />
<glyph unicode="&#x628;" horiz-adv-x="751" arabic-form="medial" d="M309 -354v150h135v-150h-135zM-18 0v256h88q61 0 100 43q45 51 45 156v145h322v-145q0 -104 45 -156q41 -43 100 -43h88v-256h-225q-96 0 -168 109q-68 -109 -168 -109h-227z" />
<glyph unicode="&#x629;" horiz-adv-x="1087" arabic-form="isolated" d="M88 291q0 178 35 258q82 184 358 184q197 0 387 -160q131 -109 127 -272q-4 -172 -133 -274q-108 -86 -319 -86q-152 0 -281 41q-172 57 -174 309zM410 315q0 -68 55 -102q25 -16 78 -16q35 0 71 24q59 43 60 88q0 41 -43 90q-68 80 -119 80q-76 0 -88 -43 q-14 -41 -14 -121zM270 899v150h135v-150h-135zM495 899v150h135v-150h-135z" />
<glyph unicode="&#x629;" horiz-adv-x="1116" arabic-form="final" d="M360 899v150h135v-150h-135zM585 899v150h135v-150h-135zM121 285q0 190 192 327q96 68 279 84q-4 45 -4 54h321q4 -207 33 -342q18 -84 55 -109q61 -43 70 -43h70v-256h-203q-80 0 -146 35q-59 31 -75 65q-96 -63 -310 -63q-53 0 -102 14q-180 50 -180 234zM442 328 q0 -49 62 -49q84 0 129 38q-16 51 -21 91q-2 10 -5 28.5t-3 22.5q-82 -8 -123 -43q-39 -33 -39 -88z" />
<glyph unicode="&#x62a;" horiz-adv-x="1851" arabic-form="isolated" d="M117 383q0 139 57 229h322q-45 -92 -45 -184q0 -90 170 -156q63 -25 139 -24q180 0 325 47q217 70 263 158q57 113 26 217h324q47 -256 -56 -398q-100 -141 -305 -202q-254 -76 -600 -80q-205 0 -323 28q-297 78 -297 365zM698 700v150h135v-150h-135zM923 700v150h135 v-150h-135z" />
<glyph unicode="&#x62a;" horiz-adv-x="1949" arabic-form="final" d="M698 700v150h135v-150h-135zM923 700v150h135v-150h-135zM117 383q0 139 57 229h322q-45 -92 -45 -184q0 -90 170 -156q63 -25 139 -24q180 0 325 47q221 74 263 158q57 113 26 217h324q14 -70 14 -121q0 -150 47 -223q47 -70 144 -70h65v-256h-117q-242 0 -333 162 q-41 -53 -181 -92q-260 -76 -600 -80q-205 0 -323 28q-297 78 -297 365z" />
<glyph unicode="&#x62a;" horiz-adv-x="690" arabic-form="initial" d="M197 850v150h135v-150h-135zM422 850v150h135v-150h-135zM-18 0v256h88q61 0 100 43q45 51 45 156v145h322v-229q0 -180 -62 -279q-58 -92 -172 -92h-321z" />
<glyph unicode="&#x62a;" horiz-adv-x="751" arabic-form="medial" d="M197 850v150h135v-150h-135zM422 850v150h135v-150h-135zM-18 0v256h88q61 0 100 43q45 51 45 156v145h322v-145q0 -104 45 -156q41 -43 100 -43h88v-256h-225q-96 0 -168 109q-68 -109 -168 -109h-227z" />
<glyph unicode="&#x62b;" horiz-adv-x="1851" arabic-form="isolated" d="M117 383q0 139 57 229h322q-45 -92 -45 -184q0 -90 170 -156q63 -25 139 -24q180 0 325 47q217 70 263 158q57 113 26 217h324q47 -256 -56 -398q-100 -141 -305 -202q-254 -76 -600 -80q-205 0 -323 28q-297 78 -297 365zM698 700v150h135v-150h-135zM811 950v149h135 v-149h-135zM923 700v150h135v-150h-135z" />
<glyph unicode="&#x62b;" horiz-adv-x="1949" arabic-form="final" d="M698 700v150h135v-150h-135zM811 950v149h135v-149h-135zM923 700v150h135v-150h-135zM117 383q0 139 57 229h322q-45 -92 -45 -184q0 -90 170 -156q63 -25 139 -24q180 0 325 47q221 74 263 158q57 113 26 217h324q14 -70 14 -121q0 -150 47 -223q47 -70 144 -70h65 v-256h-117q-242 0 -333 162q-41 -53 -181 -92q-260 -76 -600 -80q-205 0 -323 28q-297 78 -297 365z" />
<glyph unicode="&#x62b;" horiz-adv-x="690" arabic-form="initial" d="M197 850v150h135v-150h-135zM310 1100v149h135v-149h-135zM422 850v150h135v-150h-135zM-18 0v256h88q61 0 100 43q45 51 45 156v145h322v-229q0 -180 -62 -279q-58 -92 -172 -92h-321z" />
<glyph unicode="&#x62b;" horiz-adv-x="751" arabic-form="medial" d="M197 850v150h135v-150h-135zM310 1100v149h135v-149h-135zM422 850v150h135v-150h-135zM-18 0v256h88q61 0 100 43q45 51 45 156v145h322v-145q0 -104 45 -156q41 -43 100 -43h88v-256h-225q-96 0 -168 109q-68 -109 -168 -109h-227z" />
<glyph unicode="&#x62c;" horiz-adv-x="1327" arabic-form="isolated" d="M141 551v256q242 63 424 63q301 0 578 -39v-256q-303 18 -477 -137q-182 -162 -183 -362q0 -120 92 -228q80 -92 295 -92q268 0 457 154v-277q-145 -133 -453 -133q-391 0 -573 199q-139 152 -139 377q0 180 125 350q92 126 270 203q-74 3 -209 -19q-119 -18 -207 -59z M831 35v150h135v-150h-135z" />
<glyph unicode="&#x62c;" horiz-adv-x="1327" arabic-form="final" d="M141 551v256q242 63 424 63q301 0 578 -39v-256q-4 0 -12.5 1.5t-12.5 1.5h-26q0 -61 63 -203q55 -119 131 -119h60v-256h-76q-145 0 -252 150q-63 86 -119 210q-41 96 -59 181q-100 -35 -174 -103q-182 -162 -183 -362q0 -120 92 -228q80 -92 295 -92q268 0 457 154 v-277q-145 -133 -453 -133q-391 0 -573 199q-139 152 -139 377q0 180 125 350q92 126 270 203q-74 3 -209 -19q-119 -18 -207 -59zM698 -66v150h135v-150h-135z" />
<glyph unicode="&#x62c;" horiz-adv-x="1327" arabic-form="initial" d="M561 -354v150h135v-150h-135zM-18 0v256h90q184 0 311 35q125 37 225 104q72 51 172 109q-72 27 -170 41q-80 12 -223 24q-57 6 -217 -4v256q86 8 131 8q211 0 389 -34q229 -45 467 -123v-256q-66 -25 -182 -99q-133 -88 -238 -167q-100 -78 -295 -115q-180 -35 -346 -35 h-114z" />
<glyph unicode="&#x62c;" horiz-adv-x="1327" arabic-form="medial" d="M561 -354v150h135v-150h-135zM-18 0v256h90q184 0 311 35q125 37 225 104q72 51 172 109q-72 27 -170 41q-80 12 -223 24q-57 6 -217 -4v256q86 8 131 8q211 0 389 -34q229 -45 467 -123v-256l-41 -19q27 -59 39 -73q53 -68 131 -68h60v-256h-76q-182 0 -281 117 q-51 63 -90 151q-70 -55 -162 -118q-119 -80 -295 -115q-180 -35 -346 -35h-114z" />
<glyph unicode="&#x62d;" horiz-adv-x="1327" arabic-form="isolated" d="M141 551v256q242 63 424 63q301 0 578 -39v-256q-303 18 -477 -137q-182 -162 -183 -362q0 -120 92 -228q80 -92 295 -92q268 0 457 154v-277q-145 -133 -453 -133q-391 0 -573 199q-139 152 -139 377q0 180 125 350q92 126 270 203q-74 3 -209 -19q-119 -18 -207 -59z " />
<glyph unicode="&#x62d;" horiz-adv-x="1327" arabic-form="final" d="M141 551v256q242 63 424 63q301 0 578 -39v-256q-4 0 -12.5 1.5t-12.5 1.5h-26q0 -61 63 -203q55 -119 131 -119h60v-256h-76q-145 0 -252 150q-63 86 -119 210q-41 96 -59 181q-100 -35 -174 -103q-182 -162 -183 -362q0 -120 92 -228q80 -92 295 -92q268 0 457 154 v-277q-145 -133 -453 -133q-391 0 -573 199q-139 152 -139 377q0 180 125 350q92 126 270 203q-74 3 -209 -19q-119 -18 -207 -59z" />
<glyph unicode="&#x62d;" horiz-adv-x="1327" arabic-form="initial" d="M-18 0v256h90q184 0 311 35q125 37 225 104q72 51 172 109q-72 27 -170 41q-80 12 -223 24q-57 6 -217 -4v256q86 8 131 8q211 0 389 -34q229 -45 467 -123v-256q-66 -25 -182 -99q-133 -88 -238 -167q-100 -78 -295 -115q-180 -35 -346 -35h-114z" />
<glyph unicode="&#x62d;" horiz-adv-x="1327" arabic-form="medial" d="M-18 0v256h90q184 0 311 35q125 37 225 104q72 51 172 109q-72 27 -170 41q-80 12 -223 24q-57 6 -217 -4v256q86 8 131 8q211 0 389 -34q229 -45 467 -123v-256l-41 -19q27 -59 39 -73q53 -68 131 -68h60v-256h-76q-182 0 -281 117q-51 63 -90 151q-70 -55 -162 -118 q-119 -80 -295 -115q-180 -35 -346 -35h-114z" />
<glyph unicode="&#x62e;" horiz-adv-x="1327" arabic-form="isolated" d="M141 551v256q242 63 424 63q301 0 578 -39v-256q-303 18 -477 -137q-182 -162 -183 -362q0 -120 92 -228q80 -92 295 -92q268 0 457 154v-277q-145 -133 -453 -133q-391 0 -573 199q-139 152 -139 377q0 180 125 350q92 126 270 203q-74 3 -209 -19q-119 -18 -207 -59z M561 1034v150h135v-150h-135z" />
<glyph unicode="&#x62e;" horiz-adv-x="1327" arabic-form="final" d="M561 1034v150h135v-150h-135zM141 551v256q242 63 424 63q301 0 578 -39v-256q-4 0 -12.5 1.5t-12.5 1.5h-26q0 -61 63 -203q55 -119 131 -119h60v-256h-76q-145 0 -252 150q-63 86 -119 210q-41 96 -59 181q-100 -35 -174 -103q-182 -162 -183 -362q0 -120 92 -228 q80 -92 295 -92q268 0 457 154v-277q-145 -133 -453 -133q-391 0 -573 199q-139 152 -139 377q0 180 125 350q92 126 270 203q-74 3 -209 -19q-119 -18 -207 -59z" />
<glyph unicode="&#x62e;" horiz-adv-x="1327" arabic-form="initial" d="M-18 0v256h90q184 0 311 35q125 37 225 104q72 51 172 109q-72 27 -170 41q-80 12 -223 24q-57 6 -217 -4v256q86 8 131 8q211 0 389 -34q229 -45 467 -123v-256q-66 -25 -182 -99q-133 -88 -238 -167q-100 -78 -295 -115q-180 -35 -346 -35h-114zM561 936v150h135v-150 h-135z" />
<glyph unicode="&#x62e;" horiz-adv-x="1327" arabic-form="medial" d="M-18 0v256h90q184 0 311 35q125 37 225 104q72 51 172 109q-72 27 -170 41q-80 12 -223 24q-57 6 -217 -4v256q86 8 131 8q211 0 389 -34q229 -45 467 -123v-256l-41 -19q27 -59 39 -73q53 -68 131 -68h60v-256h-76q-182 0 -281 117q-51 63 -90 151q-70 -55 -162 -118 q-119 -80 -295 -115q-180 -35 -346 -35h-114zM561 936v150h135v-150h-135z" />
<glyph unicode="&#x62f;" horiz-adv-x="944" arabic-form="isolated" d="M113 0v256q143 -61 239 -35q158 47 180 127q25 86 -40 227q-55 123 -197 275h332q123 -172 143 -215q114 -227 43 -430q-63 -188 -395 -236q-172 -24 -305 31z" />
<glyph unicode="&#x62f;" horiz-adv-x="1062" arabic-form="final" d="M113 0v256q143 -61 239 -35q160 47 180 127q25 86 -40 227q-55 123 -197 275h332q123 -172 143 -215q43 -88 59 -162q25 -115 80 -174q41 -43 107 -43h67v-256h-116q-164 0 -213 104q-111 -104 -336 -135q-172 -24 -305 31z" />
<glyph unicode="&#x630;" horiz-adv-x="944" arabic-form="isolated" d="M113 0v256q143 -61 239 -35q158 47 180 127q25 86 -40 227q-55 123 -197 275h332q123 -172 143 -215q114 -227 43 -430q-63 -188 -395 -236q-172 -24 -305 31zM383 1034v150h135v-150h-135z" />
<glyph unicode="&#x630;" horiz-adv-x="1062" arabic-form="final" d="M383 1034v150h135v-150h-135zM113 0v256q143 -61 239 -35q160 47 180 127q25 86 -40 227q-55 123 -197 275h332q123 -172 143 -215q43 -88 59 -162q25 -115 80 -174q41 -43 107 -43h67v-256h-116q-164 0 -213 104q-111 -104 -336 -135q-172 -24 -305 31z" />
<glyph unicode="&#x631;" horiz-adv-x="1060" arabic-form="isolated" d="M-76 -244q276 0 418 68q135 63 211 176q63 102 63 285q0 143 -47 266h322q45 -147 45 -266q0 -264 -80 -398q-113 -188 -313 -286q-203 -100 -619 -101v256z" />
<glyph unicode="&#x631;" horiz-adv-x="1144" arabic-form="final" d="M-76 -244q276 0 418 68q139 68 211 176q63 100 63 285q0 143 -47 266h322l18 -68q31 -127 82 -184q41 -43 107 -43h67v-256h-116q-74 0 -138 27q-23 -82 -55 -140q-113 -188 -313 -286q-203 -100 -619 -101v256z" />
<glyph unicode="&#x632;" horiz-adv-x="1060" arabic-form="isolated" d="M-76 -244q276 0 418 68q135 63 211 176q63 102 63 285q0 143 -47 266h322q45 -147 45 -266q0 -264 -80 -398q-113 -188 -313 -286q-203 -100 -619 -101v256zM651 784v150h135v-150h-135z" />
<glyph unicode="&#x632;" horiz-adv-x="1144" arabic-form="final" d="M651 784v150h135v-150h-135zM-76 -244q276 0 418 68q139 68 211 176q63 100 63 285q0 143 -47 266h322l18 -68q31 -127 82 -184q41 -43 107 -43h67v-256h-116q-74 0 -138 27q-23 -82 -55 -140q-113 -188 -313 -286q-203 -100 -619 -101v256z" />
<glyph unicode="&#x633;" horiz-adv-x="2541" arabic-form="isolated" d="M117 -23q0 195 96 377h322q-98 -207 -99 -377q0 -158 131 -198q35 -12 82 -12q96 0 168 59q86 74 117 133q51 102 51 221q0 127 -14 187l-58 233h322l33 -156q16 -80 39 -135q25 -59 100 -59q63 0 84 53q35 86 35 297h321q0 -213 17 -256q31 -94 92 -94q113 0 112 207 v293h322v-342q0 -199 -82 -312q-63 -88 -192 -112q-61 -12 -162 -13q-72 0 -125 29q-133 70 -143 170q-31 -133 -156 -170q-63 -18 -127 -18q-78 0 -139 90q0 -186 -70 -301q-106 -178 -320 -244q-92 -27 -221 -27q-182 0 -272 35q-264 101 -264 442z" />
<glyph unicode="&#x633;" horiz-adv-x="2603" arabic-form="final" d="M117 -23q0 195 96 377h322q-98 -207 -99 -377q0 -158 131 -198q35 -12 82 -12q96 0 168 59q86 74 117 133q51 102 51 221q0 127 -14 187l-58 233h322l33 -156q16 -80 39 -135q20 -55 100 -59q66 -4 84 53q35 100 35 297h321q0 -213 17 -256q31 -94 92 -94q113 0 112 207 v293h322v-295q0 -106 43 -156q41 -43 102 -43h88v-256h-241q-72 0 -117 51q-74 -51 -149 -67q-55 -12 -162 -13q-72 0 -125 29q-133 70 -143 170q-31 -133 -156 -170q-63 -18 -127 -18q-78 0 -139 90q0 -186 -70 -301q-106 -178 -320 -244q-92 -27 -221 -27q-182 0 -272 35 q-264 101 -264 442z" />
<glyph unicode="&#x633;" horiz-adv-x="1810" arabic-form="initial" d="M-18 0v256h88q61 0 100 43q45 47 45 156l-2 145h324v-156q0 -35 41 -135q25 -59 98 -59q66 0 86 53q33 80 33 297h321q0 -207 19 -256q31 -94 92 -94q111 0 110 207v293h324v-342q0 -199 -82 -312q-63 -88 -193 -112q-61 -12 -161 -13q-72 0 -125 29q-133 70 -144 170 q-31 -133 -155 -170q-65 -18 -129 -18q-229 0 -303 96q-66 -78 -146 -78h-241z" />
<glyph unicode="&#x633;" horiz-adv-x="1873" arabic-form="medial" d="M-18 0v256h88q61 0 100 43q45 47 45 156l-2 145h324v-156q0 -35 41 -135q25 -59 98 -59q66 0 86 53q33 80 33 297h321q0 -207 19 -256q31 -94 92 -94q111 0 110 207v293h324v-295q0 -109 45 -156q39 -43 98 -43h90v-256h-241q-72 0 -117 51q-74 -51 -150 -67 q-61 -12 -161 -13q-72 0 -125 29q-133 70 -144 170q-31 -133 -155 -170q-65 -18 -129 -18q-229 0 -303 96q-66 -78 -146 -78h-241z" />
<glyph unicode="&#x634;" horiz-adv-x="2541" arabic-form="isolated" d="M1315 801v150h135v-150h-135zM1428 1051v149h135v-149h-135zM1540 801v150h135v-150h-135zM117 -23q0 195 96 377h322q-98 -207 -99 -377q0 -158 131 -198q35 -12 82 -12q96 0 168 59q86 74 117 133q51 102 51 221q0 127 -14 187l-58 233h322l33 -156q16 -80 39 -135 q25 -59 100 -59q63 0 84 53q35 86 35 297h321q0 -213 17 -256q31 -94 92 -94q113 0 112 207v293h322v-342q0 -199 -82 -312q-63 -88 -192 -112q-61 -12 -162 -13q-72 0 -125 29q-133 70 -143 170q-31 -133 -156 -170q-63 -18 -127 -18q-78 0 -139 90q0 -186 -70 -301 q-106 -178 -320 -244q-92 -27 -221 -27q-182 0 -272 35q-264 101 -264 442z" />
<glyph unicode="&#x634;" horiz-adv-x="2603" arabic-form="final" d="M1315 801v150h135v-150h-135zM1428 1051v149h135v-149h-135zM1540 801v150h135v-150h-135zM117 -23q0 195 96 377h322q-98 -207 -99 -377q0 -158 131 -198q35 -12 82 -12q96 0 168 59q86 74 117 133q51 102 51 221q0 127 -14 187l-58 233h322l33 -156q16 -80 39 -135 q20 -55 100 -59q66 -4 84 53q35 100 35 297h321q0 -213 17 -256q31 -94 92 -94q113 0 112 207v293h322v-295q0 -106 43 -156q41 -43 102 -43h88v-256h-241q-72 0 -117 51q-74 -51 -149 -67q-55 -12 -162 -13q-72 0 -125 29q-133 70 -143 170q-31 -133 -156 -170 q-63 -18 -127 -18q-78 0 -139 90q0 -186 -70 -301q-106 -178 -320 -244q-92 -27 -221 -27q-182 0 -272 35q-264 101 -264 442z" />
<glyph unicode="&#x634;" horiz-adv-x="1810" arabic-form="initial" d="M729 801v150h135v-150h-135zM842 1051v149h135v-149h-135zM954 801v150h135v-150h-135zM-18 0v256h88q61 0 100 43q45 47 45 156l-2 145h324v-156q0 -35 41 -135q25 -59 98 -59q66 0 86 53q33 80 33 297h321q0 -207 19 -256q31 -94 92 -94q111 0 110 207v293h324v-342 q0 -199 -82 -312q-63 -88 -193 -112q-61 -12 -161 -13q-72 0 -125 29q-133 70 -144 170q-31 -133 -155 -170q-65 -18 -129 -18q-229 0 -303 96q-66 -78 -146 -78h-241z" />
<glyph unicode="&#x634;" horiz-adv-x="1873" arabic-form="medial" d="M729 801v150h135v-150h-135zM842 1051v149h135v-149h-135zM954 801v150h135v-150h-135zM-18 0v256h88q61 0 100 43q45 47 45 156l-2 145h324v-156q0 -35 41 -135q25 -59 98 -59q66 0 86 53q33 80 33 297h321q0 -207 19 -256q31 -94 92 -94q111 0 110 207v293h324v-295 q0 -109 45 -156q39 -43 98 -43h90v-256h-241q-72 0 -117 51q-74 -51 -150 -67q-61 -12 -161 -13q-72 0 -125 29q-133 70 -144 170q-31 -133 -155 -170q-65 -18 -129 -18q-229 0 -303 96q-66 -78 -146 -78h-241z" />
<glyph unicode="&#x635;" horiz-adv-x="2478" arabic-form="isolated" d="M117 -23q0 195 96 377h322q-98 -207 -99 -377q0 -158 131 -198q35 -12 82 -12q96 0 168 59q86 74 117 133q51 102 51 221q0 86 -47 271h299q4 -43 12 -70q10 -37 45 -90q94 221 269 346q147 104 286 104q170 0 275 -51q207 -98 207 -293q0 -212 -166 -307 q-154 -90 -518 -90h-224q-55 0 -116 31q-27 12 -43 41q0 -186 -70 -301q-106 -178 -320 -244q-92 -27 -221 -27q-182 0 -272 35q-264 101 -264 442zM1587 256h62q141 0 254 49q106 45 106 103q0 27 -53 55q-51 23 -92 22q-66 -2 -166 -82q-62 -49 -111 -147z" />
<glyph unicode="&#x635;" horiz-adv-x="2512" arabic-form="final" d="M117 -23q0 195 96 377h322q-98 -207 -99 -377q0 -158 131 -198q35 -12 82 -12q96 0 168 59q86 74 117 133q51 102 51 221q0 86 -47 271h299q4 -43 12 -70q10 -37 45 -90q94 221 269 346q147 104 286 104q170 0 275 -51q207 -98 207 -293q0 -49 63 -106q41 -35 80 -35h59 v-256h-77q-170 0 -250 121q-29 -23 -41 -31q-143 -90 -518 -90h-224q-55 0 -116 31q-27 12 -43 41q0 -186 -70 -301q-106 -178 -320 -244q-92 -27 -221 -27q-182 0 -272 35q-264 101 -264 442zM1587 256h62q141 0 254 49q106 45 106 103q0 27 -53 55q-51 23 -92 22 q-66 -2 -166 -82q-62 -49 -111 -147z" />
<glyph unicode="&#x635;" horiz-adv-x="1779" arabic-form="initial" d="M-18 0v256h88q61 0 100 43q45 47 45 156l-2 145h324v-156q0 -101 61 -153q96 225 264 346q147 104 289 104q170 0 274 -51q207 -98 207 -293q0 -212 -166 -307q-154 -90 -518 -90h-248q-92 0 -178 31q-72 27 -112 84q-98 -115 -187 -115h-241zM889 256h61q139 0 254 49 q106 45 107 103q0 27 -54 55q-49 23 -92 22q-70 -4 -166 -82q-61 -49 -110 -147z" />
<glyph unicode="&#x635;" horiz-adv-x="1814" arabic-form="medial" d="M-18 0v256h88q61 0 100 43q45 47 45 156l-2 145h324v-156q0 -101 61 -153q96 225 264 346q147 104 289 104q170 0 274 -51q207 -98 207 -293q0 -49 64 -106q41 -35 80 -35h59v-256h-78q-170 0 -250 121q-29 -25 -41 -31q-147 -90 -518 -90h-248q-92 0 -178 31 q-72 27 -112 84q-98 -115 -187 -115h-241zM889 256h61q139 0 254 49q106 45 107 103q0 27 -54 55q-49 23 -92 22q-70 -4 -166 -82q-61 -49 -110 -147z" />
<glyph unicode="&#x636;" horiz-adv-x="2478" arabic-form="isolated" d="M1237 784v150h135v-150h-135zM117 -23q0 195 96 377h322q-98 -207 -99 -377q0 -158 131 -198q35 -12 82 -12q96 0 168 59q86 74 117 133q51 102 51 221q0 86 -47 271h299q4 -43 12 -70q10 -37 45 -90q94 221 269 346q147 104 286 104q170 0 275 -51q207 -98 207 -293 q0 -212 -166 -307q-154 -90 -518 -90h-224q-55 0 -116 31q-27 12 -43 41q0 -186 -70 -301q-106 -178 -320 -244q-92 -27 -221 -27q-182 0 -272 35q-264 101 -264 442zM1587 256h62q141 0 254 49q106 45 106 103q0 27 -53 55q-51 23 -92 22q-66 -2 -166 -82 q-62 -49 -111 -147z" />
<glyph unicode="&#x636;" horiz-adv-x="2512" arabic-form="final" d="M1237 784v150h135v-150h-135zM117 -23q0 195 96 377h322q-98 -207 -99 -377q0 -158 131 -198q35 -12 82 -12q96 0 168 59q86 74 117 133q51 102 51 221q0 86 -47 271h299q4 -43 12 -70q10 -37 45 -90q94 221 269 346q147 104 286 104q170 0 275 -51q207 -98 207 -293 q0 -49 63 -106q41 -35 80 -35h59v-256h-77q-170 0 -250 121q-29 -23 -41 -31q-143 -90 -518 -90h-224q-55 0 -116 31q-27 12 -43 41q0 -186 -70 -301q-106 -178 -320 -244q-92 -27 -221 -27q-182 0 -272 35q-264 101 -264 442zM1587 256h62q141 0 254 49q106 45 106 103 q0 27 -53 55q-51 23 -92 22q-66 -2 -166 -82q-62 -49 -111 -147z" />
<glyph unicode="&#x636;" horiz-adv-x="1779" arabic-form="initial" d="M561 836v150h135v-150h-135zM-18 0v256h88q61 0 100 43q45 47 45 156l-2 145h324v-156q0 -101 61 -153q96 225 264 346q147 104 289 104q170 0 274 -51q207 -98 207 -293q0 -212 -166 -307q-154 -90 -518 -90h-248q-92 0 -178 31q-72 27 -112 84q-98 -115 -187 -115h-241 zM889 256h61q139 0 254 49q106 45 107 103q0 27 -54 55q-49 23 -92 22q-70 -4 -166 -82q-61 -49 -110 -147z" />
<glyph unicode="&#x636;" horiz-adv-x="1814" arabic-form="medial" d="M561 836v150h135v-150h-135zM-18 0v256h88q61 0 100 43q45 47 45 156l-2 145h324v-156q0 -101 61 -153q96 225 264 346q147 104 289 104q170 0 274 -51q207 -98 207 -293q0 -49 64 -106q41 -35 80 -35h59v-256h-78q-170 0 -250 121q-29 -25 -41 -31q-147 -90 -518 -90 h-248q-92 0 -178 31q-72 27 -112 84q-98 -115 -187 -115h-241zM889 256h61q139 0 254 49q106 45 107 103q0 27 -54 55q-49 23 -92 22q-70 -4 -166 -82q-61 -49 -110 -147z" />
<glyph unicode="&#x637;" horiz-adv-x="1912" arabic-form="isolated" d="M129 0v256h303v1300h322v-1194q127 172 268 275q147 104 287 104q168 0 272 -51q209 -98 209 -293q0 -212 -166 -307q-154 -90 -518 -90h-588h-389zM1047 256h61q141 0 254 49q106 45 106 103q0 27 -53 55q-51 23 -92 22q-68 -4 -168 -82q-57 -47 -108 -147z" />
<glyph unicode="&#x637;" horiz-adv-x="1972" arabic-form="final" d="M129 0v256h303v1300h322v-1194q127 172 268 275q147 104 287 104q168 0 272 -51q209 -98 209 -293q0 -49 63 -106q41 -35 78 -35h62v-256h-78q-170 0 -250 121q-10 -10 -41 -31q-147 -90 -518 -90h-588h-389zM1047 256h61q141 0 254 49q106 45 106 103q0 27 -53 55 q-51 23 -92 22q-68 -4 -168 -82q-57 -47 -108 -147z" />
<glyph unicode="&#x637;" horiz-adv-x="1734" arabic-form="initial" d="M-18 0v256h272v1300h321v-1194q129 176 267 275q147 104 288 104q170 0 275 -51q207 -98 207 -293q0 -212 -166 -307q-154 -90 -518 -90h-586h-360zM868 256h62q139 0 254 49q106 45 106 103q0 27 -53 55q-51 23 -92 22q-66 -2 -166 -82q-62 -49 -111 -147z" />
<glyph unicode="&#x637;" horiz-adv-x="1794" arabic-form="medial" d="M-18 0v256h272v1300h321v-1194q129 176 267 275q147 104 288 104q170 0 275 -51q207 -98 207 -293q0 -49 63 -106q41 -35 78 -35h62v-256h-78q-170 0 -250 121q-10 -10 -41 -31q-147 -90 -518 -90h-586h-360zM868 256h62q139 0 254 49q106 45 106 103q0 27 -53 55 q-51 23 -92 22q-66 -2 -166 -82q-62 -49 -111 -147z" />
<glyph unicode="&#x638;" horiz-adv-x="1912" arabic-form="isolated" d="M129 0v256h303v1300h322v-1194q127 172 268 275q147 104 287 104q168 0 272 -51q209 -98 209 -293q0 -212 -166 -307q-154 -90 -518 -90h-588h-389zM1047 256h61q141 0 254 49q106 45 106 103q0 27 -53 55q-51 23 -92 22q-68 -4 -168 -82q-57 -47 -108 -147zM1022 836 v150h135v-150h-135z" />
<glyph unicode="&#x638;" horiz-adv-x="1972" arabic-form="final" d="M1022 836v150h135v-150h-135zM129 0v256h303v1300h322v-1194q127 172 268 275q147 104 287 104q168 0 272 -51q209 -98 209 -293q0 -49 63 -106q41 -35 78 -35h62v-256h-78q-170 0 -250 121q-10 -10 -41 -31q-147 -90 -518 -90h-588h-389zM1047 256h61q141 0 254 49 q106 45 106 103q0 27 -53 55q-51 23 -92 22q-68 -4 -168 -82q-57 -47 -108 -147z" />
<glyph unicode="&#x638;" horiz-adv-x="1734" arabic-form="initial" d="M844 836v150h135v-150h-135zM-18 0v256h272v1300h321v-1194q129 176 267 275q147 104 288 104q170 0 275 -51q207 -98 207 -293q0 -212 -166 -307q-154 -90 -518 -90h-586h-360zM868 256h62q139 0 254 49q106 45 106 103q0 27 -53 55q-51 23 -92 22q-66 -2 -166 -82 q-62 -49 -111 -147z" />
<glyph unicode="&#x638;" horiz-adv-x="1794" arabic-form="medial" d="M844 836v150h135v-150h-135zM-18 0v256h272v1300h321v-1194q129 176 267 275q147 104 288 104q170 0 275 -51q207 -98 207 -293q0 -49 63 -106q41 -35 78 -35h62v-256h-78q-170 0 -250 121q-10 -10 -41 -31q-147 -90 -518 -90h-586h-360zM868 256h62q139 0 254 49 q106 45 106 103q0 27 -53 55q-51 23 -92 22q-66 -2 -166 -82q-62 -49 -111 -147z" />
<glyph unicode="&#x639;" horiz-adv-x="1257" arabic-form="isolated" d="M162 0q0 213 108 352q47 61 84 82q-43 2 -88 35q-80 55 -80 215q0 150 205 313q106 86 477 70v-256q-205 6 -278 -33q-84 -47 -84 -125q0 -51 43 -78q39 -27 153 21q129 53 371 72v-256q-328 -53 -434 -131q-156 -117 -156 -256q0 -102 92 -193q78 -76 295 -76 q268 0 457 154v-277q-145 -133 -453 -133q-424 0 -573 162q-139 152 -139 338z" />
<glyph unicode="&#x639;" horiz-adv-x="1257" arabic-form="final" d="M104 0q0 137 80 254q76 113 121 143q-43 33 -65 72q-27 41 -27 86q0 33 12 76q14 53 109 106q78 45 262 45t262 -45q94 -53 109 -106q12 -41 12 -76q0 -41 -29 -86q-28 -46 -104 -111q41 -37 92 -57q117 -45 254 -45h86v-256h-107q-416 0 -612 213q-131 -88 -131 -213 q0 -78 92 -168q78 -76 293 -76q270 0 459 154v-277q-145 -133 -453 -133q-422 0 -571 162q-144 156 -144 338z" />
<glyph unicode="&#x639;" horiz-adv-x="1257" arabic-form="initial" d="M-18 0v256h100q154 0 272 41q-90 82 -125 147q-51 98 -43 236q8 139 193 285q115 90 489 102v-256q-160 6 -260 -55q-109 -66 -108 -152q0 -109 55 -149q84 -61 147 -41q172 51 371 145v-256q-160 -90 -442 -188q-334 -115 -527 -115h-122z" />
<glyph unicode="&#x639;" horiz-adv-x="1038" arabic-form="medial" d="M-18 0v256h86q96 0 147 45q8 6 55 57q-77 65 -104 111q-29 45 -29 86q0 35 13 76q14 55 106 106q78 45 264 45q184 0 262 -45q94 -53 109 -106q12 -41 12 -76q0 -45 -26 -86q-33 -47 -107 -111l53 -57q51 -45 150 -45h86v-256h-107q-207 0 -432 164q-225 -164 -432 -164 h-106z" />
<glyph unicode="&#x63a;" horiz-adv-x="1257" arabic-form="isolated" d="M162 0q0 213 108 352q47 61 84 82q-43 2 -88 35q-80 55 -80 215q0 150 205 313q106 86 477 70v-256q-205 6 -278 -33q-84 -47 -84 -125q0 -51 43 -78q39 -27 153 21q129 53 371 72v-256q-328 -53 -434 -131q-156 -117 -156 -256q0 -102 92 -193q78 -76 295 -76 q268 0 457 154v-277q-145 -133 -453 -133q-424 0 -573 162q-139 152 -139 338zM428 1186v150h135v-150h-135z" />
<glyph unicode="&#x63a;" horiz-adv-x="1257" arabic-form="final" d="M518 936v150h135v-150h-135zM104 0q0 137 80 254q76 113 121 143q-43 33 -65 72q-27 41 -27 86q0 33 12 76q14 53 109 106q78 45 262 45t262 -45q94 -53 109 -106q12 -41 12 -76q0 -41 -29 -86q-28 -46 -104 -111q41 -37 92 -57q117 -45 254 -45h86v-256h-107 q-416 0 -612 213q-131 -88 -131 -213q0 -78 92 -168q78 -76 293 -76q270 0 459 154v-277q-145 -133 -453 -133q-422 0 -571 162q-144 156 -144 338z" />
<glyph unicode="&#x63a;" horiz-adv-x="1257" arabic-form="initial" d="M428 1186v150h135v-150h-135zM-18 0v256h100q154 0 272 41q-90 82 -125 147q-51 98 -43 236q8 139 193 285q115 90 489 102v-256q-160 6 -260 -55q-109 -66 -108 -152q0 -109 55 -149q84 -61 147 -41q172 51 371 145v-256q-160 -90 -442 -188q-334 -115 -527 -115h-122z " />
<glyph unicode="&#x63a;" horiz-adv-x="1038" arabic-form="medial" d="M453 936v150h135v-150h-135zM-18 0v256h86q96 0 147 45q8 6 55 57q-77 65 -104 111q-29 45 -29 86q0 35 13 76q14 55 106 106q78 45 264 45q184 0 262 -45q94 -53 109 -106q12 -41 12 -76q0 -45 -26 -86q-33 -47 -107 -111l53 -57q51 -45 150 -45h86v-256h-107 q-207 0 -432 164q-225 -164 -432 -164h-106z" />
<glyph unicode="&#x641;" horiz-adv-x="2140" arabic-form="isolated" d="M117 313q0 117 57 232h322q-66 -137 -45 -185q41 -102 170 -127q121 -25 297 -24q203 0 456 47q209 41 242 98q-47 -20 -111 -20q-199 2 -284 86q-88 82 -88 217q0 37 8 94q20 158 155 217q98 43 236 43q217 0 305 -55q70 -43 127 -211q31 -98 31 -260q0 -184 -103 -311 q-88 -106 -266 -144q-285 -59 -731 -59q-451 0 -481 8q-297 75 -297 354zM1454 655q0 -39 33 -67q20 -18 63 -19q45 0 72 23q33 29 33 65q0 61 -45 88q-23 14 -64 15q-43 0 -67 -29q-25 -25 -25 -76zM1485 1135v150h135v-150h-135z" />
<glyph unicode="&#x641;" horiz-adv-x="2193" arabic-form="final" d="M1485 1135v150h135v-150h-135zM117 313q0 141 57 232h322q-45 -92 -45 -185q0 -72 170 -137q63 -25 297 -24q301 0 366 10q-8 8 -20 24q-125 158 -125 334q0 106 20 168q43 133 148 199q90 57 225 57q178 0 305 -65q80 -41 125 -158q33 -86 33 -236q0 -133 -80 -262 q106 -14 256 -14h43v-256h-96q-182 0 -318 14q-74 8 -110 15l-64 -29q-88 -53 -731 -57q-369 0 -481 26q-297 74 -297 344zM1454 575q0 -100 62 -163q25 -29 71 -50q68 95 68 209q0 76 -45 136q-20 29 -64 28q-45 0 -67 -41q-25 -39 -25 -119z" />
<glyph unicode="&#x641;" horiz-adv-x="1204" arabic-form="initial" d="M541 1135v150h135v-150h-135zM-18 0v256h518q57 0 88 8q72 20 94 90q0 -6 -111 -6q-209 0 -284 72q-88 82 -88 217q0 37 8 94q25 162 155 217q98 43 236 43q215 0 305 -55q72 -47 127 -211q31 -90 31 -260q0 -150 -103 -311q-43 -66 -170 -117q-88 -37 -217 -37h-589z M520 655q0 -39 33 -67q18 -18 63.5 -18.5t71.5 22.5q33 27 33 65q0 61 -45 88q-23 14 -64 15q-43 0 -67.5 -29t-24.5 -76z" />
<glyph unicode="&#x641;" horiz-adv-x="1325" arabic-form="medial" d="M596 1135v150h135v-150h-135zM-18 0v256h43q182 0 325 20q-150 129 -149 256q0 150 32 236q45 117 125 158q127 66 305.5 65.5t305.5 -65.5q78 -39 125 -158q33 -86 32 -236q0 -127 -149 -256q143 -20 326 -20h43v-256h-99q-180 0 -315 14q-170 18 -268 70 q-98 -51 -269 -70q-135 -14 -317 -14h-96zM541 571q0 -104 123 -155q123 51 122 155q0 80 -41 134q-20 31 -81.5 30.5t-81.5 -30.5q-41 -58 -41 -134z" />
<glyph unicode="&#x642;" horiz-adv-x="1646" arabic-form="isolated" d="M96 37q0 180 74 395h322q-74 -178 -78 -340q0 -61 10 -112q29 -164 166 -164q195 0 336 98q274 195 274 471q-70 -51 -170 -51q-195 0 -282 86q-88 82 -89 217q0 51 7 94q20 160 155 217q98 43 238 43q217 0 305 -55q72 -47 127 -211q29 -84 29 -260q0 -211 -54 -344 q-96 -242 -307 -404q-207 -158 -573 -157q-299 0 -420 192q-70 115 -70 285zM981 655q0 -40 31 -67q20 -18 63 -19q47 0 74 23q33 27 33 65q0 61 -45 88q-23 14 -66 14.5t-67 -28.5q-23 -27 -23 -76zM899 1151v150h135v-150h-135zM1124 1151v150h135v-150h-135z" />
<glyph unicode="&#x642;" horiz-adv-x="1660" arabic-form="final" d="M899 825v150h135v-150h-135zM1124 825v150h135v-150h-135zM96 -66q6 115 43 166h322q-47 -45 -47 -108q0 -55 10 -86q55 -150 207 -150q238 0 389 99q100 66 121 145q-51 0 -111 2q-200 6 -282 86q-88 82 -89 215q0 53 7 96q25 162 155 217q98 43 238 43q221 0 305 -57 q82 -55 127 -209q18 -59 25 -137h163v-256h-182q-20 -119 -80 -213q-84 -131 -243 -193q-250 -98 -547 -94q-344 4 -461 193q-76 120 -70 241zM981 340q0 -45 31 -64q37 -20 63 -20h111q0 33 -4 70q-6 40 -49 80q-23 23 -62 22q-37 0 -63 -31q-27 -28 -27 -57z" />
<glyph unicode="&#x642;" horiz-adv-x="1204" arabic-form="initial" d="M428 1151v150h135v-150h-135zM653 1151v150h135v-150h-135zM-18 0v256h518q57 0 88 8q72 20 94 90q0 -6 -111 -6q-209 0 -284 72q-88 82 -88 217q0 37 8 94q25 162 155 217q98 43 236 43q215 0 305 -55q72 -47 127 -211q31 -90 31 -260q0 -150 -103 -311 q-43 -66 -170 -117q-88 -37 -217 -37h-589zM520 655q0 -39 33 -67q18 -18 63.5 -18.5t71.5 22.5q33 27 33 65q0 61 -45 88q-23 14 -64 15q-43 0 -67.5 -29t-24.5 -76z" />
<glyph unicode="&#x642;" horiz-adv-x="1325" arabic-form="medial" d="M483 1151v150h135v-150h-135zM708 1151v150h135v-150h-135zM-18 0v256h43q182 0 325 20q-150 129 -149 256q0 150 32 236q45 117 125 158q127 66 305.5 65.5t305.5 -65.5q78 -39 125 -158q33 -86 32 -236q0 -127 -149 -256q143 -20 326 -20h43v-256h-99q-180 0 -315 14 q-170 18 -268 70q-98 -51 -269 -70q-135 -14 -317 -14h-96zM541 571q0 -104 123 -155q123 51 122 155q0 80 -41 134q-20 31 -81.5 30.5t-81.5 -30.5q-41 -58 -41 -134z" />
<glyph unicode="&#x643;" horiz-adv-x="1687" arabic-form="isolated" d="M129 260q0 78 14 127h324q-12 -35 -12 -59q0 -49 143 -107q49 -20 166 -20q109 0 194 32q106 39 154 109q68 102 68 268v946h321v-946q0 -326 -98 -448q-133 -168 -334 -199q-126 -18 -301 -18q-287 4 -375 32q-264 89 -264 283zM586 616v121q55 -8 102 -8q78 0 105 14 q55 25 55 68q0 23 -72 41q-55 14 -82 57q-29 47 -28 92q2 80 69 119q76 45 230 47v-114q-51 0 -101 -6q-72 -12 -71 -41q0 -43 34 -66q29 -20 52 -27q92 -31 92 -116q0 -109 -80 -152q-72 -39 -195 -39q-69 0 -110 10z" />
<glyph unicode="&#x643;" horiz-adv-x="1714" arabic-form="final" d="M129 260q0 78 14 127h324q-12 -35 -12 -59q0 -49 143 -107q49 -20 166 -20q109 0 194 32q106 39 154 109q68 102 68 268v946h321v-1101q0 -106 43 -156q41 -43 103 -43h88v-256h-322q-66 0 -123 53q-100 -72 -221 -90q-126 -18 -301 -18q-287 4 -375 32q-264 89 -264 283 zM586 616v121q55 -8 102 -8q78 0 105 14q55 25 55 68q0 23 -72 41q-55 14 -82 57q-29 47 -28 92q2 80 69 119q76 45 230 47v-114q-51 0 -101 -6q-72 -12 -71 -41q0 -43 34 -66q29 -20 52 -27q92 -31 92 -116q0 -109 -80 -152q-72 -39 -195 -39q-69 0 -110 10z" />
<glyph unicode="&#x643;" horiz-adv-x="1069" arabic-form="initial" d="M-18 0v256h356q104 0 119 39q14 35 14 72q0 27 -72 129l-266 378q-45 68 -45 144q0 37 8 67q31 125 123 160l852 311v-256l-514 -198q-59 -25 -82 -72q-6 -12 -6 -35q0 -25 29 -69l209 -312q139 -207 139 -299q0 -170 -90 -239q-98 -76 -307 -76h-467z" />
<glyph unicode="&#x643;" horiz-adv-x="1069" arabic-form="medial" d="M-18 0v256h356q104 0 119 39q14 35 14 72q0 27 -72 129l-266 378q-45 68 -45 144q0 37 8 67q31 125 123 160l852 311v-256l-514 -198q-59 -25 -82 -72q-6 -12 -6 -35q0 -29 29 -69l376 -559q27 -41 76 -84q33 -27 80 -27h60v-256h-129q-135 0 -205 76q-98 -76 -307 -76 h-467z" />
<glyph unicode="&#x644;" horiz-adv-x="1597" arabic-form="isolated" d="M129 76q0 139 57 229h322q-63 -100 -57 -229q4 -117 147 -150q117 -29 244 19q143 51 198 129q72 100 72 352v1130h322v-1130q0 -317 -88 -461q-104 -170 -345 -244q-316 -95 -608 -12q-264 78 -264 367z" />
<glyph unicode="&#x644;" horiz-adv-x="1644" arabic-form="final" d="M129 76q0 139 57 229h322q-63 -100 -57 -229q4 -117 147 -150q117 -29 244 19q143 51 198 129q72 100 72 352v1130h322v-1130q0 -76 45 -127q41 -43 100 -43h84v-256h-221q-59 0 -70 16q-102 -213 -371 -295q-315 -98 -608 -12q-264 78 -264 367z" />
<glyph unicode="&#x644;" horiz-adv-x="690" arabic-form="initial" d="M-18 0v256h88q61 0 100 43q45 51 45 156v1101h322v-1185q0 -180 -62 -279q-58 -92 -172 -92h-321z" />
<glyph unicode="&#x644;" horiz-adv-x="751" arabic-form="medial" d="M-18 0v256h88q61 0 100 43q45 51 45 156v1101h322v-1101q0 -104 45 -156q41 -43 100 -43h88v-256h-225q-96 0 -168 109q-68 -109 -168 -109h-227z" />
<glyph unicode="&#x645;" horiz-adv-x="1349" arabic-form="isolated" d="M127 0q0 225 106 293q131 84 218 96l-2 23q0 147 145 280q70 63 213 63.5t213 -36.5q168 -86 188 -250q6 -51 6 -100q0 -143 -86 -211q-109 -86 -286 -86q-250 0 -324 67q-18 16 -53 -51q-16 -33 -16 -88v-500h-322v500zM743 395q0 -27 11 -53q20 -14 75 -14q35 0 60 18 q31 23 31 51q0 45 -21 66q-2 2 -39 31q-10 10 -47 6q-29 -4 -43 -21q-27 -33 -27 -84z" />
<glyph unicode="&#x645;" horiz-adv-x="1443" arabic-form="final" d="M127 -121q0 225 106 293q131 84 218 96l-2 25q0 145 145 278q70 63 213 63.5t213 -36.5q127 -68 168 -168q45 -109 69 -139q29 -35 140 -35h65v-256h-116q-158 0 -193 59l-14.5 -14t-10.5 -8q-104 -84 -286 -84q-252 0 -324 65q-20 16 -53 -49q-16 -33 -16 -90v-379h-322 v379zM743 276q0 -29 11 -55q16 -12 75 -12q35 0 60 18q31 23 31 52q0 43 -21 63q-10 10 -39 33q-10 10 -47 6q-27 -2 -43 -23q-27 -33 -27 -82z" />
<glyph unicode="&#x645;" horiz-adv-x="1140" arabic-form="initial" d="M-18 0v256h104q55 0 107 39q45 35 63 92q31 95 129 184q70 63 213 63.5t213 -36.5q168 -86 188 -250q6 -53 7 -100q0 -143 -88 -211q-104 -84 -285 -84q-219 0 -326 65q-23 14 -28 29q-55 -47 -152 -47h-145zM512 248q53 -39 109 -39q35 0 59 18q31 23 31 52q0 41 -23 63 q-16 16 -39 33q-8 8 -45 6q-27 -2 -43 -23q-31 -37 -33 -61t-16 -49z" />
<glyph unicode="&#x645;" horiz-adv-x="1234" arabic-form="medial" d="M-18 0v256h104q55 0 107 39q45 35 63 92q31 95 129 184q70 63 213 64q145 0 213 -37q125 -68 168 -168q45 -109 70 -139q29 -35 137 -35h67v-256h-116q-160 0 -195 59q-8 -6 -16 -14l-8 -8q-104 -84 -285 -84q-219 0 -326 65q-23 14 -28 29q-55 -47 -152 -47h-145z M512 248q53 -39 109 -39q35 0 59 18q31 23 31 52q0 41 -23 63q-16 16 -39 33q-8 8 -45 6q-27 -2 -43 -23q-31 -37 -33 -61t-16 -49z" />
<glyph unicode="&#x646;" horiz-adv-x="1572" arabic-form="isolated" d="M113 168q0 139 37 315h321q-37 -160 -37 -293q0 -178 180 -251q47 -20 119 -21q47 0 107 16q188 55 241 216q31 95 31 215q0 168 -90 385h321q92 -164 93 -439q0 -176 -90 -350q-109 -217 -322 -264q-164 -35 -287 -35q-172 0 -309 43q-315 98 -315 463zM608 784v150h135 v-150h-135z" />
<glyph unicode="&#x646;" horiz-adv-x="1656" arabic-form="final" d="M608 635v150h135v-150h-135zM113 6q0 141 37 316h321q-37 -160 -37 -293q0 -178 180 -252q47 -20 119 -21q57 0 107 17q193 55 241 215q31 95 31 215q0 168 -90 385h321q31 -57 33 -64q35 -92 45 -106q119 -162 213 -162h43v-256h-57q-150 0 -190 59q0 -96 -84 -260 q-113 -221 -322 -266q-156 -33 -287 -33q-172 0 -309 43q-315 98 -315 463z" />
<glyph unicode="&#x646;" horiz-adv-x="690" arabic-form="initial" d="M-18 0v256h88q61 0 100 43q45 51 45 156v145h322v-229q0 -180 -62 -279q-58 -92 -172 -92h-321zM309 836v150h135v-150h-135z" />
<glyph unicode="&#x646;" horiz-adv-x="751" arabic-form="medial" d="M-18 0v256h88q61 0 100 43q45 51 45 156v145h322v-145q0 -104 45 -156q41 -43 100 -43h88v-256h-225q-96 0 -168 109q-68 -109 -168 -109h-227zM309 836v150h135v-150h-135z" />
<glyph unicode="&#x647;" horiz-adv-x="1087" arabic-form="isolated" d="M88 291q0 178 35 258q82 184 358 184q197 0 387 -160q131 -109 127 -272q-4 -172 -133 -274q-108 -86 -319 -86q-152 0 -281 41q-172 57 -174 309zM410 315q0 -68 55 -102q25 -16 78 -16q35 0 71 24q59 43 60 88q0 41 -43 90q-68 80 -119 80q-76 0 -88 -43 q-14 -41 -14 -121z" />
<glyph unicode="&#x647;" horiz-adv-x="1116" arabic-form="final" d="M121 285q0 190 192 327q96 68 279 84q-4 45 -4 54h321q4 -207 33 -342q18 -84 55 -109q61 -43 70 -43h70v-256h-203q-80 0 -146 35q-59 31 -75 65q-96 -63 -310 -63q-53 0 -102 14q-180 50 -180 234zM442 328q0 -49 62 -49q84 0 129 38q-16 51 -21 91q-2 10 -5 28.5 t-3 22.5q-82 -8 -123 -43q-39 -33 -39 -88z" />
<glyph unicode="&#x647;" horiz-adv-x="1277" arabic-form="initial" d="M-18 0v256h96q82 0 141 10q-45 57 -57 84q-33 76 -33 142q0 113 109 210q39 37 112 56q-57 14 -131 22v256q397 -59 647 -266q227 -190 285 -369q16 -47 16 -108q0 -160 -84 -248q-111 -113 -319 -113q-203 0 -336 105q-96 -37 -324 -37h-122zM438 432q0 -33 17 -53 q20 -31 39 -49q90 61 90 104q0 33 -15 70q-14 33 -49 33q-41 0 -65 -45q-17 -33 -17 -60zM696 193q25 -6 45 -7q109 0 127 68q6 31 6 63q0 37 -32 97l-4 8q-27 -78 -50 -113q-37 -61 -92 -116z" />
<glyph unicode="&#x647;" horiz-adv-x="1214" arabic-form="medial" d="M-18 0v256h180q4 197 143 358q123 141 318 142q238 0 342 -84q78 -66 77 -168q0 -121 -145 -248h338v-256h-338q145 -127 145 -248q0 -102 -77 -168q-104 -84 -342 -84q-195 0 -318 142q-139 162 -143 358h-180zM483 0q0 -119 49 -188q39 -57 105 -58q90 0 90 49 q0 52 -86 129q-77 68 -141 68h-17zM483 256h17q65 0 141 68q86 77 86 129q0 49 -90 49q-66 0 -105 -58q-49 -71 -49 -188z" />
<glyph unicode="&#x648;" horiz-adv-x="1144" arabic-form="isolated" d="M-76 -244q215 -9 369 19q158 27 235 82q92 63 113 143q-57 0 -117 2q-203 6 -284 86q-88 82 -88 215q0 39 8 96q25 162 155 217q98 43 236 43q199 0 293 -57q92 -57 139 -209q25 -82 25 -237q0 -205 -80 -349q-82 -150 -283 -225q-219 -82 -721 -82v256zM473 340 q0 -43 33 -64q35 -20 63 -20h111q0 43 -6 70q-6 43 -47 80q-23 23 -62 22q-37 0 -63 -31q-29 -32 -29 -57z" />
<glyph unicode="&#x648;" horiz-adv-x="1153" arabic-form="final" d="M-76 -244q215 -9 369 19q162 29 235 82q92 63 113 143q-57 0 -117 2q-203 6 -284 86q-88 82 -88 215q0 39 8 96q25 162 155 217q98 43 236 43q221 0 305 -57q78 -53 127 -209q18 -59 25 -137h166v-256h-181q-10 -94 -65 -193q-86 -152 -283 -225q-219 -82 -721 -82v256z M473 340q0 -43 33 -64q35 -20 63 -20h111q0 43 -6 70q-6 43 -47 80q-23 23 -62 22q-37 0 -63 -31q-29 -32 -29 -57z" />
<glyph unicode="&#x649;" horiz-adv-x="1687" arabic-form="isolated" d="M117 174q0 141 57 232h322q-63 -98 -60 -232q4 -78 119 -121q41 -16 158 -16q129 0 252 35q223 66 225 159q0 96 -113 140l-162 59q-59 29 -110 80q-59 59 -60 172q0 168 170 223q129 41 254 41q152 0 250 -47q147 -71 172 -252h-286q-23 68 -123 68q-78 0 -103 -31 q-23 -35 -22 -43q2 -35 112 -66q195 -53 275 -163q70 -98 69 -197q0 -72 -36 -149q-80 -158 -445 -244q-182 -41 -301 -41q-281 0 -350 29q-264 108 -264 364z" />
<glyph unicode="&#x649;" horiz-adv-x="1863" arabic-form="final" d="M117 125q0 139 57 229h322q-63 -98 -60 -229q2 -68 119 -111q41 -16 190 -16q164 0 285 35q131 39 131 73q0 23 -24 44q-55 41 -60 47q-27 35 -26 120q0 100 43 146q66 76 110 96q70 35 205 35q231 0 324 -184q78 -154 125 -154h24v-256h-53q-156 0 -254 180 q-80 147 -141 148q-16 0 -25 -4q-39 -18 -39 -56q0 -43 51 -67q59 -29 60 -148q0 -178 -383 -270q-176 -41 -334 -41q-311 0 -383 29q-264 104 -264 354z" />
<glyph unicode="&#x64a;" horiz-adv-x="1687" arabic-form="isolated" d="M117 174q0 141 57 232h322q-63 -98 -60 -232q4 -78 119 -121q41 -16 158 -16q129 0 252 35q223 66 225 159q0 96 -113 140l-162 59q-59 29 -110 80q-59 59 -60 172q0 168 170 223q129 41 254 41q152 0 250 -47q147 -71 172 -252h-286q-23 68 -123 68q-78 0 -103 -31 q-23 -35 -22 -43q2 -35 112 -66q195 -53 275 -163q70 -98 69 -197q0 -72 -36 -149q-80 -158 -445 -244q-182 -41 -301 -41q-281 0 -350 29q-264 108 -264 364zM586 -500v150h135v-150h-135zM811 -500v150h135v-150h-135z" />
<glyph unicode="&#x64a;" horiz-adv-x="1863" arabic-form="final" d="M586 -500v150h135v-150h-135zM811 -500v150h135v-150h-135zM117 125q0 139 57 229h322q-63 -98 -60 -229q2 -68 119 -111q41 -16 190 -16q164 0 285 35q131 39 131 73q0 23 -24 44q-55 41 -60 47q-27 35 -26 120q0 100 43 146q66 76 110 96q70 35 205 35q231 0 324 -184 q78 -154 125 -154h24v-256h-53q-156 0 -254 180q-80 147 -141 148q-16 0 -25 -4q-39 -18 -39 -56q0 -43 51 -67q59 -29 60 -148q0 -178 -383 -270q-176 -41 -334 -41q-311 0 -383 29q-264 104 -264 354z" />
<glyph unicode="&#x64a;" horiz-adv-x="690" arabic-form="initial" d="M197 -340v150h135v-150h-135zM422 -340v150h135v-150h-135zM-18 0v256h88q61 0 100 43q45 51 45 156v145h322v-229q0 -180 -62 -279q-58 -92 -172 -92h-321z" />
<glyph unicode="&#x64a;" horiz-adv-x="751" arabic-form="medial" d="M197 -340v150h135v-150h-135zM422 -340v150h135v-150h-135zM-18 0v256h88q61 0 100 43q45 51 45 156v145h322v-145q0 -104 45 -156q41 -43 100 -43h88v-256h-225q-96 0 -168 109q-68 -109 -168 -109h-227z" />
<glyph unicode=" "  horiz-adv-x="638" />
<glyph unicode="&#x09;" horiz-adv-x="638" />
<glyph unicode="&#xa0;" horiz-adv-x="638" />
<glyph unicode="!" horiz-adv-x="839" d="M258 0v356h324v-356h-324zM258 920v573h324v-573l-45 -418h-234z" />
<glyph unicode="&#x22;" horiz-adv-x="958" d="M176 938v555h213v-555h-213zM571 938v555h213v-555h-213z" />
<glyph unicode="#" d="M125 383v215h295l63 274h-254v213h303l86 385h201l-86 -385h238l88 385h198l-88 -385h250v-213h-297l-61 -274h256v-215h-303l-86 -383h-201l86 383h-235l-89 -383h-198l86 383h-252zM621 598h237l64 274h-238z" />
<glyph unicode="$" horiz-adv-x="1280" d="M143 936q0 178 111 281q109 98 315 108v231h148v-227q123 -12 180 -24q98 -20 178 -45v-254q-80 39 -178 65q-78 23 -180 29v-287l26 -6q227 -39 322 -133q92 -92 92 -276.5t-110 -282.5q-109 -98 -330 -113v-303h-148v301q-109 6 -219 29q-92 18 -205 63v262 q111 -61 209 -90q119 -35 215 -37v312l-28 6q-215 43 -305 133q-93 92 -93 258zM428 971q0 -58 37 -92q37 -35 104 -43v262q-59 -2 -102 -39q-39 -33 -39 -88zM717 231q76 0 117 35q39 33 38 99q0 70 -36 102q-37 35 -119 43v-279z" />
<glyph unicode="%" horiz-adv-x="1845" d="M59 1114q0 188 96.5 297t262.5 109q168 0 264 -108.5t96 -297.5q0 -190 -96 -298.5t-264 -108.5q-166 0 -262.5 108.5t-96.5 298.5zM285 1114q0 -115 34 -178q34 -61 99 -62q66 0 100 62q35 63 35 178q0 119 -35 176q-37 61 -100 62q-65 0 -99 -62q-34 -63 -34 -176z M403 -29l840 1549h201l-842 -1549h-199zM1067 379q0 193 96 297q98 109 264 108q168 0 264.5 -108.5t96.5 -296.5q0 -186 -96 -299q-94 -109 -265 -109q-168 0 -264 109t-96 299zM1294 379q0 -113 35 -176q34 -61 98 -62q68 0 101 62q35 63 35 176t-35 176q-33 61 -101 61 q-65 0 -98 -61q-35 -63 -35 -176z" />
<glyph unicode="&#x26;" horiz-adv-x="1605" d="M111 467q0 145 63 258q63 111 211 219q-35 51 -55 107q-18 52 -19 110q0 162 115 260.5t303 98.5q88 0 172 -15q89 -15 184 -43v-278q-86 51 -159 71q-80 23 -148 23q-74 0 -108 -29q-37 -31 -37 -84q0 -37 20 -78q20 -43 66 -96l368 -450q45 66 72 157q25 86 31 197h278 q-16 -186 -63 -324q-49 -141 -139 -249l264 -322h-381l-88 109q-96 -72 -199 -105q-100 -33 -223 -33q-238 0 -383 137.5t-145 358.5zM422 506q0 -119 76 -197q77 -80 184 -80q63 0 113 21q52 22 98 61l-352 432q-55 -43 -88 -106q-31 -59 -31 -131z" />
<glyph unicode="'" horiz-adv-x="563" d="M176 938v555h213v-555h-213z" />
<glyph unicode="(" horiz-adv-x="841" d="M158 641q0 219 67 444q70 233 203 469h266q-113 -236 -172 -464q-57 -223 -57 -447q0 -225 57 -448q61 -242 172 -465h-266q-141 252 -205 469q-65 225 -65 442z" />
<glyph unicode=")" horiz-adv-x="841" d="M147 -270q113 236 172 465q59 231 60 448q0 215 -60 447q-59 229 -172 464h269q139 -248 202 -469q66 -227 66 -444t-65.5 -442.5t-202.5 -468.5h-269z" />
<glyph unicode="*" horiz-adv-x="962" d="M37 870l301 174l-301 173l67 141l302 -182v344h153v-344l299 182l70 -141l-297 -173l297 -174l-70 -141l-299 184v-344h-153v344l-302 -184z" />
<glyph unicode="+" d="M195 524v236h471v524h213v-524h471v-236h-471v-524h-213v524h-471z" />
<glyph unicode="," horiz-adv-x="698" d="M98 -291l90 373v305h324v-305l-221 -373h-193z" />
<glyph unicode="-" horiz-adv-x="763" d="M100 444v291h566v-291h-566z" />
<glyph unicode="." horiz-adv-x="698" d="M188 0v387h324v-387h-324z" />
<glyph unicode="/" horiz-adv-x="671" d="M0 -190l473 1683h201l-475 -1683h-199z" />
<glyph unicode="0" horiz-adv-x="1280" d="M88 745.5q0 372.5 143.5 573.5t409.5 201t409.5 -201t143.5 -573.5t-143.5 -573.5t-409.5 -201t-409.5 201t-143.5 573.5zM434 747.5q0 -274.5 49 -399.5q45 -115 158 -115q111 0 160 115q47 113 47 400q0 279 -47 395q-47 115 -160 114q-111 0 -158 -114 q-49 -121 -49 -395.5z" />
<glyph unicode="1" horiz-adv-x="1280" d="M209 1159v262l311 72h330v-1227h305v-266h-940v266h307v965z" />
<glyph unicode="2" horiz-adv-x="1280" d="M145 0v283l492 481q66 66 96 129q33 70 33 131q0 106 -63.5 169.5t-170.5 63.5q-84 0 -176 -38q-104 -45 -206 -115v328q121 45 231 65q119 23 223 23q244 0 375 -117q133 -117 133 -330q0 -123 -55 -227q-51 -98 -240 -283l-287 -280h592v-283h-977z" />
<glyph unicode="3" horiz-adv-x="1280" d="M123 45v297q96 -53 192 -82q92 -27 191 -27q135 0 211 54q72 51 71 151q0 101 -73 154q-76 53 -223 53h-138v248h146q131 0 194.5 45t63.5 139q0 86 -62 133q-63 47 -176 47q-88 0 -170 -20q-72 -18 -170 -63v282q113 33 205 47q109 16 197 17q266 0 393 -95 q129 -94 129 -288q0 -132 -62 -215q-61 -82 -184 -117q137 -41 207 -135q72 -96 72 -246q0 -221 -154 -338q-152 -115 -446 -115q-102 0 -207 19q-107 18 -207 55z" />
<glyph unicode="4" horiz-adv-x="1280" d="M84 272v330l537 891h385v-942h192v-279h-192v-272h-326v272h-596zM299 551h381v625z" />
<glyph unicode="5" horiz-adv-x="1280" d="M141 70v303q111 -71 209 -105q100 -35 187 -35q125 0 198 68q72 66 72 186.5t-72 186.5q-74 68 -198 67q-70 0 -160 -22.5t-182 -65.5v840h862v-283h-586v-231q40 12 80 18q39 6 84 7q246 0 383 -136q135 -133 135 -381q0 -244 -147 -378q-150 -137 -414 -138 q-117 0 -227 25q-115 25 -224 74z" />
<glyph unicode="6" horiz-adv-x="1280" d="M115 725q0 371 168 582t458 211q88 0 181 -17q84 -14 174 -47v-276q-88 47 -162 67.5t-148 20.5q-156 0 -241 -95q-84 -94 -101 -284q58 49 129 74q70 25 152 24q207 0 332 -133q127 -137 127 -352q0 -242 -141.5 -385.5t-378.5 -143.5q-261 0 -406 197 q-143 195 -143 557zM485 475q0 -133 45 -196q47 -66 137.5 -66t137.5 66q45 63 45 196t-45 197q-47 66 -137 65.5t-138 -65.5q-45 -64 -45 -197z" />
<glyph unicode="7" horiz-adv-x="1280" d="M123 1210v283h1014v-217l-525 -1276h-338l496 1210h-647z" />
<glyph unicode="8" horiz-adv-x="1280" d="M113 420q0 145 69 239q68 92 207 136q-123 39 -184 127q-63 88 -64 211q0 190 127 288q125 98 373 99q244 0 371 -98.5t127 -288.5q0 -125 -62 -211q-61 -88 -184 -127q135 -43 205 -136q70 -94 69 -239q0 -223 -131 -336t-395 -113q-262 0 -395 113t-133 336zM440 440 q0 -111 52 -168q53 -59 149 -59q94 0 147.5 59.5t53.5 167.5q0 111 -54 170q-51 57 -147 57.5t-149 -59.5q-52 -57 -52 -168zM469 1094q0 -86 45 -138q41 -47 127 -47t127 47q43 49 43 138q0 90 -43 137t-127 47q-86 0 -127 -47q-45 -51 -45 -137z" />
<glyph unicode="9" horiz-adv-x="1280" d="M94 987q0 242 142 385q141 145 378 146q262 0 408 -197q143 -195 143 -557q0 -371 -168 -582t-462 -211q-100 0 -181 15q-82 14 -170 47v276q90 -47 158 -65q74 -20 150 -21q156 0 241 96q88 96 103 283q-68 -53 -131 -76q-70 -25 -150 -24q-207 0 -334 133t-127 352z M428 1014q0 -131 47 -196.5t137 -65.5t138 65q45 63 45 196.5t-45 196.5q-47 66 -137.5 66t-137.5 -65.5t-47 -196.5z" />
<glyph unicode=":" horiz-adv-x="735" d="M207 0v387h323v-387h-323zM207 733v387h323v-387h-323z" />
<glyph unicode=";" horiz-adv-x="735" d="M117 -291l90 373v305h323v-305l-223 -373h-190zM207 733v387h323v-387h-323z" />
<glyph unicode="&#x3c;" d="M195 524v236l1155 463v-250l-869 -332l869 -330v-250z" />
<glyph unicode="=" d="M195 295v237h1155v-237h-1155zM195 752v235h1155v-235h-1155z" />
<glyph unicode="&#x3e;" d="M195 61v250l870 330l-870 332v250l1155 -463v-236z" />
<glyph unicode="?" horiz-adv-x="1067" d="M127 1124v314q86 35 199 61q84 20 174 21q217 0 333.5 -98.5t116.5 -291.5q0 -104 -35 -176q-35 -74 -120 -166l-58 -57q-59 -59 -80 -100q-18 -37 -18 -82v-45h-326v49q0 86 29 145q29 61 127 162l57 58q45 45 74 98q25 46 25 92q0 68 -43 109q-45 41 -121 40 q-70 0 -158 -34q-82 -33 -176 -99zM313 0v356h326v-356h-326z" />
<glyph unicode="@" horiz-adv-x="1841" d="M123 543q0 188 59 348q59 162 174 289q117 127 265 192q151 68 313 68q201 0 366.5 -86t276.5 -246q66 -94 100 -213q35 -117 35 -240q0 -274 -145 -422q-147 -150 -416 -149h-35v154q-29 -74 -86 -111q-59 -39 -139 -39q-158 0 -252 125q-96 127 -96 324q0 203 96 325 q98 125 252 125q76 0 139 -41q57 -37 86 -110v131h189v-693q113 18 176 119t63 258q0 94 -26 187q-25 86 -78 161q-88 125 -215 189q-131 66 -277 65q-104 0 -200 -30q-94 -31 -177 -90q-133 -96 -206.5 -254t-73.5 -336q0 -156 47 -279q51 -135 139 -231q86 -96 207 -150 q115 -51 248 -51q111 0 227 47q115 47 195 127l96 -162q-111 -96 -246 -149q-129 -51 -270 -51q-164 0 -313 65q-152 68 -265 191q-113 125 -174 290q-59 160 -59 353zM748 539q0 -123 47 -195q45 -70 129 -70q80 0 127 72q49 76 49 193q0 121 -49 192q-49 70 -129 70 q-82 0 -127 -70q-47 -71 -47 -192z" />
<glyph unicode="A" horiz-adv-x="1425" d="M8 0l500 1493h412l497 -1493h-348l-84 272h-543l-86 -272h-348zM528 549h369l-182 594z" />
<glyph unicode="B" horiz-adv-x="1402" d="M170 0v1493h518q281 0 406 -94q127 -96 127 -301q0 -106 -47 -185q-47 -80 -134 -114q115 -39 174 -133q61 -98 62 -238q0 -213 -133 -322q-131 -106 -400 -106h-573zM516 262h203q104 0 157.5 49t53.5 148q0 96 -53.5 145t-157.5 49h-203v-391zM516 915h191q84 0 124 39 q43 41 43 119q0 77 -43 117q-45 41 -124 41h-191v-316z" />
<glyph unicode="C" horiz-adv-x="1351" d="M92 745.5q0 356.5 196.5 565.5t530.5 209q117 0 217 -27q98 -27 199 -84v-309q-96 72 -190.5 106.5t-196.5 34.5q-186 0 -293 -131q-104 -129 -104 -365q0 -233 104 -362q109 -133 293 -133q102 0 196.5 34.5t190.5 106.5v-309q-92 -53 -199 -82q-109 -29 -217 -29 q-334 0 -530.5 209t-196.5 565.5z" />
<glyph unicode="D" horiz-adv-x="1529" d="M170 0v1493h365q305 0 456 -49q150 -49 256 -164q95 -101 142 -233q45 -129 45 -299q0 -172 -45 -302q-46 -132 -142 -233q-104 -113 -260 -164q-152 -49 -452 -49h-365zM516 291h123q215 0 325.5 116.5t110.5 340.5q0 221 -110.5 337.5t-325.5 116.5h-123v-911z" />
<glyph unicode="E" horiz-adv-x="1257" d="M170 0v1493h934v-291h-588v-278h553v-291h-553v-342h608v-291h-954z" />
<glyph unicode="F" horiz-adv-x="1257" d="M170 0v1493h934v-291h-588v-278h553v-291h-553v-633h-346z" />
<glyph unicode="G" horiz-adv-x="1511" d="M92 745q0 362 199 568q201 207 549 207q137 0 256 -27q121 -27 231 -84v-309q-121 76 -223 106q-115 35 -223 35q-209 0 -319.5 -129t-110.5 -367q0 -240 106 -366q108 -129 307 -129q39 0 101 8q43 6 84 23v290h-211v258h538v-718q-129 -70 -268 -105q-143 -35 -289 -35 q-334 0 -530.5 209t-196.5 565z" />
<glyph unicode="H" horiz-adv-x="1540" d="M170 0v1493h346v-569h510v569h346v-1493h-346v633h-510v-633h-346z" />
<glyph unicode="I" horiz-adv-x="684" d="M170 0v1493h346v-1493h-346z" />
<glyph unicode="J" horiz-adv-x="684" d="M-104 -119h55q106 0 162 68q57 70 57 196v1348h346v-1348q0 -276 -137 -417q-135 -137 -412 -138h-71v291z" />
<glyph unicode="K" horiz-adv-x="1427" d="M170 0v1493h346v-545l500 545h401l-647 -707l715 -786h-434l-535 588v-588h-346z" />
<glyph unicode="L" horiz-adv-x="1173" d="M170 0v1493h346v-1202h608v-291h-954z" />
<glyph unicode="M" horiz-adv-x="1832" d="M170 0v1493h440l305 -799l310 799h438v-1493h-328v1092l-309 -805h-219l-309 805v-1092h-328z" />
<glyph unicode="N" horiz-adv-x="1540" d="M170 0v1493h385l489 -1024v1024h328v-1493h-387l-487 1024v-1024h-328z" />
<glyph unicode="O" horiz-adv-x="1564" d="M92 745.5q0 364.5 184.5 569.5t505.5 205q324 0 508.5 -205t184.5 -569.5t-184.5 -569.5t-508.5 -205q-322 0 -506 205t-184 569.5zM451 745.5q0 -235.5 86 -364.5q88 -131 245 -131q160 0 248 131q86 129 86 364.5t-86 364.5q-88 131 -248 131q-158 0 -245 -131 q-86 -129 -86 -364.5z" />
<glyph unicode="P" horiz-adv-x="1349" d="M170 0v1493h573q256 0 396 -127q137 -125 137 -360.5t-137 -360.5q-139 -127 -396 -127h-227v-518h-346zM516 797h191q100 0 155.5 55t55.5 153.5t-55.5 153.5t-155.5 55h-191v-417z" />
<glyph unicode="Q" horiz-adv-x="1564" d="M92 745q0 365 184.5 570t505.5 205q328 0 510 -203q182 -205 183 -572q0 -252 -97 -434q-94 -180 -278 -274l270 -336h-330l-221 272h-26q-332 0 -516.5 202.5t-184.5 569.5zM451 745q0 -242 83.5 -368.5t247.5 -126.5q160 0 248 131q86 129 86 364.5t-86 364.5 q-88 131 -248 131q-158 0 -245 -131q-86 -129 -86 -365z" />
<glyph unicode="R" horiz-adv-x="1417" d="M170 0v1493h528q266 0 389 -98.5t123 -313.5q0 -150 -63 -243q-61 -92 -195 -140q76 -20 129 -82q53 -63 113 -192l188 -424h-368l-164 371q-51 117 -100 153q-53 41 -136 41h-98v-565h-346zM516 831h146q111 0 155 46q47 47 47 147q0 102 -47 145q-49 45 -155 45h-146 v-383z" />
<glyph unicode="S" horiz-adv-x="1325" d="M131 1057q0 223 131 344q127 119 373 119q111 0 227 -19q115 -18 242 -55v-316q-106 53 -215 82t-201 29q-121 0 -182 -39q-59 -37 -60 -117q0 -61 39 -94t148 -57l145 -33q223 -49 320 -151q94 -100 94 -291q0 -248 -131 -367q-133 -121 -404 -121q-131 0 -256 27 q-129 28 -258 80v325q121 -72 250 -114q117 -39 232 -39q113 0 174 43q59 41 59 119q0 72 -41 108q-39 37 -164 68l-133 33q-203 49 -295 153q-94 107 -94 283z" />
<glyph unicode="T" horiz-adv-x="1255" d="M8 1202v291h1239v-291h-444v-1202h-348v1202h-447z" />
<glyph unicode="U" horiz-adv-x="1495" d="M170 598v895h346v-895q0 -184 55.5 -264t176.5 -80q123 0 178 80t55 264v895h346v-895q0 -319 -143 -471q-145 -156 -436 -156t-437 156q-141 149 -141 471z" />
<glyph unicode="V" horiz-adv-x="1425" d="M8 1493h348l359 -1102l354 1102h348l-497 -1493h-412z" />
<glyph unicode="W" horiz-adv-x="2031" d="M55 1493h332l231 -1085l232 1085h334l229 -1085l234 1085h329l-317 -1493h-399l-244 1135l-242 -1135h-399z" />
<glyph unicode="X" horiz-adv-x="1419" d="M35 0l467 762l-449 731h363l293 -481l295 481h362l-448 -731l466 -762h-360l-315 510l-312 -510h-362z" />
<glyph unicode="Y" horiz-adv-x="1333" d="M-18 1493h378l308 -532l305 532h381l-512 -864v-629h-348v629z" />
<glyph unicode="Z" horiz-adv-x="1335" d="M84 0v233l721 969h-701v291h1129v-233l-721 -969h741v-291h-1169z" />
<glyph unicode="[" horiz-adv-x="841" d="M158 -270v1826h559v-225h-252v-1376h252v-225h-559z" />
<glyph unicode="\" horiz-adv-x="671" d="M0 1493h199l475 -1683h-201z" />
<glyph unicode="]" horiz-adv-x="841" d="M125 -45h254v1376h-254v225h559v-1826h-559v225z" />
<glyph unicode="^" d="M186 936l476 557h221l475 -557h-217l-369 301l-369 -301h-217z" />
<glyph unicode="_" horiz-adv-x="919" d="M0 -293h922v-190h-922v190z" />
<glyph unicode="`" horiz-adv-x="919" d="M86 1638h254l254 -376h-176z" />
<glyph unicode="a" horiz-adv-x="1241" d="M80 336q0 199 121 289q123 92 383 92h190v28q0 86 -61 125q-59 39 -187 39q-98 0 -192 -22q-84 -20 -166 -70v273q106 29 207 43q98 14 209 14q276 0 395 -119q121 -121 121 -389v-639h-326v166q-63 -100 -145 -147.5t-199 -47.5q-156 0 -254 101q-96 98 -96 264z M403 354q0 -66 41 -106q39 -39 115 -39q94 0 154 72q61 74 61 182v41h-168q-98 0 -151 -37q-52 -37 -52 -113z" />
<glyph unicode="b" horiz-adv-x="1318" d="M156 0v1556h321v-600q66 96 148 143.5t186 47.5q186 0 305 -164q121 -168 121 -424t-121 -424q-119 -164 -305 -164q-104 0 -186 47.5t-148 143.5v-162h-321zM477 559q0 -158 55 -244q53 -84 158 -84t160 84q53 80 53 244t-53 244q-55 84 -159.5 84t-158.5 -84 q-55 -86 -55 -244z" />
<glyph unicode="c" horiz-adv-x="1091" d="M80 559q0 276 153.5 432t425.5 156q74 0 156 -16.5t154 -45.5v-292q-66 49 -131 73q-68 25 -138 25q-135 0 -211 -88q-74 -86 -73.5 -244t73.5 -244q76 -88 211 -88q76 0 144 25q66 25 125 74v-293q-76 -31 -154 -47q-72 -14 -156 -15q-272 0 -425.5 156t-153.5 432z" />
<glyph unicode="d" horiz-adv-x="1318" d="M84 559q0 260 119 424t305 164q104 0 186 -47t148 -144v600h323v-1556h-323v162q-70 -100 -148 -145.5t-186 -45.5q-186 0 -305 164t-119 424zM418 559q0 -164 53 -244q55 -84 157.5 -84t157.5 84q55 82 55.5 244t-55.5 244q-55 84 -157.5 84t-157.5 -84 q-53 -80 -53 -244z" />
<glyph unicode="e" horiz-adv-x="1249" d="M80 559q0 276 147 430q152 158 412 158q238 0 379 -160q143 -162 143 -424v-102h-753q12 -125 81.5 -188.5t196.5 -63.5q104 0 209 33q102 33 217 102v-276q-104 -45 -227 -72q-115 -25 -230 -25q-273 0 -424 154q-151 155 -151 434zM412 682h417q0 100 -53 163.5 t-139 63.5q-92 0 -151.5 -59t-73.5 -168z" />
<glyph unicode="f" horiz-adv-x="800" d="M35 864v256h160v78q0 184 92 270q94 88 284 88h246v-235h-178q-68 0 -94.5 -26.5t-26.5 -96.5v-78h275v-256h-275v-864h-323v864h-160z" />
<glyph unicode="g" horiz-adv-x="1318" d="M84 573q0 254 119 412q121 160 305 160q109 0 186.5 -45t147.5 -146v166h323v-1007q0 -270 -153 -412q-156 -143 -447 -143q-88 0 -182 16q-86 14 -176 49v279q76 -49 166 -80q78 -27 162 -27q160 0 233 78q74 77 74 240v77q-70 -100 -148 -145t-186 -45 q-186 0 -305 161.5t-119 411.5zM418 573q0 -156 53 -233q55 -80 158 -80q100 0 155 82q57 86 57.5 231.5t-57.5 231.5q-55 82 -155.5 82t-155.5 -82q-55 -85 -55 -232z" />
<glyph unicode="h" horiz-adv-x="1310" d="M156 0v1556h321v-600q74 98 156 144q84 47 180 47q176 0 264 -119q90 -121 90 -346v-682h-323v111v409q0 147 -6 203q-6 57 -21 80q-20 39 -51 55q-34 18 -74 19q-98 0 -157 -86q-57 -84 -58 -240v-551h-321z" />
<glyph unicode="i" horiz-adv-x="630" d="M156 0v1120h321v-1120h-321zM156 1264v292h321v-292h-321z" />
<glyph unicode="j" horiz-adv-x="630" d="M-61 -207h57q92 0 125 45q35 47 35 182v1100h321v-1100q0 -227 -96 -344q-98 -119 -283 -118h-159v235zM156 1264v292h321v-292h-321z" />
<glyph unicode="k" horiz-adv-x="1224" d="M156 0v1556h321v-847l371 411h375l-494 -514l533 -606h-392l-393 467v-467h-321z" />
<glyph unicode="l" horiz-adv-x="630" d="M156 0v1556h321v-1556h-321z" />
<glyph unicode="m" horiz-adv-x="1918" d="M154 0v1120h323v-164q57 94 135 144q74 47 170 47q104 0 185 -55q84 -57 123 -158q59 100 145 158q83 55 184 55q172 0 264.5 -119t92.5 -346v-682h-326v584q0 4 1 12t1 14v41q0 120 -31 172q-31 53 -102 54q-92 0 -141 -84q-47 -82 -52 -242v-551h-323v584 q0 182 -31 239q-29 53 -102 54q-94 0 -142 -84q-51 -90 -51 -242v-551h-323z" />
<glyph unicode="n" horiz-adv-x="1310" d="M156 0v1120h321v-164q74 98 156 144q84 47 180 47q176 0 264 -119q90 -121 90 -346v-682h-323v111v411q0 145 -6 201q-6 57 -21 80q-20 39 -51 55q-34 18 -74 19q-98 0 -157 -86q-57 -84 -58 -240v-551h-321z" />
<glyph unicode="o" horiz-adv-x="1265" d="M80 559q0 276 147.5 432t407.5 156q258 0 405.5 -155.5t147.5 -432t-147.5 -432.5t-405.5 -156q-260 0 -407.5 156t-147.5 432zM416 559q0 -160 55 -246t164 -86q104 0 160 86q57 90 57 246t-57 246q-55 86 -160 86q-109 0 -164 -86t-55 -246z" />
<glyph unicode="p" horiz-adv-x="1318" d="M156 -426v1546h321v-164q66 96 148 143.5t186 47.5q186 0 305 -164q121 -168 121 -424t-121 -424q-119 -164 -305 -164q-104 0 -186 47.5t-148 143.5v-588h-321zM477 559q0 -158 55 -244q53 -84 158 -84t160 84q53 80 53 244t-53 244q-55 84 -159.5 84t-158.5 -84 q-55 -86 -55 -244z" />
<glyph unicode="q" horiz-adv-x="1318" d="M84 559q0 260 119 422q121 164 305 164q109 0 186.5 -45t147.5 -146v166h323v-1546h-323v588q-70 -100 -148 -145.5t-186 -45.5q-186 0 -305 164t-119 424zM418 559q0 -164 53 -244q55 -84 157.5 -84t157.5 84q55 82 55.5 244t-55.5 244q-55 84 -157.5 84t-157.5 -84 q-53 -80 -53 -244z" />
<glyph unicode="r" horiz-adv-x="907" d="M156 0v1120h321v-184q61 111 141 160q84 51 195 51q4 0 16.5 -1t18.5 -1q18 0 55 -6v-324q-51 27 -84 33q-47 10 -84 10q-123 0 -190 -88q-68 -90 -68 -254v-516h-321z" />
<glyph unicode="s" horiz-adv-x="1095" d="M94 797q0 178 110.5 264t338.5 86q94 0 186 -14.5t213 -47.5v-272q-96 45 -199 72q-96 25 -182 24q-90 0 -137 -26q-43 -25 -43 -78q0 -45 33 -66q37 -23 121 -34l57 -9q244 -33 332 -114q86 -80 86 -252q0 -180 -119 -269q-121 -90 -354 -90q-111 0 -207 17 q-102 18 -219 53v272q96 -53 198 -77q111 -27 205 -27q90 0 141 29q49 28 50 86q0 47 -33 71q-35 25 -131 37l-58 8q-215 31 -301 111q-88 82 -88 246z" />
<glyph unicode="t" horiz-adv-x="880" d="M25 864v256h159v318h324v-318h332v-256h-332v-475q0 -80 26.5 -106.5t110.5 -26.5h166v-256h-276q-190 0 -271 88q-80 89 -80 301v475h-159z" />
<glyph unicode="u" horiz-adv-x="1310" d="M143 436v684h326v-112q0 -27 -1 -103t-1 -125v-184q0 -137 6 -195q6 -61 21 -86q25 -37 53 -55q31 -18 71 -18q101 0 160 86q57 84 58 239v553h321v-1120h-321v162q-74 -98 -156 -144q-84 -47 -178 -47q-174 0 -266.5 119t-92.5 346z" />
<glyph unicode="v" horiz-adv-x="1200" d="M29 1120h321l250 -774l252 774h322l-396 -1120h-354z" />
<glyph unicode="w" horiz-adv-x="1701" d="M66 1120h313l168 -772l170 772h268l170 -764l170 764h313l-266 -1120h-350l-170 770l-170 -770h-352z" />
<glyph unicode="x" horiz-adv-x="1187" d="M29 0l381 573l-365 547h342l207 -332l209 332h340l-365 -545l383 -575h-342l-225 354l-225 -354h-340z" />
<glyph unicode="y" horiz-adv-x="1200" d="M23 1120h321l272 -760l230 760h321l-424 -1226q-66 -190 -147 -261q-88 -76 -225 -75h-187v235h101q82 0 121 29q35 27 57 104l8 31z" />
<glyph unicode="z" horiz-adv-x="1071" d="M84 0v250l530 614h-510v256h881v-250l-530 -614h530v-256h-901z" />
<glyph unicode="{" horiz-adv-x="1310" d="M229 494v223h56q127 0 176 57q49 58 49 209v205q0 195 90 280q92 88 287 88h194v-225h-61q-126 0 -166 -43q-39 -41 -39 -186v-166q0 -158 -39 -227q-41 -72 -139 -97q98 -27 139 -98q39 -70 39 -227v-166q0 -145 39 -187q40 -43 166 -43h61v-225h-194q-199 0 -287 88 q-90 90 -90 281v192q0 151 -49 209q-49 57 -176 58h-56z" />
<glyph unicode="|" horiz-adv-x="671" d="M233 -483v2048h205v-2048h-205z" />
<glyph unicode="}" horiz-adv-x="1310" d="M229 -109h64q125 0 164 43q39 41 39 187v166q0 156 41 227q40 71 141 98q-100 25 -141 96.5t-41 227.5v166q0 145 -39 186q-39 43 -164 43h-64v225h197q195 0 287 -88q90 -86 90 -280v-205q0 -154 47 -209q49 -57 176 -57h55v-223h-55q-127 0 -176 -58q-47 -55 -47 -209 v-192q0 -190 -90 -281q-88 -88 -287 -88h-197v225z" />
<glyph unicode="~" d="M195 434v244q100 82 178 115q82 35 166 34q94 0 225 -59q10 -4 18 -8l21 -8q139 -61 223 -62q77 0 154 37q80 37 170 123v-244q-96 -82 -176 -114q-82 -35 -168 -35q-98 0 -226 57q-4 2 -9 5t-9 5q-2 0 -9.5 3t-11.5 5q-141 61 -223 61.5t-158 -38.5q-81 -43 -165 -121z " />
<glyph unicode="&#xa1;" horiz-adv-x="839" d="M258 0v573l45 418h234l45 -418v-573h-324zM258 1137v356h324v-356h-324z" />
<glyph unicode="&#xa2;" horiz-adv-x="1280" d="M158 575q0 248 121 390q125 147 354 180v287h145v-287q74 -4 131 -17q59 -14 135 -43v-292q-70 49 -131 73q-65 25 -122 25h-13v-664q74 0 148 27q63 23 118 72v-293q-68 -29 -139 -45q-70 -16 -119 -17h-8v-284h-145v288q-237 40 -357 191q-118 149 -118 409zM492 559.5 q0 -106.5 34 -182.5q33 -72 107 -117v598q-74 -45 -107 -117q-34 -75 -34 -181.5z" />
<glyph unicode="&#xa3;" horiz-adv-x="1280" d="M113 0v266h204v326h-176v239h176v170q0 274 113 396q114 123 363 123q83 0 165 -13q72 -10 160 -41v-286q-63 39 -129 57q-76 20 -135 20q-104 0 -158 -63q-51 -59 -51 -193v-170h336v-239h-336v-326h485v-266h-1017z" />
<glyph unicode="&#xa4;" horiz-adv-x="1171" d="M68 215l186 207q-29 55 -39 102q-12 52 -12 117q0 72 12 117q14 49 41 100l-188 205l139 154l184 -207q39 29 94 45q45 14 103 14q39 0 96 -14q43 -10 100 -41l187 207l137 -154l-186 -207q29 -66 39 -110q12 -55 12 -109q0 -63 -12 -115q-12 -53 -41 -100l186 -207 l-137 -153l-189 206q-39 -29 -88 -45q-45 -14 -104 -14q-43 0 -101 14q-47 12 -96 41l-186 -207zM391 641q0 -88 58 -156q55 -63 139 -63q82 0 139 63.5t57 155.5t-57 155.5t-139 63.5t-139.5 -63.5t-57.5 -155.5z" />
<glyph unicode="&#xa5;" horiz-adv-x="1280" d="M23 1493h360l258 -461l260 461h361l-304 -539h265v-192h-367l-43 -86v-66h410v-194h-410v-416h-344v416h-408v194h408v66l-43 86h-365v192h263z" />
<glyph unicode="&#xa6;" horiz-adv-x="671" d="M233 -350v758h205v-758h-205zM233 674v758h205v-758h-205z" />
<glyph unicode="&#xa7;" horiz-adv-x="919" d="M12 668q0 102 51 182q47 74 150 127q-66 51 -96 106q-29 51 -29 131q0 147 102 226q104 80 285 80q84 0 158 -15q82 -16 164 -43v-227q-94 43 -160 59q-71 18 -123 19q-68 0 -102 -25q-33 -25 -33 -71q0 -66 168 -146q14 -6 22.5 -10l12.5 -6q188 -88 259.5 -176 t71.5 -211q0 -117 -49 -197q-47 -76 -157 -127q68 -39 104 -98q33 -53 33 -129q0 -143 -108.5 -227.5t-301.5 -84.5q-80 0 -158 15q-76 14 -172 43v237q127 -49 185 -63q80 -20 133 -21q61 0 94 25q35 25 35 65q0 70 -162 144q-45 20 -49 22q-182 86 -254 177 q-74 92 -74 219zM268 702q0 -68 55.5 -116.5t221.5 -114.5q57 20 88 61q33 43 33 93q0 68 -64 120q-61 53 -211 111q-59 -27 -92 -65q-31 -38 -31 -89z" />
<glyph unicode="&#xa8;" horiz-adv-x="919" d="M176 1339v246h213v-246h-213zM532 1339v246h211v-246h-211z" />
<glyph unicode="&#xa9;" horiz-adv-x="1841" d="M256 741q0 158 47 285q49 132 148 240q102 113 215 164q121 55 256 55t254 -55q117 -53 217 -164q98 -108 147 -240q47 -127 47 -285q0 -160 -47 -282q-51 -135 -147 -240q-100 -111 -217 -164q-119 -55 -254.5 -55t-255.5 55q-113 51 -215 164q-96 104 -148 240 q-47 122 -47 282zM391 741q0 -123 39 -225q40 -104 117 -190t172 -129t203 -43q111 0 202 43q98 45 172 129q77 86 117 190q39 102 39 225t-39 226q-40 104 -117 190q-78 88 -172 131q-92 43 -202.5 43t-202.5 -43q-88 -41 -172 -131q-77 -86 -117 -190q-39 -103 -39 -226z M541 741.5q0 192.5 114 311.5q115 117 303 116q55 0 121 -10q47 -8 113 -33v-215q-45 31 -102 54q-49 18 -103 18q-100 0 -157.5 -63.5t-57.5 -178t57.5 -178t157.5 -63.5q58 0 111 18q47 16 94 53v-213q-61 -23 -119 -34q-49 -10 -115 -11q-188 0 -303 117 q-114 119 -114 311.5z" />
<glyph unicode="&#xaa;" horiz-adv-x="1038" d="M141 946q0 143 95 207q96 66 299 66h122v20q0 55 -39 86q-37 29 -116 29q-88 0 -154 -17q-72 -18 -145 -53v180q72 23 157 41q72 14 146 15q197 0 297 -88q98 -86 98 -267v-448h-221v127q-49 -76 -113 -113q-61 -35 -147 -35q-131 0 -205 67.5t-74 182.5zM158 373v200 h733v-200h-733zM365 967q0 -52 30 -80q33 -29 82 -29q80 0 131 57.5t51 143.5v22h-79q-119 0 -168 -26q-47 -25 -47 -88z" />
<glyph unicode="&#xab;" horiz-adv-x="1189" d="M141 506v186l445 371v-242l-264 -221l264 -221v-242zM573 506v186l445 371v-242l-264 -221l264 -221v-242z" />
<glyph unicode="&#xac;" d="M195 672v237h1155v-622h-211v385h-944z" />
<glyph unicode="&#xad;" horiz-adv-x="763" d="M100 444v291h566v-291h-566z" />
<glyph unicode="&#xae;" horiz-adv-x="1841" d="M256 741q0 158 47 285q49 132 148 240q102 113 215 164q121 55 256 55t254 -55q117 -53 217 -164q98 -108 147 -240q47 -127 47 -285q0 -160 -47 -282q-51 -135 -147 -240q-100 -111 -217 -164q-119 -55 -254.5 -55t-255.5 55q-113 51 -215 164q-96 104 -148 240 q-47 122 -47 282zM391 741q0 -123 39 -225q40 -104 117 -190t172 -129t203 -43q111 0 202 43q98 45 172 129q77 86 117 190q39 102 39 225t-39 226q-40 104 -117 190q-78 88 -172 131q-92 43 -202.5 43t-202.5 -43q-88 -41 -172 -131q-77 -86 -117 -190q-39 -103 -39 -226z M647 338v836h256q156 0 238 -60q78 -57 78 -180q0 -84 -48 -141q-45 -55 -133 -74q37 -22 68 -62q33 -43 59 -98l99 -221h-205l-96 213q-29 66 -62 111q-25 33 -51 32h-10v-356h-193zM840 829h30q72 0 107 27t35 78q0 53 -35 77.5t-107 24.5h-30v-207z" />
<glyph unicode="&#xaf;" horiz-adv-x="919" d="M176 1368v188h567v-188h-567z" />
<glyph unicode="&#xb0;" horiz-adv-x="919" d="M160 1200q0 139 88 238q86 96 213 96q59 0 114 -25q51 -23 99 -73q43 -49 63 -109q23 -63 23 -126.5t-23 -127.5q-20 -59 -61 -106t-101 -74q-55 -25 -116 -25q-127 0 -213 94.5t-86 237.5zM305 1200q0 -70 45 -121q43 -49 111 -49q65 0 110 49q45 47 45 121 q0 76 -45 123q-46 49 -110.5 49t-110.5 -49q-45 -47 -45 -123z" />
<glyph unicode="&#xb1;" d="M195 0v238h1155v-238h-1155zM195 694v236h471v354h213v-354h471v-236h-471v-354h-213v354h-471z" />
<glyph unicode="&#xb2;" horiz-adv-x="806" d="M98 668v153l283 266q51 47 78 93q23 37 22 80q0 51 -32 81q-34 31 -87 31q-51 0 -118 -22q-59 -20 -140 -70v186q82 29 152 41q74 12 139 13q145 0 223 -64q82 -66 82 -176q0 -68 -32 -133q-29 -57 -123 -146l-174 -165h334v-168h-607z" />
<glyph unicode="&#xb3;" horiz-adv-x="806" d="M82 698v174q58 -37 117 -55t110 -18q84 0 133 32q47 31 47 91q0 63 -49 94t-149 31h-68v137h76q89 0 129 24q41 25 41 74q0 45 -37 68q-35 23 -106 22q-47 0 -103 -12q-49 -10 -119 -41v166q51 16 127 26q59 8 148 9q150 0 229.5 -55.5t79.5 -161.5q0 -66 -41 -117 q-37 -47 -115 -66q83 -18 130 -73q45 -53 45 -136q0 -131 -88.5 -194.5t-270.5 -63.5q-82 0 -139 10t-127 35z" />
<glyph unicode="&#xb4;" horiz-adv-x="919" d="M328 1262l254 376h256l-332 -376h-178z" />
<glyph unicode="&#xb5;" horiz-adv-x="1355" d="M158 -428v1548h323v-651q0 -119 45 -172q47 -57 137.5 -57t137.5 57q45 53 45 172v651h323v-749q0 -70 16.5 -98.5t49.5 -28.5q15 0 31 6q20 8 32 16v-250q-59 -27 -90 -34q-37 -10 -82 -11q-78 0 -131 37q-51 35 -82 121q-43 -78 -104 -119q-59 -39 -139 -39 q-72 0 -115 23q-51 27 -74 72v-494h-323z" />
<glyph unicode="&#xb6;" horiz-adv-x="1171" d="M117 1071q0 188 116.5 305t311.5 117h467v-1690h-170v1543h-172v-1543h-170v846q-182 25 -285 135q-98 107 -98 287z" />
<glyph unicode="&#xb7;" horiz-adv-x="698" d="M188 518v387h324v-387h-324z" />
<glyph unicode="&#xb8;" horiz-adv-x="919" d="M236 -223q51 -16 83 -23q49 -8 66 -8q49 0 82 23q29 20 29 63q0 29 -19 68q-14 31 -59 100h125q49 -57 75 -115q25 -53 25 -100q0 -95 -55 -141q-53 -45 -170 -45q-41 0 -88 6q-31 4 -92 20z" />
<glyph unicode="&#xb9;" horiz-adv-x="806" d="M111 1294v160l206 49h203v-678h185v-157h-578v157h186v521z" />
<glyph unicode="&#xba;" horiz-adv-x="1038" d="M104 1108q0 188 113 301q111 111 303.5 111t303 -111t110.5 -301q0 -188 -110.5 -299t-303 -111t-303.5 111q-113 113 -113 299zM150 373v200h741v-200h-741zM362 1108q0 -115 41 -178q39 -61 117 -61.5t117 61.5q41 63 41 178q0 113 -41 178q-39 63 -117 63.5 t-117 -63.5q-41 -65 -41 -178z" />
<glyph unicode="&#xbb;" horiz-adv-x="1189" d="M174 137v242l262 221l-262 221v242l442 -371v-186zM604 137v242l264 221l-264 221v242l445 -371v-186z" />
<glyph unicode="&#xbc;" horiz-adv-x="1906" d="M1079 161v168l336 506h223v-518h125v-156h-125v-161h-207v161h-352zM1216 317h215v324zM458 -29l840 1549h203l-842 -1549h-201zM91 1294v160l206 49h203v-678h185v-157h-578v157h186v521z" />
<glyph unicode="&#xbd;" horiz-adv-x="1906" d="M458 -29l840 1549h203l-842 -1549h-201zM1212 0v153l283 266q51 47 78 93q23 37 22 80q0 51 -32 81q-34 31 -87 31q-51 0 -118 -22q-59 -20 -140 -70v186q82 29 152 41q74 12 139 13q145 0 223 -64q82 -66 82 -176q0 -68 -32 -133q-29 -57 -123 -146l-174 -165h334v-168 h-607zM91 1294v160l206 49h203v-678h185v-157h-578v157h186v521z" />
<glyph unicode="&#xbe;" horiz-adv-x="1906" d="M1079 161v168l336 506h223v-518h125v-156h-125v-161h-207v161h-352zM1216 317h215v324zM458 -29l840 1549h203l-842 -1549h-201zM94 698v174q58 -37 117 -55t110 -18q84 0 133 32q47 31 47 91q0 63 -49 94t-149 31h-68v137h76q89 0 129 24q41 25 41 74q0 45 -37 68 q-35 23 -106 22q-47 0 -103 -12q-49 -10 -119 -41v166q51 16 127 26q59 8 148 9q150 0 229.5 -55.5t79.5 -161.5q0 -66 -41 -117q-37 -47 -115 -66q83 -18 130 -73q45 -53 45 -136q0 -131 -88.5 -194.5t-270.5 -63.5q-82 0 -139 10t-127 35z" />
<glyph unicode="&#xbf;" horiz-adv-x="1067" d="M127 360q0 96 35 177q33 76 121 165l57 58q61 61 79.5 98t18.5 84v45h326v-49q0 -72 -31 -143q-25 -59 -127 -164l-57 -58q-49 -52 -74 -98q-23 -43 -22 -92q0 -71 43 -111q41 -39 120 -39q74 0 158 33q74 29 176 101v-314q-90 -37 -198 -61q-88 -20 -174 -21 q-221 0 -336 98t-115 291zM438 1137v356h326v-356h-326z" />
<glyph unicode="&#xc0;" horiz-adv-x="1425" d="M8 0l500 1493h412l497 -1493h-348l-84 272h-543l-86 -272h-348zM528 549h369l-182 594zM389 1899h254l180 -264h-178z" />
<glyph unicode="&#xc1;" horiz-adv-x="1425" d="M8 0l500 1493h412l497 -1493h-348l-84 272h-543l-86 -272h-348zM528 549h369l-182 594zM557 1635l178 264h256l-258 -264h-176z" />
<glyph unicode="&#xc2;" horiz-adv-x="1425" d="M8 0l500 1493h412l497 -1493h-348l-84 272h-543l-86 -272h-348zM528 549h369l-182 594zM373 1635l203 264h276l199 -264h-160l-178 161l-178 -161h-162z" />
<glyph unicode="&#xc3;" horiz-adv-x="1425" d="M8 0l500 1493h412l497 -1493h-348l-84 272h-543l-86 -272h-348zM528 549h369l-182 594zM400 1641q0 2 1 7t1 9v14q0 109 47 170q49 66 127 66q34 0 67.5 -12.5t67.5 -36.5l53 -39q16 -14 37 -21q25 -8 31 -8q33 0 51.5 31t18.5 86h125q0 -2 -1.5 -7t-1.5 -10v-14 q0 -109 -47 -170q-49 -66 -127 -65q-35 0 -65 12q-43 18 -70 37l-51 35q-2 2 -8 6q-43 27 -66 26q-29 0 -47 -30.5t-18 -79.5v-6h-125z" />
<glyph unicode="&#xc4;" horiz-adv-x="1425" d="M8 0l500 1493h412l497 -1493h-348l-84 272h-543l-86 -272h-348zM528 549h369l-182 594zM424 1653v246h211v-246h-211zM778 1653v246h213v-246h-213z" />
<glyph unicode="&#xc5;" horiz-adv-x="1425" d="M8 0l490 1464q-20 33 -31 72q-10 41 -10 80q0 119 75 201q78 84 183 84q100 0 178 -84q76 -82 76 -201q0 -51 -8 -84q-10 -41 -31 -68l487 -1464h-348l-84 272h-543l-86 -272h-348zM528 549h369l-182 594zM596 1616q0 -51 35 -92q33 -39 84 -39q49 0 82 39q35 41 34 92 q0 55 -34 92q-37 39 -82 39q-51 0 -84 -39q-35 -41 -35 -92z" />
<glyph unicode="&#xc6;" horiz-adv-x="1998" d="M0 0l561 1493h1284v-291h-588v-278h553v-291h-553v-342h609v-291h-955v350h-444l-133 -350h-334zM571 627h340v610h-108z" />
<glyph unicode="&#xc7;" horiz-adv-x="1351" d="M92 745.5q0 356.5 196.5 565.5t530.5 209q117 0 217 -27q98 -27 199 -84v-309q-96 72 -190.5 106.5t-196.5 34.5q-186 0 -293 -131q-104 -129 -104 -365q0 -233 104 -362q109 -133 293 -133q102 0 196.5 34.5t190.5 106.5v-309q-92 -53 -199 -82q-109 -29 -217 -29 q-334 0 -530.5 209t-196.5 565.5zM570 -223q51 -16 83 -23q49 -8 66 -8q49 0 82 23q29 20 29 63q0 29 -19 68q-14 31 -59 100h125q49 -57 75 -115q25 -53 25 -100q0 -95 -55 -141q-53 -45 -170 -45q-41 0 -88 6q-31 4 -92 20z" />
<glyph unicode="&#xc8;" horiz-adv-x="1257" d="M170 0v1493h934v-291h-588v-278h553v-291h-553v-342h608v-291h-954zM321 1899h254l180 -264h-178z" />
<glyph unicode="&#xc9;" horiz-adv-x="1257" d="M170 0v1493h934v-291h-588v-278h553v-291h-553v-342h608v-291h-954zM489 1635l178 264h256l-258 -264h-176z" />
<glyph unicode="&#xca;" horiz-adv-x="1257" d="M170 0v1493h934v-291h-588v-278h553v-291h-553v-342h608v-291h-954zM282 1635l203 264h276l199 -264h-160l-178 161l-178 -161h-162z" />
<glyph unicode="&#xcb;" horiz-adv-x="1257" d="M170 0v1493h934v-291h-588v-278h553v-291h-553v-342h608v-291h-954zM340 1653v246h211v-246h-211zM694 1653v246h213v-246h-213z" />
<glyph unicode="&#xcc;" horiz-adv-x="684" d="M170 0v1493h346v-1493h-346zM18 1899h254l180 -264h-178z" />
<glyph unicode="&#xcd;" horiz-adv-x="684" d="M170 0v1493h346v-1493h-346zM186 1635l178 264h256l-258 -264h-176z" />
<glyph unicode="&#xce;" horiz-adv-x="684" d="M170 0v1493h346v-1493h-346zM2 1635l203 264h276l199 -264h-160l-178 161l-178 -161h-162z" />
<glyph unicode="&#xcf;" horiz-adv-x="684" d="M170 0v1493h346v-1493h-346zM60 1653v246h211v-246h-211zM414 1653v246h213v-246h-213z" />
<glyph unicode="&#xd0;" d="M31 621v260h155v612h365q305 0 457 -49q150 -49 256 -164q95 -101 141 -233q45 -129 45 -299q0 -172 -45 -302q-46 -132 -141 -233q-104 -113 -260 -164q-152 -49 -453 -49h-365v621h-155zM532 291h123q212 0 326 117q113 115 113 340q0 219 -113 337q-111 117 -326 117 h-123v-321h211v-260h-211v-330z" />
<glyph unicode="&#xd1;" horiz-adv-x="1540" d="M170 0v1493h385l489 -1024v1024h328v-1493h-387l-487 1024v-1024h-328zM426 1635q0 2 1 7t1 9v14q0 109 47 170q49 66 127 66q34 0 67.5 -12.5t67.5 -36.5l53 -39q16 -14 37 -21q25 -8 31 -8q33 0 51.5 31t18.5 86h125q0 -2 -1.5 -7t-1.5 -10v-14q0 -109 -47 -170 q-49 -66 -127 -65q-35 0 -65 12q-43 18 -70 37l-51 35q-2 2 -8 6q-43 27 -66 26q-29 0 -47 -30.5t-18 -79.5v-6h-125z" />
<glyph unicode="&#xd2;" horiz-adv-x="1564" d="M92 745.5q0 364.5 184.5 569.5t505.5 205q324 0 508.5 -205t184.5 -569.5t-184.5 -569.5t-508.5 -205q-322 0 -506 205t-184 569.5zM451 745.5q0 -235.5 86 -364.5q88 -131 245 -131q160 0 248 131q86 129 86 364.5t-86 364.5q-88 131 -248 131q-158 0 -245 -131 q-86 -129 -86 -364.5zM461 1899h254l180 -264h-178z" />
<glyph unicode="&#xd3;" horiz-adv-x="1564" d="M92 745.5q0 364.5 184.5 569.5t505.5 205q324 0 508.5 -205t184.5 -569.5t-184.5 -569.5t-508.5 -205q-322 0 -506 205t-184 569.5zM451 745.5q0 -235.5 86 -364.5q88 -131 245 -131q160 0 248 131q86 129 86 364.5t-86 364.5q-88 131 -248 131q-158 0 -245 -131 q-86 -129 -86 -364.5zM629 1635l178 264h256l-258 -264h-176z" />
<glyph unicode="&#xd4;" horiz-adv-x="1564" d="M92 745.5q0 364.5 184.5 569.5t505.5 205q324 0 508.5 -205t184.5 -569.5t-184.5 -569.5t-508.5 -205q-322 0 -506 205t-184 569.5zM451 745.5q0 -235.5 86 -364.5q88 -131 245 -131q160 0 248 131q86 129 86 364.5t-86 364.5q-88 131 -248 131q-158 0 -245 -131 q-86 -129 -86 -364.5zM422 1635l203 264h276l199 -264h-160l-178 161l-178 -161h-162z" />
<glyph unicode="&#xd5;" horiz-adv-x="1564" d="M92 745.5q0 364.5 184.5 569.5t505.5 205q324 0 508.5 -205t184.5 -569.5t-184.5 -569.5t-508.5 -205q-322 0 -506 205t-184 569.5zM451 745.5q0 -235.5 86 -364.5q88 -131 245 -131q160 0 248 131q86 129 86 364.5t-86 364.5q-88 131 -248 131q-158 0 -245 -131 q-86 -129 -86 -364.5zM471 1635q0 2 1 7t1 9v14q0 109 47 170q49 66 127 66q34 0 67.5 -12.5t67.5 -36.5l53 -39q16 -14 37 -21q25 -8 31 -8q33 0 51.5 31t18.5 86h125q0 -2 -1.5 -7t-1.5 -10v-14q0 -109 -47 -170q-49 -66 -127 -65q-35 0 -65 12q-43 18 -70 37l-51 35 q-2 2 -8 6q-43 27 -66 26q-29 0 -47 -30.5t-18 -79.5v-6h-125z" />
<glyph unicode="&#xd6;" horiz-adv-x="1564" d="M92 745.5q0 364.5 184.5 569.5t505.5 205q324 0 508.5 -205t184.5 -569.5t-184.5 -569.5t-508.5 -205q-322 0 -506 205t-184 569.5zM451 745.5q0 -235.5 86 -364.5q88 -131 245 -131q160 0 248 131q86 129 86 364.5t-86 364.5q-88 131 -248 131q-158 0 -245 -131 q-86 -129 -86 -364.5zM500 1653v246h211v-246h-211zM854 1653v246h213v-246h-213z" />
<glyph unicode="&#xd7;" d="M229 209l392 432l-392 434l154 168l389 -434l391 434l152 -168l-391 -434l391 -432l-152 -168l-391 432l-389 -432z" />
<glyph unicode="&#xd8;" horiz-adv-x="1564" d="M41 39l184 205q-68 100 -100 225q-33 123 -33 276q0 365 184.5 570t505.5 205q141 0 252 -37q109 -37 203 -115l178 199l103 -115l-183 -199q71 -98 105 -227q35 -133 35 -281q0 -365 -184.5 -569.5t-508.5 -204.5q-141 0 -252 39q-117 41 -206 119l-183 -203zM451 745 q0 -66 6 -120q6 -57 18 -103l545 604q-46 58 -105 86q-61 29 -133 29q-158 0 -245 -131q-86 -129 -86 -365zM545 371q46 -61 104 -92q55 -29 133 -29q160 0 248 131q86 129 86 364q0 70 -6 127q-6 61 -20 107z" />
<glyph unicode="&#xd9;" horiz-adv-x="1495" d="M170 598v895h346v-895q0 -184 55.5 -264t176.5 -80q123 0 178 80t55 264v895h346v-895q0 -319 -143 -471q-145 -156 -436 -156t-437 156q-141 149 -141 471zM426 1899h254l180 -264h-178z" />
<glyph unicode="&#xda;" horiz-adv-x="1495" d="M170 598v895h346v-895q0 -184 55.5 -264t176.5 -80q123 0 178 80t55 264v895h346v-895q0 -319 -143 -471q-145 -156 -436 -156t-437 156q-141 149 -141 471zM594 1635l178 264h256l-258 -264h-176z" />
<glyph unicode="&#xdb;" horiz-adv-x="1495" d="M170 598v895h346v-895q0 -184 55.5 -264t176.5 -80q123 0 178 80t55 264v895h346v-895q0 -319 -143 -471q-145 -156 -436 -156t-437 156q-141 149 -141 471zM409 1635l203 264h276l199 -264h-160l-178 161l-178 -161h-162z" />
<glyph unicode="&#xdc;" horiz-adv-x="1495" d="M170 598v895h346v-895q0 -184 55.5 -264t176.5 -80q123 0 178 80t55 264v895h346v-895q0 -319 -143 -471q-145 -156 -436 -156t-437 156q-141 149 -141 471zM467 1653v246h211v-246h-211zM821 1653v246h213v-246h-213z" />
<glyph unicode="&#xdd;" horiz-adv-x="1333" d="M-18 1493h378l308 -532l305 532h381l-512 -864v-629h-348v629zM512 1635l178 264h256l-258 -264h-176z" />
<glyph unicode="&#xde;" horiz-adv-x="1357" d="M170 0v1493h346v-260h227q256 0 396 -127q137 -125 137 -360.5t-137 -360.5q-139 -127 -396 -127h-227v-258h-346zM516 537h191q100 0 155.5 55t55.5 153q0 100 -55.5 155.5t-155.5 55.5h-191v-419z" />
<glyph unicode="&#xdf;" horiz-adv-x="1323" d="M156 0v1114q0 223 120 332q123 111 367 110q233 0 356 -112q121 -111 121 -330v-72q-137 -10 -200 -49q-66 -41 -66 -112q0 -37 23 -66q20 -25 106 -80l61 -37q104 -66 154 -149q47 -82 47 -201q0 -188 -102.5 -282.5t-311.5 -94.5q-59 0 -120.5 12.5t-128.5 36.5v244 q45 -25 102 -41q49 -14 100 -14q65 0 105 37q41 37 41 92q0 45 -27 82q-25 33 -112 88l-64 39q-80 49 -117 116.5t-37 157.5q0 115 61.5 195t194.5 129q0 84 -45 129t-125 45q-90 0 -137 -55q-45 -53 -45 -164v-1100h-321z" />
<glyph unicode="&#xe0;" horiz-adv-x="1241" d="M80 336q0 199 121 289q123 92 383 92h190v28q0 86 -61 125q-59 39 -187 39q-98 0 -192 -22q-84 -20 -166 -70v273q106 29 207 43q98 14 209 14q276 0 395 -119q121 -121 121 -389v-639h-326v166q-63 -100 -145 -147.5t-199 -47.5q-156 0 -254 101q-96 98 -96 264z M403 354q0 -66 41 -106q39 -39 115 -39q94 0 154 72q61 74 61 182v41h-168q-98 0 -151 -37q-52 -37 -52 -113zM254 1638h254l254 -376h-176z" />
<glyph unicode="&#xe1;" horiz-adv-x="1241" d="M80 336q0 199 121 289q123 92 383 92h190v28q0 86 -61 125q-59 39 -187 39q-98 0 -192 -22q-84 -20 -166 -70v273q106 29 207 43q98 14 209 14q276 0 395 -119q121 -121 121 -389v-639h-326v166q-63 -100 -145 -147.5t-199 -47.5q-156 0 -254 101q-96 98 -96 264z M403 354q0 -66 41 -106q39 -39 115 -39q94 0 154 72q61 74 61 182v41h-168q-98 0 -151 -37q-52 -37 -52 -113zM496 1262l254 376h256l-332 -376h-178z" />
<glyph unicode="&#xe2;" horiz-adv-x="1241" d="M80 336q0 199 121 289q123 92 383 92h190v28q0 86 -61 125q-59 39 -187 39q-98 0 -192 -22q-84 -20 -166 -70v273q106 29 207 43q98 14 209 14q276 0 395 -119q121 -121 121 -389v-639h-326v166q-63 -100 -145 -147.5t-199 -47.5q-156 0 -254 101q-96 98 -96 264z M403 354q0 -66 41 -106q39 -39 115 -39q94 0 154 72q61 74 61 182v41h-168q-98 0 -151 -37q-52 -37 -52 -113zM291 1262l229 376h217l232 -376h-162l-178 225l-178 -225h-160z" />
<glyph unicode="&#xe3;" horiz-adv-x="1241" d="M80 336q0 199 121 289q123 92 383 92h190v28q0 86 -61 125q-59 39 -187 39q-98 0 -192 -22q-84 -20 -166 -70v273q106 29 207 43q98 14 209 14q276 0 395 -119q121 -121 121 -389v-639h-326v166q-63 -100 -145 -147.5t-199 -47.5q-156 0 -254 101q-96 98 -96 264z M403 354q0 -66 41 -106q39 -39 115 -39q94 0 154 72q61 74 61 182v41h-168q-98 0 -151 -37q-52 -37 -52 -113zM315 1309q0 135 48 211q46 74 129 73q27 0 65 -14q33 -12 70 -43l55 -43q4 -2 37 -23q14 -8 29 -8q33 0 51 31t18 90v8h125q0 -135 -47 -211q-46 -74 -129 -73 q-33 0 -63 12q-29 12 -72 45l-49 37l-4 2q-4 2 -7 4q-43 31 -63 31q-31 0 -49.5 -31t-18.5 -90v-8h-125z" />
<glyph unicode="&#xe4;" horiz-adv-x="1241" d="M80 336q0 199 121 289q123 92 383 92h190v28q0 86 -61 125q-59 39 -187 39q-98 0 -192 -22q-84 -20 -166 -70v273q106 29 207 43q98 14 209 14q276 0 395 -119q121 -121 121 -389v-639h-326v166q-63 -100 -145 -147.5t-199 -47.5q-156 0 -254 101q-96 98 -96 264z M403 354q0 -66 41 -106q39 -39 115 -39q94 0 154 72q61 74 61 182v41h-168q-98 0 -151 -37q-52 -37 -52 -113zM344 1339v246h213v-246h-213zM700 1339v246h211v-246h-211z" />
<glyph unicode="&#xe5;" horiz-adv-x="1241" d="M80 336q0 199 121 289q123 92 383 92h190v28q0 86 -61 125q-59 39 -187 39q-98 0 -192 -22q-84 -20 -166 -70v273q106 29 207 43q98 14 209 14q276 0 395 -119q121 -121 121 -389v-639h-326v166q-63 -100 -145 -147.5t-199 -47.5q-156 0 -254 101q-96 98 -96 264z M403 354q0 -66 41 -106q39 -39 115 -39q94 0 154 72q61 74 61 182v41h-168q-98 0 -151 -37q-52 -37 -52 -113zM373 1534q0 121 74 201q78 84 182 84q106 0 180 -84q76 -86 76 -201t-76 -201q-74 -84 -180 -84q-104 0 -182 84q-74 80 -74 201zM510 1534q0 -53 35 -92t84 -39 q51 0 84 39q35 41 35 92t-35 92q-33 39 -84 39t-84 -39q-35 -41 -35 -92z" />
<glyph unicode="&#xe6;" horiz-adv-x="1929" d="M80 336q0 199 121 289q123 92 383 92h190v28q0 86 -61 125q-59 39 -187 39q-98 0 -192 -22q-84 -20 -166 -70v273q111 29 207 43q94 14 186 14q137 0 234 -39q100 -41 161 -117q66 76 162 117q90 39 201 39q240 0 381 -160q143 -162 143 -424v-102h-753 q12 -125 81.5 -188.5t196.5 -63.5q104 0 209 33q100 31 219 102v-276q-102 -45 -229 -72q-113 -25 -230 -25q-156 0 -278 54q-120 52 -185 153q-94 -111 -192 -158q-100 -49 -225 -49q-175 0 -277 99q-100 98 -100 266zM403 354q0 -66 41 -106q39 -39 115 -39q94 0 154 72 q61 74 61 182v41h-168q-98 0 -151 -37q-52 -37 -52 -113zM1096 682h415q0 100 -53 163.5t-139 63.5q-92 0 -152 -59q-55 -55 -71 -168z" />
<glyph unicode="&#xe7;" horiz-adv-x="1091" d="M80 559q0 276 153.5 432t425.5 156q74 0 156 -16.5t154 -45.5v-292q-66 49 -131 73q-68 25 -138 25q-135 0 -211 -88q-74 -86 -73.5 -244t73.5 -244q76 -88 211 -88q76 0 144 25q66 25 125 74v-293q-76 -31 -154 -47q-72 -14 -156 -15q-272 0 -425.5 156t-153.5 432z M402 -223q51 -16 83 -23q49 -8 66 -8q49 0 82 23q29 20 29 63q0 29 -19 68q-14 31 -59 100h125q49 -57 75 -115q25 -53 25 -100q0 -95 -55 -141q-53 -45 -170 -45q-41 0 -88 6q-31 4 -92 20z" />
<glyph unicode="&#xe8;" horiz-adv-x="1249" d="M80 559q0 276 147 430q152 158 412 158q238 0 379 -160q143 -162 143 -424v-102h-753q12 -125 81.5 -188.5t196.5 -63.5q104 0 209 33q102 33 217 102v-276q-104 -45 -227 -72q-115 -25 -230 -25q-273 0 -424 154q-151 155 -151 434zM412 682h417q0 100 -53 163.5 t-139 63.5q-92 0 -151.5 -59t-73.5 -168zM281 1638h254l254 -376h-176z" />
<glyph unicode="&#xe9;" horiz-adv-x="1249" d="M80 559q0 276 147 430q152 158 412 158q238 0 379 -160q143 -162 143 -424v-102h-753q12 -125 81.5 -188.5t196.5 -63.5q104 0 209 33q102 33 217 102v-276q-104 -45 -227 -72q-115 -25 -230 -25q-273 0 -424 154q-151 155 -151 434zM412 682h417q0 100 -53 163.5 t-139 63.5q-92 0 -151.5 -59t-73.5 -168zM523 1262l254 376h256l-332 -376h-178z" />
<glyph unicode="&#xea;" horiz-adv-x="1249" d="M80 559q0 276 147 430q152 158 412 158q238 0 379 -160q143 -162 143 -424v-102h-753q12 -125 81.5 -188.5t196.5 -63.5q104 0 209 33q102 33 217 102v-276q-104 -45 -227 -72q-115 -25 -230 -25q-273 0 -424 154q-151 155 -151 434zM412 682h417q0 100 -53 163.5 t-139 63.5q-92 0 -151.5 -59t-73.5 -168zM318 1262l229 376h217l232 -376h-162l-178 225l-178 -225h-160z" />
<glyph unicode="&#xeb;" horiz-adv-x="1249" d="M80 559q0 276 147 430q152 158 412 158q238 0 379 -160q143 -162 143 -424v-102h-753q12 -125 81.5 -188.5t196.5 -63.5q104 0 209 33q102 33 217 102v-276q-104 -45 -227 -72q-115 -25 -230 -25q-273 0 -424 154q-151 155 -151 434zM412 682h417q0 100 -53 163.5 t-139 63.5q-92 0 -151.5 -59t-73.5 -168zM371 1339v246h213v-246h-213zM727 1339v246h211v-246h-211z" />
<glyph unicode="&#xec;" horiz-adv-x="630" d="M156 0v1120h321v-1120h-321zM-37 1638h254l254 -376h-176z" />
<glyph unicode="&#xed;" horiz-adv-x="630" d="M156 0v1120h321v-1120h-321zM205 1262l254 376h256l-332 -376h-178z" />
<glyph unicode="&#xee;" horiz-adv-x="630" d="M156 0v1120h321v-1120h-321zM-22 1262l229 376h217l232 -376h-162l-178 225l-178 -225h-160z" />
<glyph unicode="&#xef;" horiz-adv-x="630" d="M156 0v1120h321v-1120h-321zM31 1339v246h213v-246h-213zM387 1339v246h211v-246h-211z" />
<glyph unicode="&#xf0;" horiz-adv-x="1265" d="M80 559q0 230 135 363q137 133 373 133q43 0 76 -6q37 -6 67 -21l-170 219l-336 -119l-32 129l276 97l-170 202h317l101 -116l338 114l30 -129l-282 -96l182 -229q108 -135 154 -264q49 -137 49 -277q0 -276 -147.5 -432t-405.5 -156q-260 0 -407.5 156t-147.5 432z M416 543q0 -150 57 -232q59 -84 162 -84q104 0 160 86q57 90 57 246q0 43 -6 90q-6 51 -19 94q-53 29 -98 41q-49 12 -94 13q-106 0 -164 -66q-55 -63 -55 -188z" />
<glyph unicode="&#xf1;" horiz-adv-x="1310" d="M156 0v1120h321v-164q74 98 156 144q84 47 180 47q176 0 264 -119q90 -121 90 -346v-682h-323v111v411q0 145 -6 201q-6 57 -21 80q-20 39 -51 55q-34 18 -74 19q-98 0 -157 -86q-57 -84 -58 -240v-551h-321zM364 1309q0 135 48 211q46 74 129 73q27 0 65 -14 q33 -12 70 -43l55 -43q4 -2 37 -23q14 -8 29 -8q33 0 51 31t18 90v8h125q0 -135 -47 -211q-46 -74 -129 -73q-33 0 -63 12q-29 12 -72 45l-49 37l-4 2q-4 2 -7 4q-43 31 -63 31q-31 0 -49.5 -31t-18.5 -90v-8h-125z" />
<glyph unicode="&#xf2;" horiz-adv-x="1265" d="M80 559q0 276 147.5 432t407.5 156q258 0 405.5 -155.5t147.5 -432t-147.5 -432.5t-405.5 -156q-260 0 -407.5 156t-147.5 432zM416 559q0 -160 55 -246t164 -86q104 0 160 86q57 90 57 246t-57 246q-55 86 -160 86q-109 0 -164 -86t-55 -246zM281 1638h254l254 -376 h-176z" />
<glyph unicode="&#xf3;" horiz-adv-x="1265" d="M80 559q0 276 147.5 432t407.5 156q258 0 405.5 -155.5t147.5 -432t-147.5 -432.5t-405.5 -156q-260 0 -407.5 156t-147.5 432zM416 559q0 -160 55 -246t164 -86q104 0 160 86q57 90 57 246t-57 246q-55 86 -160 86q-109 0 -164 -86t-55 -246zM523 1262l254 376h256 l-332 -376h-178z" />
<glyph unicode="&#xf4;" horiz-adv-x="1265" d="M80 559q0 276 147.5 432t407.5 156q258 0 405.5 -155.5t147.5 -432t-147.5 -432.5t-405.5 -156q-260 0 -407.5 156t-147.5 432zM416 559q0 -160 55 -246t164 -86q104 0 160 86q57 90 57 246t-57 246q-55 86 -160 86q-109 0 -164 -86t-55 -246zM295 1262l229 376h217 l232 -376h-162l-178 225l-178 -225h-160z" />
<glyph unicode="&#xf5;" horiz-adv-x="1265" d="M80 559q0 276 147.5 432t407.5 156q258 0 405.5 -155.5t147.5 -432t-147.5 -432.5t-405.5 -156q-260 0 -407.5 156t-147.5 432zM416 559q0 -160 55 -246t164 -86q104 0 160 86q57 90 57 246t-57 246q-55 86 -160 86q-109 0 -164 -86t-55 -246zM317 1309q0 135 48 211 q46 74 129 73q27 0 65 -14q33 -12 70 -43l55 -43q4 -2 37 -23q14 -8 29 -8q33 0 51 31t18 90v8h125q0 -135 -47 -211q-46 -74 -129 -73q-33 0 -63 12q-29 12 -72 45l-49 37l-4 2q-4 2 -7 4q-43 31 -63 31q-31 0 -49.5 -31t-18.5 -90v-8h-125z" />
<glyph unicode="&#xf6;" horiz-adv-x="1265" d="M80 559q0 276 147.5 432t407.5 156q258 0 405.5 -155.5t147.5 -432t-147.5 -432.5t-405.5 -156q-260 0 -407.5 156t-147.5 432zM416 559q0 -160 55 -246t164 -86q104 0 160 86q57 90 57 246t-57 246q-55 86 -160 86q-109 0 -164 -86t-55 -246zM346 1339v246h213v-246 h-213zM702 1339v246h211v-246h-211z" />
<glyph unicode="&#xf7;" d="M195 524v236h1155v-236h-1155zM635 86v309h276v-309h-276zM635 889v309h276v-309h-276z" />
<glyph unicode="&#xf8;" horiz-adv-x="1265" d="M70 0l131 158q-61 77 -92 178q-29 94 -29 223q0 276 147.5 432t407.5 156q92 0 176 -23q78 -20 147 -65l134 158l98 -101l-127 -149q59 -74 92 -181q33 -109 33 -227q0 -276 -147.5 -432t-405.5 -156q-94 0 -180 23q-80 20 -152 67l-133 -155zM416 559q0 -51 2 -73.5 t10 -59.5l342 410q-25 29 -59 41q-39 14 -76 14q-109 0 -164 -86t-55 -246zM492 287q27 -31 63 -45q35 -14 80 -15q104 0 160 86q57 90 57 246q0 31 -4 76t-8 63z" />
<glyph unicode="&#xf9;" horiz-adv-x="1310" d="M143 436v684h326v-112q0 -27 -1 -103t-1 -125v-184q0 -137 6 -195q6 -61 21 -86q25 -37 53 -55q31 -18 71 -18q101 0 160 86q57 84 58 239v553h321v-1120h-321v162q-74 -98 -156 -144q-84 -47 -178 -47q-174 0 -266.5 119t-92.5 346zM303 1638h254l254 -376h-176z" />
<glyph unicode="&#xfa;" horiz-adv-x="1310" d="M143 436v684h326v-112q0 -27 -1 -103t-1 -125v-184q0 -137 6 -195q6 -61 21 -86q25 -37 53 -55q31 -18 71 -18q101 0 160 86q57 84 58 239v553h321v-1120h-321v162q-74 -98 -156 -144q-84 -47 -178 -47q-174 0 -266.5 119t-92.5 346zM545 1262l254 376h256l-332 -376 h-178z" />
<glyph unicode="&#xfb;" horiz-adv-x="1310" d="M143 436v684h326v-112q0 -27 -1 -103t-1 -125v-184q0 -137 6 -195q6 -61 21 -86q25 -37 53 -55q31 -18 71 -18q101 0 160 86q57 84 58 239v553h321v-1120h-321v162q-74 -98 -156 -144q-84 -47 -178 -47q-174 0 -266.5 119t-92.5 346zM313 1262l229 376h217l232 -376h-162 l-178 225l-178 -225h-160z" />
<glyph unicode="&#xfc;" horiz-adv-x="1310" d="M143 436v684h326v-112q0 -27 -1 -103t-1 -125v-184q0 -137 6 -195q6 -61 21 -86q25 -37 53 -55q31 -18 71 -18q101 0 160 86q57 84 58 239v553h321v-1120h-321v162q-74 -98 -156 -144q-84 -47 -178 -47q-174 0 -266.5 119t-92.5 346zM366 1339v246h213v-246h-213z M722 1339v246h211v-246h-211z" />
<glyph unicode="&#xfd;" horiz-adv-x="1200" d="M23 1120h321l272 -760l230 760h321l-424 -1226q-66 -190 -147 -261q-88 -76 -225 -75h-187v235h101q82 0 121 29q35 27 57 104l8 31zM467 1262l254 376h256l-332 -376h-178z" />
<glyph unicode="&#xfe;" horiz-adv-x="1318" d="M156 -426v1982h321v-600q66 96 148 143.5t186 47.5q186 0 305 -164q121 -168 121 -424t-121 -424q-119 -164 -305 -164q-104 0 -186 47.5t-148 143.5v-588h-321zM477 559q0 -158 55 -244q53 -84 158 -84t160 84q53 80 53 244t-53 244q-55 84 -159.5 84t-158.5 -84 q-55 -86 -55 -244z" />
<glyph unicode="&#xff;" horiz-adv-x="1200" d="M23 1120h321l272 -760l230 760h321l-424 -1226q-66 -190 -147 -261q-88 -76 -225 -75h-187v235h101q82 0 121 29q35 27 57 104l8 31zM315 1339v246h213v-246h-213zM671 1339v246h211v-246h-211z" />
<glyph unicode="&#x100;" horiz-adv-x="1425" d="M428 1683v188h567v-188h-567zM8 0l500 1493h412l497 -1493h-348l-84 272h-543l-86 -272h-348zM528 549h369l-182 594z" />
<glyph unicode="&#x101;" horiz-adv-x="1241" d="M299 1374v188h567v-188h-567zM80 336q0 199 121 289q123 92 383 92h190v28q0 86 -61 125q-59 39 -187 39q-98 0 -192 -22q-84 -20 -166 -70v273q106 29 207 43q98 14 209 14q276 0 395 -119q121 -121 121 -389v-639h-326v166q-63 -100 -145 -147.5t-199 -47.5 q-156 0 -254 101q-96 98 -96 264zM403 354q0 -66 41 -106q39 -39 115 -39q94 0 154 72q61 74 61 182v41h-168q-98 0 -151 -37q-52 -37 -52 -113z" />
<glyph unicode="&#x102;" horiz-adv-x="1425" d="M408 1913h129q8 -66 55 -107q43 -37 119 -37t119 37q47 41 55 107h129q-6 -143 -84 -220q-82 -78 -219 -77q-141 0 -219 78t-84 219zM8 0l500 1493h412l497 -1493h-348l-84 272h-543l-86 -272h-348zM528 549h369l-182 594z" />
<glyph unicode="&#x103;" horiz-adv-x="1241" d="M355 1598h129q8 -66 55 -107q43 -37 119 -37t119 37q47 41 55 107h129q-6 -143 -84 -220q-82 -78 -219 -77q-141 0 -219 78t-84 219zM80 336q0 199 121 289q123 92 383 92h190v28q0 86 -61 125q-59 39 -187 39q-98 0 -192 -22q-84 -20 -166 -70v273q106 29 207 43 q98 14 209 14q276 0 395 -119q121 -121 121 -389v-639h-326v166q-63 -100 -145 -147.5t-199 -47.5q-156 0 -254 101q-96 98 -96 264zM403 354q0 -66 41 -106q39 -39 115 -39q94 0 154 72q61 74 61 182v41h-168q-98 0 -151 -37q-52 -37 -52 -113z" />
<glyph unicode="&#x104;" horiz-adv-x="1425" d="M969 -223q0 53 25 108q25 53 76 115h127q-35 -51 -62 -104q-18 -37 -18 -62q0 -39 26.5 -63.5t71.5 -24.5q25 0 70 8q27 4 69 23v-156q-33 -8 -90 -16q-43 -6 -80 -6q-102 0 -160 47q-55 47 -55 131zM8 0l500 1493h412l497 -1493h-348l-84 272h-543l-86 -272h-348z M528 549h369l-182 594z" />
<glyph unicode="&#x105;" horiz-adv-x="1241" d="M678 -223q0 53 25 108q25 53 76 115h127q-35 -51 -62 -104q-18 -37 -18 -62q0 -39 26.5 -63.5t71.5 -24.5q25 0 70 8q27 4 69 23v-156q-33 -8 -90 -16q-43 -6 -80 -6q-102 0 -160 47q-55 47 -55 131zM80 336q0 199 121 289q123 92 383 92h190v28q0 86 -61 125 q-59 39 -187 39q-98 0 -192 -22q-84 -20 -166 -70v273q106 29 207 43q98 14 209 14q276 0 395 -119q121 -121 121 -389v-639h-326v166q-63 -100 -145 -147.5t-199 -47.5q-156 0 -254 101q-96 98 -96 264zM403 354q0 -66 41 -106q39 -39 115 -39q94 0 154 72q61 74 61 182v41 h-168q-98 0 -151 -37q-52 -37 -52 -113z" />
<glyph unicode="&#x106;" horiz-adv-x="1351" d="M92 745.5q0 356.5 196.5 565.5t530.5 209q117 0 217 -27q98 -27 199 -84v-309q-96 72 -190.5 106.5t-196.5 34.5q-186 0 -293 -131q-104 -129 -104 -365q0 -233 104 -362q109 -133 293 -133q102 0 196.5 34.5t190.5 106.5v-309q-92 -53 -199 -82q-109 -29 -217 -29 q-334 0 -530.5 209t-196.5 565.5zM649 1635l178 264h256l-258 -264h-176z" />
<glyph unicode="&#x107;" horiz-adv-x="1091" d="M80 559q0 276 153.5 432t425.5 156q74 0 156 -16.5t154 -45.5v-292q-66 49 -131 73q-68 25 -138 25q-135 0 -211 -88q-74 -86 -73.5 -244t73.5 -244q76 -88 211 -88q76 0 144 25q66 25 125 74v-293q-76 -31 -154 -47q-72 -14 -156 -15q-272 0 -425.5 156t-153.5 432z M518 1262l254 376h256l-332 -376h-178z" />
<glyph unicode="&#x108;" horiz-adv-x="1351" d="M479 1635l203 264h276l199 -264h-160l-178 161l-178 -161h-162zM92 745.5q0 356.5 196.5 565.5t530.5 209q117 0 217 -27q98 -27 199 -84v-309q-96 72 -190.5 106.5t-196.5 34.5q-186 0 -293 -131q-104 -129 -104 -365q0 -233 104 -362q109 -133 293 -133 q102 0 196.5 34.5t190.5 106.5v-309q-92 -53 -199 -82q-109 -29 -217 -29q-334 0 -530.5 209t-196.5 565.5z" />
<glyph unicode="&#x109;" horiz-adv-x="1091" d="M322 1262l229 376h217l232 -376h-162l-178 225l-178 -225h-160zM80 559q0 276 153.5 432t425.5 156q74 0 156 -16.5t154 -45.5v-292q-66 49 -131 73q-68 25 -138 25q-135 0 -211 -88q-74 -86 -73.5 -244t73.5 -244q76 -88 211 -88q76 0 144 25q66 25 125 74v-293 q-76 -31 -154 -47q-72 -14 -156 -15q-272 0 -425.5 156t-153.5 432z" />
<glyph unicode="&#x10a;" horiz-adv-x="1351" d="M696 1653v246h246v-246h-246zM92 745.5q0 356.5 196.5 565.5t530.5 209q117 0 217 -27q98 -27 199 -84v-309q-96 72 -190.5 106.5t-196.5 34.5q-186 0 -293 -131q-104 -129 -104 -365q0 -233 104 -362q109 -133 293 -133q102 0 196.5 34.5t190.5 106.5v-309 q-92 -53 -199 -82q-109 -29 -217 -29q-334 0 -530.5 209t-196.5 565.5z" />
<glyph unicode="&#x10b;" horiz-adv-x="1091" d="M537 1339v246h246v-246h-246zM80 559q0 276 153.5 432t425.5 156q74 0 156 -16.5t154 -45.5v-292q-66 49 -131 73q-68 25 -138 25q-135 0 -211 -88q-74 -86 -73.5 -244t73.5 -244q76 -88 211 -88q76 0 144 25q66 25 125 74v-293q-76 -31 -154 -47q-72 -14 -156 -15 q-272 0 -425.5 156t-153.5 432z" />
<glyph unicode="&#x10c;" horiz-adv-x="1351" d="M92 745.5q0 356.5 196.5 565.5t530.5 209q117 0 217 -27q98 -27 199 -84v-309q-96 72 -190.5 106.5t-196.5 34.5q-186 0 -293 -131q-104 -129 -104 -365q0 -233 104 -362q109 -133 293 -133q102 0 196.5 34.5t190.5 106.5v-309q-92 -53 -199 -82q-109 -29 -217 -29 q-334 0 -530.5 209t-196.5 565.5zM442 1899h162l178 -162l178 162h160l-199 -264h-276z" />
<glyph unicode="&#x10d;" horiz-adv-x="1091" d="M80 559q0 276 153.5 432t425.5 156q74 0 156 -16.5t154 -45.5v-292q-66 49 -131 73q-68 25 -138 25q-135 0 -211 -88q-74 -86 -73.5 -244t73.5 -244q76 -88 211 -88q76 0 144 25q66 25 125 74v-293q-76 -31 -154 -47q-72 -14 -156 -15q-272 0 -425.5 156t-153.5 432z M313 1638h160l178 -227l178 227h162l-232 -376h-217z" />
<glyph unicode="&#x10e;" horiz-adv-x="1529" d="M170 0v1493h365q305 0 456 -49q150 -49 256 -164q95 -101 142 -233q45 -129 45 -299q0 -172 -45 -302q-46 -132 -142 -233q-104 -113 -260 -164q-152 -49 -452 -49h-365zM516 291h123q215 0 325.5 116.5t110.5 340.5q0 221 -110.5 337.5t-325.5 116.5h-123v-911z M360 1899h162l178 -162l178 162h160l-199 -264h-276z" />
<glyph unicode="&#x10f;" horiz-adv-x="1318" d="M84 559q0 260 119 424t305 164q104 0 186 -47t148 -144v600h323v-1556h-323v162q-70 -100 -148 -145.5t-186 -45.5q-186 0 -305 164t-119 424zM418 559q0 -164 53 -244q55 -84 157.5 -84t157.5 84q55 82 55.5 244t-55.5 244q-55 84 -157.5 84t-157.5 -84 q-53 -80 -53 -244zM1278 1178l74 376h254l-152 -376h-176z" />
<glyph unicode="&#x110;" d="M31 621v260h155v612h365q305 0 457 -49q150 -49 256 -164q95 -101 141 -233q45 -129 45 -299q0 -172 -45 -302q-46 -132 -141 -233q-104 -113 -260 -164q-152 -49 -453 -49h-365v621h-155zM532 291h123q212 0 326 117q113 115 113 340q0 219 -113 337q-111 117 -326 117 h-123v-321h211v-260h-211v-330z" />
<glyph unicode="&#x111;" horiz-adv-x="1318" d="M84 559q0 260 119 424t305 164q104 0 186 -47t148 -144v281h-295v205h295v114h323v-114h138v-205h-138v-1237h-323v162q-70 -100 -148 -145.5t-186 -45.5q-186 0 -305 164t-119 424zM418 559q0 -164 53 -244q55 -84 157.5 -84t157.5 84q55 82 55.5 244t-55.5 244 q-55 84 -157.5 84t-157.5 -84q-53 -80 -53 -244z" />
<glyph unicode="&#x112;" horiz-adv-x="1257" d="M352 1683v188h567v-188h-567zM170 0v1493h934v-291h-588v-278h553v-291h-553v-342h608v-291h-954z" />
<glyph unicode="&#x113;" horiz-adv-x="1249" d="M332 1374v188h567v-188h-567zM80 559q0 276 147 430q152 158 412 158q238 0 379 -160q143 -162 143 -424v-102h-753q12 -125 81.5 -188.5t196.5 -63.5q104 0 209 33q102 33 217 102v-276q-104 -45 -227 -72q-115 -25 -230 -25q-273 0 -424 154q-151 155 -151 434z M412 682h417q0 100 -53 163.5t-139 63.5q-92 0 -151.5 -59t-73.5 -168z" />
<glyph unicode="&#x114;" horiz-adv-x="1257" d="M319 1899h129q18 -59 61.5 -90t113 -31t112.5 30.5t61 90.5h129q-15 -129 -92 -197q-78 -68 -211 -67.5t-211 67.5q-77 68 -92 197zM170 0v1493h934v-291h-588v-278h553v-291h-553v-342h608v-291h-954z" />
<glyph unicode="&#x115;" horiz-adv-x="1249" d="M353 1606h129q8 -66 55 -107q43 -37 119 -37t119 37q47 41 55 107h129q-6 -143 -84 -220q-82 -78 -219 -77q-141 0 -219 78t-84 219zM80 559q0 276 147 430q152 158 412 158q238 0 379 -160q143 -162 143 -424v-102h-753q12 -125 81.5 -188.5t196.5 -63.5q104 0 209 33 q102 33 217 102v-276q-104 -45 -227 -72q-115 -25 -230 -25q-273 0 -424 154q-151 155 -151 434zM412 682h417q0 100 -53 163.5t-139 63.5q-92 0 -151.5 -59t-73.5 -168z" />
<glyph unicode="&#x116;" horiz-adv-x="1257" d="M499 1653v246h246v-246h-246zM170 0v1493h934v-291h-588v-278h553v-291h-553v-342h608v-291h-954z" />
<glyph unicode="&#x117;" horiz-adv-x="1249" d="M533 1339v246h246v-246h-246zM80 559q0 276 147 430q152 158 412 158q238 0 379 -160q143 -162 143 -424v-102h-753q12 -125 81.5 -188.5t196.5 -63.5q104 0 209 33q102 33 217 102v-276q-104 -45 -227 -72q-115 -25 -230 -25q-273 0 -424 154q-151 155 -151 434z M412 682h417q0 100 -53 163.5t-139 63.5q-92 0 -151.5 -59t-73.5 -168z" />
<glyph unicode="&#x118;" horiz-adv-x="1257" d="M739 -223q0 53 25 108q25 53 76 115h127q-35 -51 -62 -104q-18 -37 -18 -62q0 -39 26.5 -63.5t71.5 -24.5q25 0 70 8q27 4 69 23v-156q-33 -8 -90 -16q-43 -6 -80 -6q-102 0 -160 47q-55 47 -55 131zM170 0v1493h934v-291h-588v-278h553v-291h-553v-342h608v-291h-954z " />
<glyph unicode="&#x119;" horiz-adv-x="1249" d="M674 -223q0 53 25 108q25 53 76 115h127q-35 -51 -62 -104q-18 -37 -18 -62q0 -39 26.5 -63.5t71.5 -24.5q25 0 70 8q27 4 69 23v-156q-33 -8 -90 -16q-43 -6 -80 -6q-102 0 -160 47q-55 47 -55 131zM80 559q0 276 147 430q152 158 412 158q238 0 379 -160 q143 -162 143 -424v-102h-753q12 -125 81.5 -188.5t196.5 -63.5q104 0 209 33q102 33 217 102v-276q-104 -45 -227 -72q-115 -25 -230 -25q-273 0 -424 154q-151 155 -151 434zM412 682h417q0 100 -53 163.5t-139 63.5q-92 0 -151.5 -59t-73.5 -168z" />
<glyph unicode="&#x11a;" horiz-adv-x="1257" d="M170 0v1493h934v-291h-588v-278h553v-291h-553v-342h608v-291h-954zM301 1899h162l178 -162l178 162h160l-199 -264h-276z" />
<glyph unicode="&#x11b;" horiz-adv-x="1249" d="M80 559q0 276 147 430q152 158 412 158q238 0 379 -160q143 -162 143 -424v-102h-753q12 -125 81.5 -188.5t196.5 -63.5q104 0 209 33q102 33 217 102v-276q-104 -45 -227 -72q-115 -25 -230 -25q-273 0 -424 154q-151 155 -151 434zM412 682h417q0 100 -53 163.5 t-139 63.5q-92 0 -151.5 -59t-73.5 -168zM313 1638h160l178 -227l178 227h162l-232 -376h-217z" />
<glyph unicode="&#x11c;" horiz-adv-x="1511" d="M499 1635l203 264h276l199 -264h-160l-178 161l-178 -161h-162zM92 745q0 362 199 568q201 207 549 207q137 0 256 -27q121 -27 231 -84v-309q-121 76 -223 106q-115 35 -223 35q-209 0 -319.5 -129t-110.5 -367q0 -240 106 -366q108 -129 307 -129q39 0 101 8 q43 6 84 23v290h-211v258h538v-718q-129 -70 -268 -105q-143 -35 -289 -35q-334 0 -530.5 209t-196.5 565z" />
<glyph unicode="&#x11d;" horiz-adv-x="1318" d="M291 1262l229 376h217l232 -376h-162l-178 225l-178 -225h-160zM84 573q0 254 119 412q121 160 305 160q109 0 186.5 -45t147.5 -146v166h323v-1007q0 -270 -153 -412q-156 -143 -447 -143q-88 0 -182 16q-86 14 -176 49v279q76 -49 166 -80q78 -27 162 -27q160 0 233 78 q74 77 74 240v77q-70 -100 -148 -145t-186 -45q-186 0 -305 161.5t-119 411.5zM418 573q0 -156 53 -233q55 -80 158 -80q100 0 155 82q57 86 57.5 231.5t-57.5 231.5q-55 82 -155.5 82t-155.5 -82q-55 -85 -55 -232z" />
<glyph unicode="&#x11e;" horiz-adv-x="1511" d="M92 745q0 362 199 568q201 207 549 207q137 0 256 -27q121 -27 231 -84v-309q-121 76 -223 106q-115 35 -223 35q-209 0 -319.5 -129t-110.5 -367q0 -240 106 -366q108 -129 307 -129q39 0 101 8q43 6 84 23v290h-211v258h538v-718q-129 -70 -268 -105q-143 -35 -289 -35 q-334 0 -530.5 209t-196.5 565zM432 1899h129q18 -59 61.5 -90t113 -31t112.5 30.5t61 90.5h129q-15 -129 -92 -197q-78 -68 -211 -67.5t-211 67.5q-77 68 -92 197z" />
<glyph unicode="&#x11f;" horiz-adv-x="1318" d="M84 573q0 254 119 412q121 160 305 160q109 0 186.5 -45t147.5 -146v166h323v-1007q0 -270 -153 -412q-156 -143 -447 -143q-88 0 -182 16q-86 14 -176 49v279q76 -49 166 -80q78 -27 162 -27q160 0 233 78q74 77 74 240v77q-70 -100 -148 -145t-186 -45 q-186 0 -305 161.5t-119 411.5zM418 573q0 -156 53 -233q55 -80 158 -80q100 0 155 82q57 86 57.5 231.5t-57.5 231.5q-55 82 -155.5 82t-155.5 -82q-55 -85 -55 -232zM357 1606h129q8 -66 55 -107q43 -37 119 -37t119 37q47 41 55 107h129q-6 -143 -84 -220 q-82 -78 -219 -77q-141 0 -219 78t-84 219z" />
<glyph unicode="&#x120;" horiz-adv-x="1511" d="M716 1653v246h246v-246h-246zM92 745q0 362 199 568q201 207 549 207q137 0 256 -27q121 -27 231 -84v-309q-121 76 -223 106q-115 35 -223 35q-209 0 -319.5 -129t-110.5 -367q0 -240 106 -366q108 -129 307 -129q39 0 101 8q43 6 84 23v290h-211v258h538v-718 q-129 -70 -268 -105q-143 -35 -289 -35q-334 0 -530.5 209t-196.5 565z" />
<glyph unicode="&#x121;" horiz-adv-x="1318" d="M506 1339v246h246v-246h-246zM84 573q0 254 119 412q121 160 305 160q109 0 186.5 -45t147.5 -146v166h323v-1007q0 -270 -153 -412q-156 -143 -447 -143q-88 0 -182 16q-86 14 -176 49v279q76 -49 166 -80q78 -27 162 -27q160 0 233 78q74 77 74 240v77 q-70 -100 -148 -145t-186 -45q-186 0 -305 161.5t-119 411.5zM418 573q0 -156 53 -233q55 -80 158 -80q100 0 155 82q57 86 57.5 231.5t-57.5 231.5q-55 82 -155.5 82t-155.5 -82q-55 -85 -55 -232z" />
<glyph unicode="&#x122;" horiz-adv-x="1511" d="M635 -458l80 299h293l-201 -299h-172zM92 745q0 362 199 568q201 207 549 207q137 0 256 -27q121 -27 231 -84v-309q-121 76 -223 106q-115 35 -223 35q-209 0 -319.5 -129t-110.5 -367q0 -240 106 -366q108 -129 307 -129q39 0 101 8q43 6 84 23v290h-211v258h538v-718 q-129 -70 -268 -105q-143 -35 -289 -35q-334 0 -530.5 209t-196.5 565z" />
<glyph unicode="&#x123;" horiz-adv-x="1318" d="M487 1270l199 297h174l-82 -297h-291zM84 573q0 254 119 412q121 160 305 160q109 0 186.5 -45t147.5 -146v166h323v-1007q0 -270 -153 -412q-156 -143 -447 -143q-88 0 -182 16q-86 14 -176 49v279q76 -49 166 -80q78 -27 162 -27q160 0 233 78q74 77 74 240v77 q-70 -100 -148 -145t-186 -45q-186 0 -305 161.5t-119 411.5zM418 573q0 -156 53 -233q55 -80 158 -80q100 0 155 82q57 86 57.5 231.5t-57.5 231.5q-55 82 -155.5 82t-155.5 -82q-55 -85 -55 -232z" />
<glyph unicode="&#x124;" horiz-adv-x="1540" d="M432 1635l203 264h276l199 -264h-160l-178 161l-178 -161h-162zM170 0v1493h346v-569h510v569h346v-1493h-346v633h-510v-633h-346z" />
<glyph unicode="&#x125;" horiz-adv-x="1310" d="M-19 1635l203 264h276l199 -264h-160l-178 161l-178 -161h-162zM156 0v1556h321v-600q74 98 156 144q84 47 180 47q176 0 264 -119q90 -121 90 -346v-682h-323v111v409q0 147 -6 203q-6 57 -21 80q-20 39 -51 55q-34 18 -74 19q-98 0 -157 -86q-57 -84 -58 -240v-551 h-321z" />
<glyph unicode="&#x126;" horiz-adv-x="1792" d="M170 1112v195h125v186h346v-186h512v186h346v-186h125v-195h-125v-1112h-346v633h-512v-633h-346v1112h-125zM641 924h512v188h-512v-188z" />
<glyph unicode="&#x127;" horiz-adv-x="1454" d="M150 1255v195h143v106h323v-106h326v-195h-326v-299q70 96 154 143.5t180 47.5q178 0 267 -119q90 -121 90 -346v-682h-324v111v409q0 147 -6 203q-6 57 -21 80q-20 39 -51 55q-34 18 -74 19q-98 0 -157 -86q-57 -84 -58 -240v-551h-323v1255h-143z" />
<glyph unicode="&#x128;" horiz-adv-x="684" d="M29 1635q0 2 1 7t1 9v14q0 109 47 170q49 66 127 66q34 0 67.5 -12.5t67.5 -36.5l53 -39q16 -14 37 -21q25 -8 31 -8q33 0 51.5 31t18.5 86h125q0 -2 -1.5 -7t-1.5 -10v-14q0 -109 -47 -170q-49 -66 -127 -65q-35 0 -65 12q-43 18 -70 37l-51 35q-2 2 -8 6q-43 27 -66 26 q-29 0 -47 -30.5t-18 -79.5v-6h-125zM170 0v1493h346v-1493h-346z" />
<glyph unicode="&#x129;" horiz-adv-x="630" d="M2 1309q0 135 48 211q46 74 129 73q27 0 65 -14q33 -12 70 -43l55 -43q4 -2 37 -23q14 -8 29 -8q33 0 51 31t18 90v8h125q0 -135 -47 -211q-46 -74 -129 -73q-33 0 -63 12q-29 12 -72 45l-49 37l-4 2q-4 2 -7 4q-43 31 -63 31q-31 0 -49.5 -31t-18.5 -90v-8h-125zM156 0 v1120h321v-1120h-321z" />
<glyph unicode="&#x12a;" horiz-adv-x="684" d="M57 1683v188h567v-188h-567zM170 0v1493h346v-1493h-346z" />
<glyph unicode="&#x12b;" horiz-adv-x="630" d="M31 1374v188h567v-188h-567zM156 0v1120h321v-1120h-321z" />
<glyph unicode="&#x12c;" horiz-adv-x="684" d="M39 1899h129q18 -59 61.5 -90t113 -31t112.5 30.5t61 90.5h129q-15 -129 -92 -197q-78 -68 -211 -67.5t-211 67.5q-77 68 -92 197zM170 0v1493h346v-1493h-346z" />
<glyph unicode="&#x12d;" horiz-adv-x="630" d="M13 1606h129q8 -66 55 -107q43 -37 119 -37t119 37q47 41 55 107h129q-6 -143 -84 -220q-82 -78 -219 -77q-141 0 -219 78t-84 219zM156 0v1120h321v-1120h-321z" />
<glyph unicode="&#x12e;" horiz-adv-x="684" d="M289 -223q0 53 25 108q25 53 76 115h127q-35 -51 -62 -104q-18 -37 -18 -62q0 -39 26.5 -63.5t71.5 -24.5q25 0 70 8q27 4 69 23v-156q-33 -8 -90 -16q-43 -6 -80 -6q-102 0 -160 47q-55 47 -55 131zM170 0v1493h346v-1493h-346z" />
<glyph unicode="&#x12f;" horiz-adv-x="630" d="M250 -223q0 53 25 108q25 53 76 115h127q-35 -51 -62 -104q-18 -37 -18 -62q0 -39 26.5 -63.5t71.5 -24.5q25 0 70 8q27 4 69 23v-156q-33 -8 -90 -16q-43 -6 -80 -6q-102 0 -160 47q-55 47 -55 131zM156 0v1120h321v-1120h-321zM156 1264v292h321v-292h-321z" />
<glyph unicode="&#x130;" horiz-adv-x="684" d="M170 0v1493h346v-1493h-346zM223 1653v246h246v-246h-246z" />
<glyph unicode="&#x131;" horiz-adv-x="630" d="M156 0v1120h321v-1120h-321z" />
<glyph unicode="&#x132;" horiz-adv-x="1370" d="M580 -119h55q106 0 162 68q57 70 57 196v1348h346v-1348q0 -276 -137 -417q-135 -137 -412 -138h-71v291zM170 0v1493h346v-1493h-346z" />
<glyph unicode="&#x133;" horiz-adv-x="1261" d="M572 -207h57q92 0 125 45q35 47 35 182v1100h321v-1100q0 -227 -96 -344q-98 -119 -283 -118h-159v235zM789 1264v292h321v-292h-321zM156 0v1120h321v-1120h-321zM156 1264v292h321v-292h-321z" />
<glyph unicode="&#x134;" horiz-adv-x="684" d="M2 1635l203 264h276l199 -264h-160l-178 161l-178 -161h-162zM-104 -119h55q106 0 162 68q57 70 57 196v1348h346v-1348q0 -276 -137 -417q-135 -137 -412 -138h-71v291z" />
<glyph unicode="&#x135;" horiz-adv-x="630" d="M-22 1262l229 376h217l232 -376h-162l-178 225l-178 -225h-160zM-61 -207h57q92 0 125 45q35 47 35 182v1100h321v-1100q0 -227 -96 -344q-98 -119 -283 -118h-159v235z" />
<glyph unicode="&#x136;" horiz-adv-x="1427" d="M641 -430l80 299h293l-201 -299h-172zM170 0v1493h346v-545l500 545h401l-647 -707l715 -786h-434l-535 588v-588h-346z" />
<glyph unicode="&#x137;" horiz-adv-x="1224" d="M522 -430l80 299h293l-201 -299h-172zM156 0v1556h321v-847l371 411h375l-494 -514l533 -606h-392l-393 467v-467h-321z" />
<glyph unicode="&#x138;" horiz-adv-x="1224" d="M156 0v1120h321v-411l371 411h375l-494 -514l533 -606h-392l-393 467v-467h-321z" />
<glyph unicode="&#x139;" horiz-adv-x="1173" d="M268 1637l178 264h256l-258 -264h-176zM170 0v1493h346v-1202h608v-291h-954z" />
<glyph unicode="&#x13a;" horiz-adv-x="630" d="M223 1637l178 264h256l-258 -264h-176zM156 0v1556h321v-1556h-321z" />
<glyph unicode="&#x13b;" horiz-adv-x="1173" d="M463 -430l80 299h293l-201 -299h-172zM170 0v1493h346v-1202h608v-291h-954z" />
<glyph unicode="&#x13c;" horiz-adv-x="630" d="M131 -430l80 299h293l-201 -299h-172zM156 0v1556h321v-1556h-321z" />
<glyph unicode="&#x13d;" horiz-adv-x="1173" d="M795 1117l74 376h254l-152 -376h-176zM170 0v1493h346v-1202h608v-291h-954z" />
<glyph unicode="&#x13e;" horiz-adv-x="882" d="M557 1178l74 376h254l-152 -376h-176zM156 0v1556h321v-1556h-321z" />
<glyph unicode="&#x13f;" horiz-adv-x="1173" d="M766 704v387h324v-387h-324zM170 0v1493h346v-1202h608v-291h-954z" />
<glyph unicode="&#x140;" horiz-adv-x="1024" d="M569 700v387h324v-387h-324zM156 0v1556h321v-1556h-321z" />
<glyph unicode="&#x141;" horiz-adv-x="1181" d="M-84 608l262 197v688h348v-416l228 185l129 -193l-357 -272v-506h609v-291h-957v524l-133 -106z" />
<glyph unicode="&#x142;" horiz-adv-x="681" d="M-33 709l211 163v684h326v-501l114 88l101 -154l-215 -164v-825h-326v641l-110 -86z" />
<glyph unicode="&#x143;" horiz-adv-x="1540" d="M598 1637l178 264h256l-258 -264h-176zM170 0v1493h385l489 -1024v1024h328v-1493h-387l-487 1024v-1024h-328z" />
<glyph unicode="&#x144;" horiz-adv-x="1310" d="M441 1268l254 376h256l-332 -376h-178zM156 0v1120h321v-164q74 98 156 144q84 47 180 47q176 0 264 -119q90 -121 90 -346v-682h-323v111v411q0 145 -6 201q-6 57 -21 80q-20 39 -51 55q-34 18 -74 19q-98 0 -157 -86q-57 -84 -58 -240v-551h-321z" />
<glyph unicode="&#x145;" horiz-adv-x="1540" d="M588 -430l80 299h293l-201 -299h-172zM170 0v1493h385l489 -1024v1024h328v-1493h-387l-487 1024v-1024h-328z" />
<glyph unicode="&#x146;" horiz-adv-x="1310" d="M477 -430l80 299h293l-201 -299h-172zM156 0v1120h321v-164q74 98 156 144q84 47 180 47q176 0 264 -119q90 -121 90 -346v-682h-323v111v411q0 145 -6 201q-6 57 -21 80q-20 39 -51 55q-34 18 -74 19q-98 0 -157 -86q-57 -84 -58 -240v-551h-321z" />
<glyph unicode="&#x147;" horiz-adv-x="1540" d="M170 0v1493h385l489 -1024v1024h328v-1493h-387l-487 1024v-1024h-328zM452 1899h162l178 -162l178 162h160l-199 -264h-276z" />
<glyph unicode="&#x148;" horiz-adv-x="1310" d="M156 0v1120h321v-164q74 98 156 144q84 47 180 47q176 0 264 -119q90 -121 90 -346v-682h-323v111v411q0 145 -6 201q-6 57 -21 80q-20 39 -51 55q-34 18 -74 19q-98 0 -157 -86q-57 -84 -58 -240v-551h-321zM275 1638h160l178 -227l178 227h162l-232 -376h-217z" />
<glyph unicode="&#x149;" horiz-adv-x="1810" d="M629 0v1120h321v-164q74 98 156 144q84 47 180 47q176 0 264 -119q90 -121 90 -346v-682h-323v111v411q0 145 -6 201q-6 57 -21 80q-20 39 -51 55q-34 18 -74 19q-98 0 -157 -86q-57 -84 -58 -240v-551h-321zM94 856l90 352v285h305v-285l-205 -352h-190z" />
<glyph unicode="&#x14a;" horiz-adv-x="1540" d="M156 0v1493h333v-227q104 137 205 194q106 59 236 60q201 0 309 -158q106 -156 107 -459v-758q0 -298 -117 -417q-135 -137 -414 -138h-70v291h54q106 0 166 70q57 66 57 194v545q0 313 -45 379q-59 92 -189 92q-143 0 -223 -114q-80 -113 -80 -318v-729h-329z" />
<glyph unicode="&#x14b;" horiz-adv-x="1310" d="M156 0v1120h321v-164q74 98 156 144q84 47 180 47q172 0 264 -119q90 -121 90 -346v-662q0 -224 -98 -344q-100 -119 -281 -118h-253v235h149q94 0 127 45t33 182v502q0 164 -4 201q-6 53 -23 80q-18 34 -49 55q-35 18 -76 19q-98 0 -157 -86q-57 -84 -58 -240v-551h-321 z" />
<glyph unicode="&#x14c;" horiz-adv-x="1564" d="M498 1683v188h567v-188h-567zM92 745.5q0 364.5 184.5 569.5t505.5 205q324 0 508.5 -205t184.5 -569.5t-184.5 -569.5t-508.5 -205q-322 0 -506 205t-184 569.5zM451 745.5q0 -235.5 86 -364.5q88 -131 245 -131q160 0 248 131q86 129 86 364.5t-86 364.5 q-88 131 -248 131q-158 0 -245 -131q-86 -129 -86 -364.5z" />
<glyph unicode="&#x14d;" horiz-adv-x="1265" d="M350 1374v188h567v-188h-567zM80 559q0 276 147.5 432t407.5 156q258 0 405.5 -155.5t147.5 -432t-147.5 -432.5t-405.5 -156q-260 0 -407.5 156t-147.5 432zM416 559q0 -160 55 -246t164 -86q104 0 160 86q57 90 57 246t-57 246q-55 86 -160 86q-109 0 -164 -86 t-55 -246z" />
<glyph unicode="&#x14e;" horiz-adv-x="1564" d="M473 1899h129q18 -59 61.5 -90t113 -31t112.5 30.5t61 90.5h129q-15 -129 -92 -197q-78 -68 -211 -67.5t-211 67.5q-77 68 -92 197zM92 745.5q0 364.5 184.5 569.5t505.5 205q324 0 508.5 -205t184.5 -569.5t-184.5 -569.5t-508.5 -205q-322 0 -506 205t-184 569.5z M451 745.5q0 -235.5 86 -364.5q88 -131 245 -131q160 0 248 131q86 129 86 364.5t-86 364.5q-88 131 -248 131q-158 0 -245 -131q-86 -129 -86 -364.5z" />
<glyph unicode="&#x14f;" horiz-adv-x="1265" d="M330 1612h129q8 -66 55 -107q43 -37 119 -37t119 37q47 41 55 107h129q-6 -143 -84 -220q-82 -78 -219 -77q-141 0 -219 78t-84 219zM80 559q0 276 147.5 432t407.5 156q258 0 405.5 -155.5t147.5 -432t-147.5 -432.5t-405.5 -156q-260 0 -407.5 156t-147.5 432zM416 559 q0 -160 55 -246t164 -86q104 0 160 86q57 90 57 246t-57 246q-55 86 -160 86q-109 0 -164 -86t-55 -246z" />
<glyph unicode="&#x150;" horiz-adv-x="1564" d="M445 1635l180 264h254l-256 -264h-178zM783 1635l178 264h256l-258 -264h-176zM92 745.5q0 364.5 184.5 569.5t505.5 205q324 0 508.5 -205t184.5 -569.5t-184.5 -569.5t-508.5 -205q-322 0 -506 205t-184 569.5zM451 745.5q0 -235.5 86 -364.5q88 -131 245 -131 q160 0 248 131q86 129 86 364.5t-86 364.5q-88 131 -248 131q-158 0 -245 -131q-86 -129 -86 -364.5z" />
<glyph unicode="&#x151;" horiz-adv-x="1265" d="M369 1262l174 376h197l-226 -376h-145zM676 1262l195 376h207l-244 -376h-158zM80 559q0 276 147.5 432t407.5 156q258 0 405.5 -155.5t147.5 -432t-147.5 -432.5t-405.5 -156q-260 0 -407.5 156t-147.5 432zM416 559q0 -160 55 -246t164 -86q104 0 160 86q57 90 57 246 t-57 246q-55 86 -160 86q-109 0 -164 -86t-55 -246z" />
<glyph unicode="&#x152;" horiz-adv-x="2150" d="M92 748q0 358 213 552.5t610 194.5q2 0 13.5 -1t19.5 -1h33h1016v-291h-588v-278h553v-291h-553v-342h608v-291h-1036h-33q-8 0 -18 -1t-15 -1q-397 0 -610 195t-213 555zM451 748q0 -227 129 -342q131 -115 389 -115h94v911h-94q-264 0 -391 -112.5t-127 -341.5z" />
<glyph unicode="&#x153;" horiz-adv-x="2015" d="M80 559q0 276 147.5 432t407.5 156q119 0 213 -41q90 -39 166 -127q76 88 162 127q92 41 213 41q250 0 395 -158q143 -156 143 -426v-102h-753q12 -123 83 -189q70 -63 195 -63q104 0 209 33q106 33 219 102v-276q-104 -45 -229 -72q-117 -25 -228 -25q-147 0 -245 41 q-94 39 -160 127q-74 -84 -170 -127q-90 -41 -213 -41q-260 0 -407.5 156t-147.5 432zM416 559q0 -160 55 -246t164 -86q104 0 160 86q57 90 57 246t-57 246q-55 86 -160 86q-109 0 -164 -86t-55 -246zM1178 682h419q0 100 -53 163.5t-141 63.5q-92 0 -151.5 -59t-73.5 -168 z" />
<glyph unicode="&#x154;" horiz-adv-x="1417" d="M493 1637l178 264h256l-258 -264h-176zM170 0v1493h528q266 0 389 -98.5t123 -313.5q0 -150 -63 -243q-61 -92 -195 -140q76 -20 129 -82q53 -63 113 -192l188 -424h-368l-164 371q-51 117 -100 153q-53 41 -136 41h-98v-565h-346zM516 831h146q111 0 155 46 q47 47 47 147q0 102 -47 145q-49 45 -155 45h-146v-383z" />
<glyph unicode="&#x155;" horiz-adv-x="907" d="M441 1268l254 376h256l-332 -376h-178zM156 0v1120h321v-184q61 111 141 160q84 51 195 51q4 0 16.5 -1t18.5 -1q18 0 55 -6v-324q-51 27 -84 33q-47 10 -84 10q-123 0 -190 -88q-68 -90 -68 -254v-516h-321z" />
<glyph unicode="&#x156;" horiz-adv-x="1417" d="M592 -430l80 299h293l-201 -299h-172zM170 0v1493h528q266 0 389 -98.5t123 -313.5q0 -150 -63 -243q-61 -92 -195 -140q76 -20 129 -82q53 -63 113 -192l188 -424h-368l-164 371q-51 117 -100 153q-53 41 -136 41h-98v-565h-346zM516 831h146q111 0 155 46q47 47 47 147 q0 102 -47 145q-49 45 -155 45h-146v-383z" />
<glyph unicode="&#x157;" horiz-adv-x="907" d="M131 -430l80 299h293l-201 -299h-172zM156 0v1120h321v-184q61 111 141 160q84 51 195 51q4 0 16.5 -1t18.5 -1q18 0 55 -6v-324q-51 27 -84 33q-47 10 -84 10q-123 0 -190 -88q-68 -90 -68 -254v-516h-321z" />
<glyph unicode="&#x158;" horiz-adv-x="1417" d="M170 0v1493h528q266 0 389 -98.5t123 -313.5q0 -150 -63 -243q-61 -92 -195 -140q76 -20 129 -82q53 -63 113 -192l188 -424h-368l-164 371q-51 117 -100 153q-53 41 -136 41h-98v-565h-346zM516 831h146q111 0 155 46q47 47 47 147q0 102 -47 145q-49 45 -155 45h-146 v-383zM301 1899h162l178 -162l178 162h160l-199 -264h-276z" />
<glyph unicode="&#x159;" horiz-adv-x="907" d="M156 0v1120h321v-184q61 111 141 160q84 51 195 51q4 0 16.5 -1t18.5 -1q18 0 55 -6v-324q-51 27 -84 33q-47 10 -84 10q-123 0 -190 -88q-68 -90 -68 -254v-516h-321zM199 1638h160l178 -227l178 227h162l-232 -376h-217z" />
<glyph unicode="&#x15a;" horiz-adv-x="1325" d="M493 1637l178 264h256l-258 -264h-176zM131 1057q0 223 131 344q127 119 373 119q111 0 227 -19q115 -18 242 -55v-316q-106 53 -215 82t-201 29q-121 0 -182 -39q-59 -37 -60 -117q0 -61 39 -94t148 -57l145 -33q223 -49 320 -151q94 -100 94 -291q0 -248 -131 -367 q-133 -121 -404 -121q-131 0 -256 27q-129 28 -258 80v325q121 -72 250 -114q117 -39 232 -39q113 0 174 43q59 41 59 119q0 72 -41 108q-39 37 -164 68l-133 33q-203 49 -295 153q-94 107 -94 283z" />
<glyph unicode="&#x15b;" horiz-adv-x="1095" d="M441 1268l254 376h256l-332 -376h-178zM94 797q0 178 110.5 264t338.5 86q94 0 186 -14.5t213 -47.5v-272q-96 45 -199 72q-96 25 -182 24q-90 0 -137 -26q-43 -25 -43 -78q0 -45 33 -66q37 -23 121 -34l57 -9q244 -33 332 -114q86 -80 86 -252q0 -180 -119 -269 q-121 -90 -354 -90q-111 0 -207 17q-102 18 -219 53v272q96 -53 198 -77q111 -27 205 -27q90 0 141 29q49 28 50 86q0 47 -33 71q-35 25 -131 37l-58 8q-215 31 -301 111q-88 82 -88 246z" />
<glyph unicode="&#x15c;" horiz-adv-x="1325" d="M295 1635l203 264h276l199 -264h-160l-178 161l-178 -161h-162zM131 1057q0 223 131 344q127 119 373 119q111 0 227 -19q115 -18 242 -55v-316q-106 53 -215 82t-201 29q-121 0 -182 -39q-59 -37 -60 -117q0 -61 39 -94t148 -57l145 -33q223 -49 320 -151 q94 -100 94 -291q0 -248 -131 -367q-133 -121 -404 -121q-131 0 -256 27q-129 28 -258 80v325q121 -72 250 -114q117 -39 232 -39q113 0 174 43q59 41 59 119q0 72 -41 108q-39 37 -164 68l-133 33q-203 49 -295 153q-94 107 -94 283z" />
<glyph unicode="&#x15d;" horiz-adv-x="1095" d="M205 1262l229 376h217l232 -376h-162l-178 225l-178 -225h-160zM94 797q0 178 110.5 264t338.5 86q94 0 186 -14.5t213 -47.5v-272q-96 45 -199 72q-96 25 -182 24q-90 0 -137 -26q-43 -25 -43 -78q0 -45 33 -66q37 -23 121 -34l57 -9q244 -33 332 -114q86 -80 86 -252 q0 -180 -119 -269q-121 -90 -354 -90q-111 0 -207 17q-102 18 -219 53v272q96 -53 198 -77q111 -27 205 -27q90 0 141 29q49 28 50 86q0 47 -33 71q-35 25 -131 37l-58 8q-215 31 -301 111q-88 82 -88 246z" />
<glyph unicode="&#x15e;" horiz-adv-x="1325" d="M131 1057q0 223 131 344q127 119 373 119q111 0 227 -19q115 -18 242 -55v-316q-106 53 -215 82t-201 29q-121 0 -182 -39q-59 -37 -60 -117q0 -61 39 -94t148 -57l145 -33q223 -49 320 -151q94 -100 94 -291q0 -248 -131 -367q-133 -121 -404 -121q-131 0 -256 27 q-129 28 -258 80v325q121 -72 250 -114q117 -39 232 -39q113 0 174 43q59 41 59 119q0 72 -41 108q-39 37 -164 68l-133 33q-203 49 -295 153q-94 107 -94 283zM435 -223q51 -16 83 -23q49 -8 66 -8q49 0 82 23q29 20 29 63q0 29 -19 68q-14 31 -59 100h125q49 -57 75 -115 q25 -53 25 -100q0 -95 -55 -141q-53 -45 -170 -45q-41 0 -88 6q-31 4 -92 20z" />
<glyph unicode="&#x15f;" horiz-adv-x="1095" d="M94 797q0 178 110.5 264t338.5 86q94 0 186 -14.5t213 -47.5v-272q-96 45 -199 72q-96 25 -182 24q-90 0 -137 -26q-43 -25 -43 -78q0 -45 33 -66q37 -23 121 -34l57 -9q244 -33 332 -114q86 -80 86 -252q0 -180 -119 -269q-121 -90 -354 -90q-111 0 -207 17 q-102 18 -219 53v272q96 -53 198 -77q111 -27 205 -27q90 0 141 29q49 28 50 86q0 47 -33 71q-35 25 -131 37l-58 8q-215 31 -301 111q-88 82 -88 246zM324 -223q51 -16 83 -23q49 -8 66 -8q49 0 82 23q29 20 29 63q0 29 -19 68q-14 31 -59 100h125q49 -57 75 -115 q25 -53 25 -100q0 -95 -55 -141q-53 -45 -170 -45q-41 0 -88 6q-31 4 -92 20z" />
<glyph unicode="&#x160;" horiz-adv-x="1325" d="M131 1057q0 223 131 344q127 119 373 119q111 0 227 -19q115 -18 242 -55v-316q-106 53 -215 82t-201 29q-121 0 -182 -39q-59 -37 -60 -117q0 -61 39 -94t148 -57l145 -33q223 -49 320 -151q94 -100 94 -291q0 -248 -131 -367q-133 -121 -404 -121q-131 0 -256 27 q-129 28 -258 80v325q121 -72 250 -114q117 -39 232 -39q113 0 174 43q59 41 59 119q0 72 -41 108q-39 37 -164 68l-133 33q-203 49 -295 153q-94 107 -94 283zM301 1899h162l178 -162l178 162h160l-199 -264h-276z" />
<glyph unicode="&#x161;" horiz-adv-x="1095" d="M94 797q0 178 110.5 264t338.5 86q94 0 186 -14.5t213 -47.5v-272q-96 45 -199 72q-96 25 -182 24q-90 0 -137 -26q-43 -25 -43 -78q0 -45 33 -66q37 -23 121 -34l57 -9q244 -33 332 -114q86 -80 86 -252q0 -180 -119 -269q-121 -90 -354 -90q-111 0 -207 17 q-102 18 -219 53v272q96 -53 198 -77q111 -27 205 -27q90 0 141 29q49 28 50 86q0 47 -33 71q-35 25 -131 37l-58 8q-215 31 -301 111q-88 82 -88 246zM211 1638h160l178 -227l178 227h162l-232 -376h-217z" />
<glyph unicode="&#x162;" horiz-adv-x="1255" d="M406 -223q51 -16 83 -23q49 -8 66 -8q49 0 82 23q29 20 29 63q0 29 -19 68q-14 31 -59 100h125q49 -57 75 -115q25 -53 25 -100q0 -95 -55 -141q-53 -45 -170 -45q-41 0 -88 6q-31 4 -92 20zM8 1202v291h1239v-291h-444v-1202h-348v1202h-447z" />
<glyph unicode="&#x163;" horiz-adv-x="880" d="M236 -223q51 -16 83 -23q49 -8 66 -8q49 0 82 23q29 20 29 63q0 29 -19 68q-14 31 -59 100h125q49 -57 75 -115q25 -53 25 -100q0 -95 -55 -141q-53 -45 -170 -45q-41 0 -88 6q-31 4 -92 20zM25 864v256h159v318h324v-318h332v-256h-332v-475q0 -80 26.5 -106.5 t110.5 -26.5h166v-256h-276q-190 0 -271 88q-80 89 -80 301v475h-159z" />
<glyph unicode="&#x164;" horiz-adv-x="1255" d="M8 1202v291h1239v-291h-444v-1202h-348v1202h-447zM284 1905h162l178 -162l178 162h160l-199 -264h-276z" />
<glyph unicode="&#x165;" horiz-adv-x="880" d="M25 864v256h159v318h324v-318h332v-256h-332v-475q0 -80 26.5 -106.5t110.5 -26.5h166v-256h-276q-190 0 -271 88q-80 89 -80 301v475h-159zM608 1291l74 376h254l-152 -376h-176z" />
<glyph unicode="&#x166;" horiz-adv-x="1255" d="M8 1202v291h1239v-291h-444v-506h221v-190h-221v-506h-348v506h-222v190h222v506h-447z" />
<glyph unicode="&#x167;" horiz-adv-x="880" d="M25 530v193h159v141h-159v256h159v318h324v-318h332v-256h-332v-141h164v-193h-164v-141q0 -78 27 -104q29 -29 110 -29h166v-256h-276q-190 0 -271 88q-80 89 -80 301v141h-159z" />
<glyph unicode="&#x168;" horiz-adv-x="1495" d="M434 1635q0 2 1 7t1 9v14q0 109 47 170q49 66 127 66q34 0 67.5 -12.5t67.5 -36.5l53 -39q16 -14 37 -21q25 -8 31 -8q33 0 51.5 31t18.5 86h125q0 -2 -1.5 -7t-1.5 -10v-14q0 -109 -47 -170q-49 -66 -127 -65q-35 0 -65 12q-43 18 -70 37l-51 35q-2 2 -8 6 q-43 27 -66 26q-29 0 -47 -30.5t-18 -79.5v-6h-125zM170 598v895h346v-895q0 -184 55.5 -264t176.5 -80q123 0 178 80t55 264v895h346v-895q0 -319 -143 -471q-145 -156 -436 -156t-437 156q-141 149 -141 471z" />
<glyph unicode="&#x169;" horiz-adv-x="1310" d="M364 1309q0 135 48 211q46 74 129 73q27 0 65 -14q33 -12 70 -43l55 -43q4 -2 37 -23q14 -8 29 -8q33 0 51 31t18 90v8h125q0 -135 -47 -211q-46 -74 -129 -73q-33 0 -63 12q-29 12 -72 45l-49 37l-4 2q-4 2 -7 4q-43 31 -63 31q-31 0 -49.5 -31t-18.5 -90v-8h-125z M143 436v684h326v-112q0 -27 -1 -103t-1 -125v-184q0 -137 6 -195q6 -61 21 -86q25 -37 53 -55q31 -18 71 -18q101 0 160 86q57 84 58 239v553h321v-1120h-321v162q-74 -98 -156 -144q-84 -47 -178 -47q-174 0 -266.5 119t-92.5 346z" />
<glyph unicode="&#x16a;" horiz-adv-x="1495" d="M465 1683v188h567v-188h-567zM170 598v895h346v-895q0 -184 55.5 -264t176.5 -80q123 0 178 80t55 264v895h346v-895q0 -319 -143 -471q-145 -156 -436 -156t-437 156q-141 149 -141 471z" />
<glyph unicode="&#x16b;" horiz-adv-x="1310" d="M366 1374v188h567v-188h-567zM143 436v684h326v-112q0 -27 -1 -103t-1 -125v-184q0 -137 6 -195q6 -61 21 -86q25 -37 53 -55q31 -18 71 -18q101 0 160 86q57 84 58 239v553h321v-1120h-321v162q-74 -98 -156 -144q-84 -47 -178 -47q-174 0 -266.5 119t-92.5 346z" />
<glyph unicode="&#x16c;" horiz-adv-x="1495" d="M446 1899h129q18 -59 61.5 -90t113 -31t112.5 30.5t61 90.5h129q-15 -129 -92 -197q-78 -68 -211 -67.5t-211 67.5q-77 68 -92 197zM170 598v895h346v-895q0 -184 55.5 -264t176.5 -80q123 0 178 80t55 264v895h346v-895q0 -319 -143 -471q-145 -156 -436 -156t-437 156 q-141 149 -141 471z" />
<glyph unicode="&#x16d;" horiz-adv-x="1310" d="M375 1606h129q8 -66 55 -107q43 -37 119 -37t119 37q47 41 55 107h129q-6 -143 -84 -220q-82 -78 -219 -77q-141 0 -219 78t-84 219zM143 436v684h326v-112q0 -27 -1 -103t-1 -125v-184q0 -137 6 -195q6 -61 21 -86q25 -37 53 -55q31 -18 71 -18q101 0 160 86 q57 84 58 239v553h321v-1120h-321v162q-74 -98 -156 -144q-84 -47 -178 -47q-174 0 -266.5 119t-92.5 346z" />
<glyph unicode="&#x16e;" horiz-adv-x="1495" d="M170 598v895h346v-895q0 -184 55.5 -264t176.5 -80q123 0 178 80t55 264v895h346v-895q0 -319 -143 -471q-145 -156 -436 -156t-437 156q-141 149 -141 471zM498 1618q0 121 74 201q78 84 182 84q106 0 180 -84q76 -86 76 -201t-76 -201q-74 -84 -180 -84q-104 0 -182 84 q-74 80 -74 201zM635 1618q0 -53 35 -92t84 -39q51 0 84 39q35 41 35 92t-35 92q-33 39 -84 39t-84 -39q-35 -41 -35 -92z" />
<glyph unicode="&#x16f;" horiz-adv-x="1310" d="M143 436v684h326v-112q0 -27 -1 -103t-1 -125v-184q0 -137 6 -195q6 -61 21 -86q25 -37 53 -55q31 -18 71 -18q101 0 160 86q57 84 58 239v553h321v-1120h-321v162q-74 -98 -156 -144q-84 -47 -178 -47q-174 0 -266.5 119t-92.5 346zM404 1520q0 121 74 201q78 84 182 84 q106 0 180 -84q76 -86 76 -201t-76 -201q-74 -84 -180 -84q-104 0 -182 84q-74 80 -74 201zM541 1520q0 -53 35 -92t84 -39q51 0 84 39q35 41 35 92t-35 92q-33 39 -84 39t-84 -39q-35 -41 -35 -92z" />
<glyph unicode="&#x170;" horiz-adv-x="1495" d="M410 1635l180 264h254l-256 -264h-178zM748 1635l178 264h256l-258 -264h-176zM170 598v895h346v-895q0 -184 55.5 -264t176.5 -80q123 0 178 80t55 264v895h346v-895q0 -319 -143 -471q-145 -156 -436 -156t-437 156q-141 149 -141 471z" />
<glyph unicode="&#x171;" horiz-adv-x="1310" d="M391 1262l174 376h197l-226 -376h-145zM698 1262l195 376h207l-244 -376h-158zM143 436v684h326v-112q0 -27 -1 -103t-1 -125v-184q0 -137 6 -195q6 -61 21 -86q25 -37 53 -55q31 -18 71 -18q101 0 160 86q57 84 58 239v553h321v-1120h-321v162q-74 -98 -156 -144 q-84 -47 -178 -47q-174 0 -266.5 119t-92.5 346z" />
<glyph unicode="&#x172;" horiz-adv-x="1495" d="M170 598v895h346v-895q0 -184 55.5 -264t176.5 -80q123 0 178 80t55 264v895h346v-895q0 -319 -143 -471q-145 -156 -436 -156t-437 156q-141 149 -141 471zM583 -239q0 53 25 108q25 53 76 115h127q-35 -51 -62 -104q-18 -37 -18 -62q0 -39 26.5 -63.5t71.5 -24.5 q25 0 70 8q27 4 69 23v-156q-33 -8 -90 -16q-43 -6 -80 -6q-102 0 -160 47q-55 47 -55 131z" />
<glyph unicode="&#x173;" horiz-adv-x="1310" d="M143 436v684h326v-112q0 -27 -1 -103t-1 -125v-184q0 -137 6 -195q6 -61 21 -86q25 -37 53 -55q31 -18 71 -18q101 0 160 86q57 84 58 239v553h321v-1120h-321v162q-74 -98 -156 -144q-84 -47 -178 -47q-174 0 -266.5 119t-92.5 346zM934 -223q0 53 25 108q25 53 76 115 h127q-35 -51 -62 -104q-18 -37 -18 -62q0 -39 26.5 -63.5t71.5 -24.5q25 0 70 8q27 4 69 23v-156q-33 -8 -90 -16q-43 -6 -80 -6q-102 0 -160 47q-55 47 -55 131z" />
<glyph unicode="&#x174;" horiz-adv-x="2031" d="M676 1643l203 264h276l199 -264h-160l-178 161l-178 -161h-162zM55 1493h332l231 -1085l232 1085h334l229 -1085l234 1085h329l-317 -1493h-399l-244 1135l-242 -1135h-399z" />
<glyph unicode="&#x175;" horiz-adv-x="1701" d="M514 1262l229 376h217l232 -376h-162l-178 225l-178 -225h-160zM66 1120h313l168 -772l170 772h268l170 -764l170 764h313l-266 -1120h-350l-170 770l-170 -770h-352z" />
<glyph unicode="&#x176;" horiz-adv-x="1333" d="M327 1643l203 264h276l199 -264h-160l-178 161l-178 -161h-162zM-18 1493h378l308 -532l305 532h381l-512 -864v-629h-348v629z" />
<glyph unicode="&#x177;" horiz-adv-x="1200" d="M256 1262l229 376h217l232 -376h-162l-178 225l-178 -225h-160zM23 1120h321l272 -760l230 760h321l-424 -1226q-66 -190 -147 -261q-88 -76 -225 -75h-187v235h101q82 0 121 29q35 27 57 104l8 31z" />
<glyph unicode="&#x178;" horiz-adv-x="1333" d="M-18 1493h378l308 -532l305 532h381l-512 -864v-629h-348v629zM385 1653v246h211v-246h-211zM739 1653v246h213v-246h-213z" />
<glyph unicode="&#x179;" horiz-adv-x="1335" d="M493 1637l178 264h256l-258 -264h-176zM84 0v233l721 969h-701v291h1129v-233l-721 -969h741v-291h-1169z" />
<glyph unicode="&#x17a;" horiz-adv-x="1071" d="M441 1268l254 376h256l-332 -376h-178zM84 0v250l530 614h-510v256h881v-250l-530 -614h530v-256h-901z" />
<glyph unicode="&#x17b;" horiz-adv-x="1335" d="M526 1657v246h246v-246h-246zM84 0v233l721 969h-701v291h1129v-233l-721 -969h741v-291h-1169z" />
<glyph unicode="&#x17c;" horiz-adv-x="1071" d="M410 1308v246h246v-246h-246zM84 0v250l530 614h-510v256h881v-250l-530 -614h530v-256h-901z" />
<glyph unicode="&#x17d;" horiz-adv-x="1335" d="M84 0v233l721 969h-701v291h1129v-233l-721 -969h741v-291h-1169zM307 1899h162l178 -162l178 162h160l-199 -264h-276z" />
<glyph unicode="&#x17e;" horiz-adv-x="1071" d="M84 0v250l530 614h-510v256h881v-250l-530 -614h530v-256h-901zM199 1638h160l178 -227l178 227h162l-232 -376h-217z" />
<glyph unicode="&#x17f;" horiz-adv-x="800" d="M35 864v256h160v78q0 184 92 270q94 88 284 88h246v-235h-178q-68 0 -94 -27q-27 -31 -27 -96v-1198h-323v864h-160z" />
<glyph unicode="&#x180;" horiz-adv-x="1318" d="M16 1237v205h140v114h321v-114h295v-205h-295v-281q66 96 148 143.5t186 47.5q186 0 305 -164q121 -168 121 -424t-121 -424q-119 -164 -305 -164q-104 0 -186 47.5t-148 143.5v-162h-321v1237h-140zM477 559q0 -158 55 -244q53 -84 158 -84t160 84q53 80 53 244t-53 244 q-55 84 -159.5 84t-158.5 -84q-55 -86 -55 -244z" />
<glyph unicode="&#x181;" horiz-adv-x="1492" d="M-127 1079v76q0 170 90 256q88 82 295 82h520q281 0 406 -94q127 -96 127 -301q0 -106 -47 -185q-47 -80 -134 -114q115 -39 175 -133q61 -98 61 -238q0 -213 -133 -322q-131 -106 -399 -106h-576v1231h-70q-37 0 -65 -29q-18 -18 -19 -76v-47h-231zM606 262h203 q104 0 157.5 49t53.5 148q0 96 -53.5 145t-157.5 49h-203v-391zM606 915h191q84 0 125 39q43 41 43 119q0 77 -43 117q-45 41 -125 41h-191v-316z" />
<glyph unicode="&#x182;" horiz-adv-x="1402" d="M170 0v1493h1016v-291h-670v-278h227q256 0 402 -117q131 -106 131 -346q0 -238 -131 -344q-145 -117 -402 -117h-573zM516 262h203q111 0 158 45q53 49 53 142q0 90 -53 139q-47 45 -158 45h-203v-371z" />
<glyph unicode="&#x183;" horiz-adv-x="1318" d="M156 0v1556h925v-290h-604v-310q66 96 148 143.5t186 47.5q186 0 305 -164q121 -168 121 -424t-121 -424q-119 -164 -305 -164q-104 0 -186 47.5t-148 143.5v-162h-321zM477 559q0 -158 55 -244q53 -84 158 -84t160 84q53 80 53 244t-53 244q-55 84 -159.5 84t-158.5 -84 q-55 -86 -55 -244z" />
<glyph unicode="&#x184;" horiz-adv-x="1402" d="M74 1104l516 389v-569h227q255 0 400 -117q131 -106 131 -346q0 -238 -131 -344q-144 -117 -400 -117h-575v924zM590 262h203q111 0 157 45q51 49 51 142q0 90 -51 139q-47 45 -157 45h-203v-371z" />
<glyph unicode="&#x185;" horiz-adv-x="1318" d="M47 1104l477 452v-600q61 94 148 144q82 47 186 47q186 0 305 -166q119 -162 119 -422q0 -262 -119 -424q-119 -164 -305 -164q-104 0 -186 47q-86 49 -148 144v-162h-321v924zM524 559q0 -162 56 -244q53 -84 157.5 -84t159.5 84q53 80 53 244t-53 244q-55 84 -159.5 84 t-157.5 -84q-56 -82 -56 -244z" />
<glyph unicode="&#x186;" horiz-adv-x="1351" d="M92 82v309q92 -72 189 -106q94 -35 198 -35q182 0 291 133q106 131 107 362q0 233 -106.5 364.5t-291.5 131.5q-104 0 -198 -35q-96 -35 -189 -106v309q100 57 199 84q100 27 217 27q334 0 530.5 -209t196.5 -565.5t-196.5 -565.5t-530.5 -209q-109 0 -217 29 q-107 29 -199 82z" />
<glyph unicode="&#x187;" horiz-adv-x="1351" d="M92 745.5q0 356.5 196.5 565.5t530.5 209q29 0 86 -4q31 150 119 237q135 139 414 139h69v-290h-53q-109 0 -164 -68t-55 -197v-237q-96 72 -190.5 106.5t-196.5 34.5q-186 0 -293 -131q-104 -129 -104 -365q0 -233 104 -362q109 -133 293 -133q102 0 196.5 34.5 t190.5 106.5v-309q-92 -53 -199 -82q-109 -29 -217 -29q-334 0 -530.5 209t-196.5 565.5z" />
<glyph unicode="&#x188;" horiz-adv-x="1091" d="M80 559q0 276 143.5 432t429.5 156q20 135 90 219q98 117 283 117h160v-236h-56q-94 0 -126 -45q-35 -47 -35 -180v-229q-66 49 -131 73q-68 25 -138 25q-135 0 -211 -88q-74 -86 -73.5 -244t73.5 -244q76 -88 211 -88q76 0 144 25q66 25 125 74v-293q-76 -31 -154 -47 q-72 -14 -156 -15q-272 0 -425.5 156t-153.5 432z" />
<glyph unicode="&#x189;" d="M31 621v260h155v612h365q305 0 457 -49q150 -49 256 -164q95 -101 141 -233q45 -129 45 -299q0 -172 -45 -302q-46 -132 -141 -233q-104 -113 -260 -164q-152 -49 -453 -49h-365v621h-155zM532 291h123q212 0 326 117q113 115 113 340q0 219 -113 337q-111 117 -326 117 h-123v-321h211v-260h-211v-330z" />
<glyph unicode="&#x18a;" horiz-adv-x="1619" d="M-127 1079v76q0 170 90 256q88 82 295 82h367q305 0 456 -49q150 -49 256 -164q95 -101 142 -233q45 -129 45 -299q0 -172 -45 -302q-46 -132 -142 -233q-104 -113 -260 -164q-152 -49 -452 -49h-367v1231h-70q-37 0 -65 -29q-18 -18 -19 -76v-47h-231zM606 291h123 q215 0 325.5 116.5t110.5 340.5q0 221 -110.5 337.5t-325.5 116.5h-123v-911z" />
<glyph unicode="&#x18b;" horiz-adv-x="1394" d="M129 467q0 252 143.5 354.5t384.5 102.5h230v278h-672v291h1018v-1493h-576q-244 0 -385 104q-143 107 -143 363zM473 449q0 -100 57 -146q53 -41 152 -41h205v371h-205q-94 0 -151.5 -41t-57.5 -143z" />
<glyph unicode="&#x18c;" horiz-adv-x="1318" d="M84 559q0 260 119 424t305 164q104 0 186 -47t148 -144v310h-604v290h927v-1556h-323v162q-70 -100 -148 -145.5t-186 -45.5q-186 0 -305 164t-119 424zM418 559q0 -164 53 -244q55 -84 157.5 -84t157.5 84q55 82 55.5 244t-55.5 244q-55 84 -157.5 84t-157.5 -84 q-53 -80 -53 -244z" />
<glyph unicode="&#x18d;" horiz-adv-x="1265" d="M80 563q0 272 147.5 428t405.5 156q260 0 407.5 -155.5t147.5 -432.5q0 -209 -148 -369q-49 -53 -104 -81q133 -80 133 -238q0 -326 -475 -326q-240 0 -367 70v240q109 -70 398 -70q154 0 153 96q0 94 -211 129q-207 33 -336 148q-151 133 -151 405zM414 563 q0 -147 63 -223q61 -74 154 -86q33 -4 78 -16q51 23 88 77q57 84 57 244q0 156 -59 246q-57 88 -160 88t-162 -90t-59 -240z" />
<glyph unicode="&#x18e;" horiz-adv-x="1257" d="M170 0v291h608v342h-555v291h555v278h-590v291h936v-1493h-954z" />
<glyph unicode="&#x18f;" horiz-adv-x="1564" d="M94 829h1018q0 160 -108 283q-111 129 -320 129q-109 0 -223 -35q-109 -33 -223 -106v309q111 57 231 84q119 27 256 27q348 0 549 -207q199 -205 199 -568q0 -367 -183 -569q-184 -205 -508 -205q-315 0 -508 205q-180 188 -180 653zM465 571q23 -119 72 -190 q88 -131 245.5 -131t245.5 131q52 77 74 190h-637z" />
<glyph unicode="&#x190;" horiz-adv-x="1280" d="M123 424q0 150 71.5 246t204.5 135q-121 35 -182 117q-61 83 -61 215q0 195 129 288q127 94 393 95q88 0 196 -17q94 -14 203 -47v-282q-92 45 -168 63q-82 20 -170 20q-113 0 -176 -47q-61 -47 -61 -133q0 -94 63.5 -139t194.5 -45h145v-248h-137q-147 0 -223 -53 t-76 -154q0 -98 74 -151q76 -53 211 -54q96 0 188 27q100 29 195 82v-297q-100 -37 -207 -55q-104 -18 -207 -19q-295 0 -447 115q-153 117 -153 338z" />
<glyph unicode="&#x191;" horiz-adv-x="1257" d="M-104 -119h55q106 0 162 68q57 70 57 196v1348h934v-291h-588v-278h553v-291h-553v-488q0 -276 -137 -417q-135 -137 -412 -138h-71v291z" />
<glyph unicode="&#x192;" horiz-adv-x="800" d="M-104 -190h178q68 0 94.5 26.5t26.5 95.5v932h-160v256h160v78q0 186 96 272q94 86 280 86h246v-235h-178q-66 0 -94 -29q-27 -27 -27 -94v-78h275v-256h-275v-932q0 -188 -96 -274q-92 -84 -281 -84h-245v236z" />
<glyph unicode="&#x193;" horiz-adv-x="1511" d="M92 745q0 362 199 568q201 207 549 207q72 0 157 -11q31 152 119 244q139 139 414 139h69v-290h-53q-109 0 -164 -68t-55 -197v-237q-121 76 -223 106q-115 35 -223 35q-209 0 -319.5 -129t-110.5 -367q0 -240 106 -366q108 -129 307 -129q39 0 101 8q43 6 84 23v290 h-211v258h538v-718q-129 -70 -268 -105q-143 -35 -289 -35q-334 0 -530.5 209t-196.5 565z" />
<glyph unicode="&#x194;" horiz-adv-x="1460" d="M4 1493h352l371 -674l383 676h352l-555 -995l88 -164q47 -92 78 -158q29 -61 53 -151q23 -80 23 -148q0 -162 -96 -235q-98 -76 -312 -76q-231 0 -327.5 69.5t-96.5 235.5q0 72 19 152q18 76 59 165q40 86 74 148l86 149zM618 -100q0 -45 35 -74q33 -27 78 -27t78 27 t33 74q0 37 -17 86q-14 45 -41 90l-53 100l-53 -100q-31 -55 -43 -90q-17 -49 -17 -86z" />
<glyph unicode="&#x195;" horiz-adv-x="1925" d="M156 0v1556h321v-600q74 98 156 144q84 47 180 47q176 0 264 -119q90 -121 90 -346v-219q0 -147 25 -201q16 -29 63 -29h19q109 0 180 97q68 88 68 229q0 113 -52 223q-39 88 -112 156v182q184 0 295 -94q72 -63 137 -190q53 -111 53 -267q0 -256 -137 -411 q-139 -158 -358 -158h-123q-182 0 -283 119q-98 120 -98 344v57q0 147 -6 203q-6 57 -21 80q-20 39 -51 55q-34 18 -74 19q-98 0 -157 -86q-57 -84 -58 -240v-551h-321z" />
<glyph unicode="&#x196;" horiz-adv-x="800" d="M170 555v938h346v-938q0 -129 55.5 -196.5t161.5 -67.5h55v-291h-69q-279 0 -414 137q-135 138 -135 418z" />
<glyph unicode="&#x197;" horiz-adv-x="716" d="M8 621v260h172v612h346v-612h183v-260h-183v-621h-346v621h-172z" />
<glyph unicode="&#x198;" horiz-adv-x="1427" d="M170 0v1493h346v-545l434 479q86 92 203 93q121 0 205 -93q82 -94 82 -225v-215h-215v113q0 29 -17 49q-23 29 -47 29q-33 0 -55 -23l-336 -369l715 -786h-434l-535 588v-588h-346z" />
<glyph unicode="&#x199;" horiz-adv-x="1224" d="M156 0v1094q0 224 98 344q100 119 283 118h251v-235h-149q-90 0 -127 -45q-35 -43 -35 -182v-385l371 411h375l-494 -514l533 -606h-392l-393 467v-467h-321z" />
<glyph unicode="&#x19a;" horiz-adv-x="663" d="M8 621v260h166v675h322v-675h159v-260h-159v-621h-322v621h-166z" />
<glyph unicode="&#x19b;" horiz-adv-x="1089" d="M-20 1257l278 97l-68 202h322l35 -102l295 100l32 -129l-284 -98l446 -1327h-321l-174 514l-164 -514h-322l314 1020l-70 209l-285 -101z" />
<glyph unicode="&#x19c;" horiz-adv-x="1918" d="M154 438v1055h323v-956q0 -6 -1 -12.5t-1 -14.5v-41q0 -113 33 -172q31 -53 100 -53q90 0 144 84q47 82 51 241v924h323v-956q0 -182 29 -240q29 -53 102 -53q96 0 144 84q49 82 49 241v924h326v-1493h-326v164q-63 -96 -135 -144q-74 -47 -170 -47q-104 0 -184 55.5 t-121 157.5q-59 -100 -148 -157q-83 -55 -184 -56q-164 0 -264 119q-90 104 -90 346z" />
<glyph unicode="&#x19d;" horiz-adv-x="1540" d="M-104 -119h55q106 0 162 68q57 70 57 196v1348h385l489 -1024v1024h328v-1493h-387l-487 1024v-879q0 -280 -136 -417q-135 -137 -413 -138h-53v291z" />
<glyph unicode="&#x19e;" horiz-adv-x="1310" d="M156 0v1120h321v-164q74 98 156 144q84 47 180 47q176 0 264 -119q90 -121 90 -346v-1108h-323v537v411q0 145 -6 201q-6 57 -21 80q-20 39 -51 55q-34 18 -74 19q-98 0 -157 -86q-57 -84 -58 -240v-551h-321z" />
<glyph unicode="&#x19f;" horiz-adv-x="1564" d="M92 745.5q0 366.5 182 569.5q184 205 508 205t508.5 -205t184.5 -569.5t-184.5 -569.5t-508 -205t-508.5 205q-182 203 -182 569.5zM453 662q12 -172 84 -281q90 -131 247 -131q156 0 246 131q72 109 84 281h-661zM465 920h637q-23 119 -72 190q-90 131 -246 131 q-158 0 -247 -131q-49 -71 -72 -190z" />
<glyph unicode="&#x1a0;" horiz-adv-x="1609" d="M1212 1241v139q68 -55 93 -67q37 -20 57 -21q34 0 55 31q23 33 23 78q0 39 -6 77q-4 33 -23 78h141q14 -90 17 -100q4 -31 4 -88q0 -119 -41 -178q-43 -61 -121 -62q-43 0 -94 29q-54 31 -105 84zM96 745.5q0 364.5 184.5 569.5t505.5 205q324 0 508.5 -205t184.5 -569.5 t-184.5 -569.5t-508.5 -205q-322 0 -506 205t-184 569.5zM455 745.5q0 -235.5 86 -364.5q88 -131 245 -131q160 0 248 131q86 129 86 364.5t-86 364.5q-88 131 -248 131q-158 0 -245 -131q-86 -129 -86 -364.5z" />
<glyph unicode="&#x1a1;" horiz-adv-x="1265" d="M944 932v139q68 -55 93 -67q37 -20 57 -21q34 0 55 31q23 33 23 78q0 39 -6 77q-4 33 -23 78h141q14 -90 17 -100q4 -31 4 -88q0 -119 -41 -178q-43 -61 -121 -62q-43 0 -94 29q-54 31 -105 84zM86 559q0 276 147.5 432t407.5 156q258 0 405.5 -155.5t147.5 -432 t-147.5 -432.5t-405.5 -156q-260 0 -407.5 156t-147.5 432zM422 559q0 -160 55 -246t164 -86q104 0 160 86q57 90 57 246t-57 246q-55 86 -160 86q-109 0 -164 -86t-55 -246z" />
<glyph unicode="&#x1a2;" horiz-adv-x="1994" d="M92 745.5q0 364.5 184.5 569.5t505.5 205q123 0 217 -27h308q279 0 413 -137q135 -138 135 -418v-938h-346v938q0 129 -55 196.5t-164 67.5v-1026q-184 -205 -508 -205q-322 0 -506 205t-184 569.5zM451 745.5q0 -235.5 86 -364.5q88 -131 245 -131q160 0 248 76v850 q-90 66 -247.5 65.5t-245.5 -131.5q-86 -129 -86 -364.5z" />
<glyph unicode="&#x1a3;" horiz-adv-x="1679" d="M80 559q0 276 147.5 432t407.5 156q111 0 196 -27h314q182 0 280 -119q98 -120 99 -344v-1099h-324v1099q0 137 -32.5 182.5t-127.5 45.5v-758q-143 -156 -405 -156q-260 0 -407.5 156t-147.5 432zM416 559q0 -160 55 -246t163.5 -86t162.5 45v568q-53 51 -162 51 t-164 -86t-55 -246z" />
<glyph unicode="&#x1a4;" horiz-adv-x="1439" d="M-127 1079v76q0 172 86 254q88 84 256 84h619q256 0 395 -127q137 -125 137 -360.5t-137 -360.5q-139 -127 -395 -127h-228v-518h-348v1231h-31q-74 0 -98.5 -24.5t-24.5 -100.5v-27h-231zM606 797h191q100 0 155.5 55t55.5 153.5t-55.5 153.5t-155.5 55h-191v-417z" />
<glyph unicode="&#x1a5;" horiz-adv-x="1318" d="M156 -426v1624q0 186 90 270q94 88 284 88h248v-235h-180q-68 0 -94.5 -26.5t-26.5 -96.5v-242q66 96 148 143.5t186 47.5q186 0 305 -164q121 -168 121 -424t-121 -424q-119 -164 -305 -164q-104 0 -186 47.5t-148 143.5v-588h-321zM477 559q0 -158 55 -244 q53 -84 158 -84t160 84q53 80 53 244t-53 244q-55 84 -159.5 84t-158.5 -84q-55 -86 -55 -244z" />
<glyph unicode="&#x1a6;" horiz-adv-x="1417" d="M170 0v1493h346v-258h182q266 0 389 -98.5t123 -313.5q0 -150 -63 -243q-61 -92 -195 -140q76 -20 129 -82q53 -63 113 -192l207 -465h-371l-180 412q-51 117 -100 153q-53 41 -136 41h-98v-307h-346zM516 573h146q111 0 155 45q47 47 47 148q0 102 -47 145 q-49 45 -155 45h-146v-383z" />
<glyph unicode="&#x1a7;" horiz-adv-x="1325" d="M47 459q0 188 96.5 290.5t317.5 151.5l147 33q106 25 146 57q41 35 41 94q0 80 -60 117q-61 39 -184 39q-90 0 -199 -29q-113 -31 -217 -82v316q125 37 244 55q117 18 227 19q246 0 373 -119q129 -120 129 -344q0 -178 -92 -283q-92 -104 -295 -153l-135 -33 q-121 -31 -162 -68t-41 -108q0 -78 59 -119q61 -43 174 -43q104 0 232 39q125 41 248 114v-325q-131 -53 -256 -80t-258 -27q-268 0 -401.5 121t-133.5 367z" />
<glyph unicode="&#x1a8;" horiz-adv-x="1095" d="M29 330q0 174 84 252q86 80 333 114l58 9q86 12 121 34q33 20 32 66q0 55 -43 80q-45 25 -137 24q-88 0 -182 -24q-106 -29 -201 -72v272q127 33 215 48q92 14 187 14q225 0 335.5 -86t110.5 -264q0 -166 -86 -246t-301 -111l-57 -8q-90 -12 -131 -37q-33 -25 -33 -71 q0 -57 47 -86t143 -29q94 0 205 27q102 25 199 77v-272q-121 -37 -221 -53q-96 -16 -205 -17q-233 0 -355 90q-118 89 -118 269z" />
<glyph unicode="&#x1a9;" horiz-adv-x="1257" d="M170 0v322l428 473l-428 391v307h934v-291h-604l444 -403l-459 -508h639v-291h-954z" />
<glyph unicode="&#x1aa;" horiz-adv-x="1015" d="M-57 1245q0 311 309 311h102q166 0 281 -120q94 -100 94 -256h156v-211h-152v-1055q0 -70 26.5 -96.5t94.5 -26.5h178v-235h-246q-195 0 -284 88q-92 86 -92 270v1055h-189q-278 0 -278 276zM127 1253q0 -74 96 -73h183q-10 70 -29 94q-33 45 -127 45h-37q-86 0 -86 -66z " />
<glyph unicode="&#x1ab;" horiz-adv-x="880" d="M25 864v256h159v318h324v-318h332v-256h-332v-475q0 -78 27 -104q29 -29 110 -29h166v-256q-6 -213 -96 -324q-100 -119 -283 -118h-160v235h56q94 0 126.5 45t34.5 162q-156 10 -225 88q-80 89 -80 301v475h-159z" />
<glyph unicode="&#x1ac;" horiz-adv-x="1300" d="M27 973v176q0 178 86 262q88 82 278 82h901v-291h-444v-1202h-348v1202h-2q-135 0 -180.5 -39t-45.5 -141v-49h-245z" />
<glyph unicode="&#x1ad;" horiz-adv-x="880" d="M25 864v256h159v78q0 184 92 270q94 88 285 88h246v-235h-178q-68 0 -94.5 -26.5t-26.5 -96.5v-78h332v-256h-332v-475q0 -80 26.5 -106.5t110.5 -26.5h166v-256h-276q-190 0 -271 88q-80 89 -80 301v475h-159z" />
<glyph unicode="&#x1ae;" horiz-adv-x="1255" d="M8 1202v291h1239v-291h-444v-1057q0 -129 55 -196.5t164 -67.5h53v-291h-71q-276 0 -412 138q-137 141 -137 417v1057h-447z" />
<glyph unicode="&#x1af;" horiz-adv-x="1538" d="M1175 1241v139q68 -55 93 -67q37 -20 57 -21q34 0 55 31q23 33 23 78q0 39 -6 77q-4 33 -23 78h141q14 -90 17 -100q4 -31 4 -88q0 -119 -41 -178q-43 -61 -121 -62q-43 0 -94 29q-54 31 -105 84zM170 598v895h346v-895q0 -184 55.5 -264t176.5 -80q123 0 178 80t55 264 v895h346v-895q0 -319 -143 -471q-145 -156 -436 -156t-437 156q-141 149 -141 471z" />
<glyph unicode="&#x1b0;" horiz-adv-x="1310" d="M991 932v139q68 -55 93 -67q37 -20 57 -21q34 0 55 31q23 33 23 78q0 39 -6 77q-4 33 -23 78h141q14 -90 17 -100q4 -31 4 -88q0 -119 -41 -178q-43 -61 -121 -62q-43 0 -94 29q-54 31 -105 84zM139 436v684h326v-112q0 -27 -1 -103t-1 -125v-184q0 -137 6 -195 q6 -61 21 -86q25 -37 53 -55q31 -18 71 -18q101 0 160 86q57 84 58 239v553h321v-1120h-321v162q-74 -98 -156 -144q-84 -47 -178 -47q-174 0 -266.5 119t-92.5 346z" />
<glyph unicode="&#x1b1;" horiz-adv-x="1564" d="M49 1200v291h617v-311q-98 -72 -158 -199q-57 -123 -57 -279q0 -193 86 -321q88 -131 245.5 -131t245.5 131t88 321q0 156 -57 279q-57 125 -160 199v311h617v-291h-277q137 -100 186 -227q49 -129 50 -281q0 -310 -185 -516q-184 -205 -508 -205q-322 0 -506 205 q-184 206 -184 516q0 152 49 281t185 227h-277z" />
<glyph unicode="&#x1b2;" horiz-adv-x="1497" d="M170 555v938h346v-938q0 -129 55 -197t162 -67h55q160 0 252 117q106 133 107 268q0 201 -62 297q-102 160 -254 256v145h244q170 -137 293 -409q55 -123 55 -303q0 -252 -184 -449q-197 -213 -451 -213h-69q-279 0 -414 137q-135 135 -135 418z" />
<glyph unicode="&#x1b3;" horiz-adv-x="1468" d="M-18 1493h378l308 -532l196 342q125 217 318 217q120 0 202 -93q82 -94 82 -225v-215h-215v70q0 31 -14 47q-25 29 -47 29q-51 0 -94 -72l-254 -432v-629h-348v629z" />
<glyph unicode="&#x1b4;" horiz-adv-x="1433" d="M23 1120h321l272 -760l170 564q68 223 312 223q90 0 168 -49q76 -47 123 -137q47 -88 47 -189v-127h-219v62q0 34 -13 61q-14 31 -33 45q-23 16 -47 16q-23 0 -45 -18q-27 -23 -32 -43l-5.5 -16.5t-5.5 -14.5l-293 -843q-66 -188 -147 -263q-86 -74 -225 -73h-187v235 h101q82 0 121 29q35 27 57 104l8 31z" />
<glyph unicode="&#x1b5;" horiz-adv-x="1335" d="M84 0v233l289 388h-162v260h354l240 321h-701v291h1129v-233l-283 -379h176v-260h-368l-246 -330h741v-291h-1169z" />
<glyph unicode="&#x1b6;" horiz-adv-x="1071" d="M84 0v250l182 211h-106v221h297l157 182h-510v256h881v-250l-164 -188h113v-221h-303l-176 -205h530v-256h-901z" />
<glyph unicode="&#x1b7;" horiz-adv-x="1421" d="M133 1202v291h1100v-250l-346 -434q123 -12 192 -33q117 -35 193 -143q70 -102 69 -248q0 -221 -153 -338q-156 -115 -479 -115q-139 0 -281 31q-133 31 -274 92v289q145 -76 278 -111q145 -39 275 -38q139 0 215 53q72 53 71 151q0 104 -73 156q-76 51 -222 51h-170v246 l277 350h-672z" />
</font>
</defs>
</svg>
