<?xml version="1.0" standalone="no"?>
<!DOCTYPE svg PUBLIC "-//W3C//DTD SVG 1.1//EN" "http://www.w3.org/Graphics/SVG/1.1/DTD/svg11.dtd" >
<svg xmlns="http://www.w3.org/2000/svg">
<metadata>
This is a custom SVG webfont generated by Font Squirrel.
Copyright   : Copyright c 2003 by Bitstream Inc All Rights ReservedCopyright c 2006 by Tavmjong Bah All Rights ReservedDejaVu changes are in public domain
Foundry     : DejaVu fonts team
Foundry URL : httpdejavusourceforgenet
</metadata>
<defs>
<font id="webfontf6JJuq6z" horiz-adv-x="1542" >
<font-face units-per-em="2048" ascent="1556" descent="-492" />
<missing-glyph horiz-adv-x="583" />
<glyph unicode="&#xfb00;" horiz-adv-x="1267" d="M43 977v143h158v78q0 184 78 272q78 86 247 86h158v-153h-158q-92 0 -125 -39q-35 -41 -34 -145v-99h454v78q0 184 78 272q76 86 250 86h156v-153h-158q-90 0 -123 -39q-37 -43 -37 -145v-99h275v-143h-275v-977h-166v977h-454v-977h-166v977h-158z" />
<glyph unicode="&#xfb01;" horiz-adv-x="1159" d="M43 977v143h158v78q0 182 77.5 270t239.5 88h166v-153h-158q-92 0 -125 -39q-35 -41 -34 -145v-99h620v-1120h-166v977h-454v-977h-166v977h-158zM821 1321v233h166v-233h-166z" />
<glyph unicode="&#xfb02;" horiz-adv-x="1159" d="M43 977v143h158v78q0 184 78 272q78 86 247 86h461v-1556h-166v1403h-295q-92 0 -125 -39q-35 -41 -34 -145v-99h272v-143h-272v-977h-166v977h-158z" />
<glyph unicode="&#xfb03;" horiz-adv-x="1781" d="M43 977v143h158v78q0 184 78 272q78 86 247 86h158v-153h-158q-92 0 -125 -39q-35 -41 -34 -145v-99h454v78q0 184 78 272q23 27 62 48q70 39 188 38h156v-153h-158q-90 0 -123 -39q-37 -43 -37 -145v-99h623v-1120h-166v977h-457v-977h-166v977h-454v-977h-166v977h-158 zM1444 1321v233h166v-233h-166z" />
<glyph unicode="&#xfb04;" horiz-adv-x="1781" d="M43 977v143h158v78q0 184 78 272q78 86 247 86h158v-153h-158q-92 0 -125 -39q-35 -41 -34 -145v-99h454v78q0 184 78 272q76 86 250 86h461v-1556h-166v1403h-297q-90 0 -123 -39q-37 -43 -37 -145v-99h275v-143h-275v-977h-166v977h-454v-977h-166v977h-158z" />
<glyph unicode="&#xfedf;&#xfe82;" horiz-adv-x="1050" arabic-form="isolated" d="M76 1409h162l383 -958q25 43 43 98q35 143 34 321v686h164v-722q0 -301 -125 -519q-45 -78 -119 -155q-182 -180 -325 -180q-92 0 -164 32v185q92 -33 164 -33q100 0 223 151zM-189 1507v125l144 123q88 -80 153 -102q43 -14 86 -15q49 0 88 17q94 39 176 117v-125 q-84 -66 -161 -93q-63 -23 -109 -22q-39 0 -98 16q-72 20 -131 88z" />
<glyph unicode="&#xfee0;&#xfe82;" horiz-adv-x="1097" arabic-form="final" d="M76 1409h162l383 -958q25 43 43 98q35 143 34 321v686h164v-956q0 -170 33 -258q59 -158 129 -158h94v-184h-117q-158 0 -249 244q-14 37 -15 71q-49 -86 -119 -155q-180 -180 -325 -180q-92 0 -164 32v185q92 -33 164 -33q100 0 223 151zM-189 1507v125l144 123 q88 -80 153 -102q43 -14 86 -15q49 0 88 17q94 39 176 117v-125q-84 -66 -161 -93q-63 -23 -109 -22q-39 0 -98 16q-72 20 -131 88z" />
<glyph unicode="&#xfedf;&#xfe84;" horiz-adv-x="1050" arabic-form="isolated" d="M76 1409h162l383 -958q25 43 43 98q35 143 34 321v686h164v-722q0 -301 -125 -519q-45 -78 -119 -155q-182 -180 -325 -180q-92 0 -164 32v185q92 -33 164 -33q100 0 223 151zM-22 1513v101l69 18q-39 20 -53 55t-14 82q0 96 49 139q51 45 135 45q57 0 102 -32v-101 q-45 33 -102 33q-61 0 -76 -16q-25 -31 -24 -60q0 -76 84 -102q29 -10 137 18v-102z" />
<glyph unicode="&#xfee0;&#xfe84;" horiz-adv-x="1097" arabic-form="final" d="M76 1409h162l383 -958q25 43 43 98q35 143 34 321v686h164v-956q0 -170 33 -258q59 -158 129 -158h94v-184h-117q-158 0 -249 244q-14 37 -15 71q-49 -86 -119 -155q-180 -180 -325 -180q-92 0 -164 32v185q92 -33 164 -33q100 0 223 151zM-22 1513v101l69 18 q-39 20 -53 55t-14 82q0 96 49 139q51 45 135 45q57 0 102 -32v-101q-45 33 -102 33q-61 0 -76 -16q-25 -31 -24 -60q0 -76 84 -102q29 -10 137 18v-102z" />
<glyph unicode="&#xfedf;&#xfe88;" horiz-adv-x="1050" arabic-form="isolated" d="M76 1409h162l383 -958q25 43 43 98q35 143 34 321v686h164v-722q0 -301 -125 -519q-45 -78 -119 -155q-182 -180 -325 -180q-92 0 -164 32v185q92 -33 164 -33q100 0 223 151zM23 -502v101l69 18q-39 20 -53 55t-14 82q0 96 49 139q51 45 135 45q57 0 102 -32v-101 q-45 33 -102 33q-61 0 -76 -16q-25 -31 -24 -60q0 -76 84 -102q29 -10 137 18v-102z" />
<glyph unicode="&#xfee0;&#xfe88;" horiz-adv-x="1097" arabic-form="final" d="M76 1409h162l383 -958q25 43 43 98q35 143 34 321v686h164v-956q0 -170 33 -258q59 -158 129 -158h94v-184h-117q-158 0 -249 244q-14 37 -15 71q-49 -86 -119 -155q-180 -180 -325 -180q-92 0 -164 32v185q92 -33 164 -33q100 0 223 151zM23 -502v101l69 18 q-39 20 -53 55t-14 82q0 96 49 139q51 45 135 45q57 0 102 -32v-101q-45 33 -102 33q-61 0 -76 -16q-25 -31 -24 -60q0 -76 84 -102q29 -10 137 18v-102z" />
<glyph unicode="&#xfedf;&#xfe8e;" horiz-adv-x="1050" arabic-form="isolated" d="M76 1409h162l383 -958q25 43 43 98q35 143 34 321v686h164v-722q0 -301 -125 -519q-45 -78 -119 -155q-182 -180 -325 -180q-92 0 -164 32v185q92 -33 164 -33q100 0 223 151z" />
<glyph unicode="&#xfee0;&#xfe8e;" horiz-adv-x="1097" arabic-form="final" d="M76 1409h162l383 -958q25 43 43 98q35 143 34 321v686h164v-956q0 -170 33 -258q59 -158 129 -158h94v-184h-117q-158 0 -249 244q-14 37 -15 71q-49 -86 -119 -155q-180 -180 -325 -180q-92 0 -164 32v185q92 -33 164 -33q100 0 223 151z" />
<glyph unicode="&#x66e;" horiz-adv-x="512" d="M-18 0v184h32q88 0 127 43q45 51 45 156v217h166v-217q0 -184 -84 -297q-63 -86 -205 -86h-81z" />
<glyph unicode="&#x66e;" horiz-adv-x="555" d="M-18 0v184h32q88 0 127 43q45 51 45 156v217h166v-217q0 -106 43 -156q40 -43 129 -43h49v-184h-98q-135 0 -207 86q-68 -86 -205 -86h-81z" />
<glyph unicode="&#x66e;" horiz-adv-x="1808" d="M117 383q0 139 57 229h166q-59 -96 -59 -229q0 -125 184 -193q90 -33 227 -32q244 4 406 55q178 57 291 168q53 53 53 172q0 57 -27 117h164q18 -74 18 -166q0 -207 64 -266q59 -53 113 -54h55v-184h-92q-102 0 -168 74q-74 86 -94 147q-135 -129 -351 -182 q-238 -59 -422 -59q-172 0 -288 38q-297 103 -297 365z" />
<glyph unicode="&#x66f;" horiz-adv-x="880" d="M-18 0v184h217q70 0 211 23q72 12 127 104q23 41 41 99q-57 -53 -146 -58q-113 -2 -186 68q-88 86 -88 217q0 37 8 94q23 152 153 217q70 37 140 37q82 0 139 -49q90 -74 129 -174q20 -49 21 -193q0 -209 -70 -350q-70 -137 -178 -180q-96 -39 -230 -39h-288zM328 655 q0 -78 51 -116q39 -27 74 -27q65 0 86 25q37 43 36 120q0 57 -59 111q-25 23 -67 23q-47 0 -84 -43q-37 -41 -37 -93z" />
<glyph unicode="&#x66f;" horiz-adv-x="931" d="M-18 0v184h114q137 0 168 17q-29 45 -59 116q-18 46 -19 123q0 49 9 92q20 143 186 230q27 14 86 14q57 0 86 -14q166 -82 186 -230q6 -49 6 -92q0 -74 -18 -123q-23 -59 -57 -116q31 -16 166 -17h114v-184h-194q-125 0 -289 57q-164 -57 -291 -57h-194zM356 446 q0 -47 21 -96q29 -68 90 -90q57 20 88 90q23 51 23 96q0 25 -11 52q-20 51 -71 84q-20 10 -29 10q-10 0 -31 -10q-49 -31 -71 -84q-9 -19 -9 -52z" />
<glyph unicode="&#x66f;" horiz-adv-x="1536" d="M96 -45q0 168 56 262h165q-55 -106 -55 -262q0 -74 25 -133q55 -131 288 -131q127 0 263 67q193 98 249 252q-59 6 -102 19q-106 33 -160 77q-131 106 -131 293q0 72 4 88q37 166 170 234q37 18 115 18q102 0 152 -49q86 -86 133 -233q18 -59 24 -273h27h235v-184h-239 h-43q-39 -119 -96 -193q-117 -147 -258 -223q-154 -84 -343 -84q-332 4 -417 193q-62 139 -62 262zM860 397q0 -61 53 -104q68 -57 158 -80q16 -4 33.5 -7t21.5 -3q4 131 -16 209q-20 80 -59 110q-31 25 -66 25q-29 0 -49 -10q-49 -29 -66 -84q-10 -36 -10 -56z" />
<glyph unicode="&#x67c;" horiz-adv-x="512" d="M-18 0v184h32q88 0 127 43q45 51 45 156v217h166v-217q0 -184 -84 -297q-63 -86 -205 -86h-81zM88 850v150h135v-150h-135zM313 850v150h135v-150h-135zM72 -49q0 94 57 158q53 61 139.5 61t141.5 -61q55 -66 55 -158t-55 -156q-57 -63 -141 -63t-140 63q-57 64 -57 156z M183 -49q0 -43 24.5 -69.5t61 -26.5t61.5 29q27 31 27 67q0 39 -27 70q-25 29 -61.5 28.5t-61.5 -28.5q-24 -27 -24 -70z" />
<glyph unicode="&#x67c;" horiz-adv-x="555" d="M-18 0v184h32q88 0 127 43q45 51 45 156v217h166v-217q0 -106 43 -156q40 -43 129 -43h49v-184h-98q-135 0 -207 86q-68 -86 -205 -86h-81zM88 850v150h135v-150h-135zM313 850v150h135v-150h-135zM72 -49q0 94 57 158q53 61 139.5 61t141.5 -61q55 -66 55 -158t-55 -156 q-57 -63 -141 -63t-140 63q-57 64 -57 156zM183 -49q0 -43 24.5 -69.5t61 -26.5t61.5 29q27 31 27 67q0 39 -27 70q-25 29 -61.5 28.5t-61.5 -28.5q-24 -27 -24 -70z" />
<glyph unicode="&#x67c;" horiz-adv-x="1808" d="M631 649v150h135v-150h-135zM856 649v150h135v-150h-135zM612 -150q0 94 57 158q53 61 139.5 61t141.5 -61q55 -66 55 -158t-55 -156q-57 -63 -141 -63t-140 63q-57 64 -57 156zM723 -150q0 -43 24.5 -69.5t61 -26.5t61.5 29q27 31 27 67q0 39 -27 70q-25 29 -61.5 28.5 t-61.5 -28.5q-24 -27 -24 -70zM117 383q0 139 57 229h166q-59 -96 -59 -229q0 -125 184 -193q90 -33 227 -32q244 4 406 55q178 57 291 168q53 53 53 172q0 57 -27 117h164q18 -74 18 -166q0 -207 64 -266q59 -53 113 -54h55v-184h-92q-102 0 -168 74q-74 86 -94 147 q-135 -129 -351 -182q-238 -59 -422 -59q-172 0 -288 38q-297 103 -297 365z" />
<glyph unicode="&#x67d;" horiz-adv-x="512" d="M-18 0v184h32q88 0 127 43q45 51 45 156v217h166v-217q0 -184 -84 -297q-63 -86 -205 -86h-81zM88 1100v150h135v-150h-135zM201 1000h135v-150h-135v150zM313 1100v150h135v-150h-135z" />
<glyph unicode="&#x67d;" horiz-adv-x="555" d="M-18 0v184h32q88 0 127 43q45 51 45 156v217h166v-217q0 -106 43 -156q40 -43 129 -43h49v-184h-98q-135 0 -207 86q-68 -86 -205 -86h-81zM88 1100v150h135v-150h-135zM201 1000h135v-150h-135v150zM313 1100v150h135v-150h-135z" />
<glyph unicode="&#x67d;" horiz-adv-x="1808" d="M631 801v150h135v-150h-135zM744 701h135v-150h-135v150zM856 801v150h135v-150h-135zM117 383q0 139 57 229h166q-59 -96 -59 -229q0 -125 184 -193q90 -33 227 -32q244 4 406 55q178 57 291 168q53 53 53 172q0 57 -27 117h164q18 -74 18 -166q0 -207 64 -266 q59 -53 113 -54h55v-184h-92q-102 0 -168 74q-74 86 -94 147q-135 -129 -351 -182q-238 -59 -422 -59q-172 0 -288 38q-297 103 -297 365z" />
<glyph unicode="&#x681;" horiz-adv-x="1138" d="M-18 0v184h90q201 0 319 72q98 59 199 164q88 88 176 121q-135 39 -168 47q-86 20 -238 35q-74 6 -219 0v184q86 8 133 8q141 0 299 -35q238 -53 431 -149v-156q-72 -27 -148 -76q-147 -96 -215 -163q-131 -127 -199 -156q-201 -80 -346 -80h-114zM384 915v101l69 18 q-39 20 -53 55t-14 82q0 96 49 139q51 45 135 45q57 0 102 -32v-101q-45 33 -102 33q-61 0 -76 -16q-25 -31 -24 -60q0 -76 84 -102q29 -10 137 18v-102z" />
<glyph unicode="&#x681;" horiz-adv-x="1187" d="M-18 0v184h90q201 0 319 72q98 59 199 164q88 88 176 121q-135 39 -168 47q-86 20 -238 35q-74 6 -219 0v184q86 8 133 8q141 0 299 -35q238 -53 431 -149v-156q-66 -25 -123 -59q57 -94 71 -113q94 -119 197 -119h59v-184h-78q-188 0 -301 168q-47 72 -90 151 q-57 -43 -98 -83q-131 -127 -199 -156q-201 -80 -346 -80h-114zM384 915v101l69 18q-39 20 -53 55t-14 82q0 96 49 139q51 45 135 45q57 0 102 -32v-101q-45 33 -102 33q-61 0 -76 -16q-25 -31 -24 -60q0 -76 84 -102q29 -10 137 18v-102z" />
<glyph unicode="&#x681;" horiz-adv-x="1187" d="M141 623v184q242 63 418 63q264 0 445 -55v-153q-98 0 -125 -13l24 -92q45 -154 113 -254q80 -119 155 -119h37v-184h-45q-115 0 -225 150q-76 102 -129 256l-72 192q-102 -25 -190 -102q-203 -186 -203 -437q0 -129 68 -229q119 -166 411 -166q170 0 365 119v-184 q-135 -98 -361 -99q-377 0 -528 195q-117 150 -117 373q0 256 191 481q86 101 209 153h-23q-72 0 -211 -20q-119 -18 -207 -59zM429 1013v101l69 18q-39 20 -53 55t-14 82q0 96 49 139q51 45 135 45q57 0 102 -32v-101q-45 33 -102 33q-61 0 -76 -16q-25 -31 -24 -60 q0 -76 84 -102q29 -10 137 18v-102z" />
<glyph unicode="&#x682;" horiz-adv-x="1138" d="M-18 0v184h90q201 0 319 72q98 59 199 164q88 88 176 121q-135 39 -168 47q-86 20 -238 35q-74 6 -219 0v184q86 8 133 8q141 0 299 -35q238 -53 431 -149v-156q-72 -27 -148 -76q-147 -96 -215 -163q-131 -127 -199 -156q-201 -80 -346 -80h-114zM471 1200v150h135v-150 h-135zM471 1100h135v-150h-135v150z" />
<glyph unicode="&#x682;" horiz-adv-x="1187" d="M-18 0v184h90q201 0 319 72q98 59 199 164q88 88 176 121q-135 39 -168 47q-86 20 -238 35q-74 6 -219 0v184q86 8 133 8q141 0 299 -35q238 -53 431 -149v-156q-66 -25 -123 -59q57 -94 71 -113q94 -119 197 -119h59v-184h-78q-188 0 -301 168q-47 72 -90 151 q-57 -43 -98 -83q-131 -127 -199 -156q-201 -80 -346 -80h-114zM471 1200v150h135v-150h-135zM471 1100h135v-150h-135v150z" />
<glyph unicode="&#x682;" horiz-adv-x="1187" d="M141 623v184q242 63 418 63q264 0 445 -55v-153q-98 0 -125 -13l24 -92q45 -154 113 -254q80 -119 155 -119h37v-184h-45q-115 0 -225 150q-76 102 -129 256l-72 192q-102 -25 -190 -102q-203 -186 -203 -437q0 -129 68 -229q119 -166 411 -166q170 0 365 119v-184 q-135 -98 -361 -99q-377 0 -528 195q-117 150 -117 373q0 256 191 481q86 101 209 153h-23q-72 0 -211 -20q-119 -18 -207 -59zM518 1300v150h135v-150h-135zM518 1200h135v-150h-135v150z" />
<glyph unicode="&#x685;" horiz-adv-x="1138" d="M-18 0v184h90q201 0 319 72q98 59 199 164q88 88 176 121q-135 39 -168 47q-86 20 -238 35q-74 6 -219 0v184q86 8 133 8q141 0 299 -35q238 -53 431 -149v-156q-72 -27 -148 -76q-147 -96 -215 -163q-131 -127 -199 -156q-201 -80 -346 -80h-114zM360 950v150h135v-150 h-135zM473 1200v149h135v-149h-135zM585 950v150h135v-150h-135z" />
<glyph unicode="&#x685;" horiz-adv-x="1187" d="M-18 0v184h90q201 0 319 72q98 59 199 164q88 88 176 121q-135 39 -168 47q-86 20 -238 35q-74 6 -219 0v184q86 8 133 8q141 0 299 -35q238 -53 431 -149v-156q-66 -25 -123 -59q57 -94 71 -113q94 -119 197 -119h59v-184h-78q-188 0 -301 168q-47 72 -90 151 q-57 -43 -98 -83q-131 -127 -199 -156q-201 -80 -346 -80h-114zM360 950v150h135v-150h-135zM473 1200v149h135v-149h-135zM585 950v150h135v-150h-135z" />
<glyph unicode="&#x685;" horiz-adv-x="1187" d="M141 623v184q242 63 418 63q264 0 445 -55v-153q-98 0 -125 -13l24 -92q45 -154 113 -254q80 -119 155 -119h37v-184h-45q-115 0 -225 150q-76 102 -129 256l-72 192q-102 -25 -190 -102q-203 -186 -203 -437q0 -129 68 -229q119 -166 411 -166q170 0 365 119v-184 q-135 -98 -361 -99q-377 0 -528 195q-117 150 -117 373q0 256 191 481q86 101 209 153h-23q-72 0 -211 -20q-119 -18 -207 -59zM406 1051v150h135v-150h-135zM519 1301v149h135v-149h-135zM631 1051v150h135v-150h-135z" />
<glyph unicode="&#x692;" horiz-adv-x="1015" d="M389 1136h125l117 -194l117 194h124l-176 -325h-133zM-76 -315q274 0 457 127q197 139 227 346q8 51 8 131q0 125 -47 262h164q27 -109 31 -143q8 -100 76 -181q37 -43 129 -43h65v-184h-116q-115 0 -162 61q-61 -279 -287 -409q-256 -152 -545 -152v185z" />
<glyph unicode="&#x695;" horiz-adv-x="1124" d="M-76 -315q274 0 457 127q197 139 227 346q8 51 8 131q0 125 -47 262h164q27 -109 31 -143q8 -100 76 -181q37 -43 129 -43h174v-184h-225q-115 0 -162 61q-61 -279 -287 -409q-256 -152 -545 -152v185zM686 -174h125l117 -194l117 194h124l-176 -325h-133z" />
<glyph unicode="&#x6a1;" horiz-adv-x="880" d="M-18 0v184h217q70 0 211 23q72 12 127 104q23 41 41 99q-57 -53 -146 -58q-113 -2 -186 68q-88 86 -88 217q0 37 8 94q23 152 153 217q70 37 140 37q82 0 139 -49q90 -74 129 -174q20 -49 21 -193q0 -209 -70 -350q-70 -137 -178 -180q-96 -39 -230 -39h-288zM328 655 q0 -78 51 -116q39 -27 74 -27q65 0 86 25q37 43 36 120q0 57 -59 111q-25 23 -67 23q-47 0 -84 -43q-37 -41 -37 -93z" />
<glyph unicode="&#x6a1;" horiz-adv-x="931" d="M-18 0v184h114q137 0 168 17q-29 45 -59 116q-18 46 -19 123q0 49 9 92q20 143 186 230q27 14 86 14q57 0 86 -14q166 -82 186 -230q6 -49 6 -92q0 -74 -18 -123q-23 -59 -57 -116q31 -16 166 -17h114v-184h-194q-125 0 -289 57q-164 -57 -291 -57h-194zM356 446 q0 -47 21 -96q29 -68 90 -90q57 20 88 90q23 51 23 96q0 25 -11 52q-20 51 -71 84q-20 10 -29 10q-10 0 -31 -10q-49 -31 -71 -84q-9 -19 -9 -52z" />
<glyph unicode="&#x6a1;" horiz-adv-x="1906" d="M117 313q0 141 57 232h166q-59 -96 -59 -232q0 -114 184 -190q76 -33 342 -33q207 0 465 55l24 5q-37 33 -57 69q-74 123 -74 246q0 18 4 67q23 158 189 230q55 23 98 22q74 0 148 -49q125 -84 139 -233q4 -49 4 -68q0 -141 -72 -250h15h235v-184h-239q-92 0 -195 37 q-90 -41 -193 -68q-244 -59 -497 -59q-279 0 -387 39q-297 104 -297 364zM1335 461q0 -59 37 -123q43 -76 119 -115q92 61 92 187q0 10 -4 47q-12 70 -59 110q-31 25 -66 25q-18 0 -43 -10q-53 -25 -72 -84q-4 -12 -4 -37z" />
<glyph unicode="&#x6b5;" horiz-adv-x="559" d="M63 1986h125l117 -194l117 194h124l-176 -325h-133zM-18 0v184h67q89 0 129 43q43 49 43 156v1173h166v-1185q0 -176 -78 -279q-72 -92 -211 -92h-116z" />
<glyph unicode="&#x6b5;" horiz-adv-x="608" d="M63 1986h125l117 -194l117 194h124l-176 -325h-133zM-18 0v184h67q89 0 129 43q43 49 43 156v1173h166v-1173q0 -104 45 -156q40 -43 129 -43h68v-184h-117q-135 0 -207 86q-68 -86 -207 -86h-116z" />
<glyph unicode="&#x6b5;" horiz-adv-x="1394" d="M850 1986h125l117 -194l117 194h124l-176 -325h-133zM129 76q0 139 57 229h166q-59 -115 -59 -229q0 -129 149 -193q39 -16 103 -16q70 0 170 35q156 51 223 172q70 125 70 352v1130h166v-1173q0 -104 45 -156q39 -43 127 -43h67v-184h-117q-100 0 -170 51 q-14 -43 -41 -86q-109 -178 -344 -244q-117 -33 -196 -32q-92 0 -152 20q-264 93 -264 367z" />
<glyph unicode="&#x6ba;" horiz-adv-x="512" d="M-18 0v184h32q88 0 127 43q45 51 45 156v217h166v-217q0 -184 -84 -297q-63 -86 -205 -86h-81zM203 850v150h135v-150h-135z" />
<glyph unicode="&#x6ba;" horiz-adv-x="555" d="M-18 0v184h32q88 0 127 43q45 51 45 156v217h166v-217q0 -106 43 -156q40 -43 129 -43h49v-184h-98q-135 0 -207 86q-68 -86 -205 -86h-81zM203 850v150h135v-150h-135z" />
<glyph unicode="&#x6bf;" horiz-adv-x="1138" d="M-18 0v184h90q201 0 319 72q98 59 199 164q88 88 176 121q-135 39 -168 47q-86 20 -238 35q-74 6 -219 0v184q86 8 133 8q141 0 299 -35q238 -53 431 -149v-156q-72 -27 -148 -76q-147 -96 -215 -163q-131 -127 -199 -156q-201 -80 -346 -80h-114zM360 -201v150h135v-150 h-135zM473 -301h135v-150h-135v150zM585 -201v150h135v-150h-135zM471 950v150h135v-150h-135z" />
<glyph unicode="&#x6bf;" horiz-adv-x="1187" d="M-18 0v184h90q201 0 319 72q98 59 199 164q88 88 176 121q-135 39 -168 47q-86 20 -238 35q-74 6 -219 0v184q86 8 133 8q141 0 299 -35q238 -53 431 -149v-156q-66 -25 -123 -59q57 -94 71 -113q94 -119 197 -119h59v-184h-78q-188 0 -301 168q-47 72 -90 151 q-57 -43 -98 -83q-131 -127 -199 -156q-201 -80 -346 -80h-114zM371 -201v150h135v-150h-135zM484 -301h135v-150h-135v150zM596 -201v150h135v-150h-135zM471 950v150h135v-150h-135z" />
<glyph unicode="&#x6bf;" horiz-adv-x="1187" d="M141 623v184q242 63 418 63q264 0 445 -55v-153q-98 0 -125 -13l24 -92q45 -154 113 -254q80 -119 155 -119h37v-184h-45q-115 0 -225 150q-76 102 -129 256l-72 192q-102 -25 -190 -102q-203 -186 -203 -437q0 -129 68 -229q119 -166 411 -166q170 0 365 119v-184 q-135 -98 -361 -99q-377 0 -528 195q-117 150 -117 373q0 256 191 481q86 101 209 153h-23q-72 0 -211 -20q-119 -18 -207 -59zM518 1051v150h135v-150h-135zM438 25v150h135v-150h-135zM551 -75h135v-150h-135v150zM663 25v150h135v-150h-135z" />
<glyph unicode="&#x6ce;" horiz-adv-x="512" d="M26 1087h125l117 -194l117 194h124l-176 -325h-133zM88 -299v150h135v-150h-135zM313 -299v150h135v-150h-135zM-18 0v184h32q88 0 127 43q45 51 45 156v217h166v-217q0 -184 -84 -297q-63 -86 -205 -86h-81z" />
<glyph unicode="&#x6ce;" horiz-adv-x="555" d="M26 1087h125l117 -194l117 194h124l-176 -325h-133zM88 -299v150h135v-150h-135zM313 -299v150h135v-150h-135zM-18 0v184h32q88 0 127 43q45 51 45 156v217h166v-217q0 -106 43 -156q40 -43 129 -43h49v-184h-98q-135 0 -207 86q-68 -86 -205 -86h-81z" />
<glyph unicode="&#x6ce;" horiz-adv-x="1536" d="M389 837h125l117 -194l117 194h124l-176 -325h-133zM117 133q0 156 57 244h166q-59 -90 -59 -244q0 -115 149 -190q61 -31 221 -31q106 0 152 6q131 14 186 49q82 51 82 84q0 43 -43 55q-23 8 -51 50q-41 59 -41 118q0 61 47 125q68 92 147 109q29 6 64 6q106 0 184 -133 q113 -197 146 -197h30v-184h-30q-102 0 -205 172q-98 166 -121 166q-33 0 -45 -6q-41 -18 -41 -53q0 -45 59 -74q65 -31 68 -154q3 -98 -98 -184q-115 -96 -312 -127q-80 -12 -174 -12q-168 0 -274 41q-264 104 -264 364z" />
<glyph unicode="&#x6d5;" horiz-adv-x="987" d="M129 285q0 174 184 301q96 66 236 82l-6 82h164q0 -162 34 -342q16 -94 70 -181q29 -43 127 -43h68v-184h-117q-84 0 -148 51q-39 31 -73 90q-123 -74 -265 -73q-47 0 -102 16q-172 49 -172 201zM281 295q0 -43 81.5 -67.5t245.5 55.5q-16 57 -24.5 90t-22.5 151 q-109 -12 -182 -80q-100 -88 -98 -149z" />
<glyph unicode="&#x67b;" horiz-adv-x="1734" arabic-form="isolated" d="M741 -250v150h135v-150h-135zM741 -350h135v-150h-135v150zM117 383q0 139 57 229h166q-59 -96 -59 -229q0 -125 184 -193q90 -33 227 -32q182 0 406 55q229 55 291 168q49 92 49 168q0 57 -23 121h164q14 -84 14 -160q0 -137 -67 -238q-115 -168 -402 -233 q-262 -59 -422 -59q-166 0 -288 38q-297 99 -297 365z" />
<glyph unicode="&#x67b;" horiz-adv-x="1808" arabic-form="final" d="M741 -250v150h135v-150h-135zM741 -350h135v-150h-135v150zM117 383q0 139 57 229h166q-59 -96 -59 -229q0 -125 184 -193q90 -33 227 -32q244 4 406 55q178 57 291 168q53 53 53 172q0 57 -27 117h164q18 -74 18 -166q0 -207 64 -266q59 -53 113 -54h55v-184h-92 q-102 0 -168 74q-74 86 -94 147q-135 -129 -351 -182q-238 -59 -422 -59q-172 0 -288 38q-297 103 -297 365z" />
<glyph unicode="&#x67b;" horiz-adv-x="512" arabic-form="initial" d="M-18 0v184h32q88 0 127 43q45 51 45 156v217h166v-217q0 -184 -84 -297q-63 -86 -205 -86h-81zM203 -250v150h135v-150h-135zM203 -350h135v-150h-135v150z" />
<glyph unicode="&#x67b;" horiz-adv-x="555" arabic-form="medial" d="M203 -250v150h135v-150h-135zM203 -350h135v-150h-135v150zM-18 0v184h32q88 0 127 43q45 51 45 156v217h166v-217q0 -106 43 -156q40 -43 129 -43h49v-184h-98q-135 0 -207 86q-68 -86 -205 -86h-81z" />
<glyph unicode="&#x67e;" horiz-adv-x="1734" arabic-form="isolated" d="M631 -250v150h135v-150h-135zM744 -350h135v-150h-135v150zM856 -250v150h135v-150h-135zM117 383q0 139 57 229h166q-59 -96 -59 -229q0 -125 184 -193q90 -33 227 -32q182 0 406 55q229 55 291 168q49 92 49 168q0 57 -23 121h164q14 -84 14 -160q0 -137 -67 -238 q-115 -168 -402 -233q-262 -59 -422 -59q-166 0 -288 38q-297 99 -297 365z" />
<glyph unicode="&#x67e;" horiz-adv-x="1808" arabic-form="final" d="M631 -250v150h135v-150h-135zM744 -350h135v-150h-135v150zM856 -250v150h135v-150h-135zM117 383q0 139 57 229h166q-59 -96 -59 -229q0 -125 184 -193q90 -33 227 -32q244 4 406 55q178 57 291 168q53 53 53 172q0 57 -27 117h164q18 -74 18 -166q0 -207 64 -266 q59 -53 113 -54h55v-184h-92q-102 0 -168 74q-74 86 -94 147q-135 -129 -351 -182q-238 -59 -422 -59q-172 0 -288 38q-297 103 -297 365z" />
<glyph unicode="&#x67e;" horiz-adv-x="512" arabic-form="initial" d="M-18 0v184h32q88 0 127 43q45 51 45 156v217h166v-217q0 -184 -84 -297q-63 -86 -205 -86h-81zM88 -250v150h135v-150h-135zM201 -350h135v-150h-135v150zM313 -250v150h135v-150h-135z" />
<glyph unicode="&#x67e;" horiz-adv-x="555" arabic-form="medial" d="M-18 0v184h32q88 0 127 43q45 51 45 156v217h166v-217q0 -106 43 -156q40 -43 129 -43h49v-184h-98q-135 0 -207 86q-68 -86 -205 -86h-81zM88 -250v150h135v-150h-135zM201 -350h135v-150h-135v150zM313 -250v150h135v-150h-135z" />
<glyph unicode="&#x680;" horiz-adv-x="1734" arabic-form="isolated" d="M631 -250v150h135v-150h-135zM631 -350h135v-150h-135v150zM856 -250v150h135v-150h-135zM856 -350h135v-150h-135v150zM117 383q0 139 57 229h166q-59 -96 -59 -229q0 -125 184 -193q90 -33 227 -32q182 0 406 55q229 55 291 168q49 92 49 168q0 57 -23 121h164 q14 -84 14 -160q0 -137 -67 -238q-115 -168 -402 -233q-262 -59 -422 -59q-166 0 -288 38q-297 99 -297 365z" />
<glyph unicode="&#x680;" horiz-adv-x="1808" arabic-form="final" d="M631 -250v150h135v-150h-135zM631 -350h135v-150h-135v150zM856 -250v150h135v-150h-135zM856 -350h135v-150h-135v150zM117 383q0 139 57 229h166q-59 -96 -59 -229q0 -125 184 -193q90 -33 227 -32q244 4 406 55q178 57 291 168q53 53 53 172q0 57 -27 117h164 q18 -74 18 -166q0 -207 64 -266q59 -53 113 -54h55v-184h-92q-102 0 -168 74q-74 86 -94 147q-135 -129 -351 -182q-238 -59 -422 -59q-172 0 -288 38q-297 103 -297 365z" />
<glyph unicode="&#x680;" horiz-adv-x="512" arabic-form="initial" d="M-18 0v184h32q88 0 127 43q45 51 45 156v217h166v-217q0 -184 -84 -297q-63 -86 -205 -86h-81zM88 -250v150h135v-150h-135zM88 -350h135v-150h-135v150zM313 -250v150h135v-150h-135zM313 -350h135v-150h-135v150z" />
<glyph unicode="&#x680;" horiz-adv-x="555" arabic-form="medial" d="M-18 0v184h32q88 0 127 43q45 51 45 156v217h166v-217q0 -106 43 -156q40 -43 129 -43h49v-184h-98q-135 0 -207 86q-68 -86 -205 -86h-81zM88 -250v150h135v-150h-135zM88 -350h135v-150h-135v150zM313 -250v150h135v-150h-135zM313 -350h135v-150h-135v150z" />
<glyph unicode="&#x67a;" horiz-adv-x="1734" arabic-form="isolated" d="M741 899v150h135v-150h-135zM741 799h135v-150h-135v150zM117 383q0 139 57 229h166q-59 -96 -59 -229q0 -125 184 -193q90 -33 227 -32q182 0 406 55q229 55 291 168q49 92 49 168q0 57 -23 121h164q14 -84 14 -160q0 -137 -67 -238q-115 -168 -402 -233 q-262 -59 -422 -59q-166 0 -288 38q-297 99 -297 365z" />
<glyph unicode="&#x67a;" horiz-adv-x="1808" arabic-form="final" d="M741 899v150h135v-150h-135zM741 799h135v-150h-135v150zM117 383q0 139 57 229h166q-59 -96 -59 -229q0 -125 184 -193q90 -33 227 -32q244 4 406 55q178 57 291 168q53 53 53 172q0 57 -27 117h164q18 -74 18 -166q0 -207 64 -266q59 -53 113 -54h55v-184h-92 q-102 0 -168 74q-74 86 -94 147q-135 -129 -351 -182q-238 -59 -422 -59q-172 0 -288 38q-297 103 -297 365z" />
<glyph unicode="&#x67a;" horiz-adv-x="512" arabic-form="initial" d="M-18 0v184h32q88 0 127 43q45 51 45 156v217h166v-217q0 -184 -84 -297q-63 -86 -205 -86h-81zM203 1100v150h135v-150h-135zM203 1000h135v-150h-135v150z" />
<glyph unicode="&#x67a;" horiz-adv-x="555" arabic-form="medial" d="M-18 0v184h32q88 0 127 43q45 51 45 156v217h166v-217q0 -106 43 -156q40 -43 129 -43h49v-184h-98q-135 0 -207 86q-68 -86 -205 -86h-81zM203 1100v150h135v-150h-135zM203 1000h135v-150h-135v150z" />
<glyph unicode="&#x67f;" horiz-adv-x="1734" arabic-form="isolated" d="M631 899v150h135v-150h-135zM631 799h135v-150h-135v150zM856 899v150h135v-150h-135zM856 799h135v-150h-135v150zM117 383q0 139 57 229h166q-59 -96 -59 -229q0 -125 184 -193q90 -33 227 -32q182 0 406 55q229 55 291 168q49 92 49 168q0 57 -23 121h164 q14 -84 14 -160q0 -137 -67 -238q-115 -168 -402 -233q-262 -59 -422 -59q-166 0 -288 38q-297 99 -297 365z" />
<glyph unicode="&#x67f;" horiz-adv-x="1808" arabic-form="final" d="M117 383q0 139 57 229h166q-59 -96 -59 -229q0 -125 184 -193q90 -33 227 -32q244 4 406 55q178 57 291 168q53 53 53 172q0 57 -27 117h164q18 -74 18 -166q0 -207 64 -266q59 -53 113 -54h55v-184h-92q-102 0 -168 74q-74 86 -94 147q-135 -129 -351 -182 q-238 -59 -422 -59q-172 0 -288 38q-297 103 -297 365zM631 899v150h135v-150h-135zM631 799h135v-150h-135v150zM856 899v150h135v-150h-135zM856 799h135v-150h-135v150z" />
<glyph unicode="&#x67f;" horiz-adv-x="512" arabic-form="initial" d="M-18 0v184h32q88 0 127 43q45 51 45 156v217h166v-217q0 -184 -84 -297q-63 -86 -205 -86h-81zM88 1100v150h135v-150h-135zM88 1000h135v-150h-135v150zM313 1100v150h135v-150h-135zM313 1000h135v-150h-135v150z" />
<glyph unicode="&#x67f;" horiz-adv-x="555" arabic-form="medial" d="M-18 0v184h32q88 0 127 43q45 51 45 156v217h166v-217q0 -106 43 -156q40 -43 129 -43h49v-184h-98q-135 0 -207 86q-68 -86 -205 -86h-81zM88 1100v150h135v-150h-135zM88 1000h135v-150h-135v150zM313 1100v150h135v-150h-135zM313 1000h135v-150h-135v150z" />
<glyph unicode="&#x679;" horiz-adv-x="1734" arabic-form="isolated" d="M575 678v100h72v400h92v-322q31 72 127 113q53 23 119 -2q59 -25 59 -107q0 -92 -57 -141q-47 -41 -154 -41h-157h-101zM764 778h49q72 0 90 13q47 33 47 55q0 33 -27 47q-23 -8 -65 -27q-45 -20 -94 -88zM117 383q0 139 57 229h166q-59 -96 -59 -229q0 -125 184 -193 q90 -33 227 -32q182 0 406 55q229 55 291 168q49 92 49 168q0 57 -23 121h164q14 -84 14 -160q0 -137 -67 -238q-115 -168 -402 -233q-262 -59 -422 -59q-166 0 -288 38q-297 99 -297 365z" />
<glyph unicode="&#x679;" horiz-adv-x="1808" arabic-form="final" d="M117 383q0 139 57 229h166q-59 -96 -59 -229q0 -125 184 -193q90 -33 227 -32q244 4 406 55q178 57 291 168q53 53 53 172q0 57 -27 117h164q18 -74 18 -166q0 -207 64 -266q59 -53 113 -54h55v-184h-92q-102 0 -168 74q-74 86 -94 147q-135 -129 -351 -182 q-238 -59 -422 -59q-172 0 -288 38q-297 103 -297 365zM575 678v100h72v400h92v-322q31 72 127 113q53 23 119 -2q59 -25 59 -107q0 -92 -57 -141q-47 -41 -154 -41h-157h-101zM764 778h49q72 0 90 13q47 33 47 55q0 33 -27 47q-23 -8 -65 -27q-45 -20 -94 -88z" />
<glyph unicode="&#x679;" horiz-adv-x="512" arabic-form="initial" d="M-18 0v184h32q88 0 127 43q45 51 45 156v217h166v-217q0 -184 -84 -297q-63 -86 -205 -86h-81zM34 879v100h72v400h92v-322q31 72 127 113q53 23 119 -2q59 -25 59 -107q0 -92 -57 -141q-47 -41 -154 -41h-157h-101zM223 979h49q72 0 90 13q47 33 47 55q0 33 -27 47 q-23 -8 -65 -27q-45 -20 -94 -88z" />
<glyph unicode="&#x679;" horiz-adv-x="555" arabic-form="medial" d="M-18 0v184h32q88 0 127 43q45 51 45 156v217h166v-217q0 -106 43 -156q40 -43 129 -43h49v-184h-98q-135 0 -207 86q-68 -86 -205 -86h-81zM34 879v100h72v400h92v-322q31 72 127 113q53 23 119 -2q59 -25 59 -107q0 -92 -57 -141q-47 -41 -154 -41h-157h-101zM223 979 h49q72 0 90 13q47 33 47 55q0 33 -27 47q-23 -8 -65 -27q-45 -20 -94 -88z" />
<glyph unicode="&#x6a4;" horiz-adv-x="1908" arabic-form="isolated" d="M1260 1151v150h135v-150h-135zM1373 1401v149h135v-149h-135zM1485 1151v150h135v-150h-135zM117 313q0 141 57 232h166q-59 -96 -59 -232q0 -113 184 -190q82 -35 332 -35q291 0 477 57q194 58 282 166q29 35 50 117q-57 -76 -166 -76q-119 0 -187 68q-88 86 -88 217 q0 51 6 94q23 150 156 217q70 37 139 37q82 0 140 -49q90 -74 129 -174q20 -53 20 -193q-2 -225 -69 -350q-96 -178 -386 -250q-246 -61 -503 -61q-264 0 -383 41q-297 102 -297 364zM1335 655q0 -80 49 -116q41 -27 74 -27q65 0 86 25q37 43 37 120q0 59 -57 111 q-25 23 -70 23t-82 -43q-37 -41 -37 -93z" />
<glyph unicode="&#x6a4;" horiz-adv-x="1906" arabic-form="final" d="M117 313q0 141 57 232h166q-59 -96 -59 -232q0 -114 184 -190q76 -33 342 -33q207 0 465 55l24 5q-37 33 -57 69q-74 123 -74 246q0 18 4 67q23 158 189 230q55 23 98 22q74 0 148 -49q125 -84 139 -233q4 -49 4 -68q0 -141 -72 -250h15h235v-184h-239q-92 0 -195 37 q-90 -41 -193 -68q-244 -59 -497 -59q-279 0 -387 39q-297 104 -297 364zM1335 461q0 -59 37 -123q43 -76 119 -115q92 61 92 187q0 10 -4 47q-12 70 -59 110q-31 25 -66 25q-18 0 -43 -10q-53 -25 -72 -84q-4 -12 -4 -37zM1260 950v150h135v-150h-135zM1373 1200v149h135 v-149h-135zM1485 950v150h135v-150h-135z" />
<glyph unicode="&#x6a4;" horiz-adv-x="880" arabic-form="initial" d="M-18 0v184h217q70 0 211 23q72 12 127 104q23 41 41 99q-57 -53 -146 -58q-113 -2 -186 68q-88 86 -88 217q0 37 8 94q23 152 153 217q70 37 140 37q82 0 139 -49q90 -74 129 -174q20 -49 21 -193q0 -209 -70 -350q-70 -137 -178 -180q-96 -39 -230 -39h-288zM328 655 q0 -78 51 -116q39 -27 74 -27q65 0 86 25q37 43 36 120q0 57 -59 111q-25 23 -67 23q-47 0 -84 -43q-37 -41 -37 -93zM270 1151v150h135v-150h-135zM383 1401v149h135v-149h-135zM495 1151v150h135v-150h-135z" />
<glyph unicode="&#x6a4;" horiz-adv-x="931" arabic-form="medial" d="M-18 0v184h114q137 0 168 17q-29 45 -59 116q-18 46 -19 123q0 49 9 92q20 143 186 230q27 14 86 14q57 0 86 -14q166 -82 186 -230q6 -49 6 -92q0 -74 -18 -123q-23 -59 -57 -116q31 -16 166 -17h114v-184h-194q-125 0 -289 57q-164 -57 -291 -57h-194zM356 446 q0 -47 21 -96q29 -68 90 -90q57 20 88 90q23 51 23 96q0 25 -11 52q-20 51 -71 84q-20 10 -29 10q-10 0 -31 -10q-49 -31 -71 -84q-9 -19 -9 -52zM287 999v150h135v-150h-135zM400 1249v149h135v-149h-135zM512 999v150h135v-150h-135z" />
<glyph unicode="&#x6a6;" horiz-adv-x="1908" arabic-form="isolated" d="M1260 1401v150h135v-150h-135zM1260 1301h135v-150h-135v150zM1485 1401v150h135v-150h-135zM1485 1301h135v-150h-135v150zM117 313q0 141 57 232h166q-59 -96 -59 -232q0 -113 184 -190q82 -35 332 -35q291 0 477 57q194 58 282 166q29 35 50 117q-57 -76 -166 -76 q-119 0 -187 68q-88 86 -88 217q0 51 6 94q23 150 156 217q70 37 139 37q82 0 140 -49q90 -74 129 -174q20 -53 20 -193q-2 -225 -69 -350q-96 -178 -386 -250q-246 -61 -503 -61q-264 0 -383 41q-297 102 -297 364zM1335 655q0 -80 49 -116q41 -27 74 -27q65 0 86 25 q37 43 37 120q0 59 -57 111q-25 23 -70 23t-82 -43q-37 -41 -37 -93z" />
<glyph unicode="&#x6a6;" horiz-adv-x="1906" arabic-form="final" d="M117 313q0 141 57 232h166q-59 -96 -59 -232q0 -114 184 -190q76 -33 342 -33q207 0 465 55l24 5q-37 33 -57 69q-74 123 -74 246q0 18 4 67q23 158 189 230q55 23 98 22q74 0 148 -49q125 -84 139 -233q4 -49 4 -68q0 -141 -72 -250h15h235v-184h-239q-92 0 -195 37 q-90 -41 -193 -68q-244 -59 -497 -59q-279 0 -387 39q-297 104 -297 364zM1335 461q0 -59 37 -123q43 -76 119 -115q92 61 92 187q0 10 -4 47q-12 70 -59 110q-31 25 -66 25q-18 0 -43 -10q-53 -25 -72 -84q-4 -12 -4 -37zM1260 1200v150h135v-150h-135zM1260 1100h135v-150 h-135v150zM1485 1200v150h135v-150h-135zM1485 1100h135v-150h-135v150z" />
<glyph unicode="&#x6a6;" horiz-adv-x="880" arabic-form="initial" d="M-18 0v184h217q70 0 211 23q72 12 127 104q23 41 41 99q-57 -53 -146 -58q-113 -2 -186 68q-88 86 -88 217q0 37 8 94q23 152 153 217q70 37 140 37q82 0 139 -49q90 -74 129 -174q20 -49 21 -193q0 -209 -70 -350q-70 -137 -178 -180q-96 -39 -230 -39h-288zM328 655 q0 -78 51 -116q39 -27 74 -27q65 0 86 25q37 43 36 120q0 57 -59 111q-25 23 -67 23q-47 0 -84 -43q-37 -41 -37 -93zM270 1401v150h135v-150h-135zM270 1301h135v-150h-135v150zM495 1401v150h135v-150h-135zM495 1301h135v-150h-135v150z" />
<glyph unicode="&#x6a6;" horiz-adv-x="931" arabic-form="medial" d="M-18 0v184h114q137 0 168 17q-29 45 -59 116q-18 46 -19 123q0 49 9 92q20 143 186 230q27 14 86 14q57 0 86 -14q166 -82 186 -230q6 -49 6 -92q0 -74 -18 -123q-23 -59 -57 -116q31 -16 166 -17h114v-184h-194q-125 0 -289 57q-164 -57 -291 -57h-194zM356 446 q0 -47 21 -96q29 -68 90 -90q57 20 88 90q23 51 23 96q0 25 -11 52q-20 51 -71 84q-20 10 -29 10q-10 0 -31 -10q-49 -31 -71 -84q-9 -19 -9 -52zM287 1249v150h135v-150h-135zM287 1149h135v-150h-135v150zM512 1249v150h135v-150h-135zM512 1149h135v-150h-135v150z" />
<glyph unicode="&#x684;" horiz-adv-x="1187" arabic-form="isolated" d="M698 174v150h135v-150h-135zM698 74h135v-150h-135v150zM141 623v184q246 63 424 63q262 0 439 -55v-153q-262 0 -457 -166q-203 -178 -203 -437q0 -129 68 -229q117 -166 411 -166q170 0 365 119v-184q-135 -98 -361 -99q-377 0 -528 195q-117 150 -117 373 q0 256 191 481q86 101 209 153q-74 0 -234 -20q-117 -16 -207 -59z" />
<glyph unicode="&#x684;" horiz-adv-x="1187" arabic-form="final" d="M608 125v150h135v-150h-135zM608 25h135v-150h-135v150zM141 623v184q242 63 418 63q264 0 445 -55v-153q-98 0 -125 -13l24 -92q45 -154 113 -254q80 -119 155 -119h37v-184h-45q-115 0 -225 150q-76 102 -129 256l-72 192q-102 -25 -190 -102q-203 -186 -203 -437 q0 -129 68 -229q119 -166 411 -166q170 0 365 119v-184q-135 -98 -361 -99q-377 0 -528 195q-117 150 -117 373q0 256 191 481q86 101 209 153h-23q-72 0 -211 -20q-119 -18 -207 -59z" />
<glyph unicode="&#x684;" horiz-adv-x="1138" arabic-form="initial" d="M-18 0v184h90q201 0 319 72q98 59 199 164q88 88 176 121q-135 39 -168 47q-86 20 -238 35q-74 6 -219 0v184q86 8 133 8q141 0 299 -35q238 -53 431 -149v-156q-72 -27 -148 -76q-147 -96 -215 -163q-131 -127 -199 -156q-201 -80 -346 -80h-114zM471 -201v150h135v-150 h-135zM471 -301h135v-150h-135v150z" />
<glyph unicode="&#x684;" horiz-adv-x="1187" arabic-form="medial" d="M-18 0v184h90q201 0 319 72q98 59 199 164q88 88 176 121q-135 39 -168 47q-86 20 -238 35q-74 6 -219 0v184q86 8 133 8q141 0 299 -35q238 -53 431 -149v-156q-66 -25 -123 -59q57 -94 71 -113q94 -119 197 -119h59v-184h-78q-188 0 -301 168q-47 72 -90 151 q-57 -43 -98 -83q-131 -127 -199 -156q-201 -80 -346 -80h-114zM471 -201v150h135v-150h-135zM471 -301h135v-150h-135v150z" />
<glyph unicode="&#x683;" horiz-adv-x="1187" arabic-form="isolated" d="M586 25v150h135v-150h-135zM811 25v150h135v-150h-135zM141 623v184q246 63 424 63q262 0 439 -55v-153q-262 0 -457 -166q-203 -178 -203 -437q0 -129 68 -229q117 -166 411 -166q170 0 365 119v-184q-135 -98 -361 -99q-377 0 -528 195q-117 150 -117 373 q0 256 191 481q86 101 209 153q-74 0 -234 -20q-117 -16 -207 -59z" />
<glyph unicode="&#x683;" horiz-adv-x="1187" arabic-form="final" d="M496 -25v150h135v-150h-135zM721 -25v150h135v-150h-135zM141 623v184q242 63 418 63q264 0 445 -55v-153q-98 0 -125 -13l24 -92q45 -154 113 -254q80 -119 155 -119h37v-184h-45q-115 0 -225 150q-76 102 -129 256l-72 192q-102 -25 -190 -102q-203 -186 -203 -437 q0 -129 68 -229q119 -166 411 -166q170 0 365 119v-184q-135 -98 -361 -99q-377 0 -528 195q-117 150 -117 373q0 256 191 481q86 101 209 153h-23q-72 0 -211 -20q-119 -18 -207 -59z" />
<glyph unicode="&#x683;" horiz-adv-x="1138" arabic-form="initial" d="M-18 0v184h90q201 0 319 72q98 59 199 164q88 88 176 121q-135 39 -168 47q-86 20 -238 35q-74 6 -219 0v184q86 8 133 8q141 0 299 -35q238 -53 431 -149v-156q-72 -27 -148 -76q-147 -96 -215 -163q-131 -127 -199 -156q-201 -80 -346 -80h-114zM360 -201v150h135v-150 h-135zM585 -201v150h135v-150h-135z" />
<glyph unicode="&#x683;" horiz-adv-x="1187" arabic-form="medial" d="M-18 0v184h90q201 0 319 72q98 59 199 164q88 88 176 121q-135 39 -168 47q-86 20 -238 35q-74 6 -219 0v184q86 8 133 8q141 0 299 -35q238 -53 431 -149v-156q-66 -25 -123 -59q57 -94 71 -113q94 -119 197 -119h59v-184h-78q-188 0 -301 168q-47 72 -90 151 q-57 -43 -98 -83q-131 -127 -199 -156q-201 -80 -346 -80h-114zM360 -201v150h135v-150h-135zM585 -201v150h135v-150h-135z" />
<glyph unicode="&#x686;" horiz-adv-x="1187" arabic-form="isolated" d="M596 150v150h135v-150h-135zM709 50h135v-150h-135v150zM821 150v150h135v-150h-135zM141 623v184q246 63 424 63q262 0 439 -55v-153q-262 0 -457 -166q-203 -178 -203 -437q0 -129 68 -229q117 -166 411 -166q170 0 365 119v-184q-135 -98 -361 -99q-377 0 -528 195 q-117 150 -117 373q0 256 191 481q86 101 209 153q-74 0 -234 -20q-117 -16 -207 -59z" />
<glyph unicode="&#x686;" horiz-adv-x="1187" arabic-form="final" d="M483 49v150h135v-150h-135zM596 -51h135v-150h-135v150zM708 49v150h135v-150h-135zM141 623v184q242 63 418 63q264 0 445 -55v-153q-98 0 -125 -13l24 -92q45 -154 113 -254q80 -119 155 -119h37v-184h-45q-115 0 -225 150q-76 102 -129 256l-72 192 q-102 -25 -190 -102q-203 -186 -203 -437q0 -129 68 -229q119 -166 411 -166q170 0 365 119v-184q-135 -98 -361 -99q-377 0 -528 195q-117 150 -117 373q0 256 191 481q86 101 209 153h-23q-72 0 -211 -20q-119 -18 -207 -59z" />
<glyph unicode="&#x686;" horiz-adv-x="1138" arabic-form="initial" d="M-18 0v184h90q201 0 319 72q98 59 199 164q88 88 176 121q-135 39 -168 47q-86 20 -238 35q-74 6 -219 0v184q86 8 133 8q141 0 299 -35q238 -53 431 -149v-156q-72 -27 -148 -76q-147 -96 -215 -163q-131 -127 -199 -156q-201 -80 -346 -80h-114zM360 -201v150h135v-150 h-135zM473 -301h135v-150h-135v150zM585 -201v150h135v-150h-135z" />
<glyph unicode="&#x686;" horiz-adv-x="1187" arabic-form="medial" d="M-18 0v184h90q201 0 319 72q98 59 199 164q88 88 176 121q-135 39 -168 47q-86 20 -238 35q-74 6 -219 0v184q86 8 133 8q141 0 299 -35q238 -53 431 -149v-156q-66 -25 -123 -59q57 -94 71 -113q94 -119 197 -119h59v-184h-78q-188 0 -301 168q-47 72 -90 151 q-57 -43 -98 -83q-131 -127 -199 -156q-201 -80 -346 -80h-114zM360 -201v150h135v-150h-135zM473 -301h135v-150h-135v150zM585 -201v150h135v-150h-135z" />
<glyph unicode="&#x687;" horiz-adv-x="1187" arabic-form="isolated" d="M596 174v150h135v-150h-135zM596 74h135v-150h-135v150zM821 174v150h135v-150h-135zM821 74h135v-150h-135v150zM141 623v184q246 63 424 63q262 0 439 -55v-153q-262 0 -457 -166q-203 -178 -203 -437q0 -129 68 -229q117 -166 411 -166q170 0 365 119v-184 q-135 -98 -361 -99q-377 0 -528 195q-117 150 -117 373q0 256 191 481q86 101 209 153q-74 0 -234 -20q-117 -16 -207 -59z" />
<glyph unicode="&#x687;" horiz-adv-x="1187" arabic-form="final" d="M483 49v150h135v-150h-135zM483 -51h135v-150h-135v150zM708 49v150h135v-150h-135zM708 -51h135v-150h-135v150zM141 623v184q242 63 418 63q264 0 445 -55v-153q-98 0 -125 -13l24 -92q45 -154 113 -254q80 -119 155 -119h37v-184h-45q-115 0 -225 150 q-76 102 -129 256l-72 192q-102 -25 -190 -102q-203 -186 -203 -437q0 -129 68 -229q119 -166 411 -166q170 0 365 119v-184q-135 -98 -361 -99q-377 0 -528 195q-117 150 -117 373q0 256 191 481q86 101 209 153h-23q-72 0 -211 -20q-119 -18 -207 -59z" />
<glyph unicode="&#x687;" horiz-adv-x="1138" arabic-form="initial" d="M-18 0v184h90q201 0 319 72q98 59 199 164q88 88 176 121q-135 39 -168 47q-86 20 -238 35q-74 6 -219 0v184q86 8 133 8q141 0 299 -35q238 -53 431 -149v-156q-72 -27 -148 -76q-147 -96 -215 -163q-131 -127 -199 -156q-201 -80 -346 -80h-114zM360 -201v150h135v-150 h-135zM360 -301h135v-150h-135v150zM585 -201v150h135v-150h-135zM585 -301h135v-150h-135v150z" />
<glyph unicode="&#x687;" horiz-adv-x="1187" arabic-form="medial" d="M-18 0v184h90q201 0 319 72q98 59 199 164q88 88 176 121q-135 39 -168 47q-86 20 -238 35q-74 6 -219 0v184q86 8 133 8q141 0 299 -35q238 -53 431 -149v-156q-66 -25 -123 -59q57 -94 71 -113q94 -119 197 -119h59v-184h-78q-188 0 -301 168q-47 72 -90 151 q-57 -43 -98 -83q-131 -127 -199 -156q-201 -80 -346 -80h-114zM360 -201v150h135v-150h-135zM360 -301h135v-150h-135v150zM585 -201v150h135v-150h-135zM585 -301h135v-150h-135v150z" />
<glyph unicode="&#x698;" horiz-adv-x="888" arabic-form="isolated" d="M451 801v150h135v-150h-135zM564 1051v149h135v-149h-135zM676 801v150h135v-150h-135zM-76 -315q274 0 457 127q197 139 227 346q8 51 8 131q0 125 -47 262h164q45 -115 45 -252q0 -82 -6 -143q-39 -348 -303 -504q-256 -152 -545 -152v185z" />
<glyph unicode="&#x698;" horiz-adv-x="1015" arabic-form="final" d="M-76 -315q274 0 457 127q197 139 227 346q8 51 8 131q0 125 -47 262h164q27 -109 31 -143q8 -100 76 -181q37 -43 129 -43h65v-184h-116q-115 0 -162 61q-61 -279 -287 -409q-256 -152 -545 -152v185zM451 801v150h135v-150h-135zM564 1051v149h135v-149h-135zM676 801 v150h135v-150h-135z" />
<glyph unicode="&#x691;" horiz-adv-x="888" arabic-form="isolated" d="M-76 -315q274 0 457 127q197 139 227 346q8 51 8 131q0 125 -47 262h164q45 -115 45 -252q0 -82 -6 -143q-39 -348 -303 -504q-256 -152 -545 -152v185zM397 827v100h72v400h92v-322q31 72 127 113q53 23 119 -2q59 -25 59 -107q0 -92 -57 -141q-47 -41 -154 -41h-157 h-101zM586 927h49q72 0 90 13q47 33 47 55q0 33 -27 47q-23 -8 -65 -27q-45 -20 -94 -88z" />
<glyph unicode="&#x691;" horiz-adv-x="1015" arabic-form="final" d="M-76 -315q274 0 457 127q197 139 227 346q8 51 8 131q0 125 -47 262h164q27 -109 31 -143q8 -100 76 -181q37 -43 129 -43h65v-184h-116q-115 0 -162 61q-61 -279 -287 -409q-256 -152 -545 -152v185zM397 827v100h72v400h92v-322q31 72 127 113q53 23 119 -2 q59 -25 59 -107q0 -92 -57 -141q-47 -41 -154 -41h-157h-101zM586 927h49q72 0 90 13q47 33 47 55q0 33 -27 47q-23 -8 -65 -27q-45 -20 -94 -88z" />
<glyph unicode="&#x6a9;" horiz-adv-x="1648" arabic-form="isolated" d="M117 313q0 141 57 232h166q-59 -96 -59 -232q0 -126 184 -190q94 -35 227 -35q164 0 340 80q139 63 174 121q14 23 15 71q0 74 -47 136l-279 378q-45 59 -45 144q0 37 8 67q29 117 121 160l672 311v-186l-537 -250q-66 -31 -84 -69q-4 -8 -4 -37q0 -31 29 -70l245 -330 q92 -123 93 -245q0 -111 -56 -213q-45 -86 -286 -172q-197 -72 -349 -72q-172 0 -288 37q-297 98 -297 364z" />
<glyph unicode="&#x6a9;" horiz-adv-x="1648" arabic-form="final" d="M117 313q0 141 57 232h166q-59 -96 -59 -232q0 -126 184 -190q94 -35 227 -35q164 0 340 80q143 66 174 121q14 23 15 71q0 74 -47 136l-279 378q-45 59 -45 144q0 37 8 67q29 117 121 160l672 311v-186l-537 -250q-66 -31 -84 -69q-4 -8 -4 -37q0 -31 29 -70l524 -704 q16 -23 53 -39q39 -16 97 -17h79v-184h-118q-58 0 -111 25q-90 43 -123 84l-88 118q-20 -63 -76 -106q-84 -74 -241 -137q-178 -72 -349 -72q-174 0 -288 37q-297 98 -297 364z" />
<glyph unicode="&#x6a9;" horiz-adv-x="876" arabic-form="initial" d="M-18 0v184h278q133 0 174 105q14 35 15 71q0 70 -50 136l-276 378q-47 63 -47 144q0 31 10 67q29 119 121 160l672 311v-186l-537 -250q-66 -31 -84 -69q-4 -8 -4 -37q0 -31 29 -70l245 -330q92 -123 93 -245q0 -111 -56 -213q-88 -156 -286 -156h-297z" />
<glyph unicode="&#x6a9;" horiz-adv-x="1015" arabic-form="medial" d="M-18 0v184h278q133 0 174 105q14 35 15 71q0 70 -50 136l-276 378q-47 63 -47 144q0 31 10 67q29 119 121 160l672 311v-186l-537 -250q-66 -31 -84 -69q-4 -8 -4 -37q0 -31 29 -70l524 -704q20 -25 53 -39q43 -16 96 -17h80v-184h-118q-58 0 -111 25q-90 43 -123 84 l-86 118q-8 -18 -37 -71q-88 -156 -282 -156h-297z" />
<glyph unicode="&#x6af;" horiz-adv-x="1648" arabic-form="isolated" d="M872 1331v150l776 354v-149zM117 313q0 141 57 232h166q-59 -96 -59 -232q0 -126 184 -190q94 -35 227 -35q164 0 340 80q139 63 174 121q14 23 15 71q0 74 -47 136l-279 378q-45 59 -45 144q0 37 8 67q29 117 121 160l672 311v-186l-537 -250q-66 -31 -84 -69 q-4 -8 -4 -37q0 -31 29 -70l245 -330q92 -123 93 -245q0 -111 -56 -213q-45 -86 -286 -172q-197 -72 -349 -72q-172 0 -288 37q-297 98 -297 364z" />
<glyph unicode="&#x6af;" horiz-adv-x="1648" arabic-form="final" d="M117 313q0 141 57 232h166q-59 -96 -59 -232q0 -126 184 -190q94 -35 227 -35q164 0 340 80q143 66 174 121q14 23 15 71q0 74 -47 136l-279 378q-45 59 -45 144q0 37 8 67q29 117 121 160l672 311v-186l-537 -250q-66 -31 -84 -69q-4 -8 -4 -37q0 -31 29 -70l524 -704 q16 -23 53 -39q39 -16 97 -17h79v-184h-118q-58 0 -111 25q-90 43 -123 84l-88 118q-20 -63 -76 -106q-84 -74 -241 -137q-178 -72 -349 -72q-174 0 -288 37q-297 98 -297 364zM872 1331v150l776 354v-149z" />
<glyph unicode="&#x6af;" horiz-adv-x="876" arabic-form="initial" d="M-18 0v184h278q133 0 174 105q14 35 15 71q0 70 -50 136l-276 378q-47 63 -47 144q0 31 10 67q29 119 121 160l672 311v-186l-537 -250q-66 -31 -84 -69q-4 -8 -4 -37q0 -31 29 -70l245 -330q92 -123 93 -245q0 -111 -56 -213q-88 -156 -286 -156h-297zM100 1331v150 l776 354v-149z" />
<glyph unicode="&#x6af;" horiz-adv-x="1015" arabic-form="medial" d="M-18 0v184h278q133 0 174 105q14 35 15 71q0 70 -50 136l-276 378q-47 63 -47 144q0 31 10 67q29 119 121 160l672 311v-186l-537 -250q-66 -31 -84 -69q-4 -8 -4 -37q0 -31 29 -70l524 -704q20 -25 53 -39q43 -16 96 -17h80v-184h-118q-58 0 -111 25q-90 43 -123 84 l-86 118q-8 -18 -37 -71q-88 -156 -282 -156h-297zM100 1331v150l776 354v-149z" />
<glyph unicode="&#x6ba;" horiz-adv-x="1351" arabic-form="isolated" d="M131 168q0 236 43 315h166q-43 -143 -43 -315q0 -238 180 -289q83 -25 166 -24q72 0 133 20q176 53 244 275q29 92 29 194q0 188 -91 406h164q94 -156 95 -439q0 -170 -91 -350q-102 -199 -321 -264q-92 -29 -162 -29q-117 0 -215 37q-297 109 -297 463z" />
<glyph unicode="&#x6ba;" horiz-adv-x="1402" arabic-form="final" d="M131 0q0 174 43 315h166q-43 -139 -43 -315q0 -240 180 -291q74 -23 150 -22q88 0 149 18q176 49 244 277q29 104 29 213q0 182 -91 387h164q43 -104 66 -195q23 -86 63 -139q49 -63 103 -64h67v-184h-116q-66 0 -95 47q-2 -106 -84 -256q-109 -201 -321 -264 q-86 -27 -170 -27q-106 0 -207 37q-297 109 -297 463z" />
<glyph unicode="&#x6c6;" horiz-adv-x="888" arabic-form="isolated" d="M209 1136h125l117 -194l117 194h124l-176 -325h-133zM-76 -315q324 0 443 75q152 96 206 242q-100 0 -145 10q-135 34 -172 68q-104 98 -104 235q0 141 79 228q94 102 218 102q84 0 145 -49q119 -90 139 -234q16 -109 17 -178q0 -307 -156 -469q-82 -84 -168 -129 q-172 -86 -502 -86v185zM328 326q0 -53 45 -99q43 -43 215 -43q0 182 -78 242q-37 27 -66 27q-57 0 -96 -58q-20 -32 -20 -69z" />
<glyph unicode="&#x6c6;" horiz-adv-x="950" arabic-form="final" d="M209 1136h125l117 -194l117 194h124l-176 -325h-133zM-76 -315q324 0 443 75q152 96 206 242q-96 2 -145 10q-126 25 -172 68q-96 90 -104 223q-2 23 8 88q25 158 182 232q47 23 113 22q82 -4 139 -49q117 -90 139 -234q14 -92 17 -178h221v-184h-174h-64 q-20 -154 -139 -285q-74 -84 -168 -129q-172 -86 -502 -86v185zM330 356q-15 -74 43 -129q43 -40 215 -43q0 78 -15 133q-20 78 -63 109q-55 41 -109 16q-59 -27 -71 -86z" />
<glyph unicode="&#x649;" horiz-adv-x="512" arabic-form="initial" d="M-18 0v184h32q88 0 127 43q45 51 45 156v217h166v-217q0 -184 -84 -297q-63 -86 -205 -86h-81z" />
<glyph unicode="&#x649;" horiz-adv-x="555" arabic-form="medial" d="M-18 0v184h32q88 0 127 43q45 51 45 156v217h166v-217q0 -106 43 -156q40 -43 129 -43h49v-184h-98q-135 0 -207 86q-68 -86 -205 -86h-81z" />
<glyph unicode="&#x6cc;" horiz-adv-x="1441" arabic-form="isolated" d="M117 123q0 117 57 229h166q-59 -135 -59 -229q2 -147 149 -193q94 -27 141 -20q135 14 232 35q158 33 233 112q53 57 54 111q0 76 -113 102q-61 16 -164 62q-59 27 -111 78q-59 59 -59 172q0 150 170 223q86 37 180 37q98 0 181 -41q127 -61 151 -236h-166q-12 61 -72 94 q-33 18 -98 23q-70 2 -125 -37q-53 -35 -53 -72q0 -55 111 -98q223 -82 274 -145q70 -88 72 -174q0 -72 -39 -144q-94 -170 -400 -243q-160 -37 -268 -37q-115 0 -180 24q-264 105 -264 367z" />
<glyph unicode="&#x6cc;" horiz-adv-x="1536" arabic-form="final" d="M117 133q0 156 57 244h166q-59 -90 -59 -244q0 -115 149 -190q61 -31 221 -31q106 0 152 6q131 14 186 49q82 51 82 84q0 43 -43 55q-23 8 -51 50q-41 59 -41 118q0 61 47 125q68 92 147 109q29 6 64 6q106 0 184 -133q113 -197 146 -197h30v-184h-30q-102 0 -205 172 q-98 166 -121 166q-33 0 -45 -6q-41 -18 -41 -53q0 -45 59 -74q65 -31 68 -154q3 -98 -98 -184q-115 -96 -312 -127q-80 -12 -174 -12q-168 0 -274 41q-264 104 -264 364z" />
<glyph unicode="&#x6cc;" horiz-adv-x="512" arabic-form="initial" d="M-18 0v184h32q88 0 127 43q45 51 45 156v217h166v-217q0 -184 -84 -297q-63 -86 -205 -86h-81zM88 -299v150h135v-150h-135zM313 -299v150h135v-150h-135z" />
<glyph unicode="&#x6cc;" horiz-adv-x="555" arabic-form="medial" d="M-18 0v184h32q88 0 127 43q45 51 45 156v217h166v-217q0 -106 43 -156q40 -43 129 -43h49v-184h-98q-135 0 -207 86q-68 -86 -205 -86h-81zM88 -299v150h135v-150h-135zM313 -299v150h135v-150h-135z" />
<glyph unicode="&#xfe70;" horiz-adv-x="538" arabic-form="isolated" d="M9 1210v111l526 129v-111zM9 1450v111l526 129v-111z" />
<glyph unicode="&#xfe71;" horiz-adv-x="538" arabic-form="medial" d="M-18 0v184h575v-184h-575zM9 1210v111l526 129v-111zM9 1450v111l526 129v-111z" />
<glyph unicode="&#xfe72;" horiz-adv-x="538" arabic-form="isolated" d="M9 1518h80q0 -98 12 -123q31 -74 74 -74q53 0 106 59q33 37 51 78q-25 4 -51 21q-96 57 -96 149q0 88 61 139q27 23 82 23q66 0 103 -41q49 -55 49 -131q0 -47 -11 -78q6 0 15.5 -1t13.5 -1h37v-111q-49 0 -61 3l-48 6q-27 -68 -90 -140q-76 -86 -161 -86 q-102 0 -152 154q-14 37 -14 154zM285 1628q0 -35 41 -53q8 -4 41 -16q0 2 2 7t4 7q8 18 8 45q0 33 -14 47t-34.5 14t-30.5 -10q-17 -12 -17 -41z" />
<glyph unicode="&#xfe74;" horiz-adv-x="538" arabic-form="isolated" d="M9 -139l526 129v-111l-526 -129v111zM9 -381l526 131v-110l-526 -129v108z" />
<glyph unicode="&#xfe76;" horiz-adv-x="538" arabic-form="isolated" d="M9 1210v111l526 129v-111z" />
<glyph unicode="&#xfe77;" horiz-adv-x="538" arabic-form="medial" d="M9 1210v111l526 129v-111zM-18 0v184h575v-184h-575z" />
<glyph unicode="&#xfe78;" horiz-adv-x="538" arabic-form="isolated" d="M9 1208v111q135 0 262 108q12 12 37 39q-6 2 -27 13q-96 53 -96 149q0 88 61 139q27 23 82 23q66 0 103 -41q49 -55 49 -131q0 -33 -13 -78q6 0 16.5 -1t16.5 -1h35v-111q-43 0 -61 3q-37 4 -54 6q-37 -63 -100 -105q-182 -123 -311 -123zM285 1628q0 -35 41 -53 q8 -4 41 -16q0 2 2 7t4 7q8 18 8 45q0 33 -14 47t-34.5 14t-30.5 -10q-17 -12 -17 -41z" />
<glyph unicode="&#xfe79;" horiz-adv-x="538" arabic-form="medial" d="M9 1208v111q135 0 262 108q12 12 37 39q-6 2 -27 13q-96 53 -96 149q0 88 61 139q27 23 82 23q66 0 103 -41q49 -55 49 -131q0 -33 -13 -78q6 0 16.5 -1t16.5 -1h35v-111q-43 0 -61 3q-37 4 -54 6q-37 -63 -100 -105q-182 -123 -311 -123zM285 1628q0 -35 41 -53 q8 -4 41 -16q0 2 2 7t4 7q8 18 8 45q0 33 -14 47t-34.5 14t-30.5 -10q-17 -12 -17 -41zM-18 0v184h575v-184h-575z" />
<glyph unicode="&#xfe7a;" horiz-adv-x="538" arabic-form="isolated" d="M9 -170l526 129v-109l-526 -131v111z" />
<glyph unicode="&#xfe7b;" horiz-adv-x="538" arabic-form="medial" d="M9 -170l526 129v-109l-526 -131v111zM-18 0v184h575v-184h-575z" />
<glyph unicode="&#xfe7c;" horiz-adv-x="538" arabic-form="isolated" d="M-10 1450q0 117 15 209h88q-10 -139 -11 -182q0 -82 23 -117q18 -27 61 -6q55 25 60 194q2 55 2 170h86q2 -25 2 -90q0 -195 80 -194q63 0 63 174q0 123 -10 172h92q10 -61 10 -189q0 -131 -24 -186q-41 -90 -115 -100q-65 -9 -92 24q-23 27 -35 82q-12 -74 -43 -115 q-53 -70 -113 -69q-72 0 -108 63q-31 52 -31 160z" />
<glyph unicode="&#xfe7d;" horiz-adv-x="538" arabic-form="medial" d="M-10 1450q0 117 15 209h88q-10 -139 -11 -182q0 -82 23 -117q18 -27 61 -6q55 25 60 194q2 55 2 170h86q2 -25 2 -90q0 -195 80 -194q63 0 63 174q0 123 -10 172h92q10 -61 10 -189q0 -131 -24 -186q-41 -90 -115 -100q-65 -9 -92 24q-23 27 -35 82q-12 -74 -43 -115 q-53 -70 -113 -69q-72 0 -108 63q-31 52 -31 160zM-18 0v184h575v-184h-575z" />
<glyph unicode="&#xfe7e;" horiz-adv-x="538" arabic-form="isolated" d="M23 1523.5q0 112.5 72 194.5q72 80 174 80q106 0 176 -80q72 -82 72 -194.5t-72 -194.5q-70 -80 -176 -80q-102 0 -174 80q-72 82 -72 194.5zM132 1523.5q0 -67.5 38 -108.5q40 -43 98.5 -43t98.5 43q39 41 39 109q0 66 -39 106q-41 45 -98 45q-58 0 -99 -43 q-38 -41 -38 -108.5z" />
<glyph unicode="&#xfe7f;" horiz-adv-x="538" arabic-form="medial" d="M-18 0v184h575v-184h-575zM23 1523.5q0 112.5 72 194.5q72 80 174 80q106 0 176 -80q72 -82 72 -194.5t-72 -194.5q-70 -80 -176 -80q-102 0 -174 80q-72 82 -72 194.5zM132 1523.5q0 -67.5 38 -108.5q40 -43 98.5 -43t98.5 43q39 41 39 109q0 66 -39 106q-41 45 -98 45 q-58 0 -99 -43q-38 -41 -38 -108.5z" />
<glyph unicode="&#x621;" horiz-adv-x="864" arabic-form="isolated" d="M147 86v174q33 4 117 33q74 27 109 51q-129 25 -174 100q-47 82 -47 164q0 66 18 140q29 119 119 182q86 59 178 59q102 0 178 -20v-187q-92 31 -151 29q-41 0 -91 -27q-86 -49 -86 -159q0 -115 181 -164q51 -14 102 0q66 18 119 53v-184q-72 -55 -266 -140 q-212 -90 -306 -104z" />
<glyph unicode="&#x622;" horiz-adv-x="512" arabic-form="isolated" d="M-68 1659v125l144 123q88 -80 153 -102q43 -14 86 -15q49 0 88 17q94 39 176 117v-125q-84 -66 -161 -93q-63 -23 -109 -22q-39 0 -98 16q-72 20 -131 88zM174 0v1556h166v-1556h-166z" />
<glyph unicode="&#x622;" horiz-adv-x="559" arabic-form="final" d="M174 371v1185h166v-1173q0 -106 43 -156q40 -43 129 -43h68v-184h-117q-139 0 -211 92q-78 103 -78 279zM-68 1659v125l144 123q88 -80 153 -102q43 -14 86 -15q49 0 88 17q94 39 176 117v-125q-84 -66 -161 -93q-63 -23 -109 -22q-39 0 -98 16q-72 20 -131 88z" />
<glyph unicode="&#x623;" horiz-adv-x="512" arabic-form="isolated" d="M99 1665v101l69 18q-39 20 -53 55t-14 82q0 96 49 139q51 45 135 45q57 0 102 -32v-101q-45 33 -102 33q-61 0 -76 -16q-25 -31 -24 -60q0 -76 84 -102q29 -10 137 18v-102zM174 0v1556h166v-1556h-166z" />
<glyph unicode="&#x623;" horiz-adv-x="559" arabic-form="final" d="M174 371v1185h166v-1173q0 -106 43 -156q40 -43 129 -43h68v-184h-117q-139 0 -211 92q-78 103 -78 279zM99 1665v101l69 18q-39 20 -53 55t-14 82q0 96 49 139q51 45 135 45q57 0 102 -32v-101q-45 33 -102 33q-61 0 -76 -16q-25 -31 -24 -60q0 -76 84 -102 q29 -10 137 18v-102z" />
<glyph unicode="&#x624;" horiz-adv-x="888" arabic-form="isolated" d="M249 763v101l69 18q-39 20 -53 55t-14 82q0 96 49 139q51 45 135 45q57 0 102 -32v-101q-45 33 -102 33q-61 0 -76 -16q-25 -31 -24 -60q0 -76 84 -102q29 -10 137 18v-102zM-76 -315q324 0 443 75q152 96 206 242q-100 0 -145 10q-135 34 -172 68q-104 98 -104 235 q0 141 79 228q94 102 218 102q84 0 145 -49q119 -90 139 -234q16 -109 17 -178q0 -307 -156 -469q-82 -84 -168 -129q-172 -86 -502 -86v185zM328 326q0 -53 45 -99q43 -43 215 -43q0 182 -78 242q-37 27 -66 27q-57 0 -96 -58q-20 -32 -20 -69z" />
<glyph unicode="&#x624;" horiz-adv-x="950" arabic-form="final" d="M-76 -315q324 0 443 75q152 96 206 242q-96 2 -145 10q-126 25 -172 68q-96 90 -104 223q-2 23 8 88q25 158 182 232q47 23 113 22q82 -4 139 -49q117 -90 139 -234q14 -92 17 -178h221v-184h-174h-64q-20 -154 -139 -285q-74 -84 -168 -129q-172 -86 -502 -86v185z M330 356q-15 -74 43 -129q43 -40 215 -43q0 78 -15 133q-20 78 -63 109q-55 41 -109 16q-59 -27 -71 -86zM249 763v101l69 18q-39 20 -53 55t-14 82q0 96 49 139q51 45 135 45q57 0 102 -32v-101q-45 33 -102 33q-61 0 -76 -16q-25 -31 -24 -60q0 -76 84 -102q29 -10 137 18 v-102z" />
<glyph unicode="&#x625;" horiz-adv-x="512" arabic-form="isolated" d="M99 -502v101l69 18q-39 20 -53 55t-14 82q0 96 49 139q51 45 135 45q57 0 102 -32v-101q-45 33 -102 33q-61 0 -76 -16q-25 -31 -24 -60q0 -76 84 -102q29 -10 137 18v-102zM174 0v1556h166v-1556h-166z" />
<glyph unicode="&#x625;" horiz-adv-x="559" arabic-form="final" d="M174 371v1185h166v-1173q0 -106 43 -156q40 -43 129 -43h68v-184h-117q-139 0 -211 92q-78 103 -78 279zM99 -502v101l69 18q-39 20 -53 55t-14 82q0 96 49 139q51 45 135 45q57 0 102 -32v-101q-45 33 -102 33q-61 0 -76 -16q-25 -31 -24 -60q0 -76 84 -102 q29 -10 137 18v-102z" />
<glyph unicode="&#x626;" horiz-adv-x="1441" arabic-form="isolated" d="M294 763v101l69 18q-39 20 -53 55t-14 82q0 96 49 139q51 45 135 45q57 0 102 -32v-101q-45 33 -102 33q-61 0 -76 -16q-25 -31 -24 -60q0 -76 84 -102q29 -10 137 18v-102zM117 123q0 117 57 229h166q-59 -135 -59 -229q2 -147 149 -193q94 -27 141 -20q135 14 232 35 q158 33 233 112q53 57 54 111q0 76 -113 102q-61 16 -164 62q-59 27 -111 78q-59 59 -59 172q0 150 170 223q86 37 180 37q98 0 181 -41q127 -61 151 -236h-166q-12 61 -72 94q-33 18 -98 23q-70 2 -125 -37q-53 -35 -53 -72q0 -55 111 -98q223 -82 274 -145q70 -88 72 -174 q0 -72 -39 -144q-94 -170 -400 -243q-160 -37 -268 -37q-115 0 -180 24q-264 105 -264 367z" />
<glyph unicode="&#x626;" horiz-adv-x="1536" arabic-form="final" d="M117 133q0 156 57 244h166q-59 -90 -59 -244q0 -115 149 -190q61 -31 221 -31q106 0 152 6q131 14 186 49q82 51 82 84q0 43 -43 55q-23 8 -51 50q-41 59 -41 118q0 61 47 125q68 92 147 109q29 6 64 6q106 0 184 -133q113 -197 146 -197h30v-184h-30q-102 0 -205 172 q-98 166 -121 166q-33 0 -45 -6q-41 -18 -41 -53q0 -45 59 -74q65 -31 68 -154q3 -98 -98 -184q-115 -96 -312 -127q-80 -12 -174 -12q-168 0 -274 41q-264 104 -264 364zM384 514v101l69 18q-39 20 -53 55t-14 82q0 96 49 139q51 45 135 45q57 0 102 -32v-101 q-45 33 -102 33q-61 0 -76 -16q-25 -31 -24 -60q0 -76 84 -102q29 -10 137 18v-102z" />
<glyph unicode="&#x626;" horiz-adv-x="512" arabic-form="initial" d="M-18 0v184h32q88 0 127 43q45 51 45 156v217h166v-217q0 -184 -84 -297q-63 -86 -205 -86h-81zM111 815v101l69 18q-39 20 -53 55t-14 82q0 96 49 139q51 45 135 45q57 0 102 -32v-101q-45 33 -102 33q-61 0 -76 -16q-25 -31 -24 -60q0 -76 84 -102q29 -10 137 18v-102z " />
<glyph unicode="&#x626;" horiz-adv-x="555" arabic-form="medial" d="M-18 0v184h32q88 0 127 43q45 51 45 156v217h166v-217q0 -106 43 -156q40 -43 129 -43h49v-184h-98q-135 0 -207 86q-68 -86 -205 -86h-81zM111 815v101l69 18q-39 20 -53 55t-14 82q0 96 49 139q51 45 135 45q57 0 102 -32v-101q-45 33 -102 33q-61 0 -76 -16 q-25 -31 -24 -60q0 -76 84 -102q29 -10 137 18v-102z" />
<glyph unicode="&#x627;" horiz-adv-x="512" arabic-form="isolated" d="M174 0v1556h166v-1556h-166z" />
<glyph unicode="&#x627;" horiz-adv-x="559" arabic-form="final" d="M174 371v1185h166v-1173q0 -106 43 -156q40 -43 129 -43h68v-184h-117q-139 0 -211 92q-78 103 -78 279z" />
<glyph unicode="&#x628;" horiz-adv-x="1734" arabic-form="isolated" d="M741 -350v150h135v-150h-135zM117 383q0 139 57 229h166q-59 -96 -59 -229q0 -125 184 -193q90 -33 227 -32q182 0 406 55q229 55 291 168q49 92 49 168q0 57 -23 121h164q14 -84 14 -160q0 -137 -67 -238q-115 -168 -402 -233q-262 -59 -422 -59q-166 0 -288 38 q-297 99 -297 365z" />
<glyph unicode="&#x628;" horiz-adv-x="1808" arabic-form="final" d="M117 383q0 139 57 229h166q-59 -96 -59 -229q0 -125 184 -193q90 -33 227 -32q244 4 406 55q178 57 291 168q53 53 53 172q0 57 -27 117h164q18 -74 18 -166q0 -207 64 -266q59 -53 113 -54h55v-184h-92q-102 0 -168 74q-74 86 -94 147q-135 -129 -351 -182 q-238 -59 -422 -59q-172 0 -288 38q-297 103 -297 365zM741 -350v150h135v-150h-135z" />
<glyph unicode="&#x628;" horiz-adv-x="512" arabic-form="initial" d="M-18 0v184h32q88 0 127 43q45 51 45 156v217h166v-217q0 -184 -84 -297q-63 -86 -205 -86h-81zM203 -299v150h135v-150h-135z" />
<glyph unicode="&#x628;" horiz-adv-x="555" arabic-form="medial" d="M-18 0v184h32q88 0 127 43q45 51 45 156v217h166v-217q0 -106 43 -156q40 -43 129 -43h49v-184h-98q-135 0 -207 86q-68 -86 -205 -86h-81zM203 -299v150h135v-150h-135z" />
<glyph unicode="&#x629;" horiz-adv-x="964" arabic-form="isolated" d="M225 899v150h135v-150h-135zM450 899v150h135v-150h-135zM125 291q0 184 33 258q77 184 209 184q178 0 342 -160q127 -123 127 -272q0 -201 -134 -274q-143 -84 -268 -84q-84 0 -160 34q-149 74 -149 314zM287 274q0 -80 51 -124q55 -45 102 -46q84 0 166 58 q68 47 68 131q0 76 -60 141q-111 121 -215 121q-61 0 -90 -88q-22 -62 -22 -193z" />
<glyph unicode="&#x629;" horiz-adv-x="987" arabic-form="final" d="M129 285q0 174 184 301q96 66 236 82l-6 82h164q0 -162 34 -342q16 -94 70 -181q29 -43 127 -43h68v-184h-117q-84 0 -148 51q-39 31 -73 90q-123 -74 -265 -73q-47 0 -102 16q-172 49 -172 201zM281 295q0 -43 81.5 -67.5t245.5 55.5q-16 57 -24.5 90t-22.5 151 q-109 -12 -182 -80q-100 -88 -98 -149zM315 899v150h135v-150h-135zM540 899v150h135v-150h-135z" />
<glyph unicode="&#x62a;" horiz-adv-x="1734" arabic-form="isolated" d="M631 649v150h135v-150h-135zM856 649v150h135v-150h-135zM117 383q0 139 57 229h166q-59 -96 -59 -229q0 -125 184 -193q90 -33 227 -32q182 0 406 55q229 55 291 168q49 92 49 168q0 57 -23 121h164q14 -84 14 -160q0 -137 -67 -238q-115 -168 -402 -233 q-262 -59 -422 -59q-166 0 -288 38q-297 99 -297 365z" />
<glyph unicode="&#x62a;" horiz-adv-x="1808" arabic-form="final" d="M117 383q0 139 57 229h166q-59 -96 -59 -229q0 -125 184 -193q90 -33 227 -32q244 4 406 55q178 57 291 168q53 53 53 172q0 57 -27 117h164q18 -74 18 -166q0 -207 64 -266q59 -53 113 -54h55v-184h-92q-102 0 -168 74q-74 86 -94 147q-135 -129 -351 -182 q-238 -59 -422 -59q-172 0 -288 38q-297 103 -297 365zM631 649v150h135v-150h-135zM856 649v150h135v-150h-135z" />
<glyph unicode="&#x62a;" horiz-adv-x="512" arabic-form="initial" d="M-18 0v184h32q88 0 127 43q45 51 45 156v217h166v-217q0 -184 -84 -297q-63 -86 -205 -86h-81zM88 850v150h135v-150h-135zM313 850v150h135v-150h-135z" />
<glyph unicode="&#x62a;" horiz-adv-x="555" arabic-form="medial" d="M-18 0v184h32q88 0 127 43q45 51 45 156v217h166v-217q0 -106 43 -156q40 -43 129 -43h49v-184h-98q-135 0 -207 86q-68 -86 -205 -86h-81zM88 850v150h135v-150h-135zM313 850v150h135v-150h-135z" />
<glyph unicode="&#x62b;" horiz-adv-x="1734" arabic-form="isolated" d="M631 649v150h135v-150h-135zM744 899v149h135v-149h-135zM856 649v150h135v-150h-135zM117 383q0 139 57 229h166q-59 -96 -59 -229q0 -125 184 -193q90 -33 227 -32q182 0 406 55q229 55 291 168q49 92 49 168q0 57 -23 121h164q14 -84 14 -160q0 -137 -67 -238 q-115 -168 -402 -233q-262 -59 -422 -59q-166 0 -288 38q-297 99 -297 365z" />
<glyph unicode="&#x62b;" horiz-adv-x="1808" arabic-form="final" d="M117 383q0 139 57 229h166q-59 -96 -59 -229q0 -125 184 -193q90 -33 227 -32q244 4 406 55q178 57 291 168q53 53 53 172q0 57 -27 117h164q18 -74 18 -166q0 -207 64 -266q59 -53 113 -54h55v-184h-92q-102 0 -168 74q-74 86 -94 147q-135 -129 -351 -182 q-238 -59 -422 -59q-172 0 -288 38q-297 103 -297 365zM631 649v150h135v-150h-135zM744 899v149h135v-149h-135zM856 649v150h135v-150h-135z" />
<glyph unicode="&#x62b;" horiz-adv-x="512" arabic-form="initial" d="M-18 0v184h32q88 0 127 43q45 51 45 156v217h166v-217q0 -184 -84 -297q-63 -86 -205 -86h-81zM88 850v150h135v-150h-135zM201 1100v149h135v-149h-135zM313 850v150h135v-150h-135z" />
<glyph unicode="&#x62b;" horiz-adv-x="555" arabic-form="medial" d="M-18 0v184h32q88 0 127 43q45 51 45 156v217h166v-217q0 -106 43 -156q40 -43 129 -43h49v-184h-98q-135 0 -207 86q-68 -86 -205 -86h-81zM88 850v150h135v-150h-135zM201 1100v149h135v-149h-135zM313 850v150h135v-150h-135z" />
<glyph unicode="&#x62c;" horiz-adv-x="1187" arabic-form="isolated" d="M698 25v150h135v-150h-135zM141 623v184q246 63 424 63q262 0 439 -55v-153q-262 0 -457 -166q-203 -178 -203 -437q0 -129 68 -229q117 -166 411 -166q170 0 365 119v-184q-135 -98 -361 -99q-377 0 -528 195q-117 150 -117 373q0 256 191 481q86 101 209 153 q-74 0 -234 -20q-117 -16 -207 -59z" />
<glyph unicode="&#x62c;" horiz-adv-x="1187" arabic-form="final" d="M141 623v184q242 63 418 63q264 0 445 -55v-153q-98 0 -125 -13l24 -92q45 -154 113 -254q80 -119 155 -119h37v-184h-45q-115 0 -225 150q-76 102 -129 256l-72 192q-102 -25 -190 -102q-203 -186 -203 -437q0 -129 68 -229q119 -166 411 -166q170 0 365 119v-184 q-135 -98 -361 -99q-377 0 -528 195q-117 150 -117 373q0 256 191 481q86 101 209 153h-23q-72 0 -211 -20q-119 -18 -207 -59zM631 -49v150h135v-150h-135z" />
<glyph unicode="&#x62c;" horiz-adv-x="1138" arabic-form="initial" d="M-18 0v184h90q201 0 319 72q98 59 199 164q88 88 176 121q-135 39 -168 47q-86 20 -238 35q-74 6 -219 0v184q86 8 133 8q141 0 299 -35q238 -53 431 -149v-156q-72 -27 -148 -76q-147 -96 -215 -163q-131 -127 -199 -156q-201 -80 -346 -80h-114zM471 -299v150h135v-150 h-135z" />
<glyph unicode="&#x62c;" horiz-adv-x="1187" arabic-form="medial" d="M-18 0v184h90q201 0 319 72q98 59 199 164q88 88 176 121q-135 39 -168 47q-86 20 -238 35q-74 6 -219 0v184q86 8 133 8q141 0 299 -35q238 -53 431 -149v-156q-66 -25 -123 -59q57 -94 71 -113q94 -119 197 -119h59v-184h-78q-188 0 -301 168q-47 72 -90 151 q-57 -43 -98 -83q-131 -127 -199 -156q-201 -80 -346 -80h-114zM471 -299v150h135v-150h-135z" />
<glyph unicode="&#x62d;" horiz-adv-x="1187" arabic-form="isolated" d="M141 623v184q246 63 424 63q262 0 439 -55v-153q-262 0 -457 -166q-203 -178 -203 -437q0 -129 68 -229q117 -166 411 -166q170 0 365 119v-184q-135 -98 -361 -99q-377 0 -528 195q-117 150 -117 373q0 256 191 481q86 101 209 153q-74 0 -234 -20q-117 -16 -207 -59z " />
<glyph unicode="&#x62d;" horiz-adv-x="1187" arabic-form="final" d="M141 623v184q242 63 418 63q264 0 445 -55v-153q-98 0 -125 -13l24 -92q45 -154 113 -254q80 -119 155 -119h37v-184h-45q-115 0 -225 150q-76 102 -129 256l-72 192q-102 -25 -190 -102q-203 -186 -203 -437q0 -129 68 -229q119 -166 411 -166q170 0 365 119v-184 q-135 -98 -361 -99q-377 0 -528 195q-117 150 -117 373q0 256 191 481q86 101 209 153h-23q-72 0 -211 -20q-119 -18 -207 -59z" />
<glyph unicode="&#x62d;" horiz-adv-x="1138" arabic-form="initial" d="M-18 0v184h90q201 0 319 72q98 59 199 164q88 88 176 121q-135 39 -168 47q-86 20 -238 35q-74 6 -219 0v184q86 8 133 8q141 0 299 -35q238 -53 431 -149v-156q-72 -27 -148 -76q-147 -96 -215 -163q-131 -127 -199 -156q-201 -80 -346 -80h-114z" />
<glyph unicode="&#x62d;" horiz-adv-x="1187" arabic-form="medial" d="M-18 0v184h90q201 0 319 72q98 59 199 164q88 88 176 121q-135 39 -168 47q-86 20 -238 35q-74 6 -219 0v184q86 8 133 8q141 0 299 -35q238 -53 431 -149v-156q-66 -25 -123 -59q57 -94 71 -113q94 -119 197 -119h59v-184h-78q-188 0 -301 168q-47 72 -90 151 q-57 -43 -98 -83q-131 -127 -199 -156q-201 -80 -346 -80h-114z" />
<glyph unicode="&#x62e;" horiz-adv-x="1187" arabic-form="isolated" d="M518 1051v150h135v-150h-135zM141 623v184q246 63 424 63q262 0 439 -55v-153q-262 0 -457 -166q-203 -178 -203 -437q0 -129 68 -229q117 -166 411 -166q170 0 365 119v-184q-135 -98 -361 -99q-377 0 -528 195q-117 150 -117 373q0 256 191 481q86 101 209 153 q-74 0 -234 -20q-117 -16 -207 -59z" />
<glyph unicode="&#x62e;" horiz-adv-x="1187" arabic-form="final" d="M141 623v184q242 63 418 63q264 0 445 -55v-153q-98 0 -125 -13l24 -92q45 -154 113 -254q80 -119 155 -119h37v-184h-45q-115 0 -225 150q-76 102 -129 256l-72 192q-102 -25 -190 -102q-203 -186 -203 -437q0 -129 68 -229q119 -166 411 -166q170 0 365 119v-184 q-135 -98 -361 -99q-377 0 -528 195q-117 150 -117 373q0 256 191 481q86 101 209 153h-23q-72 0 -211 -20q-119 -18 -207 -59zM518 1051v150h135v-150h-135z" />
<glyph unicode="&#x62e;" horiz-adv-x="1138" arabic-form="initial" d="M-18 0v184h90q201 0 319 72q98 59 199 164q88 88 176 121q-135 39 -168 47q-86 20 -238 35q-74 6 -219 0v184q86 8 133 8q141 0 299 -35q238 -53 431 -149v-156q-72 -27 -148 -76q-147 -96 -215 -163q-131 -127 -199 -156q-201 -80 -346 -80h-114zM471 950v150h135v-150 h-135z" />
<glyph unicode="&#x62e;" horiz-adv-x="1187" arabic-form="medial" d="M-18 0v184h90q201 0 319 72q98 59 199 164q88 88 176 121q-135 39 -168 47q-86 20 -238 35q-74 6 -219 0v184q86 8 133 8q141 0 299 -35q238 -53 431 -149v-156q-66 -25 -123 -59q57 -94 71 -113q94 -119 197 -119h59v-184h-78q-188 0 -301 168q-47 72 -90 151 q-57 -43 -98 -83q-131 -127 -199 -156q-201 -80 -346 -80h-114zM471 950v150h135v-150h-135z" />
<glyph unicode="&#x62f;" horiz-adv-x="819" arabic-form="isolated" d="M113 0v184q104 -43 180 -43q25 0 59 11q156 49 187 159q6 29 6 70q0 82 -53 194q-57 125 -216 275h205q96 -88 160 -215q76 -156 76 -256q0 -92 -31 -174q-72 -197 -307 -236q-53 -8 -82 -8q-88 0 -184 39z" />
<glyph unicode="&#x62f;" horiz-adv-x="966" arabic-form="final" d="M113 0v184q104 -43 180 -43q25 0 59 11q156 49 187 159q6 29 6 70q0 74 -53 194q-51 119 -216 275h205q86 -77 160 -215q74 -135 74 -250q0 -74 73 -158q40 -43 130 -43h67v-184h-117q-133 0 -219 129q-80 -125 -270 -160q-53 -8 -82 -8q-88 0 -184 39z" />
<glyph unicode="&#x630;" horiz-adv-x="819" arabic-form="isolated" d="M293 1051v150h135v-150h-135zM113 0v184q104 -43 180 -43q25 0 59 11q156 49 187 159q6 29 6 70q0 82 -53 194q-57 125 -216 275h205q96 -88 160 -215q76 -156 76 -256q0 -92 -31 -174q-72 -197 -307 -236q-53 -8 -82 -8q-88 0 -184 39z" />
<glyph unicode="&#x630;" horiz-adv-x="966" arabic-form="final" d="M113 0v184q104 -43 180 -43q25 0 59 11q156 49 187 159q6 29 6 70q0 74 -53 194q-51 119 -216 275h205q86 -77 160 -215q74 -135 74 -250q0 -74 73 -158q40 -43 130 -43h67v-184h-117q-133 0 -219 129q-80 -125 -270 -160q-53 -8 -82 -8q-88 0 -184 39zM293 1051v150h135 v-150h-135z" />
<glyph unicode="&#x631;" horiz-adv-x="888" arabic-form="isolated" d="M-76 -315q274 0 457 127q197 139 227 346q8 51 8 131q0 125 -47 262h164q45 -115 45 -252q0 -82 -6 -143q-39 -348 -303 -504q-256 -152 -545 -152v185z" />
<glyph unicode="&#x631;" horiz-adv-x="1015" arabic-form="final" d="M-76 -315q274 0 457 127q197 139 227 346q8 51 8 131q0 125 -47 262h164q27 -109 31 -143q8 -100 76 -181q37 -43 129 -43h65v-184h-116q-115 0 -162 61q-61 -279 -287 -409q-256 -152 -545 -152v185z" />
<glyph unicode="&#x632;" horiz-adv-x="888" arabic-form="isolated" d="M561 801v150h135v-150h-135zM-76 -315q274 0 457 127q197 139 227 346q8 51 8 131q0 125 -47 262h164q45 -115 45 -252q0 -82 -6 -143q-39 -348 -303 -504q-256 -152 -545 -152v185z" />
<glyph unicode="&#x632;" horiz-adv-x="1015" arabic-form="final" d="M-76 -315q274 0 457 127q197 139 227 346q8 51 8 131q0 125 -47 262h164q27 -109 31 -143q8 -100 76 -181q37 -43 129 -43h65v-184h-116q-115 0 -162 61q-61 -279 -287 -409q-256 -152 -545 -152v185zM561 801v150h135v-150h-135z" />
<glyph unicode="&#x633;" horiz-adv-x="2248" arabic-form="isolated" d="M117 -72q0 244 96 426h164q-96 -201 -96 -426q0 -180 133 -217q86 -25 157 -24q88 0 174 37q109 49 195 206q55 102 55 250q0 129 -14 187l-57 233h166l30 -156q14 -68 41 -135q51 -129 158 -129q74 0 113 123q33 100 32 297h166q0 -213 17 -256q57 -168 157 -168 q127 0 127 281v293h166v-342q0 -197 -84 -312q-68 -92 -158 -116q-31 -8 -63 -9q-66 0 -109 25q-125 72 -139 192q-43 -158 -129 -188q-47 -16 -108 -18q-119 -6 -158 61q-20 -176 -98 -285q-121 -172 -293 -231q-76 -27 -180 -27q-111 0 -213 29q-248 71 -248 399z" />
<glyph unicode="&#x633;" horiz-adv-x="2347" arabic-form="final" d="M117 -72q0 244 96 426h164q-96 -201 -96 -426q0 -180 133 -217q86 -25 157 -24q88 0 174 37q109 49 195 206q55 102 55 250q0 129 -14 187l-57 233h166l30 -156q14 -68 41 -135q51 -125 158 -129q35 -2 62.5 30t50.5 93q33 92 32 297h166q0 -213 17 -256 q57 -168 157 -168q127 0 127 281v293h166v-342q0 -94 76 -181q39 -43 127 -43h67v-184h-116q-129 0 -238 96q-61 -92 -158 -116q-31 -8 -63 -9q-66 0 -109 25q-125 72 -139 192q-43 -158 -129 -188q-59 -23 -108 -18q-123 2 -158 61q-20 -176 -98 -285q-121 -172 -293 -231 q-76 -27 -180 -27q-111 0 -213 29q-248 71 -248 399z" />
<glyph unicode="&#x633;" arabic-form="initial" d="M-18 0v184h67q89 0 129 43q72 82 72 181v192h166v-156q0 -66 39 -163q41 -100 133 -101q96 0 137 123q35 109 35 297h164q0 -213 16 -256q57 -168 158 -168q129 4 129 281v293h164v-342q0 -199 -82 -312q-68 -92 -160 -116q-31 -8 -66 -9q-55 0 -104 25q-125 61 -139 192 q-43 -154 -131 -188q-61 -25 -119 -25q-89 0 -154 50q-53 39 -90 112q-41 -61 -90 -92q-66 -45 -158 -45h-116z" />
<glyph unicode="&#x633;" horiz-adv-x="1642" arabic-form="medial" d="M-18 0v184h67q89 0 129 43q72 82 72 181v192h166v-156q0 -66 39 -163q41 -100 133 -101q96 0 137 123q35 109 35 297h164q0 -213 16 -256q57 -168 158 -168q129 4 129 281v293h164v-342q0 -94 75 -181q40 -43 129 -43h68v-184h-119q-127 0 -235 96q-63 -92 -160 -116 q-31 -8 -66 -9q-55 0 -104 25q-125 61 -139 192q-43 -154 -131 -188q-61 -25 -119 -25q-89 0 -154 50q-53 39 -90 112q-41 -61 -90 -92q-66 -45 -158 -45h-116z" />
<glyph unicode="&#x634;" horiz-adv-x="2248" arabic-form="isolated" d="M1124 801v150h135v-150h-135zM1237 1051v149h135v-149h-135zM1349 801v150h135v-150h-135zM117 -72q0 244 96 426h164q-96 -201 -96 -426q0 -180 133 -217q86 -25 157 -24q88 0 174 37q109 49 195 206q55 102 55 250q0 129 -14 187l-57 233h166l30 -156q14 -68 41 -135 q51 -129 158 -129q74 0 113 123q33 100 32 297h166q0 -213 17 -256q57 -168 157 -168q127 0 127 281v293h166v-342q0 -197 -84 -312q-68 -92 -158 -116q-31 -8 -63 -9q-66 0 -109 25q-125 72 -139 192q-43 -158 -129 -188q-47 -16 -108 -18q-119 -6 -158 61 q-20 -176 -98 -285q-121 -172 -293 -231q-76 -27 -180 -27q-111 0 -213 29q-248 71 -248 399z" />
<glyph unicode="&#x634;" horiz-adv-x="2347" arabic-form="final" d="M117 -72q0 244 96 426h164q-96 -201 -96 -426q0 -180 133 -217q86 -25 157 -24q88 0 174 37q109 49 195 206q55 102 55 250q0 129 -14 187l-57 233h166l30 -156q14 -68 41 -135q51 -125 158 -129q35 -2 62.5 30t50.5 93q33 92 32 297h166q0 -213 17 -256 q57 -168 157 -168q127 0 127 281v293h166v-342q0 -94 76 -181q39 -43 127 -43h67v-184h-116q-129 0 -238 96q-61 -92 -158 -116q-31 -8 -63 -9q-66 0 -109 25q-125 72 -139 192q-43 -158 -129 -188q-59 -23 -108 -18q-123 2 -158 61q-20 -176 -98 -285q-121 -172 -293 -231 q-76 -27 -180 -27q-111 0 -213 29q-248 71 -248 399zM1124 801v150h135v-150h-135zM1237 1051v149h135v-149h-135zM1349 801v150h135v-150h-135z" />
<glyph unicode="&#x634;" arabic-form="initial" d="M-18 0v184h67q89 0 129 43q72 82 72 181v192h166v-156q0 -66 39 -163q41 -100 133 -101q96 0 137 123q35 109 35 297h164q0 -213 16 -256q57 -168 158 -168q129 4 129 281v293h164v-342q0 -199 -82 -312q-68 -92 -160 -116q-31 -8 -66 -9q-55 0 -104 25q-125 61 -139 192 q-43 -154 -131 -188q-61 -25 -119 -25q-89 0 -154 50q-53 39 -90 112q-41 -61 -90 -92q-66 -45 -158 -45h-116zM586 801v150h135v-150h-135zM699 1051v149h135v-149h-135zM811 801v150h135v-150h-135z" />
<glyph unicode="&#x634;" horiz-adv-x="1642" arabic-form="medial" d="M-18 0v184h67q89 0 129 43q72 82 72 181v192h166v-156q0 -66 39 -163q41 -100 133 -101q96 0 137 123q35 109 35 297h164q0 -213 16 -256q57 -168 158 -168q129 4 129 281v293h164v-342q0 -94 75 -181q40 -43 129 -43h68v-184h-119q-127 0 -235 96q-63 -92 -160 -116 q-31 -8 -66 -9q-55 0 -104 25q-125 61 -139 192q-43 -154 -131 -188q-61 -25 -119 -25q-89 0 -154 50q-53 39 -90 112q-41 -61 -90 -92q-66 -45 -158 -45h-116zM586 801v150h135v-150h-135zM699 1051v149h135v-149h-135zM811 801v150h135v-150h-135z" />
<glyph unicode="&#x635;" horiz-adv-x="2226" arabic-form="isolated" d="M117 -72q0 244 96 426h164q-96 -201 -96 -426q0 -180 133 -217q86 -25 157 -24q92 0 174 37q145 68 187 206q29 111 29 236q0 141 -35 285h153q0 -14 13 -70q10 -43 45 -90q106 152 213 254q111 109 229 164q68 33 145 32q115 -4 199 -39q168 -70 168 -305 q0 -169 -166 -276q-182 -121 -436 -121h-250q-35 0 -82 31q-39 25 -39 41q0 -184 -67 -314q-82 -156 -293 -231q-76 -27 -180 -27q-111 0 -213 29q-248 71 -248 399zM1260 184h167q215 0 330 64q168 92 168 160q-4 135 -125 153q-35 6 -76 6q-66 0 -182 -82 q-155 -113 -282 -301z" />
<glyph unicode="&#x635;" horiz-adv-x="2256" arabic-form="final" d="M117 -72q0 244 96 426h164q-96 -201 -96 -426q0 -180 133 -217q86 -25 157 -24q92 0 174 37q145 68 187 206q29 111 29 236q0 141 -35 285h153q0 -14 13 -70q10 -43 45 -90q106 152 213 254q94 92 229 164q63 33 145 32q115 -4 199 -39q168 -70 168 -305q0 -72 -39 -145 q8 -8 29 -25q55 -43 129 -43h65v-184h-116q-119 0 -211 92l-25 27q-188 -119 -434 -119h-250q-35 0 -82 31q-39 25 -39 41q0 -184 -67 -314q-82 -156 -293 -231q-76 -27 -180 -27q-111 0 -213 29q-248 71 -248 399zM1260 184h167q215 0 330 64q168 92 168 160 q-4 135 -125 153q-35 6 -76 6q-66 0 -182 -82q-155 -113 -282 -301z" />
<glyph unicode="&#x635;" horiz-adv-x="1564" arabic-form="initial" d="M-18 0v184h67q89 0 129 43q72 82 72 181v114h166v-78q0 -29 8 -63q10 -45 47 -90q90 133 178 217q135 135 266 201q66 33 146 32q106 0 199 -39q168 -68 167 -305q0 -169 -165 -276q-182 -121 -439 -121h-248q-68 0 -137 43q-59 35 -92 94q-92 -137 -248 -137h-116z M598 184h168q215 0 328 64q168 92 168 160q0 135 -125 153q-35 6 -76 6q-66 0 -182 -82q-152 -108 -281 -301z" />
<glyph unicode="&#x635;" horiz-adv-x="1597" arabic-form="medial" d="M-18 0v184h67q89 0 129 43q72 82 72 181v114h166v-78q0 -29 8 -63q10 -45 47 -90q90 133 178 217q135 135 266 201q66 33 146 32q102 0 199 -39q172 -68 172 -305q0 -72 -39 -145q16 -16 26 -25q55 -43 129 -43h68v-184h-117q-119 0 -211 92l-24 27q-188 -119 -437 -119 h-252q-68 0 -137 43q-59 35 -92 94q-92 -137 -248 -137h-116zM598 184h168q215 0 328 64q168 92 168 160q0 135 -125 153q-35 6 -76 6q-66 0 -182 -82q-152 -108 -281 -301z" />
<glyph unicode="&#x636;" horiz-adv-x="2226" arabic-form="isolated" d="M1149 801v150h135v-150h-135zM117 -72q0 244 96 426h164q-96 -201 -96 -426q0 -180 133 -217q86 -25 157 -24q92 0 174 37q145 68 187 206q29 111 29 236q0 141 -35 285h153q0 -14 13 -70q10 -43 45 -90q106 152 213 254q111 109 229 164q68 33 145 32q115 -4 199 -39 q168 -70 168 -305q0 -169 -166 -276q-182 -121 -436 -121h-250q-35 0 -82 31q-39 25 -39 41q0 -184 -67 -314q-82 -156 -293 -231q-76 -27 -180 -27q-111 0 -213 29q-248 71 -248 399zM1260 184h167q215 0 330 64q168 92 168 160q-4 135 -125 153q-35 6 -76 6 q-66 0 -182 -82q-155 -113 -282 -301z" />
<glyph unicode="&#x636;" horiz-adv-x="2256" arabic-form="final" d="M117 -72q0 244 96 426h164q-96 -201 -96 -426q0 -180 133 -217q86 -25 157 -24q92 0 174 37q145 68 187 206q29 111 29 236q0 141 -35 285h153q0 -14 13 -70q10 -43 45 -90q106 152 213 254q94 92 229 164q63 33 145 32q115 -4 199 -39q168 -70 168 -305q0 -72 -39 -145 q8 -8 29 -25q55 -43 129 -43h65v-184h-116q-119 0 -211 92l-25 27q-188 -119 -434 -119h-250q-35 0 -82 31q-39 25 -39 41q0 -184 -67 -314q-82 -156 -293 -231q-76 -27 -180 -27q-111 0 -213 29q-248 71 -248 399zM1260 184h167q215 0 330 64q168 92 168 160 q-4 135 -125 153q-35 6 -76 6q-66 0 -182 -82q-155 -113 -282 -301zM1149 801v150h135v-150h-135z" />
<glyph unicode="&#x636;" horiz-adv-x="1564" arabic-form="initial" d="M-18 0v184h67q89 0 129 43q72 82 72 181v114h166v-78q0 -29 8 -63q10 -45 47 -90q90 133 178 217q135 135 266 201q66 33 146 32q106 0 199 -39q168 -68 167 -305q0 -169 -165 -276q-182 -121 -439 -121h-248q-68 0 -137 43q-59 35 -92 94q-92 -137 -248 -137h-116z M598 184h168q215 0 328 64q168 92 168 160q0 135 -125 153q-35 6 -76 6q-66 0 -182 -82q-152 -108 -281 -301zM428 801v150h135v-150h-135z" />
<glyph unicode="&#x636;" horiz-adv-x="1597" arabic-form="medial" d="M-18 0v184h67q89 0 129 43q72 82 72 181v114h166v-78q0 -29 8 -63q10 -45 47 -90q90 133 178 217q135 135 266 201q66 33 146 32q102 0 199 -39q172 -68 172 -305q0 -72 -39 -145q16 -16 26 -25q55 -43 129 -43h68v-184h-117q-119 0 -211 92l-24 27q-188 -119 -437 -119 h-252q-68 0 -137 43q-59 35 -92 94q-92 -137 -248 -137h-116zM598 184h168q215 0 328 64q168 92 168 160q0 135 -125 153q-35 6 -76 6q-66 0 -182 -82q-152 -108 -281 -301zM428 801v150h135v-150h-135z" />
<glyph unicode="&#x637;" horiz-adv-x="1703" arabic-form="isolated" d="M129 0v184h332v1372h166v-1265q194 319 442 418q80 33 143 32q111 0 201 -39q166 -68 166 -305q0 -170 -164 -276q-182 -121 -438 -121h-516h-332zM750 184h168q215 0 329 64q168 92 168 160q-4 135 -125 153q-33 6 -78 6q-70 0 -182 -82q-155 -117 -280 -301z" />
<glyph unicode="&#x637;" horiz-adv-x="1748" arabic-form="final" d="M129 0v184h332v1372h166v-1265q194 319 442 418q80 33 143 32q109 0 201 -39q168 -68 168 -305q0 -74 -37 -145q16 -16 27 -25q55 -43 129 -43h67v-184h-116q-119 0 -211 92l-25 27q-188 -119 -436 -119h-518h-332zM750 184h168q215 0 329 64q168 92 168 160 q-4 135 -125 153q-33 6 -78 6q-70 0 -182 -82q-155 -117 -280 -301z" />
<glyph unicode="&#x637;" horiz-adv-x="1466" arabic-form="initial" d="M-18 0v184h239v1372h166v-1265q193 317 444 418q80 33 146 32q106 0 199 -39q168 -68 167 -305q0 -169 -165 -276q-182 -121 -439 -121h-518h-239zM512 184h168q215 0 330 64q168 92 168 160q-4 135 -125 153q-33 6 -76 6q-70 0 -182 -82q-160 -120 -283 -301z" />
<glyph unicode="&#x637;" horiz-adv-x="1511" arabic-form="medial" d="M-18 0v184h239v1372h166v-1265q193 317 444 418q80 33 146 32q106 0 199 -39q170 -68 170 -305q0 -72 -39 -145q16 -16 26 -25q55 -43 129 -43h68v-184h-117q-119 0 -211 92l-24 27q-188 -119 -437 -119h-520h-239zM512 184h168q215 0 330 64q168 92 168 160 q-4 135 -125 153q-33 6 -76 6q-70 0 -182 -82q-160 -120 -283 -301z" />
<glyph unicode="&#x638;" horiz-adv-x="1703" arabic-form="isolated" d="M879 850v150h135v-150h-135zM129 0v184h332v1372h166v-1265q194 319 442 418q80 33 143 32q111 0 201 -39q166 -68 166 -305q0 -170 -164 -276q-182 -121 -438 -121h-516h-332zM750 184h168q215 0 329 64q168 92 168 160q-4 135 -125 153q-33 6 -78 6q-70 0 -182 -82 q-155 -117 -280 -301z" />
<glyph unicode="&#x638;" horiz-adv-x="1748" arabic-form="final" d="M129 0v184h332v1372h166v-1265q194 319 442 418q80 33 143 32q109 0 201 -39q168 -68 168 -305q0 -74 -37 -145q16 -16 27 -25q55 -43 129 -43h67v-184h-116q-119 0 -211 92l-25 27q-188 -119 -436 -119h-518h-332zM750 184h168q215 0 329 64q168 92 168 160 q-4 135 -125 153q-33 6 -78 6q-70 0 -182 -82q-155 -117 -280 -301zM879 850v150h135v-150h-135z" />
<glyph unicode="&#x638;" horiz-adv-x="1466" arabic-form="initial" d="M-18 0v184h239v1372h166v-1265q193 317 444 418q80 33 146 32q106 0 199 -39q168 -68 167 -305q0 -169 -165 -276q-182 -121 -439 -121h-518h-239zM512 184h168q215 0 330 64q168 92 168 160q-4 135 -125 153q-33 6 -76 6q-70 0 -182 -82q-160 -120 -283 -301zM639 850 v150h135v-150h-135z" />
<glyph unicode="&#x638;" horiz-adv-x="1511" arabic-form="medial" d="M-18 0v184h239v1372h166v-1265q193 317 444 418q80 33 146 32q106 0 199 -39q170 -68 170 -305q0 -72 -39 -145q16 -16 26 -25q55 -43 129 -43h68v-184h-117q-119 0 -211 92l-24 27q-188 -119 -437 -119h-520h-239zM512 184h168q215 0 330 64q168 92 168 160 q-4 135 -125 153q-33 6 -76 6q-70 0 -182 -82q-160 -120 -283 -301zM639 850v150h135v-150h-135z" />
<glyph unicode="&#x639;" horiz-adv-x="1097" arabic-form="isolated" d="M104 0q0 176 80 279q100 131 170 155q-43 2 -88 35q-80 55 -80 184q0 211 185 336q113 78 338 78v-170q-174 0 -281 -66q-82 -51 -82 -155q0 -76 43 -101q37 -23 82 -22q41 0 74 16q150 72 368 99v-185q-246 -25 -456 -174q-188 -133 -189 -315q0 -117 37 -170 q111 -160 412 -160q170 0 364 119v-184q-135 -98 -358 -99q-377 0 -528 189q-91 112 -91 311z" />
<glyph unicode="&#x639;" horiz-adv-x="980" arabic-form="final" d="M104 10q0 201 170 342q-55 49 -85.5 108.5t-30.5 98.5q0 109 112 174q86 49 195 49q106 0 192 -49q113 -63 113 -176q0 -90 -82 -158q-53 -45 -133 -73q61 -63 141 -102.5t158 -39.5h145v-184h-131q-238 0 -460 227q-139 -129 -139.5 -235.5t36.5 -167.5 q96 -160 412 -160q170 0 364 119v-184q-139 -98 -366 -99q-379 0 -520 189q-91 124 -91 321zM373 547q0 -41 61 -103q123 55 123 104.5t-92 49.5t-92 -51z" />
<glyph unicode="&#x639;" horiz-adv-x="1097" arabic-form="initial" d="M-18 0v184h71q147 0 328 92q-68 25 -115 84q-80 102 -80 240q0 264 185 389q113 78 338 78v-170q-197 0 -279 -68q-84 -68 -84 -196.5t55 -179.5q72 -70 138 -70q53 0 116 33l258 129v-185l-376 -196q-317 -164 -476 -164h-79z" />
<glyph unicode="&#x639;" horiz-adv-x="888" arabic-form="medial" d="M-18 0v184h86q98 0 155 39q57 41 90 76q-88 88 -147 174q-29 41 -29 84q0 33 13 74q14 55 106 106q78 45 188.5 45t188.5 -45q92 -51 106 -106q12 -41 13 -74q0 -45 -27 -84q-61 -90 -150 -174q31 -35 91 -76q53 -39 155 -39h86v-184h-106q-181 0 -357 184 q-175 -184 -356 -184h-106zM352 547q0 -31 92 -125q92 94 92.5 125t-40.5 43q-37 8 -51.5 8t-51.5 -8q-41 -12 -41 -43z" />
<glyph unicode="&#x63a;" horiz-adv-x="1097" arabic-form="isolated" d="M338 1200v150h135v-150h-135zM104 0q0 176 80 279q100 131 170 155q-43 2 -88 35q-80 55 -80 184q0 211 185 336q113 78 338 78v-170q-174 0 -281 -66q-82 -51 -82 -155q0 -76 43 -101q37 -23 82 -22q41 0 74 16q150 72 368 99v-185q-246 -25 -456 -174 q-188 -133 -189 -315q0 -117 37 -170q111 -160 412 -160q170 0 364 119v-184q-135 -98 -358 -99q-377 0 -528 189q-91 112 -91 311z" />
<glyph unicode="&#x63a;" horiz-adv-x="980" arabic-form="final" d="M104 10q0 201 170 342q-55 49 -85.5 108.5t-30.5 98.5q0 109 112 174q86 49 195 49q106 0 192 -49q113 -63 113 -176q0 -90 -82 -158q-53 -45 -133 -73q61 -63 141 -102.5t158 -39.5h145v-184h-131q-238 0 -460 227q-139 -129 -139.5 -235.5t36.5 -167.5 q96 -160 412 -160q170 0 364 119v-184q-139 -98 -366 -99q-379 0 -520 189q-91 124 -91 321zM373 547q0 -41 61 -103q123 55 123 104.5t-92 49.5t-92 -51zM383 950v150h135v-150h-135z" />
<glyph unicode="&#x63a;" horiz-adv-x="962" arabic-form="initial" d="M-18 0v184h71q147 0 328 92q-68 25 -115 84q-80 102 -80 240q0 264 185 389q113 78 338 78v-170q-197 0 -279 -68q-84 -68 -84 -196.5t55 -179.5q72 -70 138 -70q53 0 116 33l258 129v-185l-376 -196q-317 -164 -476 -164h-79zM338 1200v150h135v-150h-135z" />
<glyph unicode="&#x63a;" horiz-adv-x="888" arabic-form="medial" d="M-18 0v184h86q98 0 155 39q57 41 90 76q-88 88 -147 174q-29 41 -29 84q0 33 13 74q14 55 106 106q78 45 188.5 45t188.5 -45q92 -51 106 -106q12 -41 13 -74q0 -45 -27 -84q-61 -90 -150 -174q31 -35 91 -76q53 -39 155 -39h86v-184h-106q-181 0 -357 184 q-175 -184 -356 -184h-106zM352 547q0 -31 92 -125q92 94 92.5 125t-40.5 43q-37 8 -51.5 8t-51.5 -8q-41 -12 -41 -43zM377 950v150h135v-150h-135z" />
<glyph unicode="&#x641;" horiz-adv-x="1908" arabic-form="isolated" d="M1372 1151v150h135v-150h-135zM117 313q0 141 57 232h166q-59 -96 -59 -232q0 -113 184 -190q82 -35 332 -35q291 0 477 57q194 58 282 166q29 35 50 117q-57 -76 -166 -76q-119 0 -187 68q-88 86 -88 217q0 51 6 94q23 150 156 217q70 37 139 37q82 0 140 -49 q90 -74 129 -174q20 -53 20 -193q-2 -225 -69 -350q-96 -178 -386 -250q-246 -61 -503 -61q-264 0 -383 41q-297 102 -297 364zM1335 655q0 -80 49 -116q41 -27 74 -27q65 0 86 25q37 43 37 120q0 59 -57 111q-25 23 -70 23t-82 -43q-37 -41 -37 -93z" />
<glyph unicode="&#x641;" horiz-adv-x="1906" arabic-form="final" d="M117 313q0 141 57 232h166q-59 -96 -59 -232q0 -114 184 -190q76 -33 342 -33q207 0 465 55l24 5q-37 33 -57 69q-74 123 -74 246q0 18 4 67q23 158 189 230q55 23 98 22q74 0 148 -49q125 -84 139 -233q4 -49 4 -68q0 -141 -72 -250h15h235v-184h-239q-92 0 -195 37 q-90 -41 -193 -68q-244 -59 -497 -59q-279 0 -387 39q-297 104 -297 364zM1335 461q0 -59 37 -123q43 -76 119 -115q92 61 92 187q0 10 -4 47q-12 70 -59 110q-31 25 -66 25q-18 0 -43 -10q-53 -25 -72 -84q-4 -12 -4 -37zM1372 950v150h135v-150h-135z" />
<glyph unicode="&#x641;" horiz-adv-x="880" arabic-form="initial" d="M-18 0v184h217q70 0 211 23q72 12 127 104q23 41 41 99q-57 -53 -146 -58q-113 -2 -186 68q-88 86 -88 217q0 37 8 94q23 152 153 217q70 37 140 37q82 0 139 -49q90 -74 129 -174q20 -49 21 -193q0 -209 -70 -350q-70 -137 -178 -180q-96 -39 -230 -39h-288zM328 655 q0 -78 51 -116q39 -27 74 -27q65 0 86 25q37 43 36 120q0 57 -59 111q-25 23 -67 23q-47 0 -84 -43q-37 -41 -37 -93zM383 1151v150h135v-150h-135z" />
<glyph unicode="&#x641;" horiz-adv-x="931" arabic-form="medial" d="M-18 0v184h114q137 0 168 17q-29 45 -59 116q-18 46 -19 123q0 49 9 92q20 143 186 230q27 14 86 14q57 0 86 -14q166 -82 186 -230q6 -49 6 -92q0 -74 -18 -123q-23 -59 -57 -116q31 -16 166 -17h114v-184h-194q-125 0 -289 57q-164 -57 -291 -57h-194zM356 446 q0 -47 21 -96q29 -68 90 -90q57 20 88 90q23 51 23 96q0 25 -11 52q-20 51 -71 84q-20 10 -29 10q-10 0 -31 -10q-49 -31 -71 -84q-9 -19 -9 -52zM399 999v150h135v-150h-135z" />
<glyph unicode="&#x642;" horiz-adv-x="1429" arabic-form="isolated" d="M766 1151v150h135v-150h-135zM991 1151v150h135v-150h-135zM96 37q0 180 74 395h166q-76 -184 -80 -340q0 -70 10 -112q45 -229 209 -230q211 0 363 117q297 233 297 561q-59 -76 -166 -76q-121 0 -189 68q-88 86 -88 217q0 51 6 94q23 150 156 217q72 37 139 37 q89 0 142 -49q92 -90 127 -211q31 -102 30 -260q0 -203 -55 -344q-84 -213 -301 -404q-182 -158 -461 -157q-188 0 -309 192q-70 109 -70 285zM862 655q0 -78 51 -116q41 -27 72 -27q68 0 88 25q37 43 37 120q0 59 -59 111q-25 23 -68 23q-47 0 -84 -43q-37 -41 -37 -93z " />
<glyph unicode="&#x642;" horiz-adv-x="1536" arabic-form="final" d="M96 -45q0 168 56 262h165q-55 -106 -55 -262q0 -74 25 -133q55 -131 288 -131q127 0 263 67q193 98 249 252q-59 6 -102 19q-106 33 -160 77q-131 106 -131 293q0 72 4 88q37 166 170 234q37 18 115 18q102 0 152 -49q86 -86 133 -233q18 -59 24 -273h27h235v-184h-239 h-43q-39 -119 -96 -193q-117 -147 -258 -223q-154 -84 -343 -84q-332 4 -417 193q-62 139 -62 262zM860 397q0 -61 53 -104q68 -57 158 -80q16 -4 33.5 -7t21.5 -3q4 131 -16 209q-20 80 -59 110q-31 25 -66 25q-29 0 -49 -10q-49 -29 -66 -84q-10 -36 -10 -56zM811 874v150 h135v-150h-135zM1036 874v150h135v-150h-135z" />
<glyph unicode="&#x642;" horiz-adv-x="880" arabic-form="initial" d="M-18 0v184h217q70 0 211 23q72 12 127 104q23 41 41 99q-57 -53 -146 -58q-113 -2 -186 68q-88 86 -88 217q0 37 8 94q23 152 153 217q70 37 140 37q82 0 139 -49q90 -74 129 -174q20 -49 21 -193q0 -209 -70 -350q-70 -137 -178 -180q-96 -39 -230 -39h-288zM328 655 q0 -78 51 -116q39 -27 74 -27q65 0 86 25q37 43 36 120q0 57 -59 111q-25 23 -67 23q-47 0 -84 -43q-37 -41 -37 -93zM270 1151v150h135v-150h-135zM495 1151v150h135v-150h-135z" />
<glyph unicode="&#x642;" horiz-adv-x="931" arabic-form="medial" d="M-18 0v184h114q137 0 168 17q-29 45 -59 116q-18 46 -19 123q0 49 9 92q20 143 186 230q27 14 86 14q57 0 86 -14q166 -82 186 -230q6 -49 6 -92q0 -74 -18 -123q-23 -59 -57 -116q31 -16 166 -17h114v-184h-194q-125 0 -289 57q-164 -57 -291 -57h-194zM356 446 q0 -47 21 -96q29 -68 90 -90q57 20 88 90q23 51 23 96q0 25 -11 52q-20 51 -71 84q-20 10 -29 10q-10 0 -31 -10q-49 -31 -71 -84q-9 -19 -9 -52zM281 999v150h135v-150h-135zM506 999v150h135v-150h-135z" />
<glyph unicode="&#x643;" horiz-adv-x="1517" arabic-form="isolated" d="M129 260q0 78 14 127h166q-12 -59 -12 -100q4 -94 145 -140q111 -35 224 -34q129 0 206 26q135 45 226 142q68 74 67 329v946h166v-946q0 -326 -98 -448q-137 -168 -334 -199q-123 -18 -229 -18q-186 2 -277 32q-264 89 -264 283zM549 616v89q68 -10 102 -11q47 0 105 27 q55 25 55 55q0 37 -72 55q-66 14 -82 46q-29 47 -28 92q4 82 69 118q78 45 181 48v-82q-68 -4 -101 -19q-72 -31 -71 -61q0 -29 12 -47q14 -18 72 -27q92 -14 92 -102q0 -109 -80 -152q-72 -39 -144 -39q-69 0 -110 10z" />
<glyph unicode="&#x643;" horiz-adv-x="1552" arabic-form="final" d="M129 260q0 78 14 127h166q-12 -59 -12 -100q4 -94 145 -140q111 -35 224 -34q129 0 206 26q135 45 226 142q68 74 67 329v946h166v-1173q0 -106 43 -156q40 -43 129 -43h68v-184h-117q-138 0 -240 123q-141 -127 -315 -160q-98 -20 -229 -18q-186 2 -277 32 q-264 89 -264 283zM549 616v89q68 -10 102 -11q47 0 105 27q55 25 55 55q0 37 -72 55q-66 14 -82 46q-29 47 -28 92q4 82 69 118q78 45 181 48v-82q-68 -4 -101 -19q-72 -31 -71 -61q0 -29 12 -47q14 -18 72 -27q92 -14 92 -102q0 -109 -80 -152q-72 -39 -144 -39 q-69 0 -110 10z" />
<glyph unicode="&#x643;" horiz-adv-x="876" arabic-form="initial" d="M-18 0v184h278q133 0 174 105q14 35 15 71q0 70 -50 136l-276 378q-47 63 -47 144q0 31 10 67q29 119 121 160l672 311v-186l-537 -250q-66 -31 -84 -69q-4 -8 -4 -37q0 -31 29 -70l245 -330q92 -123 93 -245q0 -111 -56 -213q-88 -156 -286 -156h-297z" />
<glyph unicode="&#x643;" horiz-adv-x="1015" arabic-form="medial" d="M-18 0v184h278q133 0 174 105q14 35 15 71q0 70 -50 136l-276 378q-47 63 -47 144q0 31 10 67q29 119 121 160l672 311v-186l-537 -250q-66 -31 -84 -69q-4 -8 -4 -37q0 -31 29 -70l524 -704q20 -25 53 -39q43 -16 96 -17h80v-184h-118q-58 0 -111 25q-90 43 -123 84 l-86 118q-8 -18 -37 -71q-88 -156 -282 -156h-297z" />
<glyph unicode="&#x644;" horiz-adv-x="1337" arabic-form="isolated" d="M129 76q0 139 57 229h166q-59 -115 -59 -229q0 -131 149 -193q39 -16 103 -16q70 0 170 35q156 51 223 172q70 125 70 352v1130h166v-1130q0 -317 -89 -461q-109 -178 -344 -244q-117 -33 -196 -32q-90 0 -152 20q-264 93 -264 367z" />
<glyph unicode="&#x644;" horiz-adv-x="1394" arabic-form="final" d="M129 76q0 139 57 229h166q-59 -115 -59 -229q0 -129 149 -193q39 -16 103 -16q70 0 170 35q156 51 223 172q70 125 70 352v1130h166v-1173q0 -104 45 -156q39 -43 127 -43h67v-184h-117q-100 0 -170 51q-14 -43 -41 -86q-109 -178 -344 -244q-117 -33 -196 -32 q-92 0 -152 20q-264 93 -264 367z" />
<glyph unicode="&#x644;" horiz-adv-x="559" arabic-form="initial" d="M-18 0v184h67q89 0 129 43q43 49 43 156v1173h166v-1185q0 -176 -78 -279q-72 -92 -211 -92h-116z" />
<glyph unicode="&#x644;" horiz-adv-x="608" arabic-form="medial" d="M-18 0v184h67q89 0 129 43q43 49 43 156v1173h166v-1173q0 -104 45 -156q40 -43 129 -43h68v-184h-117q-135 0 -207 86q-68 -86 -207 -86h-116z" />
<glyph unicode="&#x645;" horiz-adv-x="1140" arabic-form="isolated" d="M127 0q0 174 106 274q58 55 142 56q-2 29 -2 82q0 150 145 280q66 63 152 64q72 0 141 -37q164 -84 188 -250q6 -47 7 -100q0 -147 -88 -211q-106 -80 -187 -80q-160 -4 -291 78q-45 27 -112 -52q-23 -27 -23 -104v-492h-178v492zM541 387q0 -45 8 -92q104 -41 178 -41 q41 0 59 20q47 59 48 115q0 25 -7 45q-18 86 -71 105q-37 12 -76 12q-55 0 -80 -27q-59 -65 -59 -137z" />
<glyph unicode="&#x645;" horiz-adv-x="1224" arabic-form="final" d="M127 -127q0 174 106 274q58 55 142 56q-2 29 -2 82q0 150 145 280q66 63 152 64q65 0 141 -37q152 -70 188 -250q12 -68 50 -111q35 -45 129 -45h67v-184h-117q-158 0 -186 49q-4 -6 -24 -20q-119 -80 -187 -80q-164 0 -291 78q-45 27 -112 -52q-23 -27 -23 -104v-365 h-178v365zM541 260q0 -45 8 -92q104 -41 178 -41q41 0 59 20q47 59 48 115q0 25 -7 45q-18 86 -71 105q-37 12 -76 12q-55 0 -80 -27q-59 -65 -59 -137z" />
<glyph unicode="&#x645;" horiz-adv-x="985" arabic-form="initial" d="M-18 0v184h104q49 0 86 35q41 37 43 84q18 182 141 262q82 55 156 56q158 0 242 -84q88 -88 88 -273q0 -145 -62 -213q-86 -100 -219 -100q-188 0 -285 96q-55 -47 -149 -47h-145zM365 199q57 -70 198 -70q43 0 62 18q45 51 45 123q0 78 -35 113q-37 41 -117 41 q-43 0 -84 -31q-41 -33 -53 -127q-4 -28 -16 -67z" />
<glyph unicode="&#x645;" horiz-adv-x="1064" arabic-form="medial" d="M-18 0v184h104q49 0 86 35q39 33 43 84q18 182 141 262q82 55 168 56q61 0 123 -29q174 -82 191 -250q6 -53 49 -111q35 -45 129 -45h67v-184h-116q-160 0 -187 49q-86 -100 -211 -100q-197 0 -293 96q-55 -47 -149 -47h-145zM365 199q57 -70 198 -70q43 0 62 18 q45 51 45 123q0 12 -4 37q-20 86 -72 105q-33 12 -70 12q-51 0 -86 -27q-45 -33 -57 -131q-4 -28 -16 -67z" />
<glyph unicode="&#x646;" horiz-adv-x="1351" arabic-form="isolated" d="M518 801v150h135v-150h-135zM131 168q0 236 43 315h166q-43 -143 -43 -315q0 -238 180 -289q83 -25 166 -24q72 0 133 20q176 53 244 275q29 92 29 194q0 188 -91 406h164q94 -156 95 -439q0 -170 -91 -350q-102 -199 -321 -264q-92 -29 -162 -29q-117 0 -215 37 q-297 109 -297 463z" />
<glyph unicode="&#x646;" horiz-adv-x="1402" arabic-form="final" d="M131 0q0 174 43 315h166q-43 -139 -43 -315q0 -240 180 -291q74 -23 150 -22q88 0 149 18q176 49 244 277q29 104 29 213q0 182 -91 387h164q43 -104 66 -195q23 -86 63 -139q49 -63 103 -64h67v-184h-116q-66 0 -95 47q-2 -106 -84 -256q-109 -201 -321 -264 q-86 -27 -170 -27q-106 0 -207 37q-297 109 -297 463zM518 551v150h135v-150h-135z" />
<glyph unicode="&#x646;" horiz-adv-x="512" arabic-form="initial" d="M203 850v150h135v-150h-135zM-18 0v184h32q88 0 127 43q45 51 45 156v217h166v-217q0 -184 -84 -297q-63 -86 -205 -86h-81z" />
<glyph unicode="&#x646;" horiz-adv-x="555" arabic-form="medial" d="M203 850v150h135v-150h-135zM-18 0v184h32q88 0 127 43q45 51 45 156v217h166v-217q0 -106 43 -156q40 -43 129 -43h49v-184h-98q-135 0 -207 86q-68 -86 -205 -86h-81z" />
<glyph unicode="&#x647;" horiz-adv-x="964" arabic-form="isolated" d="M125 291q0 184 33 258q77 184 209 184q178 0 342 -160q127 -123 127 -272q0 -201 -134 -274q-143 -84 -268 -84q-84 0 -160 34q-149 74 -149 314zM287 274q0 -80 51 -124q55 -45 102 -46q84 0 166 58q68 47 68 131q0 76 -60 141q-111 121 -215 121q-61 0 -90 -88 q-22 -62 -22 -193z" />
<glyph unicode="&#x647;" horiz-adv-x="987" arabic-form="final" d="M129 285q0 174 184 301q96 66 236 82l-6 82h164q0 -162 34 -342q16 -94 70 -181q29 -43 127 -43h68v-184h-117q-84 0 -148 51q-39 31 -73 90q-123 -74 -265 -73q-47 0 -102 16q-172 49 -172 201zM281 295q0 -43 81.5 -67.5t245.5 55.5q-16 57 -24.5 90t-22.5 151 q-109 -12 -182 -80q-100 -88 -98 -149z" />
<glyph unicode="&#x647;" horiz-adv-x="970" arabic-form="initial" d="M-18 0v184h96q57 0 117 11q-33 88 -54 174q-16 82 -16 143q0 80 41 166q45 92 113 82q-35 35 -113 51v186q199 -68 395 -247q230 -209 289 -431q10 -43 10 -108q0 -109 -35 -166q-63 -113 -225 -113q-117 0 -256 109q-111 -41 -240 -41h-122zM276 506q0 -18 9 -68 q18 -119 80 -170q31 28 61 92q37 78 37 134q0 47 -14 81q-23 53 -72 54q-59 0 -80 -45q-21 -41 -21 -78zM487 147q47 -47 93 -47q113 0 127 68q6 31 6 63q0 59 -31 138q-27 74 -84 139q4 -25 4 -76q0 -150 -88 -252q-6 -8 -13.5 -16.5t-13.5 -16.5z" />
<glyph unicode="&#x647;" horiz-adv-x="847" arabic-form="medial" d="M-18 0v184h157q8 266 125 391q98 106 213 107q125 0 187 -98q41 -63 41 -181q0 -113 -148 -219h311v-184h-311q147 -106 148 -219q0 -117 -41 -180q-63 -100 -187 -101q-115 0 -213 109q-117 127 -125 391h-157zM305 0q0 -115 35 -188q68 -141 133 -142q76 0 76 113 q0 53 -103 141q-84 76 -124 76h-17zM305 184h17q41 0 124 76q102 88 103 141q0 113 -76 113q-66 0 -133 -141q-35 -74 -35 -189z" />
<glyph unicode="&#x648;" horiz-adv-x="888" arabic-form="isolated" d="M-76 -315q324 0 443 75q152 96 206 242q-100 0 -145 10q-135 34 -172 68q-104 98 -104 235q0 141 79 228q94 102 218 102q84 0 145 -49q119 -90 139 -234q16 -109 17 -178q0 -307 -156 -469q-82 -84 -168 -129q-172 -86 -502 -86v185zM328 326q0 -53 45 -99 q43 -43 215 -43q0 182 -78 242q-37 27 -66 27q-57 0 -96 -58q-20 -32 -20 -69z" />
<glyph unicode="&#x648;" horiz-adv-x="950" arabic-form="final" d="M-76 -315q324 0 443 75q152 96 206 242q-96 2 -145 10q-126 25 -172 68q-96 90 -104 223q-2 23 8 88q25 158 182 232q47 23 113 22q82 -4 139 -49q117 -90 139 -234q14 -92 17 -178h221v-184h-174h-64q-20 -154 -139 -285q-74 -84 -168 -129q-172 -86 -502 -86v185z M330 356q-15 -74 43 -129q43 -40 215 -43q0 78 -15 133q-20 78 -63 109q-55 41 -109 16q-59 -27 -71 -86z" />
<glyph unicode="&#x649;" horiz-adv-x="1441" arabic-form="isolated" d="M117 123q0 117 57 229h166q-59 -135 -59 -229q2 -147 149 -193q94 -27 141 -20q135 14 232 35q158 33 233 112q53 57 54 111q0 76 -113 102q-61 16 -164 62q-59 27 -111 78q-59 59 -59 172q0 150 170 223q86 37 180 37q98 0 181 -41q127 -61 151 -236h-166q-12 61 -72 94 q-33 18 -98 23q-70 2 -125 -37q-53 -35 -53 -72q0 -55 111 -98q223 -82 274 -145q70 -88 72 -174q0 -72 -39 -144q-94 -170 -400 -243q-160 -37 -268 -37q-115 0 -180 24q-264 105 -264 367z" />
<glyph unicode="&#x649;" horiz-adv-x="1536" arabic-form="final" d="M117 133q0 156 57 244h166q-59 -90 -59 -244q0 -115 149 -190q61 -31 221 -31q106 0 152 6q131 14 186 49q82 51 82 84q0 43 -43 55q-23 8 -51 50q-41 59 -41 118q0 61 47 125q68 92 147 109q29 6 64 6q106 0 184 -133q113 -197 146 -197h30v-184h-30q-102 0 -205 172 q-98 166 -121 166q-33 0 -45 -6q-41 -18 -41 -53q0 -45 59 -74q65 -31 68 -154q3 -98 -98 -184q-115 -96 -312 -127q-80 -12 -174 -12q-168 0 -274 41q-264 104 -264 364z" />
<glyph unicode="&#x64a;" horiz-adv-x="1441" arabic-form="isolated" d="M451 -500v150h135v-150h-135zM676 -500v150h135v-150h-135zM117 123q0 117 57 229h166q-59 -135 -59 -229q2 -147 149 -193q94 -27 141 -20q135 14 232 35q158 33 233 112q53 57 54 111q0 76 -113 102q-61 16 -164 62q-59 27 -111 78q-59 59 -59 172q0 150 170 223 q86 37 180 37q98 0 181 -41q127 -61 151 -236h-166q-12 61 -72 94q-33 18 -98 23q-70 2 -125 -37q-53 -35 -53 -72q0 -55 111 -98q223 -82 274 -145q70 -88 72 -174q0 -72 -39 -144q-94 -170 -400 -243q-160 -37 -268 -37q-115 0 -180 24q-264 105 -264 367z" />
<glyph unicode="&#x64a;" horiz-adv-x="1536" arabic-form="final" d="M451 -500v150h135v-150h-135zM676 -500v150h135v-150h-135zM117 133q0 156 57 244h166q-59 -90 -59 -244q0 -115 149 -190q61 -31 221 -31q106 0 152 6q131 14 186 49q82 51 82 84q0 43 -43 55q-23 8 -51 50q-41 59 -41 118q0 61 47 125q68 92 147 109q29 6 64 6 q106 0 184 -133q113 -197 146 -197h30v-184h-30q-102 0 -205 172q-98 166 -121 166q-33 0 -45 -6q-41 -18 -41 -53q0 -45 59 -74q65 -31 68 -154q3 -98 -98 -184q-115 -96 -312 -127q-80 -12 -174 -12q-168 0 -274 41q-264 104 -264 364z" />
<glyph unicode="&#x64a;" horiz-adv-x="512" arabic-form="initial" d="M-18 0v184h32q88 0 127 43q45 51 45 156v217h166v-217q0 -184 -84 -297q-63 -86 -205 -86h-81zM88 -299v150h135v-150h-135zM313 -299v150h135v-150h-135z" />
<glyph unicode="&#x64a;" horiz-adv-x="555" arabic-form="medial" d="M-18 0v184h32q88 0 127 43q45 51 45 156v217h166v-217q0 -106 43 -156q40 -43 129 -43h49v-184h-98q-135 0 -207 86q-68 -86 -205 -86h-81zM88 -299v150h135v-150h-135zM313 -299v150h135v-150h-135z" />
<glyph unicode=" "  horiz-adv-x="583" />
<glyph unicode="&#x09;" horiz-adv-x="583" />
<glyph unicode="&#xa0;" horiz-adv-x="583" />
<glyph unicode="!" horiz-adv-x="737" d="M279 0v254h182v-254h-182zM279 838v655h182v-655l-19 -357h-145z" />
<glyph unicode="&#x22;" horiz-adv-x="845" d="M176 938v555h154v-555h-154zM518 938v555h152v-555h-152z" />
<glyph unicode="#" d="M141 414v153h318l76 334h-289v154h323l93 415h145l-92 -415h262l94 415h143l-92 -415h281v-154h-316l-73 -334h286v-153h-321l-94 -414h-144l93 414h-265l-92 -414h-145l94 414h-285zM604 567h264l74 334h-262z" />
<glyph unicode="$" horiz-adv-x="1171" d="M154 92v180q88 -61 186 -96t192 -35v457q-200 37 -288 123q-90 86 -90 235q0 162 98 256q96 92 280 109v235h91v-233q82 -2 161 -18q80 -15 154 -43v-175q-70 41 -154 64q-98 27 -161 29v-428q205 -35 301 -125t96 -246q0 -168 -102 -266q-100 -96 -295 -113v-303h-91 v301q-95 3 -190 25q-92 20 -188 67zM319 973q0 -84 50 -133q47 -47 163 -70v410q-102 -12 -159 -66q-54 -51 -54 -141zM623 145q117 18 172 72q59 55 59 145q0 86 -57 140q-53 51 -174 76v-433z" />
<glyph unicode="%" horiz-adv-x="1748" d="M102 1114q0 182 84 295q84 111 226 111q143 0 227 -108.5t84 -297.5q0 -195 -84 -299q-86 -109 -227 -108q-144 0 -228 110q-82 109 -82 297zM246 1114q0 -133 43 -206.5t123 -73.5t123 73q45 78 45 207q0 133 -45 205q-46 74 -123 74q-80 0 -123 -74t-43 -205zM383 -29 l842 1549h143l-842 -1549h-143zM1028 377q0 184 84 297q83 111 227 110q143 0 228 -110q84 -113 84 -297q0 -186 -86 -297q-84 -109 -226 -109q-145 0 -227 109q-84 113 -84 297zM1174 377q0 -131 43 -205t122.5 -74t122.5 74t43 205t-43 205q-45 76 -123 75 q-80 0 -122.5 -73.5t-42.5 -206.5z" />
<glyph unicode="&#x26;" horiz-adv-x="1435" d="M117 461q0 131 59 241q61 113 180 211q-45 70 -65 125q-23 63 -23 123q0 162 101 260q102 98 266 99q76 0 149 -19q80 -20 150 -53v-182q-78 47 -149.5 71.5t-133.5 24.5q-94 0 -151 -55q-59 -55 -60 -144q0 -51 27 -102q29 -53 108 -146l457 -520q49 86 82 191 q31 101 37 215h168q-12 -127 -59 -260q-47 -131 -130 -256l250 -285h-227l-129 147q-96 -92 -195 -133q-104 -43 -221 -43q-217 0 -354 137.5t-137 352.5zM291 473q0 -147 94 -243.5t240 -96.5q86 0 159 31q78 33 142 96l-477 543q-84 -80 -121 -162q-37 -80 -37 -168z" />
<glyph unicode="'" horiz-adv-x="505" d="M176 938v555h154v-555h-154z" />
<glyph unicode="(" horiz-adv-x="718" d="M158 643q0 221 67 449q68 225 203 462h143q-120 -230 -178 -454q-59 -227 -59 -457q0 -225 59 -457q57 -225 178 -456h-143q-133 231 -203 463q-67 227 -67 450z" />
<glyph unicode=")" horiz-adv-x="718" d="M147 -270q121 231 179 456q59 231 59 457q0 229 -59 457q-58 224 -179 454h146q131 -229 201 -462q68 -227 67 -449q0 -223 -67 -450q-72 -240 -201 -463h-146z" />
<glyph unicode="*" horiz-adv-x="919" d="M55 858l324 195l-324 194l51 99l304 -203v377h102v-377l301 203l53 -99l-321 -194l321 -195l-53 -98l-301 203v-377h-102v377l-304 -203z" />
<glyph unicode="+" d="M195 557v170h501v557h152v-557h502v-170h-502v-557h-152v557h-501z" />
<glyph unicode="," horiz-adv-x="583" d="M141 -238l74 320v172h191v-172l-148 -320h-117z" />
<glyph unicode="-" horiz-adv-x="663" d="M90 479v164h485v-164h-485z" />
<glyph unicode="." horiz-adv-x="583" d="M197 0v254h190v-254h-190z" />
<glyph unicode="/" horiz-adv-x="620" d="M0 -190l469 1683h152l-467 -1683h-154z" />
<glyph unicode="0" horiz-adv-x="1171" d="M123 745.5q0 376.5 118.5 575.5t344.5 199q227 0 346 -199t119 -575.5t-119 -575.5t-346 -199q-225 0 -344 199t-119 575.5zM303 745.5q0 -305.5 72 -460.5q72 -154 211 -154t211 154q72 156 71.5 461t-71.5 460q-72 154 -211.5 154t-210.5 -154q-72 -155 -72 -460.5z " />
<glyph unicode="1" horiz-adv-x="1171" d="M203 1237v184l321 72h183v-1323h297v-170h-775v170h297v1139z" />
<glyph unicode="2" horiz-adv-x="1171" d="M135 0v170l283 319q170 190 223 259q92 117 123 184q35 80 35 149q0 119 -76 195q-74 74 -197 74q-88 0 -180 -33q-98 -35 -203 -100v204q109 49 207 74q96 25 174 25q211 0 332 -115q125 -119 125 -311q0 -90 -31 -174q-33 -88 -112 -195q-18 -25 -144 -168l-340 -387 h633v-170h-852z" />
<glyph unicode="3" horiz-adv-x="1171" d="M139 45v195q77 -49 166 -74q88 -25 189 -25q170 0 260 74t90 219q0 133 -82 207q-83 74 -234 74h-155v166h164q133 0 204.5 59t71.5 172q0 115 -73.5 176.5t-211.5 61.5q-74 0 -159 -19q-80 -16 -189 -55v180q111 33 195 47q94 16 170 17q209 0 327 -105 q121 -104 121 -282q0 -125 -63.5 -209t-181.5 -119q131 -31 204 -129q72 -96 72 -242q0 -221 -135 -342q-137 -121 -389 -121q-86 0 -174 19q-95 18 -187 55z" />
<glyph unicode="4" horiz-adv-x="1171" d="M90 352v195l559 946h230v-973h190v-168h-190v-352h-183v352h-606zM238 520h458v797z" />
<glyph unicode="5" horiz-adv-x="1171" d="M141 35v203q72 -45 168 -72q86 -25 183 -25q158 0 247.5 90.5t89.5 247.5q0 156 -90 246q-92 92 -247 92q-72 0 -146 -18.5t-147 -55.5v750h714v-170h-548v-367q45 16 79 23q53 8 80 8q225 0 356.5 -137t131.5 -371q0 -242 -135 -375q-137 -133 -381 -133q-80 0 -172 17 q-83 14 -183 47z" />
<glyph unicode="6" horiz-adv-x="1171" d="M129 745q0 350 152 564q150 211 405 211q72 0 137 -15q78 -16 146 -45v-184q-68 37 -137.5 55.5t-139.5 18.5q-180 0 -274 -136q-96 -137 -109 -407q53 86 133 133q82 47 176 47q203 0 322 -137q117 -135 117 -371q0 -230 -123 -368q-123 -139 -326 -140 q-233 0 -356 198.5t-123 575.5zM342 479q0 -160 71.5 -254t194.5 -94t194.5 94t71.5 254t-71.5 254t-194.5 94t-194.5 -94t-71.5 -254z" />
<glyph unicode="7" horiz-adv-x="1171" d="M152 1323v170h864v-86l-490 -1407h-188l459 1323h-645z" />
<glyph unicode="8" horiz-adv-x="1171" d="M125 420q0 143 74 242q76 100 204 133q-117 31 -182 120q-63 88 -63 218q0 178 114 282t314 105q201 0 315.5 -104.5t114.5 -282.5q0 -127 -65.5 -217.5t-182.5 -120.5q129 -33 205 -133q74 -98 74 -242q0 -217 -119 -334q-117 -115 -342.5 -115t-341.5 115 q-119 117 -119 334zM307 420q0 -131 76 -211q74 -78 203 -78q131 0 204.5 78t73.5 211q0 137 -73.5 213t-204.5 76q-129 0 -203 -76q-76 -80 -76 -213zM338 1114q0 -115 65.5 -180.5t182 -65.5t182.5 66q68 68 68 180.5t-68 179.5q-66 66 -182.5 66t-182 -65.5t-65.5 -180.5 z" />
<glyph unicode="9" horiz-adv-x="1171" d="M117 1012q0 233 121 368q123 139 325 140q233 0 356 -199t123 -576q0 -352 -149.5 -563t-405.5 -211q-74 0 -139 15q-72 16 -145 45v184q68 -37 139.5 -55.5t136.5 -18.5q180 0 275 135q96 137 108 408q-51 -84 -133 -131t-176 -47q-203 0 -319.5 135t-116.5 371z M299 1011.5q0 -159.5 71.5 -253.5t192.5 -94q123 0 194.5 94t71.5 253.5t-71.5 254t-194.5 94.5q-121 0 -192.5 -94.5t-71.5 -254z" />
<glyph unicode=":" horiz-adv-x="620" d="M215 0v254h191v-254h-191zM215 805v254h191v-254h-191z" />
<glyph unicode=";" horiz-adv-x="620" d="M141 -238l74 320v172h191v-172l-148 -320h-117zM215 805v254h191v-254h-191z" />
<glyph unicode="&#x3c;" d="M195 559v166l1155 465v-182l-930 -367l930 -365v-182z" />
<glyph unicode="=" d="M195 352v170h1155v-170h-1155zM195 762v168h1155v-168h-1155z" />
<glyph unicode="&#x3e;" d="M195 94v182l927 365l-927 367v182l1155 -465v-166z" />
<glyph unicode="?" horiz-adv-x="976" d="M131 1219v188q86 58 172 86q82 27 180 27q168 0 267 -97q100 -98 100 -256q0 -80 -33 -145q-35 -70 -112 -154l-80 -86q-35 -39 -60 -73q-18 -29 -24 -52q-4 -16 -9 -51q-4 -41 -4 -82v-123h-172v154q0 96 27 166q25 63 106 151l80 89q51 51 74 100q25 53 25 96 q0 88 -59.5 143.5t-155.5 55.5q-70 0 -152 -35q-80 -32 -170 -102zM352 0v254h183v-254h-183z" />
<glyph unicode="@" horiz-adv-x="1841" d="M123 543q0 188 59 348q59 162 174 289q119 129 269 194q154 68 323 68q190 0 352 -86q166 -88 277 -248q63 -92 102 -213q35 -106 35 -238q0 -266 -143 -415q-145 -152 -395 -158v154q-55 -78 -123 -113q-70 -37 -162 -37q-158 0 -252 125q-96 127 -96 324q0 203 96 325 q98 125 252 125q92 0 161.5 -37t123.5 -114v131h129v-736q133 23 206.5 133.5t73.5 288.5q0 102 -29 201q-27 94 -86 174q-94 131 -227 200.5t-293 69.5q-115 0 -213 -32q-109 -37 -188 -97q-141 -100 -221 -268q-80 -166 -80 -358q0 -162 51 -297q51 -137 152 -246 q94 -104 217 -158q127 -55 266 -55q117 0 227 43q109 41 207 125l82 -111q-111 -96 -246 -149q-129 -51 -270 -51q-164 0 -313 65q-152 68 -265 191q-113 125 -174 290q-59 160 -59 353zM686 536.5q0 -141.5 63.5 -223.5t176.5 -82q111 0 174 82t63 224q0 139 -65 223 q-63 82 -174 82t-174.5 -82t-63.5 -223.5z" />
<glyph unicode="A" horiz-adv-x="1259" d="M14 0l512 1493h207l512 -1493h-188l-123 383h-606l-121 -383h-193zM383 551h496l-248 743z" />
<glyph unicode="B" horiz-adv-x="1263" d="M180 0v1493h465q205 0 320 -96q113 -94 112 -273q0 -141 -57 -219q-57 -80 -168 -100q135 -31 209 -133.5t74 -253.5q0 -201 -123 -309q-125 -109 -348 -109h-484zM362 166h291q150 0 219.5 67.5t69.5 207t-70 206.5q-68 66 -219 66h-291v-547zM362 877h271 q133 0 198.5 55t65.5 170t-65.5 170t-198.5 55h-271v-450z" />
<glyph unicode="C" horiz-adv-x="1286" d="M104 745.5q0 360.5 174.5 567.5t481.5 207q125 0 227 -35q113 -39 201 -107v-213q-92 95 -197 142q-106 47 -221 47q-229 0 -352 -156q-123 -158 -123 -452.5t123 -452.5q123 -156 352 -156q115 0 221 47q104 46 197 142v-211q-98 -72 -203 -109q-102 -35 -225 -35 q-307 0 -481.5 207t-174.5 567.5z" />
<glyph unicode="D" horiz-adv-x="1417" d="M180 0v1493h375q393 0 573 -180q182 -182 183 -565q0 -387 -185 -568q-182 -180 -571 -180h-375zM362 166h220q281 0 407 139q129 141 129 442.5t-129 440.5t-407 139h-220v-1161z" />
<glyph unicode="E" horiz-adv-x="1163" d="M180 0v1493h850v-170h-668v-442h642v-170h-642v-541h685v-170h-867z" />
<glyph unicode="F" horiz-adv-x="1058" d="M180 0v1493h772v-170h-590v-440h535v-170h-535v-713h-182z" />
<glyph unicode="G" horiz-adv-x="1427" d="M104 745.5q0 366.5 177 569.5q178 205 493 205q137 0 250 -35q115 -35 217 -107v-215q-100 94 -213 144q-109 47 -240 47q-246 0 -368 -154q-125 -156 -125 -455t125 -454q123 -154 368 -154q96 0 173 19q78 18 137 57v401h-297v166h477v-641q-100 -80 -234 -125 q-126 -43 -270 -43q-315 0 -493 205q-177 203 -177 569.5z" />
<glyph unicode="H" horiz-adv-x="1384" d="M180 0v1493h182v-612h662v612h180v-1493h-180v711h-662v-711h-182z" />
<glyph unicode="I" horiz-adv-x="542" d="M180 0v1493h182v-1493h-182z" />
<glyph unicode="J" horiz-adv-x="542" d="M-94 -240h55q121 0 170 74t49 270v1389h182v-1389q0 -270 -92 -393q-90 -121 -297 -121h-67v170z" />
<glyph unicode="K" horiz-adv-x="1206" d="M180 0v1493h182v-631l605 631h233l-668 -696l715 -797h-239l-646 719v-719h-182z" />
<glyph unicode="L" horiz-adv-x="1024" d="M180 0v1493h182v-1323h656v-170h-838z" />
<glyph unicode="M" horiz-adv-x="1589" d="M180 0v1493h273l342 -1016l344 1016h270v-1493h-176v1311l-346 -1024h-182l-349 1024v-1311h-176z" />
<glyph unicode="N" horiz-adv-x="1376" d="M180 0v1493h246l596 -1249v1249h176v-1493h-246l-596 1249v-1249h-176z" />
<glyph unicode="O" horiz-adv-x="1449" d="M104 745q0 350 170 564q168 211 451 211q285 0 453 -211q170 -213 170 -563.5t-170 -563.5q-168 -211 -453 -211q-283 0 -451 209q-170 211 -170 565zM295 745.5q0 -282.5 116.5 -446.5t313.5 -164q199 0 315 164q115 160 115 446.5t-115 446.5q-117 164 -315 164 q-197 0 -313.5 -164t-116.5 -446.5z" />
<glyph unicode="P" horiz-adv-x="1110" d="M180 0v1493h412q225 0 340 -113q117 -115 117 -334t-117 -333q-115 -113 -340 -113h-230v-600h-182zM362 766h230q126 0 196 74q68 70 68 207t-68 206q-71 74 -196 74h-230v-561z" />
<glyph unicode="Q" horiz-adv-x="1449" d="M104 745.5q0 350.5 170 563.5q168 211 451 211q285 0 453 -211q170 -213 170 -564q0 -264 -95 -446q-94 -184 -272 -272l240 -291h-220l-198 239q-14 0 -26.5 -2t-20.5 -2h-31q-283 0 -451 211q-170 213 -170 563.5zM295 745.5q0 -282.5 116.5 -446.5t313.5 -164 q199 0 315 164q115 160 115 446.5t-115 446.5q-117 164 -315 164q-197 0 -313.5 -164t-116.5 -446.5z" />
<glyph unicode="R" horiz-adv-x="1280" d="M180 0v1493h412q231 0 344 -106.5t113 -323.5q0 -139 -60 -234q-58 -92 -172 -129q57 -20 115 -94q53 -68 110 -198l187 -408h-197l-172 383q-61 145 -129 199q-61 49 -170 49h-199v-631h-182zM362 797h230q131 0 199 67q66 66 65 199q0 131 -65 197q-68 68 -199 67h-230 v-530z" />
<glyph unicode="S" horiz-adv-x="1169" d="M123 1094q0 201 125 313.5t346 112.5q94 0 192 -19q84 -16 199 -57v-197q-102 55 -194 82q-88 27 -177 27q-152 0 -229 -64q-82 -66 -82 -182q0 -98 55.5 -149.5t202.5 -81.5l109 -25q205 -43 301 -151.5t96 -290.5q0 -215 -131 -328t-383 -113q-95 0 -203 25 q-119 27 -223 70v208q123 -74 217 -104q111 -35 209 -35q154 0 240 67.5t86 194.5q0 111 -61.5 172.5t-201.5 92.5l-108 24q-207 47 -295 141q-90 97 -90 267z" />
<glyph unicode="T" horiz-adv-x="1124" d="M-4 1323v170h1134v-170h-477v-1323h-182v1323h-475z" />
<glyph unicode="U" horiz-adv-x="1347" d="M160 561v932h182v-907q0 -242 80 -346.5t254 -104.5q175 0 252 105q78 106 78 346v907h184v-932q0 -287 -131 -440q-129 -150 -383 -150q-256 0 -385 150q-131 153 -131 440z" />
<glyph unicode="V" horiz-adv-x="1259" d="M14 1493h191l426 -1257l426 1257h188l-512 -1493h-207z" />
<glyph unicode="W" horiz-adv-x="1820" d="M61 1493h185l280 -1262l283 1262h205l282 -1262l283 1262h182l-336 -1493h-229l-283 1296l-286 -1296h-230z" />
<glyph unicode="X" horiz-adv-x="1261" d="M55 0l480 797l-418 696h194l334 -555l336 555h195l-433 -717l461 -776h-194l-377 635l-381 -635h-197z" />
<glyph unicode="Y" horiz-adv-x="1124" d="M-4 1493h197l370 -614l371 614h196l-477 -782v-711h-182v711z" />
<glyph unicode="Z" horiz-adv-x="1261" d="M84 0v154l848 1169h-828v170h1055v-154l-850 -1169h871v-170h-1096z" />
<glyph unicode="[" horiz-adv-x="718" d="M158 -270v1826h383v-143h-217v-1540h217v-143h-383z" />
<glyph unicode="\" horiz-adv-x="620" d="M0 1493h154l467 -1683h-152z" />
<glyph unicode="]" horiz-adv-x="718" d="M178 -127h215v1540h-215v143h383v-1826h-383v143z" />
<glyph unicode="^" d="M195 936l489 557h176l490 -557h-183l-395 395l-395 -395h-182z" />
<glyph unicode="_" horiz-adv-x="919" d="M-18 -340h958v-143h-958v143z" />
<glyph unicode="`" horiz-adv-x="919" d="M154 1638h176l254 -374h-138z" />
<glyph unicode="a" horiz-adv-x="1128" d="M111 326q0 188 114.5 284.5t337.5 96.5h234v18q0 125 -76 197q-72 70 -211 69q-82 0 -168 -22q-74 -18 -158 -70v170q98 43 176 59q86 18 166 19q221 0 328 -125q109 -127 109 -383v-639h-166v170q-55 -100 -141.5 -149.5t-206.5 -49.5q-154 0 -246 97q-92 95 -92 258z M276 338q0 -98 57.5 -155.5t158.5 -57.5q137 0 221 108.5t84 288.5v41h-164q-203 0 -279 -51q-78 -53 -78 -174z" />
<glyph unicode="b" horiz-adv-x="1169" d="M168 0v1556h166v-606q51 98 131 147.5t190 49.5q186 0 299 -162q115 -164 115 -426t-115 -426q-113 -162 -299 -162q-111 0 -190.5 49.5t-130.5 147.5v-168h-166zM334 559q0 -199 76 -319q72 -115 206 -115q133 0 205 115q76 121 76 319q0 197 -76 318q-74 117 -205 116 q-133 0 -206 -116q-76 -121 -76 -318z" />
<glyph unicode="c" horiz-adv-x="1011" d="M102 559q0 273 136 430q135 158 370 158q84 0 150 -17q70 -16 141 -53v-172q-68 41 -141.5 63.5t-141.5 22.5q-162 0 -251 -114q-88 -113 -89 -318q0 -207 88.5 -319.5t251.5 -112.5q68 0 141.5 22.5t141.5 63.5v-170q-59 -33 -143 -53q-74 -18 -158 -19 q-229 0 -362.5 158t-133.5 430z" />
<glyph unicode="d" horiz-adv-x="1169" d="M102 559q0 262 115 426q113 162 297 162q111 0 191 -49q84 -51 133 -148v606h166v-1556h-166v168q-49 -96 -133 -148q-80 -49 -191 -49q-184 0 -297 162q-115 164 -115 426zM272 559q0 -199 76 -319q72 -115 207 -115q131 0 207 114.5t76 319.5q0 203 -76 318 q-78 117 -207 116q-133 0 -207 -116q-76 -121 -76 -318z" />
<glyph unicode="e" horiz-adv-x="1132" d="M102 549q0 272 134 436q131 162 360 162q201 0 322 -146q119 -143 118 -395v-90h-762q12 -193 103 -289q94 -100 258 -100q88 0 184 27q86 25 178 77v-174q-84 -41 -182 -63q-96 -23 -190 -23q-242 0 -383 156q-140 154 -140 422zM281 659h589q-4 154 -75 242 q-74 90 -197 90q-139 0 -223 -88q-82 -84 -94 -244z" />
<glyph unicode="f" horiz-adv-x="647" d="M43 977v143h158v78q0 184 78 272q78 86 247 86h158v-153h-158q-92 0 -125 -39q-35 -41 -34 -145v-99h272v-143h-272v-977h-166v977h-158z" />
<glyph unicode="g" horiz-adv-x="1169" d="M102 573.5q0 260.5 113 415.5q115 158 299 158q113 0 193 -49q78 -49 131 -148v170h166v-981q0 -287 -115 -426t-350 -139q-94 0 -166 14q-80 16 -150 45v179q78 -45 144 -66q68 -20 145 -20q164 0 244 94q82 98 82 286v91q-53 -98 -131 -148q-80 -49 -193 -49 q-184 0 -299 158q-113 155 -113 415.5zM272 573.5q0 -198.5 74 -309t209 -110.5q133 0 207 110q76 113 76 309.5t-76 309.5q-74 111 -207 110q-135 0 -209 -110.5t-74 -309z" />
<glyph unicode="h" horiz-adv-x="1167" d="M168 0v1556h166v-610q59 102 139 151.5t186 49.5q174 0 263 -119q90 -121 90 -352v-676h-166v670q0 158 -55.5 237.5t-167.5 79.5q-135 0 -211 -94q-78 -96 -78 -260v-633h-166z" />
<glyph unicode="i" horiz-adv-x="512" d="M174 0v1120h166v-1120h-166zM174 1323v233h166v-233h-166z" />
<glyph unicode="j" horiz-adv-x="512" d="M-33 -270h43q95 0 129 49q35 51 35 201v1140h166v-1140q0 -213 -73.5 -309.5t-235.5 -96.5h-64v156zM174 1323v233h166v-233h-166z" />
<glyph unicode="k" horiz-adv-x="1064" d="M168 0v1556h166v-919l493 483h213l-534 -524l557 -596h-217l-512 547v-547h-166z" />
<glyph unicode="l" horiz-adv-x="512" d="M174 0v1556h166v-1556h-166z" />
<glyph unicode="m" horiz-adv-x="1794" d="M168 0v1120h166v-174q57 104 135 152q80 49 188 49q113 0 189 -62q74 -59 112 -180q66 125 150 182q88 59 203 60q158 0 243 -123q84 -121 84 -348v-676h-165v670q0 164 -52 239q-53 78 -157 78q-129 0 -203 -94q-76 -98 -76 -260v-633h-166v670q0 164 -51 239 q-53 78 -158 78q-129 0 -202 -96q-74 -95 -74 -258v-633h-166z" />
<glyph unicode="n" horiz-adv-x="1167" d="M168 0v1120h166v-174q59 102 139 151.5t186 49.5q174 0 263 -119q90 -121 90 -352v-676h-166v670q0 158 -55.5 237.5t-167.5 79.5q-135 0 -211 -94q-78 -96 -78 -260v-633h-166z" />
<glyph unicode="o" horiz-adv-x="1126" d="M102 559.5q0 276.5 123 432t338 155.5q217 0 340 -155.5t123 -432t-123 -432.5t-340 -156q-215 0 -338 156t-123 432.5zM276 559q0 -203 76 -317.5t211 -114.5q133 0 211 117q78 119 78 315.5t-78 314.5q-78 117 -211 117q-132 0 -209 -117q-78 -118 -78 -315z" />
<glyph unicode="p" horiz-adv-x="1169" d="M168 -426v1546h166v-170q51 98 131 147.5t190 49.5q186 0 299 -162q115 -164 115 -426t-115 -426q-113 -162 -299 -162q-111 0 -190.5 49.5t-130.5 147.5v-594h-166zM334 559q0 -199 76 -319q72 -115 206 -115q133 0 205 115q76 121 76 319q0 197 -76 318 q-74 117 -205 116q-133 0 -206 -116q-76 -121 -76 -318z" />
<glyph unicode="q" horiz-adv-x="1169" d="M102 559q0 262 115 426q113 162 297 162q111 0 191 -49q84 -51 133 -148v170h166v-1546h-166v594q-49 -96 -133 -148q-80 -49 -191 -49q-184 0 -297 162q-115 164 -115 426zM272 559q0 -199 76 -319q72 -115 207 -115q131 0 207 114.5t76 319.5q0 203 -76 318 q-78 117 -207 116q-133 0 -207 -116q-76 -121 -76 -318z" />
<glyph unicode="r" horiz-adv-x="755" d="M168 0v1120h166v-174q53 102 135 152q84 49 205 49q23 0 37 -2q33 -4 47 -8v-189q-25 16 -62 27q-31 8 -71 8q-141 0 -215 -102q-76 -104 -76 -291v-590h-166z" />
<glyph unicode="s" horiz-adv-x="958" d="M100 41v190q94 -53 180.5 -79.5t176.5 -26.5q113 0 180 45q63 43 63 125q0 76 -45 115q-47 41 -200 77l-58 15q-154 37 -221 110q-70 76 -70 205q0 158 102.5 244t285.5 86q100 0 174 -14q84 -16 147 -46v-174q-66 37 -145 60q-74 20 -156 20q-123 0 -184 -43 q-63 -45 -64 -125q0 -61 45 -100q41 -35 178 -70l56 -14q180 -43 252 -119q74 -76 73 -213q0 -156 -110 -248q-109 -90 -305 -90q-90 0 -170 17q-74 14 -185 53z" />
<glyph unicode="t" horiz-adv-x="720" d="M49 977v143h121v318h168v-318h342v-143h-342v-608q0 -137 32.5 -176t137.5 -39h172v-154h-172q-190 0 -264 80t-74 289v608h-121z" />
<glyph unicode="u" horiz-adv-x="1167" d="M158 442v678h164v-671q0 -156 57 -238q55 -80 166 -80q137 0 213 94q78 96 78 260v635h165v-1120h-165v172q-63 -104 -140 -152q-80 -49 -186 -49q-174 0 -262 119q-90 121 -90 352zM573 1147z" />
<glyph unicode="v" horiz-adv-x="1089" d="M55 1120h174l316 -940l315 940h176l-379 -1120h-225z" />
<glyph unicode="w" horiz-adv-x="1505" d="M78 1120h166l207 -874l204 874h197l207 -874l205 874h166l-265 -1120h-194l-217 918l-217 -918h-195z" />
<glyph unicode="x" horiz-adv-x="1089" d="M53 0l391 586l-358 534h197l266 -399l266 399h197l-365 -545l383 -575h-194l-293 440l-295 -440h-195z" />
<glyph unicode="y" horiz-adv-x="1089" d="M55 1120h174l316 -876l315 876h176l-442 -1224q-70 -199 -137.5 -260.5t-177.5 -61.5h-134v154h99q68 0 104 36q39 39 84 170l31 84z" />
<glyph unicode="z" horiz-adv-x="966" d="M80 0v168l622 805h-600v147h787v-168l-623 -805h623v-147h-809z" />
<glyph unicode="{" horiz-adv-x="1171" d="M229 541v143h56q129 0 178 57q47 55 47 207v240q0 221 76 295q77 74 301 73h55v-143h-61q-125 0 -166 -45q-37 -39 -37 -184v-248q0 -156 -41 -227.5t-141 -96.5q101 -28 141 -98q41 -72 41 -227v-248q0 -145 37 -184q41 -45 166 -45h61v-144h-55q-224 0 -301 74 q-76 74 -76 295v239q0 151 -49 209q-49 57 -176 58h-56z" />
<glyph unicode="|" horiz-adv-x="620" d="M233 -483v2048h154v-2048h-154z" />
<glyph unicode="}" horiz-adv-x="1171" d="M229 -190h64q125 0 164 43q39 41 39 186v248q0 156 41 227q40 71 141 98q-100 25 -141 96.5t-41 227.5v248q0 145 -39 186q-39 43 -164 43h-64v143h58q221 0 299 -73q76 -74 76 -295v-240q0 -150 49 -207t176 -57h55v-143h-55q-127 0 -176 -58t-49 -209v-239 q0 -221 -76 -295q-78 -74 -299 -74h-58v144z" />
<glyph unicode="~" d="M195 467v178q92 78 176 113q82 35 168 35q104 0 231 -60l12 -6q2 0 9.5 -3t11.5 -5q139 -61 223 -62q77 0 154 37q72 35 170 123v-178q-92 -78 -176 -113q-82 -35 -168 -34q-94 0 -230 59q-10 4 -14 6q-2 0 -9.5 3t-11.5 5q-141 61 -223 61.5t-158 -38.5 q-81 -43 -165 -121z" />
<glyph unicode="&#xa1;" horiz-adv-x="737" d="M279 0v655l18 357h145l19 -357v-655h-182zM279 1239v254h182v-254h-182z" />
<glyph unicode="&#xa2;" horiz-adv-x="1171" d="M156 559q0 260 118 412q119 154 336 174v287h92v-287q57 -2 129 -21q53 -14 121 -47v-172q-70 41 -127 62q-61 22 -123 24v-864q68 6 125 27q68 23 125 59v-170q-51 -27 -118 -47q-61 -18 -132 -25v-284h-92v288q-217 20 -336 175q-118 151 -118 409zM330 559 q0 -186 73 -299q72 -111 207 -129v856q-133 -18 -207 -131q-73 -115 -73 -297z" />
<glyph unicode="&#xa3;" horiz-adv-x="1171" d="M117 0v170h211v465h-178v143h178v238q0 258 96 383q94 121 305 121q61 0 125 -15q53 -12 137 -45v-182q-68 40 -129 61q-59 20 -117 21q-131 0 -184 -78t-53 -289v-215h352v-143h-352v-465h502v-170h-893z" />
<glyph unicode="&#xa4;" horiz-adv-x="1171" d="M86 197l184 206q-27 47 -49 121q-16 51 -16 117q0 72 16 123q18 59 51 113l-186 206l104 115l187 -207q47 39 100 58q52 18 111 18q55 0 106 -18q55 -18 109 -56l184 209l105 -115l-187 -206q33 -57 49.5 -119t16.5 -121q0 -70 -17 -121q-18 -61 -53 -114l189 -207 l-105 -113l-184 207q-53 -41 -107 -60q-51 -18 -106 -18q-51 0 -107 18q-51 16 -108 56l-187 -207zM344 643q0 -115 71.5 -192.5t172.5 -77.5q102 0 171.5 77.5t69.5 192.5q0 113 -69 188q-72 78 -172.5 78t-172 -77.5t-71.5 -188.5z" />
<glyph unicode="&#xa5;" horiz-adv-x="1171" d="M74 1493h172l340 -700l340 700h172l-287 -586h238v-123h-297l-76 -155v-51h373v-123h-371v-455h-182v455h-373v123h373v51l-76 155h-297v123h235z" />
<glyph unicode="&#xa6;" horiz-adv-x="620" d="M233 -350v758h154v-758h-154zM233 674v758h154v-758h-154z" />
<glyph unicode="&#xa7;" horiz-adv-x="919" d="M84 723q0 94 41 162q45 76 123 121q-51 41 -80 100q-27 53 -27 125q0 129 90 209q89 80 240 80q72 0 135 -15q70 -16 139 -43v-164q-68 37 -139 57.5t-114 20.5q-84 0 -136 -41q-49 -40 -49 -110q0 -90 187 -205q8 -4 34 -23q193 -121 250 -196q59 -78 60 -178 q0 -89 -43 -160q-43 -72 -125 -123q59 -55 82 -107q27 -59 26 -118q0 -143 -92 -226q-94 -84 -248 -84q-70 0 -135 15q-61 14 -147 43v164q74 -39 143 -58q76 -20 119 -20q90 0 143 43q51 43 51 117q0 102 -198 225l-23 14q-190 117 -250 197q-57 76 -57 178zM229 754 q0 -74 62 -142q57 -63 289 -202q59 49 84 90q27 45 26 92q0 78 -63 143q-68 72 -285 201q-61 -47 -86 -90q-27 -45 -27 -92z" />
<glyph unicode="&#xa8;" horiz-adv-x="919" d="M195 1350v202h182v-202h-182zM545 1350v202h182v-202h-182z" />
<glyph unicode="&#xa9;" horiz-adv-x="1841" d="M256 741q0 158 47 285q49 132 148 240q102 113 215 164q121 55 256 55t254 -55q117 -53 217 -164q98 -108 147 -240q47 -127 47 -285q0 -160 -47 -282q-51 -135 -147 -240q-100 -111 -217 -164q-119 -55 -254.5 -55t-255.5 55q-113 51 -215 164q-96 104 -148 240 q-47 122 -47 282zM344 741q0 -131 43 -243q41 -111 129 -207q82 -94 186.5 -141.5t219.5 -47.5q117 0 221 47.5t186 141.5q80 90 125 207q43 113 43 243q0 132 -43 246q-45 117 -125 207q-82 94 -186.5 141t-220.5 47q-115 0 -219.5 -47t-186.5 -141q-86 -95 -129 -209 q-43 -113 -43 -244zM524 741q0 211 113 330q115 121 307 121q70 0 127 -14q74 -18 121 -41v-129q-61 35 -119 49q-61 16 -119 16q-131 0 -209 -88q-76 -84 -75 -244q0 -158 77.5 -245.5t217.5 -87.5q53 0 112 16q51 14 115 49v-127q-61 -28 -123 -43q-57 -14 -125 -14 q-194 0 -307 123q-113 120 -113 329z" />
<glyph unicode="&#xaa;" horiz-adv-x="866" d="M104 946q0 137 86 205t254 68h164v4q0 90 -53 137q-51 45 -158 45q-61 0 -116 -16q-66 -20 -123 -52v127q51 23 131 41q59 14 129 15q164 0 243.5 -88.5t79.5 -266.5v-448h-133v112q-40 -65 -104 -98q-63 -33 -148 -33q-117 0 -184.5 67.5t-67.5 180.5zM125 469v123h618 v-123h-618zM236 958q0 -61 45 -102q41 -39 116 -39q92 0 151.5 72t59.5 186v29h-114q-147 0 -201 -33q-57 -35 -57 -113z" />
<glyph unicode="&#xab;" horiz-adv-x="1126" d="M141 559v82l422 418v-191l-270 -268l270 -268v-191zM532 559v82l422 418v-191l-270 -268l270 -268v-191z" />
<glyph unicode="&#xac;" d="M195 692v170h1155v-575h-152v405h-1003z" />
<glyph unicode="&#xad;" horiz-adv-x="663" d="M90 479v164h485v-164h-485z" />
<glyph unicode="&#xae;" horiz-adv-x="1841" d="M256 741q0 158 47 285q49 132 148 240q102 113 215 164q121 55 256 55t254 -55q117 -53 217 -164q98 -108 147 -240q47 -127 47 -285q0 -160 -47 -282q-51 -135 -147 -240q-100 -111 -217 -164q-119 -55 -254.5 -55t-255.5 55q-113 51 -215 164q-96 104 -148 240 q-47 122 -47 282zM344 741q0 -131 43 -243q41 -111 129 -207q82 -94 186.5 -141.5t219.5 -47.5q117 0 221 47.5t186 141.5q80 90 125 207q43 113 43 243q0 132 -43 246q-45 117 -125 207q-82 94 -186.5 141t-220.5 47q-115 0 -219.5 -47t-186.5 -141q-86 -95 -129 -209 q-43 -113 -43 -244zM647 338v836h256q156 0 238 -60q78 -57 78 -180q0 -84 -48 -141q-45 -55 -133 -74q23 -10 52 -47q39 -51 71 -111l123 -223h-154l-116 209q-53 96 -86 121q-37 27 -82 26h-60v-356h-139zM786 795h111q98 0 139 30q39 31 39 107q0 78 -41 108 q-39 31 -137 31h-111v-276z" />
<glyph unicode="&#xaf;" horiz-adv-x="919" d="M193 1378v148h536v-148h-536z" />
<glyph unicode="&#xb0;" horiz-adv-x="919" d="M176 1200q0 137 82 227q83 92 203 93q58 0 110 -25q59 -27 93 -70q39 -41 61 -102q20 -55 20 -123q0 -133 -81 -223q-82 -92 -205 -92t-203 90t-80 225zM291 1200q0 -78 49 -133t120.5 -55t121.5 55q51 57 51 133q0 78 -51 135q-49 55 -121 55.5t-121 -55t-49 -135.5z " />
<glyph unicode="&#xb1;" d="M195 0v170h1155v-170h-1155zM195 727v170h501v387h152v-387h502v-170h-502v-387h-152v387h-501z" />
<glyph unicode="&#xb2;" horiz-adv-x="737" d="M86 668v110l86 86q309 303 309 400q0 66 -47 106.5t-123 40.5q-45 0 -100 -18q-63 -20 -121 -52v123q55 23 129 41q57 14 111 15q131 0 208.5 -65.5t77.5 -174.5q0 -141 -297 -424l-77 -74h381v-114h-537z" />
<glyph unicode="&#xb3;" horiz-adv-x="737" d="M88 694v121q47 -29 100.5 -41t112.5 -12q100 0 153.5 39t53.5 110q0 76 -49 113t-148 37h-78v108h86q84 0 127 31t43 92q0 57 -45 88q-47 31 -129 31q-41 0 -82 -8q-20 -4 -118 -33v115q57 16 123 26q51 8 106 9q129 0 207 -60q76 -57 76 -157q0 -66 -41 -117 q-37 -47 -115 -66q83 -18 129 -73q45 -53 45 -136q0 -123 -86 -190.5t-244 -67.5q-47 0 -108 11q-53 7 -119 30z" />
<glyph unicode="&#xb4;" horiz-adv-x="919" d="M334 1262l252 376h180l-295 -376h-137z" />
<glyph unicode="&#xb5;" horiz-adv-x="1171" d="M158 -426v1546h164v-696q0 -143 63 -219q61 -74 182 -74q133 0 201 84q68 83 68 252v653h165v-862q0 -61 15 -88q16 -29 51 -29q6 0 20 6q2 2 10.5 4.5t15.5 5.5t15 7v-148q-43 -25 -69 -34q-29 -10 -66 -11q-61 0 -98 39q-35 39 -51 119q-45 -78 -111 -119 q-63 -39 -153 -39q-92 0 -156 39q-66 41 -102 117v-553h-164z" />
<glyph unicode="&#xb6;" horiz-adv-x="1171" d="M141 1071q0 188 117 305t311 117h404v-1690h-127v1567h-170v-1567h-129v846q-193 18 -299.5 127t-106.5 295z" />
<glyph unicode="&#xb7;" horiz-adv-x="583" d="M197 584v254h190v-254h-190z" />
<glyph unicode="&#xb8;" horiz-adv-x="919" d="M262 -240q31 -18 64 -24q45 -8 75 -8q52 0 80 24q27 25 27 70q0 31 -19 74q-12 29 -61 104h109q47 -59 73 -115q25 -53 25 -100q0 -89 -55 -135q-53 -45 -160 -45q-40 0 -80 6q-37 6 -78 18v131z" />
<glyph unicode="&#xb9;" horiz-adv-x="737" d="M123 1348v116l207 39h125v-725h184v-110h-500v110h185v611z" />
<glyph unicode="&#xba;" horiz-adv-x="866" d="M86 1108q0 193 94 301q94 111 254 111q162 0 254 -111t92 -301t-92 -301q-90 -109 -254 -109q-160 0 -254 111q-94 109 -94 299zM125 469v123h618v-123h-618zM227 1108q0 -135 58 -213q59 -80 149 -80q96 0 151.5 80t55.5 213q0 137 -55.5 217t-151.5 80t-151.5 -80 t-55.5 -217z" />
<glyph unicode="&#xbb;" horiz-adv-x="1126" d="M174 141v191l270 268l-270 268v191l422 -418v-82zM563 141v191l273 268l-273 268v191l422 -418v-82z" />
<glyph unicode="&#xbc;" horiz-adv-x="1785" d="M123 1348v116l207 39h125v-725h184v-110h-500v110h185v611zM1104 186v121l353 528h149v-540h121v-109h-121v-186h-131v186h-371zM1199 295h276v419zM401 -29l840 1549h143l-840 -1549h-143z" />
<glyph unicode="&#xbd;" horiz-adv-x="1785" d="M123 1348v116l207 39h125v-725h184v-110h-500v110h185v611zM1133 0v110l86 86q309 303 309 400q0 66 -47 106.5t-123 40.5q-45 0 -100 -18q-63 -20 -121 -52v123q55 23 129 41q57 14 111 15q131 0 208.5 -65.5t77.5 -174.5q0 -141 -297 -424l-77 -74h381v-114h-537z M401 -29l840 1549h143l-840 -1549h-143z" />
<glyph unicode="&#xbe;" horiz-adv-x="1785" d="M88 694v121q47 -29 100.5 -41t112.5 -12q100 0 153.5 39t53.5 110q0 76 -49 113t-148 37h-78v108h86q84 0 127 31t43 92q0 57 -45 88q-47 31 -129 31q-41 0 -82 -8q-20 -4 -118 -33v115q57 16 123 26q51 8 106 9q129 0 207 -60q76 -57 76 -157q0 -66 -41 -117 q-37 -47 -115 -66q83 -18 129 -73q45 -53 45 -136q0 -123 -86 -190.5t-244 -67.5q-47 0 -108 11q-53 7 -119 30zM1104 186v121l353 528h149v-540h121v-109h-121v-186h-131v186h-371zM1199 295h276v419zM401 -29l840 1549h143l-840 -1549h-143z" />
<glyph unicode="&#xbf;" horiz-adv-x="976" d="M129 324q0 80 33 145q35 70 112 154l80 86q35 39 60 73q18 29 24 52q8 27 11 51q2 20 2 84v123h170v-156q0 -101 -25 -166q-27 -68 -107 -152l-79 -88q-53 -55 -76 -100q-23 -49 -23 -96q0 -88 59.5 -143.5t155.5 -55.5q72 0 154 35q78 33 166 102v-188q-82 -55 -170 -84 q-90 -29 -180 -29q-168 0 -267 97q-100 98 -100 256zM444 1239v254h183v-254h-183z" />
<glyph unicode="&#xc0;" horiz-adv-x="1259" d="M14 0l512 1493h207l512 -1493h-188l-123 383h-606l-121 -383h-193zM383 551h496l-248 743zM412 1899h168l176 -264h-137z" />
<glyph unicode="&#xc1;" horiz-adv-x="1259" d="M14 0l512 1493h207l512 -1493h-188l-123 383h-606l-121 -383h-193zM383 551h496l-248 743zM504 1635l176 264h166l-205 -264h-137z" />
<glyph unicode="&#xc2;" horiz-adv-x="1259" d="M14 0l512 1493h207l512 -1493h-188l-123 383h-606l-121 -383h-193zM383 551h496l-248 743zM357 1635l190 266h168l191 -266h-125l-150 178l-149 -178h-125z" />
<glyph unicode="&#xc3;" horiz-adv-x="1259" d="M14 0l512 1493h207l512 -1493h-188l-123 383h-606l-121 -383h-193zM383 551h496l-248 743zM334 1667q0 100 47 159.5t123 59.5q35 0 60 -8q37 -12 71 -35l51 -30q27 -14 35 -19q14 -6 29 -6q29 0 47.5 24.5t18.5 67.5v6h112q-3 -101 -49 -159q-47 -59 -121 -60 q-33 0 -57 9q-35 12 -74 34l-51 33q-12 8 -37 19q-16 6 -25 6q-31 0 -49 -24.5t-18 -70.5v-6h-113z" />
<glyph unicode="&#xc4;" horiz-adv-x="1259" d="M14 0l512 1493h207l512 -1493h-188l-123 383h-606l-121 -383h-193zM383 551h496l-248 743zM365 1667v203h182v-203h-182zM715 1667v203h182v-203h-182z" />
<glyph unicode="&#xc5;" horiz-adv-x="1259" d="M14 0l480 1397q-53 39 -82 98q-29 61 -29 131q0 113 72 195q70 80 176 80q100 0 174 -80t74 -195q0 -68 -29 -129q-29 -63 -82 -100l477 -1397h-188l-123 383h-606l-121 -383h-193zM385 551h492l-246 743zM494 1626q0 -66 38 -106q41 -45 99 -45q55 0 96 45t41 106.5 t-41 106.5t-96 45q-58 0 -99 -43q-38 -41 -38 -109z" />
<glyph unicode="&#xc6;" horiz-adv-x="1794" d="M6 0l563 1493h1092v-170h-668v-442h641v-170h-641v-541h684v-170h-866v383h-475l-143 -383h-187zM397 551h414v784h-117z" />
<glyph unicode="&#xc7;" horiz-adv-x="1286" d="M104 745.5q0 360.5 174.5 567.5t481.5 207q125 0 227 -35q113 -39 201 -107v-213q-92 95 -197 142q-106 47 -221 47q-229 0 -352 -156q-123 -158 -123 -452.5t123 -452.5q123 -156 352 -156q115 0 221 47q104 46 197 142v-211q-98 -72 -203 -109q-102 -35 -225 -35 q-307 0 -481.5 207t-174.5 567.5zM532 -240q31 -18 64 -24q45 -8 75 -8q52 0 80 24q27 25 27 70q0 31 -19 74q-12 29 -61 104h109q47 -59 73 -115q25 -53 25 -100q0 -89 -55 -135q-53 -45 -160 -45q-40 0 -80 6q-37 6 -78 18v131z" />
<glyph unicode="&#xc8;" horiz-adv-x="1163" d="M180 0v1493h850v-170h-668v-442h642v-170h-642v-541h685v-170h-867zM385 1899h168l176 -264h-137z" />
<glyph unicode="&#xc9;" horiz-adv-x="1163" d="M180 0v1493h850v-170h-668v-442h642v-170h-642v-541h685v-170h-867zM477 1635l176 264h166l-205 -264h-137z" />
<glyph unicode="&#xca;" horiz-adv-x="1163" d="M180 0v1493h850v-170h-668v-442h642v-170h-642v-541h685v-170h-867zM330 1635l190 266h168l191 -266h-125l-150 178l-149 -178h-125z" />
<glyph unicode="&#xcb;" horiz-adv-x="1163" d="M180 0v1493h850v-170h-668v-442h642v-170h-642v-541h685v-170h-867zM338 1667v203h182v-203h-182zM688 1667v203h182v-203h-182z" />
<glyph unicode="&#xcc;" horiz-adv-x="542" d="M180 0v1493h182v-1493h-182zM53 1899h168l176 -264h-137z" />
<glyph unicode="&#xcd;" horiz-adv-x="542" d="M180 0v1493h182v-1493h-182zM145 1635l176 264h166l-205 -264h-137z" />
<glyph unicode="&#xce;" horiz-adv-x="542" d="M180 0v1493h182v-1493h-182zM-2 1635l190 266h168l191 -266h-125l-150 178l-149 -178h-125z" />
<glyph unicode="&#xcf;" horiz-adv-x="542" d="M180 0v1493h182v-1493h-182zM6 1667v203h182v-203h-182zM356 1667v203h182v-203h-182z" />
<glyph unicode="&#xd0;" horiz-adv-x="1427" d="M8 700v144h182v649h373q393 0 574 -180q182 -182 182 -565q0 -387 -182.5 -567.5t-573.5 -180.5h-373v700h-182zM373 166h219q281 0 407 139q129 141 129 442.5t-129 440.5t-407 139h-219v-483h303v-144h-303v-534z" />
<glyph unicode="&#xd1;" horiz-adv-x="1376" d="M180 0v1493h246l596 -1249v1249h176v-1493h-246l-596 1249v-1249h-176zM393 1667q0 100 47 159.5t123 59.5q35 0 60 -8q37 -12 71 -35l51 -30q27 -14 35 -19q14 -6 29 -6q29 0 47.5 24.5t18.5 67.5v6h112q-3 -101 -49 -159q-47 -59 -121 -60q-33 0 -57 9q-35 12 -74 34 l-51 33q-12 8 -37 19q-16 6 -25 6q-31 0 -49 -24.5t-18 -70.5v-6h-113z" />
<glyph unicode="&#xd2;" horiz-adv-x="1449" d="M104 745q0 350 170 564q168 211 451 211q285 0 453 -211q170 -213 170 -563.5t-170 -563.5q-168 -211 -453 -211q-283 0 -451 209q-170 211 -170 565zM295 745.5q0 -282.5 116.5 -446.5t313.5 -164q199 0 315 164q115 160 115 446.5t-115 446.5q-117 164 -315 164 q-197 0 -313.5 -164t-116.5 -446.5zM508 1899h168l176 -264h-137z" />
<glyph unicode="&#xd3;" horiz-adv-x="1449" d="M104 745q0 350 170 564q168 211 451 211q285 0 453 -211q170 -213 170 -563.5t-170 -563.5q-168 -211 -453 -211q-283 0 -451 209q-170 211 -170 565zM295 745.5q0 -282.5 116.5 -446.5t313.5 -164q199 0 315 164q115 160 115 446.5t-115 446.5q-117 164 -315 164 q-197 0 -313.5 -164t-116.5 -446.5zM600 1635l176 264h166l-205 -264h-137z" />
<glyph unicode="&#xd4;" horiz-adv-x="1449" d="M104 745q0 350 170 564q168 211 451 211q285 0 453 -211q170 -213 170 -563.5t-170 -563.5q-168 -211 -453 -211q-283 0 -451 209q-170 211 -170 565zM295 745.5q0 -282.5 116.5 -446.5t313.5 -164q199 0 315 164q115 160 115 446.5t-115 446.5q-117 164 -315 164 q-197 0 -313.5 -164t-116.5 -446.5zM453 1635l190 266h168l191 -266h-125l-150 178l-149 -178h-125z" />
<glyph unicode="&#xd5;" horiz-adv-x="1449" d="M104 745q0 350 170 564q168 211 451 211q285 0 453 -211q170 -213 170 -563.5t-170 -563.5q-168 -211 -453 -211q-283 0 -451 209q-170 211 -170 565zM295 745.5q0 -282.5 116.5 -446.5t313.5 -164q199 0 315 164q115 160 115 446.5t-115 446.5q-117 164 -315 164 q-197 0 -313.5 -164t-116.5 -446.5zM430 1667q0 100 47 159.5t123 59.5q35 0 60 -8q37 -12 71 -35l51 -30q27 -14 35 -19q14 -6 29 -6q29 0 47.5 24.5t18.5 67.5v6h112q-3 -101 -49 -159q-47 -59 -121 -60q-33 0 -57 9q-35 12 -74 34l-51 33q-12 8 -37 19q-16 6 -25 6 q-31 0 -49 -24.5t-18 -70.5v-6h-113z" />
<glyph unicode="&#xd6;" horiz-adv-x="1449" d="M104 745q0 350 170 564q168 211 451 211q285 0 453 -211q170 -213 170 -563.5t-170 -563.5q-168 -211 -453 -211q-283 0 -451 209q-170 211 -170 565zM295 745.5q0 -282.5 116.5 -446.5t313.5 -164q199 0 315 164q115 160 115 446.5t-115 446.5q-117 164 -315 164 q-197 0 -313.5 -164t-116.5 -446.5zM461 1667v203h182v-203h-182zM811 1667v203h182v-203h-182z" />
<glyph unicode="&#xd7;" d="M254 184l410 457l-410 459l104 121l414 -459l414 459l106 -121l-411 -459l411 -457l-106 -121l-414 459l-414 -459z" />
<glyph unicode="&#xd8;" horiz-adv-x="1449" d="M92 18l154 201q-70 98 -107 234q-35 125 -35 292q0 350 170 564q168 211 451 211q121 0 217 -39q106 -43 178 -113l146 191l92 -89l-154 -198q70 -102 107 -236q37 -131 37 -291q0 -350 -170 -563q-168 -211 -453 -211q-115 0 -213 37q-96 37 -182 113l-146 -191z M295 745q0 -111 18.5 -207t51.5 -161l647 848q-57 66 -127 98q-72 33 -160 33q-197 0 -313.5 -164t-116.5 -447zM440 266q55 -65 129 -98q72 -33 156 -33q199 0 315 164q115 160 115 446q0 121 -16 203q-18 90 -54 164z" />
<glyph unicode="&#xd9;" horiz-adv-x="1347" d="M160 561v932h182v-907q0 -242 80 -346.5t254 -104.5q175 0 252 105q78 106 78 346v907h184v-932q0 -287 -131 -440q-129 -150 -383 -150q-256 0 -385 150q-131 153 -131 440zM457 1899h168l176 -264h-137z" />
<glyph unicode="&#xda;" horiz-adv-x="1347" d="M160 561v932h182v-907q0 -242 80 -346.5t254 -104.5q175 0 252 105q78 106 78 346v907h184v-932q0 -287 -131 -440q-129 -150 -383 -150q-256 0 -385 150q-131 153 -131 440zM549 1635l176 264h166l-205 -264h-137z" />
<glyph unicode="&#xdb;" horiz-adv-x="1347" d="M160 561v932h182v-907q0 -242 80 -346.5t254 -104.5q175 0 252 105q78 106 78 346v907h184v-932q0 -287 -131 -440q-129 -150 -383 -150q-256 0 -385 150q-131 153 -131 440zM402 1635l190 266h168l191 -266h-125l-150 178l-149 -178h-125z" />
<glyph unicode="&#xdc;" horiz-adv-x="1347" d="M160 561v932h182v-907q0 -242 80 -346.5t254 -104.5q175 0 252 105q78 106 78 346v907h184v-932q0 -287 -131 -440q-129 -150 -383 -150q-256 0 -385 150q-131 153 -131 440zM410 1667v203h182v-203h-182zM760 1667v203h182v-203h-182z" />
<glyph unicode="&#xdd;" horiz-adv-x="1124" d="M-4 1493h197l370 -614l371 614h196l-477 -782v-711h-182v711zM436 1635l176 264h166l-205 -264h-137z" />
<glyph unicode="&#xde;" horiz-adv-x="1114" d="M180 0v1493h182v-264h230q225 0 340 -113q117 -113 117 -332t-117 -333q-115 -113 -340 -113h-230v-338h-182zM362 504h230q126 0 196 74q68 70 68 206q0 133 -68 207q-66 72 -196 72h-230v-559z" />
<glyph unicode="&#xdf;" horiz-adv-x="1159" d="M168 0v1137q0 201 106 309q106 111 306 110q186 0 284 -116q100 -119 103 -340q-139 -10 -213 -65.5t-74 -153.5q0 -49 25 -88q23 -37 83 -82l54 -37q147 -104 190 -176q43 -71 43 -172q0 -170 -100 -263q-102 -92 -291 -92q-57 0 -119 13q-63 12 -127 36v164 q66 -29 135 -45q59 -14 121 -14q102 0 160 47q53 45 53 139q0 63 -26 105q-31 47 -117 104l-84 55q-84 57 -125 127q-39 66 -39 158q0 125 76 213q74 86 211 115q-6 100 -68 160q-58 55 -160 55q-117 0 -178 -70q-61 -72 -61 -200v-1133h-168z" />
<glyph unicode="&#xe0;" horiz-adv-x="1128" d="M111 326q0 188 114.5 284.5t337.5 96.5h234v18q0 125 -76 197q-72 70 -211 69q-82 0 -168 -22q-74 -18 -158 -70v170q98 43 176 59q86 18 166 19q221 0 328 -125q109 -127 109 -383v-639h-166v170q-55 -100 -141.5 -149.5t-206.5 -49.5q-154 0 -246 97q-92 95 -92 258z M276 338q0 -98 57.5 -155.5t158.5 -57.5q137 0 221 108.5t84 288.5v41h-164q-203 0 -279 -51q-78 -53 -78 -174zM228 1638h176l254 -374h-138z" />
<glyph unicode="&#xe1;" horiz-adv-x="1128" d="M111 326q0 188 114.5 284.5t337.5 96.5h234v18q0 125 -76 197q-72 70 -211 69q-82 0 -168 -22q-74 -18 -158 -70v170q98 43 176 59q86 18 166 19q221 0 328 -125q109 -127 109 -383v-639h-166v170q-55 -100 -141.5 -149.5t-206.5 -49.5q-154 0 -246 97q-92 95 -92 258z M276 338q0 -98 57.5 -155.5t158.5 -57.5q137 0 221 108.5t84 288.5v41h-164q-203 0 -279 -51q-78 -53 -78 -174zM408 1262l252 376h180l-295 -376h-137z" />
<glyph unicode="&#xe2;" horiz-adv-x="1128" d="M111 326q0 188 114.5 284.5t337.5 96.5h234v18q0 125 -76 197q-72 70 -211 69q-82 0 -168 -22q-74 -18 -158 -70v170q98 43 176 59q86 18 166 19q221 0 328 -125q109 -127 109 -383v-639h-166v170q-55 -100 -141.5 -149.5t-206.5 -49.5q-154 0 -246 97q-92 95 -92 258z M276 338q0 -98 57.5 -155.5t158.5 -57.5q137 0 221 108.5t84 288.5v41h-164q-203 0 -279 -51q-78 -53 -78 -174zM248 1262l219 376h133l222 -376h-125l-162 245l-162 -245h-125z" />
<glyph unicode="&#xe3;" horiz-adv-x="1128" d="M111 326q0 188 114.5 284.5t337.5 96.5h234v18q0 125 -76 197q-72 70 -211 69q-82 0 -168 -22q-74 -18 -158 -70v170q98 43 176 59q86 18 166 19q221 0 328 -125q109 -127 109 -383v-639h-166v170q-55 -100 -141.5 -149.5t-206.5 -49.5q-154 0 -246 97q-92 95 -92 258z M276 338q0 -98 57.5 -155.5t158.5 -57.5q137 0 221 108.5t84 288.5v41h-164q-203 0 -279 -51q-78 -53 -78 -174zM238 1309q4 139 47 209q46 74 129 73q37 0 63 -14q33 -18 62 -47l51 -55q20 -20 35 -29q16 -10 27 -10q34 0 49 37q18 45 18 118h113q-4 -139 -47 -209 q-46 -74 -129 -73q-37 0 -64 14q-33 18 -61 47l-51 55q-20 20 -35 29q-16 10 -27 10q-34 0 -49 -37q-16 -37 -19 -118h-112z" />
<glyph unicode="&#xe4;" horiz-adv-x="1128" d="M111 326q0 188 114.5 284.5t337.5 96.5h234v18q0 125 -76 197q-72 70 -211 69q-82 0 -168 -22q-74 -18 -158 -70v170q98 43 176 59q86 18 166 19q221 0 328 -125q109 -127 109 -383v-639h-166v170q-55 -100 -141.5 -149.5t-206.5 -49.5q-154 0 -246 97q-92 95 -92 258z M276 338q0 -98 57.5 -155.5t158.5 -57.5q137 0 221 108.5t84 288.5v41h-164q-203 0 -279 -51q-78 -53 -78 -174zM269 1350v202h182v-202h-182zM619 1350v202h182v-202h-182z" />
<glyph unicode="&#xe5;" horiz-adv-x="1128" d="M111 326q0 188 114.5 284.5t337.5 96.5h234v18q0 125 -76 197q-72 70 -211 69q-82 0 -168 -22q-74 -18 -158 -70v170q98 43 176 59q86 18 166 19q221 0 328 -125q109 -127 109 -383v-639h-166v170q-55 -100 -141.5 -149.5t-206.5 -49.5q-154 0 -246 97q-92 95 -92 258z M276 338q0 -98 57.5 -155.5t158.5 -57.5q137 0 221 108.5t84 288.5v41h-164q-203 0 -279 -51q-78 -53 -78 -174zM287 1524q0 113 72 194q72 80 176 80t174 -80q72 -82 72 -194.5t-72 -194.5q-70 -80 -174.5 -80t-175.5 80q-72 82 -72 195zM398 1523.5q0 -67.5 38 -108.5 q40 -43 99 -43q55 0 96 43q41 45 41 109q0 61 -41 106t-96 45q-58 0 -99 -43q-38 -41 -38 -108.5z" />
<glyph unicode="&#xe6;" horiz-adv-x="1808" d="M111 326q0 188 114.5 284.5t337.5 96.5h234v18q0 125 -76 197q-72 70 -211 69q-82 0 -168 -22q-74 -18 -158 -70v170q98 43 176 59q86 18 166 19q133 0 226 -47q98 -51 145 -137q68 92 160 137q98 47 215 47q201 0 321 -146q119 -143 119 -395v-90h-762q12 -188 105 -291 q92 -100 256 -100q96 0 182 27q94 29 180 79v-174q-84 -41 -182 -63q-96 -23 -191 -23q-154 0 -260 60q-117 66 -182 180q-63 -119 -162 -180q-94 -59 -227 -60q-169 0 -264 92q-94 93 -94 263zM276 338q0 -98 57.5 -155.5t158.5 -57.5q137 0 221 108.5t84 288.5v41h-164 q-203 0 -279 -51q-78 -53 -78 -174zM956 659h590q0 150 -76 242q-74 90 -196 90q-137 0 -221.5 -88t-96.5 -244z" />
<glyph unicode="&#xe7;" horiz-adv-x="1011" d="M102 559q0 273 136 430q135 158 370 158q84 0 150 -17q70 -16 141 -53v-172q-68 41 -141.5 63.5t-141.5 22.5q-162 0 -251 -114q-88 -113 -89 -318q0 -207 88.5 -319.5t251.5 -112.5q68 0 141.5 22.5t141.5 63.5v-170q-59 -33 -143 -53q-74 -18 -158 -19 q-229 0 -362.5 158t-133.5 430zM391 -240q31 -18 64 -24q45 -8 75 -8q52 0 80 24q27 25 27 70q0 31 -19 74q-12 29 -61 104h109q47 -59 73 -115q25 -53 25 -100q0 -89 -55 -135q-53 -45 -160 -45q-40 0 -80 6q-37 6 -78 18v131z" />
<glyph unicode="&#xe8;" horiz-adv-x="1132" d="M102 549q0 272 134 436q131 162 360 162q201 0 322 -146q119 -143 118 -395v-90h-762q12 -193 103 -289q94 -100 258 -100q88 0 184 27q86 25 178 77v-174q-84 -41 -182 -63q-96 -23 -190 -23q-242 0 -383 156q-140 154 -140 422zM281 659h589q-4 154 -75 242 q-74 90 -197 90q-139 0 -223 -88q-82 -84 -94 -244zM279 1638h176l254 -374h-138z" />
<glyph unicode="&#xe9;" horiz-adv-x="1132" d="M102 549q0 272 134 436q131 162 360 162q201 0 322 -146q119 -143 118 -395v-90h-762q12 -193 103 -289q94 -100 258 -100q88 0 184 27q86 25 178 77v-174q-84 -41 -182 -63q-96 -23 -190 -23q-242 0 -383 156q-140 154 -140 422zM281 659h589q-4 154 -75 242 q-74 90 -197 90q-139 0 -223 -88q-82 -84 -94 -244zM459 1262l252 376h180l-295 -376h-137z" />
<glyph unicode="&#xea;" horiz-adv-x="1132" d="M102 549q0 272 134 436q131 162 360 162q201 0 322 -146q119 -143 118 -395v-90h-762q12 -193 103 -289q94 -100 258 -100q88 0 184 27q86 25 178 77v-174q-84 -41 -182 -63q-96 -23 -190 -23q-242 0 -383 156q-140 154 -140 422zM281 659h589q-4 154 -75 242 q-74 90 -197 90q-139 0 -223 -88q-82 -84 -94 -244zM299 1262l219 376h133l222 -376h-125l-162 245l-162 -245h-125z" />
<glyph unicode="&#xeb;" horiz-adv-x="1132" d="M102 549q0 272 134 436q131 162 360 162q201 0 322 -146q119 -143 118 -395v-90h-762q12 -193 103 -289q94 -100 258 -100q88 0 184 27q86 25 178 77v-174q-84 -41 -182 -63q-96 -23 -190 -23q-242 0 -383 156q-140 154 -140 422zM281 659h589q-4 154 -75 242 q-74 90 -197 90q-139 0 -223 -88q-82 -84 -94 -244zM320 1350v202h182v-202h-182zM670 1350v202h182v-202h-182z" />
<glyph unicode="&#xec;" horiz-adv-x="512" d="M-51 1638h176l254 -374h-138zM174 0v1120h166v-1120h-166zM256 1147z" />
<glyph unicode="&#xed;" horiz-adv-x="512" d="M129 1262l252 376h180l-295 -376h-137zM174 0v1120h166v-1120h-166zM256 1147z" />
<glyph unicode="&#xee;" horiz-adv-x="512" d="M174 0v1120h166v-1120h-166zM256 1147zM-31 1262l219 376h133l222 -376h-125l-162 245l-162 -245h-125z" />
<glyph unicode="&#xef;" horiz-adv-x="512" d="M174 0v1120h166v-1120h-166zM256 1147zM-10 1350v202h182v-202h-182zM340 1350v202h182v-202h-182z" />
<glyph unicode="&#xf0;" horiz-adv-x="1126" d="M102 537q0 249 123 405t324 156q23 0 39 -2q49 -6 61 -9l-141 181l-289 -107l-29 99l252 92l-161 204h204l113 -145l301 111l31 -97l-266 -98l147 -186q111 -141 164 -287q51 -141 51 -317q0 -256 -127 -410q-129 -156 -336 -156q-209 0 -334 156q-127 158 -127 410z M276 537q0 -190 78 -299q80 -111 209 -111q132 0 209 111q80 115 80 299q0 123 -24.5 217t-73.5 161q-31 12 -84 25q-35 8 -76 8q-150 0 -234 -108t-84 -303z" />
<glyph unicode="&#xf1;" horiz-adv-x="1167" d="M168 0v1120h166v-174q59 102 139 151.5t186 49.5q174 0 263 -119q90 -121 90 -352v-676h-166v670q0 158 -55.5 237.5t-167.5 79.5q-135 0 -211 -94q-78 -96 -78 -260v-633h-166zM301 1309q4 139 47 209q46 74 129 73q37 0 63 -14q33 -18 62 -47l51 -55q20 -20 35 -29 q16 -10 27 -10q34 0 49 37q18 45 18 118h113q-4 -139 -47 -209q-46 -74 -129 -73q-37 0 -64 14q-33 18 -61 47l-51 55q-20 20 -35 29q-16 10 -27 10q-34 0 -49 -37q-16 -37 -19 -118h-112z" />
<glyph unicode="&#xf2;" horiz-adv-x="1126" d="M102 559.5q0 276.5 123 432t338 155.5q217 0 340 -155.5t123 -432t-123 -432.5t-340 -156q-215 0 -338 156t-123 432.5zM276 559q0 -203 76 -317.5t211 -114.5q133 0 211 117q78 119 78 315.5t-78 314.5q-78 117 -211 117q-132 0 -209 -117q-78 -118 -78 -315zM258 1638 h176l254 -374h-138z" />
<glyph unicode="&#xf3;" horiz-adv-x="1126" d="M102 559.5q0 276.5 123 432t338 155.5q217 0 340 -155.5t123 -432t-123 -432.5t-340 -156q-215 0 -338 156t-123 432.5zM276 559q0 -203 76 -317.5t211 -114.5q133 0 211 117q78 119 78 315.5t-78 314.5q-78 117 -211 117q-132 0 -209 -117q-78 -118 -78 -315zM438 1262 l252 376h180l-295 -376h-137z" />
<glyph unicode="&#xf4;" horiz-adv-x="1126" d="M102 559.5q0 276.5 123 432t338 155.5q217 0 340 -155.5t123 -432t-123 -432.5t-340 -156q-215 0 -338 156t-123 432.5zM276 559q0 -203 76 -317.5t211 -114.5q133 0 211 117q78 119 78 315.5t-78 314.5q-78 117 -211 117q-132 0 -209 -117q-78 -118 -78 -315zM278 1262 l219 376h133l222 -376h-125l-162 245l-162 -245h-125z" />
<glyph unicode="&#xf5;" horiz-adv-x="1126" d="M102 559.5q0 276.5 123 432t338 155.5q217 0 340 -155.5t123 -432t-123 -432.5t-340 -156q-215 0 -338 156t-123 432.5zM276 559q0 -203 76 -317.5t211 -114.5q133 0 211 117q78 119 78 315.5t-78 314.5q-78 117 -211 117q-132 0 -209 -117q-78 -118 -78 -315zM268 1309 q4 139 47 209q46 74 129 73q37 0 63 -14q33 -18 62 -47l51 -55q20 -20 35 -29q16 -10 27 -10q34 0 49 37q18 45 18 118h113q-4 -139 -47 -209q-46 -74 -129 -73q-37 0 -64 14q-33 18 -61 47l-51 55q-20 20 -35 29q-16 10 -27 10q-34 0 -49 -37q-16 -37 -19 -118h-112z" />
<glyph unicode="&#xf6;" horiz-adv-x="1126" d="M102 559.5q0 276.5 123 432t338 155.5q217 0 340 -155.5t123 -432t-123 -432.5t-340 -156q-215 0 -338 156t-123 432.5zM276 559q0 -203 76 -317.5t211 -114.5q133 0 211 117q78 119 78 315.5t-78 314.5q-78 117 -211 117q-132 0 -209 -117q-78 -118 -78 -315zM299 1350 v202h182v-202h-182zM649 1350v202h182v-202h-182z" />
<glyph unicode="&#xf7;" d="M195 557v170h1155v-170h-1155zM662 150v245h221v-245h-221zM662 889v246h221v-246h-221z" />
<glyph unicode="&#xf8;" horiz-adv-x="1126" d="M66 -16l133 182q-45 72 -72 176q-25 98 -25 217q0 276 123 432t338 156q84 0 156 -25q70 -25 133 -78l125 168l86 -79l-131 -179q47 -80 72 -176q23 -90 22 -219q0 -276 -123 -432t-340 -156q-78 0 -157 27q-70 23 -130 76l-124 -168zM276 545q0 -78 9 -127 q10 -57 26 -101l441 592q-35 37 -86 62q-43 20 -103 20q-133 0 -211 -117q-76 -114 -76 -329zM377 209q33 -39 82 -62q43 -20 104 -20q133 0 211 117q78 119 78 315q0 72 -10 137q-8 53 -29 105z" />
<glyph unicode="&#xf9;" horiz-adv-x="1167" d="M158 442v678h164v-671q0 -156 57 -238q55 -80 166 -80q137 0 213 94q78 96 78 260v635h165v-1120h-165v172q-63 -104 -140 -152q-80 -49 -186 -49q-174 0 -262 119q-90 121 -90 352zM573 1147zM265 1638h176l254 -374h-138z" />
<glyph unicode="&#xfa;" horiz-adv-x="1167" d="M158 442v678h164v-671q0 -156 57 -238q55 -80 166 -80q137 0 213 94q78 96 78 260v635h165v-1120h-165v172q-63 -104 -140 -152q-80 -49 -186 -49q-174 0 -262 119q-90 121 -90 352zM573 1147zM445 1262l252 376h180l-295 -376h-137z" />
<glyph unicode="&#xfb;" horiz-adv-x="1167" d="M158 442v678h164v-671q0 -156 57 -238q55 -80 166 -80q137 0 213 94q78 96 78 260v635h165v-1120h-165v172q-63 -104 -140 -152q-80 -49 -186 -49q-174 0 -262 119q-90 121 -90 352zM573 1147zM285 1262l219 376h133l222 -376h-125l-162 245l-162 -245h-125z" />
<glyph unicode="&#xfc;" horiz-adv-x="1167" d="M158 442v678h164v-671q0 -156 57 -238q55 -80 166 -80q137 0 213 94q78 96 78 260v635h165v-1120h-165v172q-63 -104 -140 -152q-80 -49 -186 -49q-174 0 -262 119q-90 121 -90 352zM573 1147zM306 1350v202h182v-202h-182zM656 1350v202h182v-202h-182z" />
<glyph unicode="&#xfd;" horiz-adv-x="1089" d="M55 1120h174l316 -876l315 876h176l-442 -1224q-70 -199 -137.5 -260.5t-177.5 -61.5h-134v154h99q68 0 104 36q39 39 84 170l31 84zM420 1262l252 376h180l-295 -376h-137z" />
<glyph unicode="&#xfe;" horiz-adv-x="1169" d="M168 -426v1982h166v-606q51 98 131 147.5t190 49.5q186 0 299 -162q115 -164 115 -426t-115 -426q-113 -162 -299 -162q-111 0 -190.5 49.5t-130.5 147.5v-594h-166zM334 559q0 -199 76 -319q72 -115 206 -115q133 0 205 115q76 121 76 319q0 197 -76 318 q-74 117 -205 116q-133 0 -206 -116q-76 -121 -76 -318z" />
<glyph unicode="&#xff;" horiz-adv-x="1089" d="M55 1120h174l316 -876l315 876h176l-442 -1224q-70 -199 -137.5 -260.5t-177.5 -61.5h-134v154h99q68 0 104 36q39 39 84 170l31 84zM281 1350v202h182v-202h-182zM631 1350v202h182v-202h-182z" />
<glyph unicode="&#x100;" horiz-adv-x="1259" d="M363 1693v148h536v-148h-536zM14 0l512 1493h207l512 -1493h-188l-123 383h-606l-121 -383h-193zM383 551h496l-248 743z" />
<glyph unicode="&#x101;" horiz-adv-x="1128" d="M261 1378v148h536v-148h-536zM111 326q0 188 114.5 284.5t337.5 96.5h234v18q0 125 -76 197q-72 70 -211 69q-82 0 -168 -22q-74 -18 -158 -70v170q98 43 176 59q86 18 166 19q221 0 328 -125q109 -127 109 -383v-639h-166v170q-55 -100 -141.5 -149.5t-206.5 -49.5 q-154 0 -246 97q-92 95 -92 258zM276 338q0 -98 57.5 -155.5t158.5 -57.5q137 0 221 108.5t84 288.5v41h-164q-203 0 -279 -51q-78 -53 -78 -174z" />
<glyph unicode="&#x102;" horiz-adv-x="1259" d="M362 1938h107q10 -76 53 -113t123 -37q78 0 121 37t55 113h104q-9 -144 -79 -215q-72 -72 -201 -72q-131 0 -203 72q-71 71 -80 215zM14 0l512 1493h207l512 -1493h-188l-123 383h-606l-121 -383h-193zM383 551h496l-248 743z" />
<glyph unicode="&#x103;" horiz-adv-x="1128" d="M250 1567h107q10 -76 53 -113t123 -37q78 0 121 37t55 113h104q-9 -144 -79 -215q-72 -72 -201 -72q-131 0 -203 72q-71 71 -80 215zM111 326q0 188 114.5 284.5t337.5 96.5h234v18q0 125 -76 197q-72 70 -211 69q-82 0 -168 -22q-74 -18 -158 -70v170q98 43 176 59 q86 18 166 19q221 0 328 -125q109 -127 109 -383v-639h-166v170q-55 -100 -141.5 -149.5t-206.5 -49.5q-154 0 -246 97q-92 95 -92 258zM276 338q0 -98 57.5 -155.5t158.5 -57.5q137 0 221 108.5t84 288.5v41h-164q-203 0 -279 -51q-78 -53 -78 -174z" />
<glyph unicode="&#x104;" horiz-adv-x="1259" d="M14 0l512 1493h207l512 -1493h-188l-123 383h-606l-121 -383h-193zM383 551h496l-248 743zM965 -215q0 53 23 100q27 55 73 115h109q-43 -66 -60 -104q-20 -47 -20 -76q0 -49 25 -70q27 -23 73 -22q20 0 58 8q25 6 55 22v-133q-16 -4 -66 -14q-31 -6 -57 -6 q-111 0 -162 43t-51 137z" />
<glyph unicode="&#x105;" horiz-adv-x="1128" d="M111 326q0 188 114.5 284.5t337.5 96.5h234v18q0 125 -76 197q-72 70 -211 69q-82 0 -168 -22q-74 -18 -158 -70v170q98 43 176 59q86 18 166 19q221 0 328 -125q109 -127 109 -383v-639h-166v170q-55 -100 -141.5 -149.5t-206.5 -49.5q-154 0 -246 97q-92 95 -92 258z M276 338q0 -98 57.5 -155.5t158.5 -57.5q137 0 221 108.5t84 288.5v41h-164q-203 0 -279 -51q-78 -53 -78 -174zM700 -215q0 53 23 100q27 55 73 115h109q-43 -66 -60 -104q-20 -47 -20 -76q0 -49 25 -70q27 -23 73 -22q20 0 58 8q25 6 55 22v-133q-16 -4 -66 -14 q-31 -6 -57 -6q-111 0 -162 43t-51 137z" />
<glyph unicode="&#x106;" horiz-adv-x="1286" d="M104 745.5q0 360.5 174.5 567.5t481.5 207q125 0 227 -35q113 -39 201 -107v-213q-92 95 -197 142q-106 47 -221 47q-229 0 -352 -156q-123 -158 -123 -452.5t123 -452.5q123 -156 352 -156q115 0 221 47q104 46 197 142v-211q-98 -72 -203 -109q-102 -35 -225 -35 q-307 0 -481.5 207t-174.5 567.5zM604 1635l176 264h166l-205 -264h-137z" />
<glyph unicode="&#x107;" horiz-adv-x="1011" d="M102 559q0 273 136 430q135 158 370 158q84 0 150 -17q70 -16 141 -53v-172q-68 41 -141.5 63.5t-141.5 22.5q-162 0 -251 -114q-88 -113 -89 -318q0 -207 88.5 -319.5t251.5 -112.5q68 0 141.5 22.5t141.5 63.5v-170q-59 -33 -143 -53q-74 -18 -158 -19 q-229 0 -362.5 158t-133.5 430zM457 1262l252 376h180l-295 -376h-137z" />
<glyph unicode="&#x108;" horiz-adv-x="1286" d="M486 1635l190 266h168l191 -266h-125l-150 178l-149 -178h-125zM104 745.5q0 360.5 174.5 567.5t481.5 207q125 0 227 -35q113 -39 201 -107v-213q-92 95 -197 142q-106 47 -221 47q-229 0 -352 -156q-123 -158 -123 -452.5t123 -452.5q123 -156 352 -156q115 0 221 47 q104 46 197 142v-211q-98 -72 -203 -109q-102 -35 -225 -35q-307 0 -481.5 207t-174.5 567.5z" />
<glyph unicode="&#x109;" horiz-adv-x="1011" d="M102 559q0 273 136 430q135 158 370 158q84 0 150 -17q70 -16 141 -53v-172q-68 41 -141.5 63.5t-141.5 22.5q-162 0 -251 -114q-88 -113 -89 -318q0 -207 88.5 -319.5t251.5 -112.5q68 0 141.5 22.5t141.5 63.5v-170q-59 -33 -143 -53q-74 -18 -158 -19 q-229 0 -362.5 158t-133.5 430zM321 1262l219 376h133l222 -376h-125l-162 245l-162 -245h-125z" />
<glyph unicode="&#x10a;" horiz-adv-x="1286" d="M104 745.5q0 360.5 174.5 567.5t481.5 207q125 0 227 -35q113 -39 201 -107v-213q-92 95 -197 142q-106 47 -221 47q-229 0 -352 -156q-123 -158 -123 -452.5t123 -452.5q123 -156 352 -156q115 0 221 47q104 46 197 142v-211q-98 -72 -203 -109q-102 -35 -225 -35 q-307 0 -481.5 207t-174.5 567.5zM668 1667v205h184v-205h-184z" />
<glyph unicode="&#x10b;" horiz-adv-x="1011" d="M102 559q0 273 136 430q135 158 370 158q84 0 150 -17q70 -16 141 -53v-172q-68 41 -141.5 63.5t-141.5 22.5q-162 0 -251 -114q-88 -113 -89 -318q0 -207 88.5 -319.5t251.5 -112.5q68 0 141.5 22.5t141.5 63.5v-170q-59 -33 -143 -53q-74 -18 -158 -19 q-229 0 -362.5 158t-133.5 430zM516 1348v204h184v-204h-184z" />
<glyph unicode="&#x10c;" horiz-adv-x="1286" d="M104 745.5q0 360.5 174.5 567.5t481.5 207q125 0 227 -35q113 -39 201 -107v-213q-92 95 -197 142q-106 47 -221 47q-229 0 -352 -156q-123 -158 -123 -452.5t123 -452.5q123 -156 352 -156q115 0 221 47q104 46 197 142v-211q-98 -72 -203 -109q-102 -35 -225 -35 q-307 0 -481.5 207t-174.5 567.5zM457 1901h125l149 -178l150 178h125l-191 -266h-168z" />
<glyph unicode="&#x10d;" horiz-adv-x="1011" d="M102 559q0 273 136 430q135 158 370 158q84 0 150 -17q70 -16 141 -53v-172q-68 41 -141.5 63.5t-141.5 22.5q-162 0 -251 -114q-88 -113 -89 -318q0 -207 88.5 -319.5t251.5 -112.5q68 0 141.5 22.5t141.5 63.5v-170q-59 -33 -143 -53q-74 -18 -158 -19 q-229 0 -362.5 158t-133.5 430zM297 1638h125l162 -245l162 245h125l-222 -376h-133z" />
<glyph unicode="&#x10e;" horiz-adv-x="1417" d="M180 0v1493h375q393 0 573 -180q182 -182 183 -565q0 -387 -185 -568q-182 -180 -571 -180h-375zM362 166h220q281 0 407 139q129 141 129 442.5t-129 440.5t-407 139h-220v-1161zM400 1921h125l149 -178l150 178h125l-191 -266h-168z" />
<glyph unicode="&#x10f;" horiz-adv-x="1169" d="M102 559q0 262 115 426q113 162 297 162q111 0 191 -49q84 -51 133 -148v606h166v-1556h-166v168q-49 -96 -133 -148q-80 -49 -191 -49q-184 0 -297 162q-115 164 -115 426zM272 559q0 -199 76 -319q72 -115 207 -115q131 0 207 114.5t76 319.5q0 203 -76 318 q-78 117 -207 116q-133 0 -207 -116q-76 -121 -76 -318zM1106 1178l63 376h178l-104 -376h-137z" />
<glyph unicode="&#x110;" horiz-adv-x="1427" d="M8 700v144h182v649h373q393 0 574 -180q182 -182 182 -565q0 -387 -182.5 -567.5t-573.5 -180.5h-373v700h-182zM373 166h219q281 0 407 139q129 141 129 442.5t-129 440.5t-407 139h-219v-483h303v-144h-303v-534z" />
<glyph unicode="&#x111;" horiz-adv-x="1169" d="M102 559q0 262 115 426q113 162 297 162q111 0 191 -49q84 -51 133 -148v334h-293v125h293v147h166v-147h137v-125h-137v-1284h-166v168q-49 -96 -133 -148q-80 -49 -191 -49q-184 0 -297 162q-115 164 -115 426zM272 559q0 -199 76 -319q72 -115 207 -115 q131 0 207 114.5t76 319.5q0 203 -76 318q-78 117 -207 116q-133 0 -207 -116q-76 -121 -76 -318z" />
<glyph unicode="&#x112;" horiz-adv-x="1163" d="M180 0v1493h850v-170h-668v-442h642v-170h-642v-541h685v-170h-867zM338 1695v148h536v-148h-536z" />
<glyph unicode="&#x113;" horiz-adv-x="1132" d="M328 1378v148h536v-148h-536zM102 549q0 272 134 436q131 162 360 162q201 0 322 -146q119 -143 118 -395v-90h-762q12 -193 103 -289q94 -100 258 -100q88 0 184 27q86 25 178 77v-174q-84 -41 -182 -63q-96 -23 -190 -23q-242 0 -383 156q-140 154 -140 422zM281 659 h589q-4 154 -75 242q-74 90 -197 90q-139 0 -223 -88q-82 -84 -94 -244z" />
<glyph unicode="&#x114;" horiz-adv-x="1163" d="M326 1901h104q12 -53 57 -82t119 -29q76 0 117 27q43 29 59 84h107q-8 -117 -82 -180q-72 -61 -201 -61.5t-200.5 61t-79.5 180.5zM180 0v1493h850v-170h-668v-442h642v-170h-642v-541h685v-170h-867z" />
<glyph unicode="&#x115;" horiz-adv-x="1132" d="M313 1608h107q10 -76 53 -113t123 -37q78 0 121 37t55 113h104q-9 -144 -79 -215q-72 -72 -201 -72q-131 0 -203 72q-71 71 -80 215zM102 549q0 272 134 436q131 162 360 162q201 0 322 -146q119 -143 118 -395v-90h-762q12 -193 103 -289q94 -100 258 -100q88 0 184 27 q86 25 178 77v-174q-84 -41 -182 -63q-96 -23 -190 -23q-242 0 -383 156q-140 154 -140 422zM281 659h589q-4 154 -75 242q-74 90 -197 90q-139 0 -223 -88q-82 -84 -94 -244z" />
<glyph unicode="&#x116;" horiz-adv-x="1163" d="M180 0v1493h850v-170h-668v-442h642v-170h-642v-541h685v-170h-867zM514 1667v205h184v-205h-184z" />
<glyph unicode="&#x117;" horiz-adv-x="1132" d="M102 549q0 272 134 436q131 162 360 162q201 0 322 -146q119 -143 118 -395v-90h-762q12 -193 103 -289q94 -100 258 -100q88 0 184 27q86 25 178 77v-174q-84 -41 -182 -63q-96 -23 -190 -23q-242 0 -383 156q-140 154 -140 422zM281 659h589q-4 154 -75 242 q-74 90 -197 90q-139 0 -223 -88q-82 -84 -94 -244zM504 1348v204h184v-204h-184z" />
<glyph unicode="&#x118;" horiz-adv-x="1163" d="M180 0v1493h850v-170h-668v-442h642v-170h-642v-541h685v-170h-867zM713 -215q0 53 23 100q27 55 73 115h109q-43 -66 -60 -104q-20 -47 -20 -76q0 -49 25 -70q27 -23 73 -22q20 0 58 8q25 6 55 22v-133q-16 -4 -66 -14q-31 -6 -57 -6q-111 0 -162 43t-51 137z" />
<glyph unicode="&#x119;" horiz-adv-x="1132" d="M102 549q0 272 134 436q131 162 360 162q201 0 322 -146q119 -143 118 -395v-90h-762q12 -193 103 -289q94 -100 258 -100q88 0 184 27q86 25 178 77v-174q-84 -41 -182 -63q-96 -23 -190 -23q-242 0 -383 156q-140 154 -140 422zM281 659h589q-4 154 -75 242 q-74 90 -197 90q-139 0 -223 -88q-82 -84 -94 -244zM637 -215q0 53 23 100q27 55 73 115h109q-43 -66 -60 -104q-20 -47 -20 -76q0 -49 25 -70q27 -23 73 -22q20 0 58 8q25 6 55 22v-133q-16 -4 -66 -14q-31 -6 -57 -6q-111 0 -162 43t-51 137z" />
<glyph unicode="&#x11a;" horiz-adv-x="1163" d="M180 0v1493h850v-170h-668v-442h642v-170h-642v-541h685v-170h-867zM336 1895h125l149 -178l150 178h125l-191 -266h-168z" />
<glyph unicode="&#x11b;" horiz-adv-x="1132" d="M102 549q0 272 134 436q131 162 360 162q201 0 322 -146q119 -143 118 -395v-90h-762q12 -193 103 -289q94 -100 258 -100q88 0 184 27q86 25 178 77v-174q-84 -41 -182 -63q-96 -23 -190 -23q-242 0 -383 156q-140 154 -140 422zM281 659h589q-4 154 -75 242 q-74 90 -197 90q-139 0 -223 -88q-82 -84 -94 -244zM307 1634h125l162 -245l162 245h125l-222 -376h-133z" />
<glyph unicode="&#x11c;" horiz-adv-x="1427" d="M500 1635l190 266h168l191 -266h-125l-150 178l-149 -178h-125zM104 745.5q0 366.5 177 569.5q178 205 493 205q137 0 250 -35q115 -35 217 -107v-215q-100 94 -213 144q-109 47 -240 47q-246 0 -368 -154q-125 -156 -125 -455t125 -454q123 -154 368 -154q96 0 173 19 q78 18 137 57v401h-297v166h477v-641q-100 -80 -234 -125q-126 -43 -270 -43q-315 0 -493 205q-177 203 -177 569.5z" />
<glyph unicode="&#x11d;" horiz-adv-x="1169" d="M268 1262l219 376h133l222 -376h-125l-162 245l-162 -245h-125zM102 573.5q0 260.5 113 415.5q115 158 299 158q113 0 193 -49q78 -49 131 -148v170h166v-981q0 -287 -115 -426t-350 -139q-94 0 -166 14q-80 16 -150 45v179q78 -45 144 -66q68 -20 145 -20q164 0 244 94 q82 98 82 286v91q-53 -98 -131 -148q-80 -49 -193 -49q-184 0 -299 158q-113 155 -113 415.5zM272 573.5q0 -198.5 74 -309t209 -110.5q133 0 207 110q76 113 76 309.5t-76 309.5q-74 111 -207 110q-135 0 -209 -110.5t-74 -309z" />
<glyph unicode="&#x11e;" horiz-adv-x="1427" d="M104 745.5q0 366.5 177 569.5q178 205 493 205q137 0 250 -35q115 -35 217 -107v-215q-100 94 -213 144q-109 47 -240 47q-246 0 -368 -154q-125 -156 -125 -455t125 -454q123 -154 368 -154q96 0 173 19q78 18 137 57v401h-297v166h477v-641q-100 -80 -234 -125 q-126 -43 -270 -43q-315 0 -493 205q-177 203 -177 569.5zM435 1901h104q12 -53 57 -82t119 -29q76 0 117 27q43 29 59 84h107q-8 -117 -82 -180q-72 -61 -201 -61.5t-200.5 61t-79.5 180.5z" />
<glyph unicode="&#x11f;" horiz-adv-x="1169" d="M102 573.5q0 260.5 113 415.5q115 158 299 158q113 0 193 -49q78 -49 131 -148v170h166v-981q0 -287 -115 -426t-350 -139q-94 0 -166 14q-80 16 -150 45v179q78 -45 144 -66q68 -20 145 -20q164 0 244 94q82 98 82 286v91q-53 -98 -131 -148q-80 -49 -193 -49 q-184 0 -299 158q-113 155 -113 415.5zM272 573.5q0 -198.5 74 -309t209 -110.5q133 0 207 110q76 113 76 309.5t-76 309.5q-74 111 -207 110q-135 0 -209 -110.5t-74 -309zM303 1608h107q10 -76 53 -113t123 -37q78 0 121 37t55 113h104q-9 -144 -79 -215q-72 -72 -201 -72 q-131 0 -203 72q-71 71 -80 215z" />
<glyph unicode="&#x120;" horiz-adv-x="1427" d="M682 1667v205h184v-205h-184zM104 745.5q0 366.5 177 569.5q178 205 493 205q137 0 250 -35q115 -35 217 -107v-215q-100 94 -213 144q-109 47 -240 47q-246 0 -368 -154q-125 -156 -125 -455t125 -454q123 -154 368 -154q96 0 173 19q78 18 137 57v401h-297v166h477 v-641q-100 -80 -234 -125q-126 -43 -270 -43q-315 0 -493 205q-177 203 -177 569.5z" />
<glyph unicode="&#x121;" horiz-adv-x="1169" d="M463 1348v204h184v-204h-184zM102 573.5q0 260.5 113 415.5q115 158 299 158q113 0 193 -49q78 -49 131 -148v170h166v-981q0 -287 -115 -426t-350 -139q-94 0 -166 14q-80 16 -150 45v179q78 -45 144 -66q68 -20 145 -20q164 0 244 94q82 98 82 286v91 q-53 -98 -131 -148q-80 -49 -193 -49q-184 0 -299 158q-113 155 -113 415.5zM272 573.5q0 -198.5 74 -309t209 -110.5q133 0 207 110q76 113 76 309.5t-76 309.5q-74 111 -207 110q-135 0 -209 -110.5t-74 -309z" />
<glyph unicode="&#x122;" horiz-adv-x="1427" d="M641 -510l74 320h190l-147 -320h-117zM104 745.5q0 366.5 177 569.5q178 205 493 205q137 0 250 -35q115 -35 217 -107v-215q-100 94 -213 144q-109 47 -240 47q-246 0 -368 -154q-125 -156 -125 -455t125 -454q123 -154 368 -154q96 0 173 19q78 18 137 57v401h-297v166 h477v-641q-100 -80 -234 -125q-126 -43 -270 -43q-315 0 -493 205q-177 203 -177 569.5z" />
<glyph unicode="&#x123;" horiz-adv-x="1169" d="M461 1269l147 320h115l-74 -320h-188zM102 573.5q0 260.5 113 415.5q115 158 299 158q113 0 193 -49q78 -49 131 -148v170h166v-981q0 -287 -115 -426t-350 -139q-94 0 -166 14q-80 16 -150 45v179q78 -45 144 -66q68 -20 145 -20q164 0 244 94q82 98 82 286v91 q-53 -98 -131 -148q-80 -49 -193 -49q-184 0 -299 158q-113 155 -113 415.5zM272 573.5q0 -198.5 74 -309t209 -110.5q133 0 207 110q76 113 76 309.5t-76 309.5q-74 111 -207 110q-135 0 -209 -110.5t-74 -309z" />
<glyph unicode="&#x124;" horiz-adv-x="1384" d="M418 1635l190 266h168l191 -266h-125l-150 178l-149 -178h-125zM180 0v1493h182v-612h662v612h180v-1493h-180v711h-662v-711h-182z" />
<glyph unicode="&#x125;" horiz-adv-x="1167" d="M-24 1635l190 266h168l191 -266h-125l-150 178l-149 -178h-125zM168 0v1556h166v-610q59 102 139 151.5t186 49.5q174 0 263 -119q90 -121 90 -352v-676h-166v670q0 158 -55.5 237.5t-167.5 79.5q-135 0 -211 -94q-78 -96 -78 -260v-633h-166z" />
<glyph unicode="&#x126;" horiz-adv-x="1687" d="M180 1106v164h152v223h182v-223h660v223h182v-223h151v-164h-151v-1106h-182v711h-660v-711h-182v1106h-152zM514 881h660v225h-660v-225z" />
<glyph unicode="&#x127;" horiz-adv-x="1280" d="M109 1270v164h110v122h168v-122h318v-164h-318v-324q59 102 139 151.5t187 49.5q174 0 262 -119q90 -121 90 -352v-676h-166v670q0 158 -55.5 237.5t-167.5 79.5q-135 0 -211 -94q-78 -96 -78 -260v-633h-168v1270h-110z" />
<glyph unicode="&#x128;" horiz-adv-x="542" d="M-25 1667q0 100 47 159.5t123 59.5q35 0 60 -8q37 -12 71 -35l51 -30q27 -14 35 -19q14 -6 29 -6q29 0 47.5 24.5t18.5 67.5v6h112q-3 -101 -49 -159q-47 -59 -121 -60q-33 0 -57 9q-35 12 -74 34l-51 33q-12 8 -37 19q-16 6 -25 6q-31 0 -49 -24.5t-18 -70.5v-6h-113z M180 0v1493h182v-1493h-182z" />
<glyph unicode="&#x129;" horiz-adv-x="512" d="M-41 1309q4 139 47 209q46 74 129 73q37 0 63 -14q33 -18 62 -47l51 -55q20 -20 35 -29q16 -10 27 -10q34 0 49 37q18 45 18 118h113q-4 -139 -47 -209q-46 -74 -129 -73q-37 0 -64 14q-33 18 -61 47l-51 55q-20 20 -35 29q-16 10 -27 10q-34 0 -49 -37q-16 -37 -19 -118 h-112zM174 0v1120h166v-1120h-166zM256 1147z" />
<glyph unicode="&#x12a;" horiz-adv-x="542" d="M5 1693v148h536v-148h-536zM180 0v1493h182v-1493h-182z" />
<glyph unicode="&#x12b;" horiz-adv-x="512" d="M-12 1378v148h536v-148h-536zM174 0v1120h166v-1120h-166zM256 1147z" />
<glyph unicode="&#x12c;" horiz-adv-x="542" d="M-8 1901h104q12 -53 57 -82t119 -29q76 0 117 27q43 29 59 84h107q-8 -117 -82 -180q-72 -61 -201 -61.5t-200.5 61t-79.5 180.5zM180 0v1493h182v-1493h-182z" />
<glyph unicode="&#x12d;" horiz-adv-x="512" d="M-27 1608h107q10 -76 53 -113t123 -37q78 0 121 37t55 113h104q-9 -144 -79 -215q-72 -72 -201 -72q-131 0 -203 72q-71 71 -80 215zM174 0v1120h166v-1120h-166zM256 1147z" />
<glyph unicode="&#x12e;" horiz-adv-x="542" d="M160 -215q0 53 23 100q27 55 73 115h109q-43 -66 -60 -104q-20 -47 -20 -76q0 -49 25 -70q27 -23 73 -22q20 0 58 8q25 6 55 22v-133q-16 -4 -66 -14q-31 -6 -57 -6q-111 0 -162 43t-51 137zM180 0v1493h182v-1493h-182z" />
<glyph unicode="&#x12f;" horiz-adv-x="512" d="M135 -215q0 53 23 100q27 55 73 115h109q-43 -66 -60 -104q-20 -47 -20 -76q0 -49 25 -70q27 -23 73 -22q20 0 58 8q25 6 55 22v-133q-16 -4 -66 -14q-31 -6 -57 -6q-111 0 -162 43t-51 137zM174 0v1120h166v-1120h-166zM174 1323v233h166v-233h-166z" />
<glyph unicode="&#x130;" horiz-adv-x="542" d="M180 0v1493h182v-1493h-182zM180 1667v205h184v-205h-184z" />
<glyph unicode="&#x131;" horiz-adv-x="512" d="M174 0v1120h166v-1120h-166zM256 1147z" />
<glyph unicode="&#x132;" horiz-adv-x="1085" d="M451 -240h55q121 0 170 74t49 270v1389h182v-1389q0 -270 -92 -393q-90 -121 -297 -121h-67v170zM180 0v1493h182v-1493h-182z" />
<glyph unicode="&#x133;" horiz-adv-x="1024" d="M479 -270h43q95 0 129 49q35 51 35 201v1140h166v-1140q0 -213 -73.5 -309.5t-235.5 -96.5h-64v156zM686 1323v233h166v-233h-166zM174 0v1120h166v-1120h-166zM174 1323v233h166v-233h-166z" />
<glyph unicode="&#x134;" horiz-adv-x="542" d="M-2 1635l190 266h168l191 -266h-125l-150 178l-149 -178h-125zM-94 -240h55q121 0 170 74t49 270v1389h182v-1389q0 -270 -92 -393q-90 -121 -297 -121h-67v170z" />
<glyph unicode="&#x135;" horiz-adv-x="512" d="M-31 1262l219 376h133l222 -376h-125l-162 245l-162 -245h-125zM-33 -270h43q95 0 129 49q35 51 35 201v1140h166v-1140q0 -213 -73.5 -309.5t-235.5 -96.5h-64v156z" />
<glyph unicode="&#x136;" horiz-adv-x="1206" d="M580 -482l74 320h190l-147 -320h-117zM180 0v1493h182v-631l605 631h233l-668 -696l715 -797h-239l-646 719v-719h-182z" />
<glyph unicode="&#x137;" horiz-adv-x="1064" d="M481 -482l74 320h190l-147 -320h-117zM168 0v1556h166v-919l493 483h213l-534 -524l557 -596h-217l-512 547v-547h-166z" />
<glyph unicode="&#x138;" horiz-adv-x="1064" d="M168 0v1120h166v-485l493 485h213l-534 -526l557 -594h-217l-512 545v-545h-166z" />
<glyph unicode="&#x139;" horiz-adv-x="1024" d="M203 1637l176 264h166l-205 -264h-137zM180 0v1493h182v-1323h656v-170h-838z" />
<glyph unicode="&#x13a;" horiz-adv-x="512" d="M184 1637l176 264h166l-205 -264h-137zM174 0v1556h166v-1556h-166z" />
<glyph unicode="&#x13b;" horiz-adv-x="1024" d="M465 -482l74 320h190l-147 -320h-117zM180 0v1493h182v-1323h656v-170h-838z" />
<glyph unicode="&#x13c;" horiz-adv-x="512" d="M123 -482l74 320h190l-147 -320h-117zM174 0v1556h166v-1556h-166z" />
<glyph unicode="&#x13d;" horiz-adv-x="1024" d="M541 1117l63 376h178l-104 -376h-137zM180 0v1493h182v-1323h656v-170h-838z" />
<glyph unicode="&#x13e;" horiz-adv-x="690" d="M449 1180l63 376h178l-104 -376h-137zM174 0v1556h166v-1556h-166z" />
<glyph unicode="&#x13f;" horiz-adv-x="1024" d="M703 703v254h190v-254h-190zM180 0v1493h182v-1323h656v-170h-838z" />
<glyph unicode="&#x140;" horiz-adv-x="628" d="M390 699v254h190v-254h-190zM174 0v1556h166v-1556h-166z" />
<glyph unicode="&#x141;" horiz-adv-x="1034" d="M-12 575l202 158v760h183v-616l280 219l72 -111l-352 -274v-541h653v-170h-836v571l-133 -106z" />
<glyph unicode="&#x142;" horiz-adv-x="522" d="M2 684l176 141v731h166v-602l113 90l69 -106l-182 -141v-797h-166v666l-110 -88z" />
<glyph unicode="&#x143;" horiz-adv-x="1376" d="M512 1637l176 264h166l-205 -264h-137zM180 0v1493h246l596 -1249v1249h176v-1493h-246l-596 1249v-1249h-176z" />
<glyph unicode="&#x144;" horiz-adv-x="1167" d="M393 1268l252 376h180l-295 -376h-137zM168 0v1120h166v-174q59 102 139 151.5t186 49.5q174 0 263 -119q90 -121 90 -352v-676h-166v670q0 158 -55.5 237.5t-167.5 79.5q-135 0 -211 -94q-78 -96 -78 -260v-633h-166z" />
<glyph unicode="&#x145;" horiz-adv-x="1376" d="M555 -482l74 320h190l-147 -320h-117zM180 0v1493h246l596 -1249v1249h176v-1493h-246l-596 1249v-1249h-176z" />
<glyph unicode="&#x146;" horiz-adv-x="1167" d="M457 -482l74 320h190l-147 -320h-117zM168 0v1120h166v-174q59 102 139 151.5t186 49.5q174 0 263 -119q90 -121 90 -352v-676h-166v670q0 158 -55.5 237.5t-167.5 79.5q-135 0 -211 -94q-78 -96 -78 -260v-633h-166z" />
<glyph unicode="&#x147;" horiz-adv-x="1376" d="M180 0v1493h246l596 -1249v1249h176v-1493h-246l-596 1249v-1249h-176zM408 1886h125l149 -178l150 178h125l-191 -266h-168z" />
<glyph unicode="&#x148;" horiz-adv-x="1167" d="M168 0v1120h166v-174q59 102 139 151.5t186 49.5q174 0 263 -119q90 -121 90 -352v-676h-166v670q0 158 -55.5 237.5t-167.5 79.5q-135 0 -211 -94q-78 -96 -78 -260v-633h-166zM301 1638h125l162 -245l162 245h125l-222 -376h-133z" />
<glyph unicode="&#x149;" horiz-adv-x="1497" d="M475 0v1120h166v-174q59 102 139 151.5t186 49.5q174 0 263 -119q90 -121 90 -352v-676h-166v670q0 158 -55.5 237.5t-167.5 79.5q-135 0 -211 -94q-78 -96 -78 -260v-633h-166zM185 1022l73 319v152h191v-152l-148 -319h-116z" />
<glyph unicode="&#x14a;" horiz-adv-x="1376" d="M180 0v1493h182v-242q70 135 164 201q95 68 234 68q205 0 309.5 -160t104.5 -467v-913q0 -213 -72 -310q-74 -96 -238 -96h-78v156h45q90 0 127 45q35 43 35 205v915q0 428 -276 428q-164 0 -258 -127q-96 -131 -97 -350v-846h-182z" />
<glyph unicode="&#x14b;" horiz-adv-x="1167" d="M168 0v1120h166v-174q59 102 139 151.5t186 49.5q174 0 263 -119q90 -121 90 -352v-696q0 -213 -74 -309.5t-236 -96.5h-229v156h209q95 0 129 49q35 51 35 201v690q0 158 -55.5 237.5t-167.5 79.5q-135 0 -211 -94q-78 -96 -78 -260v-633h-166z" />
<glyph unicode="&#x14c;" horiz-adv-x="1449" d="M459 1693v148h536v-148h-536zM104 745q0 350 170 564q168 211 451 211q285 0 453 -211q170 -213 170 -563.5t-170 -563.5q-168 -211 -453 -211q-283 0 -451 209q-170 211 -170 565zM295 745.5q0 -282.5 116.5 -446.5t313.5 -164q199 0 315 164q115 160 115 446.5 t-115 446.5q-117 164 -315 164q-197 0 -313.5 -164t-116.5 -446.5z" />
<glyph unicode="&#x14d;" horiz-adv-x="1126" d="M297 1378v148h536v-148h-536zM102 559.5q0 276.5 123 432t338 155.5q217 0 340 -155.5t123 -432t-123 -432.5t-340 -156q-215 0 -338 156t-123 432.5zM276 559q0 -203 76 -317.5t211 -114.5q133 0 211 117q78 119 78 315.5t-78 314.5q-78 117 -211 117q-132 0 -209 -117 q-78 -118 -78 -315z" />
<glyph unicode="&#x14e;" horiz-adv-x="1449" d="M447 1901h104q12 -53 57 -82t119 -29q76 0 117 27q43 29 59 84h107q-8 -117 -82 -180q-72 -61 -201 -61.5t-200.5 61t-79.5 180.5zM104 745q0 350 170 564q168 211 451 211q285 0 453 -211q170 -213 170 -563.5t-170 -563.5q-168 -211 -453 -211q-283 0 -451 209 q-170 211 -170 565zM295 745.5q0 -282.5 116.5 -446.5t313.5 -164q199 0 315 164q115 160 115 446.5t-115 446.5q-117 164 -315 164q-197 0 -313.5 -164t-116.5 -446.5z" />
<glyph unicode="&#x14f;" horiz-adv-x="1126" d="M282 1608h107q10 -76 53 -113t123 -37q78 0 121 37t55 113h104q-9 -144 -79 -215q-72 -72 -201 -72q-131 0 -203 72q-71 71 -80 215zM102 559.5q0 276.5 123 432t338 155.5q217 0 340 -155.5t123 -432t-123 -432.5t-340 -156q-215 0 -338 156t-123 432.5zM276 559 q0 -203 76 -317.5t211 -114.5q133 0 211 117q78 119 78 315.5t-78 314.5q-78 117 -211 117q-132 0 -209 -117q-78 -118 -78 -315z" />
<glyph unicode="&#x150;" horiz-adv-x="1449" d="M473 1635l176 264h166l-205 -264h-137zM774 1635l176 264h168l-204 -264h-140zM104 745q0 350 170 564q168 211 451 211q285 0 453 -211q170 -213 170 -563.5t-170 -563.5q-168 -211 -453 -211q-283 0 -451 209q-170 211 -170 565zM295 745.5q0 -282.5 116.5 -446.5 t313.5 -164q199 0 315 164q115 160 115 446.5t-115 446.5q-117 164 -315 164q-197 0 -313.5 -164t-116.5 -446.5z" />
<glyph unicode="&#x151;" horiz-adv-x="1126" d="M358 1262l172 376h154l-201 -376h-125zM647 1262l184 376h160l-223 -376h-121zM102 559.5q0 276.5 123 432t338 155.5q217 0 340 -155.5t123 -432t-123 -432.5t-340 -156q-215 0 -338 156t-123 432.5zM276 559q0 -203 76 -317.5t211 -114.5q133 0 211 117 q78 119 78 315.5t-78 314.5q-78 117 -211 117q-132 0 -209 -117q-78 -118 -78 -315z" />
<glyph unicode="&#x152;" horiz-adv-x="1970" d="M104 748q0 365 201 555q199 190 592 190h940v-170h-668v-442h641v-170h-641v-541h684v-170h-956q-393 0 -592 190q-201 191 -201 558zM295 747.5q0 -288.5 143 -432.5q145 -145 434 -145h115v1153h-115q-291 0 -434 -143.5t-143 -432z" />
<glyph unicode="&#x153;" horiz-adv-x="1884" d="M102 559.5q0 276.5 123 432t338 155.5q126 0 221 -55q92 -53 156 -164q72 111 174 164q104 55 234 55q201 0 321 -146q119 -143 119 -395v-90h-762q12 -190 104 -289q94 -100 256 -100q88 0 185 27q86 25 178 77v-174q-86 -41 -182 -63q-100 -23 -191 -23q-144 0 -252 56 q-109 55 -182 163q-66 -113 -158 -166t-221 -53q-215 0 -338 156t-123 432.5zM276 559q0 -203 76 -317.5t211 -114.5q133 0 211 117q78 119 78 315.5t-78 314.5q-78 117 -211 117q-132 0 -209 -117q-78 -118 -78 -315zM1032 659h590q-4 154 -76 242q-74 90 -196 90 q-137 0 -221.5 -88t-96.5 -244z" />
<glyph unicode="&#x154;" horiz-adv-x="1280" d="M469 1637l176 264h166l-205 -264h-137zM180 0v1493h412q231 0 344 -106.5t113 -323.5q0 -139 -60 -234q-58 -92 -172 -129q57 -20 115 -94q53 -68 110 -198l187 -408h-197l-172 383q-61 145 -129 199q-61 49 -170 49h-199v-631h-182zM362 797h230q131 0 199 67 q66 66 65 199q0 131 -65 197q-68 68 -199 67h-230v-530z" />
<glyph unicode="&#x155;" horiz-adv-x="755" d="M393 1268l252 376h180l-295 -376h-137zM168 0v1120h166v-174q53 102 135 152q84 49 205 49q23 0 37 -2q33 -4 47 -8v-189q-25 16 -62 27q-31 8 -71 8q-141 0 -215 -102q-76 -104 -76 -291v-590h-166z" />
<glyph unicode="&#x156;" horiz-adv-x="1280" d="M569 -482l74 320h190l-147 -320h-117zM180 0v1493h412q231 0 344 -106.5t113 -323.5q0 -139 -60 -234q-58 -92 -172 -129q57 -20 115 -94q53 -68 110 -198l187 -408h-197l-172 383q-61 145 -129 199q-61 49 -170 49h-199v-631h-182zM362 797h230q131 0 199 67 q66 66 65 199q0 131 -65 197q-68 68 -199 67h-230v-530z" />
<glyph unicode="&#x157;" horiz-adv-x="755" d="M117 -482l74 320h190l-147 -320h-117zM168 0v1120h166v-174q53 102 135 152q84 49 205 49q23 0 37 -2q33 -4 47 -8v-189q-25 16 -62 27q-31 8 -71 8q-141 0 -215 -102q-76 -104 -76 -291v-590h-166z" />
<glyph unicode="&#x158;" horiz-adv-x="1280" d="M180 0v1493h412q231 0 344 -106.5t113 -323.5q0 -139 -60 -234q-58 -92 -172 -129q57 -20 115 -94q53 -68 110 -198l187 -408h-197l-172 383q-61 145 -129 199q-61 49 -170 49h-199v-631h-182zM362 797h230q131 0 199 67q66 66 65 199q0 131 -65 197q-68 68 -199 67h-230 v-530zM299 1886h125l149 -178l150 178h125l-191 -266h-168z" />
<glyph unicode="&#x159;" horiz-adv-x="755" d="M168 0v1120h166v-174q53 102 135 152q84 49 205 49q23 0 37 -2q33 -4 47 -8v-189q-25 16 -62 27q-31 8 -71 8q-141 0 -215 -102q-76 -104 -76 -291v-590h-166zM199 1638h125l162 -245l162 245h125l-222 -376h-133z" />
<glyph unicode="&#x15a;" horiz-adv-x="1169" d="M469 1637l176 264h166l-205 -264h-137zM123 1094q0 201 125 313.5t346 112.5q94 0 192 -19q84 -16 199 -57v-197q-102 55 -194 82q-88 27 -177 27q-152 0 -229 -64q-82 -66 -82 -182q0 -98 55.5 -149.5t202.5 -81.5l109 -25q205 -43 301 -151.5t96 -290.5 q0 -215 -131 -328t-383 -113q-95 0 -203 25q-119 27 -223 70v208q123 -74 217 -104q111 -35 209 -35q154 0 240 67.5t86 194.5q0 111 -61.5 172.5t-201.5 92.5l-108 24q-207 47 -295 141q-90 97 -90 267z" />
<glyph unicode="&#x15b;" horiz-adv-x="958" d="M393 1268l252 376h180l-295 -376h-137zM100 41v190q94 -53 180.5 -79.5t176.5 -26.5q113 0 180 45q63 43 63 125q0 76 -45 115q-47 41 -200 77l-58 15q-154 37 -221 110q-70 76 -70 205q0 158 102.5 244t285.5 86q100 0 174 -14q84 -16 147 -46v-174q-66 37 -145 60 q-74 20 -156 20q-123 0 -184 -43q-63 -45 -64 -125q0 -61 45 -100q41 -35 178 -70l56 -14q180 -43 252 -119q74 -76 73 -213q0 -156 -110 -248q-109 -90 -305 -90q-90 0 -170 17q-74 14 -185 53z" />
<glyph unicode="&#x15c;" horiz-adv-x="1169" d="M320 1635l190 266h168l191 -266h-125l-150 178l-149 -178h-125zM123 1094q0 201 125 313.5t346 112.5q94 0 192 -19q84 -16 199 -57v-197q-102 55 -194 82q-88 27 -177 27q-152 0 -229 -64q-82 -66 -82 -182q0 -98 55.5 -149.5t202.5 -81.5l109 -25q205 -43 301 -151.5 t96 -290.5q0 -215 -131 -328t-383 -113q-95 0 -203 25q-119 27 -223 70v208q123 -74 217 -104q111 -35 209 -35q154 0 240 67.5t86 194.5q0 111 -61.5 172.5t-201.5 92.5l-108 24q-207 47 -295 141q-90 97 -90 267z" />
<glyph unicode="&#x15d;" horiz-adv-x="958" d="M207 1262l219 376h133l222 -376h-125l-162 245l-162 -245h-125zM100 41v190q94 -53 180.5 -79.5t176.5 -26.5q113 0 180 45q63 43 63 125q0 76 -45 115q-47 41 -200 77l-58 15q-154 37 -221 110q-70 76 -70 205q0 158 102.5 244t285.5 86q100 0 174 -14q84 -16 147 -46 v-174q-66 37 -145 60q-74 20 -156 20q-123 0 -184 -43q-63 -45 -64 -125q0 -61 45 -100q41 -35 178 -70l56 -14q180 -43 252 -119q74 -76 73 -213q0 -156 -110 -248q-109 -90 -305 -90q-90 0 -170 17q-74 14 -185 53z" />
<glyph unicode="&#x15e;" horiz-adv-x="1169" d="M123 1094q0 201 125 313.5t346 112.5q94 0 192 -19q84 -16 199 -57v-197q-102 55 -194 82q-88 27 -177 27q-152 0 -229 -64q-82 -66 -82 -182q0 -98 55.5 -149.5t202.5 -81.5l109 -25q205 -43 301 -151.5t96 -290.5q0 -215 -131 -328t-383 -113q-95 0 -203 25 q-119 27 -223 70v208q123 -74 217 -104q111 -35 209 -35q154 0 240 67.5t86 194.5q0 111 -61.5 172.5t-201.5 92.5l-108 24q-207 47 -295 141q-90 97 -90 267zM387 -240q31 -18 64 -24q45 -8 75 -8q52 0 80 24q27 25 27 70q0 31 -19 74q-12 29 -61 104h109q47 -59 73 -115 q25 -53 25 -100q0 -89 -55 -135q-53 -45 -160 -45q-40 0 -80 6q-37 6 -78 18v131z" />
<glyph unicode="&#x15f;" horiz-adv-x="958" d="M100 41v190q94 -53 180.5 -79.5t176.5 -26.5q113 0 180 45q63 43 63 125q0 76 -45 115q-47 41 -200 77l-58 15q-154 37 -221 110q-70 76 -70 205q0 158 102.5 244t285.5 86q100 0 174 -14q84 -16 147 -46v-174q-66 37 -145 60q-74 20 -156 20q-123 0 -184 -43 q-63 -45 -64 -125q0 -61 45 -100q41 -35 178 -70l56 -14q180 -43 252 -119q74 -76 73 -213q0 -156 -110 -248q-109 -90 -305 -90q-90 0 -170 17q-74 14 -185 53zM282 -240q31 -18 64 -24q45 -8 75 -8q52 0 80 24q27 25 27 70q0 31 -19 74q-12 29 -61 104h109q47 -59 73 -115 q25 -53 25 -100q0 -89 -55 -135q-53 -45 -160 -45q-40 0 -80 6q-37 6 -78 18v131z" />
<glyph unicode="&#x160;" horiz-adv-x="1169" d="M123 1094q0 201 125 313.5t346 112.5q94 0 192 -19q84 -16 199 -57v-197q-102 55 -194 82q-88 27 -177 27q-152 0 -229 -64q-82 -66 -82 -182q0 -98 55.5 -149.5t202.5 -81.5l109 -25q205 -43 301 -151.5t96 -290.5q0 -215 -131 -328t-383 -113q-95 0 -203 25 q-119 27 -223 70v208q123 -74 217 -104q111 -35 209 -35q154 0 240 67.5t86 194.5q0 111 -61.5 172.5t-201.5 92.5l-108 24q-207 47 -295 141q-90 97 -90 267zM312 1901h125l149 -178l150 178h125l-191 -266h-168z" />
<glyph unicode="&#x161;" horiz-adv-x="958" d="M100 41v190q94 -53 180.5 -79.5t176.5 -26.5q113 0 180 45q63 43 63 125q0 76 -45 115q-47 41 -200 77l-58 15q-154 37 -221 110q-70 76 -70 205q0 158 102.5 244t285.5 86q100 0 174 -14q84 -16 147 -46v-174q-66 37 -145 60q-74 20 -156 20q-123 0 -184 -43 q-63 -45 -64 -125q0 -61 45 -100q41 -35 178 -70l56 -14q180 -43 252 -119q74 -76 73 -213q0 -156 -110 -248q-109 -90 -305 -90q-90 0 -170 17q-74 14 -185 53zM194 1638h125l162 -245l162 245h125l-222 -376h-133z" />
<glyph unicode="&#x162;" horiz-adv-x="1124" d="M334 -240q31 -18 64 -24q45 -8 75 -8q52 0 80 24q27 25 27 70q0 31 -19 74q-12 29 -61 104h109q47 -59 73 -115q25 -53 25 -100q0 -89 -55 -135q-53 -45 -160 -45q-40 0 -80 6q-37 6 -78 18v131zM-4 1323v170h1134v-170h-477v-1323h-182v1323h-475z" />
<glyph unicode="&#x163;" horiz-adv-x="720" d="M233 -240q31 -18 64 -24q45 -8 75 -8q52 0 80 24q27 25 27 70q0 31 -19 74q-12 29 -61 104h109q47 -59 73 -115q25 -53 25 -100q0 -89 -55 -135q-53 -45 -160 -45q-40 0 -80 6q-37 6 -78 18v131zM49 977v143h121v318h168v-318h342v-143h-342v-608q0 -137 32.5 -176 t137.5 -39h172v-154h-172q-190 0 -264 80t-74 289v608h-121z" />
<glyph unicode="&#x164;" horiz-adv-x="1124" d="M-4 1323v170h1134v-170h-477v-1323h-182v1323h-475zM289 1886h125l149 -178l150 178h125l-191 -266h-168z" />
<glyph unicode="&#x165;" horiz-adv-x="720" d="M49 977v143h121v318h168v-318h342v-143h-342v-608q0 -137 32.5 -176t137.5 -39h172v-154h-172q-190 0 -264 80t-74 289v608h-121zM447 1291l63 376h178l-104 -376h-137z" />
<glyph unicode="&#x166;" horiz-adv-x="1124" d="M-4 1323v170h1134v-170h-477v-575h240v-170h-240v-578h-182v578h-238v170h238v575h-475z" />
<glyph unicode="&#x167;" horiz-adv-x="720" d="M49 602v141h121v234h-121v143h121v318h168v-318h342v-143h-342v-234h170v-141h-170v-233q0 -137 32.5 -176t137.5 -39h172v-154h-172q-190 0 -264 80t-74 289v233h-121z" />
<glyph unicode="&#x168;" horiz-adv-x="1347" d="M379 1667q0 100 47 159.5t123 59.5q35 0 60 -8q37 -12 71 -35l51 -30q27 -14 35 -19q14 -6 29 -6q29 0 47.5 24.5t18.5 67.5v6h112q-3 -101 -49 -159q-47 -59 -121 -60q-33 0 -57 9q-35 12 -74 34l-51 33q-12 8 -37 19q-16 6 -25 6q-31 0 -49 -24.5t-18 -70.5v-6h-113z M160 561v932h182v-907q0 -242 80 -346.5t254 -104.5q175 0 252 105q78 106 78 346v907h184v-932q0 -287 -131 -440q-129 -150 -383 -150q-256 0 -385 150q-131 153 -131 440z" />
<glyph unicode="&#x169;" horiz-adv-x="1167" d="M283 1309q4 139 47 209q46 74 129 73q37 0 63 -14q33 -18 62 -47l51 -55q20 -20 35 -29q16 -10 27 -10q34 0 49 37q18 45 18 118h113q-4 -139 -47 -209q-46 -74 -129 -73q-37 0 -64 14q-33 18 -61 47l-51 55q-20 20 -35 29q-16 10 -27 10q-34 0 -49 -37q-16 -37 -19 -118 h-112zM158 442v678h164v-671q0 -156 57 -238q55 -80 166 -80q137 0 213 94q78 96 78 260v635h165v-1120h-165v172q-63 -104 -140 -152q-80 -49 -186 -49q-174 0 -262 119q-90 121 -90 352zM573 1147z" />
<glyph unicode="&#x16a;" horiz-adv-x="1347" d="M406 1693v148h536v-148h-536zM160 561v932h182v-907q0 -242 80 -346.5t254 -104.5q175 0 252 105q78 106 78 346v907h184v-932q0 -287 -131 -440q-129 -150 -383 -150q-256 0 -385 150q-131 153 -131 440z" />
<glyph unicode="&#x16b;" horiz-adv-x="1167" d="M312 1378v148h536v-148h-536zM158 442v678h164v-671q0 -156 57 -238q55 -80 166 -80q137 0 213 94q78 96 78 260v635h165v-1120h-165v172q-63 -104 -140 -152q-80 -49 -186 -49q-174 0 -262 119q-90 121 -90 352zM573 1147z" />
<glyph unicode="&#x16c;" horiz-adv-x="1347" d="M396 1901h104q12 -53 57 -82t119 -29q76 0 117 27q43 29 59 84h107q-8 -117 -82 -180q-72 -61 -201 -61.5t-200.5 61t-79.5 180.5zM160 561v932h182v-907q0 -242 80 -346.5t254 -104.5q175 0 252 105q78 106 78 346v907h184v-932q0 -287 -131 -440q-129 -150 -383 -150 q-256 0 -385 150q-131 153 -131 440z" />
<glyph unicode="&#x16d;" horiz-adv-x="1167" d="M297 1608h107q10 -76 53 -113t123 -37q78 0 121 37t55 113h104q-9 -144 -79 -215q-72 -72 -201 -72q-131 0 -203 72q-71 71 -80 215zM158 442v678h164v-671q0 -156 57 -238q55 -80 166 -80q137 0 213 94q78 96 78 260v635h165v-1120h-165v172q-63 -104 -140 -152 q-80 -49 -186 -49q-174 0 -262 119q-90 121 -90 352zM573 1147z" />
<glyph unicode="&#x16e;" horiz-adv-x="1347" d="M160 561v932h182v-907q0 -242 80 -346.5t254 -104.5q175 0 252 105q78 106 78 346v907h184v-932q0 -287 -131 -440q-129 -150 -383 -150q-256 0 -385 150q-131 153 -131 440zM428 1628q0 113 72 194q72 80 176 80t174 -80q72 -82 72 -194.5t-72 -194.5 q-70 -80 -174.5 -80t-175.5 80q-72 82 -72 195zM539 1627.5q0 -67.5 38 -108.5q40 -43 99 -43q55 0 96 43q41 45 41 109q0 61 -41 106t-96 45q-58 0 -99 -43q-38 -41 -38 -108.5z" />
<glyph unicode="&#x16f;" horiz-adv-x="1167" d="M158 442v678h164v-671q0 -156 57 -238q55 -80 166 -80q137 0 213 94q78 96 78 260v635h165v-1120h-165v172q-63 -104 -140 -152q-80 -49 -186 -49q-174 0 -262 119q-90 121 -90 352zM573 1147zM326 1465q0 113 72 194q72 80 176 80t174 -80q72 -82 72 -194.5t-72 -194.5 q-70 -80 -174.5 -80t-175.5 80q-72 82 -72 195zM437 1464.5q0 -67.5 38 -108.5q40 -43 99 -43q55 0 96 43q41 45 41 109q0 61 -41 106t-96 45q-58 0 -99 -43q-38 -41 -38 -108.5z" />
<glyph unicode="&#x170;" horiz-adv-x="1347" d="M422 1635l176 264h166l-205 -264h-137zM723 1635l176 264h168l-204 -264h-140zM160 561v932h182v-907q0 -242 80 -346.5t254 -104.5q175 0 252 105q78 106 78 346v907h184v-932q0 -287 -131 -440q-129 -150 -383 -150q-256 0 -385 150q-131 153 -131 440z" />
<glyph unicode="&#x171;" horiz-adv-x="1167" d="M373 1262l172 376h154l-201 -376h-125zM662 1262l184 376h160l-223 -376h-121zM158 442v678h164v-671q0 -156 57 -238q55 -80 166 -80q137 0 213 94q78 96 78 260v635h165v-1120h-165v172q-63 -104 -140 -152q-80 -49 -186 -49q-174 0 -262 119q-90 121 -90 352z M573 1147z" />
<glyph unicode="&#x172;" horiz-adv-x="1347" d="M160 561v932h182v-907q0 -242 80 -346.5t254 -104.5q175 0 252 105q78 106 78 346v907h184v-932q0 -287 -131 -440q-129 -150 -383 -150q-256 0 -385 150q-131 153 -131 440zM524 -231q0 53 23 100q27 55 73 115h109q-43 -66 -60 -104q-20 -47 -20 -76q0 -49 25 -70 q27 -23 73 -22q20 0 58 8q25 6 55 22v-133q-16 -4 -66 -14q-31 -6 -57 -6q-111 0 -162 43t-51 137z" />
<glyph unicode="&#x173;" horiz-adv-x="1167" d="M158 442v678h164v-671q0 -156 57 -238q55 -80 166 -80q137 0 213 94q78 96 78 260v635h165v-1120h-165v172q-63 -104 -140 -152q-80 -49 -186 -49q-174 0 -262 119q-90 121 -90 352zM573 1147zM795 -215q0 53 23 100q27 55 73 115h109q-43 -66 -60 -104q-20 -47 -20 -76 q0 -49 25 -70q27 -23 73 -22q20 0 58 8q25 6 55 22v-133q-16 -4 -66 -14q-31 -6 -57 -6q-111 0 -162 43t-51 137z" />
<glyph unicode="&#x174;" horiz-adv-x="1820" d="M637 1643l190 266h168l191 -266h-125l-150 178l-149 -178h-125zM61 1493h185l280 -1262l283 1262h205l282 -1262l283 1262h182l-336 -1493h-229l-283 1296l-286 -1296h-230z" />
<glyph unicode="&#x175;" horiz-adv-x="1505" d="M467 1268l219 376h133l222 -376h-125l-162 245l-162 -245h-125zM78 1120h166l207 -874l204 874h197l207 -874l205 874h166l-265 -1120h-194l-217 918l-217 -918h-195z" />
<glyph unicode="&#x176;" horiz-adv-x="1124" d="M289 1643l190 266h168l191 -266h-125l-150 178l-149 -178h-125zM-4 1493h197l370 -614l371 614h196l-477 -782v-711h-182v711z" />
<glyph unicode="&#x177;" horiz-adv-x="1089" d="M260 1268l219 376h133l222 -376h-125l-162 245l-162 -245h-125zM55 1120h174l316 -876l315 876h176l-442 -1224q-70 -199 -137.5 -260.5t-177.5 -61.5h-134v154h99q68 0 104 36q39 39 84 170l31 84z" />
<glyph unicode="&#x178;" horiz-adv-x="1124" d="M-4 1493h197l370 -614l371 614h196l-477 -782v-711h-182v711zM297 1667v203h182v-203h-182zM647 1667v203h182v-203h-182z" />
<glyph unicode="&#x179;" horiz-adv-x="1261" d="M469 1637l176 264h166l-205 -264h-137zM84 0v154l848 1169h-828v170h1055v-154l-850 -1169h871v-170h-1096z" />
<glyph unicode="&#x17a;" horiz-adv-x="966" d="M393 1268l252 376h180l-295 -376h-137zM80 0v168l622 805h-600v147h787v-168l-623 -805h623v-147h-809z" />
<glyph unicode="&#x17b;" horiz-adv-x="1261" d="M520 1665v205h184v-205h-184zM84 0v154l848 1169h-828v170h1055v-154l-850 -1169h871v-170h-1096z" />
<glyph unicode="&#x17c;" horiz-adv-x="966" d="M80 0v168l622 805h-600v147h787v-168l-623 -805h623v-147h-809zM369 1348v204h184v-204h-184z" />
<glyph unicode="&#x17d;" horiz-adv-x="1261" d="M84 0v154l848 1169h-828v170h1055v-154l-850 -1169h871v-170h-1096zM359 1901h125l149 -178l150 178h125l-191 -266h-168z" />
<glyph unicode="&#x17e;" horiz-adv-x="966" d="M80 0v168l622 805h-600v147h787v-168l-623 -805h623v-147h-809zM199 1638h125l162 -245l162 245h125l-222 -376h-133z" />
<glyph unicode="&#x17f;" horiz-adv-x="647" d="M43 977v143h158v78q0 184 78 272q78 86 247 86h158v-153h-158q-92 0 -125 -39q-35 -41 -34 -145v-1219h-166v977h-158z" />
<glyph unicode="&#x180;" horiz-adv-x="1169" d="M29 1284v125h139v147h166v-147h293v-125h-293v-334q49 96 133 148q80 49 188 49q186 0 299 -162q115 -164 115 -426t-115 -426q-113 -162 -299 -162q-109 0 -188 49q-84 51 -133 148v-168h-166v1284h-139zM334 559q0 -199 76 -319q74 -115 206 -115q131 0 205 115 q76 121 76 319.5t-76 319.5q-74 115 -205 114q-133 0 -206 -114q-76 -121 -76 -320z" />
<glyph unicode="&#x181;" horiz-adv-x="1353" d="M-94 1079v70q0 178 86 262q84 82 278 82h465q205 0 320 -96q113 -94 112 -273q0 -141 -57 -219t-170 -100q137 -31 211 -133.5t74 -253.5q0 -201 -123 -309q-125 -109 -348 -109h-484v1327q-119 0 -172 -47t-53 -152v-49h-139zM453 166h290q145 0 217 67.5t72 207 t-71 206.5q-68 66 -218 66h-290v-547zM453 877h270q132 0 197 55q66 55 65.5 170t-65.5 170t-197 55h-270v-450z" />
<glyph unicode="&#x182;" horiz-adv-x="1263" d="M180 0v1493h860v-166h-678v-448h302q223 0 348 -109q123 -106 123 -332q0 -223 -119 -329q-121 -109 -352 -109h-484zM362 166h291q150 0 219.5 67.5t69.5 204.5q0 139 -69.5 207t-219.5 68h-291v-547z" />
<glyph unicode="&#x183;" horiz-adv-x="1169" d="M168 0v1556h762v-165h-596v-441q49 96 133 148q80 49 188 49q186 0 299 -162q115 -164 115 -426t-115 -426q-113 -162 -299 -162q-109 0 -188 49q-84 51 -133 148v-168h-166zM334 559q0 -199 76 -319q74 -115 206 -115q131 0 205 115q76 121 76 319.5t-76 319.5 q-74 115 -205 114q-133 0 -206 -114q-76 -121 -76 -320z" />
<glyph unicode="&#x184;" horiz-adv-x="1263" d="M0 1092l281 401h81v-614h302q223 0 348 -109q123 -106 123 -332q0 -221 -123 -329q-125 -109 -348 -109h-484v1092h-180zM362 166h291q145 0 217 67.5t72 204.5q0 139 -71.5 207t-217.5 68h-291v-547z" />
<glyph unicode="&#x185;" horiz-adv-x="1169" d="M0 1092l260 464h74v-606q51 98 131 147.5t190 49.5q186 0 299 -162q115 -164 115 -426t-115 -426q-113 -162 -299 -162q-111 0 -190.5 49.5t-130.5 147.5v-168h-166v1092h-168zM334 559q0 -199 76 -319q72 -115 206 -115q133 0 205 115q76 121 76 319q0 197 -76 318 q-74 117 -205 116q-133 0 -206 -116q-76 -121 -76 -318z" />
<glyph unicode="&#x186;" horiz-adv-x="1294" d="M104 115v211q94 -96 195 -142q106 -47 221 -47q229 0 352 156q123 158 123 452.5t-123 452.5q-123 156 -352 156q-115 0 -221 -47q-100 -45 -195 -142v213q90 70 199 107q102 35 227 35q307 0 482 -207q176 -211 176 -567.5t-176 -567.5q-174 -207 -482 -207 q-123 0 -225 35q-101 35 -201 109z" />
<glyph unicode="&#x187;" horiz-adv-x="1286" d="M104 745.5q0 360.5 174.5 567.5t481.5 207q92 0 225 -35q4 -2 12.5 -4t12.5 -4q16 197 88 292q92 123 297 123h67v-170h-55q-119 0 -170 -75q-49 -74 -49 -269v-213q-92 95 -197 142q-106 47 -221 47q-229 0 -352 -156q-123 -158 -123 -452.5t123 -452.5 q123 -156 352 -156q115 0 221 47q104 46 197 142v-211q-98 -72 -203 -109q-102 -35 -225 -35q-307 0 -481.5 207t-174.5 567.5z" />
<glyph unicode="&#x188;" horiz-adv-x="1011" d="M102 559q0 273 136 430q135 158 370 158q63 0 127 -12v16q0 217 72 309q74 96 235 96h64v-155h-43q-95 0 -129 -49q-35 -51 -35 -201v-246q-68 41 -141.5 63.5t-141.5 22.5q-162 0 -251 -114q-88 -113 -89 -318q0 -207 88.5 -319.5t251.5 -112.5q68 0 141.5 22.5 t141.5 63.5v-170q-59 -33 -143 -53q-74 -18 -158 -19q-229 0 -362.5 158t-133.5 430z" />
<glyph unicode="&#x189;" horiz-adv-x="1427" d="M8 700v144h182v649h373q393 0 574 -180q182 -182 182 -565q0 -387 -182.5 -567.5t-573.5 -180.5h-373v700h-182zM373 166h219q281 0 407 139q129 141 129 442.5t-129 440.5t-407 139h-219v-483h303v-144h-303v-534z" />
<glyph unicode="&#x18a;" horiz-adv-x="1507" d="M-94 1079v70q0 178 86 262q84 82 278 82h373q393 0 574 -180q184 -184 184 -565q0 -387 -184 -568q-182 -180 -574 -180h-373v1327q-119 0 -172 -47t-53 -152v-49h-139zM453 166h219q281 0 407 139q129 141 129 442.5t-129 440.5t-407 139h-219v-1161z" />
<glyph unicode="&#x18b;" horiz-adv-x="1263" d="M180 440.5q0 223.5 123 329.5q125 109 348 109h301v448h-579v166h762v-1493h-484q-223 0 -348 109q-123 108 -123 331.5zM373 438q0 -272 289 -272h290v547h-290q-145 0 -217 -68t-72 -207z" />
<glyph unicode="&#x18c;" horiz-adv-x="1169" d="M102 559q0 262 115 426q113 162 297 162q111 0 191 -49q84 -51 133 -148v441h-596v165h762v-1556h-166v168q-49 -96 -133 -148q-80 -49 -191 -49q-184 0 -297 162q-115 164 -115 426zM272 559q0 -199 76 -319q72 -115 207 -115q131 0 207 114.5t76 319.5q0 203 -76 318 q-78 117 -207 116q-133 0 -207 -116q-76 -121 -76 -318z" />
<glyph unicode="&#x18d;" horiz-adv-x="1126" d="M102 539q0 272 123 427.5t338 155.5q217 0 340 -155.5t123 -431.5q0 -158 -70 -285q-74 -133 -168 -184q141 -80 142 -220q0 -272 -398 -272q-201 0 -307 70v153q90 -70 314 -69q221 0 221 116q0 90 -238 140q-186 37 -293 149q-127 134 -127 406zM276 541 q0 -197 86.5 -295.5t196.5 -110.5q72 -8 105 -18q88 43 137 151q51 115 51 267q0 203 -78 317.5t-209 114.5q-135 0 -211 -115q-78 -118 -78 -311z" />
<glyph unicode="&#x18e;" horiz-adv-x="1163" d="M119 0v170h684v541h-641v170h641v442h-670v170h850v-1493h-864z" />
<glyph unicode="&#x18f;" horiz-adv-x="1449" d="M104 780h1051q0 266 -123 420t-370 154q-129 0 -238 -47q-115 -49 -215 -144v215q100 70 217 107q111 35 252 35q313 0 491.5 -205t178.5 -570q0 -350 -170 -563q-168 -211 -453 -211q-293 0 -457 219t-164 590zM303 614q12 -195 127 -338q114 -141 295 -141 q184 0 299 141q113 139 125 338h-846z" />
<glyph unicode="&#x190;" horiz-adv-x="1130" d="M147 434q0 143 74 241.5t205 129.5q-119 35 -182 119q-66 88 -66 209q0 178 121 282q119 104 328 105q76 0 170 -17q84 -14 194 -47v-180q-109 39 -188 55q-86 18 -160 19q-135 0 -209 -61.5t-74 -176.5t70 -172q72 -59 207 -59h164v-166h-158q-147 0 -231 -74t-84 -207 q0 -145 90 -219t262 -74q98 0 186 25q94 27 166 74v-195q-95 -37 -184 -55q-90 -18 -174 -19q-252 0 -389.5 121t-137.5 342z" />
<glyph unicode="&#x191;" horiz-adv-x="1058" d="M-94 -240h55q121 0 170 74t49 270v1389h772v-170h-590v-440h535v-170h-535v-609q0 -270 -92 -393q-90 -121 -297 -121h-67v170z" />
<glyph unicode="&#x192;" horiz-adv-x="647" d="M-117 -272h160q90 0 123 39q35 41 35 145v1065h-158v143h158v78q0 184 78 272q78 86 247 86h158v-153h-158q-92 0 -125 -39q-35 -41 -34 -145v-99h272v-143h-272v-1045q0 -184 -78 -272q-76 -86 -248 -86h-158v154z" />
<glyph unicode="&#x193;" horiz-adv-x="1427" d="M104 745.5q0 366.5 177 569.5q178 205 493 205q80 0 154 -13q78 -12 137 -37q0 186 90 306q90 117 295 116h68v-170h-56q-119 0 -170 -75q-51 -78 -51 -269v-215q-100 94 -213 144q-109 47 -240 47q-246 0 -368 -154q-125 -156 -125 -455t125 -454q123 -154 368 -154 q96 0 173 19q78 18 137 57v401h-297v166h477v-641q-100 -80 -234 -125q-126 -43 -270 -43q-315 0 -493 205q-177 203 -177 569.5z" />
<glyph unicode="&#x194;" horiz-adv-x="1263" d="M6 1493h201l426 -862l426 862h198l-522 -1073q92 -200 154 -375q41 -115 41 -184q0 -138 -68 -203q-92 -88 -229 -88q-135 0 -230 88q-68 65 -67 203q0 61 41 184q61 175 153 375zM518 -141q0 -63 27 -86q41 -31 88 -31t88 31q25 22 24 86q0 59 -26 131q-49 129 -86 213 q-37 -84 -86 -213q-29 -76 -29 -131z" />
<glyph unicode="&#x195;" horiz-adv-x="1812" d="M168 0v1556h166v-610q59 102 139 151.5t186 49.5q174 0 263 -119q90 -121 90 -352v-270q0 -145 35 -199q33 -51 127 -51h47q131 0 209 98q78 102 77 256q0 221 -65 334q-55 94 -164 129v147q201 -27 299 -172q100 -143 100 -422q0 -244 -129 -385t-329 -141h-64 q-168 0 -237 100q-72 102 -72 306v264q0 158 -55.5 237.5t-167.5 79.5q-135 0 -211 -94q-78 -96 -78 -260v-633h-166z" />
<glyph unicode="&#x196;" horiz-adv-x="649" d="M180 514v979h182v-979q0 -195 50 -268q51 -76 170 -76h57v-170h-70q-205 0 -297 123t-92 391z" />
<glyph unicode="&#x197;" horiz-adv-x="542" d="M8 578v170h172v745h182v-745h173v-170h-173v-578h-182v578h-172z" />
<glyph unicode="&#x198;" horiz-adv-x="1372" d="M180 0v1493h182v-631l560 580q76 78 178 78q121 0 198 -93q76 -90 76 -200v-131h-153v121q0 55 -33 94q-35 41 -68 41q-61 0 -96 -35l-492 -520l715 -797h-239l-646 719v-719h-182z" />
<glyph unicode="&#x199;" horiz-adv-x="1064" d="M166 1151q0 213 73.5 309t235.5 96h172v-155h-149q-95 0 -129 -49q-35 -51 -35 -201v-514l493 483h213l-534 -524l557 -596h-217l-512 547v-547h-166z" />
<glyph unicode="&#x19a;" horiz-adv-x="512" d="M8 700v144h166v712h166v-712h160v-144h-160v-700h-166v700h-166z" />
<glyph unicode="&#x19b;" horiz-adv-x="1089" d="M55 0l443 1073l-66 189l-268 -101l-31 99l266 100l-65 196h178l47 -139l283 105l30 -97l-280 -104l444 -1321h-176l-282 827l-349 -827h-174z" />
<glyph unicode="&#x19c;" horiz-adv-x="1794" d="M160 442v1051h182v-1040q0 -182 37 -240q53 -78 156 -78q129 0 202 94q76 98 76 260v1004h182v-1040q0 -164 52 -240q53 -78 157 -78q113 0 186.5 94.5t73.5 259.5v1004h185v-1495h-185v174q-57 -104 -135 -152q-80 -49 -188.5 -49t-186.5 62q-74 59 -112 180 q-66 -125 -150 -182q-88 -59 -203 -60q-158 0 -243.5 123t-85.5 348z" />
<glyph unicode="&#x19d;" horiz-adv-x="1376" d="M-94 -240h55q121 0 170 74t49 270v1389h246l596 -1249v1249h176v-1493h-246l-596 1249v-1145q0 -270 -92 -393q-90 -121 -295 -121h-63v170z" />
<glyph unicode="&#x19e;" horiz-adv-x="1167" d="M168 0v1120h166v-174q59 102 139 151.5t186 49.5q174 0 263 -119q90 -121 90 -352v-1102h-166v1096q0 158 -55.5 237.5t-167.5 79.5q-135 0 -211 -94q-78 -96 -78 -260v-633h-166z" />
<glyph unicode="&#x19f;" horiz-adv-x="1449" d="M104 745q0 350 170 564q168 211 451 211q285 0 453 -211q170 -213 170 -563.5t-170 -563.5q-168 -211 -453 -211q-283 0 -451 209q-170 211 -170 565zM295 711q6 -254 121 -416q113 -160 309 -160q203 0 311 158q113 162 119 418h-860zM303 877h848q-12 195 -127 337 q-115 141 -297 141.5t-297 -141.5t-127 -337z" />
<glyph unicode="&#x1a0;" horiz-adv-x="1681" d="M94 745q0 350 170 564q168 211 451 211q285 0 453 -211q170 -213 170 -563.5t-170 -563.5q-168 -211 -453 -211q-283 0 -451 209q-170 211 -170 565zM285 745.5q0 -282.5 116.5 -446.5t313.5 -164q199 0 315 164q115 160 115 446.5t-115 446.5q-117 164 -315 164 q-197 0 -313.5 -164t-116.5 -446.5zM1050 1290v119q47 -39 96 -66q41 -23 66 -22q41 0 64 28q20 27 20 80q0 33 -6 64q-4 20 -21 61h119q12 -49 14 -71q4 -45 5 -64q0 -123 -39 -180.5t-123 -57.5q-45 0 -90 27q-56 33 -105 82z" />
<glyph unicode="&#x1a1;" horiz-adv-x="1126" d="M755 993v119q47 -39 96 -66q41 -23 66 -22q41 0 64 28q20 27 20 80q0 33 -6 64q-4 20 -21 61h119q12 -49 14 -71q4 -45 5 -64q0 -123 -39 -180.5t-123 -57.5q-45 0 -90 27q-56 33 -105 82zM106 559.5q0 276.5 123 432t338 155.5q217 0 340 -155.5t123 -432t-123 -432.5 t-340 -156q-215 0 -338 156t-123 432.5zM280 559q0 -203 76 -317.5t211 -114.5q133 0 211 117q78 119 78 315.5t-78 314.5q-78 117 -211 117q-132 0 -209 -117q-78 -118 -78 -315z" />
<glyph unicode="&#x1a2;" horiz-adv-x="1746" d="M104 745q0 350 170 564q168 211 451 211q106 0 188 -27h267q205 0 297 -123t92 -391v-979h-183v979q0 195 -49 268q-51 76 -159 76v-1141q-168 -211 -453 -211q-283 0 -451 209q-170 211 -170 565zM295 745.5q0 -282.5 116.5 -446.5t313.5 -164q164 0 274 103v1048 q-121 70 -274 70q-197 0 -313.5 -164t-116.5 -446.5z" />
<glyph unicode="&#x1a3;" horiz-adv-x="1398" d="M102 559.5q0 276.5 123 432t338 155.5q92 0 164 -27h195q164 0 237 -96q74 -94 74 -309v-1141h-166v1141q0 150 -35 200q-34 49 -129 50v-838q-123 -156 -340 -156q-215 0 -338 156t-123 432.5zM276 559q0 -203 76 -317.5t211 -114.5q117 0 174 57v754q-74 53 -174 53 q-132 0 -209 -117q-78 -118 -78 -315z" />
<glyph unicode="&#x1a4;" horiz-adv-x="1200" d="M-94 1079v70q0 178 86 262q84 82 278 82h412q225 0 340 -113q117 -115 117 -334t-117 -333q-115 -113 -340 -113h-229v-600h-183v1327q-119 0 -172 -47t-53 -152v-49h-139zM453 766h229q125 0 195 74q70 72 69.5 207t-69.5 206q-70 74 -195 74h-229v-561z" />
<glyph unicode="&#x1a5;" horiz-adv-x="1169" d="M166 -426v1577q0 213 73.5 309t235.5 96h230v-155h-207q-95 0 -129 -49q-35 -51 -35 -201v-201q51 98 131 147.5t190 49.5q186 0 299 -162q115 -164 115 -426t-115 -426q-113 -162 -299 -162q-111 0 -190.5 49.5t-130.5 147.5v-594h-168zM334 559q0 -199 76 -319 q72 -115 206 -115q133 0 205 115q76 121 76 319q0 197 -76 318q-74 117 -205 116q-133 0 -206 -116q-76 -121 -76 -318z" />
<glyph unicode="&#x1a6;" horiz-adv-x="1280" d="M180 0v1493h182v-264h230q231 0 344 -106.5t113 -323.5q0 -139 -60 -234q-58 -92 -172 -129q57 -20 115 -94q53 -68 110 -199l187 -407h-197l-172 383q-61 145 -129 198q-61 49 -170 50h-199v-367h-182zM362 504h230q126 0 196 74q68 70 68 206q0 133 -68 207 q-66 72 -196 72h-230v-559z" />
<glyph unicode="&#x1a7;" horiz-adv-x="1169" d="M102 412q0 182 96.5 290.5t301.5 151.5l108 25q145 31 205 82q53 53 53 159q0 108 -80 172q-78 63 -239 64q-156 0 -363 -109v197q203 76 410 76q203 0 328 -113q127 -115 127 -299t-91 -281q-88 -94 -294 -141l-111 -24q-139 -31 -201 -93q-59 -59 -59 -180t84 -186 q86 -68 239 -68q201 0 426 139v-208q-231 -94 -426 -95q-248 0 -383 113q-131 113 -131 328z" />
<glyph unicode="&#x1a8;" horiz-adv-x="958" d="M90 309q0 137 74 213q72 76 252 119l55 14q137 35 178 70q43 37 43 100q0 82 -61.5 125t-184.5 43q-84 0 -157 -20q-80 -23 -146 -60v174q61 29 150 46q74 14 174 14q184 0 285 -86q102 -86 102 -244q0 -129 -70 -205q-68 -74 -223 -110l-55 -15q-154 -37 -201 -77 q-45 -39 -45 -115q0 -82 64 -125q68 -45 180 -45q90 0 176 26.5t180 79.5v-190q-106 -37 -184 -53q-76 -16 -168 -17q-199 0 -307 90q-111 92 -111 248z" />
<glyph unicode="&#x1a9;" horiz-adv-x="1163" d="M180 0v170l432 625l-432 528v170h850v-170h-641l432 -524l-432 -629h658v-170h-867z" />
<glyph unicode="&#x1aa;" horiz-adv-x="618" d="M-244 1339q0 217 275 217q162 0 235 -96q47 -63 64 -176h172v-154h-164v-1218q0 -104 35 -145q33 -39 123 -39h157v-154h-155q-168 0 -248 86t-80 272v1198h-170q-244 0 -244 209zM-104 1335q-2 -27 24.5 -39t79.5 -12h162q-10 47 -23 68q-31 49 -129 49q-110 0 -114 -66 z" />
<glyph unicode="&#x1ab;" horiz-adv-x="720" d="M49 977v143h121v318h168v-318h342v-143h-342v-608q0 -137 32.5 -176t137.5 -39h172v-174q0 -211 -76 -310q-74 -96 -235 -96h-64v156h43q98 0 131 49q33 47 33 201v20q-193 0 -266 80q-76 82 -76 289v608h-121z" />
<glyph unicode="&#x1ac;" horiz-adv-x="1124" d="M23 1079v70q0 178 86 262q84 82 278 82h743v-170h-477v-1323h-182v1323h-84q-121 0 -172 -45q-53 -47 -53 -150v-49h-139z" />
<glyph unicode="&#x1ad;" horiz-adv-x="720" d="M49 977v143h121v78q0 186 80 272t248 86h155v-153h-157q-88 0 -123 -41t-35 -143v-99h342v-143h-342v-608q0 -137 32.5 -176t137.5 -39h172v-154h-172q-190 0 -264 80t-74 289v608h-121z" />
<glyph unicode="&#x1ae;" horiz-adv-x="1124" d="M-4 1323v170h1134v-170h-477v-1219q0 -195 52 -270q49 -74 169 -74h58v-170h-72q-207 0 -297 121q-92 123 -92 393v1219h-475z" />
<glyph unicode="&#x1af;" horiz-adv-x="1579" d="M156 581v932h182v-907q0 -242 80 -346.5t254 -104.5q175 0 252 105q78 106 78 346v907h184v-932q0 -287 -131 -440q-129 -150 -383 -150q-256 0 -385 150q-131 153 -131 440zM1112 1290v119q47 -39 96 -66q41 -23 66 -22q41 0 64 28q20 27 20 80q0 33 -6 64q-4 20 -21 61 h119q12 -49 14 -71q4 -45 5 -64q0 -123 -39 -180.5t-123 -57.5q-45 0 -90 27q-56 33 -105 82z" />
<glyph unicode="&#x1b0;" horiz-adv-x="1167" d="M891 993v119q47 -39 96 -66q41 -23 66 -22q41 0 64 28q20 27 20 80q0 33 -6 64q-4 20 -21 61h119q12 -49 14 -71q4 -45 5 -64q0 -123 -39 -180.5t-123 -57.5q-45 0 -90 27q-56 33 -105 82zM160 442v678h164v-671q0 -156 57 -238q55 -80 166 -80q137 0 213 94 q78 96 78 260v635h165v-1120h-165v172q-63 -104 -140 -152q-80 -49 -186 -49q-174 0 -262 119q-90 121 -90 352zM575 1147z" />
</font>
</defs>
</svg>
