<?xml version="1.0" standalone="no"?>
<!DOCTYPE svg PUBLIC "-//W3C//DTD SVG 1.1//EN" "http://www.w3.org/Graphics/SVG/1.1/DTD/svg11.dtd" >
<svg xmlns="http://www.w3.org/2000/svg">
<metadata>
This is a custom SVG webfont generated by Font Squirrel.
Copyright   : Copyright c 2003 by Bitstream Inc All Rights ReservedCopyright c 2006 by Tavmjong Bah All Rights ReservedDejaVu changes are in public domain
Foundry     : DejaVu fonts team
Foundry URL : httpdejavusourceforgenet
</metadata>
<defs>
<font id="webfontiF6tjgvO" horiz-adv-x="1714" >
<font-face units-per-em="2048" ascent="1556" descent="-492" />
<missing-glyph horiz-adv-x="649" />
<glyph unicode="&#xfb00;" horiz-adv-x="1409" d="M47 977v143h176v78q0 186 86 272t277 86h174v-153h-176q-98 0 -138 -39q-39 -43 -38 -145v-99h505v78q0 186 86 272t277 86h174v-153h-176q-98 0 -137 -39t-39 -145v-99h303v-143h-303v-977h-185v977h-505v-977h-185v977h-176z" />
<glyph unicode="&#xfb01;" horiz-adv-x="1288" d="M47 977v143h176v78q0 184 86 270q88 88 266 88h185v-153h-176q-98 0 -137 -39t-39 -145v-99h690v-1120h-185v977h-505v-977h-185v977h-176zM913 1321v233h185v-233h-185z" />
<glyph unicode="&#xfb02;" horiz-adv-x="1288" d="M47 977v143h176v78q0 186 86 272t277 86h512v-1556h-185v1403h-329q-98 0 -137 -39t-39 -145v-99h303v-143h-303v-977h-185v977h-176z" />
<glyph unicode="&#xfb03;" horiz-adv-x="1978" d="M47 977v143h176v78q0 186 86 272t277 86h174v-153h-176q-98 0 -138 -39q-39 -43 -38 -145v-99h505v78q0 186 86 272q29 29 68 48q76 39 209 38h174v-153h-176q-98 0 -137 -39t-39 -145v-99h690v-1120h-184v977h-506v-977h-185v977h-505v-977h-185v977h-176zM1604 1321 v233h184v-233h-184z" />
<glyph unicode="&#xfb04;" horiz-adv-x="1978" d="M47 977v143h176v78q0 186 86 272t277 86h174v-153h-176q-98 0 -138 -39q-39 -43 -38 -145v-99h505v78q0 186 86 272t277 86h512v-1556h-184v1403h-330q-98 0 -137 -39t-39 -145v-99h303v-143h-303v-977h-185v977h-505v-977h-185v977h-176z" />
<glyph unicode="&#xfedf;&#xfe82;" horiz-adv-x="1167" arabic-form="isolated" d="M84 1409h178l426 -958q28 43 49 98q37 139 37 321v686h184v-722q0 -299 -139 -519q-55 -86 -131 -155q-205 -180 -362 -180q-104 0 -183 32v185q102 -33 183 -33q113 0 247 151zM-210 1507v125l159 123q102 -80 170 -102q51 -14 97 -15q57 0 100 17q104 39 194 117v-125 q-88 -63 -180 -93q-72 -23 -121 -22q-41 0 -108 16q-80 18 -146 88z" />
<glyph unicode="&#xfee0;&#xfe82;" horiz-adv-x="1220" arabic-form="final" d="M84 1409h178l426 -958q28 43 49 98q37 139 37 321v686h184v-956q0 -172 35 -258q66 -158 144 -158h104v-184h-129q-174 0 -276 244q-16 35 -17 71q-57 -92 -131 -155q-201 -180 -362 -180q-104 0 -183 32v185q102 -33 183 -33q113 0 247 151zM-210 1507v125l159 123 q102 -80 170 -102q51 -14 97 -15q57 0 100 17q104 39 194 117v-125q-88 -63 -180 -93q-72 -23 -121 -22q-41 0 -108 16q-80 18 -146 88z" />
<glyph unicode="&#xfedf;&#xfe84;" horiz-adv-x="1167" arabic-form="isolated" d="M84 1409h178l426 -958q28 43 49 98q37 139 37 321v686h184v-722q0 -299 -139 -519q-55 -86 -131 -155q-205 -180 -362 -180q-104 0 -183 32v185q102 -33 183 -33q113 0 247 151zM-26 1513v101l78 18q-49 25 -62 55q-14 35 -14 82q0 96 55 139q57 45 150 45q63 0 114 -32 v-101q-47 33 -114 33q-66 0 -82 -16q-31 -35 -31 -60q0 -76 94 -102q34 -9 154 18v-102z" />
<glyph unicode="&#xfee0;&#xfe84;" horiz-adv-x="1220" arabic-form="final" d="M84 1409h178l426 -958q28 43 49 98q37 139 37 321v686h184v-956q0 -172 35 -258q66 -158 144 -158h104v-184h-129q-174 0 -276 244q-16 35 -17 71q-57 -92 -131 -155q-201 -180 -362 -180q-104 0 -183 32v185q102 -33 183 -33q113 0 247 151zM-26 1513v101l78 18 q-49 25 -62 55q-14 35 -14 82q0 96 55 139q57 45 150 45q63 0 114 -32v-101q-47 33 -114 33q-66 0 -82 -16q-31 -35 -31 -60q0 -76 94 -102q34 -9 154 18v-102z" />
<glyph unicode="&#xfedf;&#xfe88;" horiz-adv-x="1167" arabic-form="isolated" d="M84 1409h178l426 -958q28 43 49 98q37 139 37 321v686h184v-722q0 -299 -139 -519q-55 -86 -131 -155q-205 -180 -362 -180q-104 0 -183 32v185q102 -33 183 -33q113 0 247 151zM25 -502v101l78 18q-49 25 -62 55q-14 35 -14 82q0 96 55 139q57 45 150 45q63 0 114 -32 v-101q-47 33 -114 33q-66 0 -82 -16q-31 -35 -31 -60q0 -76 94 -102q34 -9 154 18v-102z" />
<glyph unicode="&#xfee0;&#xfe88;" horiz-adv-x="1220" arabic-form="final" d="M84 1409h178l426 -958q28 43 49 98q37 139 37 321v686h184v-956q0 -172 35 -258q66 -158 144 -158h104v-184h-129q-174 0 -276 244q-16 35 -17 71q-57 -92 -131 -155q-201 -180 -362 -180q-104 0 -183 32v185q102 -33 183 -33q113 0 247 151zM25 -502v101l78 18 q-49 25 -62 55q-14 35 -14 82q0 96 55 139q57 45 150 45q63 0 114 -32v-101q-47 33 -114 33q-66 0 -82 -16q-31 -35 -31 -60q0 -76 94 -102q34 -9 154 18v-102z" />
<glyph unicode="&#xfedf;&#xfe8e;" horiz-adv-x="1167" arabic-form="isolated" d="M84 1409h178l426 -958q28 43 49 98q37 139 37 321v686h184v-722q0 -299 -139 -519q-55 -86 -131 -155q-205 -180 -362 -180q-104 0 -183 32v185q102 -33 183 -33q113 0 247 151z" />
<glyph unicode="&#xfee0;&#xfe8e;" horiz-adv-x="1220" arabic-form="final" d="M84 1409h178l426 -958q28 43 49 98q37 139 37 321v686h184v-956q0 -172 35 -258q66 -158 144 -158h104v-184h-129q-174 0 -276 244q-16 35 -17 71q-57 -92 -131 -155q-201 -180 -362 -180q-104 0 -183 32v185q102 -33 183 -33q113 0 247 151z" />
<glyph unicode="&#x66e;" horiz-adv-x="569" d="M-20 0v184h34q100 0 144 43q49 49 49 156v217h184v-217q0 -186 -92 -297q-70 -86 -229 -86h-90z" />
<glyph unicode="&#x66e;" horiz-adv-x="616" d="M-20 0v184h34q100 0 144 43q49 49 49 156v217h184v-217q0 -106 49 -156q43 -43 144 -43h55v-184h-111q-150 0 -229 86q-78 -86 -229 -86h-90z" />
<glyph unicode="&#x66e;" horiz-adv-x="2009" d="M129 383q0 139 64 229h184q-66 -96 -66 -229q0 -125 203 -193q100 -33 256 -32q270 4 451 55q195 57 321 168q59 53 60 172q0 59 -29 117h182q20 -82 21 -166q0 -209 69 -266q66 -53 125 -54h62v-184h-103q-115 0 -186 74q-80 83 -105 147q-150 -129 -389 -182 q-262 -59 -469 -59q-190 0 -319 38q-332 103 -332 365z" />
<glyph unicode="&#x66f;" horiz-adv-x="978" d="M-20 0v184h241q78 0 236 23q78 12 139 104q29 45 45 99q-63 -55 -160 -58q-129 -2 -209 68q-98 86 -98 217q0 55 8 94q23 150 174 217q77 37 154 37q92 0 156 -49q96 -72 143 -174q23 -55 22 -193q0 -205 -77 -350q-74 -137 -199 -180q-104 -39 -254 -39h-321zM365 655 q0 -80 55 -116q43 -27 82 -27q72 0 96 25q41 45 41 120q0 57 -66 111q-29 23 -75 23q-52 0 -92 -43q-41 -42 -41 -93z" />
<glyph unicode="&#x66f;" horiz-adv-x="1034" d="M-20 0v184h126q152 0 187 17q-31 45 -66 116q-20 43 -20 123q0 49 8 92q20 141 209 230q29 14 94.5 14t95.5 -14q182 -80 207 -230q8 -43 8 -92q0 -76 -20 -123q-27 -66 -66 -116q35 -16 187 -17h127v-184h-217q-141 0 -322 57q-180 -57 -321 -57h-217zM395 446 q0 -45 25 -96q31 -70 98 -90q59 20 98 90q25 49 25 96q0 31 -10 52q-20 49 -80 84q-20 10 -32.5 10t-33.5 -10q-55 -31 -79 -84q-11 -25 -11 -52z" />
<glyph unicode="&#x66f;" horiz-adv-x="1705" d="M106 -45q0 164 64 262h182q-61 -106 -61 -262q0 -78 26 -133q61 -131 322 -131q139 0 291 67q215 100 278 252q-68 6 -112 19q-117 33 -178 77q-147 106 -148 293q0 63 6 88q39 166 189 234q39 18 127 18q113 0 168 -49q100 -92 149 -233q20 -55 27 -273h28h265v-184 h-269h-49q-47 -127 -104 -193q-131 -147 -287 -223q-170 -84 -381 -84q-369 2 -463 193q-70 143 -70 262zM956 397q0 -61 58 -104q78 -59 176 -80q18 -4 38.5 -7t22.5 -3q3 123 -18 209q-18 76 -66 110q-34 25 -73 25q-31 0 -56 -10q-51 -27 -71 -84q-11 -36 -11 -56z" />
<glyph unicode="&#x67c;" horiz-adv-x="569" d="M-20 0v184h34q100 0 144 43q49 49 49 156v217h184v-217q0 -186 -92 -297q-70 -86 -229 -86h-90zM98 850v150h150v-150h-150zM348 850v150h149v-150h-149zM80 -49q0 94 63 158q61 61 155.5 61t156.5 -61q63 -63 63 -158q0 -92 -63.5 -155.5t-155.5 -63.5t-155.5 63.5 t-63.5 155.5zM203 -49q0 -43 26.5 -69.5t69.5 -26.5q41 0 70 29q27 27 26 67q0 43 -26 70q-29 29 -70 28.5t-69 -28.5q-27 -27 -27 -70z" />
<glyph unicode="&#x67c;" horiz-adv-x="616" d="M-20 0v184h34q100 0 144 43q49 49 49 156v217h184v-217q0 -106 49 -156q43 -43 144 -43h55v-184h-111q-150 0 -229 86q-78 -86 -229 -86h-90zM98 850v150h150v-150h-150zM348 850v150h149v-150h-149zM80 -49q0 94 63 158q61 61 155.5 61t156.5 -61q63 -63 63 -158 q0 -92 -63.5 -155.5t-155.5 -63.5t-155.5 63.5t-63.5 155.5zM203 -49q0 -43 26.5 -69.5t69.5 -26.5q41 0 70 29q27 27 26 67q0 43 -26 70q-29 29 -70 28.5t-69 -28.5q-27 -27 -27 -70z" />
<glyph unicode="&#x67c;" horiz-adv-x="2009" d="M700 649v150h150v-150h-150zM950 649v150h149v-150h-149zM682 -150q0 94 63 158q61 61 155.5 61t156.5 -61q63 -63 63 -158q0 -92 -63.5 -155.5t-155.5 -63.5t-155.5 63.5t-63.5 155.5zM805 -150q0 -43 26.5 -69.5t69.5 -26.5q41 0 70 29q27 27 26 67q0 43 -26 70 q-29 29 -70 28.5t-69 -28.5q-27 -27 -27 -70zM129 383q0 139 64 229h184q-66 -96 -66 -229q0 -125 203 -193q100 -33 256 -32q270 4 451 55q195 57 321 168q59 53 60 172q0 59 -29 117h182q20 -82 21 -166q0 -209 69 -266q66 -53 125 -54h62v-184h-103q-115 0 -186 74 q-80 83 -105 147q-150 -129 -389 -182q-262 -59 -469 -59q-190 0 -319 38q-332 103 -332 365z" />
<glyph unicode="&#x67d;" horiz-adv-x="569" d="M-20 0v184h34q100 0 144 43q49 49 49 156v217h184v-217q0 -186 -92 -297q-70 -86 -229 -86h-90zM98 1100v150h150v-150h-150zM223 1000h149v-150h-149v150zM348 1100v150h149v-150h-149z" />
<glyph unicode="&#x67d;" horiz-adv-x="616" d="M-20 0v184h34q100 0 144 43q49 49 49 156v217h184v-217q0 -106 49 -156q43 -43 144 -43h55v-184h-111q-150 0 -229 86q-78 -86 -229 -86h-90zM98 1100v150h150v-150h-150zM223 1000h149v-150h-149v150zM348 1100v150h149v-150h-149z" />
<glyph unicode="&#x67d;" horiz-adv-x="2009" d="M700 801v150h150v-150h-150zM825 701h149v-150h-149v150zM950 801v150h149v-150h-149zM129 383q0 139 64 229h184q-66 -96 -66 -229q0 -125 203 -193q100 -33 256 -32q270 4 451 55q195 57 321 168q59 53 60 172q0 59 -29 117h182q20 -82 21 -166q0 -209 69 -266 q66 -53 125 -54h62v-184h-103q-115 0 -186 74q-80 83 -105 147q-150 -129 -389 -182q-262 -59 -469 -59q-190 0 -319 38q-332 103 -332 365z" />
<glyph unicode="&#x681;" horiz-adv-x="1265" d="M-20 0v184h100q225 0 356 72q104 59 219 164q96 88 197 121q-164 43 -186 47q-94 20 -267 35q-82 6 -241 0v184q94 8 145 8q158 0 336 -35q258 -53 477 -149v-156q-76 -25 -164 -76q-162 -96 -239 -163q-139 -125 -221 -156q-221 -80 -383 -80h-129zM424 915v101l78 18 q-49 25 -62 55q-14 35 -14 82q0 96 55 139q57 45 150 45q63 0 114 -32v-101q-47 33 -114 33q-66 0 -82 -16q-31 -35 -31 -60q0 -76 94 -102q34 -9 154 18v-102z" />
<glyph unicode="&#x681;" horiz-adv-x="1320" d="M-20 0v184h100q225 0 356 72q104 59 219 164q96 88 197 121q-164 43 -186 47q-94 20 -267 35q-82 6 -241 0v184q94 8 145 8q158 0 336 -35q258 -53 477 -149v-156q-72 -25 -137 -59q53 -84 80 -113q104 -119 217 -119h65v-184h-86q-209 0 -333 168q-57 80 -101 151 q-68 -45 -108 -83q-139 -125 -221 -156q-221 -80 -383 -80h-129zM424 915v101l78 18q-49 25 -62 55q-14 35 -14 82q0 96 55 139q57 45 150 45q63 0 114 -32v-101q-47 33 -114 33q-66 0 -82 -16q-31 -35 -31 -60q0 -76 94 -102q34 -9 154 18v-102z" />
<glyph unicode="&#x681;" horiz-adv-x="1320" d="M158 623v184q268 63 465 63q295 0 493 -55v-153q-109 0 -139 -13l29 -92q51 -158 122 -254q88 -119 175 -119h38v-184h-49q-129 0 -252 150q-82 100 -143 256q-2 4 -3 8t-5 15t-11.5 28.5l-22.5 54.5l-36 86q-119 -27 -213 -102q-223 -184 -223 -437q0 -133 74 -229 q131 -166 458 -166q190 0 406 119v-184q-150 -98 -401 -99q-416 0 -586 195q-131 150 -131 373q0 258 211 481q95 101 233 153h-24q-78 0 -236 -20q-129 -18 -229 -59zM473 1013v101l78 18q-49 25 -62 55q-14 35 -14 82q0 96 55 139q57 45 150 45q63 0 114 -32v-101 q-47 33 -114 33q-66 0 -82 -16q-31 -35 -31 -60q0 -76 94 -102q34 -9 154 18v-102z" />
<glyph unicode="&#x682;" horiz-adv-x="1265" d="M-20 0v184h100q225 0 356 72q104 59 219 164q96 88 197 121q-164 43 -186 47q-94 20 -267 35q-82 6 -241 0v184q94 8 145 8q158 0 336 -35q258 -53 477 -149v-156q-76 -25 -164 -76q-162 -96 -239 -163q-139 -125 -221 -156q-221 -80 -383 -80h-129zM524 1200v150h150 v-150h-150zM524 1100h150v-150h-150v150z" />
<glyph unicode="&#x682;" horiz-adv-x="1320" d="M-20 0v184h100q225 0 356 72q104 59 219 164q96 88 197 121q-164 43 -186 47q-94 20 -267 35q-82 6 -241 0v184q94 8 145 8q158 0 336 -35q258 -53 477 -149v-156q-72 -25 -137 -59q53 -84 80 -113q104 -119 217 -119h65v-184h-86q-209 0 -333 168q-57 80 -101 151 q-68 -45 -108 -83q-139 -125 -221 -156q-221 -80 -383 -80h-129zM524 1200v150h150v-150h-150zM524 1100h150v-150h-150v150z" />
<glyph unicode="&#x682;" horiz-adv-x="1320" d="M158 623v184q268 63 465 63q295 0 493 -55v-153q-109 0 -139 -13l29 -92q51 -158 122 -254q88 -119 175 -119h38v-184h-49q-129 0 -252 150q-82 100 -143 256q-2 4 -3 8t-5 15t-11.5 28.5l-22.5 54.5l-36 86q-119 -27 -213 -102q-223 -184 -223 -437q0 -133 74 -229 q131 -166 458 -166q190 0 406 119v-184q-150 -98 -401 -99q-416 0 -586 195q-131 150 -131 373q0 258 211 481q95 101 233 153h-24q-78 0 -236 -20q-129 -18 -229 -59zM575 1300v150h150v-150h-150zM575 1200h150v-150h-150v150z" />
<glyph unicode="&#x685;" horiz-adv-x="1265" d="M-20 0v184h100q225 0 356 72q104 59 219 164q96 88 197 121q-164 43 -186 47q-94 20 -267 35q-82 6 -241 0v184q94 8 145 8q158 0 336 -35q258 -53 477 -149v-156q-76 -25 -164 -76q-162 -96 -239 -163q-139 -125 -221 -156q-221 -80 -383 -80h-129zM399 950v150h150 v-150h-150zM524 1200v149h149v-149h-149zM649 950v150h149v-150h-149z" />
<glyph unicode="&#x685;" horiz-adv-x="1320" d="M-20 0v184h100q225 0 356 72q104 59 219 164q96 88 197 121q-164 43 -186 47q-94 20 -267 35q-82 6 -241 0v184q94 8 145 8q158 0 336 -35q258 -53 477 -149v-156q-72 -25 -137 -59q53 -84 80 -113q104 -119 217 -119h65v-184h-86q-209 0 -333 168q-57 80 -101 151 q-68 -45 -108 -83q-139 -125 -221 -156q-221 -80 -383 -80h-129zM399 950v150h150v-150h-150zM524 1200v149h149v-149h-149zM649 950v150h149v-150h-149z" />
<glyph unicode="&#x685;" horiz-adv-x="1320" d="M158 623v184q268 63 465 63q295 0 493 -55v-153q-109 0 -139 -13l29 -92q51 -158 122 -254q88 -119 175 -119h38v-184h-49q-129 0 -252 150q-82 100 -143 256q-2 4 -3 8t-5 15t-11.5 28.5l-22.5 54.5l-36 86q-119 -27 -213 -102q-223 -184 -223 -437q0 -133 74 -229 q131 -166 458 -166q190 0 406 119v-184q-150 -98 -401 -99q-416 0 -586 195q-131 150 -131 373q0 258 211 481q95 101 233 153h-24q-78 0 -236 -20q-129 -18 -229 -59zM451 1051v150h150v-150h-150zM576 1301v149h149v-149h-149zM701 1051v150h149v-150h-149z" />
<glyph unicode="&#x692;" horiz-adv-x="1128" d="M432 1136h139l129 -194l129 194h139l-194 -325h-148zM-86 -315q309 0 508 127q221 139 254 346q8 51 8 131q0 129 -51 262h182q33 -115 35 -143q10 -104 82 -181q43 -43 143 -43h76v-184h-131q-131 0 -180 61q-68 -279 -320 -409q-285 -152 -606 -152v185z" />
<glyph unicode="&#x695;" horiz-adv-x="1249" d="M-86 -315q309 0 508 127q221 139 254 346q8 51 8 131q0 129 -51 262h182q33 -115 35 -143q10 -104 82 -181q43 -43 143 -43h195v-184h-250q-131 0 -180 61q-68 -279 -320 -409q-285 -152 -606 -152v185zM762 -174h139l129 -194l129 194h139l-194 -325h-148z" />
<glyph unicode="&#x6a1;" horiz-adv-x="978" d="M-20 0v184h241q78 0 236 23q78 12 139 104q29 45 45 99q-63 -55 -160 -58q-129 -2 -209 68q-98 86 -98 217q0 55 8 94q23 150 174 217q77 37 154 37q92 0 156 -49q96 -72 143 -174q23 -55 22 -193q0 -205 -77 -350q-74 -137 -199 -180q-104 -39 -254 -39h-321zM365 655 q0 -80 55 -116q43 -27 82 -27q72 0 96 25q41 45 41 120q0 57 -66 111q-29 23 -75 23q-52 0 -92 -43q-41 -42 -41 -93z" />
<glyph unicode="&#x6a1;" horiz-adv-x="1034" d="M-20 0v184h126q152 0 187 17q-31 45 -66 116q-20 43 -20 123q0 49 8 92q20 141 209 230q29 14 94.5 14t95.5 -14q182 -80 207 -230q8 -43 8 -92q0 -76 -20 -123q-27 -66 -66 -116q35 -16 187 -17h127v-184h-217q-141 0 -322 57q-180 -57 -321 -57h-217zM395 446 q0 -45 25 -96q31 -70 98 -90q59 20 98 90q25 49 25 96q0 31 -10 52q-20 49 -80 84q-20 10 -32.5 10t-33.5 -10q-55 -31 -79 -84q-11 -25 -11 -52z" />
<glyph unicode="&#x6a1;" horiz-adv-x="2119" d="M129 313q0 141 64 232h184q-66 -96 -66 -232q0 -114 203 -190q86 -33 381 -33q231 0 516 55l29 5q-39 33 -64 69q-82 121 -82 246q0 18 4 67q23 156 211 230q61 23 111 22q82 0 162 -49q137 -82 155 -233q4 -49 5 -68q0 -143 -80 -250h16h262v-184h-268q-104 0 -215 37 q-104 -43 -215 -68q-270 -59 -551 -59q-307 0 -430 39q-332 104 -332 364zM1483 461q0 -57 41 -123q49 -78 133 -115q102 63 102 187q0 29 -4 47q-16 72 -65 110q-34 25 -74 25q-23 0 -47 -10q-61 -25 -80 -84q-6 -19 -6 -37z" />
<glyph unicode="&#x6b5;" horiz-adv-x="622" d="M72 1986h139l129 -194l129 194h139l-194 -325h-148zM-20 0v184h75q100 0 144 43q49 49 49 156v1173h182v-1185q0 -178 -86 -279q-80 -92 -233 -92h-131z" />
<glyph unicode="&#x6b5;" horiz-adv-x="677" d="M72 1986h139l129 -194l129 194h139l-194 -325h-148zM-20 0v184h75q100 0 144 43q49 49 49 156v1173h182v-1173q0 -106 49 -156q43 -43 144 -43h75v-184h-131q-147 0 -227 86q-78 -86 -229 -86h-131z" />
<glyph unicode="&#x6b5;" horiz-adv-x="1550" d="M944 1986h139l129 -194l129 194h139l-194 -325h-148zM143 76q0 139 64 229h184q-66 -115 -65 -229q0 -129 166 -193q43 -16 112 -16q80 0 191 35q174 51 247 172q78 127 78 352v1130h185v-1173q0 -106 49 -156q43 -43 141 -43h76v-184h-129q-115 0 -191 51 q-20 -49 -45 -86q-121 -178 -383 -244q-131 -33 -219 -32q-104 0 -168 20q-293 93 -293 367z" />
<glyph unicode="&#x6ba;" horiz-adv-x="569" d="M-20 0v184h34q100 0 144 43q49 49 49 156v217h184v-217q0 -186 -92 -297q-70 -86 -229 -86h-90zM223 850v150h150v-150h-150z" />
<glyph unicode="&#x6ba;" horiz-adv-x="616" d="M-20 0v184h34q100 0 144 43q49 49 49 156v217h184v-217q0 -106 49 -156q43 -43 144 -43h55v-184h-111q-150 0 -229 86q-78 -86 -229 -86h-90zM223 850v150h150v-150h-150z" />
<glyph unicode="&#x6bf;" horiz-adv-x="1265" d="M-20 0v184h100q225 0 356 72q104 59 219 164q96 88 197 121q-164 43 -186 47q-94 20 -267 35q-82 6 -241 0v184q94 8 145 8q158 0 336 -35q258 -53 477 -149v-156q-76 -25 -164 -76q-162 -96 -239 -163q-139 -125 -221 -156q-221 -80 -383 -80h-129zM399 -201v150h150 v-150h-150zM524 -301h149v-150h-149v150zM649 -201v150h149v-150h-149zM524 950v150h150v-150h-150z" />
<glyph unicode="&#x6bf;" horiz-adv-x="1320" d="M-20 0v184h100q225 0 356 72q104 59 219 164q96 88 197 121q-164 43 -186 47q-94 20 -267 35q-82 6 -241 0v184q94 8 145 8q158 0 336 -35q258 -53 477 -149v-156q-72 -25 -137 -59q53 -84 80 -113q104 -119 217 -119h65v-184h-86q-209 0 -333 168q-57 80 -101 151 q-68 -45 -108 -83q-139 -125 -221 -156q-221 -80 -383 -80h-129zM412 -201v150h150v-150h-150zM537 -301h149v-150h-149v150zM662 -201v150h149v-150h-149zM524 950v150h150v-150h-150z" />
<glyph unicode="&#x6bf;" horiz-adv-x="1320" d="M158 623v184q268 63 465 63q295 0 493 -55v-153q-109 0 -139 -13l29 -92q51 -158 122 -254q88 -119 175 -119h38v-184h-49q-129 0 -252 150q-82 100 -143 256q-2 4 -3 8t-5 15t-11.5 28.5l-22.5 54.5l-36 86q-119 -27 -213 -102q-223 -184 -223 -437q0 -133 74 -229 q131 -166 458 -166q190 0 406 119v-184q-150 -98 -401 -99q-416 0 -586 195q-131 150 -131 373q0 258 211 481q95 101 233 153h-24q-78 0 -236 -20q-129 -18 -229 -59zM575 1051v150h150v-150h-150zM487 25v150h150v-150h-150zM612 -75h149v-150h-149v150zM737 25v150h149 v-150h-149z" />
<glyph unicode="&#x6ce;" horiz-adv-x="569" d="M31 1087h139l129 -194l129 194h139l-194 -325h-148zM98 -299v150h150v-150h-150zM348 -299v150h149v-150h-149zM-20 0v184h34q100 0 144 43q49 49 49 156v217h184v-217q0 -186 -92 -297q-70 -86 -229 -86h-90z" />
<glyph unicode="&#x6ce;" horiz-adv-x="616" d="M31 1087h139l129 -194l129 194h139l-194 -325h-148zM98 -299v150h150v-150h-150zM348 -299v150h149v-150h-149zM-20 0v184h34q100 0 144 43q49 49 49 156v217h184v-217q0 -106 49 -156q43 -43 144 -43h55v-184h-111q-150 0 -229 86q-78 -86 -229 -86h-90z" />
<glyph unicode="&#x6ce;" horiz-adv-x="1705" d="M432 837h139l129 -194l129 194h139l-194 -325h-148zM129 133q0 156 64 244h184q-66 -90 -66 -244q0 -114 166 -190q63 -31 246 -31q117 0 168 6q147 14 209 49q92 53 92 84q0 43 -49 55q-29 10 -60 50q-43 57 -43 118q0 66 52 125q78 92 163 109q31 6 72 6 q121 0 205 -133q129 -197 160 -197h34v-184h-34q-115 0 -226 172q-106 166 -135 166q-37 0 -51 -6q-43 -16 -43 -53q0 -47 63 -74q72 -31 76 -154q4 -100 -108 -184q-131 -96 -346 -127q-90 -12 -195 -12q-184 0 -303 41q-295 106 -295 364z" />
<glyph unicode="&#x6d5;" horiz-adv-x="1097" d="M145 285q0 174 203 301q104 66 260 82l-6 82h184q0 -168 37 -342q23 -102 76 -181q31 -43 143 -43h76v-184h-131q-90 0 -162 51q-47 31 -84 90q-139 -74 -292 -73q-53 0 -115 16q-189 49 -189 201zM311 295q0 -43 92 -68q88 -25 273 56q-20 57 -29 90q-12 49 -24 151 q-117 -12 -201 -80q-113 -92 -111 -149z" />
<glyph unicode="&#x67b;" horiz-adv-x="1927" arabic-form="isolated" d="M825 -250v150h150v-150h-150zM825 -350h150v-150h-150v150zM129 383q0 139 64 229h184q-66 -96 -66 -229q0 -125 203 -193q100 -33 256 -32q201 0 451 55q254 55 321 168q55 92 55 168q0 59 -24 121h182q16 -94 17 -160q0 -137 -76 -238q-127 -168 -447 -233 q-291 -59 -469 -59q-182 0 -319 38q-332 99 -332 365z" />
<glyph unicode="&#x67b;" horiz-adv-x="2009" arabic-form="final" d="M825 -250v150h150v-150h-150zM825 -350h150v-150h-150v150zM129 383q0 139 64 229h184q-66 -96 -66 -229q0 -125 203 -193q100 -33 256 -32q270 4 451 55q195 57 321 168q59 53 60 172q0 59 -29 117h182q20 -82 21 -166q0 -209 69 -266q66 -53 125 -54h62v-184h-103 q-115 0 -186 74q-80 83 -105 147q-150 -129 -389 -182q-262 -59 -469 -59q-190 0 -319 38q-332 103 -332 365z" />
<glyph unicode="&#x67b;" horiz-adv-x="569" arabic-form="initial" d="M-20 0v184h34q100 0 144 43q49 49 49 156v217h184v-217q0 -186 -92 -297q-70 -86 -229 -86h-90zM223 -250v150h150v-150h-150zM223 -350h150v-150h-150v150z" />
<glyph unicode="&#x67b;" horiz-adv-x="616" arabic-form="medial" d="M223 -250v150h150v-150h-150zM223 -350h150v-150h-150v150zM-20 0v184h34q100 0 144 43q49 49 49 156v217h184v-217q0 -106 49 -156q43 -43 144 -43h55v-184h-111q-150 0 -229 86q-78 -86 -229 -86h-90z" />
<glyph unicode="&#x67e;" horiz-adv-x="1927" arabic-form="isolated" d="M700 -250v150h150v-150h-150zM825 -350h149v-150h-149v150zM950 -250v150h149v-150h-149zM129 383q0 139 64 229h184q-66 -96 -66 -229q0 -125 203 -193q100 -33 256 -32q201 0 451 55q254 55 321 168q55 92 55 168q0 59 -24 121h182q16 -94 17 -160q0 -137 -76 -238 q-127 -168 -447 -233q-291 -59 -469 -59q-182 0 -319 38q-332 99 -332 365z" />
<glyph unicode="&#x67e;" horiz-adv-x="2009" arabic-form="final" d="M700 -250v150h150v-150h-150zM825 -350h149v-150h-149v150zM950 -250v150h149v-150h-149zM129 383q0 139 64 229h184q-66 -96 -66 -229q0 -125 203 -193q100 -33 256 -32q270 4 451 55q195 57 321 168q59 53 60 172q0 59 -29 117h182q20 -82 21 -166q0 -209 69 -266 q66 -53 125 -54h62v-184h-103q-115 0 -186 74q-80 83 -105 147q-150 -129 -389 -182q-262 -59 -469 -59q-190 0 -319 38q-332 103 -332 365z" />
<glyph unicode="&#x67e;" horiz-adv-x="569" arabic-form="initial" d="M-20 0v184h34q100 0 144 43q49 49 49 156v217h184v-217q0 -186 -92 -297q-70 -86 -229 -86h-90zM98 -250v150h150v-150h-150zM223 -350h149v-150h-149v150zM348 -250v150h149v-150h-149z" />
<glyph unicode="&#x67e;" horiz-adv-x="616" arabic-form="medial" d="M-20 0v184h34q100 0 144 43q49 49 49 156v217h184v-217q0 -106 49 -156q43 -43 144 -43h55v-184h-111q-150 0 -229 86q-78 -86 -229 -86h-90zM98 -250v150h150v-150h-150zM223 -350h149v-150h-149v150zM348 -250v150h149v-150h-149z" />
<glyph unicode="&#x680;" horiz-adv-x="1927" arabic-form="isolated" d="M700 -250v150h150v-150h-150zM700 -350h150v-150h-150v150zM950 -250v150h149v-150h-149zM950 -350h149v-150h-149v150zM129 383q0 139 64 229h184q-66 -96 -66 -229q0 -125 203 -193q100 -33 256 -32q201 0 451 55q254 55 321 168q55 92 55 168q0 59 -24 121h182 q16 -94 17 -160q0 -137 -76 -238q-127 -168 -447 -233q-291 -59 -469 -59q-182 0 -319 38q-332 99 -332 365z" />
<glyph unicode="&#x680;" horiz-adv-x="2009" arabic-form="final" d="M700 -250v150h150v-150h-150zM700 -350h150v-150h-150v150zM950 -250v150h149v-150h-149zM950 -350h149v-150h-149v150zM129 383q0 139 64 229h184q-66 -96 -66 -229q0 -125 203 -193q100 -33 256 -32q270 4 451 55q195 57 321 168q59 53 60 172q0 59 -29 117h182 q20 -82 21 -166q0 -209 69 -266q66 -53 125 -54h62v-184h-103q-115 0 -186 74q-80 83 -105 147q-150 -129 -389 -182q-262 -59 -469 -59q-190 0 -319 38q-332 103 -332 365z" />
<glyph unicode="&#x680;" horiz-adv-x="569" arabic-form="initial" d="M-20 0v184h34q100 0 144 43q49 49 49 156v217h184v-217q0 -186 -92 -297q-70 -86 -229 -86h-90zM98 -250v150h150v-150h-150zM98 -350h150v-150h-150v150zM348 -250v150h149v-150h-149zM348 -350h149v-150h-149v150z" />
<glyph unicode="&#x680;" horiz-adv-x="616" arabic-form="medial" d="M-20 0v184h34q100 0 144 43q49 49 49 156v217h184v-217q0 -106 49 -156q43 -43 144 -43h55v-184h-111q-150 0 -229 86q-78 -86 -229 -86h-90zM98 -250v150h150v-150h-150zM98 -350h150v-150h-150v150zM348 -250v150h149v-150h-149zM348 -350h149v-150h-149v150z" />
<glyph unicode="&#x67a;" horiz-adv-x="1927" arabic-form="isolated" d="M825 899v150h150v-150h-150zM825 799h150v-150h-150v150zM129 383q0 139 64 229h184q-66 -96 -66 -229q0 -125 203 -193q100 -33 256 -32q201 0 451 55q254 55 321 168q55 92 55 168q0 59 -24 121h182q16 -94 17 -160q0 -137 -76 -238q-127 -168 -447 -233 q-291 -59 -469 -59q-182 0 -319 38q-332 99 -332 365z" />
<glyph unicode="&#x67a;" horiz-adv-x="2009" arabic-form="final" d="M825 899v150h150v-150h-150zM825 799h150v-150h-150v150zM129 383q0 139 64 229h184q-66 -96 -66 -229q0 -125 203 -193q100 -33 256 -32q270 4 451 55q195 57 321 168q59 53 60 172q0 59 -29 117h182q20 -82 21 -166q0 -209 69 -266q66 -53 125 -54h62v-184h-103 q-115 0 -186 74q-80 83 -105 147q-150 -129 -389 -182q-262 -59 -469 -59q-190 0 -319 38q-332 103 -332 365z" />
<glyph unicode="&#x67a;" horiz-adv-x="569" arabic-form="initial" d="M-20 0v184h34q100 0 144 43q49 49 49 156v217h184v-217q0 -186 -92 -297q-70 -86 -229 -86h-90zM223 1100v150h150v-150h-150zM223 1000h150v-150h-150v150z" />
<glyph unicode="&#x67a;" horiz-adv-x="616" arabic-form="medial" d="M-20 0v184h34q100 0 144 43q49 49 49 156v217h184v-217q0 -106 49 -156q43 -43 144 -43h55v-184h-111q-150 0 -229 86q-78 -86 -229 -86h-90zM223 1100v150h150v-150h-150zM223 1000h150v-150h-150v150z" />
<glyph unicode="&#x67f;" horiz-adv-x="1927" arabic-form="isolated" d="M700 899v150h150v-150h-150zM700 799h150v-150h-150v150zM950 899v150h149v-150h-149zM950 799h149v-150h-149v150zM129 383q0 139 64 229h184q-66 -96 -66 -229q0 -125 203 -193q100 -33 256 -32q201 0 451 55q254 55 321 168q55 92 55 168q0 59 -24 121h182 q16 -94 17 -160q0 -137 -76 -238q-127 -168 -447 -233q-291 -59 -469 -59q-182 0 -319 38q-332 99 -332 365z" />
<glyph unicode="&#x67f;" horiz-adv-x="2009" arabic-form="final" d="M129 383q0 139 64 229h184q-66 -96 -66 -229q0 -125 203 -193q100 -33 256 -32q270 4 451 55q195 57 321 168q59 53 60 172q0 59 -29 117h182q20 -82 21 -166q0 -209 69 -266q66 -53 125 -54h62v-184h-103q-115 0 -186 74q-80 83 -105 147q-150 -129 -389 -182 q-262 -59 -469 -59q-190 0 -319 38q-332 103 -332 365zM700 899v150h150v-150h-150zM700 799h150v-150h-150v150zM950 899v150h149v-150h-149zM950 799h149v-150h-149v150z" />
<glyph unicode="&#x67f;" horiz-adv-x="569" arabic-form="initial" d="M-20 0v184h34q100 0 144 43q49 49 49 156v217h184v-217q0 -186 -92 -297q-70 -86 -229 -86h-90zM98 1100v150h150v-150h-150zM98 1000h150v-150h-150v150zM348 1100v150h149v-150h-149zM348 1000h149v-150h-149v150z" />
<glyph unicode="&#x67f;" horiz-adv-x="616" arabic-form="medial" d="M-20 0v184h34q100 0 144 43q49 49 49 156v217h184v-217q0 -106 49 -156q43 -43 144 -43h55v-184h-111q-150 0 -229 86q-78 -86 -229 -86h-90zM98 1100v150h150v-150h-150zM98 1000h150v-150h-150v150zM348 1100v150h149v-150h-149zM348 1000h149v-150h-149v150z" />
<glyph unicode="&#x679;" horiz-adv-x="1927" arabic-form="isolated" d="M639 678v100h82v400h100v-322q37 72 141 113q61 23 134 -2q63 -25 63 -107q0 -92 -63 -141q-53 -41 -170 -41h-174h-113zM848 778h55q78 0 100 13q53 35 54 55q0 33 -31 47q-25 -8 -72 -27q-51 -20 -106 -88zM129 383q0 139 64 229h184q-66 -96 -66 -229q0 -125 203 -193 q100 -33 256 -32q201 0 451 55q254 55 321 168q55 92 55 168q0 59 -24 121h182q16 -94 17 -160q0 -137 -76 -238q-127 -168 -447 -233q-291 -59 -469 -59q-182 0 -319 38q-332 99 -332 365z" />
<glyph unicode="&#x679;" horiz-adv-x="2009" arabic-form="final" d="M129 383q0 139 64 229h184q-66 -96 -66 -229q0 -125 203 -193q100 -33 256 -32q270 4 451 55q195 57 321 168q59 53 60 172q0 59 -29 117h182q20 -82 21 -166q0 -209 69 -266q66 -53 125 -54h62v-184h-103q-115 0 -186 74q-80 83 -105 147q-150 -129 -389 -182 q-262 -59 -469 -59q-190 0 -319 38q-332 103 -332 365zM639 678v100h82v400h100v-322q37 72 141 113q61 23 134 -2q63 -25 63 -107q0 -92 -63 -141q-53 -41 -170 -41h-174h-113zM848 778h55q78 0 100 13q53 35 54 55q0 33 -31 47q-25 -8 -72 -27q-51 -20 -106 -88z" />
<glyph unicode="&#x679;" horiz-adv-x="569" arabic-form="initial" d="M-20 0v184h34q100 0 144 43q49 49 49 156v217h184v-217q0 -186 -92 -297q-70 -86 -229 -86h-90zM39 879v100h82v400h100v-322q37 72 141 113q61 23 134 -2q63 -25 63 -107q0 -92 -63 -141q-53 -41 -170 -41h-174h-113zM248 979h55q78 0 100 13q53 35 54 55q0 33 -31 47 q-25 -8 -72 -27q-51 -20 -106 -88z" />
<glyph unicode="&#x679;" horiz-adv-x="616" arabic-form="medial" d="M-20 0v184h34q100 0 144 43q49 49 49 156v217h184v-217q0 -106 49 -156q43 -43 144 -43h55v-184h-111q-150 0 -229 86q-78 -86 -229 -86h-90zM39 879v100h82v400h100v-322q37 72 141 113q61 23 134 -2q63 -25 63 -107q0 -92 -63 -141q-53 -41 -170 -41h-174h-113z M248 979h55q78 0 100 13q53 35 54 55q0 33 -31 47q-25 -8 -72 -27q-51 -20 -106 -88z" />
<glyph unicode="&#x6a4;" horiz-adv-x="2121" arabic-form="isolated" d="M1401 1151v150h150v-150h-150zM1526 1401v149h149v-149h-149zM1651 1151v150h149v-150h-149zM129 313q0 141 64 232h184q-66 -96 -66 -232q0 -113 203 -190q92 -35 371 -35q326 0 530 57q213 57 316 166q33 35 55 117q-66 -76 -187 -76q-133 0 -206 68q-98 86 -99 217 q0 55 9 94q23 150 172 217q77 37 153 37q92 0 158 -49q94 -70 141 -174q23 -51 23 -193q-4 -227 -78 -350q-109 -178 -426 -250q-274 -61 -561 -61q-291 0 -424 41q-332 102 -332 364zM1485 655q0 -82 53 -116q43 -27 84 -27q70 0 94 25q41 45 41 120q0 57 -65 111 q-29 23 -74 23q-52 0 -92 -43q-41 -42 -41 -93z" />
<glyph unicode="&#x6a4;" horiz-adv-x="2119" arabic-form="final" d="M129 313q0 141 64 232h184q-66 -96 -66 -232q0 -114 203 -190q86 -33 381 -33q231 0 516 55l29 5q-39 33 -64 69q-82 121 -82 246q0 18 4 67q23 156 211 230q61 23 111 22q82 0 162 -49q137 -82 155 -233q4 -49 5 -68q0 -143 -80 -250h16h262v-184h-268q-104 0 -215 37 q-104 -43 -215 -68q-270 -59 -551 -59q-307 0 -430 39q-332 104 -332 364zM1483 461q0 -57 41 -123q49 -78 133 -115q102 63 102 187q0 29 -4 47q-16 72 -65 110q-34 25 -74 25q-23 0 -47 -10q-61 -25 -80 -84q-6 -19 -6 -37zM1401 950v150h150v-150h-150zM1526 1200v149 h149v-149h-149zM1651 950v150h149v-150h-149z" />
<glyph unicode="&#x6a4;" horiz-adv-x="978" arabic-form="initial" d="M-20 0v184h241q78 0 236 23q78 12 139 104q29 45 45 99q-63 -55 -160 -58q-129 -2 -209 68q-98 86 -98 217q0 55 8 94q23 150 174 217q77 37 154 37q92 0 156 -49q96 -72 143 -174q23 -55 22 -193q0 -205 -77 -350q-74 -137 -199 -180q-104 -39 -254 -39h-321zM365 655 q0 -80 55 -116q43 -27 82 -27q72 0 96 25q41 45 41 120q0 57 -66 111q-29 23 -75 23q-52 0 -92 -43q-41 -42 -41 -93zM299 1151v150h150v-150h-150zM424 1401v149h149v-149h-149zM549 1151v150h149v-150h-149z" />
<glyph unicode="&#x6a4;" horiz-adv-x="1034" arabic-form="medial" d="M-20 0v184h126q152 0 187 17q-31 45 -66 116q-20 43 -20 123q0 49 8 92q20 141 209 230q29 14 94.5 14t95.5 -14q182 -80 207 -230q8 -43 8 -92q0 -76 -20 -123q-27 -66 -66 -116q35 -16 187 -17h127v-184h-217q-141 0 -322 57q-180 -57 -321 -57h-217zM395 446 q0 -45 25 -96q31 -70 98 -90q59 20 98 90q25 49 25 96q0 31 -10 52q-20 49 -80 84q-20 10 -32.5 10t-33.5 -10q-55 -31 -79 -84q-11 -25 -11 -52zM317 999v150h150v-150h-150zM442 1249v149h149v-149h-149zM567 999v150h149v-150h-149z" />
<glyph unicode="&#x6a6;" horiz-adv-x="2121" arabic-form="isolated" d="M1401 1401v150h150v-150h-150zM1401 1301h150v-150h-150v150zM1651 1401v150h149v-150h-149zM1651 1301h149v-150h-149v150zM129 313q0 141 64 232h184q-66 -96 -66 -232q0 -113 203 -190q92 -35 371 -35q326 0 530 57q213 57 316 166q33 35 55 117q-66 -76 -187 -76 q-133 0 -206 68q-98 86 -99 217q0 55 9 94q23 150 172 217q77 37 153 37q92 0 158 -49q94 -70 141 -174q23 -51 23 -193q-4 -227 -78 -350q-109 -178 -426 -250q-274 -61 -561 -61q-291 0 -424 41q-332 102 -332 364zM1485 655q0 -82 53 -116q43 -27 84 -27q70 0 94 25 q41 45 41 120q0 57 -65 111q-29 23 -74 23q-52 0 -92 -43q-41 -42 -41 -93z" />
<glyph unicode="&#x6a6;" horiz-adv-x="2119" arabic-form="final" d="M129 313q0 141 64 232h184q-66 -96 -66 -232q0 -114 203 -190q86 -33 381 -33q231 0 516 55l29 5q-39 33 -64 69q-82 121 -82 246q0 18 4 67q23 156 211 230q61 23 111 22q82 0 162 -49q137 -82 155 -233q4 -49 5 -68q0 -143 -80 -250h16h262v-184h-268q-104 0 -215 37 q-104 -43 -215 -68q-270 -59 -551 -59q-307 0 -430 39q-332 104 -332 364zM1483 461q0 -57 41 -123q49 -78 133 -115q102 63 102 187q0 29 -4 47q-16 72 -65 110q-34 25 -74 25q-23 0 -47 -10q-61 -25 -80 -84q-6 -19 -6 -37zM1401 1200v150h150v-150h-150zM1401 1100h150 v-150h-150v150zM1651 1200v150h149v-150h-149zM1651 1100h149v-150h-149v150z" />
<glyph unicode="&#x6a6;" horiz-adv-x="978" arabic-form="initial" d="M-20 0v184h241q78 0 236 23q78 12 139 104q29 45 45 99q-63 -55 -160 -58q-129 -2 -209 68q-98 86 -98 217q0 55 8 94q23 150 174 217q77 37 154 37q92 0 156 -49q96 -72 143 -174q23 -55 22 -193q0 -205 -77 -350q-74 -137 -199 -180q-104 -39 -254 -39h-321zM365 655 q0 -80 55 -116q43 -27 82 -27q72 0 96 25q41 45 41 120q0 57 -66 111q-29 23 -75 23q-52 0 -92 -43q-41 -42 -41 -93zM299 1401v150h150v-150h-150zM299 1301h150v-150h-150v150zM549 1401v150h149v-150h-149zM549 1301h149v-150h-149v150z" />
<glyph unicode="&#x6a6;" horiz-adv-x="1034" arabic-form="medial" d="M-20 0v184h126q152 0 187 17q-31 45 -66 116q-20 43 -20 123q0 49 8 92q20 141 209 230q29 14 94.5 14t95.5 -14q182 -80 207 -230q8 -43 8 -92q0 -76 -20 -123q-27 -66 -66 -116q35 -16 187 -17h127v-184h-217q-141 0 -322 57q-180 -57 -321 -57h-217zM395 446 q0 -45 25 -96q31 -70 98 -90q59 20 98 90q25 49 25 96q0 31 -10 52q-20 49 -80 84q-20 10 -32.5 10t-33.5 -10q-55 -31 -79 -84q-11 -25 -11 -52zM317 1249v150h150v-150h-150zM317 1149h150v-150h-150v150zM567 1249v150h149v-150h-149zM567 1149h149v-150h-149v150z" />
<glyph unicode="&#x684;" horiz-adv-x="1320" arabic-form="isolated" d="M774 174v150h150v-150h-150zM774 74h150v-150h-150v150zM158 623v184q272 63 471 63q291 0 487 -55v-153q-295 0 -510 -166q-223 -174 -223 -437q0 -133 74 -229q129 -166 458 -166q190 0 406 119v-184q-150 -98 -401 -99q-416 0 -586 195q-131 150 -131 373 q0 258 211 481q95 101 233 153q-82 0 -260 -20q-131 -16 -229 -59z" />
<glyph unicode="&#x684;" horiz-adv-x="1320" arabic-form="final" d="M676 125v150h150v-150h-150zM676 25h150v-150h-150v150zM158 623v184q268 63 465 63q295 0 493 -55v-153q-109 0 -139 -13l29 -92q51 -158 122 -254q88 -119 175 -119h38v-184h-49q-129 0 -252 150q-82 100 -143 256q-2 4 -3 8t-5 15t-11.5 28.5l-22.5 54.5l-36 86 q-119 -27 -213 -102q-223 -184 -223 -437q0 -133 74 -229q131 -166 458 -166q190 0 406 119v-184q-150 -98 -401 -99q-416 0 -586 195q-131 150 -131 373q0 258 211 481q95 101 233 153h-24q-78 0 -236 -20q-129 -18 -229 -59z" />
<glyph unicode="&#x684;" horiz-adv-x="1265" arabic-form="initial" d="M-20 0v184h100q225 0 356 72q104 59 219 164q96 88 197 121q-164 43 -186 47q-94 20 -267 35q-82 6 -241 0v184q94 8 145 8q158 0 336 -35q258 -53 477 -149v-156q-76 -25 -164 -76q-162 -96 -239 -163q-139 -125 -221 -156q-221 -80 -383 -80h-129zM524 -201v150h150 v-150h-150zM524 -301h150v-150h-150v150z" />
<glyph unicode="&#x684;" horiz-adv-x="1320" arabic-form="medial" d="M-20 0v184h100q225 0 356 72q104 59 219 164q96 88 197 121q-164 43 -186 47q-94 20 -267 35q-82 6 -241 0v184q94 8 145 8q158 0 336 -35q258 -53 477 -149v-156q-72 -25 -137 -59q53 -84 80 -113q104 -119 217 -119h65v-184h-86q-209 0 -333 168q-57 80 -101 151 q-68 -45 -108 -83q-139 -125 -221 -156q-221 -80 -383 -80h-129zM524 -201v150h150v-150h-150zM524 -301h150v-150h-150v150z" />
<glyph unicode="&#x683;" horiz-adv-x="1320" arabic-form="isolated" d="M649 25v150h150v-150h-150zM899 25v150h149v-150h-149zM158 623v184q272 63 471 63q291 0 487 -55v-153q-295 0 -510 -166q-223 -174 -223 -437q0 -133 74 -229q129 -166 458 -166q190 0 406 119v-184q-150 -98 -401 -99q-416 0 -586 195q-131 150 -131 373 q0 258 211 481q95 101 233 153q-82 0 -260 -20q-131 -16 -229 -59z" />
<glyph unicode="&#x683;" horiz-adv-x="1320" arabic-form="final" d="M551 -25v150h150v-150h-150zM801 -25v150h149v-150h-149zM158 623v184q268 63 465 63q295 0 493 -55v-153q-109 0 -139 -13l29 -92q51 -158 122 -254q88 -119 175 -119h38v-184h-49q-129 0 -252 150q-82 100 -143 256q-2 4 -3 8t-5 15t-11.5 28.5l-22.5 54.5l-36 86 q-119 -27 -213 -102q-223 -184 -223 -437q0 -133 74 -229q131 -166 458 -166q190 0 406 119v-184q-150 -98 -401 -99q-416 0 -586 195q-131 150 -131 373q0 258 211 481q95 101 233 153h-24q-78 0 -236 -20q-129 -18 -229 -59z" />
<glyph unicode="&#x683;" horiz-adv-x="1265" arabic-form="initial" d="M-20 0v184h100q225 0 356 72q104 59 219 164q96 88 197 121q-164 43 -186 47q-94 20 -267 35q-82 6 -241 0v184q94 8 145 8q158 0 336 -35q258 -53 477 -149v-156q-76 -25 -164 -76q-162 -96 -239 -163q-139 -125 -221 -156q-221 -80 -383 -80h-129zM399 -201v150h150 v-150h-150zM649 -201v150h149v-150h-149z" />
<glyph unicode="&#x683;" horiz-adv-x="1320" arabic-form="medial" d="M-20 0v184h100q225 0 356 72q104 59 219 164q96 88 197 121q-164 43 -186 47q-94 20 -267 35q-82 6 -241 0v184q94 8 145 8q158 0 336 -35q258 -53 477 -149v-156q-72 -25 -137 -59q53 -84 80 -113q104 -119 217 -119h65v-184h-86q-209 0 -333 168q-57 80 -101 151 q-68 -45 -108 -83q-139 -125 -221 -156q-221 -80 -383 -80h-129zM399 -201v150h150v-150h-150zM649 -201v150h149v-150h-149z" />
<glyph unicode="&#x686;" horiz-adv-x="1320" arabic-form="isolated" d="M662 150v150h150v-150h-150zM787 50h149v-150h-149v150zM912 150v150h149v-150h-149zM158 623v184q272 63 471 63q291 0 487 -55v-153q-295 0 -510 -166q-223 -174 -223 -437q0 -133 74 -229q129 -166 458 -166q190 0 406 119v-184q-150 -98 -401 -99q-416 0 -586 195 q-131 150 -131 373q0 258 211 481q95 101 233 153q-82 0 -260 -20q-131 -16 -229 -59z" />
<glyph unicode="&#x686;" horiz-adv-x="1320" arabic-form="final" d="M537 49v150h150v-150h-150zM662 -51h149v-150h-149v150zM787 49v150h149v-150h-149zM158 623v184q268 63 465 63q295 0 493 -55v-153q-109 0 -139 -13l29 -92q51 -158 122 -254q88 -119 175 -119h38v-184h-49q-129 0 -252 150q-82 100 -143 256q-2 4 -3 8t-5 15 t-11.5 28.5l-22.5 54.5l-36 86q-119 -27 -213 -102q-223 -184 -223 -437q0 -133 74 -229q131 -166 458 -166q190 0 406 119v-184q-150 -98 -401 -99q-416 0 -586 195q-131 150 -131 373q0 258 211 481q95 101 233 153h-24q-78 0 -236 -20q-129 -18 -229 -59z" />
<glyph unicode="&#x686;" horiz-adv-x="1265" arabic-form="initial" d="M-20 0v184h100q225 0 356 72q104 59 219 164q96 88 197 121q-164 43 -186 47q-94 20 -267 35q-82 6 -241 0v184q94 8 145 8q158 0 336 -35q258 -53 477 -149v-156q-76 -25 -164 -76q-162 -96 -239 -163q-139 -125 -221 -156q-221 -80 -383 -80h-129zM399 -201v150h150 v-150h-150zM524 -301h149v-150h-149v150zM649 -201v150h149v-150h-149z" />
<glyph unicode="&#x686;" horiz-adv-x="1320" arabic-form="medial" d="M-20 0v184h100q225 0 356 72q104 59 219 164q96 88 197 121q-164 43 -186 47q-94 20 -267 35q-82 6 -241 0v184q94 8 145 8q158 0 336 -35q258 -53 477 -149v-156q-72 -25 -137 -59q53 -84 80 -113q104 -119 217 -119h65v-184h-86q-209 0 -333 168q-57 80 -101 151 q-68 -45 -108 -83q-139 -125 -221 -156q-221 -80 -383 -80h-129zM399 -201v150h150v-150h-150zM524 -301h149v-150h-149v150zM649 -201v150h149v-150h-149z" />
<glyph unicode="&#x687;" horiz-adv-x="1320" arabic-form="isolated" d="M662 174v150h150v-150h-150zM662 74h150v-150h-150v150zM912 174v150h149v-150h-149zM912 74h149v-150h-149v150zM158 623v184q272 63 471 63q291 0 487 -55v-153q-295 0 -510 -166q-223 -174 -223 -437q0 -133 74 -229q129 -166 458 -166q190 0 406 119v-184 q-150 -98 -401 -99q-416 0 -586 195q-131 150 -131 373q0 258 211 481q95 101 233 153q-82 0 -260 -20q-131 -16 -229 -59z" />
<glyph unicode="&#x687;" horiz-adv-x="1320" arabic-form="final" d="M537 49v150h150v-150h-150zM537 -51h150v-150h-150v150zM787 49v150h149v-150h-149zM787 -51h149v-150h-149v150zM158 623v184q268 63 465 63q295 0 493 -55v-153q-109 0 -139 -13l29 -92q51 -158 122 -254q88 -119 175 -119h38v-184h-49q-129 0 -252 150 q-82 100 -143 256q-2 4 -3 8t-5 15t-11.5 28.5l-22.5 54.5l-36 86q-119 -27 -213 -102q-223 -184 -223 -437q0 -133 74 -229q131 -166 458 -166q190 0 406 119v-184q-150 -98 -401 -99q-416 0 -586 195q-131 150 -131 373q0 258 211 481q95 101 233 153h-24q-78 0 -236 -20 q-129 -18 -229 -59z" />
<glyph unicode="&#x687;" horiz-adv-x="1265" arabic-form="initial" d="M-20 0v184h100q225 0 356 72q104 59 219 164q96 88 197 121q-164 43 -186 47q-94 20 -267 35q-82 6 -241 0v184q94 8 145 8q158 0 336 -35q258 -53 477 -149v-156q-76 -25 -164 -76q-162 -96 -239 -163q-139 -125 -221 -156q-221 -80 -383 -80h-129zM399 -201v150h150 v-150h-150zM399 -301h150v-150h-150v150zM649 -201v150h149v-150h-149zM649 -301h149v-150h-149v150z" />
<glyph unicode="&#x687;" horiz-adv-x="1320" arabic-form="medial" d="M-20 0v184h100q225 0 356 72q104 59 219 164q96 88 197 121q-164 43 -186 47q-94 20 -267 35q-82 6 -241 0v184q94 8 145 8q158 0 336 -35q258 -53 477 -149v-156q-72 -25 -137 -59q53 -84 80 -113q104 -119 217 -119h65v-184h-86q-209 0 -333 168q-57 80 -101 151 q-68 -45 -108 -83q-139 -125 -221 -156q-221 -80 -383 -80h-129zM399 -201v150h150v-150h-150zM399 -301h150v-150h-150v150zM649 -201v150h149v-150h-149zM649 -301h149v-150h-149v150z" />
<glyph unicode="&#x698;" horiz-adv-x="987" arabic-form="isolated" d="M500 801v150h150v-150h-150zM625 1051v149h149v-149h-149zM750 801v150h149v-150h-149zM-86 -315q309 0 508 127q221 139 254 346q8 51 8 131q0 129 -51 262h182q51 -121 51 -252q0 -88 -8 -143q-46 -350 -338 -504q-285 -152 -606 -152v185z" />
<glyph unicode="&#x698;" horiz-adv-x="1128" arabic-form="final" d="M-86 -315q309 0 508 127q221 139 254 346q8 51 8 131q0 129 -51 262h182q33 -115 35 -143q10 -104 82 -181q43 -43 143 -43h76v-184h-131q-131 0 -180 61q-68 -279 -320 -409q-285 -152 -606 -152v185zM500 801v150h150v-150h-150zM625 1051v149h149v-149h-149zM750 801 v150h149v-150h-149z" />
<glyph unicode="&#x691;" horiz-adv-x="987" arabic-form="isolated" d="M-86 -315q309 0 508 127q221 139 254 346q8 51 8 131q0 129 -51 262h182q51 -121 51 -252q0 -88 -8 -143q-46 -350 -338 -504q-285 -152 -606 -152v185zM440 827v100h82v400h100v-322q37 72 141 113q61 23 134 -2q63 -25 63 -107q0 -92 -63 -141q-53 -41 -170 -41h-174 h-113zM649 927h55q78 0 100 13q53 35 54 55q0 33 -31 47q-25 -8 -72 -27q-51 -20 -106 -88z" />
<glyph unicode="&#x691;" horiz-adv-x="1128" arabic-form="final" d="M-86 -315q309 0 508 127q221 139 254 346q8 51 8 131q0 129 -51 262h182q33 -115 35 -143q10 -104 82 -181q43 -43 143 -43h76v-184h-131q-131 0 -180 61q-68 -279 -320 -409q-285 -152 -606 -152v185zM440 827v100h82v400h100v-322q37 72 141 113q61 23 134 -2 q63 -25 63 -107q0 -92 -63 -141q-53 -41 -170 -41h-174h-113zM649 927h55q78 0 100 13q53 35 54 55q0 33 -31 47q-25 -8 -72 -27q-51 -20 -106 -88z" />
<glyph unicode="&#x6a9;" horiz-adv-x="1832" arabic-form="isolated" d="M129 313q0 141 64 232h184q-66 -96 -66 -232q0 -126 203 -190q109 -35 256 -35q184 0 379 80q154 63 192 121q16 27 17 71q0 70 -55 136l-310 378q-51 63 -51 144q0 31 10 67q33 117 135 160l746 311v-186l-596 -250q-70 -31 -90 -69q-6 -12 -6 -37q0 -33 30 -70 l275 -330q102 -125 102 -245q0 -111 -61 -213q-51 -84 -320 -172q-221 -72 -387 -72q-190 0 -319 37q-332 98 -332 364z" />
<glyph unicode="&#x6a9;" horiz-adv-x="1832" arabic-form="final" d="M129 313q0 141 64 232h184q-66 -96 -66 -232q0 -126 203 -190q109 -35 256 -35q184 0 379 80q158 66 192 121q16 27 17 71q0 70 -55 136l-310 378q-51 63 -51 144q0 31 10 67q33 117 135 160l746 311v-186l-596 -250q-70 -31 -90 -69q-6 -12 -6 -37q0 -33 30 -70 l582 -704q18 -20 62 -39q45 -16 106 -17h88v-184h-131q-68 0 -125 25q-98 41 -135 84l-96 118q-25 -63 -86 -106q-94 -74 -269 -137q-201 -72 -387 -72q-190 0 -319 37q-332 98 -332 364z" />
<glyph unicode="&#x6a9;" horiz-adv-x="974" arabic-form="initial" d="M-20 0v184h311q147 0 192 105q16 39 17 71q0 70 -56 136l-309 378q-49 61 -49 144q0 37 8 67q31 117 135 160l746 311v-186l-594 -250q-72 -31 -92 -69q-6 -12 -6 -37q0 -33 30 -70l275 -330q102 -125 102 -245q0 -111 -61 -213q-96 -156 -320 -156h-329z" />
<glyph unicode="&#x6a9;" horiz-adv-x="1130" arabic-form="medial" d="M-20 0v184h311q147 0 192 105q16 39 17 71q0 70 -56 136l-309 378q-49 61 -49 144q0 37 8 67q31 117 135 160l746 311v-186l-594 -250q-72 -31 -92 -69q-6 -12 -6 -37q0 -33 30 -70l584 -704q20 -23 59 -39q45 -16 107 -17h88v-184h-131q-65 0 -123 25q-102 41 -137 84 l-96 118q-20 -45 -39 -71q-96 -156 -316 -156h-329z" />
<glyph unicode="&#x6af;" horiz-adv-x="1832" arabic-form="isolated" d="M971 1331v150l862 354v-149zM129 313q0 141 64 232h184q-66 -96 -66 -232q0 -126 203 -190q109 -35 256 -35q184 0 379 80q154 63 192 121q16 27 17 71q0 70 -55 136l-310 378q-51 63 -51 144q0 31 10 67q33 117 135 160l746 311v-186l-596 -250q-70 -31 -90 -69 q-6 -12 -6 -37q0 -33 30 -70l275 -330q102 -125 102 -245q0 -111 -61 -213q-51 -84 -320 -172q-221 -72 -387 -72q-190 0 -319 37q-332 98 -332 364z" />
<glyph unicode="&#x6af;" horiz-adv-x="1832" arabic-form="final" d="M129 313q0 141 64 232h184q-66 -96 -66 -232q0 -126 203 -190q109 -35 256 -35q184 0 379 80q158 66 192 121q16 27 17 71q0 70 -55 136l-310 378q-51 63 -51 144q0 31 10 67q33 117 135 160l746 311v-186l-596 -250q-70 -31 -90 -69q-6 -12 -6 -37q0 -33 30 -70 l582 -704q18 -20 62 -39q45 -16 106 -17h88v-184h-131q-68 0 -125 25q-98 41 -135 84l-96 118q-25 -63 -86 -106q-94 -74 -269 -137q-201 -72 -387 -72q-190 0 -319 37q-332 98 -332 364zM971 1331v150l862 354v-149z" />
<glyph unicode="&#x6af;" horiz-adv-x="974" arabic-form="initial" d="M-20 0v184h311q147 0 192 105q16 39 17 71q0 70 -56 136l-309 378q-49 61 -49 144q0 37 8 67q31 117 135 160l746 311v-186l-594 -250q-72 -31 -92 -69q-6 -12 -6 -37q0 -33 30 -70l275 -330q102 -125 102 -245q0 -111 -61 -213q-96 -156 -320 -156h-329zM113 1331v150 l862 354v-149z" />
<glyph unicode="&#x6af;" horiz-adv-x="1130" arabic-form="medial" d="M-20 0v184h311q147 0 192 105q16 39 17 71q0 70 -56 136l-309 378q-49 61 -49 144q0 37 8 67q31 117 135 160l746 311v-186l-594 -250q-72 -31 -92 -69q-6 -12 -6 -37q0 -33 30 -70l584 -704q20 -23 59 -39q45 -16 107 -17h88v-184h-131q-65 0 -123 25q-102 41 -137 84 l-96 118q-20 -45 -39 -71q-96 -156 -316 -156h-329zM113 1331v150l862 354v-149z" />
<glyph unicode="&#x6ba;" horiz-adv-x="1503" arabic-form="isolated" d="M147 168q0 233 48 315h184q-49 -143 -49 -315q0 -236 200 -289q92 -25 187 -24q78 0 145 20q193 51 271 275q33 96 32 194q0 186 -100 406h182q104 -156 105 -439q0 -174 -101 -350q-111 -197 -358 -264q-102 -29 -176 -29q-135 0 -242 37q-328 107 -328 463z" />
<glyph unicode="&#x6ba;" horiz-adv-x="1558" arabic-form="final" d="M147 0q0 170 48 315h184q-49 -139 -49 -315q0 -238 200 -291q82 -23 166 -22q98 0 166 18q197 49 271 277q33 98 32 213q0 186 -100 387h182q45 -102 72 -195q20 -76 71.5 -139.5t112.5 -63.5h76v-184h-129q-74 0 -107 47q-4 -109 -92 -256q-121 -201 -358 -264 q-94 -27 -188 -27q-115 0 -230 37q-328 107 -328 463z" />
<glyph unicode="&#x6c6;" horiz-adv-x="987" arabic-form="isolated" d="M232 1136h139l129 -194l129 194h139l-194 -325h-148zM-86 -315q360 0 494 75q170 96 231 242q-113 0 -164 10q-151 34 -190 68q-115 96 -115 235q0 141 88 228q102 102 242 102q94 0 159 -49q131 -90 156 -234q16 -90 16 -178q0 -309 -172 -469q-88 -82 -188 -129 q-190 -86 -557 -86v185zM362 326q0 -53 52 -99q45 -43 239 -43q0 184 -86 242q-39 27 -73 27q-63 0 -107 -58q-25 -34 -25 -69z" />
<glyph unicode="&#x6c6;" horiz-adv-x="1056" arabic-form="final" d="M232 1136h139l129 -194l129 194h139l-194 -325h-148zM-86 -315q362 0 494 75q170 96 231 242q-109 2 -164 10q-138 25 -190 68q-104 88 -115 223q-2 31 6 88q29 158 205 232q53 23 123 22q92 -4 155 -49q135 -94 156 -234q14 -92 16 -178h246v-184h-192h-72 q-25 -156 -154 -285q-82 -82 -188 -129q-190 -86 -557 -86v185zM367 356q-18 -74 47 -129q45 -39 239 -43q0 72 -16 133q-25 78 -70 109q-61 41 -121 16q-67 -27 -79 -86z" />
<glyph unicode="&#x649;" horiz-adv-x="569" arabic-form="initial" d="M-20 0v184h34q100 0 144 43q49 49 49 156v217h184v-217q0 -186 -92 -297q-70 -86 -229 -86h-90z" />
<glyph unicode="&#x649;" horiz-adv-x="616" arabic-form="medial" d="M-20 0v184h34q100 0 144 43q49 49 49 156v217h184v-217q0 -106 49 -156q43 -43 144 -43h55v-184h-111q-150 0 -229 86q-78 -86 -229 -86h-90z" />
<glyph unicode="&#x6cc;" horiz-adv-x="1601" arabic-form="isolated" d="M129 123q0 117 64 229h184q-66 -135 -66 -229q2 -145 166 -193q104 -27 160 -20q145 14 254 35q178 35 260 112q59 55 59 111q0 76 -125 102q-70 16 -180 62q-70 29 -125 78q-66 59 -65 172q0 150 190 223q94 37 199 37q111 0 201 -41q139 -61 168 -236h-185 q-12 59 -80 94q-35 18 -108 23q-78 4 -139 -37q-61 -37 -62 -72q0 -55 125 -98q248 -82 305 -145q78 -86 80 -174q0 -70 -43 -144q-102 -170 -444 -243q-178 -37 -297 -37q-129 0 -201 24q-295 107 -295 367z" />
<glyph unicode="&#x6cc;" horiz-adv-x="1705" arabic-form="final" d="M129 133q0 156 64 244h184q-66 -90 -66 -244q0 -114 166 -190q63 -31 246 -31q117 0 168 6q147 14 209 49q92 53 92 84q0 43 -49 55q-29 10 -60 50q-43 57 -43 118q0 66 52 125q78 92 163 109q31 6 72 6q121 0 205 -133q129 -197 160 -197h34v-184h-34q-115 0 -226 172 q-106 166 -135 166q-37 0 -51 -6q-43 -16 -43 -53q0 -47 63 -74q72 -31 76 -154q4 -100 -108 -184q-131 -96 -346 -127q-90 -12 -195 -12q-184 0 -303 41q-295 106 -295 364z" />
<glyph unicode="&#x6cc;" horiz-adv-x="569" arabic-form="initial" d="M-20 0v184h34q100 0 144 43q49 49 49 156v217h184v-217q0 -186 -92 -297q-70 -86 -229 -86h-90zM98 -299v150h150v-150h-150zM348 -299v150h149v-150h-149z" />
<glyph unicode="&#x6cc;" horiz-adv-x="616" arabic-form="medial" d="M-20 0v184h34q100 0 144 43q49 49 49 156v217h184v-217q0 -106 49 -156q43 -43 144 -43h55v-184h-111q-150 0 -229 86q-78 -86 -229 -86h-90zM98 -299v150h150v-150h-150zM348 -299v150h149v-150h-149z" />
<glyph unicode="&#xfe70;" horiz-adv-x="598" arabic-form="isolated" d="M6 1210v111l586 129v-111zM6 1450v111l586 129v-111z" />
<glyph unicode="&#xfe71;" horiz-adv-x="598" arabic-form="medial" d="M-20 0v184h641v-184h-641zM6 1210v111l586 129v-111zM6 1450v111l586 129v-111z" />
<glyph unicode="&#xfe72;" horiz-adv-x="598" arabic-form="isolated" d="M6 1518h90q0 -98 13 -123q35 -74 84 -74q57 0 116 59q41 41 60 78q-31 6 -58 21q-106 57 -106 149q0 88 67 139q29 23 93 23q72 0 112 -41q55 -55 55 -131q0 -41 -12 -78q6 0 17.5 -1t15.5 -1h39v-111q-53 0 -68 3l-53 6q-25 -59 -100 -140q-86 -86 -178 -86 q-115 0 -170 154q-17 43 -17 154zM315 1628q0 -35 45 -53q8 -4 24.5 -9l23.5 -7q2 2 4 6t2 8q8 18 8 45q0 33 -16.5 47t-37 14t-34.5 -10q-19 -12 -19 -41z" />
<glyph unicode="&#xfe74;" horiz-adv-x="598" arabic-form="isolated" d="M6 -139l586 129v-111l-586 -129v111zM6 -381l586 131v-110l-586 -129v108z" />
<glyph unicode="&#xfe76;" horiz-adv-x="598" arabic-form="isolated" d="M6 1210v111l586 129v-111z" />
<glyph unicode="&#xfe77;" horiz-adv-x="598" arabic-form="medial" d="M6 1210v111l586 129v-111zM-20 0v184h641v-184h-641z" />
<glyph unicode="&#xfe78;" horiz-adv-x="598" arabic-form="isolated" d="M6 1208v111q154 0 293 108q29 25 41 39q-12 4 -29 13q-106 55 -106 149q0 88 67 139q29 23 93 23q72 0 112 -41q55 -55 55 -131q0 -35 -14 -78q6 0 17.5 -1t17.5 -1h39v-111q-47 0 -67.5 2.5t-57.5 6.5q-41 -59 -113 -105q-198 -123 -348 -123zM315 1628q0 -35 45 -53 q8 -4 24.5 -9l23.5 -7q2 2 4 6t2 8q8 18 8 45q0 33 -16.5 47t-37 14t-34.5 -10q-19 -12 -19 -41z" />
<glyph unicode="&#xfe79;" horiz-adv-x="598" arabic-form="medial" d="M6 1208v111q154 0 293 108q29 25 41 39q-12 4 -29 13q-106 55 -106 149q0 88 67 139q29 23 93 23q72 0 112 -41q55 -55 55 -131q0 -35 -14 -78q6 0 17.5 -1t17.5 -1h39v-111q-47 0 -67.5 2.5t-57.5 6.5q-41 -59 -113 -105q-198 -123 -348 -123zM315 1628q0 -35 45 -53 q8 -4 24.5 -9l23.5 -7q2 2 4 6t2 8q8 18 8 45q0 33 -16.5 47t-37 14t-34.5 -10q-19 -12 -19 -41zM-20 0v184h641v-184h-641z" />
<glyph unicode="&#xfe7a;" horiz-adv-x="598" arabic-form="isolated" d="M6 -170l586 129v-109l-586 -131v111z" />
<glyph unicode="&#xfe7b;" horiz-adv-x="598" arabic-form="medial" d="M6 -170l586 129v-109l-586 -131v111zM-20 0v184h641v-184h-641z" />
<glyph unicode="&#xfe7c;" horiz-adv-x="598" arabic-form="isolated" d="M-12 1450q0 117 14 209h98q-12 -127 -12 -182q0 -80 27 -117q20 -27 67 -6q61 25 66 194q2 55 2 170h96q2 -25 2 -90q0 -195 90 -194q72 0 72 174q0 104 -14 172h102q12 -74 12 -189q0 -133 -26 -186q-47 -92 -127 -100q-72 -10 -103 24q-27 29 -39 82q-14 -74 -49 -115 q-59 -70 -125 -69q-82 0 -121 63q-32 51 -32 160z" />
<glyph unicode="&#xfe7d;" horiz-adv-x="598" arabic-form="medial" d="M-12 1450q0 117 14 209h98q-12 -127 -12 -182q0 -80 27 -117q20 -27 67 -6q61 25 66 194q2 55 2 170h96q2 -25 2 -90q0 -195 90 -194q72 0 72 174q0 104 -14 172h102q12 -74 12 -189q0 -133 -26 -186q-47 -92 -127 -100q-72 -10 -103 24q-27 29 -39 82q-14 -74 -49 -115 q-59 -70 -125 -69q-82 0 -121 63q-32 51 -32 160zM-20 0v184h641v-184h-641z" />
<glyph unicode="&#xfe7e;" horiz-adv-x="598" arabic-form="isolated" d="M23 1523.5q0 114.5 79.5 194.5t194.5 80t194.5 -80t79.5 -194.5t-79.5 -194.5t-194.5 -80t-194.5 80t-79.5 194.5zM145 1523.5q0 -65.5 43 -108.5t108.5 -43t109 43t43.5 109q0 63 -44 106q-45 45 -108 45q-66 0 -109 -43t-43 -108.5z" />
<glyph unicode="&#xfe7f;" horiz-adv-x="598" arabic-form="medial" d="M-20 0v184h641v-184h-641zM23 1523.5q0 114.5 79.5 194.5t194.5 80t194.5 -80t79.5 -194.5t-79.5 -194.5t-194.5 -80t-194.5 80t-79.5 194.5zM145 1523.5q0 -65.5 43 -108.5t108.5 -43t109 43t43.5 109q0 63 -44 106q-45 45 -108 45q-66 0 -109 -43t-43 -108.5z" />
<glyph unicode="&#x621;" horiz-adv-x="962" arabic-form="isolated" d="M164 86v174q33 4 129 33q82 27 121 51q-143 25 -195 100q-51 78 -51 164q0 70 20 140q31 119 134 182q94 59 196 59q117 0 201 -20v-187q-104 31 -170 29q-47 0 -100 -27q-96 -49 -97 -159q0 -115 201 -164q57 -14 115 0q72 18 131 53v-184q-82 -57 -295 -140 q-229 -88 -340 -104z" />
<glyph unicode="&#x622;" horiz-adv-x="567" arabic-form="isolated" d="M-75 1659v125l159 123q102 -80 170 -102q51 -14 97 -15q57 0 100 17q104 39 194 117v-125q-88 -63 -180 -93q-72 -23 -121 -22q-41 0 -108 16q-80 18 -146 88zM193 0v1556h184v-1556h-184z" />
<glyph unicode="&#x622;" horiz-adv-x="622" arabic-form="final" d="M193 371v1185h184v-1173q0 -106 49 -156q43 -43 143 -43h74v-184h-129q-154 0 -233 92q-88 105 -88 279zM-75 1659v125l159 123q102 -80 170 -102q51 -14 97 -15q57 0 100 17q104 39 194 117v-125q-88 -63 -180 -93q-72 -23 -121 -22q-41 0 -108 16q-80 18 -146 88z" />
<glyph unicode="&#x623;" horiz-adv-x="567" arabic-form="isolated" d="M109 1665v101l78 18q-49 25 -62 55q-14 35 -14 82q0 96 55 139q57 45 150 45q63 0 114 -32v-101q-47 33 -114 33q-66 0 -82 -16q-31 -35 -31 -60q0 -76 94 -102q34 -9 154 18v-102zM193 0v1556h184v-1556h-184z" />
<glyph unicode="&#x623;" horiz-adv-x="622" arabic-form="final" d="M193 371v1185h184v-1173q0 -106 49 -156q43 -43 143 -43h74v-184h-129q-154 0 -233 92q-88 105 -88 279zM109 1665v101l78 18q-49 25 -62 55q-14 35 -14 82q0 96 55 139q57 45 150 45q63 0 114 -32v-101q-47 33 -114 33q-66 0 -82 -16q-31 -35 -31 -60q0 -76 94 -102 q34 -9 154 18v-102z" />
<glyph unicode="&#x624;" horiz-adv-x="987" arabic-form="isolated" d="M275 763v101l78 18q-49 25 -62 55q-14 35 -14 82q0 96 55 139q57 45 150 45q63 0 114 -32v-101q-47 33 -114 33q-66 0 -82 -16q-31 -35 -31 -60q0 -76 94 -102q34 -9 154 18v-102zM-86 -315q360 0 494 75q170 96 231 242q-113 0 -164 10q-151 34 -190 68 q-115 96 -115 235q0 141 88 228q102 102 242 102q94 0 159 -49q131 -90 156 -234q16 -90 16 -178q0 -309 -172 -469q-88 -82 -188 -129q-190 -86 -557 -86v185zM362 326q0 -53 52 -99q45 -43 239 -43q0 184 -86 242q-39 27 -73 27q-63 0 -107 -58q-25 -34 -25 -69z" />
<glyph unicode="&#x624;" horiz-adv-x="1056" arabic-form="final" d="M-86 -315q362 0 494 75q170 96 231 242q-109 2 -164 10q-138 25 -190 68q-104 88 -115 223q-2 31 6 88q29 158 205 232q53 23 123 22q92 -4 155 -49q135 -94 156 -234q14 -92 16 -178h246v-184h-192h-72q-25 -156 -154 -285q-82 -82 -188 -129q-190 -86 -557 -86v185z M367 356q-18 -74 47 -129q45 -39 239 -43q0 72 -16 133q-25 78 -70 109q-61 41 -121 16q-67 -27 -79 -86zM275 763v101l78 18q-49 25 -62 55q-14 35 -14 82q0 96 55 139q57 45 150 45q63 0 114 -32v-101q-47 33 -114 33q-66 0 -82 -16q-31 -35 -31 -60q0 -76 94 -102 q34 -9 154 18v-102z" />
<glyph unicode="&#x625;" horiz-adv-x="567" arabic-form="isolated" d="M109 -502v101l78 18q-49 25 -62 55q-14 35 -14 82q0 96 55 139q57 45 150 45q63 0 114 -32v-101q-47 33 -114 33q-66 0 -82 -16q-31 -35 -31 -60q0 -76 94 -102q34 -9 154 18v-102zM193 0v1556h184v-1556h-184z" />
<glyph unicode="&#x625;" horiz-adv-x="622" arabic-form="final" d="M193 371v1185h184v-1173q0 -106 49 -156q43 -43 143 -43h74v-184h-129q-154 0 -233 92q-88 105 -88 279zM109 -502v101l78 18q-49 25 -62 55q-14 35 -14 82q0 96 55 139q57 45 150 45q63 0 114 -32v-101q-47 33 -114 33q-66 0 -82 -16q-31 -35 -31 -60q0 -76 94 -102 q34 -9 154 18v-102z" />
<glyph unicode="&#x626;" horiz-adv-x="1601" arabic-form="isolated" d="M324 763v101l78 18q-49 25 -62 55q-14 35 -14 82q0 96 55 139q57 45 150 45q63 0 114 -32v-101q-47 33 -114 33q-66 0 -82 -16q-31 -35 -31 -60q0 -76 94 -102q34 -9 154 18v-102zM129 123q0 117 64 229h184q-66 -135 -66 -229q2 -145 166 -193q104 -27 160 -20 q145 14 254 35q178 35 260 112q59 55 59 111q0 76 -125 102q-70 16 -180 62q-70 29 -125 78q-66 59 -65 172q0 150 190 223q94 37 199 37q111 0 201 -41q139 -61 168 -236h-185q-12 59 -80 94q-35 18 -108 23q-78 4 -139 -37q-61 -37 -62 -72q0 -55 125 -98 q248 -82 305 -145q78 -86 80 -174q0 -70 -43 -144q-102 -170 -444 -243q-178 -37 -297 -37q-129 0 -201 24q-295 107 -295 367z" />
<glyph unicode="&#x626;" horiz-adv-x="1705" arabic-form="final" d="M129 133q0 156 64 244h184q-66 -90 -66 -244q0 -114 166 -190q63 -31 246 -31q117 0 168 6q147 14 209 49q92 53 92 84q0 43 -49 55q-29 10 -60 50q-43 57 -43 118q0 66 52 125q78 92 163 109q31 6 72 6q121 0 205 -133q129 -197 160 -197h34v-184h-34q-115 0 -226 172 q-106 166 -135 166q-37 0 -51 -6q-43 -16 -43 -53q0 -47 63 -74q72 -31 76 -154q4 -100 -108 -184q-131 -96 -346 -127q-90 -12 -195 -12q-184 0 -303 41q-295 106 -295 364zM424 514v101l78 18q-49 25 -62 55q-14 35 -14 82q0 96 55 139q57 45 150 45q63 0 114 -32v-101 q-47 33 -114 33q-66 0 -82 -16q-31 -35 -31 -60q0 -76 94 -102q34 -9 154 18v-102z" />
<glyph unicode="&#x626;" horiz-adv-x="569" arabic-form="initial" d="M-20 0v184h34q100 0 144 43q49 49 49 156v217h184v-217q0 -186 -92 -297q-70 -86 -229 -86h-90zM123 815v101l78 18q-49 25 -62 55q-14 35 -14 82q0 96 55 139q57 45 150 45q63 0 114 -32v-101q-47 33 -114 33q-66 0 -82 -16q-31 -35 -31 -60q0 -76 94 -102q34 -9 154 18 v-102z" />
<glyph unicode="&#x626;" horiz-adv-x="616" arabic-form="medial" d="M-20 0v184h34q100 0 144 43q49 49 49 156v217h184v-217q0 -106 49 -156q43 -43 144 -43h55v-184h-111q-150 0 -229 86q-78 -86 -229 -86h-90zM123 815v101l78 18q-49 25 -62 55q-14 35 -14 82q0 96 55 139q57 45 150 45q63 0 114 -32v-101q-47 33 -114 33q-66 0 -82 -16 q-31 -35 -31 -60q0 -76 94 -102q34 -9 154 18v-102z" />
<glyph unicode="&#x627;" horiz-adv-x="567" arabic-form="isolated" d="M193 0v1556h184v-1556h-184z" />
<glyph unicode="&#x627;" horiz-adv-x="622" arabic-form="final" d="M193 371v1185h184v-1173q0 -106 49 -156q43 -43 143 -43h74v-184h-129q-154 0 -233 92q-88 105 -88 279z" />
<glyph unicode="&#x628;" horiz-adv-x="1927" arabic-form="isolated" d="M825 -350v150h150v-150h-150zM129 383q0 139 64 229h184q-66 -96 -66 -229q0 -125 203 -193q100 -33 256 -32q201 0 451 55q254 55 321 168q55 92 55 168q0 59 -24 121h182q16 -94 17 -160q0 -137 -76 -238q-127 -168 -447 -233q-291 -59 -469 -59q-182 0 -319 38 q-332 99 -332 365z" />
<glyph unicode="&#x628;" horiz-adv-x="2009" arabic-form="final" d="M129 383q0 139 64 229h184q-66 -96 -66 -229q0 -125 203 -193q100 -33 256 -32q270 4 451 55q195 57 321 168q59 53 60 172q0 59 -29 117h182q20 -82 21 -166q0 -209 69 -266q66 -53 125 -54h62v-184h-103q-115 0 -186 74q-80 83 -105 147q-150 -129 -389 -182 q-262 -59 -469 -59q-190 0 -319 38q-332 103 -332 365zM825 -350v150h150v-150h-150z" />
<glyph unicode="&#x628;" horiz-adv-x="569" arabic-form="initial" d="M-20 0v184h34q100 0 144 43q49 49 49 156v217h184v-217q0 -186 -92 -297q-70 -86 -229 -86h-90zM223 -299v150h150v-150h-150z" />
<glyph unicode="&#x628;" horiz-adv-x="616" arabic-form="medial" d="M-20 0v184h34q100 0 144 43q49 49 49 156v217h184v-217q0 -106 49 -156q43 -43 144 -43h55v-184h-111q-150 0 -229 86q-78 -86 -229 -86h-90zM223 -299v150h150v-150h-150z" />
<glyph unicode="&#x629;" horiz-adv-x="1071" arabic-form="isolated" d="M250 899v150h150v-150h-150zM500 899v150h149v-150h-149zM139 291q0 181 37 258q82 184 232 184q199 0 378 -160q141 -123 142 -272q0 -201 -148 -274q-162 -84 -297 -84q-96 0 -178 34q-166 74 -166 314zM319 274q0 -82 56 -124q61 -45 114 -46q94 0 185 58 q74 47 74 131q0 76 -66 141q-125 121 -240 121q-63 0 -98 -88q-25 -68 -25 -193z" />
<glyph unicode="&#x629;" horiz-adv-x="1097" arabic-form="final" d="M145 285q0 174 203 301q104 66 260 82l-6 82h184q0 -168 37 -342q23 -102 76 -181q31 -43 143 -43h76v-184h-131q-90 0 -162 51q-47 31 -84 90q-139 -74 -292 -73q-53 0 -115 16q-189 49 -189 201zM311 295q0 -43 92 -68q88 -25 273 56q-20 57 -29 90q-12 49 -24 151 q-117 -12 -201 -80q-113 -92 -111 -149zM350 899v150h150v-150h-150zM600 899v150h149v-150h-149z" />
<glyph unicode="&#x62a;" horiz-adv-x="1927" arabic-form="isolated" d="M700 649v150h150v-150h-150zM950 649v150h149v-150h-149zM129 383q0 139 64 229h184q-66 -96 -66 -229q0 -125 203 -193q100 -33 256 -32q201 0 451 55q254 55 321 168q55 92 55 168q0 59 -24 121h182q16 -94 17 -160q0 -137 -76 -238q-127 -168 -447 -233 q-291 -59 -469 -59q-182 0 -319 38q-332 99 -332 365z" />
<glyph unicode="&#x62a;" horiz-adv-x="2009" arabic-form="final" d="M129 383q0 139 64 229h184q-66 -96 -66 -229q0 -125 203 -193q100 -33 256 -32q270 4 451 55q195 57 321 168q59 53 60 172q0 59 -29 117h182q20 -82 21 -166q0 -209 69 -266q66 -53 125 -54h62v-184h-103q-115 0 -186 74q-80 83 -105 147q-150 -129 -389 -182 q-262 -59 -469 -59q-190 0 -319 38q-332 103 -332 365zM700 649v150h150v-150h-150zM950 649v150h149v-150h-149z" />
<glyph unicode="&#x62a;" horiz-adv-x="569" arabic-form="initial" d="M-20 0v184h34q100 0 144 43q49 49 49 156v217h184v-217q0 -186 -92 -297q-70 -86 -229 -86h-90zM98 850v150h150v-150h-150zM348 850v150h149v-150h-149z" />
<glyph unicode="&#x62a;" horiz-adv-x="616" arabic-form="medial" d="M-20 0v184h34q100 0 144 43q49 49 49 156v217h184v-217q0 -106 49 -156q43 -43 144 -43h55v-184h-111q-150 0 -229 86q-78 -86 -229 -86h-90zM98 850v150h150v-150h-150zM348 850v150h149v-150h-149z" />
<glyph unicode="&#x62b;" horiz-adv-x="1927" arabic-form="isolated" d="M700 649v150h150v-150h-150zM825 899v149h149v-149h-149zM950 649v150h149v-150h-149zM129 383q0 139 64 229h184q-66 -96 -66 -229q0 -125 203 -193q100 -33 256 -32q201 0 451 55q254 55 321 168q55 92 55 168q0 59 -24 121h182q16 -94 17 -160q0 -137 -76 -238 q-127 -168 -447 -233q-291 -59 -469 -59q-182 0 -319 38q-332 99 -332 365z" />
<glyph unicode="&#x62b;" horiz-adv-x="2009" arabic-form="final" d="M129 383q0 139 64 229h184q-66 -96 -66 -229q0 -125 203 -193q100 -33 256 -32q270 4 451 55q195 57 321 168q59 53 60 172q0 59 -29 117h182q20 -82 21 -166q0 -209 69 -266q66 -53 125 -54h62v-184h-103q-115 0 -186 74q-80 83 -105 147q-150 -129 -389 -182 q-262 -59 -469 -59q-190 0 -319 38q-332 103 -332 365zM700 649v150h150v-150h-150zM825 899v149h149v-149h-149zM950 649v150h149v-150h-149z" />
<glyph unicode="&#x62b;" horiz-adv-x="569" arabic-form="initial" d="M-20 0v184h34q100 0 144 43q49 49 49 156v217h184v-217q0 -186 -92 -297q-70 -86 -229 -86h-90zM98 850v150h150v-150h-150zM223 1100v149h149v-149h-149zM348 850v150h149v-150h-149z" />
<glyph unicode="&#x62b;" horiz-adv-x="616" arabic-form="medial" d="M-20 0v184h34q100 0 144 43q49 49 49 156v217h184v-217q0 -106 49 -156q43 -43 144 -43h55v-184h-111q-150 0 -229 86q-78 -86 -229 -86h-90zM98 850v150h150v-150h-150zM223 1100v149h149v-149h-149zM348 850v150h149v-150h-149z" />
<glyph unicode="&#x62c;" horiz-adv-x="1320" arabic-form="isolated" d="M774 25v150h150v-150h-150zM158 623v184q272 63 471 63q291 0 487 -55v-153q-295 0 -510 -166q-223 -174 -223 -437q0 -133 74 -229q129 -166 458 -166q190 0 406 119v-184q-150 -98 -401 -99q-416 0 -586 195q-131 150 -131 373q0 258 211 481q95 101 233 153 q-82 0 -260 -20q-131 -16 -229 -59z" />
<glyph unicode="&#x62c;" horiz-adv-x="1320" arabic-form="final" d="M158 623v184q268 63 465 63q295 0 493 -55v-153q-109 0 -139 -13l29 -92q51 -158 122 -254q88 -119 175 -119h38v-184h-49q-129 0 -252 150q-82 100 -143 256q-2 4 -3 8t-5 15t-11.5 28.5l-22.5 54.5l-36 86q-119 -27 -213 -102q-223 -184 -223 -437q0 -133 74 -229 q131 -166 458 -166q190 0 406 119v-184q-150 -98 -401 -99q-416 0 -586 195q-131 150 -131 373q0 258 211 481q95 101 233 153h-24q-78 0 -236 -20q-129 -18 -229 -59zM700 -49v150h150v-150h-150z" />
<glyph unicode="&#x62c;" horiz-adv-x="1265" arabic-form="initial" d="M-20 0v184h100q225 0 356 72q104 59 219 164q96 88 197 121q-164 43 -186 47q-94 20 -267 35q-82 6 -241 0v184q94 8 145 8q158 0 336 -35q258 -53 477 -149v-156q-76 -25 -164 -76q-162 -96 -239 -163q-139 -125 -221 -156q-221 -80 -383 -80h-129zM524 -299v150h150 v-150h-150z" />
<glyph unicode="&#x62c;" horiz-adv-x="1320" arabic-form="medial" d="M-20 0v184h100q225 0 356 72q104 59 219 164q96 88 197 121q-164 43 -186 47q-94 20 -267 35q-82 6 -241 0v184q94 8 145 8q158 0 336 -35q258 -53 477 -149v-156q-72 -25 -137 -59q53 -84 80 -113q104 -119 217 -119h65v-184h-86q-209 0 -333 168q-57 80 -101 151 q-68 -45 -108 -83q-139 -125 -221 -156q-221 -80 -383 -80h-129zM524 -299v150h150v-150h-150z" />
<glyph unicode="&#x62d;" horiz-adv-x="1320" arabic-form="isolated" d="M158 623v184q272 63 471 63q291 0 487 -55v-153q-295 0 -510 -166q-223 -174 -223 -437q0 -133 74 -229q129 -166 458 -166q190 0 406 119v-184q-150 -98 -401 -99q-416 0 -586 195q-131 150 -131 373q0 258 211 481q95 101 233 153q-82 0 -260 -20q-131 -16 -229 -59z " />
<glyph unicode="&#x62d;" horiz-adv-x="1320" arabic-form="final" d="M158 623v184q268 63 465 63q295 0 493 -55v-153q-109 0 -139 -13l29 -92q51 -158 122 -254q88 -119 175 -119h38v-184h-49q-129 0 -252 150q-82 100 -143 256q-2 4 -3 8t-5 15t-11.5 28.5l-22.5 54.5l-36 86q-119 -27 -213 -102q-223 -184 -223 -437q0 -133 74 -229 q131 -166 458 -166q190 0 406 119v-184q-150 -98 -401 -99q-416 0 -586 195q-131 150 -131 373q0 258 211 481q95 101 233 153h-24q-78 0 -236 -20q-129 -18 -229 -59z" />
<glyph unicode="&#x62d;" horiz-adv-x="1265" arabic-form="initial" d="M-20 0v184h100q225 0 356 72q104 59 219 164q96 88 197 121q-164 43 -186 47q-94 20 -267 35q-82 6 -241 0v184q94 8 145 8q158 0 336 -35q258 -53 477 -149v-156q-76 -25 -164 -76q-162 -96 -239 -163q-139 -125 -221 -156q-221 -80 -383 -80h-129z" />
<glyph unicode="&#x62d;" horiz-adv-x="1320" arabic-form="medial" d="M-20 0v184h100q225 0 356 72q104 59 219 164q96 88 197 121q-164 43 -186 47q-94 20 -267 35q-82 6 -241 0v184q94 8 145 8q158 0 336 -35q258 -53 477 -149v-156q-72 -25 -137 -59q53 -84 80 -113q104 -119 217 -119h65v-184h-86q-209 0 -333 168q-57 80 -101 151 q-68 -45 -108 -83q-139 -125 -221 -156q-221 -80 -383 -80h-129z" />
<glyph unicode="&#x62e;" horiz-adv-x="1320" arabic-form="isolated" d="M575 1051v150h150v-150h-150zM158 623v184q272 63 471 63q291 0 487 -55v-153q-295 0 -510 -166q-223 -174 -223 -437q0 -133 74 -229q129 -166 458 -166q190 0 406 119v-184q-150 -98 -401 -99q-416 0 -586 195q-131 150 -131 373q0 258 211 481q95 101 233 153 q-82 0 -260 -20q-131 -16 -229 -59z" />
<glyph unicode="&#x62e;" horiz-adv-x="1320" arabic-form="final" d="M158 623v184q268 63 465 63q295 0 493 -55v-153q-109 0 -139 -13l29 -92q51 -158 122 -254q88 -119 175 -119h38v-184h-49q-129 0 -252 150q-82 100 -143 256q-2 4 -3 8t-5 15t-11.5 28.5l-22.5 54.5l-36 86q-119 -27 -213 -102q-223 -184 -223 -437q0 -133 74 -229 q131 -166 458 -166q190 0 406 119v-184q-150 -98 -401 -99q-416 0 -586 195q-131 150 -131 373q0 258 211 481q95 101 233 153h-24q-78 0 -236 -20q-129 -18 -229 -59zM575 1051v150h150v-150h-150z" />
<glyph unicode="&#x62e;" horiz-adv-x="1265" arabic-form="initial" d="M-20 0v184h100q225 0 356 72q104 59 219 164q96 88 197 121q-164 43 -186 47q-94 20 -267 35q-82 6 -241 0v184q94 8 145 8q158 0 336 -35q258 -53 477 -149v-156q-76 -25 -164 -76q-162 -96 -239 -163q-139 -125 -221 -156q-221 -80 -383 -80h-129zM524 950v150h150 v-150h-150z" />
<glyph unicode="&#x62e;" horiz-adv-x="1320" arabic-form="medial" d="M-20 0v184h100q225 0 356 72q104 59 219 164q96 88 197 121q-164 43 -186 47q-94 20 -267 35q-82 6 -241 0v184q94 8 145 8q158 0 336 -35q258 -53 477 -149v-156q-72 -25 -137 -59q53 -84 80 -113q104 -119 217 -119h65v-184h-86q-209 0 -333 168q-57 80 -101 151 q-68 -45 -108 -83q-139 -125 -221 -156q-221 -80 -383 -80h-129zM524 950v150h150v-150h-150z" />
<glyph unicode="&#x62f;" horiz-adv-x="911" arabic-form="isolated" d="M125 0v184q113 -43 199 -43q31 0 67 11q174 49 207 159q8 25 8 70q0 82 -59 194q-59 121 -240 275h228q114 -92 178 -215q82 -150 82 -256q0 -100 -31 -174q-80 -195 -342 -236q-61 -8 -92 -8q-94 0 -205 39z" />
<glyph unicode="&#x62f;" horiz-adv-x="1073" arabic-form="final" d="M125 0v184q113 -43 199 -43q31 0 67 11q174 49 207 159q8 25 8 70q0 74 -59 194q-57 119 -240 275h228q92 -72 178 -215q82 -139 82 -250q0 -76 82 -158q43 -43 143 -43h76v-184h-131q-145 0 -244 129q-90 -125 -299 -160q-61 -8 -92 -8q-94 0 -205 39z" />
<glyph unicode="&#x630;" horiz-adv-x="911" arabic-form="isolated" d="M326 1051v150h150v-150h-150zM125 0v184q113 -43 199 -43q31 0 67 11q174 49 207 159q8 25 8 70q0 82 -59 194q-59 121 -240 275h228q114 -92 178 -215q82 -150 82 -256q0 -100 -31 -174q-80 -195 -342 -236q-61 -8 -92 -8q-94 0 -205 39z" />
<glyph unicode="&#x630;" horiz-adv-x="1073" arabic-form="final" d="M125 0v184q113 -43 199 -43q31 0 67 11q174 49 207 159q8 25 8 70q0 74 -59 194q-57 119 -240 275h228q92 -72 178 -215q82 -139 82 -250q0 -76 82 -158q43 -43 143 -43h76v-184h-131q-145 0 -244 129q-90 -125 -299 -160q-61 -8 -92 -8q-94 0 -205 39zM326 1051v150h150 v-150h-150z" />
<glyph unicode="&#x631;" horiz-adv-x="987" arabic-form="isolated" d="M-86 -315q309 0 508 127q221 139 254 346q8 51 8 131q0 129 -51 262h182q51 -121 51 -252q0 -88 -8 -143q-46 -350 -338 -504q-285 -152 -606 -152v185z" />
<glyph unicode="&#x631;" horiz-adv-x="1128" arabic-form="final" d="M-86 -315q309 0 508 127q221 139 254 346q8 51 8 131q0 129 -51 262h182q33 -115 35 -143q10 -104 82 -181q43 -43 143 -43h76v-184h-131q-131 0 -180 61q-68 -279 -320 -409q-285 -152 -606 -152v185z" />
<glyph unicode="&#x632;" horiz-adv-x="987" arabic-form="isolated" d="M625 801v150h150v-150h-150zM-86 -315q309 0 508 127q221 139 254 346q8 51 8 131q0 129 -51 262h182q51 -121 51 -252q0 -88 -8 -143q-46 -350 -338 -504q-285 -152 -606 -152v185z" />
<glyph unicode="&#x632;" horiz-adv-x="1128" arabic-form="final" d="M-86 -315q309 0 508 127q221 139 254 346q8 51 8 131q0 129 -51 262h182q33 -115 35 -143q10 -104 82 -181q43 -43 143 -43h76v-184h-131q-131 0 -180 61q-68 -279 -320 -409q-285 -152 -606 -152v185zM625 801v150h150v-150h-150z" />
<glyph unicode="&#x633;" horiz-adv-x="2498" arabic-form="isolated" d="M129 -72q0 242 107 426h184q-109 -207 -109 -426q0 -180 150 -217q96 -25 176 -24q96 0 192 37q119 49 215 206q63 106 64 250q0 113 -18 187l-64 233h184l35 -156q14 -66 45 -135q57 -129 174 -129q82 0 125 123q37 104 37 297h184q0 -201 21 -256q63 -168 174 -168 q141 0 141 281v293h185v-342q0 -199 -93 -312q-74 -92 -178 -116q-33 -8 -67 -9q-72 0 -121 25q-137 70 -156 192q-49 -158 -143 -188q-49 -14 -121 -18q-133 -6 -176 61q-25 -176 -109 -285q-133 -170 -325 -231q-86 -27 -201 -27q-125 0 -235 29q-277 70 -277 399z" />
<glyph unicode="&#x633;" horiz-adv-x="2609" arabic-form="final" d="M129 -72q0 242 107 426h184q-109 -207 -109 -426q0 -180 150 -217q96 -25 176 -24q96 0 192 37q119 49 215 206q63 106 64 250q0 113 -18 187l-64 233h184l35 -156q14 -66 45 -135q59 -127 174 -129q74 -2 125 123q37 94 37 297h184q0 -201 21 -256q63 -168 174 -168 q141 0 141 281v293h185v-342q0 -98 82 -181q43 -43 143 -43h76v-184h-131q-143 0 -263 96q-68 -92 -178 -116q-33 -8 -67 -9q-72 0 -121 25q-137 70 -156 192q-49 -158 -143 -188q-66 -23 -121 -18q-137 2 -176 61q-25 -176 -109 -285q-133 -170 -325 -231q-86 -27 -201 -27 q-125 0 -235 29q-277 70 -277 399z" />
<glyph unicode="&#x633;" arabic-form="initial" d="M-20 0v184h75q100 0 144 43q80 80 80 181v192h184v-156q0 -63 43 -163.5t147 -100.5q111 0 154 123q37 104 37 297h182q0 -201 21 -256q63 -168 174 -168q141 4 141 281v293h184v-342q0 -199 -92 -312q-74 -92 -176 -116q-33 -8 -74 -9q-61 0 -117 25q-137 61 -155 192 q-49 -156 -144 -188q-68 -25 -133 -25q-98 0 -170 50q-61 39 -100 112q-41 -55 -100 -92q-76 -45 -174 -45h-131z" />
<glyph unicode="&#x633;" horiz-adv-x="1826" arabic-form="medial" d="M-20 0v184h75q100 0 144 43q80 80 80 181v192h184v-156q0 -63 43 -163.5t147 -100.5q111 0 154 123q37 104 37 297h182q0 -201 21 -256q63 -168 174 -168q141 4 141 281v293h184v-342q0 -98 82 -181q43 -43 144 -43h75v-184h-131q-143 0 -262 96q-70 -92 -176 -116 q-33 -8 -74 -9q-61 0 -117 25q-137 61 -155 192q-49 -156 -144 -188q-68 -25 -133 -25q-98 0 -170 50q-61 39 -100 112q-41 -55 -100 -92q-76 -45 -174 -45h-131z" />
<glyph unicode="&#x634;" horiz-adv-x="2498" arabic-form="isolated" d="M1249 801v150h150v-150h-150zM1374 1051v149h149v-149h-149zM1499 801v150h149v-150h-149zM129 -72q0 242 107 426h184q-109 -207 -109 -426q0 -180 150 -217q96 -25 176 -24q96 0 192 37q119 49 215 206q63 106 64 250q0 113 -18 187l-64 233h184l35 -156 q14 -66 45 -135q57 -129 174 -129q82 0 125 123q37 104 37 297h184q0 -201 21 -256q63 -168 174 -168q141 0 141 281v293h185v-342q0 -199 -93 -312q-74 -92 -178 -116q-33 -8 -67 -9q-72 0 -121 25q-137 70 -156 192q-49 -158 -143 -188q-49 -14 -121 -18q-133 -6 -176 61 q-25 -176 -109 -285q-133 -170 -325 -231q-86 -27 -201 -27q-125 0 -235 29q-277 70 -277 399z" />
<glyph unicode="&#x634;" horiz-adv-x="2609" arabic-form="final" d="M129 -72q0 242 107 426h184q-109 -207 -109 -426q0 -180 150 -217q96 -25 176 -24q96 0 192 37q119 49 215 206q63 106 64 250q0 113 -18 187l-64 233h184l35 -156q14 -66 45 -135q59 -127 174 -129q74 -2 125 123q37 94 37 297h184q0 -201 21 -256q63 -168 174 -168 q141 0 141 281v293h185v-342q0 -98 82 -181q43 -43 143 -43h76v-184h-131q-143 0 -263 96q-68 -92 -178 -116q-33 -8 -67 -9q-72 0 -121 25q-137 70 -156 192q-49 -158 -143 -188q-66 -23 -121 -18q-137 2 -176 61q-25 -176 -109 -285q-133 -170 -325 -231q-86 -27 -201 -27 q-125 0 -235 29q-277 70 -277 399zM1249 801v150h150v-150h-150zM1374 1051v149h149v-149h-149zM1499 801v150h149v-150h-149z" />
<glyph unicode="&#x634;" arabic-form="initial" d="M-20 0v184h75q100 0 144 43q80 80 80 181v192h184v-156q0 -63 43 -163.5t147 -100.5q111 0 154 123q37 104 37 297h182q0 -201 21 -256q63 -168 174 -168q141 4 141 281v293h184v-342q0 -199 -92 -312q-74 -92 -176 -116q-33 -8 -74 -9q-61 0 -117 25q-137 61 -155 192 q-49 -156 -144 -188q-68 -25 -133 -25q-98 0 -170 50q-61 39 -100 112q-41 -55 -100 -92q-76 -45 -174 -45h-131zM649 801v150h150v-150h-150zM774 1051v149h149v-149h-149zM899 801v150h149v-150h-149z" />
<glyph unicode="&#x634;" horiz-adv-x="1826" arabic-form="medial" d="M-20 0v184h75q100 0 144 43q80 80 80 181v192h184v-156q0 -63 43 -163.5t147 -100.5q111 0 154 123q37 104 37 297h182q0 -201 21 -256q63 -168 174 -168q141 4 141 281v293h184v-342q0 -98 82 -181q43 -43 144 -43h75v-184h-131q-143 0 -262 96q-70 -92 -176 -116 q-33 -8 -74 -9q-61 0 -117 25q-137 61 -155 192q-49 -156 -144 -188q-68 -25 -133 -25q-98 0 -170 50q-61 39 -100 112q-41 -55 -100 -92q-76 -45 -174 -45h-131zM649 801v150h150v-150h-150zM774 1051v149h149v-149h-149zM899 801v150h149v-150h-149z" />
<glyph unicode="&#x635;" horiz-adv-x="2473" arabic-form="isolated" d="M129 -72q0 242 107 426h184q-109 -207 -109 -426q0 -180 150 -217q96 -25 176 -24q100 0 192 37q162 68 205 206q33 104 33 236q0 150 -39 285h170q0 -18 14 -70q10 -41 50 -90q109 141 237 254q121 106 256 164q78 33 160 32q125 -2 221 -39q186 -70 186 -305 q0 -169 -184 -276q-205 -121 -485 -121h-277q-37 0 -90 31q-45 25 -45 41q0 -184 -74 -314q-90 -156 -325 -231q-86 -27 -201 -27q-125 0 -235 29q-277 70 -277 399zM1401 184h186q240 0 367 64q184 90 184 160q-4 135 -137 153q-37 6 -86 6q-74 0 -203 -82 q-166 -104 -311 -301z" />
<glyph unicode="&#x635;" horiz-adv-x="2508" arabic-form="final" d="M129 -72q0 242 107 426h184q-109 -207 -109 -426q0 -180 150 -217q96 -25 176 -24q100 0 192 37q162 68 205 206q33 104 33 236q0 150 -39 285h170q0 -18 14 -70q10 -41 50 -90q109 141 237 254q100 90 256 164q68 33 160 32q125 -2 221 -39q186 -70 186 -305 q0 -78 -41 -145q4 -4 14.5 -12.5t14.5 -12.5q61 -43 144 -43h75v-184h-131q-129 0 -233 92l-29 27q-207 -119 -483 -119h-277q-37 0 -90 31q-45 25 -45 41q0 -184 -74 -314q-90 -156 -325 -231q-86 -27 -201 -27q-125 0 -235 29q-277 70 -277 399zM1401 184h186 q240 0 367 64q184 90 184 160q-4 135 -137 153q-37 6 -86 6q-74 0 -203 -82q-166 -104 -311 -301z" />
<glyph unicode="&#x635;" horiz-adv-x="1738" arabic-form="initial" d="M-20 0v184h75q100 0 144 43q80 80 80 181v114h184v-78q0 -29 8 -63q10 -45 53 -90q98 133 197 217q150 135 297 201q72 33 160 32q119 0 223 -39q184 -66 184 -305q0 -170 -182 -276q-205 -121 -488 -121h-276q-74 0 -152 43q-61 33 -102 94q-100 -137 -274 -137h-131z M664 184h186q240 0 367 64q186 92 186 160q0 135 -139 153q-37 6 -86 6q-72 0 -201 -82q-169 -107 -313 -301z" />
<glyph unicode="&#x635;" horiz-adv-x="1775" arabic-form="medial" d="M-20 0v184h75q100 0 144 43q80 80 80 181v114h184v-78q0 -29 8 -63q10 -45 53 -90q98 133 197 217q150 135 297 201q72 33 160 32q119 0 223 -39q188 -68 188 -305q0 -78 -41 -145l31 -25q61 -43 141 -43h76v-184h-131q-129 0 -233 92l-27 27q-207 -119 -485 -119h-281 q-74 0 -152 43q-61 33 -102 94q-100 -137 -274 -137h-131zM664 184h186q240 0 367 64q186 92 186 160q0 135 -139 153q-37 6 -86 6q-72 0 -201 -82q-169 -107 -313 -301z" />
<glyph unicode="&#x636;" horiz-adv-x="2473" arabic-form="isolated" d="M1276 801v150h150v-150h-150zM129 -72q0 242 107 426h184q-109 -207 -109 -426q0 -180 150 -217q96 -25 176 -24q100 0 192 37q162 68 205 206q33 104 33 236q0 150 -39 285h170q0 -18 14 -70q10 -41 50 -90q109 141 237 254q121 106 256 164q78 33 160 32 q125 -2 221 -39q186 -70 186 -305q0 -169 -184 -276q-205 -121 -485 -121h-277q-37 0 -90 31q-45 25 -45 41q0 -184 -74 -314q-90 -156 -325 -231q-86 -27 -201 -27q-125 0 -235 29q-277 70 -277 399zM1401 184h186q240 0 367 64q184 90 184 160q-4 135 -137 153 q-37 6 -86 6q-74 0 -203 -82q-166 -104 -311 -301z" />
<glyph unicode="&#x636;" horiz-adv-x="2508" arabic-form="final" d="M129 -72q0 242 107 426h184q-109 -207 -109 -426q0 -180 150 -217q96 -25 176 -24q100 0 192 37q162 68 205 206q33 104 33 236q0 150 -39 285h170q0 -18 14 -70q10 -41 50 -90q109 141 237 254q100 90 256 164q68 33 160 32q125 -2 221 -39q186 -70 186 -305 q0 -78 -41 -145q4 -4 14.5 -12.5t14.5 -12.5q61 -43 144 -43h75v-184h-131q-129 0 -233 92l-29 27q-207 -119 -483 -119h-277q-37 0 -90 31q-45 25 -45 41q0 -184 -74 -314q-90 -156 -325 -231q-86 -27 -201 -27q-125 0 -235 29q-277 70 -277 399zM1401 184h186 q240 0 367 64q184 90 184 160q-4 135 -137 153q-37 6 -86 6q-74 0 -203 -82q-166 -104 -311 -301zM1276 801v150h150v-150h-150z" />
<glyph unicode="&#x636;" horiz-adv-x="1738" arabic-form="initial" d="M-20 0v184h75q100 0 144 43q80 80 80 181v114h184v-78q0 -29 8 -63q10 -45 53 -90q98 133 197 217q150 135 297 201q72 33 160 32q119 0 223 -39q184 -66 184 -305q0 -170 -182 -276q-205 -121 -488 -121h-276q-74 0 -152 43q-61 33 -102 94q-100 -137 -274 -137h-131z M664 184h186q240 0 367 64q186 92 186 160q0 135 -139 153q-37 6 -86 6q-72 0 -201 -82q-169 -107 -313 -301zM475 801v150h150v-150h-150z" />
<glyph unicode="&#x636;" horiz-adv-x="1775" arabic-form="medial" d="M-20 0v184h75q100 0 144 43q80 80 80 181v114h184v-78q0 -29 8 -63q10 -45 53 -90q98 133 197 217q150 135 297 201q72 33 160 32q119 0 223 -39q188 -68 188 -305q0 -78 -41 -145l31 -25q61 -43 141 -43h76v-184h-131q-129 0 -233 92l-27 27q-207 -119 -485 -119h-281 q-74 0 -152 43q-61 33 -102 94q-100 -137 -274 -137h-131zM664 184h186q240 0 367 64q186 92 186 160q0 135 -139 153q-37 6 -86 6q-72 0 -201 -82q-169 -107 -313 -301zM475 801v150h150v-150h-150z" />
<glyph unicode="&#x637;" horiz-adv-x="1892" arabic-form="isolated" d="M143 0v184h369v1372h182v-1265q219 319 494 418q90 33 160 32q125 0 223 -39q184 -66 184 -305q0 -170 -182 -276q-205 -121 -488 -121h-573h-369zM834 184h186q240 0 366 64q186 92 187 160q-4 135 -139 153q-37 6 -86 6q-74 0 -201 -82q-178 -120 -313 -301z" />
<glyph unicode="&#x637;" horiz-adv-x="1943" arabic-form="final" d="M143 0v184h369v1372h182v-1265q219 319 494 418q90 33 160 32q121 0 223 -39q186 -68 186 -305q0 -78 -41 -145l31 -25q61 -43 141 -43h76v-184h-129q-131 0 -236 92l-26 27q-207 -119 -486 -119h-575h-369zM834 184h186q240 0 366 64q186 92 187 160q-4 135 -139 153 q-37 6 -86 6q-74 0 -201 -82q-178 -120 -313 -301z" />
<glyph unicode="&#x637;" horiz-adv-x="1628" arabic-form="initial" d="M-20 0v184h268v1372h182v-1265q219 319 494 418q90 33 159 32q121 0 224 -39q186 -68 186 -305q0 -169 -184 -276q-205 -121 -488 -121h-573h-268zM569 184h187q240 0 366 64q186 92 187 160q-4 135 -140 153q-37 6 -86 6q-74 0 -200 -82q-179 -120 -314 -301z" />
<glyph unicode="&#x637;" horiz-adv-x="1679" arabic-form="medial" d="M-20 0v184h268v1372h182v-1265q219 319 494 418q90 33 159 32q121 0 224 -39q186 -68 186 -305q0 -78 -41 -145l31 -25q61 -43 141 -43h76v-184h-129q-131 0 -236 92l-26 27q-207 -119 -486 -119h-575h-268zM569 184h187q240 0 366 64q186 92 187 160q-4 135 -140 153 q-37 6 -86 6q-74 0 -200 -82q-179 -120 -314 -301z" />
<glyph unicode="&#x638;" horiz-adv-x="1892" arabic-form="isolated" d="M975 850v150h150v-150h-150zM143 0v184h369v1372h182v-1265q219 319 494 418q90 33 160 32q125 0 223 -39q184 -66 184 -305q0 -170 -182 -276q-205 -121 -488 -121h-573h-369zM834 184h186q240 0 366 64q186 92 187 160q-4 135 -139 153q-37 6 -86 6q-74 0 -201 -82 q-178 -120 -313 -301z" />
<glyph unicode="&#x638;" horiz-adv-x="1943" arabic-form="final" d="M143 0v184h369v1372h182v-1265q219 319 494 418q90 33 160 32q121 0 223 -39q186 -68 186 -305q0 -78 -41 -145l31 -25q61 -43 141 -43h76v-184h-129q-131 0 -236 92l-26 27q-207 -119 -486 -119h-575h-369zM834 184h186q240 0 366 64q186 92 187 160q-4 135 -139 153 q-37 6 -86 6q-74 0 -201 -82q-178 -120 -313 -301zM975 850v150h150v-150h-150z" />
<glyph unicode="&#x638;" horiz-adv-x="1628" arabic-form="initial" d="M-20 0v184h268v1372h182v-1265q219 319 494 418q90 33 159 32q121 0 224 -39q186 -68 186 -305q0 -169 -184 -276q-205 -121 -488 -121h-573h-268zM569 184h187q240 0 366 64q186 92 187 160q-4 135 -140 153q-37 6 -86 6q-74 0 -200 -82q-179 -120 -314 -301zM711 850 v150h150v-150h-150z" />
<glyph unicode="&#x638;" horiz-adv-x="1679" arabic-form="medial" d="M-20 0v184h268v1372h182v-1265q219 319 494 418q90 33 159 32q121 0 224 -39q186 -68 186 -305q0 -78 -41 -145l31 -25q61 -43 141 -43h76v-184h-129q-131 0 -236 92l-26 27q-207 -119 -486 -119h-575h-268zM569 184h187q240 0 366 64q186 92 187 160q-4 135 -140 153 q-37 6 -86 6q-74 0 -200 -82q-179 -120 -314 -301zM711 850v150h150v-150h-150z" />
<glyph unicode="&#x639;" horiz-adv-x="1220" arabic-form="isolated" d="M117 0q0 174 88 279q113 131 188 155q-49 2 -96 35q-88 55 -88 184q0 211 203 336q125 78 376 78v-170q-193 0 -311 -66q-92 -53 -92 -155q0 -78 47 -101q43 -23 90 -22.5t82 16.5q166 72 412 99v-185q-272 -25 -508 -174q-209 -133 -209 -315q0 -117 41 -170 q123 -160 457 -160q190 0 405 119v-184q-151 -98 -399 -99q-422 0 -588 189q-98 110 -98 311z" />
<glyph unicode="&#x639;" horiz-adv-x="1089" arabic-form="final" d="M117 10q0 201 186 342q-59 47 -94 109q-35 59 -35 98q0 111 125 174q98 49 217 49t213 -49q127 -66 127 -176q0 -92 -90 -158q-59 -45 -152 -73q63 -61 160 -103q90 -39 176 -39h160v-184h-143q-266 0 -514 227q-154 -129 -154 -235q0 -104 41 -168q111 -160 457 -160 q190 0 405 119v-184q-150 -98 -409 -99q-420 0 -578 189q-98 122 -98 321zM414 547q0 -39 69 -103q135 55 135 104.5t-102 49.5t-102 -51z" />
<glyph unicode="&#x639;" horiz-adv-x="1220" arabic-form="initial" d="M-20 0v184h79q162 0 365 92q-74 25 -127 84q-88 100 -88 240q0 264 203 389q127 78 376 78v-170q-219 0 -311 -67.5t-92 -196.5t61 -180q82 -70 152 -70q57 0 129 33l289 129v-185l-420 -196q-352 -164 -528 -164h-88z" />
<glyph unicode="&#x639;" horiz-adv-x="987" arabic-form="medial" d="M-20 0v184h96q111 0 174 39q61 39 98 76q-100 88 -166 174q-29 37 -28 84q0 33 12 74q14 53 121 106q88 45 207 45q121 0 208 -45q104 -51 119 -106q14 -47 15 -74q0 -45 -31 -84q-74 -94 -166 -174q33 -33 100 -76q59 -39 172 -39h97v-184h-117q-203 0 -397 184 q-195 -184 -396 -184h-118zM391 547q0 -31 103 -125q104 94 104 125t-47 43q-41 8 -57 8q-14 0 -56 -8q-47 -12 -47 -43z" />
<glyph unicode="&#x63a;" horiz-adv-x="1220" arabic-form="isolated" d="M375 1200v150h150v-150h-150zM117 0q0 174 88 279q113 131 188 155q-49 2 -96 35q-88 55 -88 184q0 211 203 336q125 78 376 78v-170q-193 0 -311 -66q-92 -53 -92 -155q0 -78 47 -101q43 -23 90 -22.5t82 16.5q166 72 412 99v-185q-272 -25 -508 -174 q-209 -133 -209 -315q0 -117 41 -170q123 -160 457 -160q190 0 405 119v-184q-151 -98 -399 -99q-422 0 -588 189q-98 110 -98 311z" />
<glyph unicode="&#x63a;" horiz-adv-x="1089" arabic-form="final" d="M117 10q0 201 186 342q-59 47 -94 109q-35 59 -35 98q0 111 125 174q98 49 217 49t213 -49q127 -66 127 -176q0 -92 -90 -158q-59 -45 -152 -73q63 -61 160 -103q90 -39 176 -39h160v-184h-143q-266 0 -514 227q-154 -129 -154 -235q0 -104 41 -168q111 -160 457 -160 q190 0 405 119v-184q-150 -98 -409 -99q-420 0 -578 189q-98 122 -98 321zM414 547q0 -39 69 -103q135 55 135 104.5t-102 49.5t-102 -51zM426 950v150h150v-150h-150z" />
<glyph unicode="&#x63a;" horiz-adv-x="1069" arabic-form="initial" d="M-20 0v184h79q162 0 365 92q-74 25 -127 84q-88 100 -88 240q0 264 203 389q127 78 376 78v-170q-219 0 -311 -67.5t-92 -196.5t61 -180q82 -70 152 -70q57 0 129 33l289 129v-185l-420 -196q-352 -164 -528 -164h-88zM375 1200v150h150v-150h-150z" />
<glyph unicode="&#x63a;" horiz-adv-x="987" arabic-form="medial" d="M-20 0v184h96q111 0 174 39q61 39 98 76q-100 88 -166 174q-29 37 -28 84q0 33 12 74q14 53 121 106q88 45 207 45q121 0 208 -45q104 -51 119 -106q14 -47 15 -74q0 -45 -31 -84q-74 -94 -166 -174q33 -33 100 -76q59 -39 172 -39h97v-184h-117q-203 0 -397 184 q-195 -184 -396 -184h-118zM391 547q0 -31 103 -125q104 94 104 125t-47 43q-41 8 -57 8q-14 0 -56 -8q-47 -12 -47 -43zM420 950v150h150v-150h-150z" />
<glyph unicode="&#x641;" horiz-adv-x="2121" arabic-form="isolated" d="M1526 1151v150h150v-150h-150zM129 313q0 141 64 232h184q-66 -96 -66 -232q0 -113 203 -190q92 -35 371 -35q326 0 530 57q213 57 316 166q33 35 55 117q-66 -76 -187 -76q-133 0 -206 68q-98 86 -99 217q0 55 9 94q23 150 172 217q77 37 153 37q92 0 158 -49 q94 -70 141 -174q23 -51 23 -193q-4 -227 -78 -350q-109 -178 -426 -250q-274 -61 -561 -61q-291 0 -424 41q-332 102 -332 364zM1485 655q0 -82 53 -116q43 -27 84 -27q70 0 94 25q41 45 41 120q0 57 -65 111q-29 23 -74 23q-52 0 -92 -43q-41 -42 -41 -93z" />
<glyph unicode="&#x641;" horiz-adv-x="2119" arabic-form="final" d="M129 313q0 141 64 232h184q-66 -96 -66 -232q0 -114 203 -190q86 -33 381 -33q231 0 516 55l29 5q-39 33 -64 69q-82 121 -82 246q0 18 4 67q23 156 211 230q61 23 111 22q82 0 162 -49q137 -82 155 -233q4 -49 5 -68q0 -143 -80 -250h16h262v-184h-268q-104 0 -215 37 q-104 -43 -215 -68q-270 -59 -551 -59q-307 0 -430 39q-332 104 -332 364zM1483 461q0 -57 41 -123q49 -78 133 -115q102 63 102 187q0 29 -4 47q-16 72 -65 110q-34 25 -74 25q-23 0 -47 -10q-61 -25 -80 -84q-6 -19 -6 -37zM1526 950v150h150v-150h-150z" />
<glyph unicode="&#x641;" horiz-adv-x="978" arabic-form="initial" d="M-20 0v184h241q78 0 236 23q78 12 139 104q29 45 45 99q-63 -55 -160 -58q-129 -2 -209 68q-98 86 -98 217q0 55 8 94q23 150 174 217q77 37 154 37q92 0 156 -49q96 -72 143 -174q23 -55 22 -193q0 -205 -77 -350q-74 -137 -199 -180q-104 -39 -254 -39h-321zM365 655 q0 -80 55 -116q43 -27 82 -27q72 0 96 25q41 45 41 120q0 57 -66 111q-29 23 -75 23q-52 0 -92 -43q-41 -42 -41 -93zM426 1151v150h150v-150h-150z" />
<glyph unicode="&#x641;" horiz-adv-x="1034" arabic-form="medial" d="M-20 0v184h126q152 0 187 17q-31 45 -66 116q-20 43 -20 123q0 49 8 92q20 141 209 230q29 14 94.5 14t95.5 -14q182 -80 207 -230q8 -43 8 -92q0 -76 -20 -123q-27 -66 -66 -116q35 -16 187 -17h127v-184h-217q-141 0 -322 57q-180 -57 -321 -57h-217zM395 446 q0 -45 25 -96q31 -70 98 -90q59 20 98 90q25 49 25 96q0 31 -10 52q-20 49 -80 84q-20 10 -32.5 10t-33.5 -10q-55 -31 -79 -84q-11 -25 -11 -52zM442 999v150h150v-150h-150z" />
<glyph unicode="&#x642;" horiz-adv-x="1587" arabic-form="isolated" d="M850 1151v150h150v-150h-150zM1100 1151v150h149v-150h-149zM106 37q0 182 82 395h185q-84 -182 -88 -340q0 -70 10 -112q51 -229 233 -230q233 0 402 117q330 233 330 561q-66 -76 -185 -76q-135 0 -209 68q-98 86 -98 217q0 55 8 94q23 150 174 217q77 37 154 37 q96 0 156 -49q102 -88 143 -211q33 -98 33 -260q0 -203 -62 -344q-94 -215 -334 -404q-203 -158 -512 -157q-211 0 -344 192q-78 113 -78 285zM958 655q0 -80 56 -116q43 -27 82 -27q72 0 96 25q41 45 41 120q0 57 -66 111q-29 23 -75 23q-52 0 -93 -43q-41 -42 -41 -93z " />
<glyph unicode="&#x642;" horiz-adv-x="1705" arabic-form="final" d="M106 -45q0 164 64 262h182q-61 -106 -61 -262q0 -78 26 -133q61 -131 322 -131q139 0 291 67q215 100 278 252q-68 6 -112 19q-117 33 -178 77q-147 106 -148 293q0 63 6 88q39 166 189 234q39 18 127 18q113 0 168 -49q100 -92 149 -233q20 -55 27 -273h28h265v-184 h-269h-49q-47 -127 -104 -193q-131 -147 -287 -223q-170 -84 -381 -84q-369 2 -463 193q-70 143 -70 262zM956 397q0 -61 58 -104q78 -59 176 -80q18 -4 38.5 -7t22.5 -3q3 123 -18 209q-18 76 -66 110q-34 25 -73 25q-31 0 -56 -10q-51 -27 -71 -84q-11 -36 -11 -56z M899 874v150h150v-150h-150zM1149 874v150h149v-150h-149z" />
<glyph unicode="&#x642;" horiz-adv-x="978" arabic-form="initial" d="M-20 0v184h241q78 0 236 23q78 12 139 104q29 45 45 99q-63 -55 -160 -58q-129 -2 -209 68q-98 86 -98 217q0 55 8 94q23 150 174 217q77 37 154 37q92 0 156 -49q96 -72 143 -174q23 -55 22 -193q0 -205 -77 -350q-74 -137 -199 -180q-104 -39 -254 -39h-321zM365 655 q0 -80 55 -116q43 -27 82 -27q72 0 96 25q41 45 41 120q0 57 -66 111q-29 23 -75 23q-52 0 -92 -43q-41 -42 -41 -93zM299 1151v150h150v-150h-150zM549 1151v150h149v-150h-149z" />
<glyph unicode="&#x642;" horiz-adv-x="1034" arabic-form="medial" d="M-20 0v184h126q152 0 187 17q-31 45 -66 116q-20 43 -20 123q0 49 8 92q20 141 209 230q29 14 94.5 14t95.5 -14q182 -80 207 -230q8 -43 8 -92q0 -76 -20 -123q-27 -66 -66 -116q35 -16 187 -17h127v-184h-217q-141 0 -322 57q-180 -57 -321 -57h-217zM395 446 q0 -45 25 -96q31 -70 98 -90q59 20 98 90q25 49 25 96q0 31 -10 52q-20 49 -80 84q-20 10 -32.5 10t-33.5 -10q-55 -31 -79 -84q-11 -25 -11 -52zM311 999v150h150v-150h-150zM561 999v150h149v-150h-149z" />
<glyph unicode="&#x643;" horiz-adv-x="1687" arabic-form="isolated" d="M143 260q0 72 17 127h184q-14 -55 -14 -100q4 -94 162 -140q123 -35 247 -34q143 0 230 26q152 47 250 142q76 74 75 329v946h185v-946q0 -326 -111 -448q-154 -168 -369 -199q-135 -18 -254 -18q-211 4 -309 32q-293 90 -293 283zM610 616v89q76 -10 113 -11 q53 0 117 27q59 25 59 55q0 37 -78 55q-72 14 -92 46q-31 46 -31 92q4 82 78 118q88 45 201 48v-82q-76 -4 -113 -19q-80 -31 -80 -61.5t15 -46.5q14 -18 80 -27q102 -16 102 -102q0 -109 -88 -152q-80 -39 -162 -39q-76 0 -121 10z" />
<glyph unicode="&#x643;" horiz-adv-x="1724" arabic-form="final" d="M143 260q0 72 17 127h184q-14 -55 -14 -100q4 -94 162 -140q123 -35 247 -34q143 0 230 26q152 47 250 142q76 74 75 329v946h185v-1173q0 -106 49 -156q43 -43 143 -43h76v-184h-131q-154 0 -266 123q-157 -126 -351 -160q-109 -23 -254 -18q-211 4 -309 32 q-293 90 -293 283zM610 616v89q76 -10 113 -11q53 0 117 27q59 25 59 55q0 37 -78 55q-72 14 -92 46q-31 46 -31 92q4 82 78 118q88 45 201 48v-82q-76 -4 -113 -19q-80 -31 -80 -61.5t15 -46.5q14 -18 80 -27q102 -16 102 -102q0 -109 -88 -152q-80 -39 -162 -39 q-76 0 -121 10z" />
<glyph unicode="&#x643;" horiz-adv-x="974" arabic-form="initial" d="M-20 0v184h311q147 0 192 105q16 39 17 71q0 70 -56 136l-309 378q-49 61 -49 144q0 37 8 67q31 117 135 160l746 311v-186l-594 -250q-72 -31 -92 -69q-6 -12 -6 -37q0 -33 30 -70l275 -330q102 -125 102 -245q0 -111 -61 -213q-96 -156 -320 -156h-329z" />
<glyph unicode="&#x643;" horiz-adv-x="1130" arabic-form="medial" d="M-20 0v184h311q147 0 192 105q16 39 17 71q0 70 -56 136l-309 378q-49 61 -49 144q0 37 8 67q31 117 135 160l746 311v-186l-594 -250q-72 -31 -92 -69q-6 -12 -6 -37q0 -33 30 -70l584 -704q20 -23 59 -39q45 -16 107 -17h88v-184h-131q-65 0 -123 25q-102 41 -137 84 l-96 118q-20 -45 -39 -71q-96 -156 -316 -156h-329z" />
<glyph unicode="&#x644;" horiz-adv-x="1486" arabic-form="isolated" d="M143 76q0 139 64 229h184q-66 -115 -65 -229q0 -131 166 -193q43 -16 112 -16q80 0 191 35q174 51 247 172q78 127 78 352v1130h185v-1130q0 -316 -99 -461q-121 -178 -383 -244q-131 -33 -219 -32q-98 0 -168 20q-293 93 -293 367z" />
<glyph unicode="&#x644;" horiz-adv-x="1550" arabic-form="final" d="M143 76q0 139 64 229h184q-66 -115 -65 -229q0 -129 166 -193q43 -16 112 -16q80 0 191 35q174 51 247 172q78 127 78 352v1130h185v-1173q0 -106 49 -156q43 -43 141 -43h76v-184h-129q-115 0 -191 51q-20 -49 -45 -86q-121 -178 -383 -244q-131 -33 -219 -32 q-104 0 -168 20q-293 93 -293 367z" />
<glyph unicode="&#x644;" horiz-adv-x="622" arabic-form="initial" d="M-20 0v184h75q100 0 144 43q49 49 49 156v1173h182v-1185q0 -178 -86 -279q-80 -92 -233 -92h-131z" />
<glyph unicode="&#x644;" horiz-adv-x="677" arabic-form="medial" d="M-20 0v184h75q100 0 144 43q49 49 49 156v1173h182v-1173q0 -106 49 -156q43 -43 144 -43h75v-184h-131q-147 0 -227 86q-78 -86 -229 -86h-131z" />
<glyph unicode="&#x645;" horiz-adv-x="1267" arabic-form="isolated" d="M139 0q0 172 121 274q63 55 156 56q-2 29 -2 82q0 150 161 280q76 63 168 64q76 0 156 -37q182 -84 211 -250q8 -41 8 -100q0 -147 -98 -211q-120 -80 -209 -80q-176 -2 -322 78q-49 29 -124 -52q-25 -25 -25 -104v-492h-201v492zM600 387q0 -35 10 -92q117 -41 199 -41 q43 0 63 20q53 59 54 115q0 25 -6 45q-20 86 -80 105q-40 12 -86 12q-59 0 -86 -27q-68 -67 -68 -137z" />
<glyph unicode="&#x645;" horiz-adv-x="1361" arabic-form="final" d="M139 -127q0 172 121 274q63 55 156 56q-2 29 -2 82q0 150 161 280q76 63 168 64q72 0 156 -37q170 -72 211 -250q15 -68 55 -111q39 -45 144 -45h73v-184h-129q-174 0 -204 49q-6 -6 -16.5 -13t-12.5 -7q-131 -80 -209 -80q-178 0 -322 78q-49 29 -124 -52 q-25 -25 -25 -104v-365h-201v365zM600 260q0 -35 10 -92q117 -41 199 -41q43 0 63 20q53 59 54 115q0 25 -6 45q-20 86 -80 105q-40 12 -86 12q-59 0 -86 -27q-68 -67 -68 -137z" />
<glyph unicode="&#x645;" horiz-adv-x="1095" arabic-form="initial" d="M-20 0v184h116q55 0 96 35t48 84q23 182 155 262q96 55 174 56q174 0 269 -84q96 -88 96 -273q0 -143 -66 -213q-98 -100 -243 -100q-209 0 -318 96q-61 -47 -168 -47h-159zM406 199q63 -70 221 -70q47 0 65 18q53 53 53 123q0 76 -40 113q-45 41 -130 41q-46 0 -92 -31 q-45 -29 -59 -127q-2 -14 -18 -67z" />
<glyph unicode="&#x645;" horiz-adv-x="1183" arabic-form="medial" d="M-20 0v184h116q55 0 97 35q41 33 47 84q23 182 155 262q96 55 187 56q72 0 139 -29q190 -82 209 -250q6 -53 55 -111q39 -45 143 -45h76v-184h-131q-174 0 -205 49q-98 -100 -235 -100q-217 0 -326 96q-61 -47 -168 -47h-159zM406 199q63 -70 221 -70q47 0 65 18 q53 53 53 123q0 18 -6 37q-20 86 -80 105q-41 12 -77 12q-55 0 -95 -27q-49 -33 -63 -131q-2 -14 -18 -67z" />
<glyph unicode="&#x646;" horiz-adv-x="1503" arabic-form="isolated" d="M575 801v150h150v-150h-150zM147 168q0 233 48 315h184q-49 -143 -49 -315q0 -236 200 -289q92 -25 187 -24q78 0 145 20q193 51 271 275q33 96 32 194q0 186 -100 406h182q104 -156 105 -439q0 -174 -101 -350q-111 -197 -358 -264q-102 -29 -176 -29q-135 0 -242 37 q-328 107 -328 463z" />
<glyph unicode="&#x646;" horiz-adv-x="1558" arabic-form="final" d="M147 0q0 170 48 315h184q-49 -139 -49 -315q0 -238 200 -291q82 -23 166 -22q98 0 166 18q197 49 271 277q33 98 32 213q0 186 -100 387h182q45 -102 72 -195q20 -76 71.5 -139.5t112.5 -63.5h76v-184h-129q-74 0 -107 47q-4 -109 -92 -256q-121 -201 -358 -264 q-94 -27 -188 -27q-115 0 -230 37q-328 107 -328 463zM575 551v150h150v-150h-150z" />
<glyph unicode="&#x646;" horiz-adv-x="569" arabic-form="initial" d="M223 850v150h150v-150h-150zM-20 0v184h34q100 0 144 43q49 49 49 156v217h184v-217q0 -186 -92 -297q-70 -86 -229 -86h-90z" />
<glyph unicode="&#x646;" horiz-adv-x="616" arabic-form="medial" d="M223 850v150h150v-150h-150zM-20 0v184h34q100 0 144 43q49 49 49 156v217h184v-217q0 -106 49 -156q43 -43 144 -43h55v-184h-111q-150 0 -229 86q-78 -86 -229 -86h-90z" />
<glyph unicode="&#x647;" horiz-adv-x="1071" arabic-form="isolated" d="M139 291q0 181 37 258q82 184 232 184q199 0 378 -160q141 -123 142 -272q0 -201 -148 -274q-162 -84 -297 -84q-96 0 -178 34q-166 74 -166 314zM319 274q0 -82 56 -124q61 -45 114 -46q94 0 185 58q74 47 74 131q0 76 -66 141q-125 121 -240 121q-63 0 -98 -88 q-25 -68 -25 -193z" />
<glyph unicode="&#x647;" horiz-adv-x="1097" arabic-form="final" d="M145 285q0 174 203 301q104 66 260 82l-6 82h184q0 -168 37 -342q23 -102 76 -181q31 -43 143 -43h76v-184h-131q-90 0 -162 51q-47 31 -84 90q-139 -74 -292 -73q-53 0 -115 16q-189 49 -189 201zM311 295q0 -43 92 -68q88 -25 273 56q-20 57 -29 90q-12 49 -24 151 q-117 -12 -201 -80q-113 -92 -111 -149z" />
<glyph unicode="&#x647;" horiz-adv-x="1079" arabic-form="initial" d="M-20 0v184h106q68 0 131 11q-41 92 -59 174q-18 78 -19 143q0 84 45 166q49 90 125 82q-37 35 -125 51v186q219 -66 439 -247q255 -209 319 -431q14 -49 14 -108q0 -106 -38 -166q-74 -113 -250 -113q-129 0 -285 109q-123 -41 -266 -41h-137zM307 506q0 -18 8 -68 q23 -119 88 -170q35 27 70 92q39 70 39 134q0 47 -14 81q-23 53 -80 54q-68 0 -88 -45q-23 -45 -23 -78zM543 147q53 -47 100 -47q123 0 141 68q8 41 9 63q0 63 -33 138q-27 68 -96 139q6 -37 6 -76q0 -147 -99 -252z" />
<glyph unicode="&#x647;" horiz-adv-x="942" arabic-form="medial" d="M-20 0v184h176q8 266 137 391q106 106 237 107q139 0 207 -98q45 -66 45 -181q0 -113 -161 -219h344v-184h-344q162 -106 161 -219q0 -115 -45 -180q-70 -100 -207 -101q-129 0 -237 109q-129 129 -137 391h-176zM340 0q0 -119 37 -188q74 -141 149 -142q84 0 84 113 q0 51 -114 141q-94 76 -138 76h-18zM340 184h18q43 0 138 76q115 90 114 141q0 113 -84 113q-76 0 -149 -141q-37 -70 -37 -189z" />
<glyph unicode="&#x648;" horiz-adv-x="987" arabic-form="isolated" d="M-86 -315q360 0 494 75q170 96 231 242q-113 0 -164 10q-151 34 -190 68q-115 96 -115 235q0 141 88 228q102 102 242 102q94 0 159 -49q131 -90 156 -234q16 -90 16 -178q0 -309 -172 -469q-88 -82 -188 -129q-190 -86 -557 -86v185zM362 326q0 -53 52 -99 q45 -43 239 -43q0 184 -86 242q-39 27 -73 27q-63 0 -107 -58q-25 -34 -25 -69z" />
<glyph unicode="&#x648;" horiz-adv-x="1056" arabic-form="final" d="M-86 -315q362 0 494 75q170 96 231 242q-109 2 -164 10q-138 25 -190 68q-104 88 -115 223q-2 31 6 88q29 158 205 232q53 23 123 22q92 -4 155 -49q135 -94 156 -234q14 -92 16 -178h246v-184h-192h-72q-25 -156 -154 -285q-82 -82 -188 -129q-190 -86 -557 -86v185z M367 356q-18 -74 47 -129q45 -39 239 -43q0 72 -16 133q-25 78 -70 109q-61 41 -121 16q-67 -27 -79 -86z" />
<glyph unicode="&#x649;" horiz-adv-x="1601" arabic-form="isolated" d="M129 123q0 117 64 229h184q-66 -135 -66 -229q2 -145 166 -193q104 -27 160 -20q145 14 254 35q178 35 260 112q59 55 59 111q0 76 -125 102q-70 16 -180 62q-70 29 -125 78q-66 59 -65 172q0 150 190 223q94 37 199 37q111 0 201 -41q139 -61 168 -236h-185 q-12 59 -80 94q-35 18 -108 23q-78 4 -139 -37q-61 -37 -62 -72q0 -55 125 -98q248 -82 305 -145q78 -86 80 -174q0 -70 -43 -144q-102 -170 -444 -243q-178 -37 -297 -37q-129 0 -201 24q-295 107 -295 367z" />
<glyph unicode="&#x649;" horiz-adv-x="1705" arabic-form="final" d="M129 133q0 156 64 244h184q-66 -90 -66 -244q0 -114 166 -190q63 -31 246 -31q117 0 168 6q147 14 209 49q92 53 92 84q0 43 -49 55q-29 10 -60 50q-43 57 -43 118q0 66 52 125q78 92 163 109q31 6 72 6q121 0 205 -133q129 -197 160 -197h34v-184h-34q-115 0 -226 172 q-106 166 -135 166q-37 0 -51 -6q-43 -16 -43 -53q0 -47 63 -74q72 -31 76 -154q4 -100 -108 -184q-131 -96 -346 -127q-90 -12 -195 -12q-184 0 -303 41q-295 106 -295 364z" />
<glyph unicode="&#x64a;" horiz-adv-x="1601" arabic-form="isolated" d="M500 -500v150h150v-150h-150zM750 -500v150h149v-150h-149zM129 123q0 117 64 229h184q-66 -135 -66 -229q2 -145 166 -193q104 -27 160 -20q145 14 254 35q178 35 260 112q59 55 59 111q0 76 -125 102q-70 16 -180 62q-70 29 -125 78q-66 59 -65 172q0 150 190 223 q94 37 199 37q111 0 201 -41q139 -61 168 -236h-185q-12 59 -80 94q-35 18 -108 23q-78 4 -139 -37q-61 -37 -62 -72q0 -55 125 -98q248 -82 305 -145q78 -86 80 -174q0 -70 -43 -144q-102 -170 -444 -243q-178 -37 -297 -37q-129 0 -201 24q-295 107 -295 367z" />
<glyph unicode="&#x64a;" horiz-adv-x="1705" arabic-form="final" d="M500 -500v150h150v-150h-150zM750 -500v150h149v-150h-149zM129 133q0 156 64 244h184q-66 -90 -66 -244q0 -114 166 -190q63 -31 246 -31q117 0 168 6q147 14 209 49q92 53 92 84q0 43 -49 55q-29 10 -60 50q-43 57 -43 118q0 66 52 125q78 92 163 109q31 6 72 6 q121 0 205 -133q129 -197 160 -197h34v-184h-34q-115 0 -226 172q-106 166 -135 166q-37 0 -51 -6q-43 -16 -43 -53q0 -47 63 -74q72 -31 76 -154q4 -100 -108 -184q-131 -96 -346 -127q-90 -12 -195 -12q-184 0 -303 41q-295 106 -295 364z" />
<glyph unicode="&#x64a;" horiz-adv-x="569" arabic-form="initial" d="M-20 0v184h34q100 0 144 43q49 49 49 156v217h184v-217q0 -186 -92 -297q-70 -86 -229 -86h-90zM98 -299v150h150v-150h-150zM348 -299v150h149v-150h-149z" />
<glyph unicode="&#x64a;" horiz-adv-x="616" arabic-form="medial" d="M-20 0v184h34q100 0 144 43q49 49 49 156v217h184v-217q0 -106 49 -156q43 -43 144 -43h55v-184h-111q-150 0 -229 86q-78 -86 -229 -86h-90zM98 -299v150h150v-150h-150zM348 -299v150h149v-150h-149z" />
<glyph unicode=" "  horiz-adv-x="649" />
<glyph unicode="&#x09;" horiz-adv-x="649" />
<glyph unicode="&#xa0;" horiz-adv-x="649" />
<glyph unicode="!" horiz-adv-x="819" d="M309 0v254h203v-254h-203zM309 838v655h203v-655l-20 -357h-162z" />
<glyph unicode="&#x22;" horiz-adv-x="940" d="M197 938v555h170v-555h-170zM575 938v555h170v-555h-170z" />
<glyph unicode="#" d="M158 414v153h352l84 334h-322v154h361l102 415h162l-104 -415h292l105 415h160l-103 -415h312v-154h-351l-82 -334h318v-153h-357l-104 -414h-160l103 414h-293l-103 -414h-161l104 414h-315zM672 567h293l82 334h-291z" />
<glyph unicode="$" horiz-adv-x="1302" d="M170 92v180q94 -59 207 -96q109 -35 215 -35v457q-219 37 -322 123q-100 86 -100 235q0 160 109 256q104 92 313 109v235h100v-233q94 -4 180 -18q88 -16 170 -43v-175q-78 41 -170 64q-104 27 -180 29v-428q223 -33 334 -125q106 -88 107 -246q0 -168 -113 -266 q-113 -96 -328 -113v-303h-100v301q-106 4 -211 25q-102 20 -211 67zM354 973q0 -84 56 -133q53 -47 182 -70v410q-113 -12 -176 -66q-62 -52 -62 -141zM692 145q129 18 191 72q66 55 65 145q0 88 -61 140q-59 51 -195 76v-433z" />
<glyph unicode="%" horiz-adv-x="1945" d="M113 1114q0 182 94 295q92 111 249.5 111t252 -108.5t94.5 -297t-94 -299.5q-92 -109 -252 -108.5t-252 111t-92 296.5zM272 1114q0 -133 49.5 -206.5t135.5 -73.5q88 0 137 73.5t49 206.5q0 131 -49 205t-137 74q-86 0 -135.5 -74t-49.5 -205zM426 -29l934 1549h160 l-934 -1549h-160zM1143 377q0 184 94 297q92 111 252 110.5t252 -111t92 -296.5q0 -184 -94 -297q-90 -109 -250 -109q-162 0 -252 109q-94 113 -94 297zM1303 377q0 -131 49 -205t137 -74q86 0 135 74t49 205t-49 205q-51 76 -135 75q-88 0 -137 -73.5t-49 -206.5z" />
<glyph unicode="&#x26;" horiz-adv-x="1595" d="M129 461q0 129 68 241q68 115 200 211q-49 66 -73 125q-25 61 -25 123q0 162 110.5 260.5t295.5 98.5q83 0 165 -19q90 -20 168 -53v-182q-90 49 -166 71q-80 25 -147 25q-106 0 -170 -55q-66 -55 -66 -144q0 -53 29 -102q31 -53 121 -146l508 -520q58 89 92 191 q33 98 39 215h186q-12 -133 -63 -260q-51 -129 -146 -256l279 -285h-252l-143 147q-106 -92 -217 -133q-114 -43 -246 -43q-242 0 -393 138q-154 137 -154 352zM322 473q0 -145 106 -244q104 -96 266 -96q95 0 178 31q80 29 156 96l-530 543q-86 -74 -133 -162 q-43 -80 -43 -168z" />
<glyph unicode="'" horiz-adv-x="561" d="M197 938v555h170v-555h-170z" />
<glyph unicode="(" horiz-adv-x="798" d="M176 643q0 221 74 449q72 221 225 462h160q-133 -227 -198.5 -454.5t-65.5 -456.5q0 -225 65 -457q61 -219 199 -456h-160q-152 236 -225.5 463t-73.5 450z" />
<glyph unicode=")" horiz-adv-x="798" d="M164 -270q137 238 198 456q66 231 66 457q0 229 -66 457q-61 217 -198 454h160q154 -242 225 -462q74 -227 74 -449q0 -223 -74 -450.5t-225 -462.5h-160z" />
<glyph unicode="*" horiz-adv-x="1024" d="M61 858l359 195l-359 194l58 99l336 -203v377h114v-377l336 203l58 -99l-359 -194l359 -195l-58 -98l-336 203v-377h-114v377l-336 -203z" />
<glyph unicode="+" d="M217 557v170h557v557h168v-557h557v-170h-557v-557h-168v557h-557z" />
<glyph unicode="," horiz-adv-x="649" d="M158 -238l82 320v172h211v-172l-164 -320h-129z" />
<glyph unicode="-" horiz-adv-x="737" d="M100 479v164h539v-164h-539z" />
<glyph unicode="." horiz-adv-x="649" d="M219 0v254h211v-254h-211z" />
<glyph unicode="/" horiz-adv-x="688" d="M0 -190l520 1683h170l-520 -1683h-170z" />
<glyph unicode="0" horiz-adv-x="1302" d="M135 745.5q0 374.5 133 575.5q131 199 383 199t383 -199q133 -201 133 -575.5t-133 -575.5q-131 -199 -383 -199t-383 199q-133 201 -133 575.5zM338 745.5q0 -311.5 78 -460.5q80 -154 235.5 -154t235.5 154q78 150 78 461t-78 460q-80 154 -235.5 154t-235.5 -154 q-78 -149 -78 -460.5z" />
<glyph unicode="1" horiz-adv-x="1302" d="M225 1237v184l357 72h202v-1323h330v-170h-860v170h330v1139z" />
<glyph unicode="2" horiz-adv-x="1302" d="M150 0v170l313 319q180 180 250 259q92 100 135 184q39 76 39 149q0 121 -84 195q-82 74 -217 74q-100 0 -201 -33q-111 -37 -225 -100v204q127 51 227 74q109 25 195 25q236 0 370 -115q137 -117 138 -311q0 -88 -35 -174q-35 -88 -125 -195l-160 -168l-377 -387h705 v-170h-948z" />
<glyph unicode="3" horiz-adv-x="1302" d="M156 45v195q83 -49 184 -74t209 -25q190 0 289 74q100 76 100 219q0 133 -92 207t-258 74h-174v166h182q145 0 227 59q80 59 80 172q0 115 -82 176q-83 61 -233 62q-83 0 -178.5 -18.5t-208.5 -55.5v180q123 33 215 47q109 16 190 17q229 0 365 -105q133 -102 133 -282 q0 -121 -72 -209q-70 -86 -201 -119q141 -31 226 -129q82 -96 82 -242q0 -221 -151.5 -342t-432.5 -121q-94 0 -193 19q-100 18 -206 55z" />
<glyph unicode="4" horiz-adv-x="1302" d="M100 352v195l621 946h254v-973h213v-168h-213v-352h-201v352h-674zM264 520h510v797z" />
<glyph unicode="5" horiz-adv-x="1302" d="M158 35v203q80 -45 186 -72q95 -25 203 -25q176 0 274 90q100 92 101 248q0 154 -100.5 246t-274.5 92q-82 0 -162 -18q-82 -18 -164 -56v750h793v-170h-608v-367q47 16 88 23q57 8 88 8q252 0 397 -137t145 -371q0 -244 -149 -375q-152 -133 -424 -133q-86 0 -191 17 q-89 14 -202 47z" />
<glyph unicode="6" horiz-adv-x="1302" d="M143 745q0 352 168 563.5t451 211.5q82 0 153 -15q88 -18 162 -45v-184q-77 37 -153.5 55.5t-153.5 18.5q-201 0 -305 -136q-106 -137 -121 -407q59 88 148 133q90 47 196 47q225 0 356 -137q129 -135 130 -371q0 -230 -136 -368q-135 -139 -362 -140 q-258 0 -395.5 198.5t-137.5 575.5zM381 479q0 -162 80 -254q82 -94 215 -94t215 94q80 92 80 254t-80 254q-82 94 -215 94t-215 -94q-80 -92 -80 -254z" />
<glyph unicode="7" horiz-adv-x="1302" d="M168 1323v170h960v-86l-542 -1407h-211l510 1323h-717z" />
<glyph unicode="8" horiz-adv-x="1302" d="M139 420q0 145 82 242q84 100 228 133q-127 31 -203 120q-72 86 -72 218q0 180 127 282q129 104 350 105q224 0 350 -105q127 -104 127 -282q0 -129 -73 -218q-76 -90 -201 -120q143 -33 227 -133q82 -96 82 -242q0 -217 -133 -334q-129 -115 -379 -115t-379 115 q-133 117 -133 334zM342 420q0 -135 82 -211q84 -78 227.5 -78t227.5 78q82 76 82 211q0 137 -82 213t-227.5 76t-227.5 -76t-82 -213zM375 1114q0 -115 74 -180q76 -66 202.5 -66t202.5 66q74 66 74 180.5t-74 179.5q-76 66 -203 66t-202 -66q-74 -65 -74 -180z" />
<glyph unicode="9" horiz-adv-x="1302" d="M129 1012q0 230 135 368q135 139 363 140q260 0 395 -199q137 -203 137 -576q0 -352 -168 -563t-450 -211q-82 0 -154 15q-88 18 -162 45v184q77 -37 154 -55q76 -18 153 -19q201 0 306 135q106 137 120 408q-57 -84 -147 -131t-197 -47q-225 0 -354 135 q-131 138 -131 371zM332 1012q0 -162 80 -254q82 -94 215 -94t215 94q80 92 80 254t-80 254q-82 94 -215 94t-215 -94q-80 -92 -80 -254z" />
<glyph unicode=":" horiz-adv-x="688" d="M240 0v254h211v-254h-211zM240 805v254h211v-254h-211z" />
<glyph unicode=";" horiz-adv-x="688" d="M158 -238l82 320v172h211v-172l-164 -320h-129zM240 805v254h211v-254h-211z" />
<glyph unicode="&#x3c;" d="M217 559v166l1282 465v-182l-1032 -367l1032 -365v-182z" />
<glyph unicode="=" d="M217 352v170h1282v-170h-1282zM217 762v168h1282v-168h-1282z" />
<glyph unicode="&#x3e;" d="M217 94v182l1030 365l-1030 367v182l1282 -465v-166z" />
<glyph unicode="?" horiz-adv-x="1085" d="M147 1219v188q95 58 191 86q92 27 199 27q186 0 294 -97q113 -100 113 -256q0 -78 -37 -145q-39 -70 -125 -154l-88 -86q-55 -55 -67 -73q-16 -25 -27 -52q-4 -16 -8 -51q-4 -41 -4 -82v-123h-191v154q0 98 29 166q29 66 117 151l90 89q55 49 82 100q27 49 26 96 q0 88 -65.5 143.5t-173.5 55.5q-76 0 -168 -35q-85 -30 -187 -102zM391 0v254h203v-254h-203z" />
<glyph unicode="@" horiz-adv-x="2048" d="M135 543q0 182 68 348q66 160 194 289q131 129 297 194q170 68 359 68q212 0 393 -86q180 -86 305 -248q76 -100 115 -213q39 -111 39 -238q0 -266 -158 -415q-162 -152 -440 -158v154q-61 -76 -137 -113t-181 -37q-174 0 -280.5 125t-106.5 323.5t109 325.5 q106 125 278 125q104 0 180 -37q78 -37 138 -114v131h143v-736q145 20 229 134q82 109 82 288q0 98 -32 201q-31 96 -95 174q-102 129 -254 201q-147 70 -325 69q-125 0 -236 -32q-119 -35 -209 -97q-156 -100 -245 -268q-88 -164 -89 -358q0 -162 58 -297q58 -138 166 -246 q100 -100 243 -158q138 -55 295 -55q129 0 254 43q115 39 228 125l90 -111q-125 -96 -273 -149q-145 -51 -299 -51q-184 0 -350 65q-162 63 -291 191q-127 123 -194 290q-68 167 -68 353zM762 536.5q0 -139.5 72 -223.5q70 -82 194 -82q123 0 193 82q72 84 71.5 223.5 t-71.5 223.5q-70 82 -195 82q-123 0 -192 -82q-72 -84 -72 -223.5z" />
<glyph unicode="A" horiz-adv-x="1400" d="M16 0l570 1493h229l569 -1493h-210l-136 383h-673l-136 -383h-213zM426 551h549l-275 743z" />
<glyph unicode="B" horiz-adv-x="1404" d="M201 0v1493h516q229 0 356 -96q125 -94 125 -273q0 -141 -63.5 -219t-188.5 -100q147 -31 232 -133q82 -100 82 -254q0 -201 -136 -309q-137 -109 -387 -109h-536zM403 166h324q162 0 242 67q78 66 78 207.5t-78 207t-242 65.5h-324v-547zM403 877h299q145 0 219 55 t74 170t-73.5 170t-219.5 55h-299v-450z" />
<glyph unicode="C" horiz-adv-x="1429" d="M115 745.5q0 356.5 194 567.5q193 207 535 207q139 0 252 -35q121 -37 223 -107v-213q-102 96 -217 142q-119 47 -246 47q-256 0 -391 -156q-137 -160 -137 -452.5t137 -452.5q135 -156 391 -156q127 0 246 47q115 45 217 142v-211q-113 -74 -225.5 -109t-249.5 -35 q-342 0 -535 207q-194 211 -194 567.5z" />
<glyph unicode="D" horiz-adv-x="1576" d="M201 0v1493h415q436 0 637 -180q203 -181 203 -565q0 -385 -205 -568q-201 -180 -635 -180h-415zM403 166h244q311 0 453 139q143 141 143 443q0 303 -143 440q-145 139 -453 139h-244v-1161z" />
<glyph unicode="E" horiz-adv-x="1292" d="M201 0v1493h944v-170h-742v-442h711v-170h-711v-541h760v-170h-962z" />
<glyph unicode="F" horiz-adv-x="1177" d="M201 0v1493h858v-170h-656v-440h592v-170h-592v-713h-202z" />
<glyph unicode="G" horiz-adv-x="1585" d="M115 745.5q0 360.5 198 569.5q197 205 547 205q152 0 277 -35q137 -39 243 -107v-215q-109 92 -237 144q-121 47 -266 47q-273 0 -412 -154q-137 -152 -137 -455t137 -454q138 -154 412 -154q108 0 190 19q88 18 152 57v401h-330v166h530v-641q-115 -82 -258 -125 q-141 -43 -301 -43q-350 0 -547 205q-198 209 -198 569.5z" />
<glyph unicode="H" horiz-adv-x="1538" d="M201 0v1493h202v-612h734v612h202v-1493h-202v711h-734v-711h-202z" />
<glyph unicode="I" horiz-adv-x="602" d="M201 0v1493h202v-1493h-202z" />
<glyph unicode="J" horiz-adv-x="602" d="M-106 -240h63q133 0 188.5 74t55.5 270v1389h202v-1389q0 -268 -102 -393q-100 -121 -330 -121h-77v170z" />
<glyph unicode="K" horiz-adv-x="1341" d="M201 0v1493h202v-631l670 631h260l-741 -696l794 -797h-266l-717 719v-719h-202z" />
<glyph unicode="L" horiz-adv-x="1140" d="M201 0v1493h202v-1323h727v-170h-929z" />
<glyph unicode="M" horiz-adv-x="1765" d="M201 0v1493h301l381 -1016l383 1016h301v-1493h-197v1311l-385 -1024h-203l-385 1024v-1311h-196z" />
<glyph unicode="N" horiz-adv-x="1531" d="M201 0v1493h272l662 -1249v1249h196v-1493h-272l-662 1249v-1249h-196z" />
<glyph unicode="O" horiz-adv-x="1611" d="M115 745q0 350 188 564q186 211 504 211q315 0 502 -211q188 -213 188 -563.5t-188 -563.5q-186 -211 -502 -211t-504 209q-188 211 -188 565zM328 745.5q0 -282.5 129 -446.5t350 -164q219 0 348 164t129 446.5t-129 446.5t-348 164q-221 0 -350 -164t-129 -446.5z" />
<glyph unicode="P" horiz-adv-x="1234" d="M201 0v1493h456q252 0 379 -113q129 -115 129 -334t-129 -333q-127 -113 -379 -113h-254v-600h-202zM403 766h254q141 0 217 74q78 74 78 207t-78 206q-76 74 -217 74h-254v-561z" />
<glyph unicode="Q" horiz-adv-x="1611" d="M115 745.5q0 350.5 188 563.5q186 211 504 211q315 0 502 -211q188 -213 188 -564q0 -262 -104 -446q-102 -182 -303 -272l266 -291h-244l-221 239q-16 0 -28.5 -2t-22.5 -2h-33q-317 0 -504 211q-188 213 -188 563.5zM328 745.5q0 -282.5 129 -446.5t350 -164 q219 0 348 164t129 446.5t-129 446.5t-348 164q-221 0 -350 -164t-129 -446.5z" />
<glyph unicode="R" horiz-adv-x="1421" d="M201 0v1493h456q256 0 381 -107q127 -109 127 -323q0 -139 -65 -234q-65 -92 -191 -129q63 -20 127 -94q59 -68 123 -198l205 -408h-217l-191 383q-74 150 -143 199q-71 49 -190 49h-220v-631h-202zM403 797h254q145 0 220 67q76 70 75 199q0 127 -75 197q-74 68 -220 67 h-254v-530z" />
<glyph unicode="S" horiz-adv-x="1298" d="M135 1094q0 199 139 313q137 113 385 113q106 0 213 -19q98 -16 224 -57v-197q-106 51 -217 82q-98 27 -197 27q-166 0 -254 -64q-90 -66 -90 -182q0 -100 59 -149q61 -51 226 -82l122 -25q225 -43 334 -152q106 -106 107 -290q0 -217 -146 -328q-147 -113 -426 -113 q-106 0 -225 25q-125 25 -248 70v208q133 -74 242 -104q121 -35 231 -35q172 0 266.5 67.5t94.5 194.5q0 111 -67.5 172.5t-221.5 92.5l-123 24q-225 45 -327 141q-101 95 -101 267z" />
<glyph unicode="T" horiz-adv-x="1249" d="M-6 1323v170h1263v-170h-530v-1323h-203v1323h-530z" />
<glyph unicode="U" horiz-adv-x="1497" d="M178 561v932h203v-907q0 -240 88 -346q86 -104 280.5 -104.5t280.5 104.5q88 106 88 346v907h203v-932q0 -289 -145 -440q-143 -150 -426 -150q-285 0 -428.5 149.5t-143.5 440.5z" />
<glyph unicode="V" horiz-adv-x="1400" d="M16 1493h211l473 -1257l474 1257h210l-569 -1493h-229z" />
<glyph unicode="W" horiz-adv-x="2023" d="M68 1493h204l314 -1262l313 1262h227l314 -1262l313 1262h205l-375 -1493h-254l-315 1296l-318 -1296h-254z" />
<glyph unicode="X" horiz-adv-x="1402" d="M61 0l533 797l-465 696h217l371 -555l373 555h217l-480 -717l512 -776h-217l-420 635l-423 -635h-218z" />
<glyph unicode="Y" horiz-adv-x="1249" d="M-4 1493h217l414 -614l411 614h217l-528 -782v-711h-203v711z" />
<glyph unicode="Z" horiz-adv-x="1402" d="M92 0v154l944 1169h-921v170h1173v-154l-944 -1169h967v-170h-1219z" />
<glyph unicode="[" horiz-adv-x="798" d="M176 -270v1826h424v-143h-240v-1540h240v-143h-424z" />
<glyph unicode="\" horiz-adv-x="688" d="M0 1493h170l520 -1683h-170z" />
<glyph unicode="]" horiz-adv-x="798" d="M199 -127h239v1540h-239v143h424v-1826h-424v143z" />
<glyph unicode="^" d="M217 936l543 557h196l543 -557h-201l-440 395l-440 -395h-201z" />
<glyph unicode="_" horiz-adv-x="1024" d="M-20 -340h1064v-143h-1064v143z" />
<glyph unicode="`" horiz-adv-x="1024" d="M170 1638h197l282 -374h-153z" />
<glyph unicode="a" horiz-adv-x="1253" d="M123 326q0 188 127 284.5t377 96.5h258v18q0 125 -84 197q-82 70 -234 69q-90 0 -186 -22q-88 -20 -176 -70v170q106 41 196 59q95 18 185 19q244 0 362 -125q121 -127 121 -383v-639h-184v170q-66 -102 -158 -150q-96 -49 -229 -49q-170 0 -272.5 96.5t-102.5 258.5z M307 338q0 -98 63.5 -155.5t176.5 -57.5q154 0 246 108t92 289v41h-183q-225 0 -309 -51q-86 -53 -86 -174z" />
<glyph unicode="b" horiz-adv-x="1298" d="M186 0v1556h185v-606q55 96 147 148q88 49 211 49q203 0 332 -162q127 -160 127 -426t-127 -426q-129 -162 -332 -162q-123 0 -211 49q-92 51 -147 148v-168h-185zM371 559q0 -201 84 -319q82 -115 229 -115t229 115q84 119 84 319q0 199 -84 318q-82 117 -229 116.5 t-229 -116.5q-84 -119 -84 -318z" />
<glyph unicode="c" horiz-adv-x="1124" d="M113 559q0 272 151.5 430t411.5 158q94 0 166 -17q78 -18 157 -53v-172q-72 41 -157 64q-84 23 -158 22q-180 0 -278.5 -114.5t-98.5 -317.5q0 -206 99 -319q98 -113 278 -113q74 0 158 23q86 23 157 63v-170q-70 -33 -159 -53q-82 -18 -176 -19q-252 0 -401.5 158 t-149.5 430z" />
<glyph unicode="d" horiz-adv-x="1298" d="M113 559q0 266 127 426q129 162 331 162q125 0 213 -49t146 -148v606h184v-1556h-184v168q-57 -98 -145.5 -147.5t-213.5 -49.5q-203 0 -331 162q-127 160 -127 426zM303 559q0 -201 84 -319q82 -115 229.5 -115t229.5 115q84 119 84 319q0 199 -84 318 q-84 117 -229.5 116.5t-229.5 -116.5q-84 -119 -84 -318z" />
<glyph unicode="e" horiz-adv-x="1259" d="M113 549q0 270 149 436q147 162 400 162q225 0 358 -146q131 -143 131 -395v-90h-846q12 -188 115 -289q104 -100 285 -100q100 0 206 27q94 25 197 77v-174q-94 -41 -202.5 -63.5t-211.5 -22.5q-268 0 -424 156q-157 158 -157 422zM311 659h656q-4 156 -84 242 q-84 90 -219 90q-152 0 -246 -88q-91 -84 -107 -244z" />
<glyph unicode="f" horiz-adv-x="720" d="M47 977v143h176v78q0 186 86 272t277 86h174v-153h-176q-98 0 -137 -39t-39 -145v-99h303v-143h-303v-977h-185v977h-176z" />
<glyph unicode="g" horiz-adv-x="1298" d="M113 573q0 258 127 416t331 158q125 0 213 -49q86 -47 146 -148v170h184v-981q0 -287 -127 -426t-389 -139q-102 0 -182 14q-94 16 -168 45v179q84 -45 159.5 -65.5t161.5 -20.5q182 0 271 94q90 96 90 286v91q-59 -100 -146 -148q-88 -49 -213 -49q-205 0 -331.5 157.5 t-126.5 415.5zM303 573.5q0 -200.5 82 -309.5q82 -111 231.5 -110.5t231.5 110.5q82 109 82 309.5t-82 309.5q-82 111 -231.5 110.5t-231.5 -110.5q-82 -109 -82 -309.5z" />
<glyph unicode="h" horiz-adv-x="1296" d="M186 0v1556h185v-610q63 100 155 152q88 49 207 49q193 0 291 -119q100 -123 100 -352v-676h-184v670q0 158 -61.5 237.5t-186.5 79.5q-150 0 -235.5 -94t-85.5 -260v-633h-185z" />
<glyph unicode="i" horiz-adv-x="567" d="M193 0v1120h184v-1120h-184zM193 1323v233h184v-233h-184z" />
<glyph unicode="j" horiz-adv-x="567" d="M-37 -270h49q106 0 143.5 49t37.5 201v1140h184v-1140q0 -215 -82 -310q-84 -96 -262 -96h-70v156zM193 1323v233h184v-233h-184z" />
<glyph unicode="k" horiz-adv-x="1185" d="M186 0v1556h185v-919l549 483h235l-594 -524l619 -596h-240l-569 547v-547h-185z" />
<glyph unicode="l" horiz-adv-x="567" d="M193 0v1556h184v-1556h-184z" />
<glyph unicode="m" horiz-adv-x="1994" d="M186 0v1120h185v-174q63 102 151 152q89 49 209 49q121 0 207 -61.5t127 -180.5q68 121 166 182q96 59 225 60q175 0 270 -123q94 -121 95 -348v-676h-185v670q0 164 -57 239q-59 78 -174 78q-143 0 -225 -94q-84 -96 -84 -260v-633h-185v670q0 164 -57 239 q-59 78 -176 78q-139 0 -223 -96t-84 -258v-633h-185z" />
<glyph unicode="n" horiz-adv-x="1296" d="M186 0v1120h185v-174q63 100 155 152q88 49 207 49q193 0 291 -119q100 -123 100 -352v-676h-184v670q0 158 -61.5 237.5t-186.5 79.5q-150 0 -235.5 -94t-85.5 -260v-633h-185z" />
<glyph unicode="o" horiz-adv-x="1251" d="M113 559q0 272 137 432q135 156 377 156q240 0 377 -155.5t137 -432t-137.5 -432.5t-376.5 -156q-242 0 -377 156q-137 160 -137 432zM307 559q0 -201 86 -317q84 -115 234 -115q147 0 233 116.5t86 315.5t-86 315.5t-233.5 116.5t-233.5 -116.5t-86 -315.5z" />
<glyph unicode="p" horiz-adv-x="1298" d="M186 -426v1546h185v-170q55 96 147 148q88 49 211 49q203 0 332 -162q127 -160 127 -426t-127 -426q-129 -162 -332 -162q-123 0 -211 49q-92 51 -147 148v-594h-185zM371 559q0 -201 84 -319q82 -115 229 -115t229 115q84 119 84 319q0 199 -84 318q-82 117 -229 116.5 t-229 -116.5q-84 -119 -84 -318z" />
<glyph unicode="q" horiz-adv-x="1298" d="M113 559q0 266 127 426q129 162 331 162q125 0 213 -49t146 -148v170h184v-1546h-184v594q-57 -98 -145.5 -147.5t-213.5 -49.5q-203 0 -331 162q-127 160 -127 426zM303 559q0 -201 84 -319q82 -115 229.5 -115t229.5 115q84 119 84 319q0 199 -84 318 q-84 117 -229.5 116.5t-229.5 -116.5q-84 -119 -84 -318z" />
<glyph unicode="r" horiz-adv-x="841" d="M186 0v1120h185v-174q59 102 151 151.5t226 49.5q29 0 43 -2q41 -6 51 -8v-189q-29 16 -68 27q-33 8 -80 8q-156 0 -239.5 -102.5t-83.5 -290.5v-590h-185z" />
<glyph unicode="s" horiz-adv-x="1064" d="M111 41v190q100 -51 200 -79q94 -27 197 -27q127 0 201 45q70 43 69 125q0 74 -51 115t-221 77l-64 15q-170 37 -247 110q-76 74 -76 205q0 156 112 244q111 86 318 86q109 0 192 -14q94 -16 166 -46v-174q-68 35 -162 60q-80 20 -174 20q-139 0 -206.5 -43t-67.5 -125 q0 -63 49 -100q47 -35 197 -70l63 -14q197 -43 279 -119t82 -213q0 -156 -123 -248q-121 -90 -340 -90q-98 0 -187 17q-91 16 -206 53z" />
<glyph unicode="t" horiz-adv-x="802" d="M55 977v143h135v318h185v-318h379v-143h-379v-608q0 -135 37 -176q37 -39 153 -39h189v-154h-189q-215 0 -295 80t-80 289v608h-135z" />
<glyph unicode="u" horiz-adv-x="1296" d="M174 442v678h184v-671q0 -158 61.5 -238t186.5 -80q150 0 236 94t86 260v635h184v-1120h-184v172q-70 -104 -156 -152q-88 -49 -205 -49q-193 0 -293 119t-100 352zM637 1147z" />
<glyph unicode="v" horiz-adv-x="1210" d="M61 1120h195l350 -940l350 940h195l-420 -1120h-250z" />
<glyph unicode="w" horiz-adv-x="1673" d="M86 1120h184l230 -874l229 874h217l230 -874l229 874h184l-293 -1120h-217l-241 918l-242 -918h-217z" />
<glyph unicode="x" horiz-adv-x="1210" d="M59 0l435 586l-398 534h217l297 -399l297 399h217l-405 -545l426 -575h-217l-326 440l-326 -440h-217z" />
<glyph unicode="y" horiz-adv-x="1210" d="M61 1120h195l350 -876l350 876h195l-492 -1224q-76 -197 -151 -261q-74 -61 -199 -61h-147v154h108q74 0 117 36.5t94 169.5l33 84z" />
<glyph unicode="z" horiz-adv-x="1073" d="M88 0v168l692 805h-667v147h874v-168l-692 -805h692v-147h-899z" />
<glyph unicode="{" horiz-adv-x="1302" d="M256 541v143h61q145 0 197 57q53 59 53 207v240q0 223 84 295q86 74 334 73h62v-143h-68q-139 0 -184 -45q-43 -43 -43 -184v-248q0 -158 -45 -227q-47 -72 -156 -97q109 -27 156 -98q45 -70 45 -227v-248q0 -141 43 -184q45 -45 184 -45h68v-144h-62q-248 0 -334 74 q-84 72 -84 295v239q0 151 -55 209q-55 57 -195 58h-61z" />
<glyph unicode="|" horiz-adv-x="688" d="M260 -483v2048h170v-2048h-170z" />
<glyph unicode="}" horiz-adv-x="1302" d="M256 -190h70q139 0 182 43t43 186v248q0 158 45 227q47 72 156 98q-109 25 -156 97q-45 70 -45 227v248q0 143 -43 186t-182 43h-70v143h63q249 0 332 -73q84 -74 84 -295v-240q0 -152 53 -207q55 -57 197 -57h62v-143h-62q-141 0 -197 -58q-53 -55 -53 -209v-239 q0 -221 -84 -295q-83 -74 -332 -74h-63v144z" />
<glyph unicode="~" d="M217 467v178q100 78 195 113q92 35 186 35q113 0 256 -60q6 -2 10 -3t6 -3q4 0 9.5 -3t13.5 -5q154 -61 248 -62q84 0 170 37q74 31 188 123v-178q-100 -78 -194 -113q-92 -35 -187 -34q-106 0 -256 59q-8 2 -16 6q-2 0 -10.5 3t-12.5 5q-154 61 -248 62q-90 0 -174 -39 q-92 -43 -184 -121z" />
<glyph unicode="&#xa1;" horiz-adv-x="819" d="M309 0v655l21 357h162l20 -357v-655h-203zM309 1239v254h203v-254h-203z" />
<glyph unicode="&#xa2;" horiz-adv-x="1302" d="M172 559q0 256 133 412q131 152 373 174v287h102v-287q63 -2 142 -21q68 -14 137 -47v-172q-74 40 -141 62q-68 20 -138 24v-864q74 6 138 27q82 27 141 59v-170q-53 -25 -133 -47q-68 -18 -146 -25v-284h-102v288q-242 23 -373 175q-133 155 -133 409zM367 559 q0 -186 82 -299q80 -111 229 -129v856q-147 -18 -229 -131t-82 -297z" />
<glyph unicode="&#xa3;" horiz-adv-x="1302" d="M129 0v170h236v465h-199v143h199v238q0 262 106.5 383t339.5 121q66 0 137 -15q55 -10 154 -45v-182q-78 41 -144 61q-63 20 -129 21q-147 0 -206 -78q-57 -76 -58 -289v-215h391v-143h-391v-465h557v-170h-993z" />
<glyph unicode="&#xa4;" horiz-adv-x="1302" d="M94 197l207 206q-37 59 -55 121q-18 58 -19 117q0 65 19 123q16 51 57 113l-207 206l115 115l207 -207q53 39 112 58q58 18 123 18q59 0 119 -18q55 -18 119 -56l207 209l114 -115l-206 -206q35 -57 55 -119q18 -57 18 -120.5t-18 -121.5q-16 -51 -60 -114l209 -207 l-114 -113l-207 207q-61 -41 -117 -60q-59 -18 -119 -18q-57 0 -118 18q-57 16 -121 56l-207 -207zM383 643q0 -117 78 -192q82 -78 192 -78q115 0 191 78q78 82 78 192.5t-78 188t-191 77.5q-109 0 -190 -78q-80 -77 -80 -188z" />
<glyph unicode="&#xa5;" horiz-adv-x="1302" d="M82 1493h190l379 -700l377 700h191l-318 -586h264v-123h-331l-84 -155v-51h415v-123h-413v-455h-201v455h-416v123h416v51l-84 155h-332v123h264z" />
<glyph unicode="&#xa6;" horiz-adv-x="688" d="M260 -350v758h170v-758h-170zM260 674v758h170v-758h-170z" />
<glyph unicode="&#xa7;" horiz-adv-x="1024" d="M92 723q0 90 47 162q47 74 137 121q-55 41 -88 100q-31 55 -30 125q0 129 100 209q102 80 266 80q78 0 150 -15q74 -14 155 -43v-164q-76 37 -155 58q-78 20 -127 20q-94 0 -152 -41q-53 -39 -53 -110q0 -90 207 -205q12 -6 18 -10t10.5 -7.5t10.5 -5.5 q212 -120 276 -196q66 -78 66 -178q0 -90 -45 -160t-140 -123q63 -55 91 -107q29 -57 28 -118q0 -141 -102.5 -225.5t-274.5 -84.5q-78 0 -149 15q-77 15 -166 43v164q78 -37 162 -58q82 -20 131 -20q102 0 158 43q57 45 57 117q0 102 -221 225l-25 14q-213 119 -278 197 q-64 76 -64 178zM254 754q0 -74 70 -142q71 -68 319 -202q66 47 94 90q31 46 31 92q0 76 -72 143q-72 70 -317 201q-66 -47 -94 -90q-31 -46 -31 -92z" />
<glyph unicode="&#xa8;" horiz-adv-x="1024" d="M215 1350v202h203v-202h-203zM606 1350v202h203v-202h-203z" />
<glyph unicode="&#xa9;" horiz-adv-x="2048" d="M283 741q0 152 55 285t162 240q109 109 241 164t283 55t283 -55q133 -55 241 -164q106 -106 161.5 -239.5t55.5 -285.5q0 -154 -55 -282q-59 -135 -162 -240q-109 -109 -241 -164t-283 -55t-283 55q-133 55 -241 164q-102 104 -162 240q-55 128 -55 282zM383 741.5 q0 -135.5 47 -243.5q49 -113 143 -207q96 -96 207 -141q117 -47 244 -48q129 0 246 48q111 45 207 141q92 94 139 207q47 117 47 243q0 129 -47 246q-47 115 -139 207q-96 96 -207 141q-117 47 -246 47q-127 0 -244 -47q-111 -45 -207 -141q-94 -94 -143 -209 q-47 -108 -47 -243.5zM582 741q0 211 125 330q127 121 342 121q78 0 141 -14q80 -18 133 -41v-129q-63 33 -131 49q-70 16 -131 16q-147 0 -231.5 -88t-84.5 -244q0 -160 86 -245q88 -88 240 -88q59 0 125 16q63 16 127 49v-127q-68 -28 -135 -43q-63 -14 -139 -14 q-217 0 -342 122.5t-125 329.5z" />
<glyph unicode="&#xaa;" horiz-adv-x="964" d="M115 946q0 137 96 205q95 68 283 68h182v4q0 92 -57.5 137t-176.5 45q-72 0 -131 -16q-72 -20 -135 -52v127q63 25 146 41q70 14 141 15q184 0 272 -88q90 -90 90 -267v-448h-149v112q-41 -61 -117 -98q-68 -33 -164 -33q-129 0 -204.5 67.5t-75.5 180.5zM139 469v123 h688v-123h-688zM262 958q0 -61 49 -102q47 -39 131 -39q102 0 168 72t66 186v29h-127q-160 0 -223.5 -33t-63.5 -113z" />
<glyph unicode="&#xab;" horiz-adv-x="1251" d="M158 559v82l469 418v-191l-301 -268l301 -268v-191zM592 559v82l469 418v-191l-301 -268l301 -268v-191z" />
<glyph unicode="&#xac;" d="M217 692v170h1282v-575h-168v405h-1114z" />
<glyph unicode="&#xad;" horiz-adv-x="737" d="M100 479v164h539v-164h-539z" />
<glyph unicode="&#xae;" horiz-adv-x="2048" d="M283 741q0 152 55 285t162 240q109 109 241 164t283 55t283 -55q133 -55 241 -164q106 -106 161.5 -239.5t55.5 -285.5q0 -154 -55 -282q-59 -135 -162 -240q-109 -109 -241 -164t-283 -55t-283 55q-133 55 -241 164q-102 104 -162 240q-55 128 -55 282zM383 741.5 q0 -135.5 47 -243.5q49 -113 143 -207q96 -96 207 -141q117 -47 244 -48q129 0 246 48q111 45 207 141q92 94 139 207q47 117 47 243q0 129 -47 246q-47 115 -139 207q-96 96 -207 141q-117 47 -246 47q-127 0 -244 -47q-111 -45 -207 -141q-94 -94 -143 -209 q-47 -108 -47 -243.5zM719 338v836h285q176 0 264 -60q86 -57 86 -180q0 -84 -54 -141q-52 -55 -147 -74q27 -10 57 -47q41 -49 80 -111l137 -223h-172l-129 209q-59 96 -96 121q-39 27 -90 26h-66v-356h-155zM874 795h123q111 0 154 30.5t43 106.5q0 78 -43 108.5 t-154 30.5h-123v-276z" />
<glyph unicode="&#xaf;" horiz-adv-x="1024" d="M213 1378v148h598v-148h-598z" />
<glyph unicode="&#xb0;" horiz-adv-x="1024" d="M195 1200q0 135 92 227.5t225 92.5q65 0 123 -25q61 -27 102 -70q51 -51 70 -102q23 -61 22 -123q0 -131 -92 -223t-227 -92t-225 90t-90 225zM322 1200q0 -78 55 -133t135 -55t135 55t55 133q0 80 -55 135.5t-135 55.5t-135 -55.5t-55 -135.5z" />
<glyph unicode="&#xb1;" d="M217 0v170h1282v-170h-1282zM217 727v170h557v387h168v-387h557v-170h-557v-387h-168v387h-557z" />
<glyph unicode="&#xb2;" horiz-adv-x="819" d="M94 668v110l96 86q344 304 345 400q0 68 -52 106q-53 41 -137 41q-51 0 -113 -18q-70 -20 -133 -52v123q63 23 144 41q63 14 123 15q143 0 231 -65.5t88 -174.5q0 -141 -332 -424l-86 -74h424v-114h-598z" />
<glyph unicode="&#xb3;" horiz-adv-x="819" d="M98 694v121q55 -29 111 -41q57 -12 127 -12q111 0 170 39t59 110q0 76 -55 113t-164 37h-86v108h94q92 0 141.5 31t49.5 92q0 57 -49.5 88t-145.5 31q-45 0 -92 -8q-27 -4 -131 -33v115q66 16 137 26q57 8 119 9q141 0 229 -60q84 -57 84 -157q0 -70 -45 -117t-127 -66 q92 -18 142 -73q51 -57 51 -136q0 -123 -94.5 -190.5t-272.5 -67.5q-51 0 -119 11q-63 10 -133 30z" />
<glyph unicode="&#xb4;" horiz-adv-x="1024" d="M371 1262l280 376h199l-326 -376h-153z" />
<glyph unicode="&#xb5;" horiz-adv-x="1302" d="M174 -426v1546h184v-696q0 -145 68 -219t205 -74q150 0 223 84q74 83 74 252v653h184v-862q0 -61 18 -88q18 -29 54 -29q9 0 24 6q2 0 18.5 6.5l26.5 10.5v-148q-43 -23 -77 -34q-31 -10 -72 -11q-72 0 -111 39q-41 41 -55 119q-49 -78 -123 -119q-72 -39 -170 -39 q-104 0 -174 39t-113 117v-553h-184z" />
<glyph unicode="&#xb6;" horiz-adv-x="1302" d="M158 1071q0 186 131 305q129 117 344 117h448v-1690h-141v1567h-190v-1567h-142v846q-217 18 -332 127q-118 113 -118 295z" />
<glyph unicode="&#xb7;" horiz-adv-x="649" d="M219 584v254h211v-254h-211z" />
<glyph unicode="&#xb8;" horiz-adv-x="1024" d="M291 -240q33 -18 71 -24q49 -8 84 -8q57 0 88 24.5t31 69.5q0 29 -22 74q-27 51 -66 104h119q51 -57 82 -115q27 -51 27 -100q0 -90 -59.5 -135t-178.5 -45q-47 0 -90 6t-86 18v131z" />
<glyph unicode="&#xb9;" horiz-adv-x="819" d="M137 1348v116l230 39h137v-725h205v-110h-553v110h204v611z" />
<glyph unicode="&#xba;" horiz-adv-x="964" d="M96 1108q0 190 104.5 301t282.5 111t283 -111q102 -109 102 -301.5t-102 -301t-283 -108.5q-178 0 -282.5 111t-104.5 299zM139 469v123h688v-123h-688zM252 1108q0 -135 63 -213q66 -80 168 -80q106 0 168 80t62 213q0 137 -61.5 217t-168.5 80q-102 0 -168 -80 q-63 -78 -63 -217z" />
<glyph unicode="&#xbb;" horiz-adv-x="1251" d="M193 141v191l301 268l-301 268v191l469 -418v-82zM627 141v191l301 268l-301 268v191l469 -418v-82z" />
<glyph unicode="&#xbc;" horiz-adv-x="1984" d="M137 1348v116l230 39h137v-725h205v-110h-553v110h204v611zM1226 186v121l392 528h166v-540h135v-109h-135v-186h-144v186h-414zM1331 295h309v419zM446 -29l932 1549h160l-932 -1549h-160z" />
<glyph unicode="&#xbd;" horiz-adv-x="1984" d="M137 1348v116l230 39h137v-725h205v-110h-553v110h204v611zM1257 0v110l96 86q344 304 345 400q0 68 -52 106q-53 41 -137 41q-51 0 -113 -18q-70 -20 -133 -52v123q63 23 144 41q63 14 123 15q143 0 231 -65.5t88 -174.5q0 -141 -332 -424l-86 -74h424v-114h-598z M446 -29l932 1549h160l-932 -1549h-160z" />
<glyph unicode="&#xbe;" horiz-adv-x="1984" d="M98 694v121q55 -29 111 -41q57 -12 127 -12q111 0 170 39t59 110q0 76 -55 113t-164 37h-86v108h94q92 0 141.5 31t49.5 92q0 57 -49.5 88t-145.5 31q-45 0 -92 -8q-27 -4 -131 -33v115q66 16 137 26q57 8 119 9q141 0 229 -60q84 -57 84 -157q0 -70 -45 -117t-127 -66 q92 -18 142 -73q51 -57 51 -136q0 -123 -94.5 -190.5t-272.5 -67.5q-51 0 -119 11q-63 10 -133 30zM1226 186v121l392 528h166v-540h135v-109h-135v-186h-144v186h-414zM1331 295h309v419zM446 -29l932 1549h160l-932 -1549h-160z" />
<glyph unicode="&#xbf;" horiz-adv-x="1085" d="M143 324q0 78 37 145q39 70 125 154l88 86q49 46 68 73q16 25 26 52q8 27 11 51q2 20 2 84v123h190v-156q0 -98 -28 -166q-29 -66 -117 -152l-90 -88q-57 -51 -84 -100q-25 -45 -25 -96q0 -88 66 -144q63 -55 174 -55q76 0 168 35q90 35 186 102v-188q-88 -55 -190 -84 q-98 -29 -199 -29q-186 0 -295 97q-113 100 -113 256zM494 1239v254h202v-254h-202z" />
<glyph unicode="&#xc0;" horiz-adv-x="1400" d="M16 0l570 1493h229l569 -1493h-210l-136 383h-673l-136 -383h-213zM426 551h549l-275 743zM456 1899h187l196 -264h-153z" />
<glyph unicode="&#xc1;" horiz-adv-x="1400" d="M16 0l570 1493h229l569 -1493h-210l-136 383h-673l-136 -383h-213zM426 551h549l-275 743zM559 1635l196 264h185l-228 -264h-153z" />
<glyph unicode="&#xc2;" horiz-adv-x="1400" d="M16 0l570 1493h229l569 -1493h-210l-136 383h-673l-136 -383h-213zM426 551h549l-275 743zM395 1635l211 266h188l211 -266h-139l-166 178l-166 -178h-139z" />
<glyph unicode="&#xc3;" horiz-adv-x="1400" d="M16 0l570 1493h229l569 -1493h-210l-136 383h-673l-136 -383h-213zM426 551h549l-275 743zM370 1667q0 102 51 160q53 59 138 59q41 0 67 -8q35 -10 78 -35l57 -30q23 -12 39 -19q18 -6 33 -6q31 0 51 25q20 23 21 67v6h125q-4 -104 -54 -159q-53 -59 -135 -60 q-37 0 -63 9q-37 10 -82 34l-57 33q-8 6 -41 19q-16 6 -27 6q-35 0 -55 -25q-20 -23 -21 -70v-6h-125z" />
<glyph unicode="&#xc4;" horiz-adv-x="1400" d="M16 0l570 1493h229l569 -1493h-210l-136 383h-673l-136 -383h-213zM426 551h549l-275 743zM403 1667v203h203v-203h-203zM794 1667v203h203v-203h-203z" />
<glyph unicode="&#xc5;" horiz-adv-x="1400" d="M16 0l533 1397q-61 40 -92 98q-31 57 -31 131q0 115 80 195t194.5 80t194.5 -80t80 -195q0 -71 -31 -129q-33 -61 -92 -100l532 -1397h-210l-136 383h-673l-136 -383h-213zM428 551h545l-273 743zM549 1626q0 -61 45 -106t106.5 -45t106.5 45t45 106.5t-45 106.5t-107 45 q-66 0 -108.5 -43t-42.5 -109z" />
<glyph unicode="&#xc6;" horiz-adv-x="1994" d="M8 0l625 1493h1212v-170h-741v-442h711v-170h-711v-541h760v-170h-963v383h-528l-160 -383h-205zM442 551h459v784h-129z" />
<glyph unicode="&#xc7;" horiz-adv-x="1429" d="M115 745.5q0 356.5 194 567.5q193 207 535 207q139 0 252 -35q121 -37 223 -107v-213q-102 96 -217 142q-119 47 -246 47q-256 0 -391 -156q-137 -160 -137 -452.5t137 -452.5q135 -156 391 -156q127 0 246 47q115 45 217 142v-211q-113 -74 -225.5 -109t-249.5 -35 q-342 0 -535 207q-194 211 -194 567.5zM592 -240q33 -18 71 -24q49 -8 84 -8q57 0 88 24.5t31 69.5q0 29 -22 74q-27 51 -66 104h119q51 -57 82 -115q27 -51 27 -100q0 -90 -59.5 -135t-178.5 -45q-47 0 -90 6t-86 18v131z" />
<glyph unicode="&#xc8;" horiz-adv-x="1292" d="M201 0v1493h944v-170h-742v-442h711v-170h-711v-541h760v-170h-962zM426 1899h187l196 -264h-153z" />
<glyph unicode="&#xc9;" horiz-adv-x="1292" d="M201 0v1493h944v-170h-742v-442h711v-170h-711v-541h760v-170h-962zM529 1635l196 264h185l-228 -264h-153z" />
<glyph unicode="&#xca;" horiz-adv-x="1292" d="M201 0v1493h944v-170h-742v-442h711v-170h-711v-541h760v-170h-962zM365 1635l211 266h188l211 -266h-139l-166 178l-166 -178h-139z" />
<glyph unicode="&#xcb;" horiz-adv-x="1292" d="M201 0v1493h944v-170h-742v-442h711v-170h-711v-541h760v-170h-962zM373 1667v203h203v-203h-203zM764 1667v203h203v-203h-203z" />
<glyph unicode="&#xcc;" horiz-adv-x="602" d="M201 0v1493h202v-1493h-202zM59 1899h187l196 -264h-153z" />
<glyph unicode="&#xcd;" horiz-adv-x="602" d="M201 0v1493h202v-1493h-202zM162 1635l196 264h185l-228 -264h-153z" />
<glyph unicode="&#xce;" horiz-adv-x="602" d="M201 0v1493h202v-1493h-202zM-2 1635l211 266h188l211 -266h-139l-166 178l-166 -178h-139z" />
<glyph unicode="&#xcf;" horiz-adv-x="602" d="M201 0v1493h202v-1493h-202zM6 1667v203h203v-203h-203zM397 1667v203h203v-203h-203z" />
<glyph unicode="&#xd0;" horiz-adv-x="1585" d="M10 700v144h201v649h416q436 0 637 -180q203 -181 202 -565q0 -385 -204 -568q-201 -180 -635 -180h-416v700h-201zM414 166h243q311 0 453 139q143 141 143 443q0 303 -143 440q-145 139 -453 139h-243v-483h336v-144h-336v-534z" />
<glyph unicode="&#xd1;" horiz-adv-x="1531" d="M201 0v1493h272l662 -1249v1249h196v-1493h-272l-662 1249v-1249h-196zM436 1667q0 102 51 160q53 59 138 59q41 0 67 -8q35 -10 78 -35l57 -30q23 -12 39 -19q18 -6 33 -6q31 0 51 25q20 23 21 67v6h125q-4 -104 -54 -159q-53 -59 -135 -60q-37 0 -63 9q-37 10 -82 34 l-57 33q-8 6 -41 19q-16 6 -27 6q-35 0 -55 -25q-20 -23 -21 -70v-6h-125z" />
<glyph unicode="&#xd2;" horiz-adv-x="1611" d="M115 745q0 350 188 564q186 211 504 211q315 0 502 -211q188 -213 188 -563.5t-188 -563.5q-186 -211 -502 -211t-504 209q-188 211 -188 565zM328 745.5q0 -282.5 129 -446.5t350 -164q219 0 348 164t129 446.5t-129 446.5t-348 164q-221 0 -350 -164t-129 -446.5z M563 1899h187l196 -264h-153z" />
<glyph unicode="&#xd3;" horiz-adv-x="1611" d="M115 745q0 350 188 564q186 211 504 211q315 0 502 -211q188 -213 188 -563.5t-188 -563.5q-186 -211 -502 -211t-504 209q-188 211 -188 565zM328 745.5q0 -282.5 129 -446.5t350 -164q219 0 348 164t129 446.5t-129 446.5t-348 164q-221 0 -350 -164t-129 -446.5z M666 1635l196 264h185l-228 -264h-153z" />
<glyph unicode="&#xd4;" horiz-adv-x="1611" d="M115 745q0 350 188 564q186 211 504 211q315 0 502 -211q188 -213 188 -563.5t-188 -563.5q-186 -211 -502 -211t-504 209q-188 211 -188 565zM328 745.5q0 -282.5 129 -446.5t350 -164q219 0 348 164t129 446.5t-129 446.5t-348 164q-221 0 -350 -164t-129 -446.5z M502 1635l211 266h188l211 -266h-139l-166 178l-166 -178h-139z" />
<glyph unicode="&#xd5;" horiz-adv-x="1611" d="M115 745q0 350 188 564q186 211 504 211q315 0 502 -211q188 -213 188 -563.5t-188 -563.5q-186 -211 -502 -211t-504 209q-188 211 -188 565zM328 745.5q0 -282.5 129 -446.5t350 -164q219 0 348 164t129 446.5t-129 446.5t-348 164q-221 0 -350 -164t-129 -446.5z M477 1667q0 102 51 160q53 59 138 59q41 0 67 -8q35 -10 78 -35l57 -30q23 -12 39 -19q18 -6 33 -6q31 0 51 25q20 23 21 67v6h125q-4 -104 -54 -159q-53 -59 -135 -60q-37 0 -63 9q-37 10 -82 34l-57 33q-8 6 -41 19q-16 6 -27 6q-35 0 -55 -25q-20 -23 -21 -70v-6h-125z " />
<glyph unicode="&#xd6;" horiz-adv-x="1611" d="M115 745q0 350 188 564q186 211 504 211q315 0 502 -211q188 -213 188 -563.5t-188 -563.5q-186 -211 -502 -211t-504 209q-188 211 -188 565zM328 745.5q0 -282.5 129 -446.5t350 -164q219 0 348 164t129 446.5t-129 446.5t-348 164q-221 0 -350 -164t-129 -446.5z M510 1667v203h203v-203h-203zM901 1667v203h203v-203h-203z" />
<glyph unicode="&#xd7;" d="M281 184l456 457l-456 459l118 121l459 -459l459 459l119 -121l-457 -459l457 -457l-119 -121l-459 459l-459 -459z" />
<glyph unicode="&#xd8;" horiz-adv-x="1611" d="M102 18l170 201q-80 106 -118 234q-39 129 -39 292q0 350 188 564q186 211 504 211q131 0 240 -39q117 -41 198 -113l162 191l102 -89l-170 -198q78 -104 117 -236q41 -135 41 -291q0 -350 -188 -563q-186 -211 -502 -211q-127 0 -238 37q-106 35 -202 113l-162 -191z M328 745q0 -100 20 -206q18 -96 58 -162l718 848q-61 65 -141 98q-78 33 -176 33q-221 0 -350 -164t-129 -447zM489 266q61 -65 142 -98q78 -33 176 -33q219 0 348 164t129 446q0 100 -20 203q-18 96 -58 164z" />
<glyph unicode="&#xd9;" horiz-adv-x="1497" d="M178 561v932h203v-907q0 -240 88 -346q86 -104 280.5 -104.5t280.5 104.5q88 106 88 346v907h203v-932q0 -289 -145 -440q-143 -150 -426 -150q-285 0 -428.5 149.5t-143.5 440.5zM506 1899h187l196 -264h-153z" />
<glyph unicode="&#xda;" horiz-adv-x="1497" d="M178 561v932h203v-907q0 -240 88 -346q86 -104 280.5 -104.5t280.5 104.5q88 106 88 346v907h203v-932q0 -289 -145 -440q-143 -150 -426 -150q-285 0 -428.5 149.5t-143.5 440.5zM609 1635l196 264h185l-228 -264h-153z" />
<glyph unicode="&#xdb;" horiz-adv-x="1497" d="M178 561v932h203v-907q0 -240 88 -346q86 -104 280.5 -104.5t280.5 104.5q88 106 88 346v907h203v-932q0 -289 -145 -440q-143 -150 -426 -150q-285 0 -428.5 149.5t-143.5 440.5zM445 1635l211 266h188l211 -266h-139l-166 178l-166 -178h-139z" />
<glyph unicode="&#xdc;" horiz-adv-x="1497" d="M178 561v932h203v-907q0 -240 88 -346q86 -104 280.5 -104.5t280.5 104.5q88 106 88 346v907h203v-932q0 -289 -145 -440q-143 -150 -426 -150q-285 0 -428.5 149.5t-143.5 440.5zM453 1667v203h203v-203h-203zM844 1667v203h203v-203h-203z" />
<glyph unicode="&#xdd;" horiz-adv-x="1249" d="M-4 1493h217l414 -614l411 614h217l-528 -782v-711h-203v711zM486 1635l196 264h185l-228 -264h-153z" />
<glyph unicode="&#xde;" horiz-adv-x="1236" d="M201 0v1493h202v-264h254q252 0 379 -113q129 -113 129 -332t-129 -333q-127 -113 -379 -113h-254v-338h-202zM403 504h254q141 0 217 74q78 74 78 207t-78 206q-74 72 -217 72h-254v-559z" />
<glyph unicode="&#xdf;" horiz-adv-x="1288" d="M186 0v1137q0 199 119 309q120 111 338 110q207 0 318 -116q109 -115 112 -340q-156 -10 -235 -66q-84 -59 -84 -153q0 -47 28 -88q25 -35 95 -82l57 -37q168 -109 215 -176.5t47 -171.5q0 -170 -112.5 -262.5t-323.5 -92.5q-63 0 -131 12.5t-142 36.5v164 q76 -29 150 -45q66 -14 135 -14q113 0 176 47q59 45 60 139q0 63 -29 105q-31 45 -131 104l-92 55q-96 59 -139.5 127t-43.5 158q0 125 84 213t234 115q-9 104 -73.5 159.5t-178.5 55.5q-131 0 -199 -70q-68 -72 -67 -200v-1133h-187z" />
<glyph unicode="&#xe0;" horiz-adv-x="1253" d="M123 326q0 188 127 284.5t377 96.5h258v18q0 125 -84 197q-82 70 -234 69q-90 0 -186 -22q-88 -20 -176 -70v170q106 41 196 59q95 18 185 19q244 0 362 -125q121 -127 121 -383v-639h-184v170q-66 -102 -158 -150q-96 -49 -229 -49q-170 0 -272.5 96.5t-102.5 258.5z M307 338q0 -98 63.5 -155.5t176.5 -57.5q154 0 246 108t92 289v41h-183q-225 0 -309 -51q-86 -53 -86 -174zM252 1638h197l282 -374h-153z" />
<glyph unicode="&#xe1;" horiz-adv-x="1253" d="M123 326q0 188 127 284.5t377 96.5h258v18q0 125 -84 197q-82 70 -234 69q-90 0 -186 -22q-88 -20 -176 -70v170q106 41 196 59q95 18 185 19q244 0 362 -125q121 -127 121 -383v-639h-184v170q-66 -102 -158 -150q-96 -49 -229 -49q-170 0 -272.5 96.5t-102.5 258.5z M307 338q0 -98 63.5 -155.5t176.5 -57.5q154 0 246 108t92 289v41h-183q-225 0 -309 -51q-86 -53 -86 -174zM453 1262l280 376h199l-326 -376h-153z" />
<glyph unicode="&#xe2;" horiz-adv-x="1253" d="M123 326q0 188 127 284.5t377 96.5h258v18q0 125 -84 197q-82 70 -234 69q-90 0 -186 -22q-88 -20 -176 -70v170q106 41 196 59q95 18 185 19q244 0 362 -125q121 -127 121 -383v-639h-184v170q-66 -102 -158 -150q-96 -49 -229 -49q-170 0 -272.5 96.5t-102.5 258.5z M307 338q0 -98 63.5 -155.5t176.5 -57.5q154 0 246 108t92 289v41h-183q-225 0 -309 -51q-86 -53 -86 -174zM275 1262l245 376h148l245 -376h-139l-180 245l-180 -245h-139z" />
<glyph unicode="&#xe3;" horiz-adv-x="1253" d="M123 326q0 188 127 284.5t377 96.5h258v18q0 125 -84 197q-82 70 -234 69q-90 0 -186 -22q-88 -20 -176 -70v170q106 41 196 59q95 18 185 19q244 0 362 -125q121 -127 121 -383v-639h-184v170q-66 -102 -158 -150q-96 -49 -229 -49q-170 0 -272.5 96.5t-102.5 258.5z M307 338q0 -98 63.5 -155.5t176.5 -57.5q154 0 246 108t92 289v41h-183q-225 0 -309 -51q-86 -53 -86 -174zM264 1309q4 137 54 209q51 74 141 73q41 0 69 -14q41 -20 70 -47l57 -55q12 -12 39 -29q16 -10 29 -10q37 0 55 37q16 35 21 118h125q-4 -137 -54 -209 q-51 -74 -141 -73q-41 0 -69 14q-41 20 -70 47l-57 55q-12 12 -39 29q-16 10 -29 10q-37 0 -55 -37q-16 -35 -21 -118h-125z" />
<glyph unicode="&#xe4;" horiz-adv-x="1253" d="M123 326q0 188 127 284.5t377 96.5h258v18q0 125 -84 197q-82 70 -234 69q-90 0 -186 -22q-88 -20 -176 -70v170q106 41 196 59q95 18 185 19q244 0 362 -125q121 -127 121 -383v-639h-184v170q-66 -102 -158 -150q-96 -49 -229 -49q-170 0 -272.5 96.5t-102.5 258.5z M307 338q0 -98 63.5 -155.5t176.5 -57.5q154 0 246 108t92 289v41h-183q-225 0 -309 -51q-86 -53 -86 -174zM297 1350v202h203v-202h-203zM688 1350v202h203v-202h-203z" />
<glyph unicode="&#xe5;" horiz-adv-x="1253" d="M123 326q0 188 127 284.5t377 96.5h258v18q0 125 -84 197q-82 70 -234 69q-90 0 -186 -22q-88 -20 -176 -70v170q106 41 196 59q95 18 185 19q244 0 362 -125q121 -127 121 -383v-639h-184v170q-66 -102 -158 -150q-96 -49 -229 -49q-170 0 -272.5 96.5t-102.5 258.5z M307 338q0 -98 63.5 -155.5t176.5 -57.5q154 0 246 108t92 289v41h-183q-225 0 -309 -51q-86 -53 -86 -174zM320 1524q0 115 79.5 194.5t194.5 79.5t194.5 -80t79.5 -194.5t-79.5 -194.5t-194.5 -80t-194.5 80t-79.5 195zM442 1523.5q0 -65.5 43 -108.5t109 -43t109 43 t43 109q0 63 -43 106q-45 45 -109 45q-66 0 -109 -43t-43 -108.5z" />
<glyph unicode="&#xe6;" horiz-adv-x="2009" d="M123 326q0 188 127 284.5t377 96.5h258v18q0 125 -84 197q-82 70 -234 69q-90 0 -186 -22q-88 -20 -176 -70v170q106 41 196 59q95 18 185 19q145 0 248 -47q106 -49 161 -137q78 92 181 137q111 47 237 47q225 0 359 -146q131 -143 131 -395v-90h-846q12 -188 114 -291 q100 -100 285 -100q106 0 205 27q92 25 199 79v-174q-100 -43 -203 -63q-109 -23 -211 -23q-172 0 -291 60q-125 63 -201 180q-72 -117 -182 -180q-104 -59 -250 -60q-190 0 -294.5 92.5t-104.5 262.5zM307 338q0 -98 63.5 -155.5t176.5 -57.5q154 0 246 108t92 289v41h-183 q-225 0 -309 -51q-86 -53 -86 -174zM1063 659h655q0 152 -84 242t-219 90q-152 0 -246 -88q-90 -84 -106 -244z" />
<glyph unicode="&#xe7;" horiz-adv-x="1124" d="M113 559q0 272 151.5 430t411.5 158q94 0 166 -17q78 -18 157 -53v-172q-72 41 -157 64q-84 23 -158 22q-180 0 -278.5 -114.5t-98.5 -317.5q0 -206 99 -319q98 -113 278 -113q74 0 158 23q86 23 157 63v-170q-70 -33 -159 -53q-82 -18 -176 -19q-252 0 -401.5 158 t-149.5 430zM434 -240q33 -18 71 -24q49 -8 84 -8q57 0 88 24.5t31 69.5q0 29 -22 74q-27 51 -66 104h119q51 -57 82 -115q27 -51 27 -100q0 -90 -59.5 -135t-178.5 -45q-47 0 -90 6t-86 18v131z" />
<glyph unicode="&#xe8;" horiz-adv-x="1259" d="M113 549q0 270 149 436q147 162 400 162q225 0 358 -146q131 -143 131 -395v-90h-846q12 -188 115 -289q104 -100 285 -100q100 0 206 27q94 25 197 77v-174q-94 -41 -202.5 -63.5t-211.5 -22.5q-268 0 -424 156q-157 158 -157 422zM311 659h656q-4 156 -84 242 q-84 90 -219 90q-152 0 -246 -88q-91 -84 -107 -244zM309 1638h197l282 -374h-153z" />
<glyph unicode="&#xe9;" horiz-adv-x="1259" d="M113 549q0 270 149 436q147 162 400 162q225 0 358 -146q131 -143 131 -395v-90h-846q12 -188 115 -289q104 -100 285 -100q100 0 206 27q94 25 197 77v-174q-94 -41 -202.5 -63.5t-211.5 -22.5q-268 0 -424 156q-157 158 -157 422zM311 659h656q-4 156 -84 242 q-84 90 -219 90q-152 0 -246 -88q-91 -84 -107 -244zM510 1262l280 376h199l-326 -376h-153z" />
<glyph unicode="&#xea;" horiz-adv-x="1259" d="M113 549q0 270 149 436q147 162 400 162q225 0 358 -146q131 -143 131 -395v-90h-846q12 -188 115 -289q104 -100 285 -100q100 0 206 27q94 25 197 77v-174q-94 -41 -202.5 -63.5t-211.5 -22.5q-268 0 -424 156q-157 158 -157 422zM311 659h656q-4 156 -84 242 q-84 90 -219 90q-152 0 -246 -88q-91 -84 -107 -244zM332 1262l245 376h148l245 -376h-139l-180 245l-180 -245h-139z" />
<glyph unicode="&#xeb;" horiz-adv-x="1259" d="M113 549q0 270 149 436q147 162 400 162q225 0 358 -146q131 -143 131 -395v-90h-846q12 -188 115 -289q104 -100 285 -100q100 0 206 27q94 25 197 77v-174q-94 -41 -202.5 -63.5t-211.5 -22.5q-268 0 -424 156q-157 158 -157 422zM311 659h656q-4 156 -84 242 q-84 90 -219 90q-152 0 -246 -88q-91 -84 -107 -244zM354 1350v202h203v-202h-203zM745 1350v202h203v-202h-203z" />
<glyph unicode="&#xec;" horiz-adv-x="567" d="M-57 1638h197l282 -374h-153zM193 0v1120h184v-1120h-184zM285 1147z" />
<glyph unicode="&#xed;" horiz-adv-x="567" d="M144 1262l280 376h199l-326 -376h-153zM193 0v1120h184v-1120h-184zM285 1147z" />
<glyph unicode="&#xee;" horiz-adv-x="567" d="M193 0v1120h184v-1120h-184zM285 1147zM-34 1262l245 376h148l245 -376h-139l-180 245l-180 -245h-139z" />
<glyph unicode="&#xef;" horiz-adv-x="567" d="M193 0v1120h184v-1120h-184zM285 1147zM-12 1350v202h203v-202h-203zM379 1350v202h203v-202h-203z" />
<glyph unicode="&#xf0;" horiz-adv-x="1251" d="M113 537q0 248 139 405q137 156 358 156q27 0 43 -2q2 0 28 -3t42 -6l-160 181l-319 -107l-33 99l281 92l-181 204h228l127 -145l333 111l33 -97l-295 -98l164 -186q123 -141 182 -287q57 -141 58 -317q0 -254 -141.5 -410t-373 -156t-372.5 156t-141 410zM307 537 q0 -188 86 -299t234 -111q145 0 231 111q88 113 88 299q0 125 -26 217q-29 96 -82 161q-27 10 -95 25q-39 8 -84 8q-168 0 -260 -108q-92 -106 -92 -303z" />
<glyph unicode="&#xf1;" horiz-adv-x="1296" d="M186 0v1120h185v-174q63 100 155 152q88 49 207 49q193 0 291 -119q100 -123 100 -352v-676h-184v670q0 158 -61.5 237.5t-186.5 79.5q-150 0 -235.5 -94t-85.5 -260v-633h-185zM334 1309q4 137 54 209q51 74 141 73q41 0 69 -14q41 -20 70 -47l57 -55q12 -12 39 -29 q16 -10 29 -10q37 0 55 37q16 35 21 118h125q-4 -137 -54 -209q-51 -74 -141 -73q-41 0 -69 14q-41 20 -70 47l-57 55q-12 12 -39 29q-16 10 -29 10q-37 0 -55 -37q-16 -35 -21 -118h-125z" />
<glyph unicode="&#xf2;" horiz-adv-x="1251" d="M113 559q0 272 137 432q135 156 377 156q240 0 377 -155.5t137 -432t-137.5 -432.5t-376.5 -156q-242 0 -377 156q-137 160 -137 432zM307 559q0 -201 86 -317q84 -115 234 -115q147 0 233 116.5t86 315.5t-86 315.5t-233.5 116.5t-233.5 -116.5t-86 -315.5zM285 1638 h197l282 -374h-153z" />
<glyph unicode="&#xf3;" horiz-adv-x="1251" d="M113 559q0 272 137 432q135 156 377 156q240 0 377 -155.5t137 -432t-137.5 -432.5t-376.5 -156q-242 0 -377 156q-137 160 -137 432zM307 559q0 -201 86 -317q84 -115 234 -115q147 0 233 116.5t86 315.5t-86 315.5t-233.5 116.5t-233.5 -116.5t-86 -315.5zM486 1262 l280 376h199l-326 -376h-153z" />
<glyph unicode="&#xf4;" horiz-adv-x="1251" d="M113 559q0 272 137 432q135 156 377 156q240 0 377 -155.5t137 -432t-137.5 -432.5t-376.5 -156q-242 0 -377 156q-137 160 -137 432zM307 559q0 -201 86 -317q84 -115 234 -115q147 0 233 116.5t86 315.5t-86 315.5t-233.5 116.5t-233.5 -116.5t-86 -315.5zM308 1262 l245 376h148l245 -376h-139l-180 245l-180 -245h-139z" />
<glyph unicode="&#xf5;" horiz-adv-x="1251" d="M113 559q0 272 137 432q135 156 377 156q240 0 377 -155.5t137 -432t-137.5 -432.5t-376.5 -156q-242 0 -377 156q-137 160 -137 432zM307 559q0 -201 86 -317q84 -115 234 -115q147 0 233 116.5t86 315.5t-86 315.5t-233.5 116.5t-233.5 -116.5t-86 -315.5zM297 1309 q4 137 54 209q51 74 141 73q41 0 69 -14q41 -20 70 -47l57 -55q12 -12 39 -29q16 -10 29 -10q37 0 55 37q16 35 21 118h125q-4 -137 -54 -209q-51 -74 -141 -73q-41 0 -69 14q-41 20 -70 47l-57 55q-12 12 -39 29q-16 10 -29 10q-37 0 -55 -37q-16 -35 -21 -118h-125z" />
<glyph unicode="&#xf6;" horiz-adv-x="1251" d="M113 559q0 272 137 432q135 156 377 156q240 0 377 -155.5t137 -432t-137.5 -432.5t-376.5 -156q-242 0 -377 156q-137 160 -137 432zM307 559q0 -201 86 -317q84 -115 234 -115q147 0 233 116.5t86 315.5t-86 315.5t-233.5 116.5t-233.5 -116.5t-86 -315.5zM330 1350 v202h203v-202h-203zM721 1350v202h203v-202h-203z" />
<glyph unicode="&#xf7;" d="M217 557v170h1282v-170h-1282zM735 150v245h246v-245h-246zM735 889v246h246v-246h-246z" />
<glyph unicode="&#xf8;" horiz-adv-x="1251" d="M72 -16l149 182q-53 74 -82 176q-27 94 -26 217q0 272 137 432q135 156 377 156q92 0 172 -25q78 -25 147 -78l139 168l95 -79l-146 -179q51 -76 80 -176q27 -94 27 -219q0 -276 -137.5 -432t-376.5 -156q-90 0 -176 27q-80 25 -144 76l-139 -168zM307 545 q0 -66 10.5 -127.5t28.5 -100.5l488 592q-45 43 -93 62q-49 20 -114 20q-150 0 -236 -117q-84 -114 -84 -329zM418 209q35 -39 92 -62q49 -20 117 -20q147 0 233 116.5t86 315.5q0 72 -10 137q-9 58 -31 105z" />
<glyph unicode="&#xf9;" horiz-adv-x="1296" d="M174 442v678h184v-671q0 -158 61.5 -238t186.5 -80q150 0 236 94t86 260v635h184v-1120h-184v172q-70 -104 -156 -152q-88 -49 -205 -49q-193 0 -293 119t-100 352zM637 1147zM293 1638h197l282 -374h-153z" />
<glyph unicode="&#xfa;" horiz-adv-x="1296" d="M174 442v678h184v-671q0 -158 61.5 -238t186.5 -80q150 0 236 94t86 260v635h184v-1120h-184v172q-70 -104 -156 -152q-88 -49 -205 -49q-193 0 -293 119t-100 352zM637 1147zM494 1262l280 376h199l-326 -376h-153z" />
<glyph unicode="&#xfb;" horiz-adv-x="1296" d="M174 442v678h184v-671q0 -158 61.5 -238t186.5 -80q150 0 236 94t86 260v635h184v-1120h-184v172q-70 -104 -156 -152q-88 -49 -205 -49q-193 0 -293 119t-100 352zM637 1147zM316 1262l245 376h148l245 -376h-139l-180 245l-180 -245h-139z" />
<glyph unicode="&#xfc;" horiz-adv-x="1296" d="M174 442v678h184v-671q0 -158 61.5 -238t186.5 -80q150 0 236 94t86 260v635h184v-1120h-184v172q-70 -104 -156 -152q-88 -49 -205 -49q-193 0 -293 119t-100 352zM637 1147zM338 1350v202h203v-202h-203zM729 1350v202h203v-202h-203z" />
<glyph unicode="&#xfd;" horiz-adv-x="1210" d="M61 1120h195l350 -876l350 876h195l-492 -1224q-76 -197 -151 -261q-74 -61 -199 -61h-147v154h108q74 0 117 36.5t94 169.5l33 84zM465 1262l280 376h199l-326 -376h-153z" />
<glyph unicode="&#xfe;" horiz-adv-x="1298" d="M186 -426v1982h185v-606q55 96 147 148q88 49 211 49q203 0 332 -162q127 -160 127 -426t-127 -426q-129 -162 -332 -162q-123 0 -211 49q-92 51 -147 148v-594h-185zM371 559q0 -201 84 -319q82 -115 229 -115t229 115q84 119 84 319q0 199 -84 318q-82 117 -229 116.5 t-229 -116.5q-84 -119 -84 -318z" />
<glyph unicode="&#xff;" horiz-adv-x="1210" d="M61 1120h195l350 -876l350 876h195l-492 -1224q-76 -197 -151 -261q-74 -61 -199 -61h-147v154h108q74 0 117 36.5t94 169.5l33 84zM309 1350v202h203v-202h-203zM700 1350v202h203v-202h-203z" />
<glyph unicode="&#x100;" horiz-adv-x="1400" d="M401 1693v148h598v-148h-598zM16 0l570 1493h229l569 -1493h-210l-136 383h-673l-136 -383h-213zM426 551h549l-275 743z" />
<glyph unicode="&#x101;" horiz-adv-x="1253" d="M287 1378v148h598v-148h-598zM123 326q0 188 127 284.5t377 96.5h258v18q0 125 -84 197q-82 70 -234 69q-90 0 -186 -22q-88 -20 -176 -70v170q106 41 196 59q95 18 185 19q244 0 362 -125q121 -127 121 -383v-639h-184v170q-66 -102 -158 -150q-96 -49 -229 -49 q-170 0 -272.5 96.5t-102.5 258.5zM307 338q0 -98 63.5 -155.5t176.5 -57.5q154 0 246 108t92 289v41h-183q-225 0 -309 -51q-86 -53 -86 -174z" />
<glyph unicode="&#x102;" horiz-adv-x="1400" d="M406 1938h118q12 -78 60 -113q49 -37 135 -37q84 0 133 37t62 113h118q-8 -143 -90 -215t-223 -72t-223 72t-90 215zM16 0l570 1493h229l569 -1493h-210l-136 383h-673l-136 -383h-213zM426 551h549l-275 743z" />
<glyph unicode="&#x103;" horiz-adv-x="1253" d="M279 1567h118q12 -78 60 -113q49 -37 135 -37q84 0 133 37t62 113h118q-8 -143 -90 -215t-223 -72t-223 72t-90 215zM123 326q0 188 127 284.5t377 96.5h258v18q0 125 -84 197q-82 70 -234 69q-90 0 -186 -22q-88 -20 -176 -70v170q106 41 196 59q95 18 185 19 q244 0 362 -125q121 -127 121 -383v-639h-184v170q-66 -102 -158 -150q-96 -49 -229 -49q-170 0 -272.5 96.5t-102.5 258.5zM307 338q0 -98 63.5 -155.5t176.5 -57.5q154 0 246 108t92 289v41h-183q-225 0 -309 -51q-86 -53 -86 -174z" />
<glyph unicode="&#x104;" horiz-adv-x="1400" d="M16 0l570 1493h229l569 -1493h-210l-136 383h-673l-136 -383h-213zM426 551h549l-275 743zM1071 -215q0 49 26 100q31 57 82 115h119q-46 -61 -67 -104q-20 -41 -21 -76q0 -49 27 -70q29 -23 82 -22q23 0 63 8q27 6 62 22v-133q-18 -4 -72 -14q-35 -6 -64 -6 q-123 0 -180 43t-57 137z" />
<glyph unicode="&#x105;" horiz-adv-x="1253" d="M123 326q0 188 127 284.5t377 96.5h258v18q0 125 -84 197q-82 70 -234 69q-90 0 -186 -22q-88 -20 -176 -70v170q106 41 196 59q95 18 185 19q244 0 362 -125q121 -127 121 -383v-639h-184v170q-66 -102 -158 -150q-96 -49 -229 -49q-170 0 -272.5 96.5t-102.5 258.5z M307 338q0 -98 63.5 -155.5t176.5 -57.5q154 0 246 108t92 289v41h-183q-225 0 -309 -51q-86 -53 -86 -174zM778 -215q0 49 26 100q31 57 82 115h119q-46 -61 -67 -104q-20 -41 -21 -76q0 -49 27 -70q29 -23 82 -22q23 0 63 8q27 6 62 22v-133q-18 -4 -72 -14q-35 -6 -64 -6 q-123 0 -180 43t-57 137z" />
<glyph unicode="&#x106;" horiz-adv-x="1429" d="M115 745.5q0 356.5 194 567.5q193 207 535 207q139 0 252 -35q121 -37 223 -107v-213q-102 96 -217 142q-119 47 -246 47q-256 0 -391 -156q-137 -160 -137 -452.5t137 -452.5q135 -156 391 -156q127 0 246 47q115 45 217 142v-211q-113 -74 -225.5 -109t-249.5 -35 q-342 0 -535 207q-194 211 -194 567.5zM672 1635l196 264h185l-228 -264h-153z" />
<glyph unicode="&#x107;" horiz-adv-x="1124" d="M113 559q0 272 151.5 430t411.5 158q94 0 166 -17q78 -18 157 -53v-172q-72 41 -157 64q-84 23 -158 22q-180 0 -278.5 -114.5t-98.5 -317.5q0 -206 99 -319q98 -113 278 -113q74 0 158 23q86 23 157 63v-170q-70 -33 -159 -53q-82 -18 -176 -19q-252 0 -401.5 158 t-149.5 430zM508 1262l280 376h199l-326 -376h-153z" />
<glyph unicode="&#x108;" horiz-adv-x="1429" d="M539 1635l211 266h188l211 -266h-139l-166 178l-166 -178h-139zM115 745.5q0 356.5 194 567.5q193 207 535 207q139 0 252 -35q121 -37 223 -107v-213q-102 96 -217 142q-119 47 -246 47q-256 0 -391 -156q-137 -160 -137 -452.5t137 -452.5q135 -156 391 -156 q127 0 246 47q115 45 217 142v-211q-113 -74 -225.5 -109t-249.5 -35q-342 0 -535 207q-194 211 -194 567.5z" />
<glyph unicode="&#x109;" horiz-adv-x="1124" d="M113 559q0 272 151.5 430t411.5 158q94 0 166 -17q78 -18 157 -53v-172q-72 41 -157 64q-84 23 -158 22q-180 0 -278.5 -114.5t-98.5 -317.5q0 -206 99 -319q98 -113 278 -113q74 0 158 23q86 23 157 63v-170q-70 -33 -159 -53q-82 -18 -176 -19q-252 0 -401.5 158 t-149.5 430zM357 1262l245 376h148l245 -376h-139l-180 245l-180 -245h-139z" />
<glyph unicode="&#x10a;" horiz-adv-x="1429" d="M115 745.5q0 356.5 194 567.5q193 207 535 207q139 0 252 -35q121 -37 223 -107v-213q-102 96 -217 142q-119 47 -246 47q-256 0 -391 -156q-137 -160 -137 -452.5t137 -452.5q135 -156 391 -156q127 0 246 47q115 45 217 142v-211q-113 -74 -225.5 -109t-249.5 -35 q-342 0 -535 207q-194 211 -194 567.5zM742 1667v205h204v-205h-204z" />
<glyph unicode="&#x10b;" horiz-adv-x="1124" d="M113 559q0 272 151.5 430t411.5 158q94 0 166 -17q78 -18 157 -53v-172q-72 41 -157 64q-84 23 -158 22q-180 0 -278.5 -114.5t-98.5 -317.5q0 -206 99 -319q98 -113 278 -113q74 0 158 23q86 23 157 63v-170q-70 -33 -159 -53q-82 -18 -176 -19q-252 0 -401.5 158 t-149.5 430zM574 1348v204h204v-204h-204z" />
<glyph unicode="&#x10c;" horiz-adv-x="1429" d="M115 745.5q0 356.5 194 567.5q193 207 535 207q139 0 252 -35q121 -37 223 -107v-213q-102 96 -217 142q-119 47 -246 47q-256 0 -391 -156q-137 -160 -137 -452.5t137 -452.5q135 -156 391 -156q127 0 246 47q115 45 217 142v-211q-113 -74 -225.5 -109t-249.5 -35 q-342 0 -535 207q-194 211 -194 567.5zM508 1901h139l166 -178l166 178h139l-211 -266h-188z" />
<glyph unicode="&#x10d;" horiz-adv-x="1124" d="M113 559q0 272 151.5 430t411.5 158q94 0 166 -17q78 -18 157 -53v-172q-72 41 -157 64q-84 23 -158 22q-180 0 -278.5 -114.5t-98.5 -317.5q0 -206 99 -319q98 -113 278 -113q74 0 158 23q86 23 157 63v-170q-70 -33 -159 -53q-82 -18 -176 -19q-252 0 -401.5 158 t-149.5 430zM330 1638h139l180 -245l180 245h139l-245 -376h-148z" />
<glyph unicode="&#x10e;" horiz-adv-x="1576" d="M201 0v1493h415q436 0 637 -180q203 -181 203 -565q0 -385 -205 -568q-201 -180 -635 -180h-415zM403 166h244q311 0 453 139q143 141 143 443q0 303 -143 440q-145 139 -453 139h-244v-1161zM443 1921h139l166 -178l166 178h139l-211 -266h-188z" />
<glyph unicode="&#x10f;" horiz-adv-x="1298" d="M113 559q0 266 127 426q129 162 331 162q125 0 213 -49t146 -148v606h184v-1556h-184v168q-57 -98 -145.5 -147.5t-213.5 -49.5q-203 0 -331 162q-127 160 -127 426zM303 559q0 -201 84 -319q82 -115 229.5 -115t229.5 115q84 119 84 319q0 199 -84 318 q-84 117 -229.5 116.5t-229.5 -116.5q-84 -119 -84 -318zM1228 1178l72 376h199l-117 -376h-154z" />
<glyph unicode="&#x110;" horiz-adv-x="1585" d="M10 700v144h201v649h416q436 0 637 -180q203 -181 202 -565q0 -385 -204 -568q-201 -180 -635 -180h-416v700h-201zM414 166h243q311 0 453 139q143 141 143 443q0 303 -143 440q-145 139 -453 139h-243v-483h336v-144h-336v-534z" />
<glyph unicode="&#x111;" horiz-adv-x="1298" d="M113 559q0 266 127 426q129 162 331 162q125 0 213 -49t146 -148v334h-326v125h326v147h184v-147h154v-125h-154v-1284h-184v168q-57 -98 -145.5 -147.5t-213.5 -49.5q-203 0 -331 162q-127 160 -127 426zM303 559q0 -201 84 -319q82 -115 229.5 -115t229.5 115 q84 119 84 319q0 199 -84 318q-84 117 -229.5 116.5t-229.5 -116.5q-84 -119 -84 -318z" />
<glyph unicode="&#x112;" horiz-adv-x="1292" d="M201 0v1493h944v-170h-742v-442h711v-170h-711v-541h760v-170h-962zM375 1695v148h598v-148h-598z" />
<glyph unicode="&#x113;" horiz-adv-x="1259" d="M363 1378v148h598v-148h-598zM113 549q0 270 149 436q147 162 400 162q225 0 358 -146q131 -143 131 -395v-90h-846q12 -188 115 -289q104 -100 285 -100q100 0 206 27q94 25 197 77v-174q-94 -41 -202.5 -63.5t-211.5 -22.5q-268 0 -424 156q-157 158 -157 422zM311 659 h656q-4 156 -84 242q-84 90 -219 90q-152 0 -246 -88q-91 -84 -107 -244z" />
<glyph unicode="&#x114;" horiz-adv-x="1292" d="M361 1901h118q12 -53 62 -82q51 -29 133 -29q84 0 131 26.5t64 84.5h118q-8 -119 -90 -180q-80 -61 -223 -61.5t-223 61.5q-82 61 -90 180zM201 0v1493h944v-170h-742v-442h711v-170h-711v-541h760v-170h-962z" />
<glyph unicode="&#x115;" horiz-adv-x="1259" d="M349 1608h118q12 -78 60 -113q49 -37 135 -37q84 0 133 37t62 113h118q-8 -143 -90 -215t-223 -72t-223 72t-90 215zM113 549q0 270 149 436q147 162 400 162q225 0 358 -146q131 -143 131 -395v-90h-846q12 -188 115 -289q104 -100 285 -100q100 0 206 27q94 25 197 77 v-174q-94 -41 -202.5 -63.5t-211.5 -22.5q-268 0 -424 156q-157 158 -157 422zM311 659h656q-4 156 -84 242q-84 90 -219 90q-152 0 -246 -88q-91 -84 -107 -244z" />
<glyph unicode="&#x116;" horiz-adv-x="1292" d="M201 0v1493h944v-170h-742v-442h711v-170h-711v-541h760v-170h-962zM572 1667v205h204v-205h-204z" />
<glyph unicode="&#x117;" horiz-adv-x="1259" d="M113 549q0 270 149 436q147 162 400 162q225 0 358 -146q131 -143 131 -395v-90h-846q12 -188 115 -289q104 -100 285 -100q100 0 206 27q94 25 197 77v-174q-94 -41 -202.5 -63.5t-211.5 -22.5q-268 0 -424 156q-157 158 -157 422zM311 659h656q-4 156 -84 242 q-84 90 -219 90q-152 0 -246 -88q-91 -84 -107 -244zM560 1348v204h204v-204h-204z" />
<glyph unicode="&#x118;" horiz-adv-x="1292" d="M201 0v1493h944v-170h-742v-442h711v-170h-711v-541h760v-170h-962zM793 -215q0 49 26 100q31 57 82 115h119q-46 -61 -67 -104q-20 -41 -21 -76q0 -49 27 -70q29 -23 82 -22q23 0 63 8q27 6 62 22v-133q-18 -4 -72 -14q-35 -6 -64 -6q-123 0 -180 43t-57 137z" />
<glyph unicode="&#x119;" horiz-adv-x="1259" d="M113 549q0 270 149 436q147 162 400 162q225 0 358 -146q131 -143 131 -395v-90h-846q12 -188 115 -289q104 -100 285 -100q100 0 206 27q94 25 197 77v-174q-94 -41 -202.5 -63.5t-211.5 -22.5q-268 0 -424 156q-157 158 -157 422zM311 659h656q-4 156 -84 242 q-84 90 -219 90q-152 0 -246 -88q-91 -84 -107 -244zM709 -215q0 49 26 100q31 57 82 115h119q-46 -61 -67 -104q-20 -41 -21 -76q0 -49 27 -70q29 -23 82 -22q23 0 63 8q27 6 62 22v-133q-18 -4 -72 -14q-35 -6 -64 -6q-123 0 -180 43t-57 137z" />
<glyph unicode="&#x11a;" horiz-adv-x="1292" d="M201 0v1493h944v-170h-742v-442h711v-170h-711v-541h760v-170h-962zM373 1895h139l166 -178l166 178h139l-211 -266h-188z" />
<glyph unicode="&#x11b;" horiz-adv-x="1259" d="M113 549q0 270 149 436q147 162 400 162q225 0 358 -146q131 -143 131 -395v-90h-846q12 -188 115 -289q104 -100 285 -100q100 0 206 27q94 25 197 77v-174q-94 -41 -202.5 -63.5t-211.5 -22.5q-268 0 -424 156q-157 158 -157 422zM311 659h656q-4 156 -84 242 q-84 90 -219 90q-152 0 -246 -88q-91 -84 -107 -244zM340 1634h139l180 -245l180 245h139l-245 -376h-148z" />
<glyph unicode="&#x11c;" horiz-adv-x="1585" d="M555 1635l211 266h188l211 -266h-139l-166 178l-166 -178h-139zM115 745.5q0 360.5 198 569.5q197 205 547 205q152 0 277 -35q137 -39 243 -107v-215q-109 92 -237 144q-121 47 -266 47q-273 0 -412 -154q-137 -152 -137 -455t137 -454q138 -154 412 -154q108 0 190 19 q88 18 152 57v401h-330v166h530v-641q-115 -82 -258 -125q-141 -43 -301 -43q-350 0 -547 205q-198 209 -198 569.5z" />
<glyph unicode="&#x11d;" horiz-adv-x="1298" d="M297 1262l245 376h148l245 -376h-139l-180 245l-180 -245h-139zM113 573q0 258 127 416t331 158q125 0 213 -49q86 -47 146 -148v170h184v-981q0 -287 -127 -426t-389 -139q-102 0 -182 14q-94 16 -168 45v179q84 -45 159.5 -65.5t161.5 -20.5q182 0 271 94q90 96 90 286 v91q-59 -100 -146 -148q-88 -49 -213 -49q-205 0 -331.5 157.5t-126.5 415.5zM303 573.5q0 -200.5 82 -309.5q82 -111 231.5 -110.5t231.5 110.5q82 109 82 309.5t-82 309.5q-82 111 -231.5 110.5t-231.5 -110.5q-82 -109 -82 -309.5z" />
<glyph unicode="&#x11e;" horiz-adv-x="1585" d="M115 745.5q0 360.5 198 569.5q197 205 547 205q152 0 277 -35q137 -39 243 -107v-215q-109 92 -237 144q-121 47 -266 47q-273 0 -412 -154q-137 -152 -137 -455t137 -454q138 -154 412 -154q108 0 190 19q88 18 152 57v401h-330v166h530v-641q-115 -82 -258 -125 q-141 -43 -301 -43q-350 0 -547 205q-198 209 -198 569.5zM482 1901h118q12 -53 62 -82q51 -29 133 -29q84 0 131 26.5t64 84.5h118q-8 -119 -90 -180q-80 -61 -223 -61.5t-223 61.5q-82 61 -90 180z" />
<glyph unicode="&#x11f;" horiz-adv-x="1298" d="M113 573q0 258 127 416t331 158q125 0 213 -49q86 -47 146 -148v170h184v-981q0 -287 -127 -426t-389 -139q-102 0 -182 14q-94 16 -168 45v179q84 -45 159.5 -65.5t161.5 -20.5q182 0 271 94q90 96 90 286v91q-59 -100 -146 -148q-88 -49 -213 -49q-205 0 -331.5 157.5 t-126.5 415.5zM303 573.5q0 -200.5 82 -309.5q82 -111 231.5 -110.5t231.5 110.5q82 109 82 309.5t-82 309.5q-82 111 -231.5 110.5t-231.5 -110.5q-82 -109 -82 -309.5zM338 1608h118q12 -78 60 -113q49 -37 135 -37q84 0 133 37t62 113h118q-8 -143 -90 -215t-223 -72 t-223 72t-90 215z" />
<glyph unicode="&#x120;" horiz-adv-x="1585" d="M758 1667v205h204v-205h-204zM115 745.5q0 360.5 198 569.5q197 205 547 205q152 0 277 -35q137 -39 243 -107v-215q-109 92 -237 144q-121 47 -266 47q-273 0 -412 -154q-137 -152 -137 -455t137 -454q138 -154 412 -154q108 0 190 19q88 18 152 57v401h-330v166h530 v-641q-115 -82 -258 -125q-141 -43 -301 -43q-350 0 -547 205q-198 209 -198 569.5z" />
<glyph unicode="&#x121;" horiz-adv-x="1298" d="M514 1348v204h204v-204h-204zM113 573q0 258 127 416t331 158q125 0 213 -49q86 -47 146 -148v170h184v-981q0 -287 -127 -426t-389 -139q-102 0 -182 14q-94 16 -168 45v179q84 -45 159.5 -65.5t161.5 -20.5q182 0 271 94q90 96 90 286v91q-59 -100 -146 -148 q-88 -49 -213 -49q-205 0 -331.5 157.5t-126.5 415.5zM303 573.5q0 -200.5 82 -309.5q82 -111 231.5 -110.5t231.5 110.5q82 109 82 309.5t-82 309.5q-82 111 -231.5 110.5t-231.5 -110.5q-82 -109 -82 -309.5z" />
<glyph unicode="&#x122;" horiz-adv-x="1585" d="M712 -510l82 320h211l-163 -320h-130zM115 745.5q0 360.5 198 569.5q197 205 547 205q152 0 277 -35q137 -39 243 -107v-215q-109 92 -237 144q-121 47 -266 47q-273 0 -412 -154q-137 -152 -137 -455t137 -454q138 -154 412 -154q108 0 190 19q88 18 152 57v401h-330 v166h530v-641q-115 -82 -258 -125q-141 -43 -301 -43q-350 0 -547 205q-198 209 -198 569.5z" />
<glyph unicode="&#x123;" horiz-adv-x="1298" d="M510 1269l164 320h129l-82 -320h-211zM113 573q0 258 127 416t331 158q125 0 213 -49q86 -47 146 -148v170h184v-981q0 -287 -127 -426t-389 -139q-102 0 -182 14q-94 16 -168 45v179q84 -45 159.5 -65.5t161.5 -20.5q182 0 271 94q90 96 90 286v91q-59 -100 -146 -148 q-88 -49 -213 -49q-205 0 -331.5 157.5t-126.5 415.5zM303 573.5q0 -200.5 82 -309.5q82 -111 231.5 -110.5t231.5 110.5q82 109 82 309.5t-82 309.5q-82 111 -231.5 110.5t-231.5 -110.5q-82 -109 -82 -309.5z" />
<glyph unicode="&#x124;" horiz-adv-x="1538" d="M465 1635l211 266h188l211 -266h-139l-166 178l-166 -178h-139zM201 0v1493h202v-612h734v612h202v-1493h-202v711h-734v-711h-202z" />
<glyph unicode="&#x125;" horiz-adv-x="1296" d="M-26 1635l211 266h188l211 -266h-139l-166 178l-166 -178h-139zM186 0v1556h185v-610q63 100 155 152q88 49 207 49q193 0 291 -119q100 -123 100 -352v-676h-184v670q0 158 -61.5 237.5t-186.5 79.5q-150 0 -235.5 -94t-85.5 -260v-633h-185z" />
<glyph unicode="&#x126;" horiz-adv-x="1875" d="M201 1106v164h168v223h202v-223h734v223h202v-223h168v-164h-168v-1106h-202v711h-734v-711h-202v1106h-168zM571 881h734v225h-734v-225z" />
<glyph unicode="&#x127;" horiz-adv-x="1421" d="M121 1270v164h125v122h184v-122h352v-164h-352v-324q63 100 156 152q90 49 207 49q193 0 290 -119q100 -123 101 -352v-676h-185v670q0 158 -61 237.5t-186 79.5q-150 0 -236 -94t-86 -260v-633h-184v1270h-125z" />
<glyph unicode="&#x128;" horiz-adv-x="602" d="M-29 1667q0 102 51 160q53 59 138 59q41 0 67 -8q35 -10 78 -35l57 -30q23 -12 39 -19q18 -6 33 -6q31 0 51 25q20 23 21 67v6h125q-4 -104 -54 -159q-53 -59 -135 -60q-37 0 -63 9q-37 10 -82 34l-57 33q-8 6 -41 19q-16 6 -27 6q-35 0 -55 -25q-20 -23 -21 -70v-6h-125 zM201 0v1493h202v-1493h-202z" />
<glyph unicode="&#x129;" horiz-adv-x="567" d="M-45 1309q4 137 54 209q51 74 141 73q41 0 69 -14q41 -20 70 -47l57 -55q12 -12 39 -29q16 -10 29 -10q37 0 55 37q16 35 21 118h125q-4 -137 -54 -209q-51 -74 -141 -73q-41 0 -69 14q-41 20 -70 47l-57 55q-12 12 -39 29q-16 10 -29 10q-37 0 -55 -37q-16 -35 -21 -118 h-125zM193 0v1120h184v-1120h-184zM285 1147z" />
<glyph unicode="&#x12a;" horiz-adv-x="602" d="M2 1693v148h598v-148h-598zM201 0v1493h202v-1493h-202z" />
<glyph unicode="&#x12b;" horiz-adv-x="567" d="M-14 1378v148h598v-148h-598zM193 0v1120h184v-1120h-184zM285 1147z" />
<glyph unicode="&#x12c;" horiz-adv-x="602" d="M-12 1901h118q12 -53 62 -82q51 -29 133 -29q84 0 131 26.5t64 84.5h118q-8 -119 -90 -180q-80 -61 -223 -61.5t-223 61.5q-82 61 -90 180zM201 0v1493h202v-1493h-202z" />
<glyph unicode="&#x12d;" horiz-adv-x="567" d="M-28 1608h118q12 -78 60 -113q49 -37 135 -37q84 0 133 37t62 113h118q-8 -143 -90 -215t-223 -72t-223 72t-90 215zM193 0v1120h184v-1120h-184zM285 1147z" />
<glyph unicode="&#x12e;" horiz-adv-x="602" d="M176 -215q0 49 26 100q31 57 82 115h119q-46 -61 -67 -104q-20 -41 -21 -76q0 -49 27 -70q29 -23 82 -22q23 0 63 8q27 6 62 22v-133q-18 -4 -72 -14q-35 -6 -64 -6q-123 0 -180 43t-57 137zM201 0v1493h202v-1493h-202z" />
<glyph unicode="&#x12f;" horiz-adv-x="567" d="M150 -215q0 49 26 100q31 57 82 115h119q-46 -61 -67 -104q-20 -41 -21 -76q0 -49 27 -70q29 -23 82 -22q23 0 63 8q27 6 62 22v-133q-18 -4 -72 -14q-35 -6 -64 -6q-123 0 -180 43t-57 137zM193 0v1120h184v-1120h-184zM193 1323v233h184v-233h-184z" />
<glyph unicode="&#x130;" horiz-adv-x="602" d="M201 0v1493h202v-1493h-202zM201 1667v205h204v-205h-204z" />
<glyph unicode="&#x131;" horiz-adv-x="567" d="M193 0v1120h184v-1120h-184zM285 1147z" />
<glyph unicode="&#x132;" horiz-adv-x="1206" d="M498 -240h63q133 0 188.5 74t55.5 270v1389h202v-1389q0 -268 -102 -393q-100 -121 -330 -121h-77v170zM201 0v1493h202v-1493h-202z" />
<glyph unicode="&#x133;" horiz-adv-x="1136" d="M530 -270h49q106 0 143.5 49t37.5 201v1140h184v-1140q0 -215 -82 -310q-84 -96 -262 -96h-70v156zM760 1323v233h184v-233h-184zM193 0v1120h184v-1120h-184zM193 1323v233h184v-233h-184z" />
<glyph unicode="&#x134;" horiz-adv-x="602" d="M-4 1635l211 266h188l211 -266h-139l-166 178l-166 -178h-139zM-106 -240h63q133 0 188.5 74t55.5 270v1389h202v-1389q0 -268 -102 -393q-100 -121 -330 -121h-77v170z" />
<glyph unicode="&#x135;" horiz-adv-x="567" d="M-34 1262l245 376h148l245 -376h-139l-180 245l-180 -245h-139zM-37 -270h49q106 0 143.5 49t37.5 201v1140h184v-1140q0 -215 -82 -310q-84 -96 -262 -96h-70v156z" />
<glyph unicode="&#x136;" horiz-adv-x="1341" d="M645 -482l82 320h211l-163 -320h-130zM201 0v1493h202v-631l670 631h260l-741 -696l794 -797h-266l-717 719v-719h-202z" />
<glyph unicode="&#x137;" horiz-adv-x="1185" d="M534 -482l82 320h211l-163 -320h-130zM186 0v1556h185v-919l549 483h235l-594 -524l619 -596h-240l-569 547v-547h-185z" />
<glyph unicode="&#x138;" horiz-adv-x="1185" d="M186 0v1120h185v-485l549 485h235l-594 -526l619 -594h-240l-569 545v-545h-185z" />
<glyph unicode="&#x139;" horiz-adv-x="1140" d="M226 1637l196 264h185l-228 -264h-153zM201 0v1493h202v-1323h727v-170h-929z" />
<glyph unicode="&#x13a;" horiz-adv-x="567" d="M205 1637l196 264h185l-228 -264h-153zM193 0v1556h184v-1556h-184z" />
<glyph unicode="&#x13b;" horiz-adv-x="1140" d="M518 -482l82 320h211l-163 -320h-130zM201 0v1493h202v-1323h727v-170h-929z" />
<glyph unicode="&#x13c;" horiz-adv-x="567" d="M137 -482l82 320h211l-163 -320h-130zM193 0v1556h184v-1556h-184z" />
<glyph unicode="&#x13d;" horiz-adv-x="1140" d="M600 1117l72 376h199l-117 -376h-154zM201 0v1493h202v-1323h727v-170h-929z" />
<glyph unicode="&#x13e;" horiz-adv-x="768" d="M497 1180l72 376h199l-117 -376h-154zM193 0v1556h184v-1556h-184z" />
<glyph unicode="&#x13f;" horiz-adv-x="1140" d="M780 703v254h211v-254h-211zM201 0v1493h202v-1323h727v-170h-929z" />
<glyph unicode="&#x140;" horiz-adv-x="698" d="M432 699v254h211v-254h-211zM193 0v1556h184v-1556h-184z" />
<glyph unicode="&#x141;" horiz-adv-x="1150" d="M-14 575l225 158v760h203v-616l313 219l80 -111l-393 -274v-541h727v-170h-930v571l-148 -106z" />
<glyph unicode="&#x142;" horiz-adv-x="581" d="M2 684l197 141v731h184v-602l125 90l76 -106l-201 -141v-797h-184v666l-123 -88z" />
<glyph unicode="&#x143;" horiz-adv-x="1531" d="M568 1637l196 264h185l-228 -264h-153zM201 0v1493h272l662 -1249v1249h196v-1493h-272l-662 1249v-1249h-196z" />
<glyph unicode="&#x144;" horiz-adv-x="1296" d="M437 1268l280 376h199l-326 -376h-153zM186 0v1120h185v-174q63 100 155 152q88 49 207 49q193 0 291 -119q100 -123 100 -352v-676h-184v670q0 158 -61.5 237.5t-186.5 79.5q-150 0 -235.5 -94t-85.5 -260v-633h-185z" />
<glyph unicode="&#x145;" horiz-adv-x="1531" d="M618 -482l82 320h211l-163 -320h-130zM201 0v1493h272l662 -1249v1249h196v-1493h-272l-662 1249v-1249h-196z" />
<glyph unicode="&#x146;" horiz-adv-x="1296" d="M505 -482l82 320h211l-163 -320h-130zM186 0v1120h185v-174q63 100 155 152q88 49 207 49q193 0 291 -119q100 -123 100 -352v-676h-184v670q0 158 -61.5 237.5t-186.5 79.5q-150 0 -235.5 -94t-85.5 -260v-633h-185z" />
<glyph unicode="&#x147;" horiz-adv-x="1531" d="M201 0v1493h272l662 -1249v1249h196v-1493h-272l-662 1249v-1249h-196zM453 1886h139l166 -178l166 178h139l-211 -266h-188z" />
<glyph unicode="&#x148;" horiz-adv-x="1296" d="M186 0v1120h185v-174q63 100 155 152q88 49 207 49q193 0 291 -119q100 -123 100 -352v-676h-184v670q0 158 -61.5 237.5t-186.5 79.5q-150 0 -235.5 -94t-85.5 -260v-633h-185zM334 1638h139l180 -245l180 245h139l-245 -376h-148z" />
<glyph unicode="&#x149;" horiz-adv-x="1665" d="M528 0v1120h185v-174q63 100 155 152q88 49 207 49q193 0 291 -119q100 -123 100 -352v-676h-184v670q0 158 -61.5 237.5t-186.5 79.5q-150 0 -235.5 -94t-85.5 -260v-633h-185zM205 1022l82 319v152h211v-152l-164 -319h-129z" />
<glyph unicode="&#x14a;" horiz-adv-x="1531" d="M201 0v1493h202v-242q74 131 183 201q106 68 260 68q225 0 342 -160t117 -467v-913q0 -211 -80 -310q-84 -96 -264 -96h-87v156h50q102 0 141 45t39 205v915q0 428 -307 428q-180 0 -287 -127t-107 -350v-846h-202z" />
<glyph unicode="&#x14b;" horiz-adv-x="1296" d="M186 0v1120h185v-174q63 100 155 152q88 49 207 49q193 0 291 -119q100 -123 100 -352v-696q0 -215 -82 -310q-80 -96 -262 -96h-254v156h234q104 0 141 49q39 51 39 201v690q0 158 -61.5 237.5t-186.5 79.5q-150 0 -235.5 -94t-85.5 -260v-633h-185z" />
<glyph unicode="&#x14c;" horiz-adv-x="1611" d="M508 1693v148h598v-148h-598zM115 745q0 350 188 564q186 211 504 211q315 0 502 -211q188 -213 188 -563.5t-188 -563.5q-186 -211 -502 -211t-504 209q-188 211 -188 565zM328 745.5q0 -282.5 129 -446.5t350 -164q219 0 348 164t129 446.5t-129 446.5t-348 164 q-221 0 -350 -164t-129 -446.5z" />
<glyph unicode="&#x14d;" horiz-adv-x="1251" d="M328 1378v148h598v-148h-598zM113 559q0 272 137 432q135 156 377 156q240 0 377 -155.5t137 -432t-137.5 -432.5t-376.5 -156q-242 0 -377 156q-137 160 -137 432zM307 559q0 -201 86 -317q84 -115 234 -115q147 0 233 116.5t86 315.5t-86 315.5t-233.5 116.5 t-233.5 -116.5t-86 -315.5z" />
<glyph unicode="&#x14e;" horiz-adv-x="1611" d="M494 1901h118q12 -53 62 -82q51 -29 133 -29q84 0 131 26.5t64 84.5h118q-8 -119 -90 -180q-80 -61 -223 -61.5t-223 61.5q-82 61 -90 180zM115 745q0 350 188 564q186 211 504 211q315 0 502 -211q188 -213 188 -563.5t-188 -563.5q-186 -211 -502 -211t-504 209 q-188 211 -188 565zM328 745.5q0 -282.5 129 -446.5t350 -164q219 0 348 164t129 446.5t-129 446.5t-348 164q-221 0 -350 -164t-129 -446.5z" />
<glyph unicode="&#x14f;" horiz-adv-x="1251" d="M314 1608h118q12 -78 60 -113q49 -37 135 -37q84 0 133 37t62 113h118q-8 -143 -90 -215t-223 -72t-223 72t-90 215zM113 559q0 272 137 432q135 156 377 156q240 0 377 -155.5t137 -432t-137.5 -432.5t-376.5 -156q-242 0 -377 156q-137 160 -137 432zM307 559 q0 -201 86 -317q84 -115 234 -115q147 0 233 116.5t86 315.5t-86 315.5t-233.5 116.5t-233.5 -116.5t-86 -315.5z" />
<glyph unicode="&#x150;" horiz-adv-x="1611" d="M524 1635l197 264h184l-227 -264h-154zM860 1635l197 264h184l-227 -264h-154zM115 745q0 350 188 564q186 211 504 211q315 0 502 -211q188 -213 188 -563.5t-188 -563.5q-186 -211 -502 -211t-504 209q-188 211 -188 565zM328 745.5q0 -282.5 129 -446.5t350 -164 q219 0 348 164t129 446.5t-129 446.5t-348 164q-221 0 -350 -164t-129 -446.5z" />
<glyph unicode="&#x151;" horiz-adv-x="1251" d="M400 1262l190 376h170l-223 -376h-137zM719 1262l205 376h178l-248 -376h-135zM113 559q0 272 137 432q135 156 377 156q240 0 377 -155.5t137 -432t-137.5 -432.5t-376.5 -156q-242 0 -377 156q-137 160 -137 432zM307 559q0 -201 86 -317q84 -115 234 -115 q147 0 233 116.5t86 315.5t-86 315.5t-233.5 116.5t-233.5 -116.5t-86 -315.5z" />
<glyph unicode="&#x152;" horiz-adv-x="2189" d="M115 748q0 365 223 555q224 190 657 190h1047v-170h-742v-442h711v-170h-711v-541h760v-170h-1065q-433 0 -657 190q-223 191 -223 558zM328 747.5q0 -288.5 159 -432.5q162 -145 482 -145h129v1153h-129q-324 0 -482 -143q-159 -144 -159 -432.5z" />
<glyph unicode="&#x153;" horiz-adv-x="2093" d="M113 559q0 272 137 432q135 156 377 156q141 0 245 -55q109 -57 172 -164q78 111 193 164q117 55 260 55q225 0 358 -146q131 -143 132 -395v-90h-846q12 -188 114 -289q104 -100 285 -100q96 0 207 27q92 23 197 77v-174q-100 -43 -203 -63q-109 -23 -211 -23 q-162 0 -281 56q-123 57 -202 163q-72 -111 -175 -165q-100 -53 -245 -54q-242 0 -377 156q-137 160 -137 432zM307 559q0 -201 86 -317q84 -115 234 -115q147 0 233 116.5t86 315.5t-86 315.5t-233.5 116.5t-233.5 -116.5t-86 -315.5zM1147 659h655q-4 156 -84 242 q-84 90 -219 90q-152 0 -246 -88q-90 -84 -106 -244z" />
<glyph unicode="&#x154;" horiz-adv-x="1421" d="M521 1637l196 264h185l-228 -264h-153zM201 0v1493h456q256 0 381 -107q127 -109 127 -323q0 -139 -65 -234q-65 -92 -191 -129q63 -20 127 -94q59 -68 123 -198l205 -408h-217l-191 383q-74 150 -143 199q-71 49 -190 49h-220v-631h-202zM403 797h254q145 0 220 67 q76 70 75 199q0 127 -75 197q-74 68 -220 67h-254v-530z" />
<glyph unicode="&#x155;" horiz-adv-x="841" d="M437 1268l280 376h199l-326 -376h-153zM186 0v1120h185v-174q59 102 151 151.5t226 49.5q29 0 43 -2q41 -6 51 -8v-189q-29 16 -68 27q-33 8 -80 8q-156 0 -239.5 -102.5t-83.5 -290.5v-590h-185z" />
<glyph unicode="&#x156;" horiz-adv-x="1421" d="M634 -482l82 320h211l-163 -320h-130zM201 0v1493h456q256 0 381 -107q127 -109 127 -323q0 -139 -65 -234q-65 -92 -191 -129q63 -20 127 -94q59 -68 123 -198l205 -408h-217l-191 383q-74 150 -143 199q-71 49 -190 49h-220v-631h-202zM403 797h254q145 0 220 67 q76 70 75 199q0 127 -75 197q-74 68 -220 67h-254v-530z" />
<glyph unicode="&#x157;" horiz-adv-x="841" d="M131 -482l82 320h211l-163 -320h-130zM186 0v1120h185v-174q59 102 151 151.5t226 49.5q29 0 43 -2q41 -6 51 -8v-189q-29 16 -68 27q-33 8 -80 8q-156 0 -239.5 -102.5t-83.5 -290.5v-590h-185z" />
<glyph unicode="&#x158;" horiz-adv-x="1421" d="M201 0v1493h456q256 0 381 -107q127 -109 127 -323q0 -139 -65 -234q-65 -92 -191 -129q63 -20 127 -94q59 -68 123 -198l205 -408h-217l-191 383q-74 150 -143 199q-71 49 -190 49h-220v-631h-202zM403 797h254q145 0 220 67q76 70 75 199q0 127 -75 197q-74 68 -220 67 h-254v-530zM332 1886h139l166 -178l166 178h139l-211 -266h-188z" />
<glyph unicode="&#x159;" horiz-adv-x="841" d="M186 0v1120h185v-174q59 102 151 151.5t226 49.5q29 0 43 -2q41 -6 51 -8v-189q-29 16 -68 27q-33 8 -80 8q-156 0 -239.5 -102.5t-83.5 -290.5v-590h-185zM220 1638h139l180 -245l180 245h139l-245 -376h-148z" />
<glyph unicode="&#x15a;" horiz-adv-x="1298" d="M521 1637l196 264h185l-228 -264h-153zM135 1094q0 199 139 313q137 113 385 113q106 0 213 -19q98 -16 224 -57v-197q-106 51 -217 82q-98 27 -197 27q-166 0 -254 -64q-90 -66 -90 -182q0 -100 59 -149q61 -51 226 -82l122 -25q225 -43 334 -152q106 -106 107 -290 q0 -217 -146 -328q-147 -113 -426 -113q-106 0 -225 25q-125 25 -248 70v208q133 -74 242 -104q121 -35 231 -35q172 0 266.5 67.5t94.5 194.5q0 111 -67.5 172.5t-221.5 92.5l-123 24q-225 45 -327 141q-101 95 -101 267z" />
<glyph unicode="&#x15b;" horiz-adv-x="1064" d="M437 1268l280 376h199l-326 -376h-153zM111 41v190q100 -51 200 -79q94 -27 197 -27q127 0 201 45q70 43 69 125q0 74 -51 115t-221 77l-64 15q-170 37 -247 110q-76 74 -76 205q0 156 112 244q111 86 318 86q109 0 192 -14q94 -16 166 -46v-174q-68 35 -162 60 q-80 20 -174 20q-139 0 -206.5 -43t-67.5 -125q0 -63 49 -100q47 -35 197 -70l63 -14q197 -43 279 -119t82 -213q0 -156 -123 -248q-121 -90 -340 -90q-98 0 -187 17q-91 16 -206 53z" />
<glyph unicode="&#x15c;" horiz-adv-x="1298" d="M354 1635l211 266h188l211 -266h-139l-166 178l-166 -178h-139zM135 1094q0 199 139 313q137 113 385 113q106 0 213 -19q98 -16 224 -57v-197q-106 51 -217 82q-98 27 -197 27q-166 0 -254 -64q-90 -66 -90 -182q0 -100 59 -149q61 -51 226 -82l122 -25 q225 -43 334 -152q106 -106 107 -290q0 -217 -146 -328q-147 -113 -426 -113q-106 0 -225 25q-125 25 -248 70v208q133 -74 242 -104q121 -35 231 -35q172 0 266.5 67.5t94.5 194.5q0 111 -67.5 172.5t-221.5 92.5l-123 24q-225 45 -327 141q-101 95 -101 267z" />
<glyph unicode="&#x15d;" horiz-adv-x="1064" d="M230 1262l245 376h148l245 -376h-139l-180 245l-180 -245h-139zM111 41v190q100 -51 200 -79q94 -27 197 -27q127 0 201 45q70 43 69 125q0 74 -51 115t-221 77l-64 15q-170 37 -247 110q-76 74 -76 205q0 156 112 244q111 86 318 86q109 0 192 -14q94 -16 166 -46v-174 q-68 35 -162 60q-80 20 -174 20q-139 0 -206.5 -43t-67.5 -125q0 -63 49 -100q47 -35 197 -70l63 -14q197 -43 279 -119t82 -213q0 -156 -123 -248q-121 -90 -340 -90q-98 0 -187 17q-91 16 -206 53z" />
<glyph unicode="&#x15e;" horiz-adv-x="1298" d="M135 1094q0 199 139 313q137 113 385 113q106 0 213 -19q98 -16 224 -57v-197q-106 51 -217 82q-98 27 -197 27q-166 0 -254 -64q-90 -66 -90 -182q0 -100 59 -149q61 -51 226 -82l122 -25q225 -43 334 -152q106 -106 107 -290q0 -217 -146 -328q-147 -113 -426 -113 q-106 0 -225 25q-125 25 -248 70v208q133 -74 242 -104q121 -35 231 -35q172 0 266.5 67.5t94.5 194.5q0 111 -67.5 172.5t-221.5 92.5l-123 24q-225 45 -327 141q-101 95 -101 267zM430 -240q33 -18 71 -24q49 -8 84 -8q57 0 88 24.5t31 69.5q0 29 -22 74q-27 51 -66 104 h119q51 -57 82 -115q27 -51 27 -100q0 -90 -59.5 -135t-178.5 -45q-47 0 -90 6t-86 18v131z" />
<glyph unicode="&#x15f;" horiz-adv-x="1064" d="M111 41v190q100 -51 200 -79q94 -27 197 -27q127 0 201 45q70 43 69 125q0 74 -51 115t-221 77l-64 15q-170 37 -247 110q-76 74 -76 205q0 156 112 244q111 86 318 86q109 0 192 -14q94 -16 166 -46v-174q-68 35 -162 60q-80 20 -174 20q-139 0 -206.5 -43t-67.5 -125 q0 -63 49 -100q47 -35 197 -70l63 -14q197 -43 279 -119t82 -213q0 -156 -123 -248q-121 -90 -340 -90q-98 0 -187 17q-91 16 -206 53zM314 -240q33 -18 71 -24q49 -8 84 -8q57 0 88 24.5t31 69.5q0 29 -22 74q-27 51 -66 104h119q51 -57 82 -115q27 -51 27 -100 q0 -90 -59.5 -135t-178.5 -45q-47 0 -90 6t-86 18v131z" />
<glyph unicode="&#x160;" horiz-adv-x="1298" d="M135 1094q0 199 139 313q137 113 385 113q106 0 213 -19q98 -16 224 -57v-197q-106 51 -217 82q-98 27 -197 27q-166 0 -254 -64q-90 -66 -90 -182q0 -100 59 -149q61 -51 226 -82l122 -25q225 -43 334 -152q106 -106 107 -290q0 -217 -146 -328q-147 -113 -426 -113 q-106 0 -225 25q-125 25 -248 70v208q133 -74 242 -104q121 -35 231 -35q172 0 266.5 67.5t94.5 194.5q0 111 -67.5 172.5t-221.5 92.5l-123 24q-225 45 -327 141q-101 95 -101 267zM346 1901h139l166 -178l166 178h139l-211 -266h-188z" />
<glyph unicode="&#x161;" horiz-adv-x="1064" d="M111 41v190q100 -51 200 -79q94 -27 197 -27q127 0 201 45q70 43 69 125q0 74 -51 115t-221 77l-64 15q-170 37 -247 110q-76 74 -76 205q0 156 112 244q111 86 318 86q109 0 192 -14q94 -16 166 -46v-174q-68 35 -162 60q-80 20 -174 20q-139 0 -206.5 -43t-67.5 -125 q0 -63 49 -100q47 -35 197 -70l63 -14q197 -43 279 -119t82 -213q0 -156 -123 -248q-121 -90 -340 -90q-98 0 -187 17q-91 16 -206 53zM216 1638h139l180 -245l180 245h139l-245 -376h-148z" />
<glyph unicode="&#x162;" horiz-adv-x="1249" d="M371 -240q33 -18 71 -24q49 -8 84 -8q57 0 88 24.5t31 69.5q0 29 -22 74q-27 51 -66 104h119q51 -57 82 -115q27 -51 27 -100q0 -90 -59.5 -135t-178.5 -45q-47 0 -90 6t-86 18v131zM-6 1323v170h1263v-170h-530v-1323h-203v1323h-530z" />
<glyph unicode="&#x163;" horiz-adv-x="802" d="M260 -240q33 -18 71 -24q49 -8 84 -8q57 0 88 24.5t31 69.5q0 29 -22 74q-27 51 -66 104h119q51 -57 82 -115q27 -51 27 -100q0 -90 -59.5 -135t-178.5 -45q-47 0 -90 6t-86 18v131zM55 977v143h135v318h185v-318h379v-143h-379v-608q0 -135 37 -176q37 -39 153 -39h189 v-154h-189q-215 0 -295 80t-80 289v608h-135z" />
<glyph unicode="&#x164;" horiz-adv-x="1249" d="M-6 1323v170h1263v-170h-530v-1323h-203v1323h-530zM322 1886h139l166 -178l166 178h139l-211 -266h-188z" />
<glyph unicode="&#x165;" horiz-adv-x="802" d="M55 977v143h135v318h185v-318h379v-143h-379v-608q0 -135 37 -176q37 -39 153 -39h189v-154h-189q-215 0 -295 80t-80 289v608h-135zM495 1291l72 376h199l-117 -376h-154z" />
<glyph unicode="&#x166;" horiz-adv-x="1249" d="M-6 1323v170h1263v-170h-530v-575h264v-170h-264v-578h-203v578h-266v170h266v575h-530z" />
<glyph unicode="&#x167;" horiz-adv-x="802" d="M55 602v141h135v234h-135v143h135v318h185v-318h379v-143h-379v-234h190v-141h-190v-233q0 -135 37 -176q37 -39 153 -39h189v-154h-189q-215 0 -295 80t-80 289v233h-135z" />
<glyph unicode="&#x168;" horiz-adv-x="1497" d="M420 1667q0 102 51 160q53 59 138 59q41 0 67 -8q35 -10 78 -35l57 -30q23 -12 39 -19q18 -6 33 -6q31 0 51 25q20 23 21 67v6h125q-4 -104 -54 -159q-53 -59 -135 -60q-37 0 -63 9q-37 10 -82 34l-57 33q-8 6 -41 19q-16 6 -27 6q-35 0 -55 -25q-20 -23 -21 -70v-6h-125 zM178 561v932h203v-907q0 -240 88 -346q86 -104 280.5 -104.5t280.5 104.5q88 106 88 346v907h203v-932q0 -289 -145 -440q-143 -150 -426 -150q-285 0 -428.5 149.5t-143.5 440.5z" />
<glyph unicode="&#x169;" horiz-adv-x="1296" d="M313 1309q4 137 54 209q51 74 141 73q41 0 69 -14q41 -20 70 -47l57 -55q12 -12 39 -29q16 -10 29 -10q37 0 55 37q16 35 21 118h125q-4 -137 -54 -209q-51 -74 -141 -73q-41 0 -69 14q-41 20 -70 47l-57 55q-12 12 -39 29q-16 10 -29 10q-37 0 -55 -37q-16 -35 -21 -118 h-125zM174 442v678h184v-671q0 -158 61.5 -238t186.5 -80q150 0 236 94t86 260v635h184v-1120h-184v172q-70 -104 -156 -152q-88 -49 -205 -49q-193 0 -293 119t-100 352zM637 1147z" />
<glyph unicode="&#x16a;" horiz-adv-x="1497" d="M451 1693v148h598v-148h-598zM178 561v932h203v-907q0 -240 88 -346q86 -104 280.5 -104.5t280.5 104.5q88 106 88 346v907h203v-932q0 -289 -145 -440q-143 -150 -426 -150q-285 0 -428.5 149.5t-143.5 440.5z" />
<glyph unicode="&#x16b;" horiz-adv-x="1296" d="M344 1378v148h598v-148h-598zM174 442v678h184v-671q0 -158 61.5 -238t186.5 -80q150 0 236 94t86 260v635h184v-1120h-184v172q-70 -104 -156 -152q-88 -49 -205 -49q-193 0 -293 119t-100 352zM637 1147z" />
<glyph unicode="&#x16c;" horiz-adv-x="1497" d="M437 1901h118q12 -53 62 -82q51 -29 133 -29q84 0 131 26.5t64 84.5h118q-8 -119 -90 -180q-80 -61 -223 -61.5t-223 61.5q-82 61 -90 180zM178 561v932h203v-907q0 -240 88 -346q86 -104 280.5 -104.5t280.5 104.5q88 106 88 346v907h203v-932q0 -289 -145 -440 q-143 -150 -426 -150q-285 0 -428.5 149.5t-143.5 440.5z" />
<glyph unicode="&#x16d;" horiz-adv-x="1296" d="M330 1608h118q12 -78 60 -113q49 -37 135 -37q84 0 133 37t62 113h118q-8 -143 -90 -215t-223 -72t-223 72t-90 215zM174 442v678h184v-671q0 -158 61.5 -238t186.5 -80q150 0 236 94t86 260v635h184v-1120h-184v172q-70 -104 -156 -152q-88 -49 -205 -49 q-193 0 -293 119t-100 352zM637 1147z" />
<glyph unicode="&#x16e;" horiz-adv-x="1497" d="M178 561v932h203v-907q0 -240 88 -346q86 -104 280.5 -104.5t280.5 104.5q88 106 88 346v907h203v-932q0 -289 -145 -440q-143 -150 -426 -150q-285 0 -428.5 149.5t-143.5 440.5zM478 1628q0 115 79.5 194.5t194.5 79.5t194.5 -80t79.5 -194.5t-79.5 -194.5t-194.5 -80 t-194.5 80t-79.5 195zM600 1627.5q0 -65.5 43 -108.5t109 -43t109 43t43 109q0 63 -43 106q-45 45 -109 45q-66 0 -109 -43t-43 -108.5z" />
<glyph unicode="&#x16f;" horiz-adv-x="1296" d="M174 442v678h184v-671q0 -158 61.5 -238t186.5 -80q150 0 236 94t86 260v635h184v-1120h-184v172q-70 -104 -156 -152q-88 -49 -205 -49q-193 0 -293 119t-100 352zM637 1147zM363 1465q0 115 79.5 194.5t194.5 79.5t194.5 -80t79.5 -194.5t-79.5 -194.5t-194.5 -80 t-194.5 80t-79.5 195zM485 1464.5q0 -65.5 43 -108.5t109 -43t109 43t43 109q0 63 -43 106q-45 45 -109 45q-66 0 -109 -43t-43 -108.5z" />
<glyph unicode="&#x170;" horiz-adv-x="1497" d="M467 1635l197 264h184l-227 -264h-154zM803 1635l197 264h184l-227 -264h-154zM178 561v932h203v-907q0 -240 88 -346q86 -104 280.5 -104.5t280.5 104.5q88 106 88 346v907h203v-932q0 -289 -145 -440q-143 -150 -426 -150q-285 0 -428.5 149.5t-143.5 440.5z" />
<glyph unicode="&#x171;" horiz-adv-x="1296" d="M416 1262l190 376h170l-223 -376h-137zM735 1262l205 376h178l-248 -376h-135zM174 442v678h184v-671q0 -158 61.5 -238t186.5 -80q150 0 236 94t86 260v635h184v-1120h-184v172q-70 -104 -156 -152q-88 -49 -205 -49q-193 0 -293 119t-100 352zM637 1147z" />
<glyph unicode="&#x172;" horiz-adv-x="1497" d="M178 561v932h203v-907q0 -240 88 -346q86 -104 280.5 -104.5t280.5 104.5q88 106 88 346v907h203v-932q0 -289 -145 -440q-143 -150 -426 -150q-285 0 -428.5 149.5t-143.5 440.5zM582 -231q0 49 26 100q31 57 82 115h119q-46 -61 -67 -104q-20 -41 -21 -76q0 -49 27 -70 q29 -23 82 -22q23 0 63 8q27 6 62 22v-133q-18 -4 -72 -14q-35 -6 -64 -6q-123 0 -180 43t-57 137z" />
<glyph unicode="&#x173;" horiz-adv-x="1296" d="M174 442v678h184v-671q0 -158 61.5 -238t186.5 -80q150 0 236 94t86 260v635h184v-1120h-184v172q-70 -104 -156 -152q-88 -49 -205 -49q-193 0 -293 119t-100 352zM637 1147zM883 -215q0 49 26 100q31 57 82 115h119q-46 -61 -67 -104q-20 -41 -21 -76q0 -49 27 -70 q29 -23 82 -22q23 0 63 8q27 6 62 22v-133q-18 -4 -72 -14q-35 -6 -64 -6q-123 0 -180 43t-57 137z" />
<glyph unicode="&#x174;" horiz-adv-x="2023" d="M709 1643l211 266h188l211 -266h-139l-166 178l-166 -178h-139zM68 1493h204l314 -1262l313 1262h227l314 -1262l313 1262h205l-375 -1493h-254l-315 1296l-318 -1296h-254z" />
<glyph unicode="&#x175;" horiz-adv-x="1673" d="M519 1268l245 376h148l245 -376h-139l-180 245l-180 -245h-139zM86 1120h184l230 -874l229 874h217l230 -874l229 874h184l-293 -1120h-217l-241 918l-242 -918h-217z" />
<glyph unicode="&#x176;" horiz-adv-x="1249" d="M322 1643l211 266h188l211 -266h-139l-166 178l-166 -178h-139zM-4 1493h217l414 -614l411 614h217l-528 -782v-711h-203v711z" />
<glyph unicode="&#x177;" horiz-adv-x="1210" d="M287 1268l245 376h148l245 -376h-139l-180 245l-180 -245h-139zM61 1120h195l350 -876l350 876h195l-492 -1224q-76 -197 -151 -261q-74 -61 -199 -61h-147v154h108q74 0 117 36.5t94 169.5l33 84z" />
<glyph unicode="&#x178;" horiz-adv-x="1249" d="M-4 1493h217l414 -614l411 614h217l-528 -782v-711h-203v711zM330 1667v203h203v-203h-203zM721 1667v203h203v-203h-203z" />
<glyph unicode="&#x179;" horiz-adv-x="1402" d="M521 1637l196 264h185l-228 -264h-153zM92 0v154l944 1169h-921v170h1173v-154l-944 -1169h967v-170h-1219z" />
<glyph unicode="&#x17a;" horiz-adv-x="1073" d="M437 1268l280 376h199l-326 -376h-153zM88 0v168l692 805h-667v147h874v-168l-692 -805h692v-147h-899z" />
<glyph unicode="&#x17b;" horiz-adv-x="1402" d="M578 1665v205h204v-205h-204zM92 0v154l944 1169h-921v170h1173v-154l-944 -1169h967v-170h-1219z" />
<glyph unicode="&#x17c;" horiz-adv-x="1073" d="M88 0v168l692 805h-667v147h874v-168l-692 -805h692v-147h-899zM410 1348v204h204v-204h-204z" />
<glyph unicode="&#x17d;" horiz-adv-x="1402" d="M92 0v154l944 1169h-921v170h1173v-154l-944 -1169h967v-170h-1219zM397 1901h139l166 -178l166 178h139l-211 -266h-188z" />
<glyph unicode="&#x17e;" horiz-adv-x="1073" d="M88 0v168l692 805h-667v147h874v-168l-692 -805h692v-147h-899zM220 1638h139l180 -245l180 245h139l-245 -376h-148z" />
<glyph unicode="&#x17f;" horiz-adv-x="720" d="M47 977v143h176v78q0 186 86 272t277 86h174v-153h-176q-98 0 -138 -39q-39 -43 -38 -145v-1219h-185v977h-176z" />
<glyph unicode="&#x180;" horiz-adv-x="1298" d="M33 1284v125h153v147h185v-147h325v-125h-325v-334q55 96 147 148q88 49 211 49q207 0 332 -162q127 -160 127 -426t-127 -426q-125 -162 -332 -162q-123 0 -211 49q-92 51 -147 148v-168h-185v1284h-153zM371 559q0 -201 84 -319q84 -115 229 -115t229 115 q84 119 84 319.5t-84 319.5q-84 115 -229 114.5t-229 -114.5q-84 -119 -84 -320z" />
<glyph unicode="&#x181;" horiz-adv-x="1503" d="M-104 1079v70q0 178 96 262q94 82 309 82h516q229 0 357 -96q125 -94 124 -273q0 -141 -63.5 -219t-187.5 -100q147 -31 231 -133q82 -100 82 -254q0 -201 -135 -309q-137 -109 -387 -109h-537v1327q-131 0 -190.5 -47t-59.5 -152v-49h-155zM504 166h323q162 0 242 67 q78 66 78 207.5t-78 207t-242 65.5h-323v-547zM504 877h299q145 0 219 55t74 170t-74 170t-219 55h-299v-450z" />
<glyph unicode="&#x182;" horiz-adv-x="1404" d="M201 0v1493h954v-166h-752v-448h334q250 0 387 -109q135 -106 136 -332q0 -223 -132 -329q-133 -109 -391 -109h-536zM403 166h324q162 0 242 67q78 66 78 205q0 141 -78 207q-80 68 -242 68h-324v-547z" />
<glyph unicode="&#x183;" horiz-adv-x="1298" d="M186 0v1556h846v-165h-661v-441q55 96 147 148q88 49 211 49q207 0 332 -162q127 -160 127 -426t-127 -426q-125 -162 -332 -162q-123 0 -211 49q-92 51 -147 148v-168h-185zM371 559q0 -201 84 -319q84 -115 229 -115t229 115q84 119 84 319.5t-84 319.5 q-84 115 -229 114.5t-229 -114.5q-84 -119 -84 -320z" />
<glyph unicode="&#x184;" horiz-adv-x="1404" d="M0 1092l311 401h92v-614h334q250 0 387 -109q135 -106 136 -332q0 -221 -136 -329q-137 -109 -387 -109h-536v1092h-201zM403 166h324q166 0 242 67q78 66 78 205q0 141 -78 207q-76 68 -242 68h-324v-547z" />
<glyph unicode="&#x185;" horiz-adv-x="1298" d="M0 1092l291 464h80v-606q55 96 147 148q88 49 211 49q203 0 332 -162q127 -160 127 -426t-127 -426q-129 -162 -332 -162q-123 0 -211 49q-92 51 -147 148v-168h-185v1092h-186zM371 559q0 -201 84 -319q82 -115 229 -115t229 115q84 119 84 319q0 199 -84 318 q-82 117 -229 116.5t-229 -116.5q-84 -119 -84 -318z" />
<glyph unicode="&#x186;" horiz-adv-x="1439" d="M115 115v211q102 -96 217 -142q119 -47 246 -47q258 0 393 156q135 158 135 452.5t-135 452.5q-135 156 -393 156q-127 0 -246 -47q-115 -45 -217 -142v213q102 70 223 107q113 35 252 35q342 0 534 -207q195 -211 195 -567.5t-195 -567.5q-193 -207 -534 -207 q-137 0 -249.5 35t-225.5 109z" />
<glyph unicode="&#x187;" horiz-adv-x="1429" d="M115 745.5q0 356.5 194 567.5q193 207 535 207q104 0 252 -35q4 -2 12 -4t12 -4q14 193 101 292q102 123 327 123h78v-170h-63q-131 0 -189 -75q-55 -74 -55 -269v-213q-102 96 -217 142q-119 47 -246 47q-256 0 -391 -156q-137 -160 -137 -452.5t137 -452.5 q135 -156 391 -156q127 0 246 47q115 45 217 142v-211q-113 -74 -225.5 -109t-249.5 -35q-342 0 -535 207q-194 211 -194 567.5z" />
<glyph unicode="&#x188;" horiz-adv-x="1124" d="M113 559q0 272 151.5 430t411.5 158q71 0 141 -12v16q0 213 80 309t262 96h70v-155h-49q-106 0 -143.5 -49t-37.5 -201v-246q-72 41 -157 64q-84 23 -158 22q-180 0 -278.5 -114.5t-98.5 -317.5q0 -206 99 -319q98 -113 278 -113q74 0 158 23q86 23 157 63v-170 q-70 -33 -159 -53q-82 -18 -176 -19q-252 0 -401.5 158t-149.5 430z" />
<glyph unicode="&#x189;" horiz-adv-x="1585" d="M10 700v144h201v649h416q436 0 637 -180q203 -181 202 -565q0 -385 -204 -568q-201 -180 -635 -180h-416v700h-201zM414 166h243q311 0 453 139q143 141 143 443q0 303 -143 440q-145 139 -453 139h-243v-483h336v-144h-336v-534z" />
<glyph unicode="&#x18a;" horiz-adv-x="1675" d="M-104 1079v70q0 178 96 262q94 82 309 82h416q436 0 637 -180q203 -181 202 -565q0 -385 -204 -568q-201 -180 -635 -180h-416v1327q-131 0 -190.5 -47t-59.5 -152v-49h-155zM504 166h244q311 0 452 139q143 141 143 443q0 303 -143 440q-145 139 -452 139h-244v-1161z " />
<glyph unicode="&#x18b;" horiz-adv-x="1404" d="M201 440q0 221 137 330t387 109h334v448h-645v166h846v-1493h-535q-250 0 -387 108.5t-137 331.5zM414 438q0 -272 319 -272h326v547h-326q-162 0 -241 -68q-78 -66 -78 -207z" />
<glyph unicode="&#x18c;" horiz-adv-x="1298" d="M113 559q0 266 127 426q129 162 331 162q125 0 213 -49t146 -148v441h-662v165h846v-1556h-184v168q-57 -98 -145.5 -147.5t-213.5 -49.5q-203 0 -331 162q-127 160 -127 426zM303 559q0 -201 84 -319q82 -115 229.5 -115t229.5 115q84 119 84 319q0 199 -84 318 q-84 117 -229.5 116.5t-229.5 -116.5q-84 -119 -84 -318z" />
<glyph unicode="&#x18d;" horiz-adv-x="1251" d="M113 539q0 272 137 427.5t376.5 155.5t377 -155.5t137.5 -431.5q0 -154 -78 -285q-80 -133 -189 -184q158 -80 158 -220q0 -272 -440 -272q-223 0 -342 70v153q100 -70 348 -69q246 0 246 116q0 90 -264 140q-203 37 -324 149q-143 138 -143 406zM307 541q0 -199 94 -295 q95 -98 222 -111q78 -8 114 -18q100 43 154 151q55 111 55 267q0 207 -84 317q-86 115 -233 115q-152 0 -236 -115q-86 -116 -86 -311z" />
<glyph unicode="&#x18e;" horiz-adv-x="1292" d="M131 0v170h760v541h-711v170h711v442h-741v170h944v-1493h-963z" />
<glyph unicode="&#x18f;" horiz-adv-x="1611" d="M117 780h1167q0 268 -137 420q-138 154 -412 154q-145 0 -266 -47q-129 -51 -238 -144v215q106 68 244 107q125 35 277 35q352 0 548.5 -205t196.5 -570q0 -350 -188 -563q-186 -211 -502 -211q-328 0 -510 219q-180 217 -180 590zM338 614q12 -199 139 -338 q129 -141 330 -141t330 141.5t141 337.5h-940z" />
<glyph unicode="&#x190;" horiz-adv-x="1257" d="M164 434q0 145 82 242q84 98 225 129q-131 33 -201 119q-72 88 -71 209q0 178 135 282.5t362 104.5q82 0 191 -17q92 -14 215 -47v-180q-114 37 -209 55.5t-178 18.5q-151 0 -234 -62q-82 -61 -82 -176q0 -113 80 -172q82 -59 228 -59h182v-166h-174q-166 0 -258 -74 t-92 -207q0 -143 100 -219q98 -74 289 -74q108 0 209 24.5t184 74.5v-195q-109 -37 -205 -55q-98 -18 -194 -19q-281 0 -432.5 121t-151.5 342z" />
<glyph unicode="&#x191;" horiz-adv-x="1177" d="M-106 -240h63q133 0 188.5 74t55.5 270v1389h858v-170h-656v-440h592v-170h-592v-609q0 -268 -102 -393q-100 -121 -330 -121h-77v170z" />
<glyph unicode="&#x192;" horiz-adv-x="720" d="M-129 -272h176q98 0 137 38.5t39 145.5v1065h-176v143h176v78q0 186 86 272t277 86h174v-153h-176q-98 0 -137 -39t-39 -145v-99h303v-143h-303v-1045q0 -186 -86 -272t-277 -86h-174v154z" />
<glyph unicode="&#x193;" horiz-adv-x="1585" d="M115 745.5q0 360.5 198 569.5q197 205 547 205q90 0 172 -12.5t150 -37.5q0 190 100 306q102 117 328 116h78v-170h-64q-131 0 -188 -75q-55 -74 -56 -269v-215q-109 92 -237 144q-121 47 -266 47q-273 0 -412 -154q-137 -152 -137 -455t137 -454q138 -154 412 -154 q108 0 190 19q88 18 152 57v401h-330v166h530v-641q-115 -82 -258 -125q-141 -43 -301 -43q-350 0 -547 205q-198 209 -198 569.5z" />
<glyph unicode="&#x194;" horiz-adv-x="1404" d="M8 1493h221l473 -862l474 862h223l-584 -1073q104 -200 172 -375q45 -117 45 -184q0 -138 -74 -203q-104 -88 -256 -88q-150 0 -253 88q-76 66 -76 203q0 61 47 184q74 190 170 375zM578 -141q0 -66 26 -86q43 -31 98 -31t99 31q29 23 28 86q0 57 -30 131l-97 213 l-94 -213q-30 -74 -30 -131z" />
<glyph unicode="&#x195;" horiz-adv-x="2013" d="M186 0v1556h185v-610q63 100 155 152q88 49 207 49q193 0 291 -119q100 -123 100 -352v-270q0 -147 37 -198.5t144 -51.5h51q151 0 233 98q86 102 86 256q0 223 -73 334q-61 94 -183 129v147q224 -28 332 -172q113 -147 113 -422q0 -244 -145.5 -385t-364.5 -141h-70 q-186 0 -266 100q-78 98 -78 306v264q0 158 -61.5 237.5t-186.5 79.5q-150 0 -235.5 -94t-85.5 -260v-633h-185z" />
<glyph unicode="&#x196;" horiz-adv-x="722" d="M201 514v979h202v-979q0 -195 56 -268q57 -76 188 -76h64v-170h-78q-227 0 -330 123q-102 125 -102 391z" />
<glyph unicode="&#x197;" horiz-adv-x="602" d="M10 578v170h191v745h202v-745h191v-170h-191v-578h-202v578h-191z" />
<glyph unicode="&#x198;" horiz-adv-x="1525" d="M201 0v1493h202v-631l621 580q84 78 197 78q135 0 221 -92.5t86 -200.5v-131h-170v121q0 53 -37 94t-76 41q-68 0 -106 -35l-547 -520l794 -797h-266l-717 719v-719h-202z" />
<glyph unicode="&#x199;" horiz-adv-x="1185" d="M184 1151q0 215 82 309q84 96 262 96h193v-155h-168q-106 0 -143 -49q-39 -51 -39 -201v-514l549 483h235l-594 -524l619 -596h-240l-569 547v-547h-185z" />
<glyph unicode="&#x19a;" horiz-adv-x="567" d="M10 700v144h183v712h184v-712h178v-144h-178v-700h-184v700h-183z" />
<glyph unicode="&#x19b;" horiz-adv-x="1210" d="M61 0l492 1073l-72 189l-301 -101l-33 99l297 100l-73 196h198l54 -139l313 105l33 -97l-312 -104l494 -1321h-195l-315 827l-385 -827h-195z" />
<glyph unicode="&#x19c;" horiz-adv-x="1994" d="M178 442v1051h203v-1040q0 -188 39 -240q59 -78 174 -78q143 0 225 94q84 96 84 260v1004h203v-1040q0 -164 57 -240q59 -78 176 -78q123 0 205 94q84 96 84 260v1004h203v-1495h-203v174q-63 -102 -151 -152q-89 -49 -209 -49q-121 0 -207 61.5t-127 180.5 q-68 -121 -166 -182q-96 -59 -225 -60q-175 0 -271 123q-94 121 -94 348z" />
<glyph unicode="&#x19d;" horiz-adv-x="1531" d="M-106 -240h63q133 0 188.5 74t55.5 270v1389h272l662 -1249v1249h196v-1493h-272l-662 1249v-1145q0 -268 -102 -393q-100 -121 -330 -121h-71v170z" />
<glyph unicode="&#x19e;" horiz-adv-x="1296" d="M186 0v1120h185v-174q63 100 155 152q88 49 207 49q193 0 291 -119q100 -123 100 -352v-1102h-184v1096q0 158 -61.5 237.5t-186.5 79.5q-150 0 -235.5 -94t-85.5 -260v-633h-185z" />
<glyph unicode="&#x19f;" horiz-adv-x="1611" d="M115 745q0 350 188 564q186 211 504 211q315 0 502 -211q188 -213 188 -563.5t-188 -563.5q-186 -211 -501.5 -211t-504.5 209q-188 211 -188 565zM328 711q10 -258 133 -416q125 -160 346 -160q223 0 344 158t131 418h-954zM338 877h940q-16 197 -141 338t-328 141 t-332 -142q-127 -138 -139 -337z" />
<glyph unicode="&#x1a0;" horiz-adv-x="1869" d="M103 745q0 350 188 564q186 211 504 211q315 0 502 -211q188 -213 188 -563.5t-188 -563.5q-186 -211 -502 -211t-504 209q-188 211 -188 565zM316 745.5q0 -282.5 129 -446.5t350 -164q219 0 348 164t129 446.5t-129 446.5t-348 164q-221 0 -350 -164t-129 -446.5z M1170 1290v119q53 -41 104 -66q45 -23 76 -22q47 0 69.5 28.5t22.5 79.5q0 23 -8 64q-6 27 -23 61h133q12 -49 16.5 -71.5t4.5 -63.5q0 -121 -43 -180q-43 -57 -137 -58q-49 0 -101 27q-57 31 -114 82z" />
<glyph unicode="&#x1a1;" horiz-adv-x="1251" d="M840 993v119q53 -41 104 -66q45 -23 76 -22q47 0 69.5 28.5t22.5 79.5q0 23 -8 64q-6 27 -23 61h133q12 -49 16.5 -71.5t4.5 -63.5q0 -121 -43 -180q-43 -57 -137 -58q-49 0 -101 27q-57 31 -114 82zM117 559q0 272 137 432q135 156 377 156q240 0 377 -155.5t137 -432 t-137.5 -432.5t-376.5 -156q-242 0 -377 156q-137 160 -137 432zM311 559q0 -201 86 -317q84 -115 234 -115q147 0 233 116.5t86 315.5t-86 315.5t-233.5 116.5t-233.5 -116.5t-86 -315.5z" />
<glyph unicode="&#x1a2;" horiz-adv-x="1941" d="M115 745q0 350 188 564q186 211 504 211q115 0 209 -27h295q229 0 329 -123q102 -125 103 -391v-979h-203v979q0 197 -53 268q-57 76 -178 76v-1141q-186 -211 -501.5 -211t-504.5 209q-188 211 -188 565zM328 745.5q0 -282.5 129 -446.5t350 -164q176 0 303 103v1048 q-137 70 -303 70q-221 0 -350 -164t-129 -446.5z" />
<glyph unicode="&#x1a3;" horiz-adv-x="1554" d="M113 559q0 272 137 432q135 156 377 156q102 0 182 -27h215q180 0 264 -96q80 -94 80 -309v-1141h-182v1141q0 150 -39 200q-37 49 -143 50v-838q-137 -156 -377 -156q-242 0 -377 156q-137 160 -137 432zM307 559q0 -201 86 -317q84 -115 234 -115q129 0 192 57v754 q-80 53 -192 53q-147 0 -233.5 -116.5t-86.5 -315.5z" />
<glyph unicode="&#x1a4;" horiz-adv-x="1333" d="M-104 1079v70q0 178 96 262q94 82 309 82h457q252 0 379 -113q129 -115 129 -334t-129 -333q-127 -113 -379 -113h-254v-600h-203v1327q-131 0 -190.5 -47t-59.5 -152v-49h-155zM504 766h254q139 0 217 73.5t78 207t-78 207t-217 73.5h-254v-561z" />
<glyph unicode="&#x1a5;" horiz-adv-x="1298" d="M184 -426v1577q0 215 82 309q84 96 262 96h254v-155h-229q-106 0 -143 -49q-39 -51 -39 -201v-201q55 96 147 148q88 49 211 49q203 0 332 -162q127 -160 127 -426t-127 -426q-129 -162 -332 -162q-123 0 -211 49q-92 51 -147 148v-594h-187zM371 559q0 -201 84 -319 q82 -115 229 -115t229 115q84 119 84 319q0 199 -84 318q-82 117 -229 116.5t-229 -116.5q-84 -119 -84 -318z" />
<glyph unicode="&#x1a6;" horiz-adv-x="1421" d="M201 0v1493h202v-264h254q256 0 381 -107q127 -109 127 -323q0 -139 -65 -234q-65 -92 -191 -129q63 -20 127 -94q59 -68 123 -199l205 -407h-217l-191 383q-74 150 -143 198q-71 49 -190 50h-220v-367h-202zM403 504h254q141 0 217 74q78 74 78 207t-78 206 q-74 72 -217 72h-254v-559z" />
<glyph unicode="&#x1a7;" horiz-adv-x="1298" d="M115 412q0 184 106 290q109 109 334 152l123 25q160 29 225 82q59 53 59.5 159.5t-90.5 171.5q-88 63 -264 64q-174 0 -403 -109v197q225 76 454.5 76t366.5 -113q139 -115 139 -299q0 -186 -100 -281q-102 -96 -328 -141l-123 -24q-154 -31 -221 -92.5t-67 -180.5 t94 -186q96 -68 266 -68q223 0 473 139v-208q-256 -94 -473 -95q-279 0 -428 113q-143 111 -143 328z" />
<glyph unicode="&#x1a8;" horiz-adv-x="1064" d="M100 309q0 137 82 213t279 119l63 14q150 35 197 70q49 37 49 100q0 82 -67.5 125t-206.5 43q-94 0 -174 -20q-94 -25 -162 -60v174q72 29 166 46q84 14 192 14q207 0 318 -86q113 -88 112 -244q0 -131 -76 -205q-78 -74 -247 -110l-64 -15q-170 -37 -221 -77.5 t-51 -114.5q0 -82 69 -125q74 -45 201 -45q102 0 197 27q100 29 200 79v-190q-115 -37 -206 -53q-88 -16 -187 -17q-219 0 -340 90q-123 92 -123 248z" />
<glyph unicode="&#x1a9;" horiz-adv-x="1292" d="M201 0v170l479 625l-479 528v170h944v-170h-713l479 -524l-479 -629h731v-170h-962z" />
<glyph unicode="&#x1aa;" horiz-adv-x="686" d="M-270 1339q0 217 303 217q180 0 264 -96q51 -63 70 -176h190v-154h-182v-1218q0 -106 39 -145t137 -39h176v-154h-174q-190 0 -276.5 86t-86.5 272v1198h-190q-270 0 -270 209zM-115 1335q-2 -27 27 -39t88 -12h180q-10 49 -24 68q-33 49 -144 49q-123 0 -127 -66z" />
<glyph unicode="&#x1ab;" horiz-adv-x="802" d="M55 977v143h135v318h185v-318h379v-143h-379v-608q0 -135 37 -176q37 -39 153 -39h189v-174q0 -215 -82 -310q-84 -96 -262 -96h-70v156h47q109 0 145.5 49t36.5 201v20q-212 0 -295 80q-84 80 -84 289v608h-135z" />
<glyph unicode="&#x1ac;" horiz-adv-x="1249" d="M25 1079v70q0 178 96 262q94 82 309 82h827v-170h-530v-1323h-203v1323h-94q-133 0 -190 -45q-59 -47 -60 -150v-49h-155z" />
<glyph unicode="&#x1ad;" horiz-adv-x="802" d="M55 977v143h135v78q0 186 86 272t277 86h174v-153h-176q-96 0 -137 -41q-39 -39 -39 -143v-99h379v-143h-379v-608q0 -135 37 -176q37 -39 153 -39h189v-154h-189q-215 0 -295 80t-80 289v608h-135z" />
<glyph unicode="&#x1ae;" horiz-adv-x="1249" d="M-6 1323v170h1263v-170h-530v-1219q0 -197 55.5 -270.5t188.5 -73.5h63v-170h-78q-229 0 -329 121q-102 125 -103 393v1219h-530z" />
<glyph unicode="&#x1af;" horiz-adv-x="1755" d="M174 581v932h203v-907q0 -240 88 -346q86 -104 280.5 -104.5t280.5 104.5q88 106 88 346v907h203v-932q0 -289 -145 -440q-143 -150 -426 -150q-285 0 -428.5 149.5t-143.5 440.5zM1235 1290v119q53 -41 104 -66q45 -23 76 -22q47 0 69.5 28.5t22.5 79.5q0 23 -8 64 q-6 27 -23 61h133q12 -49 16.5 -71.5t4.5 -63.5q0 -121 -43 -180q-43 -57 -137 -58q-49 0 -101 27q-57 31 -114 82z" />
</font>
</defs>
</svg>
